<?xml version="1.0" standalone="no"?>
<!DOCTYPE svg PUBLIC "-//W3C//DTD SVG 20010904//EN"
 "https://www.w3.org/TR/2001/REC-SVG-20010904/DTD/svg10.dtd">
<svg version="1.0" xmlns="https://www.w3.org/2000/svg"
 width="300.000000pt" height="300.000000pt" viewBox="0 0 300.000000 300.000000"
 preserveAspectRatio="xMidYMid meet">
<metadata>
Created by potrace 1.11, written by Peter Selinger 2001-2013
</metadata>
<g transform="translate(0.000000,300.000000) scale(0.100000,-0.100000)"
fill="#000000" stroke="none">
<path d="M0 1500 l0 -1500 1500 0 1500 0 0 1500 0 1500 -1500 0 -1500 0 0
-1500z m2830 1283 c0 -21 -82 -151 -145 -229 -41 -51 -89 -116 -108 -146 -38
-58 -87 -168 -87 -193 0 -29 -20 -15 -44 33 -32 63 -96 134 -157 174 l-50 32
73 26 c94 33 144 61 267 151 99 73 229 157 244 158 4 1 7 -2 7 -6z m-1402
-140 c-10 -2 -28 -2 -40 0 -13 2 -5 4 17 4 22 1 32 -1 23 -4z m190 0 c-10 -2
-28 -2 -40 0 -13 2 -5 4 17 4 22 1 32 -1 23 -4z m-285 -10 c-7 -2 -19 -2 -25
0 -7 3 -2 5 12 5 14 0 19 -2 13 -5z m360 0 c-7 -2 -19 -2 -25 0 -7 3 -2 5 12
5 14 0 19 -2 13 -5z m-416 -9 c-3 -3 -12 -4 -19 -1 -8 3 -5 6 6 6 11 1 17 -2
13 -5z m433 -10 c45 -8 118 -29 163 -46 45 -16 92 -31 104 -32 11 0 19 -5 15
-10 -3 -5 2 -6 12 -3 11 5 15 3 10 -5 -5 -8 -2 -9 10 -5 10 4 15 3 11 -3 -7
-11 52 -43 66 -35 5 4 9 3 8 -2 -4 -22 2 -34 14 -27 6 4 -14 -20 -46 -52 -31
-33 -66 -60 -77 -61 -11 -1 -53 14 -93 32 -257 119 -558 119 -814 0 -50 -23
-72 -38 -67 -46 4 -8 3 -9 -5 -5 -13 8 -100 -44 -123 -72 -12 -15 -11 -16 5
-3 27 21 20 7 -10 -20 -15 -13 -21 -16 -14 -6 7 9 10 17 5 17 -11 0 -114 -102
-114 -113 0 -5 7 -4 15 3 26 22 16 4 -12 -21 -20 -18 -24 -19 -13 -4 14 19 14
19 -3 6 -10 -8 -22 -22 -27 -31 -7 -14 -2 -17 33 -19 132 -7 225 -106 211
-225 -6 -52 -5 -57 25 -87 32 -31 32 -31 119 -27 73 4 115 14 267 66 99 34
205 68 235 76 31 8 54 19 52 26 -1 6 2 9 8 5 12 -8 52 13 45 24 -2 5 3 8 13 7
9 0 16 4 15 10 -1 7 5 11 15 10 9 0 16 4 15 11 -2 7 3 10 11 7 8 -3 17 0 22 7
5 8 3 10 -6 4 -9 -5 -11 -4 -6 4 4 6 11 9 16 6 13 -8 52 14 45 25 -3 5 0 12 6
16 8 5 9 3 4 -6 -5 -8 -3 -11 6 -8 8 3 14 10 14 16 0 5 4 14 9 19 5 5 6 2 1
-6 -5 -9 -3 -12 6 -9 8 3 14 10 14 16 0 5 4 14 9 19 5 5 6 2 1 -6 -5 -9 -3
-12 6 -9 8 3 14 10 14 16 0 5 4 14 9 19 5 5 6 3 2 -4 -11 -19 9 -16 25 4 12
14 12 16 0 8 -9 -5 -12 -4 -7 3 4 6 13 9 20 6 8 -3 17 0 22 7 5 8 3 10 -7 4
-8 -5 -11 -4 -6 1 5 5 16 9 25 9 9 0 16 5 15 11 -1 7 5 11 15 10 9 0 17 4 17
11 0 6 4 15 9 20 5 5 6 3 2 -4 -11 -19 9 -16 25 4 12 14 12 16 0 8 -9 -5 -12
-4 -7 3 4 6 13 9 20 6 8 -3 17 0 22 7 5 8 3 10 -7 4 -8 -5 -11 -4 -6 1 5 5 16
9 25 9 9 0 17 5 17 12 0 6 4 15 9 20 5 5 6 2 1 -6 -5 -9 -3 -12 6 -9 8 3 14
11 14 19 0 8 9 14 20 14 11 0 20 7 20 15 0 8 9 15 20 15 11 0 19 5 18 10 -1 6
10 11 24 11 l25 2 -26 -27 c-15 -15 -24 -30 -21 -32 3 -3 -9 -19 -27 -35 -17
-16 -28 -23 -24 -16 4 6 3 12 -2 12 -11 0 -53 -45 -47 -51 2 -3 -30 -39 -73
-80 -42 -40 -66 -62 -52 -46 41 47 8 30 -47 -25 -55 -54 -74 -90 -25 -47 15
13 -4 -9 -42 -48 -38 -40 -73 -70 -76 -68 -11 7 -43 -32 -36 -43 3 -5 -7 -20
-22 -33 l-27 -24 25 30 24 30 -28 -27 c-18 -16 -39 -56 -56 -105 -15 -43 -62
-155 -104 -250 -94 -213 -97 -237 -32 -297 73 -68 86 -98 86 -198 0 -104 -1
-103 117 -111 95 -6 154 -32 189 -84 20 -30 23 -31 35 -16 12 14 12 16 0 8 -9
-5 -12 -4 -7 3 4 6 13 9 20 6 7 -3 19 3 27 13 13 16 12 17 -3 4 -26 -19 -22
-8 4 15 12 10 18 13 14 7 -19 -33 17 -7 75 54 78 82 133 159 123 175 -4 7 -3
8 4 4 14 -8 70 102 100 194 36 113 46 181 45 310 -1 141 -27 264 -81 382 l-30
66 54 53 c50 49 94 72 94 48 0 -5 4 -7 10 -4 6 4 7 -1 3 -11 -4 -12 -3 -15 5
-10 8 5 10 1 5 -10 -4 -12 -3 -15 5 -10 8 5 10 1 5 -10 -4 -12 -3 -15 5 -10 8
5 10 1 5 -10 -5 -13 -3 -15 7 -9 9 5 11 4 6 -4 -5 -7 1 -35 13 -64 106 -268
100 -585 -19 -859 -22 -50 -36 -96 -33 -101 3 -6 1 -7 -4 -4 -6 4 -20 -9 -32
-29 -24 -41 -26 -48 -8 -38 7 4 9 3 4 -2 -5 -5 -14 -9 -19 -9 -6 0 -13 -6 -16
-14 -3 -9 0 -11 9 -5 12 7 12 5 0 -9 -16 -20 -26 -23 -15 -5 5 9 2 9 -9 -1
-20 -16 -23 -36 -4 -25 8 5 7 2 -2 -9 -8 -10 -16 -15 -19 -12 -7 6 -32 -15
-32 -27 0 -5 5 -6 10 -3 22 14 6 -4 -67 -75 -42 -41 -71 -67 -64 -57 21 28 -3
20 -30 -10 -18 -20 -19 -24 -4 -13 18 14 19 14 6 -2 -7 -10 -17 -15 -22 -12
-11 7 -60 -26 -54 -36 3 -5 0 -12 -6 -16 -8 -4 -9 -3 -5 4 11 18 -6 14 -34 -9
l-25 -20 25 11 c23 10 24 10 6 -4 -10 -9 -23 -13 -27 -10 -5 2 -36 -9 -69 -26
-147 -74 -321 -114 -500 -114 -179 0 -353 40 -500 114 -33 17 -64 28 -69 26
-4 -3 -17 1 -27 10 -18 14 -17 14 6 4 l25 -11 -25 20 c-28 23 -45 27 -34 9 4
-7 3 -8 -5 -4 -6 4 -9 11 -6 16 6 10 -43 43 -54 36 -5 -3 -15 2 -22 12 -13 16
-12 16 6 2 15 -11 14 -7 -4 13 -27 30 -51 38 -30 9 7 -9 -22 17 -64 58 -73 71
-89 89 -67 75 6 -3 10 -2 10 3 0 12 -25 33 -32 27 -3 -3 -11 2 -19 12 -9 11
-10 14 -1 9 18 -11 15 9 -5 25 -11 10 -14 10 -9 2 11 -19 1 -16 -15 4 -12 14
-12 16 0 9 9 -6 12 -4 9 5 -3 8 -10 14 -16 14 -5 0 -14 4 -19 9 -5 5 -3 6 5 2
17 -10 15 -3 -9 38 -12 20 -26 33 -32 29 -5 -3 -7 -1 -3 5 7 11 -23 84 -33 78
-3 -2 -7 6 -7 17 -1 12 -13 54 -27 92 -80 219 -80 504 0 727 14 40 26 83 27
95 0 11 5 19 10 15 5 -3 6 2 3 12 -5 11 -3 15 5 10 8 -5 9 -2 5 10 -5 11 -3
15 5 10 8 -5 9 -2 5 10 -5 11 -3 15 5 10 8 -5 9 -2 5 9 -3 9 -3 16 2 14 7 -2
101 128 101 140 0 2 -4 1 -10 -2 -18 -11 -11 1 12 21 22 19 23 19 8 -1 -11
-15 -7 -14 13 4 26 23 38 49 17 36 -21 -13 -8 3 51 60 34 33 59 54 55 48 -13
-23 10 -14 35 14 13 15 16 21 7 14 -25 -19 -22 -8 4 15 12 10 18 13 14 7 -11
-19 9 -16 25 4 12 14 12 16 0 8 -9 -5 -12 -4 -7 3 4 6 13 9 20 6 8 -3 17 0 22
7 5 8 3 10 -6 4 -8 -5 -11 -4 -6 3 4 6 13 9 20 6 8 -3 17 0 22 7 5 8 3 10 -6
4 -9 -5 -11 -4 -6 4 4 6 11 9 16 6 13 -8 72 24 65 35 -4 6 1 7 11 3 12 -4 15
-3 10 5 -5 8 -1 10 10 5 10 -3 15 -2 12 3 -4 5 4 10 15 11 35 3 220 71 205 76
-7 2 -2 2 12 0 14 -2 45 1 70 6 76 15 310 12 400 -5z m37 10 c-3 -3 -12 -4
-19 -1 -8 3 -5 6 6 6 11 1 17 -2 13 -5z m40 -10 c-3 -3 -12 -4 -19 -1 -8 3 -5
6 6 6 11 1 17 -2 13 -5z m-590 -10 c-3 -3 -12 -4 -19 -1 -8 3 -5 6 6 6 11 1
17 -2 13 -5z m231 -171 c-10 -2 -28 -2 -40 0 -13 2 -5 4 17 4 22 1 32 -1 23
-4z m190 0 c-10 -2 -28 -2 -40 0 -13 2 -5 4 17 4 22 1 32 -1 23 -4z m-281 -9
c-3 -3 -12 -4 -19 -1 -8 3 -5 6 6 6 11 1 17 -2 13 -5z m350 0 c-3 -3 -12 -4
-19 -1 -8 3 -5 6 6 6 11 1 17 -2 13 -5z m-578 -68 c-10 -9 -69 -36 -69 -32 0
7 52 35 64 36 5 0 7 -2 5 -4z m821 -11 c17 -9 30 -18 30 -21 0 -4 -59 23 -69
32 -10 9 13 3 39 -11z m-920 -39 c0 -2 -18 -15 -40 -30 -22 -14 -40 -24 -40
-22 0 5 71 56 77 56 2 0 3 -2 3 -4z m-160 -119 c0 -2 -12 -14 -27 -28 l-28
-24 24 28 c23 25 31 32 31 24z m-296 -47 c-15 -22 -29 -40 -31 -40 -5 0 3 15
29 53 30 43 31 32 2 -13z m-123 -227 c-12 -20 -14 -14 -5 12 4 9 9 14 11 11 3
-2 0 -13 -6 -23z m1929 -17 c0 -12 -5 -7 -19 24 -11 24 -11 24 3 6 9 -11 16
-24 16 -30z m30 -71 c0 -5 -5 -3 -10 5 -5 8 -10 20 -10 25 0 6 5 3 10 -5 5 -8
10 -19 10 -25z m-2003 -47 c-3 -8 -6 -5 -6 6 -1 11 2 17 5 13 3 -3 4 -12 1
-19z m2020 -20 c-3 -8 -6 -5 -6 6 -1 11 2 17 5 13 3 -3 4 -12 1 -19z m-2030
-30 c-3 -8 -6 -5 -6 6 -1 11 2 17 5 13 3 -3 4 -12 1 -19z m2040 -10 c-3 -8 -6
-5 -6 6 -1 11 2 17 5 13 3 -3 4 -12 1 -19z m-2050 -40 c-3 -7 -5 -2 -5 12 0
14 2 19 5 13 2 -7 2 -19 0 -25z m2060 -10 c-3 -7 -5 -2 -5 12 0 14 2 19 5 13
2 -7 2 -19 0 -25z m210 0 c-3 -7 -5 -2 -5 12 0 14 2 19 5 13 2 -7 2 -19 0 -25z
m-2280 -80 c-2 -13 -4 -5 -4 17 -1 22 1 32 4 23 2 -10 2 -28 0 -40z m2080 0
c-2 -13 -4 -5 -4 17 -1 22 1 32 4 23 2 -10 2 -28 0 -40z m210 5 c-3 -10 -5 -2
-5 17 0 19 2 27 5 18 2 -10 2 -26 0 -35z m-2290 -215 c-2 -13 -4 -5 -4 17 -1
22 1 32 4 23 2 -10 2 -28 0 -40z m2080 -5 c-3 -10 -5 -2 -5 17 0 19 2 27 5 18
2 -10 2 -26 0 -35z m210 0 c-3 -10 -5 -2 -5 17 0 19 2 27 5 18 2 -10 2 -26 0
-35z m-2280 -75 c-3 -7 -5 -2 -5 12 0 14 2 19 5 13 2 -7 2 -19 0 -25z m2060
10 c-3 -8 -6 -5 -6 6 -1 11 2 17 5 13 3 -3 4 -12 1 -19z m210 0 c-3 -8 -6 -5
-6 6 -1 11 2 17 5 13 3 -3 4 -12 1 -19z m-220 -40 c-3 -8 -6 -5 -6 6 -1 11 2
17 5 13 3 -3 4 -12 1 -19z m-2040 -10 c-3 -8 -6 -5 -6 6 -1 11 2 17 5 13 3 -3
4 -12 1 -19z m2250 -10 c-3 -8 -6 -5 -6 6 -1 11 2 17 5 13 3 -3 4 -12 1 -19z
m-220 -20 c-3 -8 -6 -5 -6 6 -1 11 2 17 5 13 3 -3 4 -12 1 -19z m-2020 -20
c-3 -8 -6 -5 -6 6 -1 11 2 17 5 13 3 -3 4 -12 1 -19z m1969 -115 c-8 -15 -15
-25 -16 -21 0 12 23 58 27 54 3 -2 -2 -17 -11 -33z m-1916 -28 c0 -5 -5 -3
-10 5 -5 8 -10 20 -10 25 0 6 5 3 10 -5 5 -8 10 -19 10 -25z m1890 -25 c-6
-11 -13 -20 -16 -20 -2 0 0 9 6 20 6 11 13 20 16 20 2 0 0 -9 -6 -20z m205
-49 c-21 -43 -29 -39 -8 4 9 19 18 33 21 31 2 -2 -4 -18 -13 -35z m-2056 -11
c11 -24 11 -24 -3 -6 -9 11 -16 24 -16 30 0 12 5 7 19 -24z m1782 -48 c-11
-16 -28 -35 -38 -43 -9 -8 -2 5 17 29 38 48 52 57 21 14z m-1741 -22 c6 -11 8
-20 6 -20 -3 0 -10 9 -16 20 -6 11 -8 20 -6 20 3 0 10 -9 16 -20z m1970 0 c-6
-11 -13 -20 -16 -20 -2 0 0 9 6 20 6 11 13 20 16 20 2 0 0 -9 -6 -20z m-280
-43 c0 -2 -19 -21 -42 -42 l-43 -40 40 43 c36 39 45 47 45 39z m-1369 -304
c13 -16 12 -17 -3 -4 -10 7 -18 15 -18 17 0 8 8 3 21 -13z m1339 13 c0 -2 -8
-10 -17 -17 -16 -13 -17 -12 -4 4 13 16 21 21 21 13z m-1134 -134 c-5 -4 -86
36 -86 43 0 3 20 -5 45 -17 24 -12 43 -23 41 -26z m994 43 c0 -6 -76 -45 -87
-45 -4 1 12 12 37 25 50 27 50 27 50 20z m-895 -75 c13 -6 15 -9 5 -9 -8 0
-22 4 -30 9 -18 12 -2 12 25 0z m735 0 c-8 -5 -22 -9 -30 -9 -10 0 -8 3 5 9
27 12 43 12 25 0z m-653 -26 c-3 -3 -12 -4 -19 -1 -8 3 -5 6 6 6 11 1 17 -2
13 -5z m570 0 c-3 -3 -12 -4 -19 -1 -8 3 -5 6 6 6 11 1 17 -2 13 -5z m-530
-10 c-3 -3 -12 -4 -19 -1 -8 3 -5 6 6 6 11 1 17 -2 13 -5z m490 0 c-3 -3 -12
-4 -19 -1 -8 3 -5 6 6 6 11 1 17 -2 13 -5z m-440 -10 c-3 -3 -12 -4 -19 -1 -8
3 -5 6 6 6 11 1 17 -2 13 -5z m390 0 c-3 -3 -12 -4 -19 -1 -8 3 -5 6 6 6 11 1
17 -2 13 -5z m-299 -11 c-10 -2 -28 -2 -40 0 -13 2 -5 4 17 4 22 1 32 -1 23
-4z m230 0 c-10 -2 -28 -2 -40 0 -13 2 -5 4 17 4 22 1 32 -1 23 -4z"/>
<path d="M2055 2388 l-50 -53 53 50 c48 46 57 55 49 55 -1 0 -25 -24 -52 -52z"/>
<path d="M690 2305 c-24 -25 -42 -45 -39 -45 3 0 25 20 49 45 24 25 42 45 39
45 -3 0 -25 -20 -49 -45z"/>
<path d="M2264 2228 l-19 -23 23 19 c21 18 27 26 19 26 -2 0 -12 -10 -23 -22z"/>
<path d="M2135 2108 l-50 -53 53 50 c28 27 52 51 52 52 0 8 -9 -1 -55 -49z"/>
<path d="M2400 2003 l-55 -58 58 55 c53 50 62 60 54 60 -1 0 -27 -26 -57 -57z"/>
<path d="M1920 1895 c-24 -25 -42 -45 -39 -45 3 0 25 20 49 45 24 25 42 45 39
45 -3 0 -25 -20 -49 -45z"/>
<path d="M690 695 c30 -30 57 -55 59 -55 3 0 -19 25 -49 55 -30 30 -57 55 -59
55 -3 0 19 -25 49 -55z"/>
<path d="M2300 693 l-55 -58 58 55 c31 30 57 56 57 57 0 8 -10 -1 -60 -54z"/>
</g>
</svg>
