<?xml version="1.0" standalone="no"?>
<!DOCTYPE svg PUBLIC "-//W3C//DTD SVG 1.1//EN" "http://www.w3.org/Graphics/SVG/1.1/DTD/svg11.dtd" >
<svg xmlns="http://www.w3.org/2000/svg" xmlns:xlink="http://www.w3.org/1999/xlink" version="1.1">
<metadata>
Created by FontForge 20170731 at Sat Sep  7 01:36:21 2019
 By Aleksey,,,
(c) 2015-2017 Apple Inc. All rights reserved.
</metadata>
<defs>
<font id="SFProText-HeavyItalic" horiz-adv-x="0" >
  <font-face 
    font-family="SF Pro Text"
    font-weight="800"
    font-style="italic"
    font-stretch="normal"
    units-per-em="2048"
    panose-1="0 0 0 0 0 0 0 0 0 0"
    ascent="1638"
    descent="-410"
    x-height="1113"
    cap-height="1443"
    bbox="-645 -534 3051.12 2255"
    underline-thickness="227"
    underline-position="-716"
    slope="-12"
    unicode-range="U+0020-1F16B"
  />
<missing-glyph horiz-adv-x="2048" 
d="M361 1785l35 165h1849l-36 -165h-1848zM265 1330l35 164h1848l-35 -164h-1848zM167 874l36 165h1848l-35 -165h-1849zM71 417l35 166h1848l-35 -166h-1848zM-27 -38l36 165h1848l-35 -165h-1849zM-123 -494l35 165h1848l-35 -165h-1848z" />
    <glyph glyph-name=".notdef" horiz-adv-x="2048" 
d="M361 1785l35 165h1849l-36 -165h-1848zM265 1330l35 164h1848l-35 -164h-1848zM167 874l36 165h1848l-35 -165h-1849zM71 417l35 166h1848l-35 -166h-1848zM-27 -38l36 165h1848l-35 -165h-1849zM-123 -494l35 165h1848l-35 -165h-1848z" />
    <glyph glyph-name=".null" 
 />
    <glyph glyph-name="nonmarkingreturn" unicode="&#x2029;" 
 />
    <glyph glyph-name="nonmarkingreturn" unicode="&#x2028;" 
 />
    <glyph glyph-name="space" unicode=" " horiz-adv-x="502" 
 />
    <glyph glyph-name="exclam" unicode="!" horiz-adv-x="777" 
d="M392 1443h383l-238 -970h-320zM301 -35q-93 0 -148.5 50.5t-55.5 124.5q0 84 54.5 137t149.5 53q93 0 148.5 -51t55.5 -124q0 -84 -55 -137t-149 -53z" />
    <glyph glyph-name="quotedbl" unicode="&#x22;" horiz-adv-x="1079" 
d="M487 802h-297l136 641h297zM995 802h-298l137 641h297z" />
    <glyph glyph-name="numbersign" unicode="#" horiz-adv-x="1394" 
d="M604 0l120 368h-223l-120 -368h-262l119 368h-221l80 253h222l71 221h-222l80 251h223l115 351h262l-114 -351h223l114 351h264l-114 -351h229l-78 -251h-233l-71 -221h231l-79 -253h-233l-119 -368h-264zM552 594h264l91 274h-266z" />
    <glyph glyph-name="dollar" unicode="$" horiz-adv-x="1461" 
d="M130 439h334q8 -56 50.5 -97t110.5 -57l64 301l-69 22q-174 56 -259 147.5t-85 229.5q0 202 151 325t394 123q32 0 48 -1l33 156h104l-35 -167q186 -31 289.5 -139t104.5 -276h-324q-2 55 -34.5 94.5t-91.5 56.5l-62 -293l74 -24q185 -58 267 -142.5t82 -227.5
q0 -207 -156.5 -333.5t-420.5 -126.5h-28l-32 -151h-105l34 159q-206 26 -321.5 135.5t-116.5 285.5zM633 1029q0 -45 28 -76t94 -57l57 272q-85 -4 -132 -43t-47 -96zM917 419q0 46 -27.5 76t-102.5 58l-59 -277q88 4 138.5 42.5t50.5 100.5z" />
    <glyph glyph-name="percent" unicode="%" horiz-adv-x="2065" 
d="M498 756q-141 0 -227.5 81.5t-86.5 226.5q0 78 26.5 150t75 129t124.5 91t168 34q143 0 230 -80t87 -225q0 -79 -28 -152t-77.5 -130t-125.5 -91t-166 -34zM666 0h-269l1071 1443h268zM513 954q50 0 86 68t36 143q0 53 -19.5 79t-52.5 26q-37 0 -65.5 -38t-41.5 -86
t-13 -91q0 -48 19.5 -74.5t50.5 -26.5zM1556 -17q-141 0 -228 81t-87 227q0 78 26.5 150t75 129t124.5 91t168 34q143 0 230 -80t87 -225q0 -107 -46.5 -198.5t-138.5 -150t-211 -58.5zM1571 181q51 0 86.5 67.5t35.5 143.5q0 52 -20 78.5t-52 26.5q-37 0 -66 -38.5
t-42 -86.5t-13 -91q0 -48 19.5 -74t51.5 -26z" />
    <glyph glyph-name="ampersand" unicode="&#x26;" horiz-adv-x="1560" 
d="M1006 0l-45 68q-181 -96 -382 -96q-227 0 -375.5 111t-148.5 281q0 280 348 417l77 31q-116 166 -116 297q0 150 127.5 251t317.5 101q182 0 304 -89.5t122 -223.5q0 -269 -370 -418l179 -266q92 133 101 274l2 24h285l-3 -29q-27 -276 -234 -491l163 -242h-352z
M658 1078q0 -69 84 -176q202 76 202 215q0 54 -36 86.5t-93 32.5q-65 0 -111 -46t-46 -112zM611 215q118 0 218 55l-229 348q-7 -2 -23.5 -8t-18.5 -7q-88 -34 -134.5 -87.5t-46.5 -121.5q0 -79 65 -129t169 -50z" />
    <glyph glyph-name="quotesingle" unicode="'" horiz-adv-x="571" 
d="M487 802h-297l136 641h297z" />
    <glyph glyph-name="parenleft" unicode="(" horiz-adv-x="929" 
d="M671 -312h-320q-57 122 -91 314.5t-34 382.5q0 322 126 623.5t342 521.5h369q-103 -106 -188 -232.5t-151.5 -278t-103 -330.5t-35.5 -368q3 -397 86 -633z" />
    <glyph glyph-name="parenright" unicode=")" horiz-adv-x="929" 
d="M280 1530h320q57 -121 91 -313.5t34 -382.5q0 -323 -126 -624t-342 -522h-368q139 144 243 319t170 408.5t64 482.5q-1 392 -86 632z" />
    <glyph glyph-name="asterisk" unicode="*" horiz-adv-x="1016" 
d="M843 717l-188 204l-12 -286h-235l114 295l-260 -165l-79 210l299 75l-260 121l158 190l189 -209l10 291h236l-118 -301l266 171l79 -210l-299 -76l258 -119z" />
    <glyph glyph-name="plus" unicode="+" horiz-adv-x="1461" 
d="M861 431l-86 -401h-313l86 401h-382l65 305h381l86 401h313l-86 -401h382l-65 -305h-381z" />
    <glyph glyph-name="comma" unicode="," horiz-adv-x="767" 
d="M188 -400h-244l234 646h335z" />
    <glyph glyph-name="hyphen" unicode="&#x2011;" horiz-adv-x="1006" 
d="M146 425l68 316h657l-67 -316h-658z" />
    <glyph glyph-name="hyphen" unicode="-" horiz-adv-x="1006" 
d="M146 425l68 316h657l-67 -316h-658z" />
    <glyph glyph-name="period" unicode="." horiz-adv-x="767" 
d="M293 -33q-91 0 -146.5 53.5t-55.5 129.5q0 86 55 142t147 56q91 0 146.5 -53.5t55.5 -129.5q0 -86 -55 -142t-147 -56z" />
    <glyph glyph-name="slash" unicode="/" horiz-adv-x="857" 
d="M163 -312h-344l897 1842h344z" />
    <glyph glyph-name="zero" unicode="0" horiz-adv-x="1460" 
d="M676 -39q-250 0 -394.5 154.5t-144.5 422.5q0 271 93 487t257 336.5t368 120.5q252 0 397.5 -154t145.5 -421q0 -203 -55 -379t-150.5 -300.5t-229.5 -195.5t-287 -71zM506 514q0 -127 46.5 -198t129.5 -71q89 0 169.5 95t129 254.5t48.5 336.5q0 126 -47 196t-131 70
q-89 0 -169 -94.5t-128 -253t-48 -335.5z" />
    <glyph glyph-name="one" unicode="1" horiz-adv-x="1101" 
d="M371 0l234 1100h-19l-398 -234l70 327l420 250h367l-307 -1443h-367z" />
    <glyph glyph-name="two" unicode="2" horiz-adv-x="1360" 
d="M214 1004q15 208 182 343t409 135q222 0 367 -114.5t145 -290.5q0 -73 -21.5 -132.5t-80 -128t-139 -137t-220.5 -175.5l-259 -202l-4 -19h592l-60 -283h-1090l56 257l526 410q210 163 275.5 234.5t65.5 145.5q0 69 -52 112.5t-135 43.5q-31 0 -61.5 -9t-64 -30
t-59.5 -62t-38 -98h-334z" />
    <glyph glyph-name="three" unicode="3" horiz-adv-x="1409" 
d="M527 615l53 254h183q109 0 172 48.5t63 132.5q0 71 -55 114t-145 43q-79 0 -136.5 -40.5t-80.5 -110.5h-333q41 196 197.5 311t383.5 115q226 0 371.5 -109.5t145.5 -279.5q0 -137 -99.5 -241t-245.5 -118l-3 -20q123 -28 188.5 -106t65.5 -196q0 -128 -76 -231.5
t-211.5 -161.5t-303.5 -58q-255 0 -411.5 119t-156.5 312q0 28 6 71h342v-1q-14 -89 49.5 -150t171.5 -61q101 0 165 56.5t64 145.5q0 72 -57 117t-147 45h-160z" />
    <glyph glyph-name="four" unicode="4" horiz-adv-x="1463" 
d="M708 0l50 234h-713l62 321q241 328 728 888h527l-197 -923h180l-61 -286h-179l-50 -234h-347zM425 525l-3 -18h403l144 674h-19q-267 -311 -525 -656z" />
    <glyph glyph-name="five" unicode="5" horiz-adv-x="1411" 
d="M679 -39q-156 0 -281 57t-195.5 158t-70.5 226q0 17 2 41h332v-1q4 -88 68.5 -142.5t164.5 -54.5q108 0 180.5 75.5t72.5 186.5q0 98 -59 156t-155 58q-59 0 -117 -28t-92 -71h-330l241 821h953l-62 -286h-662l-99 -312h18q113 119 297 119q175 0 292 -119.5t117 -299.5
q0 -255 -172 -419.5t-443 -164.5z" />
    <glyph glyph-name="six" unicode="6" horiz-adv-x="1459" 
d="M1321 517q0 -154 -78.5 -282t-215 -201t-301.5 -73q-271 0 -423 159t-152 442q0 147 32.5 284.5t96.5 252.5t151.5 201t204 134t247.5 48q229 0 378.5 -124.5t151.5 -315.5h-352q-11 72 -63.5 114t-131.5 42q-125 0 -220 -117t-124 -308l19 -1q61 85 151.5 130.5
t198.5 45.5q188 0 309 -121t121 -310zM756 695q-106 0 -178 -71t-72 -175q0 -90 61.5 -149t157.5 -59q104 0 174.5 71t70.5 176q0 90 -60.5 148.5t-153.5 58.5z" />
    <glyph glyph-name="seven" unicode="7" horiz-adv-x="1277" 
d="M70 0l841 1141l5 20h-685l60 282h1066l-60 -283l-829 -1160h-398z" />
    <glyph glyph-name="eight" unicode="8" horiz-adv-x="1472" 
d="M1311 405q0 -194 -178 -319t-454 -125q-259 0 -423.5 115.5t-164.5 296.5q0 156 111.5 268.5t295.5 141.5l4 19q-93 34 -149 107.5t-56 160.5q0 117 73 211.5t203 147.5t292 53q148 0 271 -50.5t193.5 -138.5t70.5 -195q0 -136 -92.5 -233.5t-243.5 -120.5l-4 -19
q117 -40 184 -125.5t67 -194.5zM645 1031q0 -71 51.5 -117t131.5 -46q87 0 148.5 58t61.5 138q0 71 -52.5 117.5t-131.5 46.5q-87 0 -148 -57.5t-61 -139.5zM719 622q-104 0 -173.5 -62t-69.5 -155q0 -82 60.5 -133t158.5 -51q105 0 174.5 61t69.5 153q0 82 -61.5 134.5
t-158.5 52.5z" />
    <glyph glyph-name="nine" unicode="9" horiz-adv-x="1457" 
d="M209 923q0 158 77.5 286t214.5 200.5t307 72.5q269 0 419 -160.5t150 -446.5q0 -144 -33.5 -280t-97.5 -250.5t-151 -200.5t-202 -134.5t-242 -48.5q-224 0 -376.5 120.5t-160.5 303.5h353q7 -64 62 -102.5t140 -38.5q132 0 229 117.5t119 304.5h-19q-127 -176 -347 -176
q-191 0 -316.5 123t-125.5 310zM774 743q105 0 176 70.5t71 175.5q0 91 -59.5 149t-154.5 58q-104 0 -174.5 -70.5t-70.5 -175.5q0 -91 59.5 -149t152.5 -58z" />
    <glyph glyph-name="colon" unicode=":" horiz-adv-x="767" 
d="M437 643q-91 0 -146.5 53.5t-55.5 129.5q0 86 55 142t147 56q91 0 146 -53.5t55 -129.5q0 -86 -54.5 -142t-146.5 -56zM293 -33q-91 0 -146.5 53.5t-55.5 129.5q0 86 55 142t147 56q91 0 146.5 -53.5t55.5 -129.5q0 -86 -55 -142t-147 -56z" />
    <glyph glyph-name="semicolon" unicode=";" horiz-adv-x="767" 
d="M437 643q-91 0 -146.5 53.5t-55.5 129.5q0 86 55 142t147 56q91 0 146 -53.5t55 -129.5q0 -86 -54.5 -142t-146.5 -56zM188 -400h-244l234 646h335z" />
    <glyph glyph-name="less" unicode="&#x3c;" horiz-adv-x="1461" 
d="M1223 343l-70 -331l-987 416l66 311l1164 416l-77 -359l-733 -220l-2 -11z" />
    <glyph glyph-name="equal" unicode="=" horiz-adv-x="1461" 
d="M1294 698h-1066l60 287h1067zM1185 182h-1067l61 287h1066z" />
    <glyph glyph-name="greater" unicode="&#x3e;" horiz-adv-x="1461" 
d="M250 824l70 331l988 -416l-66 -311l-1165 -416l77 359l733 220l2 11z" />
    <glyph glyph-name="question" unicode="?" horiz-adv-x="1189" 
d="M188 1039q21 185 162.5 301t357.5 116q224 0 360 -103.5t136 -267.5q0 -128 -72 -232.5t-209 -164.5q-115 -50 -160.5 -91t-59.5 -109l-8 -35h-318l8 55q20 135 73.5 207t169.5 123q123 55 171 104.5t48 115.5q0 56 -42 91t-113 35q-64 0 -113.5 -39.5t-65.5 -105.5h-325
zM478 -33q-93 0 -151 47.5t-58 124.5q0 84 58.5 139.5t150.5 55.5q89 0 148.5 -48t59.5 -124q0 -82 -58 -138.5t-150 -56.5z" />
    <glyph glyph-name="at" unicode="@" horiz-adv-x="1908" 
d="M1081 1446q219 0 390.5 -86.5t266.5 -242.5t95 -355q0 -174 -62 -315t-171 -221.5t-243 -80.5q-113 0 -183.5 43.5t-70.5 115.5q0 6 0.5 15.5t0.5 13.5l-19 -4q-82 -144 -232 -144q-133 0 -213 95t-80 253q0 133 52.5 244.5t143 175.5t197.5 64q88 0 150.5 -43t79.5 -116
l19 -2l25 126h233l-116 -540q-5 -20 -5 -40q0 -37 20 -57.5t55 -20.5q54 0 103.5 60.5t79.5 160.5t30 210q0 228 -155 370.5t-403 142.5q-149 0 -282.5 -57t-229.5 -154.5t-152 -234t-56 -288.5q0 -272 182.5 -431.5t493.5 -158.5q81 0 120 11l-38 -178q-65 -11 -145 -11
q-181 0 -333 55t-258.5 153.5t-165.5 239t-59 308.5q0 194 72 365.5t195.5 294t297.5 193.5t370 71zM1125 644q0 74 -33 116t-90 42q-75 0 -128 -76.5t-53 -183.5q0 -72 34 -114t93 -42q74 0 125.5 74.5t51.5 183.5z" />
    <glyph glyph-name="A" unicode="A" horiz-adv-x="1564" 
d="M990 0l-22 317h-473l-162 -317h-379l807 1443h445l167 -1443h-383zM898 1117l-274 -536h333l-39 536h-20z" />
    <glyph glyph-name="B" unicode="B" horiz-adv-x="1459" 
d="M796 0h-744l307 1443h636q186 0 301.5 -85.5t115.5 -223.5q0 -144 -95.5 -249t-238.5 -120l-1 -19q121 -22 192 -100.5t71 -189.5q0 -200 -153 -328t-391 -128zM674 1193l-71 -330h209q102 0 167.5 54.5t65.5 138.5q0 65 -46.5 101t-131.5 36h-193zM476 267h245
q112 0 183 60t71 156q0 74 -53 115.5t-149 41.5h-218z" />
    <glyph glyph-name="C" unicode="C" horiz-adv-x="1569" 
d="M1189 908q1 3 1 19q-3 110 -77 178.5t-191 68.5q-116 0 -211 -75t-149.5 -208t-54.5 -296q0 -151 73.5 -239t199.5 -88q112 0 200.5 62.5t122.5 165.5h356q-44 -242 -237.5 -388.5t-469.5 -146.5q-282 0 -450 167t-168 446q0 263 103.5 470.5t288 322.5t418.5 115
q167 0 305 -68t217 -186.5t79 -261.5q0 -30 -4 -58h-352z" />
    <glyph glyph-name="D" unicode="D" horiz-adv-x="1561" 
d="M359 1443h569q264 0 417.5 -151t153.5 -419q0 -251 -95.5 -450t-268.5 -311t-394 -112h-689zM666 1149l-181 -855h211q188 0 307 146.5t119 389.5q0 147 -77 233t-213 86h-166z" />
    <glyph glyph-name="E" unicode="E" horiz-adv-x="1302" 
d="M1103 295l-62 -295h-989l307 1443h988l-63 -295h-621l-61 -288h584l-57 -270h-584l-63 -295h621z" />
    <glyph glyph-name="F" unicode="F" horiz-adv-x="1269" 
d="M419 0h-367l307 1443h981l-63 -295h-614l-70 -329h558l-60 -281h-558z" />
    <glyph glyph-name="G" unicode="G" horiz-adv-x="1588" 
d="M1522 770l-35 -180q-58 -306 -244.5 -467.5t-481.5 -161.5q-283 0 -454 169t-171 449q0 263 102 469t285.5 320t417.5 114q162 0 300.5 -63.5t220 -174t83.5 -240.5q0 -25 -1 -33h-353q-3 87 -80 144t-192 57q-177 0 -293.5 -161.5t-116.5 -410.5q0 -151 76 -240t206 -89
q125 0 212.5 63.5t108.5 169.5l2 13h-259l54 253h613z" />
    <glyph glyph-name="H" unicode="H" horiz-adv-x="1649" 
d="M1361 0h-369l124 582h-574l-124 -582h-366l307 1443h367l-120 -566h574l120 566h368z" />
    <glyph glyph-name="I" unicode="I" horiz-adv-x="707" 
d="M419 0h-367l307 1443h367z" />
    <glyph glyph-name="J" unicode="J" horiz-adv-x="1295" 
d="M43 400q0 22 3 43h351v-13q1 -70 43 -112t114 -42q144 0 185 186l209 981h366l-218 -1027q-47 -221 -187 -338t-362 -117q-229 0 -367.5 121t-136.5 318z" />
    <glyph glyph-name="K" unicode="&#x212a;" horiz-adv-x="1509" 
d="M419 0h-367l307 1443h366l-130 -609h20l600 609h422l-653 -660l347 -783h-409l-246 570l-173 -172z" />
    <glyph glyph-name="K" unicode="K" horiz-adv-x="1509" 
d="M419 0h-367l307 1443h366l-130 -609h20l600 609h422l-653 -660l347 -783h-409l-246 570l-173 -172z" />
    <glyph glyph-name="L" unicode="L" horiz-adv-x="1247" 
d="M1096 303l-64 -303h-980l307 1443h367l-243 -1140h613z" />
    <glyph glyph-name="M" unicode="M" horiz-adv-x="1924" 
d="M392 0h-340l307 1443h425l158 -885h19l537 885h445l-307 -1443h-339l193 911h-18l-492 -803h-227l-149 803h-18z" />
    <glyph glyph-name="N" unicode="N" horiz-adv-x="1600" 
d="M404 0h-352l307 1443h260l449 -842h19l180 842h352l-307 -1443h-256l-456 834h-19z" />
    <glyph glyph-name="O" unicode="O" horiz-adv-x="1638" 
d="M779 -39q-147 0 -268.5 47.5t-203.5 130.5t-127 196.5t-45 245.5q0 196 61.5 365t167.5 286t252.5 183.5t313.5 66.5q149 0 271.5 -47.5t203 -130.5t124.5 -196.5t44 -245.5q0 -158 -39 -299t-111.5 -250t-170 -188.5t-219 -121.5t-254.5 -42zM919 1169
q-111 0 -205.5 -74.5t-149.5 -204t-55 -284.5q0 -152 76.5 -243.5t204.5 -91.5q170 0 290 163.5t120 401.5q0 152 -77 242.5t-204 90.5z" />
    <glyph glyph-name="P" unicode="P" horiz-adv-x="1402" 
d="M359 1443h538q234 0 369 -118.5t135 -316.5q0 -269 -176.5 -427t-472.5 -158h-242l-90 -423h-367zM666 1161l-98 -461h183q126 0 203.5 76.5t77.5 198.5q0 92 -54.5 139t-156.5 47h-155z" />
    <glyph glyph-name="Q" unicode="Q" horiz-adv-x="1638" 
d="M1360 -132h-338l-52 117q-92 -24 -191 -24q-147 0 -268.5 47.5t-203.5 130.5t-127 196.5t-45 245.5q0 196 61.5 365t167.5 286t252.5 183.5t313.5 66.5q149 0 271.5 -47t203 -130.5t124.5 -197t44 -245.5q0 -237 -85.5 -428t-238.5 -311zM789 265q34 0 63 7l-102 235h316
l23 -44q115 148 115 374q0 155 -77.5 247t-206.5 92q-113 0 -208.5 -75.5t-151.5 -207.5t-56 -289q0 -154 78 -246.5t207 -92.5z" />
    <glyph glyph-name="R" unicode="R" horiz-adv-x="1459" 
d="M52 0l307 1443h609q202 0 332.5 -118.5t130.5 -300.5q0 -158 -92 -291t-249 -191l194 -542h-394l-164 505h-199l-108 -505h-367zM668 1166l-87 -402h219q118 0 190 64t72 165q0 84 -51.5 128.5t-145.5 44.5h-197z" />
    <glyph glyph-name="S" unicode="S" horiz-adv-x="1407" 
d="M66 416h350q10 -78 84 -127.5t176 -49.5q108 0 175.5 45t67.5 117q0 54 -43 89t-149 67l-156 47q-167 50 -257 154t-90 250q0 205 170 339.5t429 134.5q254 0 411.5 -127.5t159.5 -331.5h-339q-7 79 -75.5 130.5t-169.5 51.5q-92 0 -155 -44t-63 -110q0 -55 41.5 -94.5
t132.5 -66.5l158 -46q187 -55 273 -149t86 -244q0 -222 -173.5 -356t-458.5 -134q-261 0 -421 122.5t-164 332.5z" />
    <glyph glyph-name="T" unicode="T" horiz-adv-x="1380" 
d="M756 0h-367l243 1148h-415l63 295h1198l-63 -295h-415z" />
    <glyph glyph-name="U" unicode="U" horiz-adv-x="1585" 
d="M761 -39q-273 0 -435.5 133t-162.5 346q-1 56 13 125l186 878h368l-185 -872q-10 -47 -10 -91q1 -96 66.5 -151.5t171.5 -55.5q108 0 180 64t97 185l195 921h368l-211 -1002q-48 -226 -218 -353t-423 -127z" />
    <glyph glyph-name="V" unicode="V" horiz-adv-x="1528" 
d="M885 0h-464l-159 1443h401l56 -1060h19l492 1060h414z" />
    <glyph glyph-name="W" unicode="W" horiz-adv-x="2112" 
d="M1109 884l-422 -884h-341l-71 1443h375l-6 -957h18l435 957h288l41 -957h18l394 957h377l-682 -1443h-351l-55 884h-18z" />
    <glyph glyph-name="X" unicode="X" horiz-adv-x="1549" 
d="M-30 0l613 741l-302 702h411l191 -462h19l342 462h407l-627 -735l317 -708h-407l-195 446h-19l-352 -446h-398z" />
    <glyph glyph-name="Y" unicode="Y" horiz-adv-x="1507" 
d="M820 0h-367l105 496l-296 947h383l159 -591h19l405 591h395l-699 -953z" />
    <glyph glyph-name="Z" unicode="Z" horiz-adv-x="1399" 
d="M13 0l50 233l845 896l1 19h-642l63 295h1105l-49 -233l-845 -896v-19h672l-62 -295h-1138z" />
    <glyph glyph-name="bracketleft" unicode="[" horiz-adv-x="929" 
d="M450 1530h613l-55 -256h-273l-283 -1329h273l-54 -257h-613z" />
    <glyph glyph-name="backslash" unicode="\" horiz-adv-x="857" 
d="M302 -312l-52 1842h328l52 -1842h-328z" />
    <glyph glyph-name="bracketright" unicode="]" horiz-adv-x="929" 
d="M502 -312h-613l55 257h273l283 1329h-274l55 256h613z" />
    <glyph glyph-name="asciicircum" unicode="^" horiz-adv-x="1016" 
d="M617 1112l-256 -405h-277l440 664h313l158 -664h-274l-85 405h-19z" />
    <glyph glyph-name="underscore" unicode="_" horiz-adv-x="960" 
d="M-195 -373l56 266h956l-56 -266h-956z" />
    <glyph glyph-name="grave" unicode="`" horiz-adv-x="1024" 
d="M647 1260l-130 359h314l52 -359h-236z" />
    <glyph glyph-name="a" unicode="a" horiz-adv-x="1241" 
d="M363 -17q-140 0 -233.5 86.5t-93.5 216.5q0 171 134 271.5t370 107.5l258 7l14 67q4 24 4 35q0 48 -42.5 76.5t-113.5 28.5q-126 0 -167 -83h-324q35 157 174.5 250t341.5 93q214 0 346 -92t132 -242q0 -47 -9 -90l-153 -715h-343l28 134h-19q-43 -69 -126 -110t-178 -41
zM522 229q78 0 139 45.5t76 113.5l18 83l-197 -6q-83 -3 -131 -37.5t-48 -90.5q0 -48 40 -78t103 -30z" />
    <glyph glyph-name="b" unicode="b" horiz-adv-x="1383" 
d="M754 -17q-119 0 -210 60t-117 157h-19l-42 -200h-345l326 1530h354l-123 -575l21 3q111 172 329 172q168 0 271 -114t103 -309q0 -154 -42.5 -289.5t-116 -230.5t-174.5 -149.5t-215 -54.5zM664 266q113 0 192.5 110t79.5 271q0 100 -50 154.5t-128 54.5
q-113 0 -193.5 -113t-80.5 -266q0 -101 50.5 -156t129.5 -55z" />
    <glyph glyph-name="c" unicode="c" horiz-adv-x="1247" 
d="M716 1139q108 0 198.5 -33.5t149 -88.5t91.5 -122.5t36 -139.5q1 -13 1 -42h-329q-1 73 -48 113t-121 40q-116 0 -187.5 -114.5t-71.5 -287.5q0 -108 50.5 -162.5t124.5 -54.5q73 0 125 39t74 113h331q-27 -182 -173 -303.5t-376 -121.5q-233 0 -369 127t-136 342
q0 198 77 356t221.5 249t331.5 91z" />
    <glyph glyph-name="d" unicode="d" horiz-adv-x="1383" 
d="M458 -17q-169 0 -273 114.5t-104 313.5q0 154 43.5 288.5t118 228.5t178 148t220.5 54q120 0 200.5 -56t107.5 -145h20l127 601h355l-326 -1530h-344l33 155h-19q-125 -172 -337 -172zM628 257q112 0 192.5 113t80.5 266q0 101 -51 156t-130 55q-113 0 -192.5 -108
t-79.5 -268q0 -101 51 -157.5t129 -56.5z" />
    <glyph glyph-name="e" unicode="e" horiz-adv-x="1290" 
d="M604 -26q-234 0 -374.5 129.5t-140.5 352.5q0 305 171 494t445 189q216 0 355.5 -131.5t139.5 -341.5q0 -85 -20 -187h-766v-21q0 -110 58.5 -169.5t153.5 -59.5q70 0 119 28t70 77h332q-41 -165 -186.5 -262.5t-356.5 -97.5zM450 681h423q4 12 4 36q0 74 -50 122
t-131 48q-88 0 -155 -56.5t-91 -149.5z" />
    <glyph glyph-name="f" unicode="f" horiz-adv-x="886" 
d="M107 0l178 835h-180l56 263h176l28 133q31 152 133 221.5t284 69.5q133 0 220 -26l-50 -228q-38 11 -118 11q-109 0 -129 -96l-18 -85h227l-56 -263h-218l-178 -835h-355z" />
    <glyph glyph-name="g" unicode="g" horiz-adv-x="1369" 
d="M509 -419q-241 0 -388 96.5t-141 248.5h346q3 -49 57.5 -79t146.5 -30q194 0 230 166l42 193h-19q-104 -152 -324 -152q-167 0 -271.5 113t-104.5 297q0 143 43.5 272.5t117.5 222t176 147t215 54.5q114 0 200 -56.5t115 -150.5h19l42 190h345l-247 -1154
q-38 -178 -196 -278t-404 -100zM625 264q111 0 190.5 109.5t79.5 262.5q0 96 -49.5 153.5t-132.5 57.5q-113 0 -190.5 -106t-77.5 -263q0 -98 49 -156t131 -58z" />
    <glyph glyph-name="h" unicode="h" horiz-adv-x="1346" 
d="M21 0l324 1519h353l-124 -574h19q117 189 338 189q154 0 243 -87.5t89 -226.5q0 -59 -14 -134l-144 -686h-353l133 631q9 45 9 76q0 70 -44.5 111t-116.5 41q-83 0 -141.5 -55t-77.5 -145l-140 -659h-353z" />
    <glyph glyph-name="i" unicode="i" horiz-adv-x="643" 
d="M510 1262q-78 0 -133 53.5t-55 130.5t55 131t133 54t133 -54t55 -131t-55 -130.5t-133 -53.5zM26 0l237 1113h354l-237 -1113h-354z" />
    <glyph glyph-name="j" unicode="j" horiz-adv-x="643" 
d="M509 1262q-77 0 -132.5 53.5t-55.5 130.5t55.5 131t132.5 54q78 0 133 -54t55 -131t-55 -130.5t-133 -53.5zM617 1113l-247 -1161q-34 -164 -146.5 -247t-288.5 -83q-87 0 -166 15l57 255q24 -7 68 -7q108 0 130 103l239 1125h354z" />
    <glyph glyph-name="k" unicode="k" horiz-adv-x="1275" 
d="M376 0h-355l326 1530h353l-173 -818h20l396 401h399l-510 -489l310 -624h-385l-210 434l-100 -94z" />
    <glyph glyph-name="l" unicode="l" horiz-adv-x="634" 
d="M21 0l326 1530h355l-326 -1530h-355z" />
    <glyph glyph-name="m" unicode="m" horiz-adv-x="1951" 
d="M14 0l237 1113h344l-42 -188h20q55 95 139.5 150t183.5 55q110 0 183.5 -57.5t99.5 -144.5h19q132 202 360 202q136 0 223 -90t87 -225q0 -62 -15 -134l-143 -681h-353l132 631q9 44 9 76q0 63 -37.5 103t-98.5 40q-68 0 -120.5 -52t-71.5 -142l-138 -656h-338l132 631
q9 44 9 76q0 63 -37.5 103t-98.5 40q-68 0 -120.5 -52t-71.5 -140l-140 -658h-353z" />
    <glyph glyph-name="n" unicode="n" horiz-adv-x="1331" 
d="M14 0l239 1113h343l-39 -181h19q56 93 143.5 145.5t200.5 52.5q150 0 239 -90t89 -232q0 -62 -15 -134l-143 -674h-353l132 619q9 37 9 76q0 68 -41.5 111.5t-114.5 43.5q-81 0 -138.5 -56.5t-76.5 -146.5l-140 -647h-353z" />
    <glyph glyph-name="o" unicode="o" horiz-adv-x="1344" 
d="M738 1139q235 0 376 -136t141 -362q0 -141 -49.5 -264.5t-135 -212t-205.5 -139.5t-256 -51q-235 0 -377.5 136t-142.5 361q0 188 84.5 341t233.5 240t331 87zM623 246q108 0 186 115t78 273q0 111 -43 173t-121 62q-111 0 -189 -115.5t-78 -279.5q0 -107 44.5 -167.5
t122.5 -60.5z" />
    <glyph glyph-name="p" unicode="p" horiz-adv-x="1376" 
d="M291 -368h-354l315 1481h345l-33 -155h19q125 172 338 172q169 0 272 -114t103 -309q0 -206 -73 -372t-200 -259t-283 -93q-119 0 -200 59.5t-108 157.5h-19zM657 266q113 0 192.5 110t79.5 271q0 100 -50 154.5t-128 54.5q-112 0 -193 -113t-81 -266q0 -100 51 -155.5
t129 -55.5z" />
    <glyph glyph-name="q" unicode="q" horiz-adv-x="1381" 
d="M1052 -368h-354l111 523h-17q-124 -172 -337 -172q-168 0 -271 115t-103 312q0 154 43.5 288t118 228.5t177.5 149t220 54.5q124 0 210.5 -57t113.5 -144h19l39 184h345zM625 257q113 0 193.5 113t80.5 266q0 101 -50.5 156t-129.5 55q-113 0 -192.5 -109t-79.5 -268
q0 -102 50 -157.5t128 -55.5z" />
    <glyph glyph-name="r" unicode="r" horiz-adv-x="969" 
d="M12 0l238 1113h345l-32 -157h19q41 82 111 128t156 46q89 0 149 -27l-69 -308q-83 36 -184 36q-200 0 -250 -234l-128 -597h-355z" />
    <glyph glyph-name="s" unicode="s" horiz-adv-x="1201" 
d="M167 768q0 168 133 269.5t352 101.5q215 0 346.5 -93.5t136.5 -248.5h-318q-8 46 -52.5 74t-111.5 28q-65 0 -106.5 -26.5t-41.5 -69.5q0 -31 24.5 -53t81.5 -42l197 -69q133 -46 193.5 -115t60.5 -174q0 -170 -138.5 -273t-367.5 -103q-230 0 -372.5 98t-145.5 257h336
q8 -51 57.5 -83.5t121.5 -32.5q73 0 115 26t42 71q0 30 -22.5 50.5t-79.5 40.5l-176 62q-135 47 -200 122t-65 183z" />
    <glyph glyph-name="t" unicode="t" horiz-adv-x="900" 
d="M510 -2q-157 0 -249.5 64.5t-92.5 176.5q0 44 11 96l105 500h-175l58 263h173l58 270h355l-59 -270h231l-58 -263h-228l-94 -441q-6 -38 -6 -51q0 -90 115 -90q43 0 93 6l-53 -247q-53 -14 -184 -14z" />
    <glyph glyph-name="u" unicode="u" horiz-adv-x="1332" 
d="M1317 1113l-235 -1113h-344l37 175h-19q-112 -201 -325 -201q-155 0 -250 88t-95 238q0 54 15 141l141 672h355l-131 -615q-7 -35 -7 -73q0 -161 155 -161q82 0 136.5 54.5t75.5 151.5l137 643h354z" />
    <glyph glyph-name="v" unicode="v" horiz-adv-x="1222" 
d="M161 1113h358l29 -789h20l354 789h377l-605 -1113h-410z" />
    <glyph glyph-name="w" unicode="w" horiz-adv-x="1814" 
d="M1875 1113l-524 -1113h-385l-16 732h-19l-327 -732h-374l-54 1113h350l-18 -761h19l326 761h340l8 -763h19l301 763h354z" />
    <glyph glyph-name="x" unicode="x" horiz-adv-x="1252" 
d="M586 334h-19l-245 -334h-379l452 554l-217 559h387l102 -342h19l234 342h390l-458 -559l223 -554h-374z" />
    <glyph glyph-name="y" unicode="y" horiz-adv-x="1258" 
d="M82 -407q-129 0 -141 3l57 268q12 -3 70 -3q175 0 215 99l12 33l-127 1120h363l30 -809h19l370 809h377l-600 -1123q-114 -215 -263 -306t-382 -91z" />
    <glyph glyph-name="z" unicode="z" horiz-adv-x="1190" 
d="M-6 0l40 189l649 639l1 19h-499l58 266h936l-47 -217l-596 -611l-1 -19h481l-57 -266h-965z" />
    <glyph glyph-name="braceleft" unicode="{" horiz-adv-x="929" 
d="M246 249q12 55 12 87q0 60 -39 89t-134 29l66 311q112 0 168.5 45.5t79.5 160.5l36 176q43 211 159.5 297t343.5 86h124l-54 -250h-43q-91 0 -136 -43.5t-68 -153.5l-42 -191q-27 -121 -113.5 -210t-214.5 -100l-5 -19q118 -13 167.5 -62.5t49.5 -127.5q0 -29 -9 -78
l-34 -160q-12 -60 -12 -91q0 -58 31 -82.5t101 -24.5h44l-53 -249h-124q-96 0 -166.5 22.5t-109.5 63t-57 89t-18 106.5q0 45 14 117z" />
    <glyph glyph-name="bar" unicode="|" horiz-adv-x="857" 
d="M408 -312h-329l392 1842h329z" />
    <glyph glyph-name="braceright" unicode="}" horiz-adv-x="929" 
d="M705 969q-12 -53 -12 -87q0 -60 39 -88.5t134 -28.5l-65 -311q-112 0 -168.5 -45.5t-80.5 -160.5l-36 -176q-43 -211 -160 -297.5t-343 -86.5h-123l53 251h43q91 0 136 43.5t69 153.5l41 191q27 121 113.5 210t215.5 100l4 19q-217 24 -217 190q0 33 10 78l33 160
q12 53 12 91q0 58 -31 82.5t-101 24.5h-43l52 248h124q96 0 166.5 -22.5t109.5 -63t57 -88.5t18 -106q0 -45 -14 -117z" />
    <glyph glyph-name="asciitilde" unicode="~" horiz-adv-x="1461" 
d="M950 340q-60 0 -111 20t-87.5 48t-69 56t-69 48t-74.5 20q-102 0 -134 -171h-259q20 133 68 236t128.5 166t182.5 63q59 0 110.5 -20t87.5 -48t68.5 -56t69.5 -48t75 -20q100 0 134 171h258q-31 -209 -128 -337t-250 -128z" />
    <glyph glyph-name="nonbreakingspace" unicode="&#xa0;" horiz-adv-x="502" 
 />
    <glyph glyph-name="exclamdown" unicode="&#xa1;" horiz-adv-x="778" 
d="M481 1164q93 0 148 -50.5t55 -124.5q0 -84 -54.5 -136.5t-148.5 -52.5t-149 50.5t-55 124.5q0 84 54.5 136.5t149.5 52.5zM389 -314h-383l238 970h320z" />
    <glyph glyph-name="cent" unicode="&#xa2;" horiz-adv-x="1461" 
d="M585 0l36 166q-177 32 -277 154.5t-100 305.5q0 305 164 487.5t441 182.5h12l31 147h105l-33 -157q164 -30 263 -137t99 -252q0 -37 -1 -43h-329q0 54 -24 94t-68 58l-121 -571q61 8 104.5 50.5t61.5 111.5h329q-28 -196 -177 -318.5t-362 -122.5h-16l-33 -156h-105z
M588 640q0 -68 24.5 -117.5t68.5 -72.5l121 567q-96 -16 -155 -119t-59 -258z" />
    <glyph glyph-name="sterling" unicode="&#xa3;" horiz-adv-x="1461" 
d="M209 822h210q-2 60 -2 83q0 119 41 218.5t119.5 173.5t202.5 115t282 41q102 0 197 -20t147 -44l-58 -262q-106 51 -269 51q-158 0 -237 -71t-79 -201q0 -20 2 -84h445l-36 -171h-406q-12 -229 -203 -329l-2 -10h673l-61 -287h-1119l56 265q145 22 226 115.5t85 245.5
h-250z" />
    <glyph glyph-name="currency" unicode="&#xa4;" horiz-adv-x="1461" 
d="M733 163q-153 0 -280 90l-192 -158l-156 199l188 155q-42 93 -42 196q0 141 76 260l-111 139l239 196l113 -142q78 29 165 29q155 0 280 -90l191 158l157 -198l-188 -155q42 -93 42 -197q0 -142 -77 -260l111 -138l-238 -196l-113 141q-84 -29 -165 -29zM733 425
q89 0 154 65.5t65 154.5t-65 155t-154 66t-154 -66t-65 -155t65 -154.5t154 -65.5z" />
    <glyph glyph-name="yen" unicode="&#xa5;" horiz-adv-x="1461" 
d="M791 7h-356l51 237h-341l24 112h341l28 134h-341l24 113h282l-250 798h370l154 -587h7l401 587h379l-586 -798h280l-24 -113h-338l-4 -4l-27 -130h341l-24 -112h-341z" />
    <glyph glyph-name="brokenbar" unicode="&#xa6;" horiz-adv-x="857" 
d="M645 799h-330l156 731h329zM408 -312h-329l153 722h330z" />
    <glyph glyph-name="section" unicode="&#xa7;" horiz-adv-x="1458" 
d="M625 -298q-218 0 -362.5 98t-150.5 260h340q4 -49 50.5 -82.5t114.5 -33.5q66 0 110 31.5t43 78.5q-2 69 -100 112l-207 92q-254 111 -258 299q-3 110 76.5 188t220.5 105l1 20q-88 57 -125 111.5t-39 128.5q-4 159 138 259.5t368 100.5q219 0 357.5 -97t151.5 -264h-338
q-4 53 -50.5 86t-115.5 33q-64 0 -106 -30t-41 -77q0 -66 102 -113l194 -90q265 -120 268 -302q4 -107 -78 -189t-216 -104v-18q85 -55 121.5 -110t38.5 -129q4 -159 -139.5 -261.5t-368.5 -102.5zM671 494l130 -63q52 17 83.5 51.5t30.5 74.5q0 35 -27.5 67.5t-79.5 55.5
l-131 62q-51 -14 -84.5 -49t-33.5 -76q3 -73 112 -123z" />
    <glyph glyph-name="dieresis" unicode="&#xa8;" horiz-adv-x="1024" 
d="M448 1271q-72 0 -123.5 49.5t-51.5 121.5t51.5 121.5t123.5 49.5t123 -49.5t51 -121.5t-51 -121.5t-123 -49.5zM953 1271q-72 0 -123 49.5t-51 121.5t51 121.5t123 49.5q73 0 124 -49.5t51 -121.5t-51 -121.5t-124 -49.5z" />
    <glyph glyph-name="copyright" unicode="&#xa9;" horiz-adv-x="1743" 
d="M875 -121q-213 0 -388 98.5t-275 271t-100 383.5q0 165 65 316t174.5 260t261 173.5t317.5 64.5q161 0 302.5 -57.5t242.5 -157t159.5 -239t58.5 -298.5q0 -166 -65 -317t-174 -260t-261 -173.5t-318 -64.5zM879 48q171 0 318 87t233.5 235t86.5 320q0 167 -76.5 301.5
t-211.5 210.5t-303 76q-128 0 -245.5 -51.5t-203.5 -138t-137 -205t-51 -247.5q0 -124 45 -233.5t123 -187t187.5 -122.5t234.5 -45zM1269 745h-216q1 60 -29 94t-83 34q-74 0 -125.5 -77.5t-51.5 -189.5q0 -73 31.5 -112t89.5 -39q83 0 122 83h224q-33 -125 -125.5 -193.5
t-227.5 -68.5q-149 0 -241.5 93t-92.5 243q0 190 114.5 315t287.5 125q149 0 242 -88.5t81 -218.5z" />
    <glyph glyph-name="a.sups" unicode="&#xaa;" horiz-adv-x="884" 
d="M373 692q-100 0 -167 57.5t-68 144.5q-2 115 93 183t263 72l182 4l10 43q2 12 2 21q-1 28 -32 45t-81 17q-90 0 -116 -49h-232q23 107 122.5 171t243.5 64q152 0 247 -62.5t96 -163.5q1 -27 -5 -59l-102 -478h-247l19 89h-14q-29 -45 -87.5 -72t-126.5 -27zM488 867
q55 0 96.5 26.5t50.5 67.5l11 51l-138 -4q-58 -1 -92 -22t-32 -55q1 -28 30 -46t74 -18z" />
    <glyph glyph-name="guillemotleft" unicode="&#xab;" horiz-adv-x="1492" 
d="M701 153h-303l-261 410l2 8l413 408h332l-438 -424l-1 -8zM1245 153h-303l-261 410l2 8l412 408h332l-437 -424l-2 -8z" />
    <glyph glyph-name="logicalnot" unicode="&#xac;" horiz-adv-x="1461" 
d="M1289 736l-150 -706h-313l86 402h-729l64 304h1042z" />
    <glyph glyph-name="registered" unicode="&#xae;" horiz-adv-x="1260" 
d="M717 441q-234 0 -384 147.5t-150 378.5q0 144 71 265.5t194 191.5t269 70q235 0 385 -148t150 -379q0 -108 -42 -205t-113.5 -167.5t-170.5 -112t-209 -41.5zM717 581q161 0 273.5 112.5t112.5 273.5q0 173 -106.5 279.5t-279.5 106.5q-160 0 -272.5 -113t-112.5 -273
q0 -172 106.5 -279t278.5 -107zM601 734h-139l102 482h249q68 0 114 -44t46 -107q0 -58 -35 -101.5t-93 -59.5l77 -170h-154l-68 157h-66zM680 1106l-24 -113h92q37 0 57.5 16.5t20.5 45.5q0 51 -61 51h-85z" />
    <glyph glyph-name="macron" unicode="&#xaf;" horiz-adv-x="1024" 
d="M1102 1537l-42 -198h-763l42 198h763z" />
    <glyph glyph-name="degree" unicode="&#xb0;" horiz-adv-x="1016" 
d="M600 646q-174 0 -282 102.5t-108 263.5q0 177 118.5 298.5t293.5 121.5q174 0 281.5 -102.5t107.5 -263.5q0 -177 -118.5 -298.5t-292.5 -121.5zM600 878q74 0 120 51.5t46 125.5q0 58 -37 102t-107 44q-75 0 -121 -52t-46 -126q0 -58 37 -101.5t108 -43.5z" />
    <glyph glyph-name="plusminus" unicode="&#xb1;" horiz-adv-x="1461" 
d="M905 646l-49 -230h-310l49 230h-377l54 261h378l49 230h310l-49 -230h378l-55 -261h-378zM1151 30h-1065l61 284h1065z" />
    <glyph glyph-name="two.sups" unicode="&#xb2;" horiz-adv-x="912" 
d="M236 1307q8 134 121 222.5t278 88.5q151 0 249 -72.5t100 -185.5q1 -91 -61.5 -161t-244.5 -196l-145 -86l-3 -13h378l-43 -202h-733l40 186l330 223q138 97 182 140.5t43 86.5q-1 36 -34 58t-84 22q-110 0 -134 -111h-239z" />
    <glyph glyph-name="three.sups" unicode="&#xb3;" horiz-adv-x="944" 
d="M455 1071l38 180h118q145 0 142 87q-1 38 -36 61t-91 23q-49 0 -83 -20t-47 -57h-238q26 126 131 199.5t259 73.5t253 -69.5t100 -178.5q2 -84 -64 -148t-161 -70l-2 -12q81 -17 125.5 -66t45.5 -123q2 -118 -109.5 -196t-281.5 -78q-174 0 -280 75t-107 201q0 25 5 54
h245q-10 -50 30 -85.5t106 -35.5q60 0 97.5 29t35.5 72q-1 38 -35.5 61t-89.5 23h-106z" />
    <glyph glyph-name="acute" unicode="&#xb4;" horiz-adv-x="1024" 
d="M677 1260h-236l205 359h314z" />
    <glyph glyph-name="mugreek" unicode="&#x3bc;" horiz-adv-x="1411" 
d="M-72 -368l313 1481h355l-126 -593q-11 -50 -11 -90q0 -165 151 -165q83 0 141 59.5t80 162.5l134 626h353l-157 -741q-6 -25 -6 -54q0 -35 19 -51t62 -16q32 0 58 6l-54 -252q-55 -15 -158 -15q-126 0 -193.5 51t-67.5 154v6h-19q-18 -41 -37 -73.5t-52.5 -71
t-83.5 -60.5t-112 -22q-47 0 -82 18t-48 45h-19l-86 -405h-354z" />
    <glyph glyph-name="mugreek" unicode="&#xb5;" horiz-adv-x="1411" 
d="M-72 -368l313 1481h355l-126 -593q-11 -50 -11 -90q0 -165 151 -165q83 0 141 59.5t80 162.5l134 626h353l-157 -741q-6 -25 -6 -54q0 -35 19 -51t62 -16q32 0 58 6l-54 -252q-55 -15 -158 -15q-126 0 -193.5 51t-67.5 154v6h-19q-18 -41 -37 -73.5t-52.5 -71
t-83.5 -60.5t-112 -22q-47 0 -82 18t-48 45h-19l-86 -405h-354z" />
    <glyph glyph-name="paragraph" unicode="&#xb6;" horiz-adv-x="1458" 
d="M845 -273l366 1716h267l-366 -1716h-267zM666 -273h-267l175 819h-18q-167 0 -271.5 106.5t-104.5 270.5q0 146 75.5 265.5t205.5 187t286 67.5h284z" />
    <glyph glyph-name="middledot" unicode="&#xb7;" horiz-adv-x="767" 
d="M378 366q-91 0 -146.5 53.5t-55.5 129.5q0 86 55 142t147 56q91 0 146.5 -53.5t55.5 -129.5q0 -86 -55 -142t-147 -56z" />
    <glyph glyph-name="cedilla" unicode="&#xb8;" horiz-adv-x="1024" 
d="M100 -471l32 143q52 -14 96 -14q45 0 78 12.5t33 40.5q0 51 -108 51h-52l26 120l115 148h184v-30l-94 -120q54 -9 97.5 -52.5t43.5 -116.5q0 -95 -80 -149t-214 -54q-87 0 -157 21z" />
    <glyph glyph-name="one.sups" unicode="&#xb9;" horiz-adv-x="751" 
d="M357 702l139 652h-14l-257 -139l49 230l272 148h264l-190 -891h-263z" />
    <glyph glyph-name="o.sups" unicode="&#xba;" horiz-adv-x="957" 
d="M630 1465q168 0 269.5 -92t102.5 -246q4 -189 -126.5 -315.5t-327.5 -126.5q-168 0 -271 91.5t-104 244.5q-3 189 128 316.5t329 127.5zM558 879q76 0 129.5 73.5t51.5 174.5q-2 69 -33.5 106.5t-86.5 37.5q-79 0 -132.5 -73.5t-50.5 -176.5q2 -67 34.5 -104.5
t87.5 -37.5z" />
    <glyph glyph-name="guillemotright" unicode="&#xbb;" horiz-adv-x="1492" 
d="M795 979h303l261 -409l-2 -8l-413 -409h-332l438 424l2 8zM252 979h303l260 -409l-2 -8l-412 -409h-332l437 424l2 8z" />
    <glyph glyph-name="onequarter" unicode="&#xbc;" horiz-adv-x="2269" 
d="M325 552l139 652h-14l-257 -139l49 230l272 148h264l-190 -891h-263zM734 0h-268l1071 1443h268zM1713 0l27 130h-471l45 232q83 109 183 223t277 306h377l-118 -557h116l-44 -204h-116l-27 -130h-249zM1538 337l-2 -13h253l81 383h-12q-12 -13 -48 -51.5t-49.5 -53
t-45 -50t-53.5 -62t-55.5 -67t-68.5 -86.5z" />
    <glyph glyph-name="onehalf" unicode="&#xbd;" horiz-adv-x="2323" 
d="M325 552l139 652h-14l-257 -139l49 230l272 148h264l-190 -891h-263zM734 0h-268l1071 1443h268zM1499 605q7 134 120.5 222.5t277.5 88.5q151 0 250 -73t100 -186q0 -48 -14 -86t-53 -80.5t-92.5 -84t-146.5 -105.5l-146 -87l-2 -12h377l-42 -202h-733l40 185l330 223
q138 97 181.5 140.5t42.5 87.5q-1 36 -33.5 58t-83.5 22q-111 0 -135 -111h-238z" />
    <glyph glyph-name="threequarters" unicode="&#xbe;" horiz-adv-x="2461" 
d="M423 921l38 180h118q145 0 142 87q-1 38 -36 61t-91 23q-49 0 -83 -20t-47 -57h-238q26 126 130.5 199.5t259.5 73.5q154 0 253 -69.5t100 -178.5q2 -84 -64 -148t-161 -70l-2 -12q81 -17 125.5 -66t45.5 -123q2 -118 -109.5 -196t-281.5 -78q-174 0 -280 75t-107 201
q0 25 5 54h245q-10 -50 30 -85.5t106 -35.5q60 0 97.5 29t35.5 72q-1 38 -35.5 61t-89.5 23h-106zM927 0h-268l1071 1443h268zM1906 0l27 130h-471l45 232q83 109 183 223t277 306h377l-118 -557h115l-43 -204h-116l-27 -130h-249zM1731 337l-2 -13h253l81 383h-13
q-12 -13 -56 -60.5t-61 -66.5t-53.5 -61t-71.5 -85t-77 -97z" />
    <glyph glyph-name="questiondown" unicode="&#xbf;" horiz-adv-x="1189" 
d="M715 1164q93 0 151 -47.5t58 -124.5q0 -84 -58.5 -139.5t-150.5 -55.5q-89 0 -148.5 48t-59.5 124q0 82 58 138.5t150 56.5zM1005 91q-21 -185 -162.5 -301t-357.5 -116q-224 0 -360 103t-136 268q0 127 72 231.5t209 164.5q115 51 161 92t60 108l7 36h319l-9 -56
q-20 -135 -73.5 -207t-169.5 -123q-123 -54 -171 -104t-48 -116q0 -55 42 -90t113 -35q64 0 113.5 39.5t65.5 105.5h325z" />
    <glyph glyph-name="Agrave" unicode="&#xc0;" horiz-adv-x="1564" 
d="M918 1597l-132 335h313l56 -335h-237zM990 0l-22 317h-473l-162 -317h-379l807 1443h445l167 -1443h-383zM898 1117l-274 -536h333l-39 536h-20z" />
    <glyph glyph-name="Aacute" unicode="&#xc1;" horiz-adv-x="1564" 
d="M1114 1597h-236l198 335h312zM990 0l-22 317h-473l-162 -317h-379l807 1443h445l167 -1443h-383zM898 1117l-274 -536h333l-39 536h-20z" />
    <glyph glyph-name="Acircumflex" unicode="&#xc2;" horiz-adv-x="1564" 
d="M1253 1945l188 -349h-283l-85 195h-19l-167 -195h-308l336 349h338zM990 0l-22 317h-473l-162 -317h-379l807 1443h445l167 -1443h-383zM898 1117l-274 -536h333l-39 536h-20z" />
    <glyph glyph-name="Atilde" unicode="&#xc3;" horiz-adv-x="1564" 
d="M615 1608q27 142 101.5 225.5t180.5 83.5q52 0 99 -23t75 -50t59 -50t56 -23q63 0 89 117h202q-26 -140 -100.5 -224.5t-180.5 -84.5q-52 0 -99 23t-75.5 50t-59.5 50t-56 23q-62 0 -89 -117h-202zM990 0l-22 317h-473l-162 -317h-379l807 1443h445l167 -1443h-383z
M898 1117l-274 -536h333l-39 536h-20z" />
    <glyph glyph-name="Adieresis" unicode="&#xc4;" horiz-adv-x="1564" 
d="M797 1589q-72 0 -123 49.5t-51 120.5q0 72 51 122t123 50q73 0 124 -50t51 -122q0 -71 -51 -120.5t-124 -49.5zM1303 1589q-72 0 -123 49.5t-51 120.5q0 72 51 122t123 50q73 0 124 -50t51 -122q0 -71 -51 -120.5t-124 -49.5zM990 0l-22 317h-473l-162 -317h-379
l807 1443h445l167 -1443h-383zM898 1117l-274 -536h333l-39 536h-20z" />
    <glyph glyph-name="Aring" unicode="&#x212b;" horiz-adv-x="1564" 
d="M1050 1529q-89 0 -153 61t-64 150t64 150.5t153 61.5t153 -61.5t64 -150.5t-64 -150t-153 -61zM1050 1657q36 0 61 23.5t25 59.5t-25 60t-61 24t-61 -24t-25 -60t25 -59.5t61 -23.5zM990 0l-22 317h-473l-162 -317h-379l807 1443h445l167 -1443h-383zM898 1117l-274 -536
h333l-39 536h-20z" />
    <glyph glyph-name="Aring" unicode="&#xc5;" horiz-adv-x="1564" 
d="M1050 1529q-89 0 -153 61t-64 150t64 150.5t153 61.5t153 -61.5t64 -150.5t-64 -150t-153 -61zM1050 1657q36 0 61 23.5t25 59.5t-25 60t-61 24t-61 -24t-25 -60t25 -59.5t61 -23.5zM990 0l-22 317h-473l-162 -317h-379l807 1443h445l167 -1443h-383zM898 1117l-274 -536
h333l-39 536h-20z" />
    <glyph glyph-name="AE" unicode="&#xc6;" horiz-adv-x="2108" 
d="M882 0l69 327h-432l-195 -327h-369l873 1443h1337l-63 -295h-647l-61 -290h610l-58 -270h-610l-62 -293h646l-62 -295h-976zM1130 1167h-120l-339 -575h337z" />
    <glyph glyph-name="Ccedilla" unicode="&#xc7;" horiz-adv-x="1569" 
d="M470 -471l31 143q54 -14 96 -14q45 0 78 12.5t33 40.5q0 51 -107 51h-53l26 120l68 87q-235 32 -371.5 193.5t-136.5 411.5q0 263 103.5 470.5t288 322.5t418.5 115q167 0 305 -68t217 -186.5t79 -261.5q0 -30 -4 -58h-352q1 3 1 19q-3 110 -77 178.5t-191 68.5
q-116 0 -211 -75t-149.5 -208t-54.5 -296q0 -151 73.5 -239t199.5 -88q112 0 200.5 62.5t122.5 165.5h356q-40 -219 -205.5 -361.5t-406.5 -168.5l-68 -86q54 -9 97.5 -52.5t43.5 -116.5q0 -95 -80 -149t-214 -54q-88 0 -156 21z" />
    <glyph glyph-name="Egrave" unicode="&#xc8;" horiz-adv-x="1302" 
d="M788 1597l-132 335h313l56 -335h-237zM1103 295l-62 -295h-989l307 1443h988l-63 -295h-621l-61 -288h584l-57 -270h-584l-63 -295h621z" />
    <glyph glyph-name="Eacute" unicode="&#xc9;" horiz-adv-x="1302" 
d="M984 1597h-236l198 335h312zM1103 295l-62 -295h-989l307 1443h988l-63 -295h-621l-61 -288h584l-57 -270h-584l-63 -295h621z" />
    <glyph glyph-name="Ecircumflex" unicode="&#xca;" horiz-adv-x="1302" 
d="M1123 1945l188 -349h-283l-85 195h-19l-167 -195h-308l336 349h338zM1103 295l-62 -295h-989l307 1443h988l-63 -295h-621l-61 -288h584l-57 -270h-584l-63 -295h621z" />
    <glyph glyph-name="Edieresis" unicode="&#xcb;" horiz-adv-x="1302" 
d="M667 1589q-72 0 -123 49.5t-51 120.5q0 72 51 122t123 50q73 0 124 -50t51 -122q0 -71 -51 -120.5t-124 -49.5zM1173 1589q-72 0 -123 49.5t-51 120.5q0 72 51 122t123 50q73 0 124 -50t51 -122q0 -71 -51 -120.5t-124 -49.5zM1103 295l-62 -295h-989l307 1443h988
l-63 -295h-621l-61 -288h584l-57 -270h-584l-63 -295h621z" />
    <glyph glyph-name="Igrave" unicode="&#xcc;" horiz-adv-x="707" 
d="M477 1597l-131 335h312l56 -335h-237zM419 0h-367l307 1443h367z" />
    <glyph glyph-name="Iacute" unicode="&#xcd;" horiz-adv-x="707" 
d="M674 1597h-237l198 335h313zM419 0h-367l307 1443h367z" />
    <glyph glyph-name="Icircumflex" unicode="&#xce;" horiz-adv-x="707" 
d="M812 1945l188 -349h-283l-84 195h-19l-168 -195h-307l335 349h338zM419 0h-367l307 1443h367z" />
    <glyph glyph-name="Idieresis" unicode="&#xcf;" horiz-adv-x="707" 
d="M357 1589q-72 0 -123 49.5t-51 120.5q0 72 51 122t123 50t123 -50t51 -122q0 -71 -51 -120.5t-123 -49.5zM863 1589q-72 0 -123.5 49.5t-51.5 120.5q0 72 51.5 122t123.5 50t123 -50t51 -122q0 -71 -51 -120.5t-123 -49.5zM419 0h-367l307 1443h367z" />
    <glyph glyph-name="Eth" unicode="&#xd0;" horiz-adv-x="1561" 
d="M74 600l54 254h106l125 589h569q264 0 417.5 -151t153.5 -419q0 -251 -95.5 -450t-268.5 -311t-394 -112h-689l128 600h-106zM666 1149l-62 -295h232l-54 -254h-232l-65 -306h211q188 0 307 146.5t119 389.5q0 147 -77 233t-213 86h-166z" />
    <glyph glyph-name="Ntilde" unicode="&#xd1;" horiz-adv-x="1600" 
d="M588 1608q27 142 101.5 225.5t180.5 83.5q52 0 99.5 -23t75 -50t58.5 -50t56 -23q63 0 89 117h202q-26 -140 -100.5 -224.5t-180.5 -84.5q-52 0 -99 23t-75 50t-59.5 50t-56.5 23q-62 0 -89 -117h-202zM404 0h-352l307 1443h260l449 -842h19l180 842h352l-307 -1443h-256
l-456 834h-19z" />
    <glyph glyph-name="Ograve" unicode="&#xd2;" horiz-adv-x="1638" 
d="M869 1597l-132 334h313l55 -334h-236zM779 -39q-147 0 -268.5 47.5t-203.5 130.5t-127 196.5t-45 245.5q0 196 61.5 365t167.5 286t252.5 183.5t313.5 66.5q149 0 271.5 -47.5t203 -130.5t124.5 -196.5t44 -245.5q0 -158 -39 -299t-111.5 -250t-170 -188.5t-219 -121.5
t-254.5 -42zM919 1169q-111 0 -205.5 -74.5t-149.5 -204t-55 -284.5q0 -152 76.5 -243.5t204.5 -91.5q170 0 290 163.5t120 401.5q0 152 -77 242.5t-204 90.5z" />
    <glyph glyph-name="Oacute" unicode="&#xd3;" horiz-adv-x="1638" 
d="M1065 1597h-236l198 334h312zM779 -39q-147 0 -268.5 47.5t-203.5 130.5t-127 196.5t-45 245.5q0 196 61.5 365t167.5 286t252.5 183.5t313.5 66.5q149 0 271.5 -47.5t203 -130.5t124.5 -196.5t44 -245.5q0 -158 -39 -299t-111.5 -250t-170 -188.5t-219 -121.5
t-254.5 -42zM919 1169q-111 0 -205.5 -74.5t-149.5 -204t-55 -284.5q0 -152 76.5 -243.5t204.5 -91.5q170 0 290 163.5t120 401.5q0 152 -77 242.5t-204 90.5z" />
    <glyph glyph-name="Ocircumflex" unicode="&#xd4;" horiz-adv-x="1638" 
d="M1204 1944l188 -348h-283l-85 194h-19l-168 -194h-307l336 348h338zM779 -39q-147 0 -268.5 47.5t-203.5 130.5t-127 196.5t-45 245.5q0 196 61.5 365t167.5 286t252.5 183.5t313.5 66.5q149 0 271.5 -47.5t203 -130.5t124.5 -196.5t44 -245.5q0 -158 -39 -299
t-111.5 -250t-170 -188.5t-219 -121.5t-254.5 -42zM919 1169q-111 0 -205.5 -74.5t-149.5 -204t-55 -284.5q0 -152 76.5 -243.5t204.5 -91.5q170 0 290 163.5t120 401.5q0 152 -77 242.5t-204 90.5z" />
    <glyph glyph-name="Otilde" unicode="&#xd5;" horiz-adv-x="1638" 
d="M566 1608q27 142 101.5 225.5t180.5 83.5q52 0 99 -23t75 -50t59 -50t56 -23q63 0 89 117h202q-26 -140 -100.5 -224.5t-180.5 -84.5q-43 0 -81.5 15t-66 36.5t-51.5 43t-47 36.5t-44 15q-63 0 -89 -117h-202zM779 -39q-147 0 -268.5 47.5t-203.5 130.5t-127 196.5
t-45 245.5q0 196 61.5 365t167.5 286t252.5 183.5t313.5 66.5q149 0 271.5 -47.5t203 -130.5t124.5 -196.5t44 -245.5q0 -158 -39 -299t-111.5 -250t-170 -188.5t-219 -121.5t-254.5 -42zM919 1169q-111 0 -205.5 -74.5t-149.5 -204t-55 -284.5q0 -152 76.5 -243.5
t204.5 -91.5q170 0 290 163.5t120 401.5q0 152 -77 242.5t-204 90.5z" />
    <glyph glyph-name="Odieresis" unicode="&#xd6;" horiz-adv-x="1638" 
d="M748 1589q-72 0 -123 49.5t-51 120.5q0 72 51 121.5t123 49.5q73 0 124 -49.5t51 -121.5t-51 -121t-124 -49zM1254 1589q-72 0 -123 49t-51 121t51 121.5t123 49.5q73 0 123.5 -49.5t50.5 -121.5t-50.5 -121t-123.5 -49zM779 -39q-147 0 -268.5 47.5t-203.5 130.5
t-127 196.5t-45 245.5q0 196 61.5 365t167.5 286t252.5 183.5t313.5 66.5q149 0 271.5 -47.5t203 -130.5t124.5 -196.5t44 -245.5q0 -158 -39 -299t-111.5 -250t-170 -188.5t-219 -121.5t-254.5 -42zM919 1169q-111 0 -205.5 -74.5t-149.5 -204t-55 -284.5
q0 -152 76.5 -243.5t204.5 -91.5q170 0 290 163.5t120 401.5q0 152 -77 242.5t-204 90.5z" />
    <glyph glyph-name="multiply" unicode="&#xd7;" horiz-adv-x="1461" 
d="M948 56l-244 322l-392 -322l-171 215l397 326l-244 322l233 192l245 -322l390 322l171 -215l-396 -326l245 -321z" />
    <glyph glyph-name="Oslash" unicode="&#xd8;" horiz-adv-x="1614" 
d="M126 153l97 94q-88 147 -88 334q0 196 61.5 365t167.5 286t252.5 183.5t313.5 66.5q261 0 433 -140l91 88l136 -145l-99 -95q82 -143 82 -328q0 -158 -39 -299t-111.5 -250t-170 -188.5t-219 -121.5t-254.5 -42q-253 0 -424 136l-92 -88zM921 1185q-115 0 -212.5 -77
t-154.5 -211.5t-57 -294.5q0 -39 7 -86l614 590q-77 79 -197 79zM1211 840q0 36 -5 76l-610 -587q76 -73 191 -73t212.5 76.5t154.5 211.5t57 296z" />
    <glyph glyph-name="Ugrave" unicode="&#xd9;" horiz-adv-x="1585" 
d="M918 1597l-131 335h312l56 -335h-237zM761 -39q-273 0 -435.5 133t-162.5 346q-1 56 13 125l186 878h368l-185 -872q-10 -47 -10 -91q1 -96 66.5 -151.5t171.5 -55.5q108 0 180 64t97 185l195 921h368l-211 -1002q-48 -226 -218 -353t-423 -127z" />
    <glyph glyph-name="Uacute" unicode="&#xda;" horiz-adv-x="1585" 
d="M1114 1597h-236l198 335h312zM761 -39q-273 0 -435.5 133t-162.5 346q-1 56 13 125l186 878h368l-185 -872q-10 -47 -10 -91q1 -96 66.5 -151.5t171.5 -55.5q108 0 180 64t97 185l195 921h368l-211 -1002q-48 -226 -218 -353t-423 -127z" />
    <glyph glyph-name="Ucircumflex" unicode="&#xdb;" horiz-adv-x="1585" 
d="M1253 1945l188 -349h-283l-84 195h-19l-168 -195h-307l335 349h338zM761 -39q-273 0 -435.5 133t-162.5 346q-1 56 13 125l186 878h368l-185 -872q-10 -47 -10 -91q1 -96 66.5 -151.5t171.5 -55.5q108 0 180 64t97 185l195 921h368l-211 -1002q-48 -226 -218 -353
t-423 -127z" />
    <glyph glyph-name="Udieresis" unicode="&#xdc;" horiz-adv-x="1585" 
d="M798 1589q-72 0 -123.5 49.5t-51.5 120.5q0 72 51.5 122t123.5 50t123 -50t51 -122q0 -71 -51 -120.5t-123 -49.5zM1304 1589q-72 0 -123.5 49.5t-51.5 120.5q0 72 51.5 122t123.5 50t123 -50t51 -122q0 -71 -51 -120.5t-123 -49.5zM761 -39q-273 0 -435.5 133
t-162.5 346q-1 56 13 125l186 878h368l-185 -872q-10 -47 -10 -91q1 -96 66.5 -151.5t171.5 -55.5q108 0 180 64t97 185l195 921h368l-211 -1002q-48 -226 -218 -353t-423 -127z" />
    <glyph glyph-name="Yacute" unicode="&#xdd;" horiz-adv-x="1507" 
d="M1070 1597h-237l198 335h313zM820 0h-367l105 496l-296 947h383l159 -591h19l405 591h395l-699 -953z" />
    <glyph glyph-name="Thorn" unicode="&#xde;" horiz-adv-x="1436" 
d="M53 0l307 1443h368l-47 -219h238q196 0 324 -117t128 -296q0 -151 -75 -275t-212 -197t-308 -73h-301l-56 -266h-366zM617 941l-84 -395h207q121 0 194 62t73 165q0 81 -51.5 124.5t-149.5 43.5h-189z" />
    <glyph glyph-name="germandbls" unicode="&#xdf;" horiz-adv-x="1441" 
d="M388 0h-354l238 1094q36 167 184 266t362 99q232 0 378.5 -108.5t146.5 -281.5q0 -127 -81 -221.5t-206 -117.5l-4 -20q130 -28 200.5 -105t70.5 -195q0 -195 -140 -310.5t-370 -115.5q-160 0 -275 42l59 266q70 -35 159 -35q95 0 154 48.5t59 127.5q0 71 -59.5 108.5
t-164.5 37.5h-78l59 275h72q81 0 136.5 46t55.5 118q0 71 -50 115t-130 44q-83 0 -138.5 -52.5t-76.5 -151.5z" />
    <glyph glyph-name="agrave" unicode="&#xe0;" horiz-adv-x="1241" 
d="M611 1259l-130 359h314l52 -359h-236zM363 -17q-140 0 -233.5 86.5t-93.5 216.5q0 171 134 271.5t370 107.5l258 7l14 67q4 24 4 35q0 48 -42.5 76.5t-113.5 28.5q-126 0 -167 -83h-324q35 157 174.5 250t341.5 93q214 0 346 -92t132 -242q0 -47 -9 -90l-153 -715h-343
l28 134h-19q-43 -69 -126 -110t-178 -41zM522 229q78 0 139 45.5t76 113.5l18 83l-197 -6q-83 -3 -131 -37.5t-48 -90.5q0 -48 40 -78t103 -30z" />
    <glyph glyph-name="aacute" unicode="&#xe1;" horiz-adv-x="1241" 
d="M839 1259h-236l205 359h313zM363 -17q-140 0 -233.5 86.5t-93.5 216.5q0 171 134 271.5t370 107.5l258 7l14 67q4 24 4 35q0 48 -42.5 76.5t-113.5 28.5q-126 0 -167 -83h-324q35 157 174.5 250t341.5 93q214 0 346 -92t132 -242q0 -47 -9 -90l-153 -715h-343l28 134h-19
q-43 -69 -126 -110t-178 -41zM522 229q78 0 139 45.5t76 113.5l18 83l-197 -6q-83 -3 -131 -37.5t-48 -90.5q0 -48 40 -78t103 -30z" />
    <glyph glyph-name="acircumflex" unicode="&#xe2;" horiz-adv-x="1241" 
d="M970 1619l194 -359h-284l-88 202h-19l-172 -202h-298l329 359h338zM363 -17q-140 0 -233.5 86.5t-93.5 216.5q0 171 134 271.5t370 107.5l258 7l14 67q4 24 4 35q0 48 -42.5 76.5t-113.5 28.5q-126 0 -167 -83h-324q35 157 174.5 250t341.5 93q214 0 346 -92t132 -242
q0 -47 -9 -90l-153 -715h-343l28 134h-19q-43 -69 -126 -110t-178 -41zM522 229q78 0 139 45.5t76 113.5l18 83l-197 -6q-83 -3 -131 -37.5t-48 -90.5q0 -48 40 -78t103 -30z" />
    <glyph glyph-name="atilde" unicode="&#xe3;" horiz-adv-x="1241" 
d="M328 1291q27 142 101.5 225.5t180.5 83.5q52 0 99 -23t75 -50t59 -50t56 -23q61 0 89 117h202q-26 -141 -101 -225t-181 -84q-52 0 -99 23t-75 50t-59 50t-56 23q-63 0 -89 -117h-202zM363 -17q-140 0 -233.5 86.5t-93.5 216.5q0 171 134 271.5t370 107.5l258 7l14 67
q4 24 4 35q0 48 -42.5 76.5t-113.5 28.5q-126 0 -167 -83h-324q35 157 174.5 250t341.5 93q214 0 346 -92t132 -242q0 -47 -9 -90l-153 -715h-343l28 134h-19q-43 -69 -126 -110t-178 -41zM522 229q78 0 139 45.5t76 113.5l18 83l-197 -6q-83 -3 -131 -37.5t-48 -90.5
q0 -48 40 -78t103 -30z" />
    <glyph glyph-name="adieresis" unicode="&#xe4;" horiz-adv-x="1241" 
d="M510 1271q-72 0 -123 49.5t-51 121.5t51 121.5t123 49.5q73 0 124 -49.5t51 -121.5t-51 -121.5t-124 -49.5zM1016 1271q-72 0 -123 49.5t-51 121.5t51 121.5t123 49.5q73 0 123.5 -49.5t50.5 -121.5t-50.5 -121.5t-123.5 -49.5zM363 -17q-140 0 -233.5 86.5t-93.5 216.5
q0 171 134 271.5t370 107.5l258 7l14 67q4 24 4 35q0 48 -42.5 76.5t-113.5 28.5q-126 0 -167 -83h-324q35 157 174.5 250t341.5 93q214 0 346 -92t132 -242q0 -47 -9 -90l-153 -715h-343l28 134h-19q-43 -69 -126 -110t-178 -41zM522 229q78 0 139 45.5t76 113.5l18 83
l-197 -6q-83 -3 -131 -37.5t-48 -90.5q0 -48 40 -78t103 -30z" />
    <glyph glyph-name="aring" unicode="&#xe5;" horiz-adv-x="1241" 
d="M775 1251q-103 0 -177 69t-74 174t74 174t177 69q104 0 178 -69t74 -174t-74 -174t-178 -69zM775 1397q41 0 70.5 28t29.5 69t-29.5 69t-70.5 28q-40 0 -69.5 -28t-29.5 -69t29.5 -69t69.5 -28zM363 -17q-140 0 -233.5 86.5t-93.5 216.5q0 171 134 271.5t370 107.5l258 7
l14 67q4 24 4 35q0 48 -42.5 76.5t-113.5 28.5q-126 0 -167 -83h-324q35 157 174.5 250t341.5 93q214 0 346 -92t132 -242q0 -47 -9 -90l-153 -715h-343l28 134h-19q-43 -69 -126 -110t-178 -41zM522 229q78 0 139 45.5t76 113.5l18 83l-197 -6q-83 -3 -131 -37.5t-48 -90.5
q0 -48 40 -78t103 -30z" />
    <glyph glyph-name="ae" unicode="&#xe6;" horiz-adv-x="1956" 
d="M1274 -26q-122 0 -232.5 53t-155.5 134h-19q-58 -81 -169.5 -134t-245.5 -53q-179 0 -296.5 91.5t-117.5 226.5q0 178 131.5 277t374.5 106l257 7l13 57q5 17 5 35q0 48 -43 76.5t-114 28.5q-126 0 -167 -83h-324q36 162 172 252.5t335 90.5q113 0 202 -42t130 -109h19
q68 73 160.5 112t198.5 39q204 0 341 -133t137 -340q0 -85 -20 -187h-764v-21q0 -110 58.5 -169.5t153.5 -59.5q70 0 118.5 28t68.5 77h332q-41 -164 -186.5 -262t-352.5 -98zM1118 681h423q4 12 4 36q0 74 -50 122t-131 48q-88 0 -155 -56.5t-91 -149.5zM524 220
q77 0 138.5 49t76.5 119l18 83l-197 -6q-83 -3 -131 -37.5t-48 -92.5q0 -49 40.5 -82t102.5 -33z" />
    <glyph glyph-name="ccedilla" unicode="&#xe7;" horiz-adv-x="1247" 
d="M281 -471l31 143q54 -14 97 -14q45 0 78 12.5t33 40.5q0 51 -108 51h-52l26 120l80 103q-178 32 -279 153.5t-101 304.5q0 198 77 356t221.5 249t331.5 91q108 0 198.5 -33.5t149 -88.5t91.5 -122.5t36 -139.5q1 -13 1 -42h-329q-1 73 -48 113t-121 40
q-116 0 -187.5 -114.5t-71.5 -287.5q0 -108 50.5 -162.5t124.5 -54.5q73 0 125 39t74 113h331q-24 -166 -149 -283.5t-323 -137.5l-77 -98q54 -9 97.5 -52.5t43.5 -116.5q0 -95 -80 -149t-214 -54q-87 0 -157 21z" />
    <glyph glyph-name="egrave" unicode="&#xe8;" horiz-adv-x="1290" 
d="M620 1259l-130 359h314l52 -359h-236zM604 -26q-234 0 -374.5 129.5t-140.5 352.5q0 305 171 494t445 189q216 0 355.5 -131.5t139.5 -341.5q0 -85 -20 -187h-766v-21q0 -110 58.5 -169.5t153.5 -59.5q70 0 119 28t70 77h332q-41 -165 -186.5 -262.5t-356.5 -97.5z
M450 681h423q4 12 4 36q0 74 -50 122t-131 48q-88 0 -155 -56.5t-91 -149.5z" />
    <glyph glyph-name="eacute" unicode="&#xe9;" horiz-adv-x="1290" 
d="M849 1259h-237l205 359h314zM604 -26q-234 0 -374.5 129.5t-140.5 352.5q0 305 171 494t445 189q216 0 355.5 -131.5t139.5 -341.5q0 -85 -20 -187h-766v-21q0 -110 58.5 -169.5t153.5 -59.5q70 0 119 28t70 77h332q-41 -165 -186.5 -262.5t-356.5 -97.5zM450 681h423
q4 12 4 36q0 74 -50 122t-131 48q-88 0 -155 -56.5t-91 -149.5z" />
    <glyph glyph-name="ecircumflex" unicode="&#xea;" horiz-adv-x="1290" 
d="M980 1619l194 -359h-285l-87 202h-19l-172 -202h-299l330 359h338zM604 -26q-234 0 -374.5 129.5t-140.5 352.5q0 305 171 494t445 189q216 0 355.5 -131.5t139.5 -341.5q0 -85 -20 -187h-766v-21q0 -110 58.5 -169.5t153.5 -59.5q70 0 119 28t70 77h332
q-41 -165 -186.5 -262.5t-356.5 -97.5zM450 681h423q4 12 4 36q0 74 -50 122t-131 48q-88 0 -155 -56.5t-91 -149.5z" />
    <glyph glyph-name="edieresis" unicode="&#xeb;" horiz-adv-x="1290" 
d="M520 1271q-72 0 -123.5 49.5t-51.5 121.5t51.5 121.5t123.5 49.5t123 -49.5t51 -121.5t-51 -121.5t-123 -49.5zM1025 1271q-72 0 -123 49.5t-51 121.5t51 121.5t123 49.5q73 0 124 -49.5t51 -121.5t-51 -121.5t-124 -49.5zM604 -26q-234 0 -374.5 129.5t-140.5 352.5
q0 305 171 494t445 189q216 0 355.5 -131.5t139.5 -341.5q0 -85 -20 -187h-766v-21q0 -110 58.5 -169.5t153.5 -59.5q70 0 119 28t70 77h332q-41 -165 -186.5 -262.5t-356.5 -97.5zM450 681h423q4 12 4 36q0 74 -50 122t-131 48q-88 0 -155 -56.5t-91 -149.5z" />
    <glyph glyph-name="igrave" unicode="&#xec;" horiz-adv-x="643" 
d="M357 1259l-130 359h314l52 -359h-236zM26 0l237 1113h354l-237 -1113h-354z" />
    <glyph glyph-name="iacute" unicode="&#xed;" horiz-adv-x="643" 
d="M586 1259h-237l205 359h314zM26 0l237 1113h354l-237 -1113h-354z" />
    <glyph glyph-name="icircumflex" unicode="&#xee;" horiz-adv-x="643" 
d="M717 1619l194 -359h-285l-87 202h-19l-172 -202h-299l330 359h338zM26 0l237 1113h354l-237 -1113h-354z" />
    <glyph glyph-name="idieresis" unicode="&#xef;" horiz-adv-x="643" 
d="M257 1271q-72 0 -123.5 49.5t-51.5 121.5t51.5 121.5t123.5 49.5t123 -49.5t51 -121.5t-51 -121.5t-123 -49.5zM762 1271q-72 0 -123 49.5t-51 121.5t51 121.5t123 49.5q73 0 124 -49.5t51 -121.5t-51 -121.5t-124 -49.5zM26 0l237 1113h354l-237 -1113h-354z" />
    <glyph glyph-name="eth" unicode="&#xf0;" horiz-adv-x="1361" 
d="M625 -19q-239 0 -390.5 137t-151.5 355q0 148 70.5 276t194.5 205t270 77q120 0 208 -48.5t128 -122.5h16q-23 205 -128 335l-342 -108l34 158l188 59q-64 42 -152 73l40 183q223 -51 380 -172l260 82l-34 -157l-111 -35q179 -212 179 -517q0 -152 -40 -290
q-66 -222 -226.5 -356t-392.5 -134zM631 248q107 0 187.5 103.5t80.5 238.5q0 93 -53.5 149.5t-140.5 56.5q-105 0 -183.5 -105t-78.5 -236q0 -96 52 -151.5t136 -55.5z" />
    <glyph glyph-name="ntilde" unicode="&#xf1;" horiz-adv-x="1331" 
d="M437 1298q27 142 101.5 226t180.5 84q52 0 99 -23t75 -50.5t59 -50.5t56 -23q62 0 89 118h202q-26 -141 -101 -225.5t-181 -84.5q-52 0 -99 23t-75 50.5t-59 50.5t-56 23q-63 0 -89 -118h-202zM14 0l239 1113h343l-39 -181h19q56 93 143.5 145.5t200.5 52.5
q150 0 239 -90t89 -232q0 -62 -15 -134l-143 -674h-353l132 619q9 37 9 76q0 68 -41.5 111.5t-114.5 43.5q-81 0 -138.5 -56.5t-76.5 -146.5l-140 -647h-353z" />
    <glyph glyph-name="ograve" unicode="&#xf2;" horiz-adv-x="1344" 
d="M652 1259l-130 359h314l52 -359h-236zM738 1139q235 0 376 -136t141 -362q0 -141 -49.5 -264.5t-135 -212t-205.5 -139.5t-256 -51q-235 0 -377.5 136t-142.5 361q0 188 84.5 341t233.5 240t331 87zM623 246q108 0 186 115t78 273q0 111 -43 173t-121 62
q-111 0 -189 -115.5t-78 -279.5q0 -107 44.5 -167.5t122.5 -60.5z" />
    <glyph glyph-name="oacute" unicode="&#xf3;" horiz-adv-x="1344" 
d="M880 1259h-236l205 359h314zM738 1139q235 0 376 -136t141 -362q0 -141 -49.5 -264.5t-135 -212t-205.5 -139.5t-256 -51q-235 0 -377.5 136t-142.5 361q0 188 84.5 341t233.5 240t331 87zM623 246q108 0 186 115t78 273q0 111 -43 173t-121 62q-111 0 -189 -115.5
t-78 -279.5q0 -107 44.5 -167.5t122.5 -60.5z" />
    <glyph glyph-name="ocircumflex" unicode="&#xf4;" horiz-adv-x="1344" 
d="M1011 1619l195 -359h-285l-87 202h-19l-172 -202h-299l329 359h338zM738 1139q235 0 376 -136t141 -362q0 -141 -49.5 -264.5t-135 -212t-205.5 -139.5t-256 -51q-235 0 -377.5 136t-142.5 361q0 188 84.5 341t233.5 240t331 87zM623 246q108 0 186 115t78 273
q0 111 -43 173t-121 62q-111 0 -189 -115.5t-78 -279.5q0 -107 44.5 -167.5t122.5 -60.5z" />
    <glyph glyph-name="otilde" unicode="&#xf5;" horiz-adv-x="1344" 
d="M369 1291q27 142 101.5 225.5t180.5 83.5q52 0 99.5 -23t75 -50t58.5 -50t56 -23q63 0 89 117h202q-26 -141 -100.5 -225t-180.5 -84q-52 0 -99 23t-75 50t-59.5 50t-56.5 23q-61 0 -89 -117h-202zM738 1139q235 0 376 -136t141 -362q0 -141 -49.5 -264.5t-135 -212
t-205.5 -139.5t-256 -51q-235 0 -377.5 136t-142.5 361q0 188 84.5 341t233.5 240t331 87zM623 246q108 0 186 115t78 273q0 111 -43 173t-121 62q-111 0 -189 -115.5t-78 -279.5q0 -107 44.5 -167.5t122.5 -60.5z" />
    <glyph glyph-name="odieresis" unicode="&#xf6;" horiz-adv-x="1344" 
d="M552 1271q-72 0 -123.5 49.5t-51.5 121.5t51.5 121.5t123.5 49.5t123 -49.5t51 -121.5t-51 -121.5t-123 -49.5zM1057 1271q-72 0 -123 49.5t-51 121.5t51 121.5t123 49.5q73 0 124 -49.5t51 -121.5t-51 -121.5t-124 -49.5zM738 1139q235 0 376 -136t141 -362
q0 -141 -49.5 -264.5t-135 -212t-205.5 -139.5t-256 -51q-235 0 -377.5 136t-142.5 361q0 188 84.5 341t233.5 240t331 87zM623 246q108 0 186 115t78 273q0 111 -43 173t-121 62q-111 0 -189 -115.5t-78 -279.5q0 -107 44.5 -167.5t122.5 -60.5z" />
    <glyph glyph-name="divide" unicode="&#xf7;" horiz-adv-x="1461" 
d="M814 815q-86 0 -137 49t-51 120q0 81 50.5 132.5t137.5 51.5q85 0 135.5 -49.5t50.5 -120.5q0 -81 -50 -132t-136 -51zM1245 448h-1076l58 271h1076zM641 4q-86 0 -136.5 49t-50.5 120q0 81 50 132.5t137 51.5q85 0 136 -49.5t51 -120.5q0 -81 -50 -132t-137 -51z" />
    <glyph glyph-name="oslash" unicode="&#xf8;" horiz-adv-x="1344" 
d="M118 -26l112 137q-141 135 -141 360q0 188 84.5 341t233.5 240t331 87q158 0 277 -64l96 119l97 -57l-103 -125q150 -136 150 -371q0 -141 -49.5 -264.5t-135 -212t-205.5 -139.5t-256 -51q-166 0 -293 72l-108 -133zM456 474q0 -45 7 -77l356 438q-40 34 -96 34
q-111 0 -189 -115.5t-78 -279.5zM623 246q108 0 186 115t78 273q0 58 -11 98l-361 -443q43 -43 108 -43z" />
    <glyph glyph-name="ugrave" unicode="&#xf9;" horiz-adv-x="1332" 
d="M703 1259l-130 359h314l52 -359h-236zM1317 1113l-235 -1113h-344l37 175h-19q-112 -201 -325 -201q-155 0 -250 88t-95 238q0 54 15 141l141 672h355l-131 -615q-7 -35 -7 -73q0 -161 155 -161q82 0 136.5 54.5t75.5 151.5l137 643h354z" />
    <glyph glyph-name="uacute" unicode="&#xfa;" horiz-adv-x="1332" 
d="M931 1259h-236l205 359h314zM1317 1113l-235 -1113h-344l37 175h-19q-112 -201 -325 -201q-155 0 -250 88t-95 238q0 54 15 141l141 672h355l-131 -615q-7 -35 -7 -73q0 -161 155 -161q82 0 136.5 54.5t75.5 151.5l137 643h354z" />
    <glyph glyph-name="ucircumflex" unicode="&#xfb;" horiz-adv-x="1332" 
d="M1062 1619l195 -359h-285l-87 202h-20l-171 -202h-299l329 359h338zM1317 1113l-235 -1113h-344l37 175h-19q-112 -201 -325 -201q-155 0 -250 88t-95 238q0 54 15 141l141 672h355l-131 -615q-7 -35 -7 -73q0 -161 155 -161q82 0 136.5 54.5t75.5 151.5l137 643h354z
" />
    <glyph glyph-name="udieresis" unicode="&#xfc;" horiz-adv-x="1332" 
d="M602 1271q-72 0 -123 49.5t-51 121.5t51 121.5t123 49.5q73 0 124 -49.5t51 -121.5t-51 -121.5t-124 -49.5zM1108 1271q-72 0 -123 49.5t-51 121.5t51 121.5t123 49.5q73 0 123.5 -49.5t50.5 -121.5t-50.5 -121.5t-123.5 -49.5zM1317 1113l-235 -1113h-344l37 175h-19
q-112 -201 -325 -201q-155 0 -250 88t-95 238q0 54 15 141l141 672h355l-131 -615q-7 -35 -7 -73q0 -161 155 -161q82 0 136.5 54.5t75.5 151.5l137 643h354z" />
    <glyph glyph-name="yacute" unicode="&#xfd;" horiz-adv-x="1258" 
d="M888 1259h-236l205 359h314zM82 -407q-129 0 -141 3l57 268q12 -3 70 -3q175 0 215 99l12 33l-127 1120h363l30 -809h19l370 809h377l-600 -1123q-114 -215 -263 -306t-382 -91z" />
    <glyph glyph-name="thorn" unicode="&#xfe;" horiz-adv-x="1378" 
d="M414 200l-116 -539h-354l394 1847h353l-117 -550h20q54 80 138 126.5t190 46.5q167 0 271 -114.5t104 -309.5q0 -206 -73 -372t-200 -259t-283 -93q-118 0 -199.5 59.5t-108.5 157.5h-19zM658 266q113 0 192.5 110t79.5 271q0 100 -50 154.5t-128 54.5q-112 0 -193 -113
t-81 -266q0 -100 51 -155.5t129 -55.5z" />
    <glyph glyph-name="ydieresis" unicode="&#xff;" horiz-adv-x="1258" 
d="M559 1271q-72 0 -123 49.5t-51 121.5t51 121.5t123 49.5q73 0 124 -49.5t51 -121.5t-51 -121.5t-124 -49.5zM1065 1271q-72 0 -123 49.5t-51 121.5t51 121.5t123 49.5q73 0 123.5 -49.5t50.5 -121.5t-50.5 -121.5t-123.5 -49.5zM82 -407q-129 0 -141 3l57 268
q12 -3 70 -3q175 0 215 99l12 33l-127 1120h363l30 -809h19l370 809h377l-600 -1123q-114 -215 -263 -306t-382 -91z" />
    <glyph glyph-name="Amacron" unicode="&#x100;" horiz-adv-x="1564" 
d="M1451 1854l-42 -197h-762l42 197h762zM990 0l-22 317h-473l-162 -317h-379l807 1443h445l167 -1443h-383zM898 1117l-274 -536h333l-39 536h-20z" />
    <glyph glyph-name="amacron" unicode="&#x101;" horiz-adv-x="1241" 
d="M1164 1537l-42 -198h-763l42 198h763zM363 -17q-140 0 -233.5 86.5t-93.5 216.5q0 171 134 271.5t370 107.5l258 7l14 67q4 24 4 35q0 48 -42.5 76.5t-113.5 28.5q-126 0 -167 -83h-324q35 157 174.5 250t341.5 93q214 0 346 -92t132 -242q0 -47 -9 -90l-153 -715h-343
l28 134h-19q-43 -69 -126 -110t-178 -41zM522 229q78 0 139 45.5t76 113.5l18 83l-197 -6q-83 -3 -131 -37.5t-48 -90.5q0 -48 40 -78t103 -30z" />
    <glyph glyph-name="Abreve" unicode="&#x102;" horiz-adv-x="1564" 
d="M1053 1581q-103 0 -183.5 30.5t-127.5 81t-68 112.5t-13 127h232q-7 -74 38.5 -119.5t129.5 -45.5q162 0 195 165h231q-19 -160 -134 -255.5t-300 -95.5zM990 0l-22 317h-473l-162 -317h-379l807 1443h445l167 -1443h-383zM898 1117l-274 -536h333l-39 536h-20z" />
    <glyph glyph-name="abreve" unicode="&#x103;" horiz-adv-x="1241" 
d="M770 1255q-91 0 -164 24t-118.5 61.5t-73.5 86t-36 97t0 94.5h232q-7 -75 35 -123.5t133 -48.5q166 0 197 172h230q-17 -165 -132 -264.5t-303 -98.5zM363 -17q-140 0 -233.5 86.5t-93.5 216.5q0 171 134 271.5t370 107.5l258 7l14 67q4 24 4 35q0 48 -42.5 76.5
t-113.5 28.5q-126 0 -167 -83h-324q35 157 174.5 250t341.5 93q214 0 346 -92t132 -242q0 -47 -9 -90l-153 -715h-343l28 134h-19q-43 -69 -126 -110t-178 -41zM522 229q78 0 139 45.5t76 113.5l18 83l-197 -6q-83 -3 -131 -37.5t-48 -90.5q0 -48 40 -78t103 -30z" />
    <glyph glyph-name="Aogonek" unicode="&#x104;" horiz-adv-x="1564" 
d="M1236 -286l-38 -179q-38 -14 -110 -14q-137 0 -220.5 60.5t-83.5 159.5q0 79 57 153t149 113l-22 310h-473l-162 -317h-379l807 1443h445l167 -1443l-66 -3q-106 -8 -180.5 -63t-74.5 -127q0 -45 35.5 -71t96.5 -26q36 0 52 4zM898 1117l-274 -536h333l-39 536h-20z" />
    <glyph glyph-name="aogonek" unicode="&#x105;" horiz-adv-x="1241" 
d="M363 -17q-140 0 -233.5 86.5t-93.5 216.5q0 171 134 271.5t370 107.5l258 7l14 67q4 24 4 35q0 48 -42.5 76.5t-113.5 28.5q-126 0 -167 -83h-324q35 157 174.5 250t341.5 93q214 0 346 -92t132 -242q0 -47 -9 -90l-153 -715q-125 -9 -205 -60.5t-80 -121.5
q0 -48 39.5 -76t108.5 -28q33 0 78 8l-38 -181q-61 -21 -146 -21q-119 0 -198.5 66.5t-79.5 173.5q0 83 50 153.5t133 112.5l23 108h-19q-43 -69 -126 -110t-178 -41zM522 229q78 0 139 45.5t76 113.5l18 83l-197 -6q-83 -3 -131 -37.5t-48 -90.5q0 -48 40 -78t103 -30z" />
    <glyph glyph-name="Cacute" unicode="&#x106;" horiz-adv-x="1569" 
d="M1062 1598h-237l198 335h313zM1189 908q1 3 1 19q-3 110 -77 178.5t-191 68.5q-116 0 -211 -75t-149.5 -208t-54.5 -296q0 -151 73.5 -239t199.5 -88q112 0 200.5 62.5t122.5 165.5h356q-44 -242 -237.5 -388.5t-469.5 -146.5q-282 0 -450 167t-168 446
q0 263 103.5 470.5t288 322.5t418.5 115q167 0 305 -68t217 -186.5t79 -261.5q0 -30 -4 -58h-352z" />
    <glyph glyph-name="cacute" unicode="&#x107;" horiz-adv-x="1247" 
d="M856 1259h-237l205 359h314zM716 1139q108 0 198.5 -33.5t149 -88.5t91.5 -122.5t36 -139.5q1 -13 1 -42h-329q-1 73 -48 113t-121 40q-116 0 -187.5 -114.5t-71.5 -287.5q0 -108 50.5 -162.5t124.5 -54.5q73 0 125 39t74 113h331q-27 -182 -173 -303.5t-376 -121.5
q-233 0 -369 127t-136 342q0 198 77 356t221.5 249t331.5 91z" />
    <glyph glyph-name="Ccircumflex" unicode="&#x108;" horiz-adv-x="1569" 
d="M1201 1946l188 -348h-284l-84 194h-19l-168 -194h-307l336 348h338zM1189 908q1 3 1 19q-3 110 -77 178.5t-191 68.5q-116 0 -211 -75t-149.5 -208t-54.5 -296q0 -151 73.5 -239t199.5 -88q112 0 200.5 62.5t122.5 165.5h356q-44 -242 -237.5 -388.5t-469.5 -146.5
q-282 0 -450 167t-168 446q0 263 103.5 470.5t288 322.5t418.5 115q167 0 305 -68t217 -186.5t79 -261.5q0 -30 -4 -58h-352z" />
    <glyph glyph-name="ccircumflex" unicode="&#x109;" horiz-adv-x="1247" 
d="M987 1619l194 -359h-284l-88 202h-19l-172 -202h-299l330 359h338zM716 1139q108 0 198.5 -33.5t149 -88.5t91.5 -122.5t36 -139.5q1 -13 1 -42h-329q-1 73 -48 113t-121 40q-116 0 -187.5 -114.5t-71.5 -287.5q0 -108 50.5 -162.5t124.5 -54.5q73 0 125 39t74 113h331
q-27 -182 -173 -303.5t-376 -121.5q-233 0 -369 127t-136 342q0 198 77 356t221.5 249t331.5 91z" />
    <glyph glyph-name="Cdotaccent" unicode="&#x10a;" horiz-adv-x="1569" 
d="M998 1580q-77 0 -132.5 54t-55.5 130q0 77 55.5 131t132.5 54q78 0 133 -53.5t55 -131.5q0 -76 -55 -130t-133 -54zM1189 908q1 3 1 19q-3 110 -77 178.5t-191 68.5q-116 0 -211 -75t-149.5 -208t-54.5 -296q0 -151 73.5 -239t199.5 -88q112 0 200.5 62.5t122.5 165.5
h356q-44 -242 -237.5 -388.5t-469.5 -146.5q-282 0 -450 167t-168 446q0 263 103.5 470.5t288 322.5t418.5 115q167 0 305 -68t217 -186.5t79 -261.5q0 -30 -4 -58h-352z" />
    <glyph glyph-name="cdotaccent" unicode="&#x10b;" horiz-adv-x="1247" 
d="M780 1262q-77 0 -132.5 53.5t-55.5 130.5t55.5 131t132.5 54q78 0 133 -54t55 -131t-55 -130.5t-133 -53.5zM716 1139q108 0 198.5 -33.5t149 -88.5t91.5 -122.5t36 -139.5q1 -13 1 -42h-329q-1 73 -48 113t-121 40q-116 0 -187.5 -114.5t-71.5 -287.5
q0 -108 50.5 -162.5t124.5 -54.5q73 0 125 39t74 113h331q-27 -182 -173 -303.5t-376 -121.5q-233 0 -369 127t-136 342q0 198 77 356t221.5 249t331.5 91z" />
    <glyph glyph-name="Ccaron" unicode="&#x10c;" horiz-adv-x="1569" 
d="M788 1598l-188 348h283l85 -194h19l167 194h308l-336 -348h-338zM1189 908q1 3 1 19q-3 110 -77 178.5t-191 68.5q-116 0 -211 -75t-149.5 -208t-54.5 -296q0 -151 73.5 -239t199.5 -88q112 0 200.5 62.5t122.5 165.5h356q-44 -242 -237.5 -388.5t-469.5 -146.5
q-282 0 -450 167t-168 446q0 263 103.5 470.5t288 322.5t418.5 115q167 0 305 -68t217 -186.5t79 -261.5q0 -30 -4 -58h-352z" />
    <glyph glyph-name="ccaron" unicode="&#x10d;" horiz-adv-x="1247" 
d="M590 1260l-194 359h284l88 -202h19l172 202h299l-330 -359h-338zM716 1139q108 0 198.5 -33.5t149 -88.5t91.5 -122.5t36 -139.5q1 -13 1 -42h-329q-1 73 -48 113t-121 40q-116 0 -187.5 -114.5t-71.5 -287.5q0 -108 50.5 -162.5t124.5 -54.5q73 0 125 39t74 113h331
q-27 -182 -173 -303.5t-376 -121.5q-233 0 -369 127t-136 342q0 198 77 356t221.5 249t331.5 91z" />
    <glyph glyph-name="Dcaron" unicode="&#x10e;" horiz-adv-x="1561" 
d="M689 1596l-188 349h283l84 -194h19l168 194h307l-335 -349h-338zM359 1443h569q264 0 417.5 -151t153.5 -419q0 -251 -95.5 -450t-268.5 -311t-394 -112h-689zM666 1149l-181 -855h211q188 0 307 146.5t119 389.5q0 147 -77 233t-213 86h-166z" />
    <glyph glyph-name="dcaron" unicode="&#x10f;" horiz-adv-x="1593" 
d="M1582 1619h272l-183 -542h-205zM458 -17q-169 0 -273 114.5t-104 313.5q0 154 43.5 288.5t118 228.5t178 148t220.5 54q120 0 200.5 -56t107.5 -145h20l127 601h355l-326 -1530h-344l33 155h-19q-125 -172 -337 -172zM628 257q112 0 192.5 113t80.5 266q0 101 -51 156
t-130 55q-113 0 -192.5 -108t-79.5 -268q0 -101 51 -157.5t129 -56.5z" />
    <glyph glyph-name="Dcroat" unicode="&#x110;" horiz-adv-x="1561" 
d="M74 600l54 254h106l125 589h569q264 0 417.5 -151t153.5 -419q0 -251 -95.5 -450t-268.5 -311t-394 -112h-689l128 600h-106zM666 1149l-62 -295h232l-54 -254h-232l-65 -306h211q188 0 307 146.5t119 389.5q0 147 -77 233t-213 86h-166z" />
    <glyph glyph-name="dcroat" unicode="&#x111;" horiz-adv-x="1383" 
d="M458 -17q-169 0 -273 114.5t-104 313.5q0 154 43.5 288.5t118 228.5t178 148t220.5 54q120 0 200.5 -56t107.5 -145h20l67 317h-198l35 169h199l24 115h355l-25 -115h128l-35 -169h-129l-265 -1246h-344l33 155h-19q-125 -172 -337 -172zM628 257q112 0 192.5 113
t80.5 266q0 101 -51 156t-130 55q-113 0 -192.5 -108t-79.5 -268q0 -101 51 -157.5t129 -56.5z" />
    <glyph glyph-name="Emacron" unicode="&#x112;" horiz-adv-x="1302" 
d="M1321 1854l-42 -197h-762l42 197h762zM1103 295l-62 -295h-989l307 1443h988l-63 -295h-621l-61 -288h584l-57 -270h-584l-63 -295h621z" />
    <glyph glyph-name="emacron" unicode="&#x113;" horiz-adv-x="1290" 
d="M1173 1537l-42 -198h-762l42 198h762zM604 -26q-234 0 -374.5 129.5t-140.5 352.5q0 305 171 494t445 189q216 0 355.5 -131.5t139.5 -341.5q0 -85 -20 -187h-766v-21q0 -110 58.5 -169.5t153.5 -59.5q70 0 119 28t70 77h332q-41 -165 -186.5 -262.5t-356.5 -97.5z
M450 681h423q4 12 4 36q0 74 -50 122t-131 48q-88 0 -155 -56.5t-91 -149.5z" />
    <glyph glyph-name="Ebreve" unicode="&#x114;" horiz-adv-x="1302" 
d="M923 1581q-103 0 -183.5 30.5t-127.5 81t-68 112.5t-13 127h232q-7 -74 38.5 -119.5t129.5 -45.5q162 0 195 165h231q-19 -160 -134 -255.5t-300 -95.5zM1103 295l-62 -295h-989l307 1443h988l-63 -295h-621l-61 -288h584l-57 -270h-584l-63 -295h621z" />
    <glyph glyph-name="ebreve" unicode="&#x115;" horiz-adv-x="1290" 
d="M779 1255q-91 0 -164 24t-118 61.5t-73.5 86t-36.5 97t0 94.5h233q-7 -75 34.5 -123.5t132.5 -48.5q82 0 132.5 44t64.5 128h231q-17 -165 -132.5 -264.5t-303.5 -98.5zM604 -26q-234 0 -374.5 129.5t-140.5 352.5q0 305 171 494t445 189q216 0 355.5 -131.5
t139.5 -341.5q0 -85 -20 -187h-766v-21q0 -110 58.5 -169.5t153.5 -59.5q70 0 119 28t70 77h332q-41 -165 -186.5 -262.5t-356.5 -97.5zM450 681h423q4 12 4 36q0 74 -50 122t-131 48q-88 0 -155 -56.5t-91 -149.5z" />
    <glyph glyph-name="Edotaccent" unicode="&#x116;" horiz-adv-x="1302" 
d="M921 1579q-77 0 -132.5 54t-55.5 130q0 78 55 131.5t133 53.5t133 -53.5t55 -131.5q0 -76 -55.5 -130t-132.5 -54zM1103 295l-62 -295h-989l307 1443h988l-63 -295h-621l-61 -288h584l-57 -270h-584l-63 -295h621z" />
    <glyph glyph-name="edotaccent" unicode="&#x117;" horiz-adv-x="1290" 
d="M773 1262q-78 0 -133 53.5t-55 130.5t55 131t133 54t133 -54t55 -131t-55 -130.5t-133 -53.5zM604 -26q-234 0 -374.5 129.5t-140.5 352.5q0 305 171 494t445 189q216 0 355.5 -131.5t139.5 -341.5q0 -85 -20 -187h-766v-21q0 -110 58.5 -169.5t153.5 -59.5q70 0 119 28
t70 77h332q-41 -165 -186.5 -262.5t-356.5 -97.5zM450 681h423q4 12 4 36q0 74 -50 122t-131 48q-88 0 -155 -56.5t-91 -149.5z" />
    <glyph glyph-name="Eogonek" unicode="&#x118;" horiz-adv-x="1302" 
d="M52 0l307 1443h988l-63 -295h-621l-61 -288h584l-57 -270h-584l-63 -295h621l-62 -295l-43 -3q-107 -7 -181.5 -63t-74.5 -127q0 -45 35.5 -71t97.5 -26q37 0 51 4l-38 -179q-36 -14 -109 -14q-137 0 -220.5 60.5t-83.5 159.5q0 76 50.5 142t126.5 98l4 19h-604z" />
    <glyph glyph-name="eogonek" unicode="&#x119;" horiz-adv-x="1290" 
d="M762 -479q-136 0 -219.5 60.5t-83.5 159.5q0 66 47 128t116 87l4 20q-14 -2 -22 -2q-236 0 -375.5 130.5t-139.5 351.5q0 201 77.5 356.5t217.5 241t321 85.5q218 0 356.5 -132.5t138.5 -340.5q0 -83 -20 -187h-766v-21q0 -106 57 -167.5t155 -61.5q70 0 119.5 27.5
t69.5 77.5h332q-41 -172 -219 -282q-108 -68 -155 -124.5t-47 -120.5q0 -45 35.5 -71t96.5 -26q36 0 52 4l-38 -179q-40 -14 -110 -14zM450 681h423q4 12 4 36q0 75 -50.5 122.5t-130.5 47.5q-88 0 -154.5 -56t-91.5 -150z" />
    <glyph glyph-name="Ecaron" unicode="&#x11a;" horiz-adv-x="1302" 
d="M710 1596l-188 349h284l84 -194h19l168 194h307l-336 -349h-338zM1103 295l-62 -295h-989l307 1443h988l-63 -295h-621l-61 -288h584l-57 -270h-584l-63 -295h621z" />
    <glyph glyph-name="ecaron" unicode="&#x11b;" horiz-adv-x="1290" 
d="M583 1260l-194 359h284l88 -202h19l172 202h298l-329 -359h-338zM604 -26q-234 0 -374.5 129.5t-140.5 352.5q0 305 171 494t445 189q216 0 355.5 -131.5t139.5 -341.5q0 -85 -20 -187h-766v-21q0 -110 58.5 -169.5t153.5 -59.5q70 0 119 28t70 77h332
q-41 -165 -186.5 -262.5t-356.5 -97.5zM450 681h423q4 12 4 36q0 74 -50 122t-131 48q-88 0 -155 -56.5t-91 -149.5z" />
    <glyph glyph-name="Gcircumflex" unicode="&#x11c;" horiz-adv-x="1588" 
d="M1199 1946l188 -348h-284l-84 194h-19l-168 -194h-307l336 348h338zM1522 770l-35 -180q-58 -306 -244.5 -467.5t-481.5 -161.5q-283 0 -454 169t-171 449q0 263 102 469t285.5 320t417.5 114q162 0 300.5 -63.5t220 -174t83.5 -240.5q0 -25 -1 -33h-353q-3 87 -80 144
t-192 57q-177 0 -293.5 -161.5t-116.5 -410.5q0 -151 76 -240t206 -89q125 0 212.5 63.5t108.5 169.5l2 13h-259l54 253h613z" />
    <glyph glyph-name="gcircumflex" unicode="&#x11d;" horiz-adv-x="1369" 
d="M981 1620l195 -359h-285l-87 202h-19l-172 -202h-299l329 359h338zM509 -419q-241 0 -388 96.5t-141 248.5h346q3 -49 57.5 -79t146.5 -30q194 0 230 166l42 193h-19q-104 -152 -324 -152q-167 0 -271.5 113t-104.5 297q0 143 43.5 272.5t117.5 222t176 147t215 54.5
q114 0 200 -56.5t115 -150.5h19l42 190h345l-247 -1154q-38 -178 -196 -278t-404 -100zM625 264q111 0 190.5 109.5t79.5 262.5q0 96 -49.5 153.5t-132.5 57.5q-113 0 -190.5 -106t-77.5 -263q0 -98 49 -156t131 -58z" />
    <glyph glyph-name="Gbreve" unicode="&#x11e;" horiz-adv-x="1588" 
d="M999 1583q-103 0 -184 30.5t-128 80.5t-68 112t-13 128l232 -1q-6 -74 39 -119t130 -45q162 0 195 164h231q-20 -160 -134.5 -255t-299.5 -95zM1522 770l-35 -180q-58 -306 -244.5 -467.5t-481.5 -161.5q-283 0 -454 169t-171 449q0 263 102 469t285.5 320t417.5 114
q162 0 300.5 -63.5t220 -174t83.5 -240.5q0 -25 -1 -33h-353q-3 87 -80 144t-192 57q-177 0 -293.5 -161.5t-116.5 -410.5q0 -151 76 -240t206 -89q125 0 212.5 63.5t108.5 169.5l2 13h-259l54 253h613z" />
    <glyph glyph-name="gbreve" unicode="&#x11f;" horiz-adv-x="1369" 
d="M781 1256q-91 0 -164 23.5t-118 61.5t-73.5 86.5t-36.5 97t0 94.5h233q-7 -75 34.5 -123.5t132.5 -48.5q166 0 197 172h231q-18 -166 -133 -265t-303 -98zM509 -419q-241 0 -388 96.5t-141 248.5h346q3 -49 57.5 -79t146.5 -30q194 0 230 166l42 193h-19
q-104 -152 -324 -152q-167 0 -271.5 113t-104.5 297q0 143 43.5 272.5t117.5 222t176 147t215 54.5q114 0 200 -56.5t115 -150.5h19l42 190h345l-247 -1154q-38 -178 -196 -278t-404 -100zM625 264q111 0 190.5 109.5t79.5 262.5q0 96 -49.5 153.5t-132.5 57.5
q-113 0 -190.5 -106t-77.5 -263q0 -98 49 -156t131 -58z" />
    <glyph glyph-name="Gdotaccent" unicode="&#x120;" horiz-adv-x="1588" 
d="M996 1581q-77 0 -132.5 53.5t-55.5 130.5t55.5 131t132.5 54q78 0 133 -54t55 -131t-55 -130.5t-133 -53.5zM1522 770l-35 -180q-58 -306 -244.5 -467.5t-481.5 -161.5q-283 0 -454 169t-171 449q0 263 102 469t285.5 320t417.5 114q162 0 300.5 -63.5t220 -174
t83.5 -240.5q0 -25 -1 -33h-353q-3 87 -80 144t-192 57q-177 0 -293.5 -161.5t-116.5 -410.5q0 -151 76 -240t206 -89q125 0 212.5 63.5t108.5 169.5l2 13h-259l54 253h613z" />
    <glyph glyph-name="gdotaccent" unicode="&#x121;" horiz-adv-x="1369" 
d="M775 1262q-77 0 -132.5 54t-55.5 130q0 78 55 131.5t133 53.5t133 -53.5t55 -131.5q0 -76 -55.5 -130t-132.5 -54zM509 -419q-241 0 -388 96.5t-141 248.5h346q3 -49 57.5 -79t146.5 -30q194 0 230 166l42 193h-19q-104 -152 -324 -152q-167 0 -271.5 113t-104.5 297
q0 143 43.5 272.5t117.5 222t176 147t215 54.5q114 0 200 -56.5t115 -150.5h19l42 190h345l-247 -1154q-38 -178 -196 -278t-404 -100zM625 264q111 0 190.5 109.5t79.5 262.5q0 96 -49.5 153.5t-132.5 57.5q-113 0 -190.5 -106t-77.5 -263q0 -98 49 -156t131 -58z" />
    <glyph glyph-name="Gcommaaccent" unicode="&#x122;" horiz-adv-x="1588" 
d="M1522 770l-35 -180q-58 -306 -244.5 -467.5t-481.5 -161.5q-283 0 -454 169t-171 449q0 263 102 469t285.5 320t417.5 114q162 0 300.5 -63.5t220 -174t83.5 -240.5q0 -25 -1 -33h-353q-3 87 -80 144t-192 57q-177 0 -293.5 -161.5t-116.5 -410.5q0 -151 76 -240t206 -89
q125 0 212.5 63.5t108.5 169.5l2 13h-259l54 253h613zM705 -494h-259l150 361h334z" />
    <glyph glyph-name="gcommaaccent" unicode="&#x123;" horiz-adv-x="1369" 
d="M779 1621h258l-149 -361h-335zM509 -419q-241 0 -388 96.5t-141 248.5h346q3 -49 57.5 -79t146.5 -30q194 0 230 166l42 193h-19q-104 -152 -324 -152q-167 0 -271.5 113t-104.5 297q0 143 43.5 272.5t117.5 222t176 147t215 54.5q114 0 200 -56.5t115 -150.5h19l42 190
h345l-247 -1154q-38 -178 -196 -278t-404 -100zM625 264q111 0 190.5 109.5t79.5 262.5q0 96 -49.5 153.5t-132.5 57.5q-113 0 -190.5 -106t-77.5 -263q0 -98 49 -156t131 -58z" />
    <glyph glyph-name="Hcircumflex" unicode="&#x124;" horiz-adv-x="1649" 
d="M1283 1945l188 -349h-284l-84 195h-19l-168 -195h-307l336 349h338zM1361 0h-369l124 582h-574l-124 -582h-366l307 1443h367l-120 -566h574l120 566h368z" />
    <glyph glyph-name="hcircumflex" unicode="&#x125;" horiz-adv-x="1346" 
d="M788 2021l188 -349h-284l-84 195h-19l-168 -195h-307l336 349h338zM21 0l324 1519h353l-124 -574h19q117 189 338 189q154 0 243 -87.5t89 -226.5q0 -59 -14 -134l-144 -686h-353l133 631q9 45 9 76q0 70 -44.5 111t-116.5 41q-83 0 -141.5 -55t-77.5 -145l-140 -659
h-353z" />
    <glyph glyph-name="Hbar" unicode="&#x126;" horiz-adv-x="1649" 
d="M110 1034l54 254h162l33 155h367l-33 -155h574l33 155h368l-33 -155h166l-54 -254h-166l-220 -1034h-369l124 582h-574l-124 -582h-366l220 1034h-162zM606 877h574l33 157h-574z" />
    <glyph glyph-name="hbar" unicode="&#x127;" horiz-adv-x="1346" 
d="M21 0l266 1246h-134l36 169h134l22 104h353l-23 -104h219l-37 -169h-218l-65 -301h19q117 189 338 189q154 0 243 -87.5t89 -226.5q0 -59 -14 -134l-144 -686h-353l133 631q9 45 9 76q0 70 -44.5 111t-116.5 41q-83 0 -141.5 -55t-77.5 -145l-140 -659h-353z" />
    <glyph glyph-name="Itilde" unicode="&#x128;" horiz-adv-x="707" 
d="M175 1608q26 141 100.5 225t180.5 84q52 0 99.5 -23t75 -50t58.5 -50t56 -23q62 0 90 117h201q-26 -140 -100.5 -224.5t-180.5 -84.5q-52 0 -99 23t-75 50t-59.5 50t-56.5 23q-62 0 -89 -117h-201zM419 0h-367l307 1443h367z" />
    <glyph glyph-name="itilde" unicode="&#x129;" horiz-adv-x="643" 
d="M74 1291q27 142 101.5 225.5t180.5 83.5q52 0 99.5 -23t75 -50t58.5 -50t56 -23q62 0 90 117h201q-26 -141 -100.5 -225t-180.5 -84q-52 0 -99 23t-75 50t-59.5 50t-56.5 23q-61 0 -89 -117h-202zM26 0l237 1113h354l-237 -1113h-354z" />
    <glyph glyph-name="Imacron" unicode="&#x12a;" horiz-adv-x="707" 
d="M1010 1854l-42 -197h-762l42 197h762zM419 0h-367l307 1443h367z" />
    <glyph glyph-name="imacron" unicode="&#x12b;" horiz-adv-x="643" 
d="M871 1537l-42 -198h-648l42 198h648zM26 0l237 1113h354l-237 -1113h-354z" />
    <glyph glyph-name="Ibreve" unicode="&#x12c;" horiz-adv-x="707" 
d="M613 1581q-103 0 -184 30.5t-128 81t-68 112.5t-13 127h232q-6 -74 39 -119.5t129 -45.5q161 0 196 165h231q-20 -160 -134.5 -255.5t-299.5 -95.5zM419 0h-367l307 1443h367z" />
    <glyph glyph-name="ibreve" unicode="&#x12d;" horiz-adv-x="643" 
d="M516 1255q-91 0 -164 24t-118 61.5t-73.5 86t-36.5 97t0 94.5h233q-7 -75 34.5 -123.5t132.5 -48.5q82 0 132.5 44t64.5 128h231q-17 -165 -132.5 -264.5t-303.5 -98.5zM26 0l237 1113h354l-237 -1113h-354z" />
    <glyph glyph-name="Iogonek" unicode="&#x12e;" horiz-adv-x="707" 
d="M196 -479q-146 0 -228 60t-82 150q0 75 43.5 139.5t117.5 105.5l312 1467h367l-307 -1445l-28 -1q-94 -8 -164 -63t-70 -127q0 -45 35.5 -71t96.5 -26q25 0 51 4l-38 -179q-42 -14 -106 -14z" />
    <glyph glyph-name="iogonek" unicode="&#x12f;" horiz-adv-x="643" 
d="M502 1242q-90 0 -145 41.5t-55 109.5q0 73 55.5 118.5t144.5 45.5q90 0 144.5 -41.5t54.5 -109.5q0 -73 -55 -118.5t-144 -45.5zM274 -465q-41 -14 -107 -14q-138 0 -223.5 58t-85.5 152q0 74 42.5 139t121.5 108l241 1135h354l-237 -1115l-17 -1q-96 -7 -165 -63
t-69 -127q0 -45 35.5 -71t96.5 -26q23 0 51 4z" />
    <glyph glyph-name="Idotaccent" unicode="&#x130;" horiz-adv-x="707" 
d="M610 1579q-77 0 -132.5 54t-55.5 130q0 78 55 131.5t133 53.5t133 -53.5t55 -131.5q0 -76 -55.5 -130t-132.5 -54zM419 0h-367l307 1443h367z" />
    <glyph glyph-name="dotlessi" unicode="&#x131;" horiz-adv-x="643" 
d="M26 0l237 1113h354l-237 -1113h-354z" />
    <glyph glyph-name="IJ" unicode="&#x132;" horiz-adv-x="2003" 
d="M419 0h-367l307 1443h367zM751 400q0 29 2 43h351v-13q1 -70 43.5 -112t114.5 -42q145 0 184 186l209 981h366l-218 -1027q-47 -221 -187 -338t-362 -117q-229 0 -367.5 121t-135.5 318z" />
    <glyph glyph-name="ij" unicode="&#x133;" horiz-adv-x="1286" 
d="M510 1262q-78 0 -133 53.5t-55 130.5t55 131t133 54t133 -54t55 -131t-55 -130.5t-133 -53.5zM1152 1262q-78 0 -133 53.5t-55 130.5t55 131t133 54t133 -54t55 -131t-55 -130.5t-133 -53.5zM26 0l237 1113h354l-237 -1113h-354zM1260 1113l-247 -1161
q-35 -164 -147 -247t-288 -83q-87 0 -166 15l56 255q26 -7 69 -7q108 0 130 103l239 1125h354z" />
    <glyph glyph-name="Jcircumflex" unicode="&#x134;" horiz-adv-x="1295" 
d="M1400 1945l188 -349h-283l-84 195h-19l-168 -195h-307l335 349h338zM43 400q0 22 3 43h351v-13q1 -70 43 -112t114 -42q144 0 185 186l209 981h366l-218 -1027q-47 -221 -187 -338t-362 -117q-229 0 -367.5 121t-136.5 318z" />
    <glyph glyph-name="jcircumflex" unicode="&#x135;" horiz-adv-x="643" 
d="M716 1619l194 -359h-284l-88 202h-19l-172 -202h-299l330 359h338zM617 1113l-247 -1161q-34 -164 -146.5 -247t-288.5 -83q-87 0 -166 15l57 255q24 -7 68 -7q108 0 130 103l239 1125h354z" />
    <glyph glyph-name="Kcommaaccent" unicode="&#x136;" horiz-adv-x="1509" 
d="M419 0h-367l307 1443h366l-130 -609h20l600 609h422l-653 -660l347 -783h-409l-246 570l-173 -172zM591 -494h-258l149 361h335z" />
    <glyph glyph-name="kcommaaccent" unicode="&#x137;" horiz-adv-x="1275" 
d="M376 0h-355l326 1530h353l-173 -818h20l396 401h399l-510 -489l310 -624h-385l-210 434l-100 -94zM487 -494h-259l150 361h335z" />
    <glyph glyph-name="kacyrillic" unicode="&#x43a;" horiz-adv-x="1251" 
d="M526 691h51l363 422h398l-497 -530l264 -583h-386l-190 444h-56l-94 -444h-355l237 1113h355z" />
    <glyph glyph-name="kacyrillic" unicode="&#x138;" horiz-adv-x="1251" 
d="M526 691h51l363 422h398l-497 -530l264 -583h-386l-190 444h-56l-94 -444h-355l237 1113h355z" />
    <glyph glyph-name="Lacute" unicode="&#x139;" horiz-adv-x="1247" 
d="M673 1597h-236l198 335h312zM1096 303l-64 -303h-980l307 1443h367l-243 -1140h613z" />
    <glyph glyph-name="lacute" unicode="&#x13a;" horiz-adv-x="634" 
d="M655 1684h-237l199 335h312zM21 0l326 1530h355l-326 -1530h-355z" />
    <glyph glyph-name="Lcommaaccent" unicode="&#x13b;" horiz-adv-x="1247" 
d="M1096 303l-64 -303h-980l307 1443h367l-243 -1140h613zM471 -494h-259l150 361h334z" />
    <glyph glyph-name="lcommaaccent" unicode="&#x13c;" horiz-adv-x="634" 
d="M21 0l326 1530h355l-326 -1530h-355zM127 -494h-258l149 361h335z" />
    <glyph glyph-name="Lcaron" unicode="&#x13d;" horiz-adv-x="1247" 
d="M975 1619h273l-185 -549h-205zM1096 303l-64 -303h-980l307 1443h367l-243 -1140h613z" />
    <glyph glyph-name="lcaron" unicode="&#x13e;" horiz-adv-x="865" 
d="M853 1619h273l-183 -542h-205zM21 0l326 1530h355l-326 -1530h-355z" />
    <glyph glyph-name="Ldot" unicode="&#x13f;" horiz-adv-x="1273" 
d="M1096 303l-64 -303h-980l307 1443h367l-243 -1140h613zM900 532q-91 0 -146.5 53t-55.5 129q0 87 54.5 142.5t147.5 55.5q91 0 146.5 -53t55.5 -129q0 -87 -54.5 -142.5t-147.5 -55.5z" />
    <glyph glyph-name="ldot" unicode="&#x140;" horiz-adv-x="1044" 
d="M21 0l326 1530h355l-326 -1530h-355zM875 534q-91 0 -146.5 53t-55.5 129q0 87 54.5 142.5t147.5 55.5q91 0 146 -53t55 -129q0 -87 -54 -142.5t-147 -55.5z" />
    <glyph glyph-name="Lslash" unicode="&#x141;" horiz-adv-x="1276" 
d="M29 556l49 229l188 90l121 568h367l-80 -375l231 109l-49 -229l-231 -110l-114 -535h613l-64 -303h-980l138 645z" />
    <glyph glyph-name="lslash" unicode="&#x142;" horiz-adv-x="634" 
d="M21 0l138 646l-127 -61l49 229l126 61l140 655h355l-99 -464l127 61l-48 -229l-128 -62l-178 -836h-355z" />
    <glyph glyph-name="Nacute" unicode="&#x143;" horiz-adv-x="1600" 
d="M1087 1597h-236l198 335h312zM404 0h-352l307 1443h260l449 -842h19l180 842h352l-307 -1443h-256l-456 834h-19z" />
    <glyph glyph-name="nacute" unicode="&#x144;" horiz-adv-x="1331" 
d="M948 1267h-236l204 359h314zM14 0l239 1113h343l-39 -181h19q56 93 143.5 145.5t200.5 52.5q150 0 239 -90t89 -232q0 -62 -15 -134l-143 -674h-353l132 619q9 37 9 76q0 68 -41.5 111.5t-114.5 43.5q-81 0 -138.5 -56.5t-76.5 -146.5l-140 -647h-353z" />
    <glyph glyph-name="Ncommaaccent" unicode="&#x145;" horiz-adv-x="1600" 
d="M404 0h-352l307 1443h260l449 -842h19l180 842h352l-307 -1443h-256l-456 834h-19zM647 -494h-259l150 361h335z" />
    <glyph glyph-name="ncommaaccent" unicode="&#x146;" horiz-adv-x="1331" 
d="M14 0l239 1113h343l-39 -181h19q56 93 143.5 145.5t200.5 52.5q150 0 239 -90t89 -232q0 -62 -15 -134l-143 -674h-353l132 619q9 37 9 76q0 68 -41.5 111.5t-114.5 43.5q-81 0 -138.5 -56.5t-76.5 -146.5l-140 -647h-353zM487 -494h-258l149 361h335z" />
    <glyph glyph-name="Ncaron" unicode="&#x147;" horiz-adv-x="1600" 
d="M814 1596l-189 349h284l84 -194h19l168 194h307l-335 -349h-338zM404 0h-352l307 1443h260l449 -842h19l180 842h352l-307 -1443h-256l-456 834h-19z" />
    <glyph glyph-name="ncaron" unicode="&#x148;" horiz-adv-x="1331" 
d="M682 1268l-194 359h284l88 -202h19l172 202h299l-330 -359h-338zM14 0l239 1113h343l-39 -181h19q56 93 143.5 145.5t200.5 52.5q150 0 239 -90t89 -232q0 -62 -15 -134l-143 -674h-353l132 619q9 37 9 76q0 68 -41.5 111.5t-114.5 43.5q-81 0 -138.5 -56.5t-76.5 -146.5
l-140 -647h-353z" />
    <glyph glyph-name="Omacron" unicode="&#x14c;" horiz-adv-x="1638" 
d="M1402 1854l-42 -198h-763l42 198h763zM779 -39q-147 0 -268.5 47.5t-203.5 130.5t-127 196.5t-45 245.5q0 196 61.5 365t167.5 286t252.5 183.5t313.5 66.5q149 0 271.5 -47.5t203 -130.5t124.5 -196.5t44 -245.5q0 -158 -39 -299t-111.5 -250t-170 -188.5t-219 -121.5
t-254.5 -42zM919 1169q-111 0 -205.5 -74.5t-149.5 -204t-55 -284.5q0 -152 76.5 -243.5t204.5 -91.5q170 0 290 163.5t120 401.5q0 152 -77 242.5t-204 90.5z" />
    <glyph glyph-name="omacron" unicode="&#x14d;" horiz-adv-x="1344" 
d="M1205 1537l-42 -198h-762l42 198h762zM738 1139q235 0 376 -136t141 -362q0 -141 -49.5 -264.5t-135 -212t-205.5 -139.5t-256 -51q-235 0 -377.5 136t-142.5 361q0 188 84.5 341t233.5 240t331 87zM623 246q108 0 186 115t78 273q0 111 -43 173t-121 62
q-111 0 -189 -115.5t-78 -279.5q0 -107 44.5 -167.5t122.5 -60.5z" />
    <glyph glyph-name="Obreve" unicode="&#x14e;" horiz-adv-x="1638" 
d="M1004 1581q-103 0 -183.5 30.5t-128 80.5t-68.5 112t-13 128l233 -1q-7 -74 38.5 -119t129.5 -45q162 0 195 164h231q-19 -160 -134 -255t-300 -95zM779 -39q-147 0 -268.5 47.5t-203.5 130.5t-127 196.5t-45 245.5q0 196 61.5 365t167.5 286t252.5 183.5t313.5 66.5
q149 0 271.5 -47.5t203 -130.5t124.5 -196.5t44 -245.5q0 -158 -39 -299t-111.5 -250t-170 -188.5t-219 -121.5t-254.5 -42zM919 1169q-111 0 -205.5 -74.5t-149.5 -204t-55 -284.5q0 -152 76.5 -243.5t204.5 -91.5q170 0 290 163.5t120 401.5q0 152 -77 242.5t-204 90.5z
" />
    <glyph glyph-name="obreve" unicode="&#x14f;" horiz-adv-x="1344" 
d="M811 1255q-91 0 -164 24t-118 61.5t-73.5 86t-36.5 97t0 94.5h233q-7 -75 34.5 -123.5t132.5 -48.5q166 0 197 172h231q-18 -165 -133 -264.5t-303 -98.5zM738 1139q235 0 376 -136t141 -362q0 -141 -49.5 -264.5t-135 -212t-205.5 -139.5t-256 -51q-235 0 -377.5 136
t-142.5 361q0 188 84.5 341t233.5 240t331 87zM623 246q108 0 186 115t78 273q0 111 -43 173t-121 62q-111 0 -189 -115.5t-78 -279.5q0 -107 44.5 -167.5t122.5 -60.5z" />
    <glyph glyph-name="Ohungarumlaut" unicode="&#x150;" horiz-adv-x="1638" 
d="M856 1596h-234l147 325h280zM1265 1596h-237l199 325h299zM779 -39q-147 0 -268.5 47.5t-203.5 130.5t-127 196.5t-45 245.5q0 196 61.5 365t167.5 286t252.5 183.5t313.5 66.5q149 0 271.5 -47.5t203 -130.5t124.5 -196.5t44 -245.5q0 -158 -39 -299t-111.5 -250
t-170 -188.5t-219 -121.5t-254.5 -42zM919 1169q-111 0 -205.5 -74.5t-149.5 -204t-55 -284.5q0 -152 76.5 -243.5t204.5 -91.5q170 0 290 163.5t120 401.5q0 152 -77 242.5t-204 90.5z" />
    <glyph glyph-name="ohungarumlaut" unicode="&#x151;" horiz-adv-x="1344" 
d="M419 1260l162 359h285l-213 -359h-234zM825 1260l219 359h306l-288 -359h-237zM738 1139q235 0 376 -136t141 -362q0 -141 -49.5 -264.5t-135 -212t-205.5 -139.5t-256 -51q-235 0 -377.5 136t-142.5 361q0 188 84.5 341t233.5 240t331 87zM623 246q108 0 186 115t78 273
q0 111 -43 173t-121 62q-111 0 -189 -115.5t-78 -279.5q0 -107 44.5 -167.5t122.5 -60.5z" />
    <glyph glyph-name="OE" unicode="&#x152;" horiz-adv-x="2305" 
d="M1138 0l19 87h-14q-51 -55 -150.5 -90.5t-206.5 -35.5q-287 0 -465.5 172t-178.5 448q0 193 60 360.5t165 286t252.5 186.5t317.5 68q149 0 267.5 -58t183.5 -161l19 1l38 179h904l-63 -295h-621l-61 -288h584l-58 -270h-583l-64 -295h622l-62 -295h-905zM1211 840
q0 153 -77.5 245.5t-206.5 92.5q-113 0 -209 -76.5t-151.5 -209t-55.5 -288.5q0 -154 77.5 -246.5t207.5 -92.5q114 0 209.5 76.5t150.5 209t55 289.5z" />
    <glyph glyph-name="oe" unicode="&#x153;" horiz-adv-x="2078" 
d="M1392 -26q-114 0 -212.5 46t-159.5 128h-19q-143 -174 -393 -174q-236 0 -377.5 135t-141.5 360q0 189 84 342.5t231.5 240.5t329.5 87q114 0 210 -46t154 -128h19q150 174 376 174q218 0 356.5 -132.5t138.5 -340.5q0 -83 -20 -187h-765q-1 -6 -1 -21q0 -106 57 -167.5
t155 -61.5q70 0 119.5 27.5t69.5 77.5h332q-40 -166 -187 -263t-356 -97zM1239 681h423q3 18 3 36q0 75 -50.5 122.5t-130.5 47.5q-87 0 -154 -56t-91 -150zM456 472q0 -106 44.5 -167t122.5 -61q108 0 186 115.5t78 274.5q0 111 -43 173t-121 62q-111 0 -189 -116t-78 -281
z" />
    <glyph glyph-name="Racute" unicode="&#x154;" horiz-adv-x="1459" 
d="M989 1597h-236l198 335h312zM52 0l307 1443h609q202 0 332.5 -118.5t130.5 -300.5q0 -158 -92 -291t-249 -191l194 -542h-394l-164 505h-199l-108 -505h-367zM668 1166l-87 -402h219q118 0 190 64t72 165q0 84 -51.5 128.5t-145.5 44.5h-197z" />
    <glyph glyph-name="racute" unicode="&#x155;" horiz-adv-x="969" 
d="M731 1259h-237l205 359h314zM12 0l238 1113h345l-32 -157h19q41 82 111 128t156 46q89 0 149 -27l-69 -308q-83 36 -184 36q-200 0 -250 -234l-128 -597h-355z" />
    <glyph glyph-name="Rcommaaccent" unicode="&#x156;" horiz-adv-x="1459" 
d="M52 0l307 1443h609q202 0 332.5 -118.5t130.5 -300.5q0 -158 -92 -291t-249 -191l194 -542h-394l-164 505h-199l-108 -505h-367zM668 1166l-87 -402h219q118 0 190 64t72 165q0 84 -51.5 128.5t-145.5 44.5h-197zM568 -494h-259l150 361h334z" />
    <glyph glyph-name="rcommaaccent" unicode="&#x157;" horiz-adv-x="969" 
d="M12 0l238 1113h345l-32 -157h19q41 82 111 128t156 46q89 0 149 -27l-69 -308q-83 36 -184 36q-200 0 -250 -234l-128 -597h-355zM121 -494h-258l149 361h335z" />
    <glyph glyph-name="Rcaron" unicode="&#x158;" horiz-adv-x="1459" 
d="M715 1596l-188 349h284l84 -194h19l168 194h307l-336 -349h-338zM52 0l307 1443h609q202 0 332.5 -118.5t130.5 -300.5q0 -158 -92 -291t-249 -191l194 -542h-394l-164 505h-199l-108 -505h-367zM668 1166l-87 -402h219q118 0 190 64t72 165q0 84 -51.5 128.5
t-145.5 44.5h-197z" />
    <glyph glyph-name="rcaron" unicode="&#x159;" horiz-adv-x="969" 
d="M465 1260l-194 359h284l88 -202h19l172 202h298l-329 -359h-338zM12 0l238 1113h345l-32 -157h19q41 82 111 128t156 46q89 0 149 -27l-69 -308q-83 36 -184 36q-200 0 -250 -234l-128 -597h-355z" />
    <glyph glyph-name="Sacute" unicode="&#x15a;" horiz-adv-x="1407" 
d="M952 1597h-237l199 335h312zM66 416h350q10 -78 84 -127.5t176 -49.5q108 0 175.5 45t67.5 117q0 54 -43 89t-149 67l-156 47q-167 50 -257 154t-90 250q0 205 170 339.5t429 134.5q254 0 411.5 -127.5t159.5 -331.5h-339q-7 79 -75.5 130.5t-169.5 51.5q-92 0 -155 -44
t-63 -110q0 -55 41.5 -94.5t132.5 -66.5l158 -46q187 -55 273 -149t86 -244q0 -222 -173.5 -356t-458.5 -134q-261 0 -421 122.5t-164 332.5z" />
    <glyph glyph-name="sacute" unicode="&#x15b;" horiz-adv-x="1201" 
d="M787 1259h-236l204 359h314zM167 768q0 168 133 269.5t352 101.5q215 0 346.5 -93.5t136.5 -248.5h-318q-8 46 -52.5 74t-111.5 28q-65 0 -106.5 -26.5t-41.5 -69.5q0 -31 24.5 -53t81.5 -42l197 -69q133 -46 193.5 -115t60.5 -174q0 -170 -138.5 -273t-367.5 -103
q-230 0 -372.5 98t-145.5 257h336q8 -51 57.5 -83.5t121.5 -32.5q73 0 115 26t42 71q0 30 -22.5 50.5t-79.5 40.5l-176 62q-135 47 -200 122t-65 183z" />
    <glyph glyph-name="Scircumflex" unicode="&#x15c;" horiz-adv-x="1407" 
d="M1091 1945l188 -349h-284l-84 195h-19l-168 -195h-307l336 349h338zM66 416h350q10 -78 84 -127.5t176 -49.5q108 0 175.5 45t67.5 117q0 54 -43 89t-149 67l-156 47q-167 50 -257 154t-90 250q0 205 170 339.5t429 134.5q254 0 411.5 -127.5t159.5 -331.5h-339
q-7 79 -75.5 130.5t-169.5 51.5q-92 0 -155 -44t-63 -110q0 -55 41.5 -94.5t132.5 -66.5l158 -46q187 -55 273 -149t86 -244q0 -222 -173.5 -356t-458.5 -134q-261 0 -421 122.5t-164 332.5z" />
    <glyph glyph-name="scircumflex" unicode="&#x15d;" horiz-adv-x="1201" 
d="M918 1619l194 -359h-284l-88 202h-19l-172 -202h-298l329 359h338zM167 768q0 168 133 269.5t352 101.5q215 0 346.5 -93.5t136.5 -248.5h-318q-8 46 -52.5 74t-111.5 28q-65 0 -106.5 -26.5t-41.5 -69.5q0 -31 24.5 -53t81.5 -42l197 -69q133 -46 193.5 -115t60.5 -174
q0 -170 -138.5 -273t-367.5 -103q-230 0 -372.5 98t-145.5 257h336q8 -51 57.5 -83.5t121.5 -32.5q73 0 115 26t42 71q0 30 -22.5 50.5t-79.5 40.5l-176 62q-135 47 -200 122t-65 183z" />
    <glyph glyph-name="Scedilla" unicode="&#x15e;" horiz-adv-x="1407" 
d="M66 416h350q10 -78 84 -127.5t176 -49.5q108 0 175.5 45t67.5 117q0 54 -43 89t-149 67l-156 47q-167 50 -257 154t-90 250q0 205 170 339.5t429 134.5q254 0 411.5 -127.5t159.5 -331.5h-339q-7 79 -75.5 130.5t-169.5 51.5q-92 0 -155 -44t-63 -110q0 -55 41.5 -94.5
t132.5 -66.5l158 -46q187 -55 273 -149t86 -244q0 -200 -143 -330t-385 -154l-68 -87q54 -9 97.5 -52.5t43.5 -116.5q0 -95 -80 -149t-214 -54q-88 0 -156 21l31 143q54 -14 96 -14q45 0 78 12.5t33 40.5q0 51 -107 51h-53l26 120l66 85q-218 24 -348 142.5t-134 306.5z" />
    <glyph glyph-name="scedilla" unicode="&#x15f;" horiz-adv-x="1201" 
d="M251 -471l31 143q54 -14 97 -14q45 0 77.5 12.5t32.5 40.5q0 51 -107 51h-53l26 120l79 100q-179 25 -286 117.5t-110 229.5h336q8 -51 57.5 -83.5t121.5 -32.5q73 0 115 26t42 71q0 30 -22.5 50.5t-79.5 40.5l-176 62q-135 47 -200 122t-65 183q0 168 133 269.5
t352 101.5q215 0 346.5 -93.5t136.5 -248.5h-318q-8 46 -52.5 74t-111.5 28q-65 0 -106.5 -26.5t-41.5 -69.5q0 -31 24.5 -53t81.5 -42l197 -69q133 -46 193.5 -115t60.5 -174q0 -154 -115 -254t-310 -118l-77 -98q54 -9 97.5 -52.5t43.5 -116.5q0 -95 -80 -149t-214 -54
q-88 0 -156 21z" />
    <glyph glyph-name="Scaron" unicode="&#x160;" horiz-adv-x="1407" 
d="M678 1596l-188 349h283l85 -194h19l167 194h308l-336 -349h-338zM66 416h350q10 -78 84 -127.5t176 -49.5q108 0 175.5 45t67.5 117q0 54 -43 89t-149 67l-156 47q-167 50 -257 154t-90 250q0 205 170 339.5t429 134.5q254 0 411.5 -127.5t159.5 -331.5h-339
q-7 79 -75.5 130.5t-169.5 51.5q-92 0 -155 -44t-63 -110q0 -55 41.5 -94.5t132.5 -66.5l158 -46q187 -55 273 -149t86 -244q0 -222 -173.5 -356t-458.5 -134q-261 0 -421 122.5t-164 332.5z" />
    <glyph glyph-name="scaron" unicode="&#x161;" horiz-adv-x="1201" 
d="M521 1260l-194 359h284l88 -202h19l172 202h299l-330 -359h-338zM167 768q0 168 133 269.5t352 101.5q215 0 346.5 -93.5t136.5 -248.5h-318q-8 46 -52.5 74t-111.5 28q-65 0 -106.5 -26.5t-41.5 -69.5q0 -31 24.5 -53t81.5 -42l197 -69q133 -46 193.5 -115t60.5 -174
q0 -170 -138.5 -273t-367.5 -103q-230 0 -372.5 98t-145.5 257h336q8 -51 57.5 -83.5t121.5 -32.5q73 0 115 26t42 71q0 30 -22.5 50.5t-79.5 40.5l-176 62q-135 47 -200 122t-65 183z" />
    <glyph glyph-name="Tcedilla" unicode="&#x162;" horiz-adv-x="1380" 
d="M351 -471l31 143q54 -14 96 -14q45 0 78 12.5t33 40.5q0 51 -107 51h-53l26 120l92 118h-158l243 1148h-415l63 295h1198l-63 -295h-415l-244 -1148h-2l-94 -120q54 -9 97.5 -52.5t43.5 -116.5q0 -95 -80 -149t-214 -54q-88 0 -156 21z" />
    <glyph glyph-name="tcedilla" unicode="&#x163;" horiz-adv-x="900" 
d="M114 -471l31 143q54 -14 96 -14q45 0 78 12.5t33 40.5q0 51 -107 51h-53l26 120l113 144q-78 29 -120.5 83.5t-42.5 129.5q0 44 11 96l105 500h-175l58 263h173l58 270h355l-59 -270h231l-58 -263h-228l-94 -441q-6 -38 -6 -51q0 -90 115 -90q43 0 93 6l-53 -247
q-53 -14 -178 -14l-93 -118q54 -9 97.5 -52.5t43.5 -116.5q0 -95 -80 -149t-214 -54q-88 0 -156 21z" />
    <glyph glyph-name="Tcaron" unicode="&#x164;" horiz-adv-x="1380" 
d="M736 1596l-188 349h283l85 -194h19l168 194h307l-336 -349h-338zM756 0h-367l243 1148h-415l63 295h1198l-63 -295h-415z" />
    <glyph glyph-name="tcaron" unicode="&#x165;" horiz-adv-x="916" 
d="M925 1772h272l-183 -542h-205zM510 -2q-157 0 -249.5 64.5t-92.5 176.5q0 44 11 96l105 500h-175l58 263h173l58 270h355l-59 -270h231l-58 -263h-228l-94 -441q-6 -38 -6 -51q0 -90 115 -90q43 0 93 6l-53 -247q-53 -14 -184 -14z" />
    <glyph glyph-name="Tbar" unicode="&#x166;" horiz-adv-x="1380" 
d="M239 552l54 254h267l72 342h-415l63 295h1198l-63 -295h-415l-73 -342h266l-54 -254h-266l-117 -552h-367l117 552h-267z" />
    <glyph glyph-name="tbar" unicode="&#x167;" horiz-adv-x="900" 
d="M30 464l37 168h174l43 203h-175l58 263h173l58 270h355l-59 -270h231l-58 -263h-228l-43 -203h197l-37 -168h-196l-15 -70q-6 -38 -6 -51q0 -90 115 -90q43 0 93 6l-53 -247q-53 -14 -184 -14q-157 0 -249.5 64.5t-92.5 176.5q0 44 11 96l27 129h-176z" />
    <glyph glyph-name="Utilde" unicode="&#x168;" horiz-adv-x="1585" 
d="M615 1608q27 142 101.5 225.5t180.5 83.5q52 0 99.5 -23t75 -50t58.5 -50t56 -23q62 0 90 117h201q-26 -140 -100.5 -224.5t-180.5 -84.5q-52 0 -99 23t-75 50t-59.5 50t-56.5 23q-62 0 -89 -117h-202zM761 -39q-273 0 -435.5 133t-162.5 346q-1 56 13 125l186 878h368
l-185 -872q-10 -47 -10 -91q1 -96 66.5 -151.5t171.5 -55.5q108 0 180 64t97 185l195 921h368l-211 -1002q-48 -226 -218 -353t-423 -127z" />
    <glyph glyph-name="utilde" unicode="&#x169;" horiz-adv-x="1332" 
d="M420 1291q27 142 101.5 225.5t180.5 83.5q52 0 99 -23t75 -50t59 -50t56 -23q63 0 89 117h202q-26 -140 -100.5 -224.5t-180.5 -84.5q-43 0 -81.5 15t-66 36.5t-51.5 43t-47 36.5t-44 15q-61 0 -89 -117h-202zM1317 1113l-235 -1113h-344l37 175h-19q-112 -201 -325 -201
q-155 0 -250 88t-95 238q0 54 15 141l141 672h355l-131 -615q-7 -35 -7 -73q0 -161 155 -161q82 0 136.5 54.5t75.5 151.5l137 643h354z" />
    <glyph glyph-name="Umacron" unicode="&#x16a;" horiz-adv-x="1585" 
d="M1451 1854l-42 -197h-762l42 197h762zM761 -39q-273 0 -435.5 133t-162.5 346q-1 56 13 125l186 878h368l-185 -872q-10 -47 -10 -91q1 -96 66.5 -151.5t171.5 -55.5q108 0 180 64t97 185l195 921h368l-211 -1002q-48 -226 -218 -353t-423 -127z" />
    <glyph glyph-name="umacron" unicode="&#x16b;" horiz-adv-x="1332" 
d="M1256 1537l-42 -198h-762l41 198h763zM1317 1113l-235 -1113h-344l37 175h-19q-112 -201 -325 -201q-155 0 -250 88t-95 238q0 54 15 141l141 672h355l-131 -615q-7 -35 -7 -73q0 -161 155 -161q82 0 136.5 54.5t75.5 151.5l137 643h354z" />
    <glyph glyph-name="Ubreve" unicode="&#x16c;" horiz-adv-x="1585" 
d="M1054 1581q-103 0 -184 30.5t-128 81t-68 112.5t-13 127h232q-6 -74 39 -119.5t129 -45.5q162 0 195 165h232q-20 -160 -134.5 -255.5t-299.5 -95.5zM761 -39q-273 0 -435.5 133t-162.5 346q-1 56 13 125l186 878h368l-185 -872q-10 -47 -10 -91q1 -96 66.5 -151.5
t171.5 -55.5q108 0 180 64t97 185l195 921h368l-211 -1002q-48 -226 -218 -353t-423 -127z" />
    <glyph glyph-name="ubreve" unicode="&#x16d;" horiz-adv-x="1332" 
d="M862 1255q-91 0 -164 24t-118 61.5t-73.5 86t-36.5 97t0 94.5h232q-6 -75 35.5 -123.5t132.5 -48.5q166 0 197 172h231q-18 -165 -133 -264.5t-303 -98.5zM1317 1113l-235 -1113h-344l37 175h-19q-112 -201 -325 -201q-155 0 -250 88t-95 238q0 54 15 141l141 672h355
l-131 -615q-7 -35 -7 -73q0 -161 155 -161q82 0 136.5 54.5t75.5 151.5l137 643h354z" />
    <glyph glyph-name="Uring" unicode="&#x16e;" horiz-adv-x="1585" 
d="M1050 1529q-89 0 -153 61t-64 150t64 150.5t153 61.5t153.5 -61.5t64.5 -150.5t-64 -150t-154 -61zM1050 1657q36 0 61 23.5t25 59.5t-25 60t-61 24t-61 -24t-25 -60t25 -59.5t61 -23.5zM761 -39q-273 0 -435.5 133t-162.5 346q-1 56 13 125l186 878h368l-185 -872
q-10 -47 -10 -91q1 -96 66.5 -151.5t171.5 -55.5q108 0 180 64t97 185l195 921h368l-211 -1002q-48 -226 -218 -353t-423 -127z" />
    <glyph glyph-name="uring" unicode="&#x16f;" horiz-adv-x="1332" 
d="M868 1251q-104 0 -178 69t-74 174t74 174t178 69q103 0 177 -69t74 -174t-74 -174t-177 -69zM868 1397q40 0 69.5 28t29.5 69t-29.5 69t-69.5 28q-41 0 -70.5 -28t-29.5 -69t29.5 -69t70.5 -28zM1317 1113l-235 -1113h-344l37 175h-19q-112 -201 -325 -201
q-155 0 -250 88t-95 238q0 54 15 141l141 672h355l-131 -615q-7 -35 -7 -73q0 -161 155 -161q82 0 136.5 54.5t75.5 151.5l137 643h354z" />
    <glyph glyph-name="Uhungarumlaut" unicode="&#x170;" horiz-adv-x="1585" 
d="M906 1596h-234l146 326h280zM1314 1596h-237l199 326h299zM761 -39q-273 0 -435.5 133t-162.5 346q-1 56 13 125l186 878h368l-185 -872q-10 -47 -10 -91q1 -96 66.5 -151.5t171.5 -55.5q108 0 180 64t97 185l195 921h368l-211 -1002q-48 -226 -218 -353t-423 -127z" />
    <glyph glyph-name="uhungarumlaut" unicode="&#x171;" horiz-adv-x="1332" 
d="M470 1260l162 359h285l-213 -359h-234zM875 1260l220 359h306l-288 -359h-238zM1317 1113l-235 -1113h-344l37 175h-19q-112 -201 -325 -201q-155 0 -250 88t-95 238q0 54 15 141l141 672h355l-131 -615q-7 -35 -7 -73q0 -161 155 -161q82 0 136.5 54.5t75.5 151.5
l137 643h354z" />
    <glyph glyph-name="Uogonek" unicode="&#x172;" horiz-adv-x="1585" 
d="M1045 -465q-38 -14 -110 -14q-137 0 -220 61t-83 159q0 66 46 123t115 82l5 20q-18 -5 -37 -5q-273 0 -435.5 133t-162.5 346q0 63 13 125l186 878h368l-185 -872q-10 -46 -10 -88q0 -98 65.5 -154t172.5 -56q108 0 180 64t97 185l195 921h368l-211 -1002
q-30 -140 -111 -244.5t-202 -166.5q-86 -43 -138 -102t-52 -121q0 -45 35.5 -71t96.5 -26q36 0 52 4z" />
    <glyph glyph-name="uogonek" unicode="&#x173;" horiz-adv-x="1332" 
d="M956 -465q-38 -14 -110 -14q-137 0 -220 60.5t-83 159.5q0 79 54 146t138 101l40 187h-19q-112 -201 -325 -201q-155 0 -250 88t-95 238q0 54 15 141l141 672h355l-131 -615q-7 -35 -7 -73q0 -161 155 -161q82 0 136.5 54.5t75.5 151.5l137 643h354l-236 -1115l-15 -1
q-106 -8 -181 -63.5t-75 -126.5q0 -45 35.5 -71t96.5 -26q36 0 52 4z" />
    <glyph glyph-name="Wcircumflex" unicode="&#x174;" horiz-adv-x="2112" 
d="M1514 1945l188 -349h-284l-84 195h-19l-168 -195h-307l336 349h338zM1109 884l-422 -884h-341l-71 1443h375l-6 -957h18l435 957h288l41 -957h18l394 957h377l-682 -1443h-351l-55 884h-18z" />
    <glyph glyph-name="wcircumflex" unicode="&#x175;" horiz-adv-x="1814" 
d="M1300 1619l194 -359h-284l-88 202h-19l-172 -202h-299l330 359h338zM1875 1113l-524 -1113h-385l-16 732h-19l-327 -732h-374l-54 1113h350l-18 -761h19l326 761h340l8 -763h19l301 763h354z" />
    <glyph glyph-name="Ycircumflex" unicode="&#x176;" horiz-adv-x="1507" 
d="M1208 1945l188 -349h-283l-84 195h-19l-168 -195h-307l335 349h338zM820 0h-367l105 496l-296 947h383l159 -591h19l405 591h395l-699 -953z" />
    <glyph glyph-name="ycircumflex" unicode="&#x177;" horiz-adv-x="1258" 
d="M1019 1619l195 -359h-285l-87 202h-20l-171 -202h-299l329 359h338zM82 -407q-129 0 -141 3l57 268q12 -3 70 -3q175 0 215 99l12 33l-127 1120h363l30 -809h19l370 809h377l-600 -1123q-114 -215 -263 -306t-382 -91z" />
    <glyph glyph-name="Ydieresis" unicode="&#x178;" horiz-adv-x="1507" 
d="M753 1589q-72 0 -123 49.5t-51 120.5q0 72 51 122t123 50t123 -50t51 -122q0 -71 -51 -120.5t-123 -49.5zM1259 1589q-72 0 -123.5 49.5t-51.5 120.5q0 72 51.5 122t123.5 50t123 -50t51 -122q0 -71 -51 -120.5t-123 -49.5zM820 0h-367l105 496l-296 947h383l159 -591h19
l405 591h395l-699 -953z" />
    <glyph glyph-name="Zacute" unicode="&#x179;" horiz-adv-x="1399" 
d="M1011 1597h-237l198 335h313zM13 0l50 233l845 896l1 19h-642l63 295h1105l-49 -233l-845 -896v-19h672l-62 -295h-1138z" />
    <glyph glyph-name="zacute" unicode="&#x17a;" horiz-adv-x="1190" 
d="M856 1259h-236l204 359h314zM-6 0l40 189l649 639l1 19h-499l58 266h936l-47 -217l-596 -611l-1 -19h481l-57 -266h-965z" />
    <glyph glyph-name="Zdotaccent" unicode="&#x17b;" horiz-adv-x="1399" 
d="M947 1579q-77 0 -132.5 54t-55.5 130q0 78 55 131.5t133 53.5t133 -53.5t55 -131.5q0 -76 -55 -130t-133 -54zM13 0l50 233l845 896l1 19h-642l63 295h1105l-49 -233l-845 -896v-19h672l-62 -295h-1138z" />
    <glyph glyph-name="zdotaccent" unicode="&#x17c;" horiz-adv-x="1190" 
d="M780 1262q-77 0 -132.5 53.5t-55.5 130.5t55.5 131t132.5 54q78 0 133 -54t55 -131t-55 -130.5t-133 -53.5zM-6 0l40 189l649 639l1 19h-499l58 266h936l-47 -217l-596 -611l-1 -19h481l-57 -266h-965z" />
    <glyph glyph-name="Zcaron" unicode="&#x17d;" horiz-adv-x="1399" 
d="M737 1596l-188 349h283l85 -194h19l167 194h308l-336 -349h-338zM13 0l50 233l845 896l1 19h-642l63 295h1105l-49 -233l-845 -896v-19h672l-62 -295h-1138z" />
    <glyph glyph-name="zcaron" unicode="&#x17e;" horiz-adv-x="1190" 
d="M590 1260l-194 359h284l88 -202h19l172 202h299l-330 -359h-338zM-6 0l40 189l649 639l1 19h-499l58 266h936l-47 -217l-596 -611l-1 -19h481l-57 -266h-965z" />
    <glyph glyph-name="longs" unicode="&#x17f;" horiz-adv-x="748" 
d="M-55 -368l323 1533q42 198 143.5 277.5t287.5 79.5q133 0 220 -26l-50 -228q-35 11 -109 11q-57 0 -92 -31.5t-50 -102.5l-318 -1513h-355z" />
    <glyph glyph-name="Ereversed" unicode="&#x18e;" horiz-adv-x="1302" 
d="M88 295h621l62 295h-584l57 270h584l62 288h-621l62 295h988l-306 -1443h-989z" />
    <glyph glyph-name="uni04D8" unicode="&#x4d8;" horiz-adv-x="1590" 
d="M759 -39q-281 0 -450 164t-169 438q0 136 25 242h976q4 38 4 67q0 133 -71.5 218t-217.5 85q-107 0 -183 -46.5t-112 -125.5h-357q57 210 237.5 344.5t436.5 134.5q306 0 472.5 -173.5t166.5 -483.5q0 -243 -96.5 -440t-270.5 -310.5t-391 -113.5zM767 273
q132 0 214.5 74.5t111.5 203.5h-589q-3 -10 -3 -31q0 -115 71 -181t195 -66z" />
    <glyph glyph-name="uni04D8" unicode="&#x18f;" horiz-adv-x="1590" 
d="M759 -39q-281 0 -450 164t-169 438q0 136 25 242h976q4 38 4 67q0 133 -71.5 218t-217.5 85q-107 0 -183 -46.5t-112 -125.5h-357q57 210 237.5 344.5t436.5 134.5q306 0 472.5 -173.5t166.5 -483.5q0 -243 -96.5 -440t-270.5 -310.5t-391 -113.5zM767 273
q132 0 214.5 74.5t111.5 203.5h-589q-3 -10 -3 -31q0 -115 71 -181t195 -66z" />
    <glyph glyph-name="florin" unicode="&#x192;" horiz-adv-x="1461" 
d="M294 833h335l78 206q79 210 215.5 299t347.5 89q63 0 131 -12t96 -25l-60 -259q-58 27 -147 27q-93 0 -154 -44t-95 -138l-54 -143h329l-36 -172h-358l-109 -289q-81 -213 -216.5 -302t-346.5 -89q-62 0 -129.5 12.5t-97.5 26.5l60 262q58 -31 149 -31t151 45t97 141
l84 224h-306z" />
    <glyph glyph-name="Ohorn" unicode="&#x1a0;" horiz-adv-x="1664" 
d="M1573 862q0 -158 -39 -299t-111.5 -250t-170 -188.5t-219 -121.5t-254.5 -42q-147 0 -268.5 47.5t-203.5 130.5t-127 196.5t-45 245.5q0 196 61.5 365t167.5 286t252.5 183.5t313.5 66.5q105 0 238 -24t209 -24q121 0 140 85l40 171h269l-53 -243q-24 -111 -97.5 -171
t-185.5 -60q-21 0 -43 8l-9 -16q62 -54 98.5 -146t36.5 -200zM1200 836q0 152 -77 242.5t-204 90.5q-111 0 -205.5 -74.5t-149.5 -204t-55 -284.5q0 -152 76.5 -243.5t204.5 -91.5q170 0 290 163.5t120 401.5z" />
    <glyph glyph-name="ohorn" unicode="&#x1a1;" horiz-adv-x="1438" 
d="M1255 641q0 -141 -49.5 -264.5t-135 -212t-205.5 -139.5t-256 -51q-235 0 -377.5 136t-142.5 361q0 188 84.5 341t233.5 240t331 87q58 0 169.5 -17.5t168.5 -17.5q70 0 98.5 18.5t40.5 67.5l41 173h270l-60 -273q-39 -189 -244 -189q-21 0 -45 12l-9 -14q41 -43 64 -113
t23 -145zM456 474q0 -107 44.5 -167.5t122.5 -60.5q108 0 186 115t78 273q0 111 -43 173t-121 62q-111 0 -189 -115.5t-78 -279.5z" />
    <glyph glyph-name="Uhorn" unicode="&#x1af;" horiz-adv-x="1799" 
d="M761 -39q-273 0 -435.5 133t-162.5 346q0 63 13 125l186 878h368l-185 -872q-10 -47 -10 -91q0 -95 65.5 -151t172.5 -56q108 0 180 64t97 185l195 921h365q76 0 93 73l40 174h270l-54 -246q-23 -109 -96 -168.5t-184 -59.5h-114l-163 -775q-48 -226 -218 -353t-423 -127
z" />
    <glyph glyph-name="uhorn" unicode="&#x1b0;" horiz-adv-x="1582" 
d="M756 175q-112 -201 -325 -201q-155 0 -250 88t-95 238q0 54 15 141l141 672h355l-131 -615q-7 -35 -7 -73q0 -161 155 -161q82 0 136.5 54.5t75.5 151.5l138 643h346q76 0 93 71l41 179h270l-55 -251q-24 -109 -96.5 -168t-183.5 -59h-111l-186 -885h-344l37 175h-19z
" />
    <glyph glyph-name="uni01C4" unicode="&#x1c4;" horiz-adv-x="2960" 
d="M2298 1596l-188 349h283l84 -194h19l168 194h307l-335 -349h-338zM359 1443h569q264 0 417.5 -151t153.5 -419q0 -251 -95.5 -450t-268.5 -311t-394 -112h-689zM1574 0l50 233l845 896v19h-641l63 295h1105l-50 -233l-844 -896v-19h672l-62 -295h-1138zM666 1149
l-181 -855h211q188 0 307 146.5t119 389.5q0 147 -77 233t-213 86h-166z" />
    <glyph glyph-name="uni01C5" unicode="&#x1c5;" horiz-adv-x="2750" 
d="M2151 1260l-194 359h284l88 -202h19l172 202h299l-330 -359h-338zM359 1443h569q264 0 417.5 -151t153.5 -419q0 -251 -95.5 -450t-268.5 -311t-394 -112h-689zM666 1149l-181 -855h211q188 0 307 146.5t119 389.5q0 147 -77 233t-213 86h-166zM1555 0l40 189l649 639
l1 19h-499l57 266h936l-46 -217l-596 -611l-1 -19h481l-57 -266h-965z" />
    <glyph glyph-name="uni01C6" unicode="&#x1c6;" horiz-adv-x="2572" 
d="M1973 1260l-194 359h284l88 -202h19l172 202h299l-330 -359h-338zM458 -17q-169 0 -273 114.5t-104 313.5q0 154 43.5 288.5t118 228.5t178 148t220.5 54q120 0 200.5 -56t107.5 -145h20l127 601h355l-326 -1530h-344l33 155h-19q-125 -172 -337 -172zM1376 0l40 189
l650 639v19h-498l57 266h936l-46 -217l-596 -611l-1 -19h481l-57 -266h-966zM628 257q112 0 192.5 113t80.5 266q0 101 -51 156t-130 55q-113 0 -192.5 -108t-79.5 -268q0 -101 51 -157.5t129 -56.5z" />
    <glyph glyph-name="uni01C7" unicode="&#x1c7;" horiz-adv-x="2543" 
d="M1096 303l-64 -303h-980l307 1443h367l-243 -1140h613zM1291 400q0 29 2 43h351v-13q1 -70 43.5 -112t114.5 -42q145 0 184 186l209 981h366l-218 -1027q-47 -221 -187 -338t-362 -117q-229 0 -367.5 121t-135.5 318z" />
    <glyph glyph-name="uni01C8" unicode="&#x1c8;" horiz-adv-x="1890" 
d="M1757 1262q-78 0 -133 53.5t-55 130.5t55 131t133 54t133 -54t55 -131t-55 -130.5t-133 -53.5zM1096 303l-64 -303h-980l307 1443h367l-243 -1140h613zM1864 1113l-246 -1161q-35 -164 -147 -247t-288 -83q-89 0 -166 15l56 255q26 -7 69 -7q107 0 129 103l240 1125h353z
" />
    <glyph glyph-name="uni01C9" unicode="&#x1c9;" horiz-adv-x="1276" 
d="M1143 1262q-78 0 -133 53.5t-55 130.5t55 131t133 54t133 -54t55 -131t-55 -130.5t-133 -53.5zM21 0l326 1530h355l-326 -1530h-355zM1251 1113l-247 -1161q-35 -164 -147 -247t-288 -83q-87 0 -166 15l56 255q26 -7 69 -7q108 0 130 103l239 1125h354z" />
    <glyph glyph-name="uni01CA" unicode="&#x1ca;" horiz-adv-x="2896" 
d="M404 0h-352l307 1443h260l449 -842h19l180 842h352l-307 -1443h-256l-456 834h-19zM1644 400q0 29 2 43h351v-13q1 -70 43 -112t114 -42q146 0 185 186l209 981h366l-218 -1027q-47 -221 -187 -338t-362 -117q-229 0 -367.5 121t-135.5 318z" />
    <glyph glyph-name="uni01CB" unicode="&#x1cb;" horiz-adv-x="2243" 
d="M2110 1262q-78 0 -133 53.5t-55 130.5t55 131t133 54t133 -54t55 -131t-55 -130.5t-133 -53.5zM404 0h-352l307 1443h260l449 -842h19l180 842h352l-307 -1443h-256l-456 834h-19zM2217 1113l-246 -1161q-35 -164 -147 -247t-289 -83q-87 0 -166 15l57 255q26 -7 69 -7
q107 0 129 103l240 1125h353z" />
    <glyph glyph-name="uni01CC" unicode="&#x1cc;" horiz-adv-x="1974" 
d="M1840 1262q-77 0 -132.5 53.5t-55.5 130.5t55.5 131t132.5 54q78 0 133 -54t55 -131t-55 -130.5t-133 -53.5zM14 0l239 1113h343l-39 -181h19q56 93 143.5 145.5t200.5 52.5q150 0 239 -90t89 -232q0 -62 -15 -134l-143 -674h-353l132 619q9 37 9 76q0 68 -41.5 111.5
t-114.5 43.5q-81 0 -138.5 -56.5t-76.5 -146.5l-140 -647h-353zM1948 1113l-247 -1161q-34 -164 -146.5 -247t-288.5 -83q-87 0 -166 15l57 255q25 -7 68 -7q108 0 130 103l239 1125h354z" />
    <glyph glyph-name="Acaron" unicode="&#x1cd;" horiz-adv-x="1564" 
d="M840 1596l-188 349h284l84 -194h19l168 194h307l-336 -349h-338zM990 0l-22 317h-473l-162 -317h-379l807 1443h445l167 -1443h-383zM898 1117l-274 -536h333l-39 536h-20z" />
    <glyph glyph-name="acaron" unicode="&#x1ce;" horiz-adv-x="1241" 
d="M573 1260l-194 359h285l87 -202h19l172 202h299l-330 -359h-338zM363 -17q-140 0 -233.5 86.5t-93.5 216.5q0 171 134 271.5t370 107.5l258 7l14 67q4 24 4 35q0 48 -42.5 76.5t-113.5 28.5q-126 0 -167 -83h-324q35 157 174.5 250t341.5 93q214 0 346 -92t132 -242
q0 -47 -9 -90l-153 -715h-343l28 134h-19q-43 -69 -126 -110t-178 -41zM522 229q78 0 139 45.5t76 113.5l18 83l-197 -6q-83 -3 -131 -37.5t-48 -90.5q0 -48 40 -78t103 -30z" />
    <glyph glyph-name="Icaron" unicode="&#x1cf;" horiz-adv-x="707" 
d="M400 1596l-188 349h283l84 -194h19l168 194h307l-335 -349h-338zM419 0h-367l307 1443h367z" />
    <glyph glyph-name="icaron" unicode="&#x1d0;" horiz-adv-x="643" 
d="M320 1260l-194 359h284l88 -202h19l172 202h298l-329 -359h-338zM26 0l237 1113h354l-237 -1113h-354z" />
    <glyph glyph-name="Ocaron" unicode="&#x1d1;" horiz-adv-x="1638" 
d="M791 1596l-188 348h284l84 -194h19l168 194h307l-336 -348h-338zM779 -39q-147 0 -268.5 47.5t-203.5 130.5t-127 196.5t-45 245.5q0 196 61.5 365t167.5 286t252.5 183.5t313.5 66.5q149 0 271.5 -47.5t203 -130.5t124.5 -196.5t44 -245.5q0 -158 -39 -299t-111.5 -250
t-170 -188.5t-219 -121.5t-254.5 -42zM919 1169q-111 0 -205.5 -74.5t-149.5 -204t-55 -284.5q0 -152 76.5 -243.5t204.5 -91.5q170 0 290 163.5t120 401.5q0 152 -77 242.5t-204 90.5z" />
    <glyph glyph-name="ocaron" unicode="&#x1d2;" horiz-adv-x="1344" 
d="M615 1260l-194 359h284l88 -202h19l172 202h298l-329 -359h-338zM738 1139q235 0 376 -136t141 -362q0 -141 -49.5 -264.5t-135 -212t-205.5 -139.5t-256 -51q-235 0 -377.5 136t-142.5 361q0 188 84.5 341t233.5 240t331 87zM623 246q108 0 186 115t78 273
q0 111 -43 173t-121 62q-111 0 -189 -115.5t-78 -279.5q0 -107 44.5 -167.5t122.5 -60.5z" />
    <glyph glyph-name="Ucaron" unicode="&#x1d3;" horiz-adv-x="1585" 
d="M841 1596l-188 349h283l84 -194h19l168 194h307l-335 -349h-338zM761 -39q-273 0 -435.5 133t-162.5 346q-1 56 13 125l186 878h368l-185 -872q-10 -47 -10 -91q1 -96 66.5 -151.5t171.5 -55.5q108 0 180 64t97 185l195 921h368l-211 -1002q-48 -226 -218 -353t-423 -127
z" />
    <glyph glyph-name="ucaron" unicode="&#x1d4;" horiz-adv-x="1332" 
d="M666 1260l-195 359h285l87 -202h20l171 202h299l-329 -359h-338zM1317 1113l-235 -1113h-344l37 175h-19q-112 -201 -325 -201q-155 0 -250 88t-95 238q0 54 15 141l141 672h355l-131 -615q-7 -35 -7 -73q0 -161 155 -161q82 0 136.5 54.5t75.5 151.5l137 643h354z" />
    <glyph glyph-name="Udieresismacron" unicode="&#x1d5;" horiz-adv-x="1585" 
d="M1537 2204l-39 -183h-783l40 183h782zM797 1907q76 0 124 -45.5t48 -117.5t-48 -117.5t-124 -45.5t-124 45.5t-48 117.5t48 117.5t124 45.5zM1299 1907q76 0 124.5 -45.5t48.5 -117.5t-48.5 -117.5t-124.5 -45.5t-124 45.5t-48 117.5t48 117.5t124 45.5zM761 -39
q-273 0 -435.5 133t-162.5 346q-1 56 13 125l186 878h368l-185 -872q-10 -47 -10 -91q1 -96 66.5 -151.5t171.5 -55.5q108 0 180 64t97 185l195 921h368l-211 -1002q-48 -226 -218 -353t-423 -127z" />
    <glyph glyph-name="udieresismacron" unicode="&#x1d6;" horiz-adv-x="1332" 
d="M1335 1909l-42 -198h-762l42 198h762zM618 1260q-72 0 -117 44.5t-45 110.5q0 68 45 112.5t117 44.5q71 0 115.5 -44.5t44.5 -112.5q0 -66 -44.5 -110.5t-115.5 -44.5zM1080 1260q-72 0 -116.5 44.5t-44.5 110.5q0 68 44.5 112.5t116.5 44.5q71 0 116.5 -44.5
t45.5 -112.5q0 -66 -45.5 -110.5t-116.5 -44.5zM1317 1113l-235 -1113h-344l37 175h-19q-112 -201 -325 -201q-155 0 -250 88t-95 238q0 54 15 141l141 672h355l-131 -615q-7 -35 -7 -73q0 -161 155 -161q82 0 136.5 54.5t75.5 151.5l137 643h354z" />
    <glyph glyph-name="Udieresisacute" unicode="&#x1d7;" horiz-adv-x="1585" 
d="M917 1962l246 250h337l-293 -250h-290zM799 1581q-76 0 -125 46t-49 118t49 118t125 46t124.5 -46t48.5 -118t-48.5 -118t-124.5 -46zM1300 1581q-76 0 -124.5 46t-48.5 118t48.5 118t124.5 46t125 -46t49 -118t-49 -118t-125 -46zM761 -39q-273 0 -435.5 133t-162.5 346
q-1 56 13 125l186 878h368l-185 -872q-10 -47 -10 -91q1 -96 66.5 -151.5t171.5 -55.5q108 0 180 64t97 185l195 921h368l-211 -1002q-48 -226 -218 -353t-423 -127z" />
    <glyph glyph-name="udieresisacute" unicode="&#x1d8;" horiz-adv-x="1332" 
d="M717 1689l268 303h324l-307 -303h-285zM602 1281q-72 0 -123 49.5t-51 120.5q0 72 51 121.5t123 49.5q73 0 124 -49.5t51 -121.5t-51 -121t-124 -49zM1108 1281q-72 0 -123 49t-51 121t51 121.5t123 49.5q73 0 123.5 -49.5t50.5 -121.5t-50.5 -121t-123.5 -49zM1317 1113
l-235 -1113h-344l37 175h-19q-112 -201 -325 -201q-155 0 -250 88t-95 238q0 54 15 141l141 672h355l-131 -615q-7 -35 -7 -73q0 -161 155 -161q82 0 136.5 54.5t75.5 151.5l137 643h354z" />
    <glyph glyph-name="Udieresiscaron" unicode="&#x1d9;" horiz-adv-x="1585" 
d="M929 1929l-203 326h290l92 -181h19l168 181h317l-345 -326h-338zM790 1870q75 0 122.5 -44t47.5 -111q0 -68 -47.5 -111.5t-122.5 -43.5t-122 43.5t-47 111.5q0 67 47.5 111t121.5 44zM1292 1870q75 0 122.5 -44t47.5 -111q0 -68 -47.5 -111.5t-122.5 -43.5t-122 43.5
t-47 111.5q0 67 47 111t122 44zM761 -39q-273 0 -435.5 133t-162.5 346q-1 56 13 125l186 878h368l-185 -872q-10 -47 -10 -91q1 -96 66.5 -151.5t171.5 -55.5q108 0 180 64t97 185l195 921h368l-211 -1002q-48 -226 -218 -353t-423 -127z" />
    <glyph glyph-name="udieresiscaron" unicode="&#x1da;" horiz-adv-x="1332" 
d="M729 1640l-192 354h283l88 -197h19l171 197h312l-343 -354h-338zM619 1260q-71 0 -116.5 44.5t-45.5 110.5q0 68 45.5 112.5t116.5 44.5q72 0 116.5 -44.5t44.5 -112.5q0 -66 -44.5 -110.5t-116.5 -44.5zM1081 1260q-71 0 -115.5 44.5t-44.5 110.5q0 68 44.5 112.5
t115.5 44.5q72 0 117 -44.5t45 -112.5q0 -66 -45 -110.5t-117 -44.5zM1317 1113l-235 -1113h-344l37 175h-19q-112 -201 -325 -201q-155 0 -250 88t-95 238q0 54 15 141l141 672h355l-131 -615q-7 -35 -7 -73q0 -161 155 -161q82 0 136.5 54.5t75.5 151.5l137 643h354z" />
    <glyph glyph-name="Udieresisgrave" unicode="&#x1db;" horiz-adv-x="1585" 
d="M1214 1962h-285l-148 250h322zM799 1581q-76 0 -125 46t-49 118t49 118t125 46t124.5 -46t48.5 -118t-48.5 -118t-124.5 -46zM1300 1581q-76 0 -124.5 46t-48.5 118t48.5 118t124.5 46t125 -46t49 -118t-49 -118t-125 -46zM761 -39q-273 0 -435.5 133t-162.5 346
q-1 56 13 125l186 878h368l-185 -872q-10 -47 -10 -91q1 -96 66.5 -151.5t171.5 -55.5q108 0 180 64t97 185l195 921h368l-211 -1002q-48 -226 -218 -353t-423 -127z" />
    <glyph glyph-name="udieresisgrave" unicode="&#x1dc;" horiz-adv-x="1332" 
d="M1025 1689h-277l-186 303h324zM602 1281q-72 0 -123 49.5t-51 120.5q0 72 51 121.5t123 49.5q73 0 124 -49.5t51 -121.5t-51 -121t-124 -49zM1108 1281q-72 0 -123 49t-51 121t51 121.5t123 49.5q73 0 123.5 -49.5t50.5 -121.5t-50.5 -121t-123.5 -49zM1317 1113
l-235 -1113h-344l37 175h-19q-112 -201 -325 -201q-155 0 -250 88t-95 238q0 54 15 141l141 672h355l-131 -615q-7 -35 -7 -73q0 -161 155 -161q82 0 136.5 54.5t75.5 151.5l137 643h354z" />
    <glyph glyph-name="uni04D9" unicode="&#x4d9;" horiz-adv-x="1298" 
d="M475 778h-330q45 166 188.5 263.5t349.5 97.5q243 0 381.5 -134t138.5 -374q0 -189 -77 -338.5t-216 -234t-316 -84.5q-234 0 -368 127.5t-134 346.5q0 88 21 188h765q2 16 2 32q0 98 -58 157t-161 59q-68 0 -118 -29t-68 -77zM597 226q98 0 163 58.5t83 150.5h-426
q-4 -20 -4 -33q0 -78 51 -127t133 -49z" />
    <glyph glyph-name="uni04D9" unicode="&#x259;" horiz-adv-x="1298" 
d="M475 778h-330q45 166 188.5 263.5t349.5 97.5q243 0 381.5 -134t138.5 -374q0 -189 -77 -338.5t-216 -234t-316 -84.5q-234 0 -368 127.5t-134 346.5q0 88 21 188h765q2 16 2 32q0 98 -58 157t-161 59q-68 0 -118 -29t-68 -77zM597 226q98 0 163 58.5t83 150.5h-426
q-4 -20 -4 -33q0 -78 51 -127t133 -49z" />
    <glyph glyph-name="uni04D9" unicode="&#x1dd;" horiz-adv-x="1298" 
d="M475 778h-330q45 166 188.5 263.5t349.5 97.5q243 0 381.5 -134t138.5 -374q0 -189 -77 -338.5t-216 -234t-316 -84.5q-234 0 -368 127.5t-134 346.5q0 88 21 188h765q2 16 2 32q0 98 -58 157t-161 59q-68 0 -118 -29t-68 -77zM597 226q98 0 163 58.5t83 150.5h-426
q-4 -20 -4 -33q0 -78 51 -127t133 -49z" />
    <glyph glyph-name="Adieresismacron" unicode="&#x1de;" horiz-adv-x="1564" 
d="M1537 2204l-39 -183h-783l40 183h782zM797 1907q76 0 124 -45.5t48 -117.5t-48 -117.5t-124 -45.5t-124.5 45.5t-48.5 117.5t48.5 117.5t124.5 45.5zM1299 1907q76 0 124.5 -45.5t48.5 -117.5t-48.5 -117.5t-124.5 -45.5t-124 45.5t-48 117.5t48 117.5t124 45.5zM990 0
l-22 317h-473l-162 -317h-379l807 1443h445l167 -1443h-383zM898 1117l-274 -536h333l-39 536h-20z" />
    <glyph glyph-name="adieresismacron" unicode="&#x1df;" horiz-adv-x="1241" 
d="M1243 1909l-42 -198h-762l42 198h762zM526 1260q-72 0 -117.5 44.5t-45.5 110.5q0 68 45.5 112.5t117.5 44.5q71 0 115.5 -44.5t44.5 -112.5q0 -66 -44.5 -110.5t-115.5 -44.5zM988 1260q-72 0 -116.5 44.5t-44.5 110.5q0 68 44.5 112.5t116.5 44.5q71 0 116.5 -44.5
t45.5 -112.5q0 -66 -45.5 -110.5t-116.5 -44.5zM363 -17q-140 0 -233.5 86.5t-93.5 216.5q0 171 134 271.5t370 107.5l258 7l14 67q4 24 4 35q0 48 -42.5 76.5t-113.5 28.5q-126 0 -167 -83h-324q35 157 174.5 250t341.5 93q214 0 346 -92t132 -242q0 -47 -9 -90l-153 -715
h-343l28 134h-19q-43 -69 -126 -110t-178 -41zM522 229q78 0 139 45.5t76 113.5l18 83l-197 -6q-83 -3 -131 -37.5t-48 -90.5q0 -48 40 -78t103 -30z" />
    <glyph glyph-name="Adotmacron" unicode="&#x1e0;" horiz-adv-x="1564" 
d="M1537 2204l-39 -183h-782l39 183h782zM1047 1575q-77 0 -126 45.5t-49 115.5t49 115t126 45q78 0 127 -45.5t49 -114.5q0 -70 -49 -115.5t-127 -45.5zM990 0l-22 317h-473l-162 -317h-379l807 1443h445l167 -1443h-383zM898 1117l-274 -536h333l-39 536h-20z" />
    <glyph glyph-name="adotmacron" unicode="&#x1e1;" horiz-adv-x="1241" 
d="M1243 1909l-42 -198h-762l42 198h762zM760 1260q-74 0 -120.5 45.5t-46.5 114.5q0 71 46.5 117.5t120.5 46.5t120.5 -46.5t46.5 -117.5q0 -69 -46.5 -114.5t-120.5 -45.5zM363 -17q-140 0 -233.5 86.5t-93.5 216.5q0 171 134 271.5t370 107.5l258 7l14 67q4 24 4 35
q0 48 -42.5 76.5t-113.5 28.5q-126 0 -167 -83h-324q35 157 174.5 250t341.5 93q214 0 346 -92t132 -242q0 -47 -9 -90l-153 -715h-343l28 134h-19q-43 -69 -126 -110t-178 -41zM522 229q78 0 139 45.5t76 113.5l18 83l-197 -6q-83 -3 -131 -37.5t-48 -90.5q0 -48 40 -78
t103 -30z" />
    <glyph glyph-name="AEmacron" unicode="&#x1e2;" horiz-adv-x="2108" 
d="M1898 1854l-42 -197h-762l42 197h762zM882 0l69 327h-432l-195 -327h-369l873 1443h1337l-63 -295h-647l-61 -290h610l-58 -270h-610l-62 -293h646l-62 -295h-976zM1130 1167h-120l-339 -575h337z" />
    <glyph glyph-name="aemacron" unicode="&#x1e3;" horiz-adv-x="1956" 
d="M1404 1537l-42 -198h-762l42 198h762zM1274 -26q-122 0 -232.5 53t-155.5 134h-19q-58 -81 -169.5 -134t-245.5 -53q-179 0 -296.5 91.5t-117.5 226.5q0 178 131.5 277t374.5 106l257 7l13 57q5 17 5 35q0 48 -43 76.5t-114 28.5q-126 0 -167 -83h-324q36 162 172 252.5
t335 90.5q113 0 202 -42t130 -109h19q68 73 160.5 112t198.5 39q204 0 341 -133t137 -340q0 -85 -20 -187h-764v-21q0 -110 58.5 -169.5t153.5 -59.5q70 0 118.5 28t68.5 77h332q-41 -164 -186.5 -262t-352.5 -98zM1118 681h423q4 12 4 36q0 74 -50 122t-131 48
q-88 0 -155 -56.5t-91 -149.5zM524 220q77 0 138.5 49t76.5 119l18 83l-197 -6q-83 -3 -131 -37.5t-48 -92.5q0 -49 40.5 -82t102.5 -33z" />
    <glyph glyph-name="Gcaron" unicode="&#x1e6;" horiz-adv-x="1588" 
d="M786 1598l-188 348h283l85 -194h19l167 194h308l-336 -348h-338zM1522 770l-35 -180q-58 -306 -244.5 -467.5t-481.5 -161.5q-283 0 -454 169t-171 449q0 263 102 469t285.5 320t417.5 114q162 0 300.5 -63.5t220 -174t83.5 -240.5q0 -25 -1 -33h-353q-3 87 -80 144
t-192 57q-177 0 -293.5 -161.5t-116.5 -410.5q0 -151 76 -240t206 -89q125 0 212.5 63.5t108.5 169.5l2 13h-259l54 253h613z" />
    <glyph glyph-name="gcaron" unicode="&#x1e7;" horiz-adv-x="1369" 
d="M585 1261l-194 359h284l88 -202h19l172 202h298l-329 -359h-338zM509 -419q-241 0 -388 96.5t-141 248.5h346q3 -49 57.5 -79t146.5 -30q194 0 230 166l42 193h-19q-104 -152 -324 -152q-167 0 -271.5 113t-104.5 297q0 143 43.5 272.5t117.5 222t176 147t215 54.5
q114 0 200 -56.5t115 -150.5h19l42 190h345l-247 -1154q-38 -178 -196 -278t-404 -100zM625 264q111 0 190.5 109.5t79.5 262.5q0 96 -49.5 153.5t-132.5 57.5q-113 0 -190.5 -106t-77.5 -263q0 -98 49 -156t131 -58z" />
    <glyph glyph-name="Kcaron" unicode="&#x1e8;" horiz-adv-x="1509" 
d="M802 1596l-188 349h283l84 -194h20l167 194h308l-336 -349h-338zM419 0h-367l307 1443h366l-130 -609h20l600 609h422l-653 -660l347 -783h-409l-246 570l-173 -172z" />
    <glyph glyph-name="kcaron" unicode="&#x1e9;" horiz-adv-x="1275" 
d="M381 1684l-188 348h283l84 -194h19l168 194h307l-335 -348h-338zM376 0h-355l326 1530h353l-173 -818h20l396 401h399l-510 -489l310 -624h-385l-210 434l-100 -94z" />
    <glyph glyph-name="Oogonek" unicode="&#x1ea;" horiz-adv-x="1638" 
d="M1063 -465q-38 -14 -110 -14q-137 0 -220.5 61t-83.5 159q0 65 46 122.5t116 82.5l4 20q-20 -5 -36 -5q-147 0 -268.5 47.5t-203.5 130.5t-127 196.5t-45 245.5q0 196 61.5 365t167.5 286t252.5 183.5t313.5 66.5q149 0 271.5 -47.5t203 -130.5t124.5 -196.5t44 -245.5
q0 -280 -123.5 -500.5t-331.5 -329.5q-98 -53 -149.5 -106.5t-51.5 -118.5q0 -45 35.5 -71t96.5 -26q36 0 52 4zM1200 836q0 152 -77 242.5t-204 90.5q-111 0 -205.5 -74.5t-149.5 -204t-55 -284.5q0 -152 76.5 -243.5t204.5 -91.5q170 0 290 163.5t120 401.5z" />
    <glyph glyph-name="oogonek" unicode="&#x1eb;" horiz-adv-x="1344" 
d="M874 -465q-39 -14 -110 -14q-136 0 -219.5 60.5t-83.5 159.5q0 66 47.5 128t116.5 87l4 20q-14 -2 -20 -2q-235 0 -377.5 136t-142.5 361q0 188 84.5 341t233.5 240t331 87q235 0 376 -136t141 -362q0 -193 -86.5 -342t-238.5 -242q-202 -125 -202 -250q0 -45 35.5 -71
t96.5 -26q36 0 52 4zM456 474q0 -107 44.5 -167.5t122.5 -60.5q108 0 186 115t78 273q0 111 -43 173t-121 62q-111 0 -189 -115.5t-78 -279.5z" />
    <glyph glyph-name="Oogonekmacron" unicode="&#x1ec;" horiz-adv-x="1638" 
d="M1402 1854l-42 -197h-762l42 197h762zM1063 -465q-38 -14 -110 -14q-137 0 -220.5 61t-83.5 159q0 65 46 122.5t116 82.5l4 20q-20 -5 -36 -5q-147 0 -268.5 47.5t-203.5 130.5t-127 196.5t-45 245.5q0 196 61.5 365t167.5 286t252.5 183.5t313.5 66.5q149 0 271.5 -47.5
t203 -130.5t124.5 -196.5t44 -245.5q0 -280 -123.5 -500.5t-331.5 -329.5q-98 -53 -149.5 -106.5t-51.5 -118.5q0 -45 35.5 -71t96.5 -26q36 0 52 4zM1200 836q0 152 -77 242.5t-204 90.5q-111 0 -205.5 -74.5t-149.5 -204t-55 -284.5q0 -152 76.5 -243.5t204.5 -91.5
q170 0 290 163.5t120 401.5z" />
    <glyph glyph-name="oogonekmacron" unicode="&#x1ed;" horiz-adv-x="1344" 
d="M1205 1537l-42 -198h-762l42 198h762zM874 -465q-39 -14 -110 -14q-136 0 -219.5 60.5t-83.5 159.5q0 66 47.5 128t116.5 87l4 20q-14 -2 -20 -2q-235 0 -377.5 136t-142.5 361q0 188 84.5 341t233.5 240t331 87q235 0 376 -136t141 -362q0 -193 -86.5 -342t-238.5 -242
q-202 -125 -202 -250q0 -45 35.5 -71t96.5 -26q36 0 52 4zM456 474q0 -107 44.5 -167.5t122.5 -60.5q108 0 186 115t78 273q0 111 -43 173t-121 62q-111 0 -189 -115.5t-78 -279.5z" />
    <glyph glyph-name="uni01F1" unicode="&#x1f1;" horiz-adv-x="2960" 
d="M359 1443h569q264 0 417.5 -151t153.5 -419q0 -251 -95.5 -450t-268.5 -311t-394 -112h-689zM1574 0l50 233l845 896v19h-641l63 295h1105l-50 -233l-844 -896v-19h672l-62 -295h-1138zM666 1149l-181 -855h211q188 0 307 146.5t119 389.5q0 147 -77 233t-213 86h-166z
" />
    <glyph glyph-name="uni01F2" unicode="&#x1f2;" horiz-adv-x="2750" 
d="M359 1443h569q264 0 417.5 -151t153.5 -419q0 -251 -95.5 -450t-268.5 -311t-394 -112h-689zM666 1149l-181 -855h211q188 0 307 146.5t119 389.5q0 147 -77 233t-213 86h-166zM1555 0l40 189l649 639l1 19h-499l57 266h936l-46 -217l-596 -611l-1 -19h481l-57 -266h-965
z" />
    <glyph glyph-name="uni01F3" unicode="&#x1f3;" horiz-adv-x="2572" 
d="M458 -17q-169 0 -273 114.5t-104 313.5q0 154 43.5 288.5t118 228.5t178 148t220.5 54q120 0 200.5 -56t107.5 -145h20l127 601h355l-326 -1530h-344l33 155h-19q-125 -172 -337 -172zM1376 0l40 189l650 639v19h-498l57 266h936l-46 -217l-596 -611l-1 -19h481l-57 -266
h-966zM628 257q112 0 192.5 113t80.5 266q0 101 -51 156t-130 55q-113 0 -192.5 -108t-79.5 -268q0 -101 51 -157.5t129 -56.5z" />
    <glyph glyph-name="Gacute" unicode="&#x1f4;" horiz-adv-x="1588" 
d="M1060 1599h-237l198 334h313zM1522 770l-35 -180q-58 -306 -244.5 -467.5t-481.5 -161.5q-283 0 -454 169t-171 449q0 263 102 469t285.5 320t417.5 114q162 0 300.5 -63.5t220 -174t83.5 -240.5q0 -25 -1 -33h-353q-3 87 -80 144t-192 57q-177 0 -293.5 -161.5
t-116.5 -410.5q0 -151 76 -240t206 -89q125 0 212.5 63.5t108.5 169.5l2 13h-259l54 253h613z" />
    <glyph glyph-name="gacute" unicode="&#x1f5;" horiz-adv-x="1369" 
d="M850 1260h-236l205 359h314zM509 -419q-241 0 -388 96.5t-141 248.5h346q3 -49 57.5 -79t146.5 -30q194 0 230 166l42 193h-19q-104 -152 -324 -152q-167 0 -271.5 113t-104.5 297q0 143 43.5 272.5t117.5 222t176 147t215 54.5q114 0 200 -56.5t115 -150.5h19l42 190
h345l-247 -1154q-38 -178 -196 -278t-404 -100zM625 264q111 0 190.5 109.5t79.5 262.5q0 96 -49.5 153.5t-132.5 57.5q-113 0 -190.5 -106t-77.5 -263q0 -98 49 -156t131 -58z" />
    <glyph glyph-name="Ngrave" unicode="&#x1f8;" horiz-adv-x="1600" 
d="M891 1597l-132 335h313l56 -335h-237zM404 0h-352l307 1443h260l449 -842h19l180 842h352l-307 -1443h-256l-456 834h-19z" />
    <glyph glyph-name="ngrave" unicode="&#x1f9;" horiz-adv-x="1331" 
d="M719 1267l-129 359h314l52 -359h-237zM14 0l239 1113h343l-39 -181h19q56 93 143.5 145.5t200.5 52.5q150 0 239 -90t89 -232q0 -62 -15 -134l-143 -674h-353l132 619q9 37 9 76q0 68 -41.5 111.5t-114.5 43.5q-81 0 -138.5 -56.5t-76.5 -146.5l-140 -647h-353z" />
    <glyph glyph-name="Aringacute" unicode="&#x1fa;" horiz-adv-x="1564" 
d="M1124 2230h305l-201 -194h-276zM1049 1531q-97 0 -160 60.5t-63 154.5q0 93 63 153t160 60q96 0 159 -60t63 -153q0 -94 -63 -154.5t-159 -60.5zM1048 1666q34 0 56.5 22.5t22.5 56.5q0 33 -22.5 55.5t-56.5 22.5q-34 -1 -56 -23t-22 -55q0 -34 22 -56.5t56 -22.5zM990 0
l-22 317h-473l-162 -317h-379l807 1443h445l167 -1443h-383zM898 1117l-274 -536h333l-39 536h-20z" />
    <glyph glyph-name="aringacute" unicode="&#x1fb;" horiz-adv-x="1241" 
d="M686 1760l217 241h279l-262 -241h-234zM765 1221q-105 0 -172.5 65.5t-67.5 166.5t67.5 166.5t172.5 65.5q104 0 172 -65.5t68 -166.5t-68 -166.5t-172 -65.5zM678 1453q0 -38 24.5 -62.5t62.5 -24.5t62.5 24.5t24.5 62.5q0 37 -24.5 61.5t-62.5 24.5t-62.5 -24.5
t-24.5 -61.5zM363 -17q-140 0 -233.5 86.5t-93.5 216.5q0 171 134 271.5t370 107.5l258 7l14 67q4 24 4 35q0 48 -42.5 76.5t-113.5 28.5q-126 0 -167 -83h-324q35 157 174.5 250t341.5 93q214 0 346 -92t132 -242q0 -47 -9 -90l-153 -715h-343l28 134h-19
q-43 -69 -126 -110t-178 -41zM522 229q78 0 139 45.5t76 113.5l18 83l-197 -6q-83 -3 -131 -37.5t-48 -90.5q0 -48 40 -78t103 -30z" />
    <glyph glyph-name="AEacute" unicode="&#x1fc;" horiz-adv-x="2108" 
d="M1562 1597h-237l198 335h313zM882 0l69 327h-432l-195 -327h-369l873 1443h1337l-63 -295h-647l-61 -290h610l-58 -270h-610l-62 -293h646l-62 -295h-976zM1130 1167h-120l-339 -575h337z" />
    <glyph glyph-name="aeacute" unicode="&#x1fd;" horiz-adv-x="1956" 
d="M1080 1259h-237l205 359h314zM1274 -26q-122 0 -232.5 53t-155.5 134h-19q-58 -81 -169.5 -134t-245.5 -53q-179 0 -296.5 91.5t-117.5 226.5q0 178 131.5 277t374.5 106l257 7l13 57q5 17 5 35q0 48 -43 76.5t-114 28.5q-126 0 -167 -83h-324q36 162 172 252.5t335 90.5
q113 0 202 -42t130 -109h19q68 73 160.5 112t198.5 39q204 0 341 -133t137 -340q0 -85 -20 -187h-764v-21q0 -110 58.5 -169.5t153.5 -59.5q70 0 118.5 28t68.5 77h332q-41 -164 -186.5 -262t-352.5 -98zM1118 681h423q4 12 4 36q0 74 -50 122t-131 48q-88 0 -155 -56.5
t-91 -149.5zM524 220q77 0 138.5 49t76.5 119l18 83l-197 -6q-83 -3 -131 -37.5t-48 -92.5q0 -49 40.5 -82t102.5 -33z" />
    <glyph glyph-name="Oslashacute" unicode="&#x1fe;" horiz-adv-x="1614" 
d="M1065 1597h-236l198 334h312zM126 153l97 94q-88 147 -88 334q0 196 61.5 365t167.5 286t252.5 183.5t313.5 66.5q261 0 433 -140l91 88l136 -145l-99 -95q82 -143 82 -328q0 -158 -39 -299t-111.5 -250t-170 -188.5t-219 -121.5t-254.5 -42q-253 0 -424 136l-92 -88z
M921 1185q-115 0 -212.5 -77t-154.5 -211.5t-57 -294.5q0 -39 7 -86l614 590q-77 79 -197 79zM1211 840q0 36 -5 76l-610 -587q76 -73 191 -73t212.5 76.5t154.5 211.5t57 296z" />
    <glyph glyph-name="oslashacute" unicode="&#x1ff;" horiz-adv-x="1344" 
d="M880 1259h-236l205 359h314zM118 -26l112 137q-141 135 -141 360q0 188 84.5 341t233.5 240t331 87q158 0 277 -64l96 119l97 -57l-103 -125q150 -136 150 -371q0 -141 -49.5 -264.5t-135 -212t-205.5 -139.5t-256 -51q-166 0 -293 72l-108 -133zM456 474q0 -45 7 -77
l356 438q-40 34 -96 34q-111 0 -189 -115.5t-78 -279.5zM623 246q108 0 186 115t78 273q0 58 -11 98l-361 -443q43 -43 108 -43z" />
    <glyph glyph-name="Adblgrave" unicode="&#x200;" horiz-adv-x="1564" 
d="M1127 1596l-54 326h280l8 -326h-234zM718 1596l-122 326h299l61 -326h-238zM990 0l-22 317h-473l-162 -317h-379l807 1443h445l167 -1443h-383zM898 1117l-274 -536h333l-39 536h-20z" />
    <glyph glyph-name="adblgrave" unicode="&#x201;" horiz-adv-x="1241" 
d="M1072 1260h-234l-60 359h285zM666 1260h-237l-136 359h307zM363 -17q-140 0 -233.5 86.5t-93.5 216.5q0 171 134 271.5t370 107.5l258 7l14 67q4 24 4 35q0 48 -42.5 76.5t-113.5 28.5q-126 0 -167 -83h-324q35 157 174.5 250t341.5 93q214 0 346 -92t132 -242
q0 -47 -9 -90l-153 -715h-343l28 134h-19q-43 -69 -126 -110t-178 -41zM522 229q78 0 139 45.5t76 113.5l18 83l-197 -6q-83 -3 -131 -37.5t-48 -90.5q0 -48 40 -78t103 -30z" />
    <glyph glyph-name="Ainvertedbreve" unicode="&#x202;" horiz-adv-x="1564" 
d="M1022 1932q103 0 183.5 -30.5t127.5 -81t68 -112.5t13 -127h-232q7 74 -38.5 119.5t-129.5 45.5q-162 0 -195 -165h-231q19 160 134 255.5t300 95.5zM990 0l-22 317h-473l-162 -317h-379l807 1443h445l167 -1443h-383zM898 1117l-274 -536h333l-39 536h-20z" />
    <glyph glyph-name="ainvertedbreve" unicode="&#x203;" horiz-adv-x="1241" 
d="M739 1618q91 0 164 -23.5t118.5 -61.5t73.5 -86.5t36 -97t0 -94.5h-232q7 75 -35 123.5t-133 48.5q-166 0 -197 -172h-230q17 165 132 264.5t303 98.5zM363 -17q-140 0 -233.5 86.5t-93.5 216.5q0 171 134 271.5t370 107.5l258 7l14 67q4 24 4 35q0 48 -42.5 76.5
t-113.5 28.5q-126 0 -167 -83h-324q35 157 174.5 250t341.5 93q214 0 346 -92t132 -242q0 -47 -9 -90l-153 -715h-343l28 134h-19q-43 -69 -126 -110t-178 -41zM522 229q78 0 139 45.5t76 113.5l18 83l-197 -6q-83 -3 -131 -37.5t-48 -90.5q0 -48 40 -78t103 -30z" />
    <glyph glyph-name="Edblgrave" unicode="&#x204;" horiz-adv-x="1302" 
d="M997 1596l-54 326h280l8 -326h-234zM588 1596l-122 326h299l61 -326h-238zM1103 295l-62 -295h-989l307 1443h988l-63 -295h-621l-61 -288h584l-57 -270h-584l-63 -295h621z" />
    <glyph glyph-name="edblgrave" unicode="&#x205;" horiz-adv-x="1290" 
d="M1081 1260h-234l-60 359h285zM676 1260h-237l-136 359h306zM604 -26q-234 0 -374.5 129.5t-140.5 352.5q0 305 171 494t445 189q216 0 355.5 -131.5t139.5 -341.5q0 -85 -20 -187h-766v-21q0 -110 58.5 -169.5t153.5 -59.5q70 0 119 28t70 77h332q-41 -165 -186.5 -262.5
t-356.5 -97.5zM450 681h423q4 12 4 36q0 74 -50 122t-131 48q-88 0 -155 -56.5t-91 -149.5z" />
    <glyph glyph-name="Einvertedbreve" unicode="&#x206;" horiz-adv-x="1302" 
d="M892 1932q103 0 183.5 -30.5t127.5 -81t68 -112.5t13 -127h-232q7 74 -38.5 119.5t-129.5 45.5q-162 0 -195 -165h-231q19 160 134 255.5t300 95.5zM1103 295l-62 -295h-989l307 1443h988l-63 -295h-621l-61 -288h584l-57 -270h-584l-63 -295h621z" />
    <glyph glyph-name="einvertedbreve" unicode="&#x207;" horiz-adv-x="1290" 
d="M749 1618q91 0 164 -23.5t118 -61.5t73 -86.5t36 -97t0 -94.5h-232q7 75 -34.5 123.5t-132.5 48.5q-82 0 -132.5 -44t-64.5 -128h-231q17 165 132.5 264.5t303.5 98.5zM604 -26q-234 0 -374.5 129.5t-140.5 352.5q0 305 171 494t445 189q216 0 355.5 -131.5t139.5 -341.5
q0 -85 -20 -187h-766v-21q0 -110 58.5 -169.5t153.5 -59.5q70 0 119 28t70 77h332q-41 -165 -186.5 -262.5t-356.5 -97.5zM450 681h423q4 12 4 36q0 74 -50 122t-131 48q-88 0 -155 -56.5t-91 -149.5z" />
    <glyph glyph-name="Idblgrave" unicode="&#x208;" horiz-adv-x="707" 
d="M686 1596l-54 326h280l8 -326h-234zM278 1596l-123 326h299l61 -326h-237zM419 0h-367l307 1443h367z" />
    <glyph glyph-name="idblgrave" unicode="&#x209;" horiz-adv-x="643" 
d="M818 1260h-234l-60 359h285zM413 1260h-237l-136 359h306zM26 0l237 1113h354l-237 -1113h-354z" />
    <glyph glyph-name="Iinvertedbreve" unicode="&#x20a;" horiz-adv-x="707" 
d="M581 1932q103 0 184 -30.5t128 -81t68 -112.5t13 -127h-232q6 74 -39.5 119.5t-129.5 45.5q-162 0 -195 -165h-231q20 160 134.5 255.5t299.5 95.5zM419 0h-367l307 1443h367z" />
    <glyph glyph-name="iinvertedbreve" unicode="&#x20b;" horiz-adv-x="643" 
d="M486 1618q91 0 164 -23.5t118 -61.5t73 -86.5t36 -97t0 -94.5h-232q7 75 -34.5 123.5t-132.5 48.5q-82 0 -132.5 -44t-64.5 -128h-231q17 165 132.5 264.5t303.5 98.5zM26 0l237 1113h354l-237 -1113h-354z" />
    <glyph glyph-name="Odblgrave" unicode="&#x20c;" horiz-adv-x="1638" 
d="M1078 1596l-54 325h280l8 -325h-234zM669 1596l-122 325h299l60 -325h-237zM779 -39q-147 0 -268.5 47.5t-203.5 130.5t-127 196.5t-45 245.5q0 196 61.5 365t167.5 286t252.5 183.5t313.5 66.5q149 0 271.5 -47.5t203 -130.5t124.5 -196.5t44 -245.5q0 -158 -39 -299
t-111.5 -250t-170 -188.5t-219 -121.5t-254.5 -42zM919 1169q-111 0 -205.5 -74.5t-149.5 -204t-55 -284.5q0 -152 76.5 -243.5t204.5 -91.5q170 0 290 163.5t120 401.5q0 152 -77 242.5t-204 90.5z" />
    <glyph glyph-name="odblgrave" unicode="&#x20d;" horiz-adv-x="1344" 
d="M1113 1260h-234l-60 359h285zM708 1260h-238l-135 359h306zM738 1139q235 0 376 -136t141 -362q0 -141 -49.5 -264.5t-135 -212t-205.5 -139.5t-256 -51q-235 0 -377.5 136t-142.5 361q0 188 84.5 341t233.5 240t331 87zM623 246q108 0 186 115t78 273q0 111 -43 173
t-121 62q-111 0 -189 -115.5t-78 -279.5q0 -107 44.5 -167.5t122.5 -60.5z" />
    <glyph glyph-name="Oinvertedbreve" unicode="&#x20e;" horiz-adv-x="1638" 
d="M973 1932q103 0 183.5 -30.5t127.5 -81t68 -112.5t13 -127h-232q7 74 -38.5 119.5t-129.5 45.5q-162 0 -195 -165h-231q19 160 134 255.5t300 95.5zM779 -39q-147 0 -268.5 47.5t-203.5 130.5t-127 196.5t-45 245.5q0 196 61.5 365t167.5 286t252.5 183.5t313.5 66.5
q149 0 271.5 -47.5t203 -130.5t124.5 -196.5t44 -245.5q0 -158 -39 -299t-111.5 -250t-170 -188.5t-219 -121.5t-254.5 -42zM919 1169q-111 0 -205.5 -74.5t-149.5 -204t-55 -284.5q0 -152 76.5 -243.5t204.5 -91.5q170 0 290 163.5t120 401.5q0 152 -77 242.5t-204 90.5z
" />
    <glyph glyph-name="oinvertedbreve" unicode="&#x20f;" horiz-adv-x="1344" 
d="M781 1618q91 0 164 -23.5t118 -61.5t73 -86.5t36 -97t0 -94.5h-232q7 75 -34.5 123.5t-132.5 48.5q-82 0 -132.5 -44t-64.5 -128h-231q17 165 132 264.5t304 98.5zM738 1139q235 0 376 -136t141 -362q0 -141 -49.5 -264.5t-135 -212t-205.5 -139.5t-256 -51
q-235 0 -377.5 136t-142.5 361q0 188 84.5 341t233.5 240t331 87zM623 246q108 0 186 115t78 273q0 111 -43 173t-121 62q-111 0 -189 -115.5t-78 -279.5q0 -107 44.5 -167.5t122.5 -60.5z" />
    <glyph glyph-name="Rdblgrave" unicode="&#x210;" horiz-adv-x="1459" 
d="M1002 1596l-54 326h280l8 -326h-234zM593 1596l-122 326h299l60 -326h-237zM52 0l307 1443h609q202 0 332.5 -118.5t130.5 -300.5q0 -158 -92 -291t-249 -191l194 -542h-394l-164 505h-199l-108 -505h-367zM668 1166l-87 -402h219q118 0 190 64t72 165q0 84 -51.5 128.5
t-145.5 44.5h-197z" />
    <glyph glyph-name="rdblgrave" unicode="&#x211;" horiz-adv-x="969" 
d="M963 1260h-234l-60 359h285zM558 1260h-237l-136 359h306zM12 0l238 1113h345l-32 -157h19q41 82 111 128t156 46q89 0 149 -27l-69 -308q-83 36 -184 36q-200 0 -250 -234l-128 -597h-355z" />
    <glyph glyph-name="Rinvertedbreve" unicode="&#x212;" horiz-adv-x="1459" 
d="M897 1932q103 0 183.5 -30.5t127.5 -81t68 -112.5t13 -127h-232q7 74 -38.5 119.5t-129.5 45.5q-162 0 -195 -165h-231q19 160 134 255.5t300 95.5zM52 0l307 1443h609q202 0 332.5 -118.5t130.5 -300.5q0 -158 -92 -291t-249 -191l194 -542h-394l-164 505h-199
l-108 -505h-367zM668 1166l-87 -402h219q118 0 190 64t72 165q0 84 -51.5 128.5t-145.5 44.5h-197z" />
    <glyph glyph-name="rinvertedbreve" unicode="&#x213;" horiz-adv-x="969" 
d="M631 1618q91 0 164 -23.5t118 -61.5t73.5 -86.5t36.5 -97t0 -94.5h-233q7 75 -34.5 123.5t-132.5 48.5q-82 0 -132.5 -44t-64.5 -128h-231q17 165 132.5 264.5t303.5 98.5zM12 0l238 1113h345l-32 -157h19q41 82 111 128t156 46q89 0 149 -27l-69 -308q-83 36 -184 36
q-200 0 -250 -234l-128 -597h-355z" />
    <glyph glyph-name="Udblgrave" unicode="&#x214;" horiz-adv-x="1585" 
d="M1127 1596l-54 326h280l8 -326h-234zM719 1596l-123 326h299l61 -326h-237zM761 -39q-273 0 -435.5 133t-162.5 346q-1 56 13 125l186 878h368l-185 -872q-10 -47 -10 -91q1 -96 66.5 -151.5t171.5 -55.5q108 0 180 64t97 185l195 921h368l-211 -1002q-48 -226 -218 -353
t-423 -127z" />
    <glyph glyph-name="udblgrave" unicode="&#x215;" horiz-adv-x="1332" 
d="M1164 1260h-234l-60 359h285zM759 1260h-238l-136 359h307zM1317 1113l-235 -1113h-344l37 175h-19q-112 -201 -325 -201q-155 0 -250 88t-95 238q0 54 15 141l141 672h355l-131 -615q-7 -35 -7 -73q0 -161 155 -161q82 0 136.5 54.5t75.5 151.5l137 643h354z" />
    <glyph glyph-name="Uinvertedbreve" unicode="&#x216;" horiz-adv-x="1585" 
d="M1022 1932q103 0 184 -30.5t128 -81t68 -112.5t13 -127h-232q6 74 -39.5 119.5t-129.5 45.5q-162 0 -195 -165h-231q19 160 134 255.5t300 95.5zM761 -39q-273 0 -435.5 133t-162.5 346q-1 56 13 125l186 878h368l-185 -872q-10 -47 -10 -91q1 -96 66.5 -151.5
t171.5 -55.5q108 0 180 64t97 185l195 921h368l-211 -1002q-48 -226 -218 -353t-423 -127z" />
    <glyph glyph-name="uinvertedbreve" unicode="&#x217;" horiz-adv-x="1332" 
d="M832 1618q112 0 196.5 -35.5t127.5 -91t60 -117t7 -119.5h-232q7 75 -34.5 123.5t-132.5 48.5q-167 0 -198 -172h-230q17 165 132 264.5t304 98.5zM1317 1113l-235 -1113h-344l37 175h-19q-112 -201 -325 -201q-155 0 -250 88t-95 238q0 54 15 141l141 672h355l-131 -615
q-7 -35 -7 -73q0 -161 155 -161q82 0 136.5 54.5t75.5 151.5l137 643h354z" />
    <glyph glyph-name="Scommaaccent" unicode="&#x218;" horiz-adv-x="1407" 
d="M66 416h350q10 -78 84 -127.5t176 -49.5q108 0 175.5 45t67.5 117q0 54 -43 89t-149 67l-156 47q-167 50 -257 154t-90 250q0 205 170 339.5t429 134.5q254 0 411.5 -127.5t159.5 -331.5h-339q-7 79 -75.5 130.5t-169.5 51.5q-92 0 -155 -44t-63 -110q0 -55 41.5 -94.5
t132.5 -66.5l158 -46q187 -55 273 -149t86 -244q0 -222 -173.5 -356t-458.5 -134q-261 0 -421 122.5t-164 332.5zM600 -494h-259l150 361h335z" />
    <glyph glyph-name="scommaaccent" unicode="&#x219;" horiz-adv-x="1201" 
d="M167 768q0 168 133 269.5t352 101.5q215 0 346.5 -93.5t136.5 -248.5h-318q-8 46 -52.5 74t-111.5 28q-65 0 -106.5 -26.5t-41.5 -69.5q0 -31 24.5 -53t81.5 -42l197 -69q133 -46 193.5 -115t60.5 -174q0 -170 -138.5 -273t-367.5 -103q-230 0 -372.5 98t-145.5 257h336
q8 -51 57.5 -83.5t121.5 -32.5q73 0 115 26t42 71q0 30 -22.5 50.5t-79.5 40.5l-176 62q-135 47 -200 122t-65 183zM473 -494h-259l150 361h335z" />
    <glyph glyph-name="Tcommaaccent" unicode="&#x21a;" horiz-adv-x="1380" 
d="M756 0h-367l243 1148h-415l63 295h1198l-63 -295h-415zM500 -494h-259l150 361h335z" />
    <glyph glyph-name="tcommaaccent" unicode="&#x21b;" horiz-adv-x="900" 
d="M510 -2q-157 0 -249.5 64.5t-92.5 176.5q0 44 11 96l105 500h-175l58 263h173l58 270h355l-59 -270h231l-58 -263h-228l-94 -441q-6 -38 -6 -51q0 -90 115 -90q43 0 93 6l-53 -247q-53 -14 -184 -14zM336 -494h-259l150 361h335z" />
    <glyph glyph-name="Hcaron" unicode="&#x21e;" horiz-adv-x="1649" 
d="M870 1596l-188 349h284l84 -194h19l168 194h307l-336 -349h-338zM1361 0h-369l124 582h-574l-124 -582h-366l307 1443h367l-120 -566h574l120 566h368z" />
    <glyph glyph-name="hcaron" unicode="&#x21f;" horiz-adv-x="1346" 
d="M375 1672l-188 349h284l84 -194h19l168 194h307l-336 -349h-338zM21 0l324 1519h353l-124 -574h19q117 189 338 189q154 0 243 -87.5t89 -226.5q0 -59 -14 -134l-144 -686h-353l133 631q9 45 9 76q0 70 -44.5 111t-116.5 41q-83 0 -141.5 -55t-77.5 -145l-140 -659h-353z
" />
    <glyph glyph-name="Adotaccent" unicode="&#x226;" horiz-adv-x="1564" 
d="M1051 1579q-77 0 -132.5 54t-55.5 130q0 78 55 131.5t133 53.5t133 -53.5t55 -131.5q0 -76 -55.5 -130t-132.5 -54zM990 0l-22 317h-473l-162 -317h-379l807 1443h445l167 -1443h-383zM898 1117l-274 -536h333l-39 536h-20z" />
    <glyph glyph-name="adotaccent" unicode="&#x227;" horiz-adv-x="1241" 
d="M763 1262q-77 0 -132.5 53.5t-55.5 130.5t55.5 131t132.5 54q78 0 133 -54t55 -131t-55 -130.5t-133 -53.5zM363 -17q-140 0 -233.5 86.5t-93.5 216.5q0 171 134 271.5t370 107.5l258 7l14 67q4 24 4 35q0 48 -42.5 76.5t-113.5 28.5q-126 0 -167 -83h-324
q35 157 174.5 250t341.5 93q214 0 346 -92t132 -242q0 -47 -9 -90l-153 -715h-343l28 134h-19q-43 -69 -126 -110t-178 -41zM522 229q78 0 139 45.5t76 113.5l18 83l-197 -6q-83 -3 -131 -37.5t-48 -90.5q0 -48 40 -78t103 -30z" />
    <glyph glyph-name="Ecedilla" unicode="&#x228;" horiz-adv-x="1302" 
d="M268 -471l31 143q54 -14 97 -14q45 0 78 12.5t33 40.5q0 51 -108 51h-52l26 120l92 118h-413l307 1443h988l-63 -295h-621l-61 -288h584l-57 -270h-584l-63 -295h621l-62 -295h-369l-94 -120q54 -9 97.5 -52.5t43.5 -116.5q0 -95 -80 -149t-214 -54q-87 0 -157 21z" />
    <glyph glyph-name="ecedilla" unicode="&#x229;" horiz-adv-x="1290" 
d="M313 -471l31 143q54 -14 96 -14q45 0 78 12.5t33 40.5q0 51 -107 51h-53l26 120l79 100q-188 29 -297.5 153.5t-109.5 320.5q0 305 171 494t445 189q216 0 355.5 -131.5t139.5 -341.5q0 -85 -20 -187h-766v-21q0 -110 58.5 -169.5t153.5 -59.5q70 0 119 28t70 77h332
q-35 -144 -153.5 -238t-292.5 -116l-79 -100q54 -9 97.5 -52.5t43.5 -116.5q0 -95 -80 -149t-214 -54q-88 0 -156 21zM450 681h423q4 12 4 36q0 74 -50 122t-131 48q-88 0 -155 -56.5t-91 -149.5z" />
    <glyph glyph-name="Odieresismacron" unicode="&#x22a;" horiz-adv-x="1638" 
d="M1488 2204l-39 -184h-783l40 184h782zM748 1906q76 0 124 -45.5t48 -117.5q0 -71 -48 -116.5t-124 -45.5t-124.5 45.5t-48.5 116.5q0 72 48.5 117.5t124.5 45.5zM1250 1906q76 0 124.5 -45.5t48.5 -117.5q0 -71 -48.5 -116.5t-124.5 -45.5t-124 45.5t-48 116.5
q0 72 48 117.5t124 45.5zM779 -39q-147 0 -268.5 47.5t-203.5 130.5t-127 196.5t-45 245.5q0 196 61.5 365t167.5 286t252.5 183.5t313.5 66.5q149 0 271.5 -47.5t203 -130.5t124.5 -196.5t44 -245.5q0 -158 -39 -299t-111.5 -250t-170 -188.5t-219 -121.5t-254.5 -42z
M919 1169q-111 0 -205.5 -74.5t-149.5 -204t-55 -284.5q0 -152 76.5 -243.5t204.5 -91.5q170 0 290 163.5t120 401.5q0 152 -77 242.5t-204 90.5z" />
    <glyph glyph-name="odieresismacron" unicode="&#x22b;" horiz-adv-x="1344" 
d="M1285 1909l-42 -198h-763l42 198h763zM567 1260q-72 0 -117 44.5t-45 110.5q0 68 45 112.5t117 44.5q71 0 115.5 -44.5t44.5 -112.5q0 -66 -44.5 -110.5t-115.5 -44.5zM1029 1260q-71 0 -116 44.5t-45 110.5q0 68 45 112.5t116 44.5t116.5 -44.5t45.5 -112.5
q0 -66 -45.5 -110.5t-116.5 -44.5zM738 1139q235 0 376 -136t141 -362q0 -141 -49.5 -264.5t-135 -212t-205.5 -139.5t-256 -51q-235 0 -377.5 136t-142.5 361q0 188 84.5 341t233.5 240t331 87zM623 246q108 0 186 115t78 273q0 111 -43 173t-121 62q-111 0 -189 -115.5
t-78 -279.5q0 -107 44.5 -167.5t122.5 -60.5z" />
    <glyph glyph-name="Otildemacron" unicode="&#x22c;" horiz-adv-x="1638" 
d="M1487 2204l-41 -197h-783l42 197h782zM1154 1578q-51 0 -98 20t-75.5 43.5t-61.5 43.5t-60 20q-77 0 -89 -93h-201q16 131 91 206.5t182 75.5q51 0 98 -20t75.5 -43.5t61.5 -43.5t60 -20q75 0 89 93h200q-15 -131 -90 -206.5t-182 -75.5zM779 -39q-147 0 -268.5 47.5
t-203.5 130.5t-127 196.5t-45 245.5q0 196 61.5 365t167.5 286t252.5 183.5t313.5 66.5q149 0 271.5 -47.5t203 -130.5t124.5 -196.5t44 -245.5q0 -158 -39 -299t-111.5 -250t-170 -188.5t-219 -121.5t-254.5 -42zM919 1169q-111 0 -205.5 -74.5t-149.5 -204t-55 -284.5
q0 -152 76.5 -243.5t204.5 -91.5q170 0 290 163.5t120 401.5q0 152 -77 242.5t-204 90.5z" />
    <glyph glyph-name="otildemacron" unicode="&#x22d;" horiz-adv-x="1344" 
d="M1282 1911l-42 -198h-763l42 198h763zM365 1291q27 142 101.5 225.5t180.5 83.5q52 0 99.5 -23t75 -50t58.5 -50t56 -23q62 0 90 117h201q-26 -141 -100.5 -225t-180.5 -84q-52 0 -99 23t-75 50t-59.5 50t-56.5 23q-61 0 -89 -117h-202zM738 1139q235 0 376 -136
t141 -362q0 -141 -49.5 -264.5t-135 -212t-205.5 -139.5t-256 -51q-235 0 -377.5 136t-142.5 361q0 188 84.5 341t233.5 240t331 87zM623 246q108 0 186 115t78 273q0 111 -43 173t-121 62q-111 0 -189 -115.5t-78 -279.5q0 -107 44.5 -167.5t122.5 -60.5z" />
    <glyph glyph-name="Odotaccent" unicode="&#x22e;" horiz-adv-x="1638" 
d="M1002 1579q-78 0 -133 53.5t-55 130.5t55 131t133 54t133 -54t55 -131t-55 -130.5t-133 -53.5zM779 -39q-147 0 -268.5 47.5t-203.5 130.5t-127 196.5t-45 245.5q0 196 61.5 365t167.5 286t252.5 183.5t313.5 66.5q149 0 271.5 -47.5t203 -130.5t124.5 -196.5t44 -245.5
q0 -158 -39 -299t-111.5 -250t-170 -188.5t-219 -121.5t-254.5 -42zM919 1169q-111 0 -205.5 -74.5t-149.5 -204t-55 -284.5q0 -152 76.5 -243.5t204.5 -91.5q170 0 290 163.5t120 401.5q0 152 -77 242.5t-204 90.5z" />
    <glyph glyph-name="odotaccent" unicode="&#x22f;" horiz-adv-x="1344" 
d="M805 1262q-78 0 -133 53.5t-55 130.5t55 131t133 54t133 -54t55 -131t-55 -130.5t-133 -53.5zM738 1139q235 0 376 -136t141 -362q0 -141 -49.5 -264.5t-135 -212t-205.5 -139.5t-256 -51q-235 0 -377.5 136t-142.5 361q0 188 84.5 341t233.5 240t331 87zM623 246
q108 0 186 115t78 273q0 111 -43 173t-121 62q-111 0 -189 -115.5t-78 -279.5q0 -107 44.5 -167.5t122.5 -60.5z" />
    <glyph glyph-name="Odotaccentmacron" unicode="&#x230;" horiz-adv-x="1638" 
d="M1488 2204l-39 -184h-782l39 184h782zM998 1574q-77 0 -126 45.5t-49 115.5t49 115.5t126 45.5q78 0 127 -45.5t49 -115.5t-49.5 -115.5t-126.5 -45.5zM779 -39q-147 0 -268.5 47.5t-203.5 130.5t-127 196.5t-45 245.5q0 196 61.5 365t167.5 286t252.5 183.5t313.5 66.5
q149 0 271.5 -47.5t203 -130.5t124.5 -196.5t44 -245.5q0 -158 -39 -299t-111.5 -250t-170 -188.5t-219 -121.5t-254.5 -42zM919 1169q-111 0 -205.5 -74.5t-149.5 -204t-55 -284.5q0 -152 76.5 -243.5t204.5 -91.5q170 0 290 163.5t120 401.5q0 152 -77 242.5t-204 90.5z
" />
    <glyph glyph-name="odotaccentmacron" unicode="&#x231;" horiz-adv-x="1344" 
d="M1285 1909l-42 -198h-763l42 198h763zM801 1260q-74 0 -120.5 45.5t-46.5 114.5q0 71 46.5 117.5t120.5 46.5t120.5 -46.5t46.5 -117.5q0 -69 -46.5 -114.5t-120.5 -45.5zM738 1139q235 0 376 -136t141 -362q0 -141 -49.5 -264.5t-135 -212t-205.5 -139.5t-256 -51
q-235 0 -377.5 136t-142.5 361q0 188 84.5 341t233.5 240t331 87zM623 246q108 0 186 115t78 273q0 111 -43 173t-121 62q-111 0 -189 -115.5t-78 -279.5q0 -107 44.5 -167.5t122.5 -60.5z" />
    <glyph glyph-name="Ymacron" unicode="&#x232;" horiz-adv-x="1507" 
d="M1406 1854l-42 -197h-762l42 197h762zM820 0h-367l105 496l-296 947h383l159 -591h19l405 591h395l-699 -953z" />
    <glyph glyph-name="ymacron" unicode="&#x233;" horiz-adv-x="1258" 
d="M1213 1537l-42 -198h-762l42 198h762zM82 -407q-129 0 -141 3l57 268q12 -3 70 -3q175 0 215 99l12 33l-127 1120h363l30 -809h19l370 809h377l-600 -1123q-114 -215 -263 -306t-382 -91z" />
    <glyph glyph-name="dotlessj" unicode="&#x237;" horiz-adv-x="643" 
d="M617 1113l-247 -1161q-34 -164 -146.5 -247t-288.5 -83q-87 0 -166 15l57 255q24 -7 68 -7q108 0 130 103l239 1125h354z" />
    <glyph glyph-name="quoteright" unicode="&#x2019;" horiz-adv-x="675" 
d="M405 804h-244l246 639h336z" />
    <glyph glyph-name="quoteright" unicode="&#x2bc;" horiz-adv-x="675" 
d="M405 804h-244l246 639h336z" />
    <glyph glyph-name="circumflex" unicode="&#x2c6;" horiz-adv-x="1024" 
d="M898 1619l195 -359h-285l-87 202h-19l-172 -202h-299l329 359h338z" />
    <glyph glyph-name="caron" unicode="&#x2c7;" horiz-adv-x="1024" 
d="M502 1260l-194 359h284l88 -202h19l172 202h298l-329 -359h-338z" />
    <glyph glyph-name="breve" unicode="&#x2d8;" horiz-adv-x="1024" 
d="M714 1255q-91 0 -164 24t-118 61.5t-73.5 86t-36.5 97t0 94.5h233q-7 -75 34.5 -123.5t132.5 -48.5q82 0 132.5 44t64.5 128h231q-17 -165 -132.5 -264.5t-303.5 -98.5z" />
    <glyph glyph-name="dotaccent" unicode="&#x2d9;" horiz-adv-x="1024" 
d="M701 1262q-77 0 -132.5 53.5t-55.5 130.5t55.5 131t132.5 54q78 0 133 -54t55 -131t-55 -130.5t-133 -53.5z" />
    <glyph glyph-name="ring" unicode="&#x2da;" horiz-adv-x="1024" 
d="M712 1251q-104 0 -178 69t-74 174t74 174t178 69q103 0 177 -69t74 -174t-74 -174t-177 -69zM712 1397q40 0 69.5 28t29.5 69t-29.5 69t-69.5 28t-69.5 -28t-29.5 -69t29.5 -69t69.5 -28z" />
    <glyph glyph-name="ogonek" unicode="&#x2db;" horiz-adv-x="1024" 
d="M360 -480q-119 0 -199 66.5t-80 173.5q0 100 70.5 179.5t181.5 114.5l270 -54q-125 -9 -205 -60.5t-80 -121.5q0 -48 39.5 -76t107.5 -28q33 0 79 8l-39 -181q-60 -21 -145 -21z" />
    <glyph glyph-name="tilde" unicode="&#x2dc;" horiz-adv-x="1024" 
d="M267 1291q27 142 101.5 225.5t180.5 83.5q52 0 99.5 -23t75 -50t58.5 -50t56 -23q62 0 90 117h201q-26 -141 -100.5 -225t-180.5 -84q-52 0 -99 23t-75 50t-59.5 50t-56.5 23q-61 0 -89 -117h-202z" />
    <glyph glyph-name="hungarumlaut" unicode="&#x2dd;" horiz-adv-x="1024" 
d="M235 1260l161 359h285l-212 -359h-234zM640 1260l219 359h307l-289 -359h-237z" />
    <glyph glyph-name="gravecmb" unicode="&#x300;" 
d="M36 1260l-130 359h314l52 -359h-236z" />
    <glyph glyph-name="acutecmb" unicode="&#x301;" 
d="M264 1260h-236l204 359h314z" />
    <glyph glyph-name="circumflexcmb" unicode="&#x302;" 
d="M395 1619l194 -359h-284l-88 202h-19l-172 -202h-298l329 359h338z" />
    <glyph glyph-name="tildecmb" unicode="&#x303;" 
d="M-247 1291q27 142 101.5 225.5t180.5 83.5q52 0 99 -23t75 -50t59 -50t56 -23q61 0 89 117h202q-26 -141 -101 -225t-181 -84q-52 0 -99 23t-75 50t-59 50t-56 23q-63 0 -89 -117h-202z" />
    <glyph glyph-name="macroncmb" unicode="&#x304;" 
d="M589 1537l-42 -198h-763l42 198h763z" />
    <glyph glyph-name="brevecmb" unicode="&#x306;" 
d="M195 1255q-91 0 -164 24t-118.5 61.5t-73.5 86t-36 97t0 94.5h232q-7 -75 35 -123.5t133 -48.5q166 0 197 172h230q-17 -165 -132 -264.5t-303 -98.5z" />
    <glyph glyph-name="dotaccentcmb" unicode="&#x307;" 
d="M188 1262q-77 0 -132.5 53.5t-55.5 130.5t55.5 131t132.5 54q78 0 133 -54t55 -131t-55 -130.5t-133 -53.5z" />
    <glyph glyph-name="dieresiscmb" unicode="&#x308;" 
d="M-65 1271q-72 0 -123 49.5t-51 121.5t51 121.5t123 49.5q73 0 123.5 -49.5t50.5 -121.5t-50.5 -121.5t-123.5 -49.5zM441 1271q-72 0 -123 49.5t-51 121.5t51 121.5t123 49.5q73 0 123.5 -49.5t50.5 -121.5t-50.5 -121.5t-123.5 -49.5z" />
    <glyph glyph-name="hookabovecmb" unicode="&#x309;" 
d="M57 1529l35 168q48 12 104 12q127 0 199.5 -65.5t72.5 -163.5q0 -95 -69.5 -164t-183.5 -97l-57 136q42 14 72 40t30 62q0 37 -35 58.5t-93 21.5q-35 0 -75 -8z" />
    <glyph glyph-name="ringcmb" unicode="&#x30a;" 
d="M200 1251q-103 0 -177.5 69.5t-74.5 173.5t74.5 173.5t177.5 69.5q104 0 178 -69t74 -174t-74 -174t-178 -69zM200 1397q40 0 69.5 28t29.5 69t-29.5 69t-69.5 28t-69.5 -28t-29.5 -69t29.5 -69t69.5 -28z" />
    <glyph glyph-name="hungarumlautcmb" unicode="&#x30b;" 
d="M-198 1260l162 359h285l-213 -359h-234zM207 1260l220 359h306l-288 -359h-238z" />
    <glyph glyph-name="caroncmb" unicode="&#x30c;" 
d="M-2 1260l-194 359h284l88 -202h19l172 202h299l-330 -359h-338z" />
    <glyph glyph-name="dblgravecmb" unicode="&#x30f;" 
d="M497 1260h-234l-60 359h284zM91 1260h-237l-136 359h306z" />
    <glyph glyph-name="invertedbrevecmb" unicode="&#x311;" 
d="M164 1618q91 0 164 -23.5t118 -61.5t73.5 -86.5t36.5 -97t0 -94.5h-232q7 75 -35 123.5t-133 48.5q-166 0 -197 -172h-231q18 165 133 264.5t303 98.5z" />
    <glyph glyph-name="horncmb" unicode="&#x31b;" 
d="M-107 919l50 228q23 -2 34 -1q31 2 50 21t28 63l32 157h268l-44 -211q-27 -132 -106 -201.5t-193 -69.5q-79 0 -119 14z" />
    <glyph glyph-name="dotbelowcmb" unicode="&#x323;" 
d="M-181 -475q-77 0 -132.5 53.5t-55.5 130.5t55.5 131t132.5 54q78 0 133 -54t55 -131t-55 -130.5t-133 -53.5z" />
    <glyph glyph-name="dieresisbelowcmb" unicode="&#x324;" 
d="M-433 -462q-72 0 -123 49.5t-51 121.5t51 121.5t123 49.5t123 -49.5t51 -121.5t-51 -121.5t-123 -49.5zM73 -462q-72 0 -123.5 49.5t-51.5 121.5t51.5 121.5t123.5 49.5t123 -49.5t51 -121.5t-51 -121.5t-123 -49.5z" />
    <glyph glyph-name="ringbelowcmb" unicode="&#x325;" 
d="M-179 -534q-104 0 -178 69.5t-74 173.5q0 105 74 174t178 69t178 -69t74 -174q0 -104 -74 -173.5t-178 -69.5zM-179 -387q41 0 70 27.5t29 68.5t-29.5 69.5t-69.5 28.5t-69.5 -28.5t-29.5 -69.5t29.5 -68.5t69.5 -27.5z" />
    <glyph glyph-name="commabelowcmb" unicode="&#x326;" 
d="M-190 -494h-258l149 361h335z" />
    <glyph glyph-name="cedillacmb" unicode="&#x327;" 
d="M-412 -471l32 143q53 -14 96 -14q45 0 78 12.5t33 40.5q0 51 -108 51h-52l26 120l115 148h184v-30l-94 -120q54 -9 97.5 -52.5t43.5 -116.5q0 -95 -80 -149t-214 -54q-87 0 -157 21z" />
    <glyph glyph-name="ogonekcmb" unicode="&#x328;" 
d="M-152 -480q-119 0 -199 66.5t-80 173.5q0 100 70.5 179.5t181.5 114.5l270 -54q-125 -9 -205 -60.5t-80 -121.5q0 -48 39.5 -76t107.5 -28q33 0 79 8l-39 -181q-60 -21 -145 -21z" />
    <glyph glyph-name="circumflexbelowcmb" unicode="&#x32d;" 
d="M23 -133l194 -359h-284l-88 202h-19l-172 -202h-299l330 359h338z" />
    <glyph glyph-name="brevebelowcmb" unicode="&#x32e;" 
d="M-173 -473q-91 0 -164 24t-118 62t-73 86.5t-36 97t0 94.5h232q-7 -75 34.5 -123.5t132.5 -48.5q82 0 132.5 44t64.5 128h231q-17 -166 -132 -265t-304 -99z" />
    <glyph glyph-name="tildebelowcmb" unicode="&#x330;" 
d="M-613 -431q27 142 101.5 225.5t180.5 83.5q52 0 99 -23t75 -50t59 -50t56 -23q61 0 89 117h202q-26 -140 -101 -224.5t-181 -84.5q-52 0 -99 23t-75 50t-59 50t-56 23q-62 0 -90 -117h-201z" />
    <glyph glyph-name="macronbelowcmb" unicode="&#x332;" 
d="M221 -192l-42 -198h-762l42 198h762z" />
    <glyph glyph-name="macronbelowcmb" unicode="&#x331;" 
d="M221 -192l-42 -198h-762l42 198h762z" />
    <glyph glyph-name="greekquestionmark" unicode="&#x37e;" horiz-adv-x="767" 
d="M437 643q-91 0 -146.5 53.5t-55.5 129.5q0 86 55 142t147 56q91 0 146 -53.5t55 -129.5q0 -86 -54.5 -142t-146.5 -56zM188 -400h-244l234 646h335z" />
    <glyph glyph-name="tonosgreek" unicode="&#x384;" horiz-adv-x="1024" 
d="M495 1260l116 359h295l-175 -359h-236z" />
    <glyph glyph-name="dieresistonosgreek" unicode="&#x385;" horiz-adv-x="1024" 
d="M521 1260l93 359h292l-149 -359h-236zM298 1258q-65 0 -110 43.5t-45 106.5t45 106.5t110 43.5q63 0 107.5 -43.5t44.5 -106.5t-44.5 -106.5t-107.5 -43.5zM1090 1258q-63 0 -108 43.5t-45 106.5t45 106.5t108 43.5q64 0 109 -43.5t45 -106.5t-45 -106.5t-109 -43.5z" />
    <glyph glyph-name="Alphatonosgreek" unicode="&#x386;" horiz-adv-x="1654" 
d="M1080 0l-23 317h-473l-161 -317h-379l806 1443h446l166 -1443h-382zM233 1084l116 359h294l-174 -359h-236zM987 1117l-274 -536h333l-39 536h-20z" />
    <glyph glyph-name="anoteleia" unicode="&#x387;" horiz-adv-x="767" 
d="M456 732q-91 0 -146.5 53.5t-55.5 129.5q0 87 54.5 142.5t147.5 55.5q91 0 146.5 -53.5t55.5 -129.5q0 -86 -55 -142t-147 -56z" />
    <glyph glyph-name="Epsilontonosgreek" unicode="&#x388;" horiz-adv-x="1713" 
d="M220 1084l116 359h295l-175 -359h-236zM1515 295l-63 -295h-989l307 1443h989l-64 -295h-620l-61 -288h584l-58 -270h-584l-63 -295h622z" />
    <glyph glyph-name="Etatonosgreek" unicode="&#x389;" horiz-adv-x="2060" 
d="M220 1084l116 359h295l-175 -359h-236zM1772 0h-368l124 582h-574l-124 -582h-367l307 1443h368l-121 -566h574l121 566h367z" />
    <glyph glyph-name="Iotatonosgreek" unicode="&#x38a;" horiz-adv-x="1119" 
d="M220 1084l116 359h295l-175 -359h-236zM831 0h-368l307 1443h368z" />
    <glyph glyph-name="Omicrontonosgreek" unicode="&#x38c;" horiz-adv-x="1999" 
d="M1141 -39q-147 0 -269 47.5t-203.5 130.5t-126.5 196.5t-45 245.5q0 196 61 365t167 286t252.5 183.5t313.5 66.5q199 0 346.5 -82t222 -221.5t74.5 -316.5q0 -197 -61 -366t-167 -286t-252.5 -183t-312.5 -66zM220 1084l116 359h295l-175 -359h-236zM1280 1169
q-111 0 -205.5 -74.5t-149.5 -204t-55 -284.5q0 -152 76.5 -243.5t204.5 -91.5q170 0 290 163.5t120 401.5q0 152 -77 242.5t-204 90.5z" />
    <glyph glyph-name="Upsilontonosgreek" unicode="&#x38e;" horiz-adv-x="1949" 
d="M220 1084l116 359h295l-175 -359h-236zM1262 0h-367l105 496l-296 947h383l159 -591h19l405 591h395l-699 -953z" />
    <glyph glyph-name="Omegatonosgreek" unicode="&#x38f;" horiz-adv-x="2058" 
d="M1210 0l75 354q153 68 240.5 205t87.5 313q0 140 -80.5 223t-219.5 83q-185 0 -303 -136.5t-118 -349.5q0 -109 47.5 -196.5t138.5 -141.5l-75 -354h-603l59 280h274l4 19q-99 62 -152.5 171.5t-53.5 242.5q0 227 105.5 402.5t291.5 271t421 95.5q290 0 465.5 -155.5
t175.5 -412.5q0 -193 -101.5 -362.5t-278.5 -252.5l-4 -19h290l-59 -280h-627zM220 1084l116 359h295l-175 -359h-236z" />
    <glyph glyph-name="iotadieresistonosgreek" unicode="&#x390;" horiz-adv-x="743" 
d="M319 1260l93 359h291l-148 -359h-236zM95 1258q-64 0 -109 43.5t-45 106.5t45 106.5t109 43.5t108.5 -43.5t44.5 -106.5t-44.5 -106.5t-108.5 -43.5zM888 1258q-63 0 -108 43.5t-45 106.5t45 106.5t108 43.5q64 0 109 -43.5t45 -106.5t-45 -106.5t-109 -43.5zM590 1113
l-153 -721q-5 -21 -5 -47q0 -86 113 -86q65 0 96 4l-55 -255q-63 -10 -181 -10q-346 0 -346 240q0 46 11 96l165 779h355z" />
    <glyph glyph-name="Alphagreek" unicode="&#x391;" horiz-adv-x="1564" 
d="M990 0l-22 317h-473l-162 -317h-379l807 1443h445l167 -1443h-383zM898 1117l-274 -536h333l-39 536h-20z" />
    <glyph glyph-name="Betagreek" unicode="&#x392;" horiz-adv-x="1459" 
d="M796 0h-744l307 1443h636q186 0 301.5 -85.5t115.5 -223.5q0 -144 -95.5 -249t-238.5 -120l-1 -19q121 -22 192 -100.5t71 -189.5q0 -200 -153 -328t-391 -128zM674 1193l-71 -330h209q102 0 167.5 54.5t65.5 138.5q0 65 -46.5 101t-131.5 36h-193zM476 267h245
q112 0 183 60t71 156q0 74 -53 115.5t-149 41.5h-218z" />
    <glyph glyph-name="Gammagreek" unicode="&#x393;" horiz-adv-x="1249" 
d="M418 0h-366l307 1443h961l-63 -295h-594z" />
    <glyph glyph-name="Deltagreek" unicode="&#x2206;" horiz-adv-x="1486" 
d="M1286 0h-1324l42 196l715 1247h446l163 -1249zM859 1128l-433 -814l-4 -19h528l4 18l-77 815h-18z" />
    <glyph glyph-name="Deltagreek" unicode="&#x394;" horiz-adv-x="1486" 
d="M1286 0h-1324l42 196l715 1247h446l163 -1249zM859 1128l-433 -814l-4 -19h528l4 18l-77 815h-18z" />
    <glyph glyph-name="Epsilongreek" unicode="&#x395;" horiz-adv-x="1302" 
d="M1103 295l-62 -295h-989l307 1443h988l-63 -295h-621l-61 -288h584l-57 -270h-584l-63 -295h621z" />
    <glyph glyph-name="Zetagreek" unicode="&#x396;" horiz-adv-x="1399" 
d="M13 0l50 233l845 896l1 19h-642l63 295h1105l-49 -233l-845 -896v-19h672l-62 -295h-1138z" />
    <glyph glyph-name="Etagreek" unicode="&#x397;" horiz-adv-x="1649" 
d="M1361 0h-369l124 582h-574l-124 -582h-366l307 1443h367l-120 -566h574l120 566h368z" />
    <glyph glyph-name="Thetagreek" unicode="&#x398;" horiz-adv-x="1726" 
d="M797 -39q-307 0 -484 169t-177 461q0 196 63 362t175.5 282.5t273 181.5t350.5 65q310 0 486.5 -168.5t176.5 -463.5q0 -195 -63.5 -360.5t-176 -282t-273.5 -181.5t-351 -65zM1291 836q0 168 -84 258t-240 90q-130 0 -235.5 -75.5t-165.5 -208.5t-60 -296
q0 -164 84 -254.5t239 -90.5q130 0 236 75.5t166 207.5t60 294zM1097 572h-462l60 288h462z" />
    <glyph glyph-name="Iotagreek" unicode="&#x399;" horiz-adv-x="707" 
d="M419 0h-367l307 1443h367z" />
    <glyph glyph-name="Kappagreek" unicode="&#x39a;" horiz-adv-x="1509" 
d="M419 0h-367l307 1443h366l-130 -609h20l600 609h422l-653 -660l347 -783h-409l-246 570l-173 -172z" />
    <glyph glyph-name="Lambdagreek" unicode="&#x39b;" horiz-adv-x="1531" 
d="M881 1117l-529 -1117h-394l786 1443h446l146 -1443h-397l-38 1117h-20z" />
    <glyph glyph-name="Mugreek" unicode="&#x39c;" horiz-adv-x="1924" 
d="M392 0h-340l307 1443h425l158 -885h19l537 885h445l-307 -1443h-339l193 911h-18l-492 -803h-227l-149 803h-18z" />
    <glyph glyph-name="Nugreek" unicode="&#x39d;" horiz-adv-x="1600" 
d="M404 0h-352l307 1443h260l449 -842h19l180 842h352l-307 -1443h-256l-456 834h-19z" />
    <glyph glyph-name="Xigreek" unicode="&#x39e;" horiz-adv-x="1389" 
d="M332 1443h1102l-65 -304h-1102zM1166 584h-929l59 279h928zM91 304h1101l-65 -304h-1101z" />
    <glyph glyph-name="Omicrongreek" unicode="&#x39f;" horiz-adv-x="1638" 
d="M779 -39q-147 0 -268.5 47.5t-203.5 130.5t-127 196.5t-45 245.5q0 196 61.5 365t167.5 286t252.5 183.5t313.5 66.5q149 0 271.5 -47.5t203 -130.5t124.5 -196.5t44 -245.5q0 -158 -39 -299t-111.5 -250t-170 -188.5t-219 -121.5t-254.5 -42zM919 1169
q-111 0 -205.5 -74.5t-149.5 -204t-55 -284.5q0 -152 76.5 -243.5t204.5 -91.5q170 0 290 163.5t120 401.5q0 152 -77 242.5t-204 90.5z" />
    <glyph glyph-name="Pigreek" unicode="&#x3a0;" horiz-adv-x="1629" 
d="M1341 0h-369l247 1148h-554l-247 -1148h-366l307 1443h1289z" />
    <glyph glyph-name="Rhogreek" unicode="&#x3a1;" horiz-adv-x="1402" 
d="M359 1443h538q234 0 369 -118.5t135 -316.5q0 -269 -176.5 -427t-472.5 -158h-242l-90 -423h-367zM666 1161l-98 -461h183q126 0 203.5 76.5t77.5 198.5q0 92 -54.5 139t-156.5 47h-155z" />
    <glyph glyph-name="Sigmagreek" unicode="&#x3a3;" horiz-adv-x="1377" 
d="M541 312l-4 -17h654l-64 -295h-1114l45 213l448 517l-216 464l54 249h1069l-63 -295h-603l-3 -17l155 -364l-13 -57z" />
    <glyph glyph-name="Taugreek" unicode="&#x3a4;" horiz-adv-x="1380" 
d="M756 0h-367l243 1148h-415l63 295h1198l-63 -295h-415z" />
    <glyph glyph-name="Upsilongreek" unicode="&#x3a5;" horiz-adv-x="1507" 
d="M820 0h-367l105 496l-296 947h383l159 -591h19l405 591h395l-699 -953z" />
    <glyph glyph-name="Phigreek" unicode="&#x3a6;" horiz-adv-x="1965" 
d="M670 -131l33 153q-276 35 -426.5 196.5t-150.5 403.5q0 158 59 295.5t168.5 241.5t275 169t368.5 76l33 151h332l-35 -159q271 -33 424 -193.5t153 -409.5q0 -157 -59.5 -294t-169.5 -240.5t-275 -168t-367 -75.5l-31 -146h-332zM763 303l174 821q-208 -26 -332 -156
t-124 -343q0 -135 74.5 -218.5t207.5 -103.5zM1093 294q213 27 334.5 158.5t121.5 340.5q0 136 -74.5 219.5t-206.5 102.5z" />
    <glyph glyph-name="Chigreek" unicode="&#x3a7;" horiz-adv-x="1549" 
d="M-30 0l613 741l-302 702h411l191 -462h19l342 462h407l-627 -735l317 -708h-407l-195 446h-19l-352 -446h-398z" />
    <glyph glyph-name="Psigreek" unicode="&#x3a8;" horiz-adv-x="1856" 
d="M982 0h-343l62 292q-246 19 -375 130.5t-129 306.5q0 58 14 125l124 589h345l-117 -552q-18 -82 -18 -122q0 -94 52.5 -139t164.5 -50l184 863h343l-186 -874q150 13 222 76t101 200l127 598h345l-135 -636q-54 -258 -225 -383.5t-496 -141.5z" />
    <glyph glyph-name="Omegagreek" unicode="&#x2126;" horiz-adv-x="1684" 
d="M835 0l76 354q153 68 240.5 205t87.5 313q0 140 -80.5 223t-220.5 83q-184 0 -302 -136.5t-118 -349.5q0 -109 47.5 -196.5t138.5 -141.5l-76 -354h-603l60 280h273l4 19q-99 62 -152 171.5t-53 242.5q0 227 105.5 402.5t291 271t420.5 95.5q290 0 465.5 -155.5
t175.5 -412.5q0 -193 -101 -362.5t-278 -252.5l-4 -19h289l-59 -280h-627z" />
    <glyph glyph-name="Omegagreek" unicode="&#x3a9;" horiz-adv-x="1684" 
d="M835 0l76 354q153 68 240.5 205t87.5 313q0 140 -80.5 223t-220.5 83q-184 0 -302 -136.5t-118 -349.5q0 -109 47.5 -196.5t138.5 -141.5l-76 -354h-603l60 280h273l4 19q-99 62 -152 171.5t-53 242.5q0 227 105.5 402.5t291 271t420.5 95.5q290 0 465.5 -155.5
t175.5 -412.5q0 -193 -101 -362.5t-278 -252.5l-4 -19h289l-59 -280h-627z" />
    <glyph glyph-name="Iotadieresisgreek" unicode="&#x3aa;" horiz-adv-x="707" 
d="M357 1589q-72 0 -123 49.5t-51 120.5q0 72 51 122t123 50t123 -50t51 -122q0 -71 -51 -120.5t-123 -49.5zM863 1589q-72 0 -123.5 49.5t-51.5 120.5q0 72 51.5 122t123.5 50t123 -50t51 -122q0 -71 -51 -120.5t-123 -49.5zM419 0h-367l307 1443h367z" />
    <glyph glyph-name="Upsilondieresisgreek" unicode="&#x3ab;" horiz-adv-x="1507" 
d="M753 1589q-72 0 -123 49.5t-51 120.5q0 72 51 122t123 50t123 -50t51 -122q0 -71 -51 -120.5t-123 -49.5zM1259 1589q-72 0 -123.5 49.5t-51.5 120.5q0 72 51.5 122t123.5 50t123 -50t51 -122q0 -71 -51 -120.5t-123 -49.5zM820 0h-367l105 496l-296 947h383l159 -591h19
l405 591h395l-699 -953z" />
    <glyph glyph-name="alphatonosgreek" unicode="&#x3ac;" horiz-adv-x="1416" 
d="M707 1260l116 359h295l-175 -359h-236zM421 -17q-169 0 -265.5 114t-96.5 313q0 207 69.5 371.5t194.5 256.5t282 92q124 0 202 -55.5t116 -172.5h19l45 211h345l-157 -741q-8 -37 -8 -59q0 -62 81 -62q29 0 59 9l-54 -250q-64 -20 -159 -20q-153 0 -219 45.5t-66 149.5
v11l-19 1q-49 -100 -148 -157t-221 -57zM589 261q116 0 195 107t79 265q0 104 -48 162t-132 58q-111 0 -188 -109t-77 -269q0 -98 47 -156t124 -58z" />
    <glyph glyph-name="epsilontonosgreek" unicode="&#x3ad;" horiz-adv-x="1251" 
d="M612 1260l115 359h295l-174 -359h-236zM521 -26q-238 0 -362.5 76.5t-124.5 228.5q0 102 66 177.5t179 106.5l4 19q-144 69 -144 198q0 168 149.5 263.5t405.5 95.5q257 0 385.5 -94.5t143.5 -286.5h-351q-10 64 -54 91.5t-144 27.5q-80 0 -128.5 -30t-48.5 -77
q0 -89 158 -89h141l-50 -241h-160q-87 0 -133 -27t-46 -79q0 -47 42.5 -73t122.5 -26q91 0 158 36.5t99 107.5h364q-44 -181 -231 -293t-441 -112z" />
    <glyph glyph-name="etatonosgreek" unicode="&#x3ae;" horiz-adv-x="1411" 
d="M671 1268l116 359h295l-175 -359h-236zM740 -368l211 992q7 36 7 74q0 68 -42.5 110t-113.5 42q-76 0 -134.5 -53.5t-77.5 -140.5l-141 -656h-353l156 734q8 40 8 59q0 36 -18.5 52.5t-58.5 16.5q-37 0 -62 -9l54 250q63 20 179 20q133 0 196 -49t73 -149l3 -17h19
q55 107 147 164.5t214 57.5q142 0 232 -88.5t90 -232.5q0 -62 -14 -134l-222 -1043h-352z" />
    <glyph glyph-name="iotatonosgreek" unicode="&#x3af;" horiz-adv-x="743" 
d="M324 1260l116 359h294l-174 -359h-236zM590 1113l-153 -721q-5 -21 -5 -47q0 -86 113 -86q65 0 96 4l-55 -255q-63 -10 -181 -10q-346 0 -346 240q0 46 11 96l165 779h355z" />
    <glyph glyph-name="upsilondieresistonosgreek" unicode="&#x3b0;" horiz-adv-x="1281" 
d="M621 1260l93 359h292l-149 -359h-236zM398 1258q-65 0 -110 43.5t-45 106.5t45 106.5t110 43.5q63 0 107.5 -43.5t44.5 -106.5t-44.5 -106.5t-107.5 -43.5zM1190 1258q-63 0 -108 43.5t-45 106.5t45 106.5t108 43.5q64 0 109 -43.5t45 -106.5t-45 -106.5t-109 -43.5z
M838 1113h330q34 -115 34 -280q0 -424 -167 -641.5t-490 -217.5q-217 0 -337 97.5t-120 273.5q0 70 28 203l118 565h331l-127 -605q-13 -61 -13 -107q0 -70 38 -103.5t117 -33.5q138 0 211 146t73 417q0 162 -26 286z" />
    <glyph glyph-name="alphagreek" unicode="&#x3b1;" horiz-adv-x="1416" 
d="M421 -17q-169 0 -265.5 114t-96.5 313q0 207 69.5 371.5t194.5 256.5t282 92q124 0 202 -55.5t116 -172.5h19l45 211h345l-157 -741q-8 -37 -8 -59q0 -62 81 -62q29 0 59 9l-54 -250q-64 -20 -159 -20q-153 0 -219 45.5t-66 149.5v11l-19 1q-49 -100 -148 -157t-221 -57z
M589 261q116 0 195 107t79 265q0 104 -48 162t-132 58q-111 0 -188 -109t-77 -269q0 -98 47 -156t124 -58z" />
    <glyph glyph-name="betagreek" unicode="&#x3b2;" horiz-adv-x="1361" 
d="M216 993q63 297 205 430t399 133q213 0 342 -101.5t129 -273.5q0 -116 -69 -205.5t-198 -141.5l-3 -19q128 -36 196 -121t68 -213q0 -220 -145.5 -359t-373.5 -139q-127 0 -215.5 55t-128.5 162h-20l-121 -568h-353zM614 682l53 249h66q104 0 163.5 56t59.5 155
q0 69 -40 106.5t-117 37.5q-85 0 -138 -54.5t-78 -172.5l-106 -494q-11 -50 -11 -90q0 -102 57.5 -158t161.5 -56t169 63t65 163q0 92 -60.5 143.5t-168.5 51.5h-76z" />
    <glyph glyph-name="gammagreek" unicode="&#x3b3;" horiz-adv-x="1273" 
d="M1263 1113q3 -13 3 -50q0 -239 -144 -496.5t-472 -614.5l-67 -317h-354l59 277l-142 1201h359l62 -803h20q162 202 253.5 401.5t91.5 352.5q0 44 -1 49h332z" />
    <glyph glyph-name="deltagreek" unicode="&#x3b4;" horiz-adv-x="1265" 
d="M551 -26q-236 0 -375 120.5t-139 328.5q0 212 130 367t342 193l5 21q-149 87 -149 228q0 148 122 236t329 88q130 0 250 -29.5t190 -78.5l-62 -233q-175 94 -332 94q-61 0 -91 -24t-30 -64q0 -29 21.5 -55.5t76.5 -61.5q200 -139 279 -259.5t79 -274.5q0 -165 -84 -302
t-232.5 -215.5t-329.5 -78.5zM565 221q112 0 184.5 106t72.5 267q0 97 -43.5 152.5t-119.5 55.5q-110 0 -184 -107t-74 -270q0 -96 43.5 -150t120.5 -54z" />
    <glyph glyph-name="epsilongreek" unicode="&#x3b5;" horiz-adv-x="1251" 
d="M521 -26q-238 0 -362.5 76.5t-124.5 228.5q0 102 66 177.5t179 106.5l4 19q-144 69 -144 198q0 168 149.5 263.5t405.5 95.5q257 0 385.5 -94.5t143.5 -286.5h-351q-10 64 -54 91.5t-144 27.5q-80 0 -128.5 -30t-48.5 -77q0 -89 158 -89h141l-50 -241h-160
q-87 0 -133 -27t-46 -79q0 -47 42.5 -73t122.5 -26q91 0 158 36.5t99 107.5h364q-44 -181 -231 -293t-441 -112z" />
    <glyph glyph-name="zetagreek" unicode="&#x3b6;" horiz-adv-x="1055" 
d="M719 -385l-230 89q64 69 89 115.5t25 94.5q0 50 -32 81.5t-124 77.5q-219 112 -305.5 217.5t-86.5 255.5q0 197 131 362.5t403 323.5l4 18h-351l62 280h836l12 -223q-360 -184 -548.5 -360.5t-188.5 -332.5q0 -88 44 -137.5t180 -116.5q173 -86 235 -159t62 -182
q0 -181 -217 -404z" />
    <glyph glyph-name="etagreek" unicode="&#x3b7;" horiz-adv-x="1411" 
d="M740 -368l211 992q7 36 7 74q0 68 -42.5 110t-113.5 42q-76 0 -134.5 -53.5t-77.5 -140.5l-141 -656h-353l156 734q8 40 8 59q0 36 -18.5 52.5t-58.5 16.5q-37 0 -62 -9l54 250q63 20 179 20q133 0 196 -49t73 -149l3 -17h19q55 107 147 164.5t214 57.5q142 0 232 -88.5
t90 -232.5q0 -62 -14 -134l-222 -1043h-352z" />
    <glyph glyph-name="thetagreek" unicode="&#x3b8;" horiz-adv-x="1336" 
d="M589 -26q-248 0 -375.5 137t-127.5 404q0 121 27 273q66 377 243 572.5t452 195.5q245 0 373 -138t128 -404q0 -118 -26 -267q-63 -383 -239.5 -578t-454.5 -195zM493 900h454q14 78 14 150q0 125 -44 191t-127 66q-217 0 -297 -407zM601 225q114 0 187 99.5t113 311.5
h-455q-18 -104 -18 -169q0 -117 43.5 -179.5t129.5 -62.5z" />
    <glyph glyph-name="iotagreek" unicode="&#x3b9;" horiz-adv-x="743" 
d="M590 1113l-153 -721q-5 -21 -5 -47q0 -86 113 -86q65 0 96 4l-55 -255q-63 -10 -181 -10q-346 0 -346 240q0 46 11 96l165 779h355z" />
    <glyph glyph-name="kappagreek" unicode="&#x3ba;" horiz-adv-x="1312" 
d="M1173 1123q95 0 148 -20l-52 -250q-32 9 -65 9q-39 0 -71 -15.5t-78 -61.5l-175 -175l260 -610h-336l-180 433l-220 -199l-47 -234h-346l236 1113h347l-96 -452h19l306 298q103 99 172.5 131.5t177.5 32.5z" />
    <glyph glyph-name="lambdagreek" unicode="&#x3bb;" horiz-adv-x="1262" 
d="M1122 243q38 0 58 10l-53 -243q-60 -20 -166 -20q-135 0 -196.5 55t-76.5 188l-42 346h-19l-343 -579h-368l675 1051l-12 77q-15 99 -54 133t-125 34q-46 0 -73 -9l55 250q22 7 66.5 13.5t76.5 6.5q94 0 153.5 -18t103 -68t67.5 -129t43 -209l107 -763q10 -73 36 -99.5
t87 -26.5z" />
    <glyph glyph-name="nugreek" unicode="&#x3bd;" horiz-adv-x="1273" 
d="M1263 1113q3 -14 3 -50q0 -231 -135 -476.5t-438 -586.5h-415l-132 1113h359l62 -803h20q160 198 252.5 400t92.5 354q0 44 -1 49h332z" />
    <glyph glyph-name="xigreek" unicode="&#x3be;" horiz-adv-x="1082" 
d="M699 -385l-230 89q65 70 89.5 116t24.5 94q0 49 -31 81.5t-124 77.5q-161 80 -245.5 139.5t-118 116t-33.5 133.5q0 118 76 193t216 107l5 18q-132 66 -132 205q0 189 224 247l3 18h-180l59 280h793l15 -260l-193 -18q-184 -16 -268.5 -62.5t-84.5 -123.5q0 -60 58 -87
t180 -27h169l-57 -265h-259q-116 0 -181 -35t-65 -104q0 -51 41 -87.5t175 -103.5q169 -86 230.5 -157.5t61.5 -180.5q0 -95 -53 -192.5t-165 -211.5z" />
    <glyph glyph-name="omicrongreek" unicode="&#x3bf;" horiz-adv-x="1337" 
d="M735 1139q235 0 375.5 -135.5t140.5 -362.5q0 -141 -49 -264.5t-134.5 -212t-205.5 -139.5t-256 -51q-235 0 -377.5 136t-142.5 361q0 188 84.5 341t233.5 240t331 87zM620 246q108 0 186 115t78 273q0 111 -43.5 173t-120.5 62q-112 0 -189.5 -115.5t-77.5 -279.5
q0 -107 44.5 -167.5t122.5 -60.5z" />
    <glyph glyph-name="pigreek" unicode="&#x3c0;" horiz-adv-x="1554" 
d="M832 315l108 518h-274l-177 -833h-337l177 833h-224l60 280h1406l-60 -280h-234l-94 -454q-7 -32 -7 -52q0 -76 99 -76q32 0 59 9l-55 -250q-63 -20 -158 -20q-147 0 -224 60.5t-77 172.5q0 39 12 92z" />
    <glyph glyph-name="rhogreek" unicode="&#x3c1;" horiz-adv-x="1339" 
d="M777 1139q233 0 366 -125t133 -338q0 -189 -74.5 -348.5t-203.5 -252t-282 -92.5q-112 0 -195 59.5t-109 157.5h-19l-122 -568h-354l183 858q75 351 234 500t443 149zM642 261q116 0 191.5 107t75.5 282q0 105 -45.5 162t-130.5 57q-119 0 -194.5 -112.5t-75.5 -290.5
q0 -205 179 -205z" />
    <glyph glyph-name="sigmafinalgreek" unicode="&#x3c2;" horiz-adv-x="1199" 
d="M953 19q0 -182 -218 -404l-230 89q64 69 89 115.5t25 94.5q0 49 -31 81t-124 78q-220 110 -305.5 215.5t-85.5 271.5q0 256 169 417.5t459 161.5q224 0 354 -120t132 -316h-327q-5 76 -50.5 119.5t-120.5 43.5q-113 0 -179 -70t-66 -189q0 -84 43.5 -134.5t167.5 -112.5
q173 -85 235.5 -158t62.5 -183z" />
    <glyph glyph-name="sigmagreek" unicode="&#x3c3;" horiz-adv-x="1424" 
d="M571 -26q-234 0 -371 129t-137 355q0 185 81.5 333.5t235 235t352.5 86.5h728l-60 -280h-258l-3 -19q62 -97 62 -200q0 -175 -75.5 -319.5t-220.5 -232.5t-334 -88zM596 238q114 0 187.5 108.5t73.5 269.5q0 214 -161 214q-114 0 -190.5 -108.5t-76.5 -269.5
q0 -214 167 -214z" />
    <glyph glyph-name="taugreek" unicode="&#x3c4;" horiz-adv-x="1183" 
d="M876 263l-56 -255q-59 -10 -175 -10q-346 0 -346 240q0 46 11 96l105 499h-328l61 280h1065l-61 -280h-382l-93 -441q-5 -21 -5 -47q0 -86 114 -86q57 0 90 4z" />
    <glyph glyph-name="upsilongreek" unicode="&#x3c5;" horiz-adv-x="1281" 
d="M838 1113h330q34 -115 34 -280q0 -424 -167 -641.5t-490 -217.5q-217 0 -337 97.5t-120 273.5q0 70 28 203l118 565h331l-127 -605q-13 -61 -13 -107q0 -70 38 -103.5t117 -33.5q138 0 211 146t73 417q0 162 -26 286z" />
    <glyph glyph-name="phigreek" unicode="&#x3c6;" horiz-adv-x="1698" 
d="M496 -368l73 344q-228 16 -366.5 148t-138.5 332q0 149 55.5 276.5t154 217.5t238.5 141t304 51l45 211h321l-47 -218q226 -15 363 -148.5t137 -334.5q0 -199 -94.5 -354.5t-265 -241.5t-388.5 -86l-71 -338h-320zM631 239l138 640q-168 -4 -267 -111t-99 -283
q0 -110 59 -173.5t169 -72.5zM932 233q168 5 265.5 110t97.5 280q0 110 -58.5 175.5t-166.5 74.5z" />
    <glyph glyph-name="chigreek" unicode="&#x3c7;" horiz-adv-x="1301" 
d="M897 -378q-109 0 -172.5 44.5t-96.5 140.5l-92 268h-19l-309 -443h-343l570 752l-131 361q-26 70 -52 94t-72 24q-32 0 -63 -9l55 250q70 19 164 19q107 0 167 -44t94 -147l88 -273h16l325 454h349l-579 -759l119 -343q28 -80 55.5 -104t80.5 -24q36 0 66 8l-56 -249
q-64 -20 -164 -20z" />
    <glyph glyph-name="psigreek" unicode="&#x3c8;" horiz-adv-x="1713" 
d="M815 -368h-332l72 342q-231 5 -351 99t-120 271q0 62 19 154l131 615h329l-120 -565q-21 -100 -21 -141q0 -75 45.5 -108t149.5 -35l232 1089h332l-232 -1090q179 2 263.5 135t84.5 421q0 162 -27 294h330q35 -110 35 -266q0 -446 -180.5 -660.5t-567.5 -214.5z" />
    <glyph glyph-name="omegagreek" unicode="&#x3c9;" horiz-adv-x="1721" 
d="M1635 647q0 -190 -68.5 -344.5t-189.5 -241.5t-270 -87q-134 0 -206.5 53t-95.5 170h-20q-101 -223 -358 -223q-176 0 -271.5 109t-95.5 310q0 189 79 384.5t212 335.5h340q-138 -159 -214.5 -339t-76.5 -349q0 -78 30.5 -119t88.5 -41q123 0 157 157l80 374h312
l-77 -363q-6 -24 -6 -58q0 -53 27 -81.5t78 -28.5q95 0 152.5 103t57.5 281q0 256 -127 464h341q121 -188 121 -466z" />
    <glyph glyph-name="iotadieresisgreek" unicode="&#x3ca;" horiz-adv-x="743" 
d="M229 1271q-72 0 -123 49.5t-51 121.5t51 121.5t123 49.5q73 0 123.5 -49.5t50.5 -121.5t-50.5 -121.5t-123.5 -49.5zM735 1271q-72 0 -123 49.5t-51 121.5t51 121.5t123 49.5t123 -49.5t51 -121.5t-51 -121.5t-123 -49.5zM590 1113l-153 -721q-5 -21 -5 -47
q0 -86 113 -86q65 0 96 4l-55 -255q-63 -10 -181 -10q-346 0 -346 240q0 46 11 96l165 779h355z" />
    <glyph glyph-name="upsilondieresisgreek" unicode="&#x3cb;" horiz-adv-x="1281" 
d="M531 1271q-72 0 -123 49.5t-51 121.5t51 121.5t123 49.5q73 0 123.5 -49.5t50.5 -121.5t-50.5 -121.5t-123.5 -49.5zM1037 1271q-72 0 -123 49.5t-51 121.5t51 121.5t123 49.5q73 0 123.5 -49.5t50.5 -121.5t-50.5 -121.5t-123.5 -49.5zM838 1113h330q34 -115 34 -280
q0 -424 -167 -641.5t-490 -217.5q-217 0 -337 97.5t-120 273.5q0 70 28 203l118 565h331l-127 -605q-13 -61 -13 -107q0 -70 38 -103.5t117 -33.5q138 0 211 146t73 417q0 162 -26 286z" />
    <glyph glyph-name="omicrontonosgreek" unicode="&#x3cc;" horiz-adv-x="1337" 
d="M645 1260l116 359h295l-175 -359h-236zM735 1139q235 0 375.5 -135.5t140.5 -362.5q0 -141 -49 -264.5t-134.5 -212t-205.5 -139.5t-256 -51q-235 0 -377.5 136t-142.5 361q0 188 84.5 341t233.5 240t331 87zM620 246q108 0 186 115t78 273q0 111 -43.5 173t-120.5 62
q-112 0 -189.5 -115.5t-77.5 -279.5q0 -107 44.5 -167.5t122.5 -60.5z" />
    <glyph glyph-name="upsilontonosgreek" unicode="&#x3cd;" horiz-adv-x="1281" 
d="M626 1260l116 359h294l-174 -359h-236zM838 1113h330q34 -115 34 -280q0 -424 -167 -641.5t-490 -217.5q-217 0 -337 97.5t-120 273.5q0 70 28 203l118 565h331l-127 -605q-13 -61 -13 -107q0 -70 38 -103.5t117 -33.5q138 0 211 146t73 417q0 162 -26 286z" />
    <glyph glyph-name="omegatonosgreek" unicode="&#x3ce;" horiz-adv-x="1721" 
d="M845 1260l116 359h295l-175 -359h-236zM1635 647q0 -190 -68.5 -344.5t-189.5 -241.5t-270 -87q-134 0 -206.5 53t-95.5 170h-20q-101 -223 -358 -223q-176 0 -271.5 109t-95.5 310q0 189 79 384.5t212 335.5h340q-138 -159 -214.5 -339t-76.5 -349q0 -78 30.5 -119
t88.5 -41q123 0 157 157l80 374h312l-77 -363q-6 -24 -6 -58q0 -53 27 -81.5t78 -28.5q95 0 152.5 103t57.5 281q0 256 -127 464h341q121 -188 121 -466z" />
    <glyph glyph-name="uni0400" unicode="&#x400;" horiz-adv-x="1322" 
d="M798 1597l-132 335h313l56 -335h-237zM1113 295l-62 -295h-989l307 1443h988l-63 -295h-621l-61 -288h584l-57 -270h-584l-63 -295h621z" />
    <glyph glyph-name="Iocyrillic" unicode="&#x401;" horiz-adv-x="1322" 
d="M677 1589q-72 0 -123 49.5t-51 120.5q0 72 51 122t123 50q73 0 124 -50t51 -122q0 -71 -51 -120.5t-124 -49.5zM1183 1589q-72 0 -123 49.5t-51 120.5q0 72 51 122t123 50q73 0 124 -50t51 -122q0 -71 -51 -120.5t-124 -49.5zM1113 295l-62 -295h-989l307 1443h988
l-63 -295h-621l-61 -288h584l-57 -270h-584l-63 -295h621z" />
    <glyph glyph-name="Djecyrillic" unicode="&#x402;" horiz-adv-x="1824" 
d="M373 0l244 1148h-401l64 295h1168l-63 -295h-401l-74 -350h17q131 108 312 108q219 0 340 -121t121 -315q0 -113 -45.5 -215t-126.5 -179.5t-202.5 -123.5t-264.5 -46q-56 0 -101 4t-62 8l-16 5l58 277q34 -11 121 -11q113 0 185.5 66t72.5 163q0 84 -54.5 132.5
t-153.5 48.5q-83 0 -157 -40t-116 -97l-98 -462h-367z" />
    <glyph glyph-name="Gjecyrillic" unicode="&#x403;" horiz-adv-x="1262" 
d="M984 1597h-236l198 335h312zM430 0h-367l307 1443h971l-63 -295h-602z" />
    <glyph glyph-name="Ecyrillic" unicode="&#x404;" horiz-adv-x="1576" 
d="M1459 508q-57 -251 -247.5 -399t-459.5 -148q-293 0 -454.5 188t-141.5 515q9 240 108.5 425.5t273.5 289t396 103.5q171 0 309 -67t217 -187.5t80 -272.5v-27h-359q-6 113 -78 179t-186 66q-125 0 -226 -85t-138 -224h530l-58 -272h-507q-6 -151 69.5 -238t203.5 -87
q110 0 191 64.5t119 176.5h358z" />
    <glyph glyph-name="Dzecyrillic" unicode="&#x405;" horiz-adv-x="1427" 
d="M76 416h350q10 -78 84 -127.5t176 -49.5q108 0 175.5 45t67.5 117q0 54 -43 89t-149 67l-156 47q-167 50 -257 154t-90 250q0 205 170 339.5t429 134.5q254 0 411.5 -127.5t159.5 -331.5h-339q-7 79 -75.5 130.5t-169.5 51.5q-92 0 -155 -44t-63 -110q0 -55 41.5 -94.5
t132.5 -66.5l158 -46q187 -55 273 -149t86 -244q0 -222 -173.5 -356t-458.5 -134q-261 0 -421 122.5t-164 332.5z" />
    <glyph glyph-name="Icyrillic" unicode="&#x406;" horiz-adv-x="727" 
d="M429 0h-367l307 1443h367z" />
    <glyph glyph-name="Yicyrillic" unicode="&#x407;" horiz-adv-x="727" 
d="M367 1589q-72 0 -123 49.5t-51 120.5q0 72 51 122t123 50t123 -50t51 -122q0 -71 -51 -120.5t-123 -49.5zM873 1589q-72 0 -123.5 49.5t-51.5 120.5q0 72 51.5 122t123.5 50t123 -50t51 -122q0 -71 -51 -120.5t-123 -49.5zM429 0h-367l307 1443h367z" />
    <glyph glyph-name="Jecyrillic" unicode="&#x408;" horiz-adv-x="1315" 
d="M53 400q0 22 3 43h351v-13q1 -70 43 -112t114 -42q144 0 185 186l209 981h366l-218 -1027q-47 -221 -187 -338t-362 -117q-229 0 -367.5 121t-136.5 318z" />
    <glyph glyph-name="Ljecyrillic" unicode="&#x409;" horiz-adv-x="2288" 
d="M651 586q-40 -153 -86.5 -258t-115 -185.5t-163.5 -118.5t-223 -38q-82 0 -126 14l68 315q40 -8 72 -8q90 0 148 80.5t95 225.5l215 830h1057l-93 -438h169q240 0 374.5 -117t134.5 -327q0 -250 -176 -405.5t-468 -155.5h-616l245 1148h-363zM1592 723h-153l-95 -445h188
q123 0 201 70t78 180q0 95 -58 145t-161 50z" />
    <glyph glyph-name="Njecyrillic" unicode="&#x40a;" horiz-adv-x="2315" 
d="M946 0l129 605h-517l-129 -605h-366l307 1443h367l-118 -551h517l117 551h368l-117 -550h193q233 0 365.5 -103t132.5 -282q0 -227 -172 -367.5t-462 -140.5h-615zM1373 278h195q116 0 187 54t71 141q0 72 -52 108.5t-145 36.5h-184z" />
    <glyph glyph-name="Tshecyrillic" unicode="&#x40b;" horiz-adv-x="1840" 
d="M1106 599q-81 0 -151 -38.5t-117 -98.5l-98 -462h-368l244 1148h-400l63 295h1168l-63 -295h-401l-74 -350h18q60 48 143.5 78t178.5 30q100 0 179 -28t128 -77.5t79 -118t31.5 -148.5t-15.5 -170l-77 -364h-368l78 364q22 105 -23.5 170t-154.5 65z" />
    <glyph glyph-name="Kjecyrillic" unicode="&#x40c;" horiz-adv-x="1522" 
d="M1097 1597h-236l198 335h312zM610 849h50l558 594h423l-697 -733l402 -710h-409l-333 572h-54l-121 -572h-367l307 1443h367z" />
    <glyph glyph-name="uni040D" unicode="&#x40d;" horiz-adv-x="1691" 
d="M969 1597l-132 335h312l56 -335h-236zM1024 0l188 882h-19l-772 -882h-358l307 1443h368l-189 -883h19l772 883h359l-307 -1443h-368z" />
    <glyph glyph-name="Ushortcyrillic" unicode="&#x40e;" horiz-adv-x="1477" 
d="M1001 1581q-100 0 -179 30.5t-124 81t-65 112.5t-12 127h231q-6 -75 35.5 -118.5t121.5 -43.5q152 0 184 162h230q-19 -160 -130.5 -255.5t-291.5 -95.5zM303 -15q-36 0 -69.5 3.5t-50 7.5t-17.5 5l61 290q27 -9 87 -9q119 0 193 81l-238 1080h384l115 -730h19l411 730
h395l-667 -1040q-68 -105 -129 -177t-135.5 -129.5t-163 -84.5t-195.5 -27z" />
    <glyph glyph-name="Dzhecyrillic" unicode="&#x40f;" horiz-adv-x="1657" 
d="M1358 0h-475l-61 -285h-345l61 285h-475l307 1443h366l-244 -1148h561l245 1148h367z" />
    <glyph glyph-name="Acyrillic" unicode="&#x410;" horiz-adv-x="1584" 
d="M1000 0l-22 317h-473l-162 -317h-379l807 1443h445l167 -1443h-383zM908 1117l-274 -536h333l-39 536h-20z" />
    <glyph glyph-name="Becyrillic" unicode="&#x411;" horiz-adv-x="1442" 
d="M679 0h-616l307 1443h1022l-63 -295h-653l-49 -230h187q240 0 374.5 -103t134.5 -288q0 -235 -176 -381t-468 -146zM490 278h188q123 0 201 60.5t78 155.5q0 76 -54 116.5t-152 40.5h-181z" />
    <glyph glyph-name="Vecyrillic" unicode="&#x412;" horiz-adv-x="1464" 
d="M799 0h-745l307 1443h637q186 0 301 -85.5t115 -223.5q0 -144 -95.5 -249t-238.5 -120l-1 -19q122 -23 193 -101t71 -189q0 -199 -153 -327.5t-391 -128.5zM676 1193l-70 -330h208q102 0 168 54.5t66 138.5q0 65 -46.5 101t-131.5 36h-194zM478 267h245q112 0 183 60
t71 156q0 74 -53 115.5t-149 41.5h-218z" />
    <glyph glyph-name="Gecyrillic" unicode="&#x413;" horiz-adv-x="1262" 
d="M430 0h-367l307 1443h971l-63 -295h-602z" />
    <glyph glyph-name="Decyrillic" unicode="&#x414;" horiz-adv-x="1649" 
d="M251 0l-61 -285h-329l124 581h98q80 55 126 140t90 243l210 764h1094l-244 -1147h180l-124 -581h-329l61 285h-896zM627 644q-68 -244 -156 -329l-3 -19h524l181 853h-405z" />
    <glyph glyph-name="Iecyrillic" unicode="&#x415;" horiz-adv-x="1322" 
d="M1113 295l-62 -295h-989l307 1443h988l-63 -295h-621l-61 -288h584l-57 -270h-584l-63 -295h621z" />
    <glyph glyph-name="Zhecyrillic" unicode="&#x416;" horiz-adv-x="2231" 
d="M885 572l-512 -572h-433l676 761l-314 682h377l267 -599h54l127 599h359l-127 -599h54l522 599h422l-659 -744l339 -699h-410l-270 572h-56l-122 -572h-359l122 572h-57z" />
    <glyph glyph-name="Zecyrillic" unicode="&#x417;" horiz-adv-x="1409" 
d="M514 599l59 275h205q103 0 168.5 50t65.5 129q0 73 -48 113.5t-137 40.5q-98 0 -170 -51t-93 -136h-334q44 214 212 338t419 124q242 0 376 -105t134 -272q0 -147 -97.5 -246t-251.5 -121l-5 -19q124 -19 193 -92.5t69 -190.5q0 -96 -44 -181.5t-124 -151t-201 -104
t-267 -38.5q-277 0 -426.5 131.5t-132.5 353.5h345q-5 -90 53 -143.5t172 -53.5q111 0 180.5 55.5t69.5 137.5q0 157 -204 157h-186z" />
    <glyph glyph-name="Iicyrillic" unicode="&#x418;" horiz-adv-x="1691" 
d="M1024 0l188 882h-19l-772 -882h-358l307 1443h368l-189 -883h19l772 883h359l-307 -1443h-368z" />
    <glyph glyph-name="Iishortcyrillic" unicode="&#x419;" horiz-adv-x="1691" 
d="M1110 1581q-100 0 -179 30.5t-124 81t-65 112.5t-12 127h231q-7 -75 35 -118.5t122 -43.5q150 0 184 162h230q-20 -160 -131 -255.5t-291 -95.5zM1024 0l188 882h-19l-772 -882h-358l307 1443h368l-189 -883h19l772 883h359l-307 -1443h-368z" />
    <glyph glyph-name="Kacyrillic" unicode="&#x41a;" horiz-adv-x="1522" 
d="M610 849h50l558 594h423l-697 -733l402 -710h-409l-333 572h-54l-121 -572h-367l307 1443h367z" />
    <glyph glyph-name="Elcyrillic" unicode="&#x41b;" horiz-adv-x="1586" 
d="M1287 0h-367l243 1148h-364l-148 -562q-32 -119 -66.5 -208.5t-84 -166t-110 -124.5t-143 -74.5t-184.5 -26.5q-82 0 -126 14l67 315q40 -8 73 -8q88 0 146.5 80t96.5 226l215 830h1059z" />
    <glyph glyph-name="Emcyrillic" unicode="&#x41c;" horiz-adv-x="1944" 
d="M402 0h-340l307 1443h425l158 -885h19l537 885h445l-307 -1443h-339l193 911h-18l-492 -803h-227l-149 803h-18z" />
    <glyph glyph-name="Encyrillic" unicode="&#x41d;" horiz-adv-x="1669" 
d="M1371 0h-369l124 582h-574l-124 -582h-366l307 1443h367l-120 -566h574l120 566h368z" />
    <glyph glyph-name="Ocyrillic" unicode="&#x41e;" horiz-adv-x="1658" 
d="M789 -39q-147 0 -268.5 47.5t-203.5 130.5t-127 196.5t-45 245.5q0 196 61.5 365t167.5 286t252.5 183.5t313.5 66.5q149 0 271.5 -47.5t203 -130.5t124.5 -196.5t44 -245.5q0 -158 -39 -299t-111.5 -250t-170 -188.5t-219 -121.5t-254.5 -42zM929 1169
q-111 0 -205.5 -74.5t-149.5 -204t-55 -284.5q0 -152 76.5 -243.5t204.5 -91.5q170 0 290 163.5t120 401.5q0 152 -77 242.5t-204 90.5z" />
    <glyph glyph-name="Pecyrillic" unicode="&#x41f;" horiz-adv-x="1657" 
d="M1358 0h-366l243 1148h-561l-244 -1148h-367l307 1443h1295z" />
    <glyph glyph-name="Ercyrillic" unicode="&#x420;" horiz-adv-x="1422" 
d="M369 1443h538q234 0 369 -118.5t135 -316.5q0 -269 -176.5 -427t-472.5 -158h-242l-90 -423h-367zM676 1161l-98 -461h183q126 0 203.5 76.5t77.5 198.5q0 92 -54.5 139t-156.5 47h-155z" />
    <glyph glyph-name="Escyrillic" unicode="&#x421;" horiz-adv-x="1589" 
d="M1199 908q1 3 1 19q-3 110 -77 178.5t-191 68.5q-116 0 -211 -75t-149.5 -208t-54.5 -296q0 -151 73.5 -239t199.5 -88q112 0 200.5 62.5t122.5 165.5h356q-44 -242 -237.5 -388.5t-469.5 -146.5q-282 0 -450 167t-168 446q0 263 103.5 470.5t288 322.5t418.5 115
q167 0 305 -68t217 -186.5t79 -261.5q0 -30 -4 -58h-352z" />
    <glyph glyph-name="Tecyrillic" unicode="&#x422;" horiz-adv-x="1400" 
d="M766 0h-367l243 1148h-415l63 295h1198l-63 -295h-415z" />
    <glyph glyph-name="Ucyrillic" unicode="&#x423;" horiz-adv-x="1477" 
d="M303 -15q-36 0 -69.5 3.5t-50 7.5t-17.5 5l61 290q27 -9 87 -9q119 0 193 81l-238 1080h384l115 -730h19l411 730h395l-667 -1040q-68 -105 -129 -177t-135.5 -129.5t-163 -84.5t-195.5 -27z" />
    <glyph glyph-name="Efcyrillic" unicode="&#x424;" horiz-adv-x="1954" 
d="M1032 -35h-362l32 155q-260 10 -411.5 150.5t-151.5 370.5q0 300 222.5 485.5t596.5 198.5l33 153h363l-32 -153q261 -10 412.5 -150.5t151.5 -373.5q0 -297 -223.5 -482.5t-597.5 -198.5zM515 655q0 -111 65.5 -176.5t185.5 -72.5l135 634q-169 -10 -277.5 -117
t-108.5 -268zM1510 782q0 116 -65.5 182.5t-186.5 74.5l-135 -633q170 10 278.5 115.5t108.5 260.5z" />
    <glyph glyph-name="Xacyrillic" unicode="&#x425;" horiz-adv-x="1569" 
d="M-20 0l613 741l-302 702h411l191 -462h19l342 462h407l-627 -735l317 -708h-407l-195 446h-19l-352 -446h-398z" />
    <glyph glyph-name="Tsecyrillic" unicode="&#x426;" horiz-adv-x="1711" 
d="M1477 -285h-329l61 285h-1146l307 1443h367l-245 -1148h562l244 1148h367l-244 -1148h180z" />
    <glyph glyph-name="Checyrillic" unicode="&#x427;" horiz-adv-x="1573" 
d="M1274 0h-368l116 550h-19q-115 -72 -305 -72q-174 0 -289.5 76.5t-157 210t-5.5 303.5l79 375h367l-81 -378q-29 -132 24 -205.5t185 -73.5q179 0 269 82l124 575h368z" />
    <glyph glyph-name="Shacyrillic" unicode="&#x428;" horiz-adv-x="2163" 
d="M63 0l307 1443h367l-245 -1148h350l245 1148h367l-244 -1148h350l244 1148h368l-307 -1443h-1802z" />
    <glyph glyph-name="Shchacyrillic" unicode="&#x429;" horiz-adv-x="2216" 
d="M63 0l307 1443h367l-245 -1148h350l245 1148h367l-244 -1148h350l244 1148h368l-245 -1148h182l-129 -580h-330l64 285h-1651z" />
    <glyph glyph-name="Hardsigncyrillic" unicode="&#x42a;" horiz-adv-x="1680" 
d="M925 0h-615l245 1149h-338l63 294h704l-93 -438h170q240 0 374.5 -117t134.5 -327q0 -250 -176 -405.5t-469 -155.5zM985 723h-153l-95 -445h188q122 0 200 70t78 180q0 95 -57.5 145t-160.5 50z" />
    <glyph glyph-name="Yericyrillic" unicode="&#x42b;" horiz-adv-x="2124" 
d="M63 0l307 1443h367l-93 -438h169q240 0 375 -117t135 -327q0 -250 -176 -405.5t-469 -155.5h-615zM1833 0h-367l307 1443h367zM737 723h-153l-95 -445h188q123 0 201 70t78 180q0 95 -58 145t-161 50z" />
    <glyph glyph-name="Softsigncyrillic" unicode="&#x42c;" horiz-adv-x="1433" 
d="M63 0l307 1443h367l-93 -438h169q240 0 375 -117t135 -327q0 -250 -176 -405.5t-469 -155.5h-615zM737 723h-153l-95 -445h188q123 0 201 70t78 180q0 95 -58 145t-161 50z" />
    <glyph glyph-name="Ereversedcyrillic" unicode="&#x42d;" horiz-adv-x="1569" 
d="M713 -39q-267 0 -433 150.5t-171 396.5h358q9 -111 80 -174.5t183 -63.5q133 0 233 87.5t135 234.5h-535l60 272h508q2 146 -72 229t-203 83q-113 0 -193 -65t-118 -183h-358q57 258 246.5 406t461.5 148q293 0 454.5 -188t141.5 -515q-10 -240 -109.5 -425.5
t-273.5 -289t-395 -103.5z" />
    <glyph glyph-name="IUcyrillic" unicode="&#x42e;" horiz-adv-x="2247" 
d="M1389 -39q-283 0 -451 165t-175 456h-210l-124 -582h-366l307 1443h367l-121 -566h182q72 274 274.5 439.5t478.5 165.5q287 0 456.5 -173.5t169.5 -469.5q0 -248 -100 -448.5t-280.5 -315t-407.5 -114.5zM1806 824q0 164 -73 259.5t-194 95.5q-109 0 -202.5 -75
t-148 -204.5t-54.5 -280.5q0 -166 73 -260.5t195 -94.5q109 0 202.5 76t147.5 205t54 279z" />
    <glyph glyph-name="IAcyrillic" unicode="&#x42f;" horiz-adv-x="1503" 
d="M817 496l-427 -496h-427l484 561q-102 51 -156.5 143t-54.5 215q0 229 180.5 376.5t471.5 147.5h623l-307 -1443h-368l106 496h-125zM821 755h176l87 410h-203q-123 0 -201 -65.5t-78 -167.5q0 -86 58 -131.5t161 -45.5z" />
    <glyph glyph-name="acyrillic" unicode="&#x430;" horiz-adv-x="1261" 
d="M373 -17q-140 0 -233.5 86.5t-93.5 216.5q0 171 134 271.5t370 107.5l258 7l14 67q4 24 4 35q0 48 -42.5 76.5t-113.5 28.5q-126 0 -167 -83h-324q35 157 174.5 250t341.5 93q214 0 346 -92t132 -242q0 -47 -9 -90l-153 -715h-343l28 134h-19q-43 -69 -126 -110t-178 -41
zM532 229q78 0 139 45.5t76 113.5l18 83l-197 -6q-83 -3 -131 -37.5t-48 -90.5q0 -48 40 -78t103 -30z" />
    <glyph glyph-name="becyrillic" unicode="&#x431;" horiz-adv-x="1340" 
d="M808 1067q203 0 315 -123t112 -330q0 -185 -77 -332t-222.5 -232t-335.5 -85q-203 0 -334.5 118t-157.5 321q-20 161 27 372q38 168 95 291.5t145 217t214.5 142.5t293.5 55l157 5q77 3 152.5 13t112.5 18l37 9l-56 -268q-93 -34 -279 -40l-146 -4q-180 -6 -278 -89.5
t-155 -253.5h19q128 195 361 195zM624 245q104 0 177.5 97t73.5 237q0 109 -47 171.5t-129 62.5q-109 0 -181.5 -100t-72.5 -245q0 -104 47.5 -163.5t131.5 -59.5z" />
    <glyph glyph-name="vecyrillic" unicode="&#x432;" horiz-adv-x="1285" 
d="M24 0l237 1113h591q163 0 253 -67t90 -185q0 -104 -74.5 -176.5t-192.5 -93.5l-4 -19q100 -13 157.5 -66.5t57.5 -137.5q0 -162 -137.5 -265t-361.5 -103h-616zM708 903h-144l-52 -241h140q85 0 133.5 40.5t48.5 102.5q0 98 -126 98zM627 466h-156l-55 -256h161
q91 0 147.5 42.5t56.5 107.5q0 106 -154 106z" />
    <glyph glyph-name="gecyrillic" unicode="&#x433;" horiz-adv-x="1031" 
d="M1004 851h-444l-181 -851h-355l237 1113h799z" />
    <glyph glyph-name="decyrillic" unicode="&#x434;" horiz-adv-x="1424" 
d="M181 -285h-321l117 547h82q112 53 185 316l147 535h948l-181 -851h161l-117 -547h-321l61 285h-700zM805 262l125 590h-298l-84 -300q-51 -176 -129 -271l-4 -19h390z" />
    <glyph glyph-name="iecyrillic" unicode="&#x435;" horiz-adv-x="1310" 
d="M614 -26q-234 0 -374.5 129.5t-140.5 352.5q0 305 171 494t445 189q216 0 355.5 -131.5t139.5 -341.5q0 -85 -20 -187h-766v-21q0 -110 58.5 -169.5t153.5 -59.5q70 0 119 28t70 77h332q-41 -165 -186.5 -262.5t-356.5 -97.5zM460 681h423q4 12 4 36q0 74 -50 122
t-131 48q-88 0 -155 -56.5t-91 -149.5z" />
    <glyph glyph-name="zhecyrillic" unicode="&#x436;" horiz-adv-x="1830" 
d="M-93 0l501 625l-199 488h356l158 -427h57l90 427h347l-91 -427h56l341 427h395l-450 -542l218 -571h-384l-165 450h-61l-96 -450h-346l96 450h-63l-348 -450h-412z" />
    <glyph glyph-name="zecyrillic" unicode="&#x437;" horiz-adv-x="1244" 
d="M1102 370q0 -108 -70.5 -199t-196 -144t-278.5 -53q-247 0 -379 115.5t-114 303.5h331q-1 -72 47.5 -110t124.5 -38t128 33t52 89q0 90 -138 90h-148l46 217h137q81 0 119 33t38 82q0 39 -35.5 63.5t-96.5 24.5q-147 0 -184 -135h-331q39 192 180 294.5t379 102.5
q186 0 317 -85t131 -215q0 -91 -60.5 -159.5t-149.5 -86.5l-4 -19q155 -48 155 -204z" />
    <glyph glyph-name="iicyrillic" unicode="&#x438;" horiz-adv-x="1375" 
d="M372 0h-348l237 1113h347l-134 -625h19l510 625h348l-237 -1113h-347l136 637h-19z" />
    <glyph glyph-name="iishortcyrillic" unicode="&#x439;" horiz-adv-x="1375" 
d="M877 1256q-83 0 -152 21.5t-113.5 57t-73.5 81.5t-38.5 96t-1.5 99h231q-8 -75 32 -121t124 -46q153 0 183 167h230q-17 -162 -128 -258.5t-293 -96.5zM372 0h-348l237 1113h347l-134 -625h19l510 625h348l-237 -1113h-347l136 637h-19z" />
    <glyph glyph-name="elcyrillic" unicode="&#x43b;" horiz-adv-x="1320" 
d="M560 534q-30 -113 -62.5 -196t-76 -152t-98 -111.5t-126.5 -65.5t-162 -23q-67 0 -107 14l62 294q30 -8 68 -8q126 0 198 278l144 549h896l-237 -1113h-355l181 851h-241z" />
    <glyph glyph-name="emcyrillic" unicode="&#x43c;" horiz-adv-x="1710" 
d="M352 0h-328l237 1113h466l98 -656h19l378 656h464l-236 -1113h-329l152 717h-18l-383 -642h-239l-110 642h-18z" />
    <glyph glyph-name="encyrillic" unicode="&#x43d;" horiz-adv-x="1361" 
d="M24 0l237 1113h355l-88 -415h366l88 415h355l-237 -1113h-354l92 436h-366l-93 -436h-355z" />
    <glyph glyph-name="ocyrillic" unicode="&#x43e;" horiz-adv-x="1364" 
d="M748 1139q235 0 376 -136t141 -362q0 -141 -49.5 -264.5t-135 -212t-205.5 -139.5t-256 -51q-235 0 -377.5 136t-142.5 361q0 188 84.5 341t233.5 240t331 87zM633 246q108 0 186 115t78 273q0 111 -43 173t-121 62q-111 0 -189 -115.5t-78 -279.5q0 -107 44.5 -167.5
t122.5 -60.5z" />
    <glyph glyph-name="pecyrillic" unicode="&#x43f;" horiz-adv-x="1351" 
d="M736 0l180 851h-356l-181 -851h-355l237 1113h1066l-237 -1113h-354z" />
    <glyph glyph-name="ercyrillic" unicode="&#x440;" horiz-adv-x="1396" 
d="M301 -368h-354l315 1481h345l-33 -155h19q125 172 338 172q169 0 272 -114t103 -309q0 -206 -73 -372t-200 -259t-283 -93q-119 0 -200 59.5t-108 157.5h-19zM667 266q113 0 192.5 110t79.5 271q0 100 -50 154.5t-128 54.5q-112 0 -193 -113t-81 -266q0 -100 51 -155.5
t129 -55.5z" />
    <glyph glyph-name="escyrillic" unicode="&#x441;" horiz-adv-x="1267" 
d="M726 1139q108 0 198.5 -33.5t149 -88.5t91.5 -122.5t36 -139.5q1 -13 1 -42h-329q-1 73 -48 113t-121 40q-116 0 -187.5 -114.5t-71.5 -287.5q0 -108 50.5 -162.5t124.5 -54.5q73 0 125 39t74 113h331q-27 -182 -173 -303.5t-376 -121.5q-233 0 -369 127t-136 342
q0 198 77 356t221.5 249t331.5 91z" />
    <glyph glyph-name="tecyrillic" unicode="&#x442;" horiz-adv-x="1106" 
d="M1167 1113l-56 -262h-318l-181 -851h-355l181 851h-318l56 262h991z" />
    <glyph glyph-name="ucyrillic" unicode="&#x443;" horiz-adv-x="1278" 
d="M92 -407q-129 0 -141 3l57 268q12 -3 70 -3q175 0 215 99l12 33l-127 1120h363l30 -809h19l370 809h377l-600 -1123q-114 -215 -263 -306t-382 -91z" />
    <glyph glyph-name="efcyrillic" unicode="&#x444;" horiz-adv-x="1807" 
d="M883 -368h-351l74 350q-233 7 -372 134.5t-139 344.5q0 140 51 260.5t145.5 210.5t238 142.5t320.5 56.5l70 331h351l-71 -331q233 -7 372 -134t139 -344q0 -140 -51 -260.5t-145.5 -210.5t-238 -143t-320.5 -57zM1350 626q0 114 -55.5 179.5t-152.5 68.5l-134 -635
q82 4 149 39.5t108 91t63 121.5t22 135zM457 487q0 -114 55 -179.5t152 -68.5l134 635q-82 -4 -149 -39.5t-107.5 -91t-62.5 -121.5t-22 -135z" />
    <glyph glyph-name="hacyrillic" unicode="&#x445;" horiz-adv-x="1272" 
d="M596 334h-19l-245 -334h-379l452 554l-217 559h387l102 -342h19l234 342h390l-458 -559l223 -554h-374z" />
    <glyph glyph-name="tsecyrillic" unicode="&#x446;" horiz-adv-x="1415" 
d="M1192 -285h-321l61 285h-908l237 1113h355l-181 -851h357l180 851h355l-181 -851h163z" />
    <glyph glyph-name="checyrillic" unicode="&#x447;" horiz-adv-x="1324" 
d="M1064 0h-355l89 419h-19q-97 -85 -271 -85q-195 0 -289 125.5t-49 336.5l68 317h354l-63 -298q-20 -93 19 -142.5t129 -49.5q112 0 175 49l93 441h355z" />
    <glyph glyph-name="shacyrillic" unicode="&#x448;" horiz-adv-x="1881" 
d="M24 0l237 1113h355l-180 -851h265l181 851h355l-181 -851h266l181 851h354l-236 -1113h-1597z" />
    <glyph glyph-name="shchacyrillic" unicode="&#x449;" horiz-adv-x="1944" 
d="M24 0l237 1113h355l-180 -851h265l181 851h355l-181 -851h266l181 851h354l-180 -851h162l-120 -547h-322l63 285h-1436z" />
    <glyph glyph-name="hardsigncyrillic" unicode="&#x44a;" horiz-adv-x="1442" 
d="M797 0h-577l181 851h-281l56 262h636l-65 -307h188q179 0 287.5 -92t108.5 -242q0 -200 -152 -336t-382 -136zM844 548h-152l-61 -286h152q81 0 135.5 50.5t54.5 121.5q0 52 -34 83t-95 31z" />
    <glyph glyph-name="yericyrillic" unicode="&#x44b;" horiz-adv-x="1765" 
d="M1150 0l237 1113h355l-237 -1113h-355zM24 0l237 1113h355l-66 -307h188q179 0 287.5 -92t108.5 -242q0 -200 -152 -336t-382 -136h-576zM647 548h-151l-61 -286h151q81 0 135.5 50.5t54.5 121.5q0 52 -34 83t-95 31z" />
    <glyph glyph-name="softsigncyrillic" unicode="&#x44c;" horiz-adv-x="1245" 
d="M24 0l237 1113h355l-66 -307h188q179 0 287.5 -92t108.5 -242q0 -200 -152 -336t-382 -136h-576zM647 548h-151l-61 -286h151q81 0 135.5 50.5t54.5 121.5q0 52 -34 83t-95 31z" />
    <glyph glyph-name="ereversedcyrillic" unicode="&#x44d;" horiz-adv-x="1264" 
d="M120 716q51 203 193.5 313t361.5 110q234 0 365.5 -131.5t131.5 -359.5q0 -299 -170.5 -486.5t-450.5 -187.5q-221 0 -346 110.5t-134 310.5h327q5 -69 47.5 -108.5t113.5 -39.5q88 0 154 61t82 149h-346l46 217h332q0 92 -48 141t-131 49q-69 0 -122 -39.5t-81 -108.5
h-325z" />
    <glyph glyph-name="iucyrillic" unicode="&#x44e;" horiz-adv-x="1867" 
d="M1142 -35q-224 0 -358.5 121.5t-149.5 335.5q0 2 0.5 7t0.5 7h-163l-93 -436h-355l237 1113h355l-88 -415h137q61 201 220.5 320.5t378.5 119.5q236 0 371.5 -138t135.5 -375q0 -190 -77 -340t-221 -235t-331 -85zM1165 245q102 0 174.5 106t72.5 260q0 119 -46 188
t-126 69q-106 0 -177 -109t-71 -268q0 -114 46 -180t127 -66z" />
    <glyph glyph-name="iacyrillic" unicode="&#x44f;" horiz-adv-x="1277" 
d="M662 0l74 345h-75l-301 -345h-413l371 405q-81 42 -125.5 113.5t-44.5 165.5q0 86 35.5 163t101.5 136.5t168 94.5t226 35h575l-237 -1113h-355zM634 581h152l58 271h-152q-84 0 -136 -45.5t-52 -112.5q0 -52 34 -82.5t96 -30.5z" />
    <glyph glyph-name="uni0450" unicode="&#x450;" horiz-adv-x="1310" 
d="M630 1259l-130 359h314l52 -359h-236zM614 -26q-234 0 -374.5 129.5t-140.5 352.5q0 305 171 494t445 189q216 0 355.5 -131.5t139.5 -341.5q0 -85 -20 -187h-766v-21q0 -110 58.5 -169.5t153.5 -59.5q70 0 119 28t70 77h332q-41 -165 -186.5 -262.5t-356.5 -97.5z
M460 681h423q4 12 4 36q0 74 -50 122t-131 48q-88 0 -155 -56.5t-91 -149.5z" />
    <glyph glyph-name="iocyrillic" unicode="&#x451;" horiz-adv-x="1310" 
d="M530 1271q-72 0 -123.5 49.5t-51.5 121.5t51.5 121.5t123.5 49.5t123 -49.5t51 -121.5t-51 -121.5t-123 -49.5zM1035 1271q-72 0 -123 49.5t-51 121.5t51 121.5t123 49.5q73 0 124 -49.5t51 -121.5t-51 -121.5t-124 -49.5zM614 -26q-234 0 -374.5 129.5t-140.5 352.5
q0 305 171 494t445 189q216 0 355.5 -131.5t139.5 -341.5q0 -85 -20 -187h-766v-21q0 -110 58.5 -169.5t153.5 -59.5q70 0 119 28t70 77h332q-41 -165 -186.5 -262.5t-356.5 -97.5zM460 681h423q4 12 4 36q0 74 -50 122t-131 48q-88 0 -155 -56.5t-91 -149.5z" />
    <glyph glyph-name="djecyrillic" unicode="&#x452;" horiz-adv-x="1366" 
d="M31 0l266 1246h-134l36 169h134l22 104h353l-23 -104h219l-37 -169h-218l-65 -301h19q117 189 338 189q154 0 243 -87.5t89 -226.5q0 -59 -14 -134l-144 -686l-3 -11q-74 -377 -488 -377q-71 0 -119 5l55 255q16 -3 47 -3q65 0 101.5 29t49.5 91l2 11h2l133 631
q9 45 9 76q0 70 -44.5 111t-116.5 41q-83 0 -141.5 -55t-77.5 -145l-140 -659h-353z" />
    <glyph glyph-name="gjecyrillic" unicode="&#x453;" horiz-adv-x="1031" 
d="M808 1259h-237l205 359h314zM1004 851h-444l-181 -851h-355l237 1113h799z" />
    <glyph glyph-name="ecyrillic" unicode="&#x454;" horiz-adv-x="1269" 
d="M1153 396q-52 -201 -193 -311.5t-353 -110.5q-244 0 -375 130.5t-131 370.5q0 191 77 342t219 236.5t324 85.5q218 0 345 -112t138 -310h-328q-6 69 -50 109t-113 40q-87 0 -151.5 -54t-82.5 -136h347l-45 -217h-335q0 -99 48.5 -154.5t138.5 -55.5q64 0 115 40t77 107
h328z" />
    <glyph glyph-name="dzecyrillic" unicode="&#x455;" horiz-adv-x="1221" 
d="M177 768q0 168 133 269.5t352 101.5q215 0 346.5 -93.5t136.5 -248.5h-318q-8 46 -52.5 74t-111.5 28q-65 0 -106.5 -26.5t-41.5 -69.5q0 -31 24.5 -53t81.5 -42l197 -69q133 -46 193.5 -115t60.5 -174q0 -170 -138.5 -273t-367.5 -103q-230 0 -372.5 98t-145.5 257h336
q8 -51 57.5 -83.5t121.5 -32.5q73 0 115 26t42 71q0 30 -22.5 50.5t-79.5 40.5l-176 62q-135 47 -200 122t-65 183z" />
    <glyph glyph-name="icyrillic" unicode="&#x456;" horiz-adv-x="663" 
d="M520 1262q-78 0 -133 53.5t-55 130.5t55 131t133 54t133 -54t55 -131t-55 -130.5t-133 -53.5zM36 0l237 1113h354l-237 -1113h-354z" />
    <glyph glyph-name="yicyrillic" unicode="&#x457;" horiz-adv-x="663" 
d="M381 1303q-61 0 -104.5 42.5t-43.5 102.5t43.5 102.5t104.5 42.5t104 -42t43 -103t-43 -103t-104 -42zM712 1303q-61 0 -104.5 42.5t-43.5 102.5t43.5 102.5t104.5 42.5t104.5 -42.5t43.5 -102.5t-43.5 -102.5t-104.5 -42.5zM36 0l237 1113h354l-237 -1113h-354z" />
    <glyph glyph-name="jecyrillic" unicode="&#x458;" horiz-adv-x="663" 
d="M519 1262q-77 0 -132.5 53.5t-55.5 130.5t55.5 131t132.5 54q78 0 133 -54t55 -131t-55 -130.5t-133 -53.5zM627 1113l-247 -1161q-34 -164 -146.5 -247t-288.5 -83q-87 0 -166 15l57 255q24 -7 68 -7q108 0 130 103l239 1125h354z" />
    <glyph glyph-name="ljecyrillic" unicode="&#x459;" horiz-adv-x="1922" 
d="M35 -14q-67 0 -107 14l62 294q30 -8 68 -8q125 0 196 267l146 560h896l-66 -307h185q179 0 287.5 -92t108.5 -242q0 -200 -151.5 -336t-381.5 -136h-574l181 851h-241l-85 -318q-38 -145 -80 -241.5t-103 -168t-144 -104.5t-197 -33zM1324 548h-148l-61 -286h149
q81 0 135 50.5t54 121.5q0 52 -34 83t-95 31z" />
    </font>
</defs>
</svg>
