<?xml version="1.0" standalone="no"?>
<!DOCTYPE svg PUBLIC "-//W3C//DTD SVG 1.1//EN" "http://www.w3.org/Graphics/SVG/1.1/DTD/svg11.dtd" >
<svg xmlns="http://www.w3.org/2000/svg" xmlns:xlink="http://www.w3.org/1999/xlink" version="1.1">
<metadata>
Created by FontForge 20170731 at Tue Jun 16 09:34:31 2020
 By Aleksey,,,
(c) 2017-2020 Apple Inc. All rights reserved.
</metadata>
<defs>
<font id="NewYorkSmall-Regular" horiz-adv-x="0" >
  <font-face 
    font-family="New York Small"
    font-weight="400"
    font-variant="small-caps"
    font-stretch="normal"
    units-per-em="2048"
    panose-1="2 2 5 2 6 4 0 0 0 4"
    ascent="1638"
    descent="-410"
    x-height="1001"
    cap-height="1444"
    bbox="-448 -509 3484 1959"
    underline-thickness="95"
    underline-position="-426"
    unicode-range="U+0020-1F16B"
  />
<missing-glyph horiz-adv-x="2048" 
d="M127 -494v2444h156v-2444h-156zM537 -494v2444h156v-2444h-156zM946 -494v2444h156v-2444h-156zM1356 -494v2444h156v-2444h-156zM1766 -494v2444h155v-2444h-155z" />
    <glyph glyph-name=".notdef" horiz-adv-x="2048" 
d="M127 -494v2444h156v-2444h-156zM537 -494v2444h156v-2444h-156zM946 -494v2444h156v-2444h-156zM1356 -494v2444h156v-2444h-156zM1766 -494v2444h155v-2444h-155z" />
    <glyph glyph-name=".null" 
 />
    <glyph glyph-name="nonmarkingreturn" 
 />
    <glyph glyph-name="space" unicode=" " horiz-adv-x="512" 
 />
    <glyph glyph-name="exclam" unicode="!" horiz-adv-x="559" 
d="M279 1459q52 0 82 -38.5t30 -103.5q0 -53 -28 -335l-51 -523h-65l-51 524q-28 266 -28 334q0 65 30 103.5t81 38.5zM279 -16q-54 0 -93.5 39.5t-39.5 94.5q0 56 39.5 95.5t93.5 39.5q56 0 95 -39.5t39 -95.5t-39.5 -95t-94.5 -39z" />
    <glyph glyph-name="quotedbl" unicode="&#x22;" horiz-adv-x="875" 
d="M258 1474q45 0 73 -31t28 -79q0 -47 -23 -198l-42 -282h-72l-42 282q-23 151 -23 198q0 48 28 79t73 31zM617 1474q45 0 73 -31t28 -79q0 -47 -23 -198l-42 -282h-72l-42 282q-23 151 -23 198q0 48 28 79t73 31z" />
    <glyph glyph-name="numbersign" unicode="#" horiz-adv-x="1180" 
d="M250 0l28 399h-212l9 126h212l27 394h-212l9 126h212l28 399h131l-28 -399h318l28 399h131l-28 -399h211l-8 -126h-212l-27 -394h211l-8 -126h-212l-28 -399h-131l28 399h-318l-28 -399h-131zM418 525h318l27 394h-318z" />
    <glyph glyph-name="dollar" unicode="$" horiz-adv-x="1093" 
d="M511 -189v199q-115 2 -219.5 32t-173.5 84l-11 304h70q67 -303 334 -315v550l-62 25q-170 68 -249 161t-79 214q0 158 104.5 256.5t285.5 110.5v201h74v-199q104 -4 197 -28.5t148 -57.5l12 -304h-70q-66 267 -287 284v-486l57 -22q187 -74 272 -168.5t85 -232.5
q0 -166 -114.5 -277.5t-299.5 -128.5v-202h-74zM306 1116q0 -82 48.5 -140.5t156.5 -103.5v456q-96 -10 -150.5 -69t-54.5 -143zM814 369q0 92 -51.5 152.5t-177.5 113.5v-518q105 15 167 84.5t62 167.5z" />
    <glyph glyph-name="percent" unicode="%" horiz-adv-x="1956" 
d="M399 644q-131 0 -221.5 110t-90.5 299q0 193 90 301t231 108q132 0 222 -110.5t90 -298.5q0 -194 -90 -301.5t-231 -107.5zM459 0l905 1444h133l-906 -1444h-132zM408 721q147 0 147 321q0 167 -40 255.5t-115 88.5q-147 0 -147 -321q0 -167 40 -255.5t115 -88.5z
M1547 -17q-131 0 -221.5 110t-90.5 299q0 193 90 301t231 108q132 0 222 -110.5t90 -298.5q0 -194 -90 -301.5t-231 -107.5zM1556 60q147 0 147 321q0 167 -40 255.5t-115 88.5q-147 0 -147 -321q0 -167 40 -255.5t115 -88.5z" />
    <glyph glyph-name="ampersand" unicode="&#x26;" horiz-adv-x="1576" 
d="M511 -27q-183 0 -302.5 109t-119.5 291q0 130 81.5 228.5t256.5 171.5q-103 108 -146 193t-43 180q0 139 110.5 234t280.5 95q167 0 269.5 -83t102.5 -221q0 -109 -77 -197.5t-243 -165.5q11 -11 35 -33l350 -320l88 133q52 78 60.5 120t-24 65t-118.5 36v76h482v-76
q-88 -10 -145.5 -51.5t-152.5 -173.5l-131 -182l79 -73q151 -139 220 -190t130 -69v-70h-297l-256 236q-113 -134 -231 -198.5t-259 -64.5zM427 1186q0 -76 43.5 -147.5t157.5 -181.5q104 59 152 128t48 168q0 96 -53.5 156.5t-145.5 60.5q-93 0 -147.5 -51.5t-54.5 -132.5z
M282 456q0 -155 100.5 -254t243.5 -99q172 0 321 182l-383 354q-43 39 -87 83q-99 -50 -147 -113.5t-48 -152.5z" />
    <glyph glyph-name="quotesingle" unicode="'" horiz-adv-x="516" 
d="M258 1474q45 0 73 -31t28 -79q0 -47 -23 -198l-42 -282h-72l-42 282q-23 151 -23 198q0 48 28 79t73 31z" />
    <glyph glyph-name="parenleft" unicode="(" horiz-adv-x="652" 
d="M275 650q0 -286 83 -512.5t240 -417.5h-97q-80 64 -152 158t-131 211.5t-93.5 263.5t-34.5 297q0 293 120.5 542.5t290.5 387.5h97q-157 -191 -240 -417.5t-83 -512.5z" />
    <glyph glyph-name="parenright" unicode=")" horiz-adv-x="652" 
d="M377 650q0 286 -83 512.5t-240 417.5h97q80 -64 152 -158t131 -211.5t93.5 -263.5t34.5 -297q0 -293 -120.5 -542.5t-290.5 -387.5h-97q157 191 240 417.5t83 512.5z" />
    <glyph glyph-name="asterisk" unicode="*" horiz-adv-x="767" 
d="M363 1153l-50 219q-12 44 10.5 73t60.5 29t60.5 -29t10.5 -73l-51 -219h-41zM344 1117l-208 65q-44 12 -58.5 47.5t5.5 65.5q19 34 54.5 38t69.5 -28l156 -152zM404 1153l156 152q34 32 69.5 28t55.5 -38q19 -30 5 -65.5t-58 -47.5l-210 -65zM363 1080l-156 -152
q-34 -32 -69.5 -28t-54.5 38q-20 30 -5.5 65.5t58.5 47.5l208 66zM422 1117l210 -66q44 -12 58.5 -47.5t-5.5 -65.5q-20 -34 -55.5 -38t-69.5 28l-156 152zM404 1080l51 -218q12 -45 -10.5 -74t-60.5 -29t-60.5 29t-10.5 74l50 218h41z" />
    <glyph glyph-name="plus" unicode="+" horiz-adv-x="1183" 
d="M118 516v134h407v407h134v-407h406v-134h-406v-406h-134v406h-407z" />
    <glyph glyph-name="comma" unicode="," horiz-adv-x="548" 
d="M154 -283l-29 64q68 26 109.5 69.5t41.5 97.5q0 57 -40.5 93.5t-107.5 41.5q0 75 37.5 125t104.5 50q71 0 112 -55.5t41 -143.5q0 -126 -78.5 -216t-190.5 -126z" />
    <glyph glyph-name="hyphen" unicode="&#x2011;" horiz-adv-x="780" 
d="M666 509h-552v149h552v-149z" />
    <glyph glyph-name="hyphen" unicode="-" horiz-adv-x="780" 
d="M666 509h-552v149h552v-149z" />
    <glyph glyph-name="period" unicode="." horiz-adv-x="548" 
d="M274 -16q-55 0 -95 40.5t-40 96.5q0 57 39.5 97t95.5 40t95.5 -40t39.5 -97q0 -56 -40 -96.5t-95 -40.5z" />
    <glyph glyph-name="slash" unicode="/" horiz-adv-x="652" 
d="M-1 -280l499 1860h155l-498 -1860h-156z" />
    <glyph glyph-name="zero" unicode="0" horiz-adv-x="1278" 
d="M633 -30q-81 0 -155.5 29.5t-140 90.5t-114 148.5t-76.5 211.5t-28 271q0 152 27 277t75 212.5t114.5 147.5t144.5 88t165 28q81 0 155.5 -29.5t140 -90.5t114 -148.5t76.5 -211.5t28 -271q0 -152 -27 -277t-75 -212.5t-114.5 -147.5t-144.5 -88t-165 -28zM645 75
q139 0 211.5 153.5t72.5 458.5q0 319 -77.5 500.5t-218.5 181.5q-139 0 -211.5 -153.5t-72.5 -458.5q0 -319 77.5 -500.5t218.5 -181.5z" />
    <glyph glyph-name="one" unicode="1" horiz-adv-x="836" 
d="M523 1444v-1228q0 -49 17 -74.5t65 -40.5t148 -25v-76h-656v76q100 10 147.5 25t64.5 40.5t17 74.5v1064l-245 -63v66l348 161h94z" />
    <glyph glyph-name="two" unicode="2" horiz-adv-x="1014" 
d="M921 0h-869v127l335 379q164 185 228.5 304t64.5 246q0 128 -70.5 204t-184.5 76q-111 0 -194.5 -58.5t-128.5 -165.5l-69 26q53 152 170.5 244t295.5 92q176 0 284.5 -98.5t108.5 -264.5q0 -130 -82.5 -261t-288.5 -344l-321 -332h721v-174z" />
    <glyph glyph-name="three" unicode="3" horiz-adv-x="1096" 
d="M481 -30q-171 0 -292.5 84.5t-121.5 203.5q0 52 33.5 86t83.5 34t83.5 -32.5t33.5 -83.5q0 -37 -21 -66t-53 -40q78 -81 235 -81q128 0 217 83t89 232q0 157 -96 248.5t-254 91.5q-74 0 -132 -14v81q234 35 346 111t112 200q0 109 -69.5 168.5t-188.5 59.5
q-108 0 -193 -52.5t-132 -155.5l-69 26q45 148 164.5 234t289.5 86q175 0 281 -87t106 -231q0 -120 -88 -211.5t-227 -118.5q162 -22 261 -136t99 -278q0 -133 -68 -235t-180.5 -154.5t-248.5 -52.5z" />
    <glyph glyph-name="four" unicode="4" horiz-adv-x="1214" 
d="M743 0v365h-679v92l707 987h154v-923h239v-156h-239v-365h-182zM744 521v731l-506 -731h506z" />
    <glyph glyph-name="five" unicode="5" horiz-adv-x="1101" 
d="M487 -30q-171 0 -289.5 84t-118.5 203q0 53 33.5 86.5t83.5 33.5t83.5 -32.5t33.5 -82.5q0 -38 -21 -67t-55 -40q77 -80 232 -80q134 0 224 97.5t90 252.5q0 157 -82 253.5t-218 96.5q-96 0 -168 -33.5t-112 -94.5l-66 2l139 795h661v-174h-585l-97 -476q111 106 306 106
q183 0 307.5 -124t124.5 -312q0 -150 -69.5 -264t-183.5 -172t-253 -58z" />
    <glyph glyph-name="six" unicode="6" horiz-adv-x="1194" 
d="M1088 439q0 -144 -65 -252t-172 -162.5t-238 -54.5q-234 0 -365.5 162t-131.5 446q0 180 68 341.5t187 279.5t290 187.5t368 69.5l2 -74q-314 -18 -508 -234t-205 -547q40 127 134 200t244 73q178 0 285 -121.5t107 -313.5zM880 386q0 163 -70.5 260t-194.5 97
q-125 0 -204.5 -89.5t-79.5 -229.5q0 -152 76.5 -250.5t205.5 -98.5q118 0 192.5 83t74.5 228z" />
    <glyph glyph-name="seven" unicode="7" horiz-adv-x="970" 
d="M329 0h-187v10l638 1260h-740v174h854v-142z" />
    <glyph glyph-name="eight" unicode="8" horiz-adv-x="1229" 
d="M606 -30q-213 0 -347 105.5t-134 269.5q0 134 87.5 232.5t243.5 138.5q-288 134 -288 372q0 169 130 277.5t329 108.5q200 0 317 -99.5t117 -249.5q0 -116 -79.5 -197t-223.5 -127q176 -75 261 -174.5t85 -242.5q0 -166 -144.5 -290t-353.5 -124zM588 873l113 -48
q174 91 174 274q0 111 -71.5 190.5t-188.5 79.5q-120 0 -188 -63t-68 -166q0 -94 55 -155t174 -112zM312 381q0 -128 86 -217t220 -89q127 0 210.5 73.5t84.5 191.5q0 97 -59.5 162.5t-201.5 127.5l-137 60q-203 -83 -203 -309z" />
    <glyph glyph-name="nine" unicode="9" horiz-adv-x="1194" 
d="M106 1005q0 144 65 252t172 162.5t238 54.5q235 0 366 -158.5t131 -441.5q0 -180 -68 -342.5t-187 -282.5t-290 -190.5t-368 -70.5l-2 74q314 18 508 234t205 547q-40 -127 -134 -200t-244 -73q-178 0 -285 121.5t-107 313.5zM314 1058q0 -163 70.5 -260.5t194.5 -97.5
q125 0 204.5 90t79.5 230q0 151 -76.5 250t-205.5 99q-118 0 -192.5 -83.5t-74.5 -227.5z" />
    <glyph glyph-name="colon" unicode=":" horiz-adv-x="548" 
d="M274 697q-55 0 -95 40.5t-40 96.5q0 57 39.5 97t95.5 40t95.5 -40t39.5 -97q0 -56 -40 -96.5t-95 -40.5zM274 -16q-55 0 -95 40.5t-40 96.5q0 57 39.5 97t95.5 40t95.5 -40t39.5 -97q0 -56 -40 -96.5t-95 -40.5z" />
    <glyph glyph-name="semicolon" unicode=";" horiz-adv-x="548" 
d="M274 704q-55 0 -95 40.5t-40 96.5q0 57 39.5 97t95.5 40t95.5 -40t39.5 -97q0 -56 -40 -96.5t-95 -40.5zM154 -283l-29 64q68 26 109.5 69.5t41.5 97.5q0 57 -40.5 93.5t-107.5 41.5q0 75 37.5 125t104.5 50q71 0 112 -55.5t41 -143.5q0 -126 -78.5 -216t-190.5 -126z
" />
    <glyph glyph-name="less" unicode="&#x3c;" horiz-adv-x="1183" 
d="M1095 229v-143l-1006 465v60l1006 466v-136l-791 -354z" />
    <glyph glyph-name="equal" unicode="=" horiz-adv-x="1183" 
d="M118 729v134h947v-134h-947zM118 303v134h947v-134h-947z" />
    <glyph glyph-name="greater" unicode="&#x3e;" horiz-adv-x="1183" 
d="M89 935v142l1006 -465v-60l-1006 -466v136l790 355z" />
    <glyph glyph-name="question" unicode="?" horiz-adv-x="762" 
d="M247 1464q174 0 295 -123t121 -311q0 -169 -95.5 -276.5t-256.5 -146.5l6 -148h-69l-44 352q166 7 254 58t88 158q0 127 -125 198t-326 71q-8 26 -8 45q0 55 42.5 89t117.5 34zM292 -16q-55 0 -94.5 39.5t-39.5 94.5q0 56 39.5 95.5t94.5 39.5t94 -39.5t39 -95.5
q0 -55 -39 -94.5t-94 -39.5z" />
    <glyph glyph-name="at" unicode="@" horiz-adv-x="1989" 
d="M590 370q0 152 57 294t161.5 235t228.5 93q80 0 133 -37.5t75 -98.5l76 109h107l-152 -709q-14 -68 4 -96.5t76 -28.5q66 0 135.5 37.5t129.5 106.5t98.5 180.5t38.5 244.5q0 287 -183.5 448t-489.5 161q-156 0 -294 -49.5t-239 -134.5t-174.5 -196.5t-110 -238
t-36.5 -255.5q0 -339 186 -537.5t486 -198.5q129 0 228 20.5t192 67.5l-4 -76q-61 -52 -184 -84.5t-257 -32.5q-163 0 -304.5 60t-243.5 166.5t-160 261.5t-58 337q0 154 43 300.5t127 272t199.5 220t270 148t329.5 53.5q362 0 579 -195t217 -511q0 -154 -48 -285.5
t-128 -218t-182.5 -135t-212.5 -48.5q-112 0 -162.5 57.5t-37.5 159.5q-57 -103 -134 -151.5t-163 -48.5q-104 0 -161.5 88t-57.5 245zM771 362q0 -95 30.5 -151.5t87.5 -56.5q81 0 154.5 87t99.5 209l62 291q-2 70 -39 114t-99 44q-85 0 -154.5 -82t-105.5 -204t-36 -251z
" />
    <glyph glyph-name="A" unicode="A" horiz-adv-x="1448" 
d="M1244 267q42 -113 79.5 -146.5t132.5 -44.5v-76h-571v76q122 15 145.5 49t-14.5 143l-82 232h-522l-81 -232q-38 -110 -14.5 -143.5t145.5 -48.5v-76h-470v76q100 11 135.5 44t80.5 153l432 1171h170zM445 594h456l-230 651z" />
    <glyph glyph-name="B" unicode="B" horiz-adv-x="1379" 
d="M1285 419q0 -133 -80 -229t-214 -143t-305 -47h-617v76q82 7 117.5 19t46.5 33.5t11 69.5v1048q0 48 -11 69.5t-46.5 33.5t-117.5 19v76h617q247 0 382 -93.5t135 -255.5q0 -129 -94.5 -210t-249.5 -101q195 -18 310.5 -111t115.5 -254zM979 1066q0 274 -364 285l-155 5
v-557h186q162 0 247.5 72t85.5 195zM1052 399q0 154 -104.5 233t-301.5 79h-186v-623l155 5q437 13 437 306z" />
    <glyph glyph-name="C" unicode="C" horiz-adv-x="1449" 
d="M107 723q0 173 57.5 315t158 237t237 147t294.5 52q159 0 285 -32t196 -83l11 -306h-69q-42 168 -140 240t-262 72q-248 0 -387.5 -169t-139.5 -447q0 -296 148.5 -483t378.5 -187q169 0 268 72.5t141 254.5h70l-12 -307q-72 -53 -208.5 -91t-279.5 -38q-149 0 -284 52
t-238 146.5t-164 238.5t-61 316z" />
    <glyph glyph-name="D" unicode="D" horiz-adv-x="1559" 
d="M1465 744q0 -167 -65.5 -309t-175.5 -236t-254.5 -146.5t-302.5 -52.5h-598v76q82 7 117.5 19t46.5 33.5t11 69.5v1048q0 48 -11 69.5t-46.5 33.5t-117.5 19v76h596q227 0 407.5 -82t286.5 -242.5t106 -375.5zM1227 728q0 278 -166.5 446t-445.5 177l-155 5v-1268l155 5
q281 9 446.5 178.5t165.5 456.5z" />
    <glyph glyph-name="E" unicode="E" horiz-adv-x="1299" 
d="M1156 1444l12 -360h-70q-35 156 -106 207t-246 56l-286 9v-572h299q52 0 75.5 36.5t50.5 166.5h66v-495h-66q-22 127 -46.5 165.5t-79.5 38.5h-299v-608l282 9q80 2 127.5 6.5t94 17t71 31.5t48 54t37 81.5t26.5 117.5h70l-15 -405h-1132v76q82 7 117.5 19t46.5 33.5
t11 69.5v1048q0 48 -11 69.5t-46.5 33.5t-117.5 19v76h1087z" />
    <glyph glyph-name="F" unicode="F" horiz-adv-x="1193" 
d="M1126 1444l11 -360h-70q-35 157 -106 208t-246 56l-255 8v-579h269q36 0 55.5 14t36 56.5t34.5 132.5h66v-495h-66q-21 127 -46 165t-80 38h-269v-477q0 -52 13 -76t52 -37.5t126 -21.5v-76h-582v76q82 7 117.5 19t46.5 33.5t11 69.5v1048q0 48 -11 69.5t-46.5 33.5
t-117.5 19v76h1057z" />
    <glyph glyph-name="G" unicode="G" horiz-adv-x="1566" 
d="M107 723q0 173 57.5 315t158 237t237 147t294.5 52q159 0 285 -32t196 -83l12 -306h-70q-42 168 -140 240t-262 72q-248 0 -387.5 -169t-139.5 -447q0 -296 148.5 -483t379.5 -187q184 0 286 70v342q0 30 -3.5 45.5t-12.5 29t-33 20.5t-56.5 12t-91.5 10v75h577v-75
q-65 -6 -97 -11.5t-52.5 -19.5t-24.5 -32t-4 -55v-387q-86 -59 -224 -96t-286 -37q-149 0 -284 52t-238 147t-164 238.5t-61 315.5z" />
    <glyph glyph-name="H" unicode="H" horiz-adv-x="1662" 
d="M460 194q0 -66 28.5 -87t138.5 -31v-76h-558v76q82 7 117.5 19t46.5 33.5t11 69.5v1048q0 48 -11 69.5t-46.5 33.5t-117.5 19v76h558v-77q-110 -10 -138.5 -31t-28.5 -87v-463h742v464q0 47 -10.5 67.5t-44 32t-111.5 18.5v76h557v-76q-80 -7 -115.5 -19t-47.5 -33.5
t-12 -69.5v-1048q0 -48 12 -69.5t47.5 -33.5t115.5 -19v-76h-557v76q78 7 111.5 18.5t44 32t10.5 67.5v497h-742v-497z" />
    <glyph glyph-name="I" unicode="I" horiz-adv-x="704" 
d="M460 198q0 -48 11 -69.5t46.5 -33.5t117.5 -19v-76h-566v76q82 7 117.5 19t46.5 33.5t11 69.5v1048q0 48 -11 69.5t-46.5 33.5t-117.5 19v76h566v-76q-82 -7 -117.5 -19t-46.5 -33.5t-11 -69.5v-1048z" />
    <glyph glyph-name="J" unicode="J" horiz-adv-x="704" 
d="M460 253q0 -84 -13.5 -153.5t-43.5 -128t-67.5 -106t-95.5 -93.5t-117.5 -83.5t-142.5 -82.5l-37 66q168 112 234.5 245t66.5 367v962q0 48 -11 69.5t-46.5 33.5t-117.5 19v76h566v-76q-82 -7 -117.5 -19t-46.5 -33.5t-11 -69.5v-993z" />
    <glyph glyph-name="K" unicode="&#x212a;" horiz-adv-x="1386" 
d="M460 194q0 -66 28.5 -87t138.5 -31v-76h-558v76q82 7 117.5 19t46.5 33.5t11 69.5v1048q0 48 -11 69.5t-46.5 33.5t-117.5 19v76h558v-77q-110 -10 -138.5 -31t-28.5 -87v-455h181l320 392q79 99 63 136t-143 46v76h502v-76q-94 -16 -152.5 -58t-172.5 -172l-257 -290
l322 -497q100 -153 154.5 -209t116.5 -72v-70h-298l-453 705h-183v-511z" />
    <glyph glyph-name="K" unicode="K" horiz-adv-x="1386" 
d="M460 194q0 -66 28.5 -87t138.5 -31v-76h-558v76q82 7 117.5 19t46.5 33.5t11 69.5v1048q0 48 -11 69.5t-46.5 33.5t-117.5 19v76h558v-77q-110 -10 -138.5 -31t-28.5 -87v-455h181l320 392q79 99 63 136t-143 46v76h502v-76q-94 -16 -152.5 -58t-172.5 -172l-257 -290
l322 -497q100 -153 154.5 -209t116.5 -72v-70h-298l-453 705h-183v-511z" />
    <glyph glyph-name="L" unicode="L" horiz-adv-x="1195" 
d="M1124 0h-1055v76q82 7 117.5 19t46.5 33.5t11 69.5v1048q0 48 -11 69.5t-46.5 33.5t-117.5 19v76h582v-76q-87 -8 -126 -21t-52 -37t-13 -75v-1147l236 8q61 2 101.5 7t80 18t65.5 35.5t50.5 60.5t42.5 91t34 128h70z" />
    <glyph glyph-name="M" unicode="M" horiz-adv-x="1883" 
d="M486 1444l471 -1196l430 1196h425v-76q-115 -10 -146 -32t-29 -90l24 -1048q1 -48 13 -69.5t47 -33.5t115 -19v-76h-556v76q112 10 140 31t26 87l-22 1046l-405 -1046l-74 -194h-108l-497 1240l-3 -1022q0 -43 4.5 -64.5t23 -39t49.5 -24.5t91 -14v-76h-458v76
q58 7 88.5 14t48.5 23.5t23 37.5t6 62l25 1011q2 56 -10 82t-46 40t-111 22v76h415z" />
    <glyph glyph-name="N" unicode="N" horiz-adv-x="1580" 
d="M418 1444l850 -1232l-20 1018q0 43 -5 65t-24.5 38t-51.5 22.5t-93 12.5v76h467v-76q-59 -7 -89.5 -14.5t-48.5 -24t-23 -37t-5 -61.5l-7 -1231h-209l-848 1229l20 -1015q1 -56 13 -81t46.5 -37.5t115.5 -19.5v-76h-468v76q78 9 111.5 22.5t44.5 37.5t11 77l4 1011
q0 43 -4.5 65.5t-23.5 40t-50 25t-89 13.5v76h376z" />
    <glyph glyph-name="O" unicode="O" horiz-adv-x="1671" 
d="M107 722q0 209 89 379.5t257.5 271.5t385.5 101q138 0 268 -52.5t232 -146.5t164 -238.5t62 -314.5q0 -156 -52.5 -293.5t-146 -239t-232 -160.5t-302.5 -59q-110 0 -216 32.5t-197.5 97.5t-161.5 154t-110 210t-40 258zM348 742q0 -178 59.5 -327.5t176 -242.5
t267.5 -93q122 0 214.5 49.5t147.5 137t82.5 197.5t27.5 239q0 178 -59.5 327.5t-176 242.5t-267.5 93q-98 0 -177 -33t-133.5 -90t-91.5 -136.5t-53.5 -170t-16.5 -193.5z" />
    <glyph glyph-name="P" unicode="P" horiz-adv-x="1320" 
d="M1225 1015q0 -147 -76.5 -251t-210.5 -155t-313 -51h-165v-347q0 -52 13 -76t52 -37.5t126 -21.5v-76h-582v76q82 7 117.5 19t46.5 33.5t11 69.5v1048q0 48 -11 69.5t-46.5 33.5t-117.5 19v76h556q281 0 440.5 -108.5t159.5 -320.5zM993 999q0 335 -439 353l-94 4v-710
l94 4q223 10 331 94.5t108 254.5z" />
    <glyph glyph-name="Q" unicode="Q" horiz-adv-x="1671" 
d="M107 722q0 156 52.5 293.5t146 239t232 160.5t302.5 59q110 0 216 -32.5t197.5 -97.5t161.5 -154t110 -210t40 -258q0 -253 -131 -447t-357 -268l81 -64q149 -117 247.5 -159.5t192.5 -33.5v-67q-104 -53 -226 -53q-64 0 -115.5 15t-134.5 68.5t-201 155.5l-115 101
q-135 5 -260 59.5t-223 148.5t-157 236t-59 308zM348 742q0 -178 59.5 -327.5t176 -242.5t267.5 -93q121 0 213.5 49.5t148 137t83 197.5t27.5 239q0 132 -35 252t-99 211.5t-160 145.5t-209 54q-98 0 -177 -33t-133.5 -90t-91.5 -136.5t-53.5 -170t-16.5 -193.5z" />
    <glyph glyph-name="R" unicode="R" horiz-adv-x="1347" 
d="M1213 1052q1 -133 -81.5 -227.5t-219.5 -129.5l189 -345q90 -160 139.5 -214t101.5 -66v-70h-273l-353 638h-256v-444q0 -66 28.5 -87t138.5 -31v-76h-558v76q82 7 117.5 19t46.5 33.5t11 69.5v1048q0 48 -11 69.5t-46.5 33.5t-117.5 19v76h581q274 0 418.5 -103.5
t144.5 -288.5zM990 1032q0 307 -405 320l-125 4v-631l151 4q379 11 379 303z" />
    <glyph glyph-name="S" unicode="S" horiz-adv-x="1188" 
d="M579 -30q-145 0 -270 36t-193 93l-12 305h70q36 -160 148 -242.5t267 -82.5q137 0 218.5 70.5t81.5 183.5q0 107 -67.5 178.5t-210.5 116.5l-111 36q-384 120 -384 412q0 175 137.5 286.5t366.5 111.5q128 0 236 -33.5t164 -81.5l12 -305h-70q-29 158 -122 234.5
t-230 76.5q-143 0 -220.5 -66t-77.5 -176q0 -99 67.5 -160.5t206.5 -105.5l112 -35q200 -64 293.5 -167.5t93.5 -258.5q0 -187 -144.5 -306.5t-361.5 -119.5z" />
    <glyph glyph-name="T" unicode="T" horiz-adv-x="1379" 
d="M1312 1444l12 -360h-70q-10 58 -22.5 98t-34 70.5t-48 48t-70.5 29.5t-93.5 17t-125.5 7l-63 2v-1145q0 -52 13 -76t52 -37.5t126 -21.5v-76h-597v76q66 6 101.5 13.5t56.5 24t26.5 37.5t5.5 60v1145l-62 -2q-76 -2 -125.5 -7t-93.5 -17t-70.5 -29.5t-48 -48t-34 -70.5
t-22.5 -98h-70l12 360h1245z" />
    <glyph glyph-name="U" unicode="U" horiz-adv-x="1576" 
d="M203 1250q0 66 -28.5 87t-138.5 31v76h558v-76q-82 -7 -117.5 -19t-46.5 -33.5t-11 -69.5v-699q0 -207 118 -321t303 -114q196 0 305 115t108 335l-5 671q0 41 -5 62t-24 37.5t-51.5 23.5t-94.5 12v76h467v-77q-58 -5 -89 -12t-49.5 -23t-23.5 -37t-5 -61l-6 -691
q-2 -266 -161.5 -419.5t-430.5 -153.5q-111 0 -212 34.5t-182.5 101t-129.5 174.5t-48 243v727z" />
    <glyph glyph-name="V" unicode="V" horiz-adv-x="1447" 
d="M204 1177q-42 113 -79.5 146.5t-132.5 44.5v76h572v-76q-123 -15 -146.5 -49t14.5 -142l345 -979l339 978q38 110 15 143.5t-146 48.5v76h470v-76q-70 -8 -104 -24.5t-57 -52.5t-54 -120l-433 -1171h-171z" />
    <glyph glyph-name="W" unicode="W" horiz-adv-x="2187" 
d="M203 1177q-15 48 -29 78t-29.5 51t-38.5 33t-48 18t-66 11v76h565v-76q-51 -6 -80 -14t-48 -19.5t-22 -33.5t1 -49.5t18 -74.5l291 -974l280 974q17 60 21 90t-10.5 52.5t-46 31.5t-95.5 17v76h550v-76q-51 -6 -80 -14t-48 -19.5t-22 -33.5t1 -49.5t18 -74.5l287 -973
l284 973q12 40 17 64t4 46t-9 33.5t-27.5 21.5t-46 15.5t-69.5 10.5v76h470v-76q-102 -11 -139.5 -44.5t-75.5 -151.5l-375 -1172h-171l-336 1119l-349 -1119h-170z" />
    <glyph glyph-name="X" unicode="X" horiz-adv-x="1395" 
d="M277 273l308 438l-347 509q-54 78 -97 106t-129 42v76h592v-76q-125 -15 -143 -49.5t46 -124.5l250 -366l238 366q63 91 46 125t-142 49v76h484v-76q-97 -9 -144 -41.5t-126 -145.5l-302 -431l359 -526q53 -78 96.5 -105.5t128.5 -42.5v-76h-591v76q125 15 142.5 49.5
t-46.5 124.5l-260 381l-251 -381q-63 -91 -46 -125t142 -49v-76h-484v76q98 9 145 43t131 154z" />
    <glyph glyph-name="Y" unicode="Y" horiz-adv-x="1372" 
d="M238 1180q-70 109 -113 142.5t-133 45.5v76h570v-76q-120 -13 -136 -50.5t48 -138.5l274 -447l261 447q62 102 47 139t-135 50v76h459v-76q-89 -12 -134 -47t-121 -153l-330 -518v-439q0 -39 5.5 -60t26.5 -37.5t56.5 -24t101.5 -13.5v-76h-597v76q86 8 125.5 21.5
t52.5 37.5t13 76v430z" />
    <glyph glyph-name="Z" unicode="Z" horiz-adv-x="1259" 
d="M1167 0h-1091v70l846 1286l-414 -12q-100 -3 -156.5 -13t-96.5 -40.5t-58.5 -76.5t-34.5 -130h-70l12 360h1064v-70l-847 -1286l369 12q58 2 96.5 4.5t79.5 9t67 15.5t53 25t44 37.5t33.5 52.5t28 70.5t21.5 90.5h70z" />
    <glyph glyph-name="bracketleft" unicode="[" horiz-adv-x="652" 
d="M162 -280v1860h412v-76h-238v-1708h238v-76h-412z" />
    <glyph glyph-name="backslash" unicode="\" horiz-adv-x="652" 
d="M498 -280l-499 1860h156l498 -1860h-155z" />
    <glyph glyph-name="bracketright" unicode="]" horiz-adv-x="652" 
d="M490 1580v-1860h-412v76h238v1708h-238v76h412z" />
    <glyph glyph-name="asciicircum" unicode="^" horiz-adv-x="1183" 
d="M562 1444h60l452 -597l-95 -85l-388 512l-391 -512l-90 85z" />
    <glyph glyph-name="underscore" unicode="_" horiz-adv-x="1024" 
d="M39 -348v136h946v-136h-946z" />
    <glyph glyph-name="grave" unicode="`" horiz-adv-x="1024" 
d="M542 1165l-318 352v12h227l186 -364h-95z" />
    <glyph glyph-name="a" unicode="a" horiz-adv-x="1105" 
d="M392 -22q-128 0 -213 72t-85 183q0 123 90.5 198t292.5 119l238 52v79q0 238 -243 238q-103 0 -172 -39q24 -14 39 -39.5t15 -55.5q0 -46 -32.5 -76t-81.5 -30t-82 31.5t-33 79.5q0 102 121.5 167.5t293.5 65.5q175 0 272 -78t97 -235v-498q0 -63 30.5 -92t79.5 -29
q37 0 58 10v-70q-69 -47 -162 -47q-76 0 -126.5 36t-66.5 103q-47 -62 -136 -103.5t-194 -41.5zM294 268q0 -80 54 -127t141 -47q72 0 131.5 28.5t94.5 78.5v310l-153 -33q-145 -32 -206.5 -80.5t-61.5 -129.5z" />
    <glyph glyph-name="b" unicode="b" horiz-adv-x="1220" 
d="M1118 513q0 -155 -64 -278t-173.5 -190t-243.5 -67q-97 0 -179 39.5t-126 98.5l-95 -116h-61v1277q0 41 -12 56.5t-55 25.5l-80 19v66l344 42v-633q41 76 133 123t201 47q83 0 157 -35t131 -99t90 -161.5t33 -214.5zM912 495q0 187 -83 295t-222 108q-80 0 -141.5 -31.5
t-92.5 -88.5v-589q30 -45 88.5 -75.5t135.5 -30.5q140 0 227.5 111.5t87.5 300.5z" />
    <glyph glyph-name="c" unicode="c" horiz-adv-x="1030" 
d="M592 -22q-102 0 -192 36.5t-156 102.5t-104 163t-38 213q0 161 72 283.5t187 184.5t253 62q166 0 253.5 -67.5t87.5 -170.5q0 -51 -33 -85t-82 -34t-81.5 33t-32.5 81q0 36 19 64.5t49 39.5q-55 35 -161 35q-139 0 -230.5 -104.5t-91.5 -283.5q0 -195 106.5 -311.5
t283.5 -116.5q74 0 145.5 26t119.5 70v-76q-56 -65 -154 -105t-220 -40z" />
    <glyph glyph-name="d" unicode="d" horiz-adv-x="1245" 
d="M102 488q0 235 136.5 385t339.5 150q81 0 151 -28t117 -74v356q0 41 -12 56.5t-54 25.5l-81 19v66l345 42v-1288q0 -41 12.5 -56.5t56.5 -25.5l78 -19v-66l-340 -42v163q-41 -78 -134.5 -126t-203.5 -48q-83 0 -157 35t-131 99t-90 161.5t-33 214.5zM307 506
q0 -187 83 -295t223 -108q79 0 140.5 31.5t92.5 88.5v590q-26 45 -87 75t-140 30q-138 0 -225 -111.5t-87 -300.5z" />
    <glyph glyph-name="e" unicode="e" horiz-adv-x="1101" 
d="M102 493q0 234 133 381.5t344 147.5q201 0 310.5 -114.5t109.5 -316.5q0 -42 -3 -69h-692q7 -193 116 -306t287 -113q76 0 148.5 26t119.5 70v-76q-57 -65 -155 -105t-221 -40q-217 0 -357 139.5t-140 375.5zM576 919q-114 0 -186.5 -77.5t-84.5 -231.5h503v2
q0 149 -60 228t-172 79z" />
    <glyph glyph-name="f" unicode="f" horiz-adv-x="716" 
d="M410 175q0 -30 4 -45t22.5 -27t48.5 -17t88 -10v-76h-507v76q96 10 121.5 25.5t25.5 61.5v733h-147v53l147 52v107q0 184 88 283t228 99q100 0 158 -42.5t58 -108.5q0 -41 -28 -69.5t-68 -28.5q-42 0 -69 28t-27 70q0 32 17 55q-16 2 -25 2q-63 0 -99 -57.5t-36 -177.5
v-164l294 4v-105l-294 4v-725z" />
    <glyph glyph-name="g" unicode="g" horiz-adv-x="1145" 
d="M115 671q0 155 123.5 253.5t307.5 98.5q123 0 212 -41l363 19v-105l-256 12q48 -34 76.5 -96t28.5 -131q0 -105 -59.5 -186t-154.5 -122t-205 -41q-50 0 -123 12q-122 -39 -122 -119q0 -97 156 -97h249q172 0 267.5 -69t95.5 -195q0 -154 -145 -254t-376 -100
q-228 0 -355.5 72t-127.5 190q0 76 68 132t197 83q-86 7 -141 51.5t-55 114.5q0 139 213 214q-106 29 -171.5 109.5t-65.5 194.5zM316 683q0 -120 66.5 -188.5t168.5 -68.5q93 0 156 69.5t63 175.5q0 119 -62.5 188.5t-171.5 69.5q-98 0 -159 -69.5t-61 -176.5zM249 -198
q0 -84 82.5 -136t228.5 -52q154 0 246 56.5t92 145.5q0 149 -226 149h-264q-76 -14 -117.5 -57t-41.5 -106z" />
    <glyph glyph-name="h" unicode="h" horiz-adv-x="1281" 
d="M410 1486v-620q46 71 131 114t195 43q158 0 253.5 -85.5t95.5 -236.5v-538q0 -46 25 -61.5t122 -25.5v-76h-482v76q90 10 113.5 24.5t23.5 58.5v487q0 121 -63.5 186.5t-175.5 65.5q-83 0 -145 -31.5t-93 -81.5v-626q0 -44 23.5 -58.5t114.5 -24.5v-76h-482v76
q96 10 121.5 25.5t25.5 61.5v1114q0 41 -12 56.5t-55 25.5l-80 19v66z" />
    <glyph glyph-name="i" unicode="i" horiz-adv-x="611" 
d="M290 1222q-54 0 -91 36t-37 89t37 88.5t91 35.5t91 -35.5t37 -88.5t-37 -89t-91 -36zM410 1012v-849q0 -46 25.5 -61.5t121.5 -25.5v-76h-491v76q96 10 121.5 25.5t25.5 61.5v641q0 41 -12 56t-55 25l-80 19v67z" />
    <glyph glyph-name="j" unicode="j" horiz-adv-x="586" 
d="M278 1222q-54 0 -91 36t-37 89t37 88.5t91 35.5t91 -35.5t37 -88.5t-37 -89t-91 -36zM398 1012v-850q0 -217 -58.5 -345.5t-229.5 -257.5l-55 -41l-48 65q115 97 154.5 223t39.5 345v653q0 41 -12 56t-55 25l-80 19v67z" />
    <glyph glyph-name="k" unicode="k" horiz-adv-x="1140" 
d="M872 0l-313 506h-149v-347q0 -44 23.5 -58.5t114.5 -24.5v-76h-482v76q96 10 121.5 25.5t25.5 61.5v1114q0 41 -12 56.5t-55 25.5l-80 19v66l344 42v-890h148l182 192q47 49 55 75.5t-17 40t-93 21.5v76h437v-76q-78 -11 -136.5 -47t-193.5 -161l-95 -88l238 -379
q57 -91 102 -129t103 -51v-70h-268z" />
    <glyph glyph-name="l" unicode="l" horiz-adv-x="611" 
d="M410 1485v-1322q0 -46 25.5 -61.5t121.5 -25.5v-76h-491v76q96 10 121.5 25.5t25.5 61.5v1114q0 41 -12 56.5t-55 25.5l-80 19v66z" />
    <glyph glyph-name="m" unicode="m" horiz-adv-x="1919" 
d="M405 1012v-152q46 72 130 117.5t192 45.5q115 0 196.5 -43t118.5 -123q47 74 133.5 120t198.5 46q158 0 253 -87.5t95 -242.5v-530q0 -46 25.5 -61.5t121.5 -25.5v-76h-481v76q90 10 113.5 24.5t23.5 58.5v483q0 124 -62.5 190t-175.5 66q-151 0 -226 -96q5 -28 5 -77
v-566q0 -44 23.5 -58.5t114.5 -24.5v-76h-472v76q90 10 113.5 24.5t23.5 58.5v483q0 124 -60 190t-170 66q-81 0 -139.5 -31.5t-89.5 -81.5v-626q0 -44 23.5 -58.5t114.5 -24.5v-76h-482v76q96 10 121.5 25.5t25.5 61.5v641q0 41 -12 56t-55 25l-80 19v67z" />
    <glyph glyph-name="n" unicode="n" horiz-adv-x="1281" 
d="M405 1012v-152q46 73 132.5 118t198.5 45q158 0 253.5 -85.5t95.5 -236.5v-538q0 -46 25 -61.5t122 -25.5v-76h-482v76q90 10 113.5 24.5t23.5 58.5v487q0 121 -63.5 186.5t-175.5 65.5q-83 0 -145 -31.5t-93 -81.5v-626q0 -44 23.5 -58.5t114.5 -24.5v-76h-482v76
q96 10 121.5 25.5t25.5 61.5v641q0 41 -12 56t-55 25l-80 19v67z" />
    <glyph glyph-name="o" unicode="o" horiz-adv-x="1223" 
d="M603 -22q-215 0 -358 146t-143 372q0 231 147 379t370 148q216 0 359 -146t143 -372q0 -231 -147.5 -379t-370.5 -148zM619 82q136 0 212 107.5t76 295.5q0 197 -85.5 315.5t-218.5 118.5q-136 0 -212 -107.5t-76 -295.5q0 -197 85.5 -315.5t218.5 -118.5z" />
    <glyph glyph-name="p" unicode="p" horiz-adv-x="1237" 
d="M1135 513q0 -235 -136.5 -385t-339.5 -150q-80 0 -150.5 28.5t-118.5 73.5v-365q0 -30 4 -45t23 -27t48.5 -17t88.5 -10v-76h-508v76q97 10 122 25.5t25 61.5v1101q0 41 -12 56t-55 25l-80 19v67l339 41v-166q42 79 135.5 128t203.5 49q83 0 157 -35t131 -99t90 -161.5
t33 -214.5zM929 495q0 187 -83 295t-222 108q-80 0 -141.5 -31.5t-92.5 -88.5v-589q27 -46 88 -76t140 -30q138 0 224.5 111.5t86.5 300.5z" />
    <glyph glyph-name="q" unicode="q" horiz-adv-x="1220" 
d="M102 489q0 235 138 385t343 150q96 0 177.5 -39t127.5 -98l94 114h62v-1298q0 -46 25 -61.5t122 -25.5v-76h-508v76q59 5 88.5 10t47.5 17t22.5 27t4.5 45l6 440q-42 -78 -135.5 -127t-203.5 -49q-83 0 -157 35t-131 99t-90 161.5t-33 214.5zM307 507q0 -187 83 -295
t223 -108q79 0 140.5 31.5t92.5 88.5v590q-29 44 -87.5 74.5t-135.5 30.5q-140 0 -228 -111.5t-88 -300.5z" />
    <glyph glyph-name="r" unicode="r" horiz-adv-x="868" 
d="M405 1012v-205q96 109 169 160.5t140 51.5q57 0 83.5 -31t26.5 -79q0 -47 -19 -71q-35 10 -99 10q-87 0 -172 -29t-124 -74v-570q0 -30 4 -45t22.5 -27t48.5 -17t88 -10v-76h-507v76q96 10 121.5 25.5t25.5 61.5v641q0 41 -12 56t-55 25l-80 19v67z" />
    <glyph glyph-name="s" unicode="s" horiz-adv-x="973" 
d="M113 740q0 131 105.5 207t282.5 76q109 0 195.5 -21.5t134.5 -54.5l8 -250h-70q-21 107 -92.5 164.5t-174.5 57.5q-95 0 -152.5 -39.5t-57.5 -107.5q0 -65 50 -102.5t153 -65.5l81 -22q146 -39 222.5 -112t76.5 -193q0 -132 -113.5 -213.5t-280.5 -81.5q-115 0 -213 26
t-158 66l-8 255h70q26 -120 109 -181.5t198 -61.5q99 0 158 44t59 115q0 66 -45.5 106t-152.5 69l-82 22q-146 40 -224.5 111.5t-78.5 186.5z" />
    <glyph glyph-name="t" unicode="t" horiz-adv-x="755" 
d="M192 279v617h-137v53l299 238h35v-192l317 6v-105l-317 4v-572q0 -127 47.5 -180.5t131.5 -53.5t155 42v-76q-38 -33 -112.5 -57.5t-145.5 -24.5q-55 0 -101 15t-86 48t-63 94t-23 144z" />
    <glyph glyph-name="u" unicode="u" horiz-adv-x="1245" 
d="M382 1012v-649q0 -126 63 -193t177 -67q77 0 135.5 31.5t88.5 81.5v588q0 41 -12 56t-54 25l-81 19v67l345 41v-814q0 -41 12 -56.5t56 -25.5l79 -19v-66l-341 -42v152q-46 -74 -129.5 -118.5t-193.5 -44.5q-155 0 -248.5 87.5t-93.5 242.5v496q0 41 -12 56t-55 25
l-80 19v67z" />
    <glyph glyph-name="v" unicode="v" horiz-adv-x="1100" 
d="M186 764q-37 89 -68 117.5t-106 43.5v76h500v-76q-54 -4 -83 -11.5t-44 -24t-12.5 -41.5t18.5 -68l211 -558l211 558q16 43 18.5 68t-12 41.5t-43.5 24t-84 11.5v76h396v-76q-76 -11 -104.5 -37t-69.5 -126l-308 -762h-112z" />
    <glyph glyph-name="w" unicode="w" horiz-adv-x="1655" 
d="M186 764q-30 87 -63 116t-111 45v76h469v-76q-87 -8 -105.5 -35t7.5 -110l175 -539l190 539q28 82 10 110.5t-96 34.5v76h434v-76q-78 -6 -95.5 -34.5t8.5 -110.5l174 -538l187 538q28 84 9 111t-107 34v76h371v-76q-42 -6 -62.5 -12t-41.5 -23.5t-35 -45.5t-33 -80
l-281 -764h-113l-246 723l-263 -723h-113z" />
    <glyph glyph-name="x" unicode="x" horiz-adv-x="1106" 
d="M909 196q50 -62 85 -84.5t100 -35.5v-76h-489v76q75 6 102 16.5t23.5 33t-42.5 69.5l-178 221l-163 -213q-54 -72 -38 -95.5t116 -31.5v-76h-413v76q60 9 96.5 26.5t63 44t77.5 90.5l201 253l-260 322q-48 60 -79.5 80.5t-92.5 32.5v76h482v-76q-107 -8 -123.5 -29.5
t33.5 -82.5l180 -222l178 222q49 61 33 82.5t-121 29.5v76h404v-76q-78 -12 -114 -38t-105 -111l-215 -260z" />
    <glyph glyph-name="y" unicode="y" horiz-adv-x="1096" 
d="M185 764q-36 89 -67.5 117.5t-105.5 43.5v76h494v-76q-104 -9 -126.5 -35.5t7.5 -109.5l203 -543l215 543q17 43 20 68.5t-12 42t-43.5 23.5t-83.5 11v76h398v-76q-42 -6 -63.5 -12t-42.5 -24t-35.5 -45.5t-36.5 -81.5l-241 -583l-74 -179l-167 -460h-180v4
q99 185 247 469z" />
    <glyph glyph-name="z" unicode="z" horiz-adv-x="962" 
d="M87 1001h796v-69l-581 -846l299 10q51 2 82 9.5t59.5 30t46 65t32.5 111.5h70l-8 -312h-812v69l573 846l-259 -9q-60 -2 -94 -9.5t-62.5 -29.5t-45.5 -59t-34 -103h-70z" />
    <glyph glyph-name="braceleft" unicode="{" horiz-adv-x="652" 
d="M388 959q0 -266 -223 -307q223 -39 223 -307v-283q0 -60 8.5 -104t29.5 -83t63 -59t103 -20v-76h-46q-153 0 -237.5 91t-84.5 244v344q0 110 -57 166t-146 56v63q89 0 146 56t57 166v340q0 152 84.5 243t237.5 91h46v-76q-61 0 -103 -20t-63 -59t-29.5 -83t-8.5 -103
v-280z" />
    <glyph glyph-name="bar" unicode="|" horiz-adv-x="652" 
d="M249 -280v1860h155v-1860h-155z" />
    <glyph glyph-name="braceright" unicode="}" horiz-adv-x="652" 
d="M264 959v280q0 59 -8.5 103t-29.5 83t-63 59t-103 20v76h46q153 0 237.5 -91t84.5 -243v-340q0 -110 57 -166t146 -56v-63q-89 0 -146 -56t-57 -166v-344q0 -153 -84.5 -244t-237.5 -91h-46v76q61 0 103 20t63 59t29.5 83t8.5 104v283q0 268 223 307q-223 41 -223 307z
" />
    <glyph glyph-name="asciitilde" unicode="&#x223c;" horiz-adv-x="1183" 
d="M841 539q146 0 151 219h119q0 -177 -73.5 -264t-203.5 -87q-50 0 -107 22.5t-107 55t-98 64.5t-96 54.5t-86 22.5q-70 0 -108.5 -51t-42.5 -168h-118q0 177 73.5 264t203.5 87q50 0 107 -22.5t107 -55t98 -64.5t96 -54.5t85 -22.5z" />
    <glyph glyph-name="asciitilde" unicode="~" horiz-adv-x="1183" 
d="M841 539q146 0 151 219h119q0 -177 -73.5 -264t-203.5 -87q-50 0 -107 22.5t-107 55t-98 64.5t-96 54.5t-86 22.5q-70 0 -108.5 -51t-42.5 -168h-118q0 177 73.5 264t203.5 87q50 0 107 -22.5t107 -55t98 -64.5t96 -54.5t85 -22.5z" />
    <glyph glyph-name="exclamdown" unicode="&#xa1;" horiz-adv-x="559" 
d="M280 971q54 0 93.5 -39.5t39.5 -94.5q0 -56 -39.5 -95.5t-93.5 -39.5q-56 0 -95 39.5t-39 95.5q0 55 39 94.5t95 39.5zM279 -504q-51 0 -81 38t-30 103q0 53 28 336l51 523h65l51 -524q28 -266 28 -335q0 -65 -30 -103t-82 -38z" />
    <glyph glyph-name="cent" unicode="&#xa2;" horiz-adv-x="1043" 
d="M631 0h-74v200q-198 12 -326.5 151t-128.5 360q0 222 129.5 364.5t325.5 165.5v203h74v-199q158 -1 252 -61.5t94 -163.5q0 -50 -33 -84t-82 -34q-48 0 -80.5 33t-32.5 81q0 63 51 95q-57 29 -151 29h-18v-811q37 -5 70 -5q78 0 153.5 26t123.5 71v-76
q-51 -60 -141.5 -99t-205.5 -46v-200zM310 749q0 -150 65.5 -255t181.5 -146v780q-112 -29 -179.5 -128.5t-67.5 -250.5z" />
    <glyph glyph-name="sterling" unicode="&#xa3;" horiz-adv-x="1183" 
d="M118 752h212q-31 64 -47.5 103t-32 100t-15.5 117q0 125 63 217t165 137t229 45q160 0 263 -71.5t103 -186.5q0 -49 -32.5 -82t-79.5 -33q-48 0 -80 31.5t-32 79.5q0 33 17.5 59.5t44.5 37.5q-73 61 -200 61q-117 0 -188 -67.5t-71 -192.5q0 -41 11.5 -91.5t22 -81
t37 -96.5t33.5 -86h344v-74h-319q25 -83 25 -151q0 -120 -66.5 -212.5t-177.5 -143.5h724l-4 -171h-920v126q51 24 96.5 56.5t86 76.5t64 101t23.5 120q0 81 -53 198h-246v74z" />
    <glyph glyph-name="currency" unicode="&#xa4;" horiz-adv-x="1183" 
d="M590 168q-135 0 -241 76l-138 -138l-95 96l138 137q-75 107 -75 241q0 136 76 242l-139 140l95 95l139 -139q109 75 241 75q135 0 241 -76l139 140l95 -95l-139 -140q76 -106 76 -242q0 -135 -75 -240l138 -138l-95 -96l-138 138q-108 -76 -243 -76zM590 292
q117 0 196 81.5t79 206.5q0 126 -79 207t-195 81q-117 0 -196 -80.5t-79 -207.5q0 -125 79 -206.5t195 -81.5z" />
    <glyph glyph-name="yen" unicode="&#xa5;" horiz-adv-x="1183" 
d="M142 508h351v207h-351v74h327l-232 391q-64 108 -108.5 142t-136.5 46v76h555v-76q-119 -13 -133.5 -49.5t46.5 -139.5l187 -339l186 339q59 102 44.5 139t-131.5 50v76h445v-76q-91 -12 -137 -47t-117 -153l-226 -379h332v-74h-352v-207h352v-74h-352v-223
q0 -39 5.5 -60t26.5 -37.5t56.5 -24t101.5 -13.5v-76h-578v76q66 6 101.5 13.5t56.5 24t26.5 37.5t5.5 60v223h-351v74z" />
    <glyph glyph-name="brokenbar" unicode="&#xa6;" horiz-adv-x="652" 
d="M249 789v791h155v-791h-155zM249 -280v791h155v-791h-155z" />
    <glyph glyph-name="section" unicode="&#xa7;" horiz-adv-x="1035" 
d="M110 612q0 114 87 191.5t217 77.5q14 0 20 -1q-58 33 -97.5 62.5t-74 67.5t-51.5 84.5t-17 102.5q0 129 97.5 203t243.5 74q184 0 285 -75l8 -251h-70q-21 110 -78 166t-145 56q-83 0 -129.5 -36t-46.5 -107q0 -76 53.5 -125.5t160.5 -100.5l87 -42q147 -70 213.5 -149
t66.5 -192q0 -114 -91 -189.5t-225 -75.5h-1q223 -129 223 -317q0 -90 -52 -156.5t-130 -98t-169 -31.5q-186 0 -320 92l-8 255h70q55 -242 257 -242q90 0 138.5 43.5t48.5 115.5q0 70 -47 119.5t-159 103.5l-87 42q-146 70 -212 143t-66 190zM777 575q0 127 -150 208
q-57 30 -92.5 40t-78.5 10q-76 0 -129.5 -49.5t-53.5 -124.5q0 -127 151 -208q56 -30 91.5 -40t79.5 -10q76 0 129 49.5t53 124.5z" />
    <glyph glyph-name="dieresis" unicode="&#xa8;" horiz-adv-x="1024" 
d="M283 1235q-48 0 -81.5 32t-33.5 80q0 47 33.5 79t81.5 32t81.5 -32t33.5 -79q0 -48 -33.5 -80t-81.5 -32zM741 1235q-48 0 -81.5 32t-33.5 80q0 47 33.5 79t81.5 32t81.5 -32t33.5 -79q0 -48 -33.5 -80t-81.5 -32z" />
    <glyph glyph-name="copyright" unicode="&#xa9;" horiz-adv-x="1716" 
d="M858 -28q-203 0 -376 101t-274 274t-101 376t101 376t274 274t376 101t376 -101t274 -274t101 -376t-101 -376t-274 -274t-376 -101zM858 46q179 0 332.5 91t243 247t89.5 339t-89.5 339t-243 247t-332.5 91t-332.5 -91t-243 -247t-89.5 -339t89.5 -339t243 -247
t332.5 -91zM517 721q0 168 106 268t271 100q164 0 236 -52l5 -173h-44q-20 82 -64.5 118.5t-118.5 36.5q-108 0 -169 -78t-61 -208q0 -134 64 -220.5t166 -86.5q75 0 120.5 37t65.5 125h44l-5 -172q-34 -26 -101 -43t-139 -17q-159 0 -267.5 100.5t-108.5 264.5z" />
    <glyph glyph-name="a.sups" unicode="&#xaa;" horiz-adv-x="708" 
d="M246 833q-76 0 -125 39t-49 100q0 66 54 110t176 70l132 28v34q0 125 -134 125q-40 0 -75 -11q21 -21 21 -52q0 -32 -22 -53.5t-55 -21.5t-55 20.5t-22 52.5q0 60 73 100t181 40q112 0 173.5 -47.5t61.5 -145.5v-241q0 -32 17 -47.5t44 -15.5q20 0 31 4v-53
q-40 -31 -105 -31q-48 0 -82.5 22t-44.5 61q-27 -38 -79 -62.5t-116 -24.5zM221 1000q0 -38 27.5 -59t71.5 -21q76 0 114 46v150l-71 -14q-77 -16 -109.5 -39.5t-32.5 -62.5z" />
    <glyph glyph-name="guillemetleft" unicode="&#xab;" horiz-adv-x="1098" 
d="M57 506v32l416 421h118l-330 -433l330 -441h-118zM492 506v32l416 421h118l-330 -433l330 -441h-118z" />
    <glyph glyph-name="logicalnot" unicode="&#xac;" horiz-adv-x="1183" 
d="M118 516v134h947v-540h-134v406h-813z" />
    <glyph glyph-name="registered" unicode="&#xae;" horiz-adv-x="1716" 
d="M858 -28q-203 0 -376 101t-274 274t-101 376t101 376t274 274t376 101t376 -101t274 -274t101 -376t-101 -376t-274 -274t-376 -101zM858 46q179 0 332.5 91t243 247t89.5 339t-89.5 339t-243 247t-332.5 91t-332.5 -91t-243 -247t-89.5 -339t89.5 -339t243 -247
t332.5 -91zM1154 880q0 -62 -37.5 -108t-101.5 -65l85 -161q40 -72 62 -96t46 -31v-48h-169l-159 299h-103v-190q0 -31 13.5 -41.5t63.5 -16.5v-51h-305v51q54 6 68 17t14 44v479q0 33 -14 44t-68 17v51h320q140 0 212.5 -51.5t72.5 -142.5zM1005 870q0 137 -178 143l-51 2
v-286l61 2q81 2 124.5 37.5t43.5 101.5z" />
    <glyph glyph-name="macron" unicode="&#xaf;" horiz-adv-x="1024" 
d="M218 1269v130h588v-130h-588z" />
    <glyph glyph-name="degree" unicode="&#xb0;" horiz-adv-x="768" 
d="M385 829q-123 0 -209.5 83t-86.5 203t86.5 203.5t209.5 83.5q122 0 208.5 -83.5t86.5 -203.5t-86.5 -203t-208.5 -83zM385 934q70 0 119.5 52.5t49.5 128.5q0 77 -49.5 129.5t-119.5 52.5q-71 0 -121 -52.5t-50 -129.5t50 -129t121 -52z" />
    <glyph glyph-name="plusminus" unicode="&#xb1;" horiz-adv-x="1183" 
d="M525 326v298h-407v134h407v300h134v-300h406v-134h-406v-298h-134zM118 110v134h947v-134h-947z" />
    <glyph glyph-name="two.sups" unicode="&#xb2;" horiz-adv-x="687" 
d="M595 845h-525v102l187 183q94 94 130 152.5t36 120.5q0 60 -38.5 96.5t-101.5 36.5q-61 0 -107 -30.5t-71 -85.5l-48 22q32 93 103.5 148t181.5 55q106 0 171 -58t65 -151q0 -74 -51 -144t-172 -168l-182 -147h422v-132z" />
    <glyph glyph-name="three.sups" unicode="&#xb3;" horiz-adv-x="729" 
d="M332 828q-109 0 -180.5 49t-71.5 120q0 34 21.5 56t53.5 22t53.5 -21.5t21.5 -53.5q0 -44 -37 -64q43 -33 117 -33q71 0 119 39.5t48 111.5q0 78 -54.5 123t-143.5 45q-37 0 -72 -7v62q253 29 253 147q0 53 -37.5 83t-102.5 30q-132 0 -185 -109l-49 24
q29 89 102.5 141.5t178.5 52.5q106 0 170 -48.5t64 -128.5q0 -65 -48 -114t-126 -65q93 -14 148 -74t55 -144q0 -114 -85 -179t-213 -65z" />
    <glyph glyph-name="acute" unicode="&#xb4;" horiz-adv-x="1024" 
d="M482 1165h-95l191 364h219v-12z" />
    <glyph glyph-name="mugreek" unicode="&#x3bc;" horiz-adv-x="1206" 
d="M154 -460v1461h204q-18 -306 -18 -600q0 -145 65.5 -219.5t181.5 -74.5q77 0 136 36t85 101l-9 757h204l-12 -723q-1 -92 30 -132t104 -40q34 0 56 11v-76q-72 -57 -173 -57q-75 0 -125 44t-58 130q-31 -79 -109.5 -129.5t-175.5 -50.5q-136 0 -213 80q3 -269 29 -518
h-202z" />
    <glyph glyph-name="mugreek" unicode="&#xb5;" horiz-adv-x="1206" 
d="M154 -460v1461h204q-18 -306 -18 -600q0 -145 65.5 -219.5t181.5 -74.5q77 0 136 36t85 101l-9 757h204l-12 -723q-1 -92 30 -132t104 -40q34 0 56 11v-76q-72 -57 -173 -57q-75 0 -125 44t-58 130q-31 -79 -109.5 -129.5t-175.5 -50.5q-136 0 -213 80q3 -269 29 -518
h-202z" />
    <glyph glyph-name="paragraph" unicode="&#xb6;" horiz-adv-x="1314" 
d="M593 -220v821h-42q-80 0 -159.5 28.5t-147 81t-109.5 138t-42 188.5q0 99 40 179t106 128.5t146 74t166 25.5h166v-1664h-124zM929 1444h303v-76q-64 -6 -97.5 -11.5t-53 -20t-24 -32t-4.5 -53.5v-1471h-124v1664z" />
    <glyph glyph-name="middledot" unicode="&#x2e31;" horiz-adv-x="548" 
d="M274 446q-55 0 -95 40.5t-40 96.5q0 57 39.5 97t95.5 40t95.5 -40t39.5 -97q0 -56 -40 -96.5t-95 -40.5z" />
    <glyph glyph-name="middledot" unicode="&#x2027;" horiz-adv-x="548" 
d="M274 446q-55 0 -95 40.5t-40 96.5q0 57 39.5 97t95.5 40t95.5 -40t39.5 -97q0 -56 -40 -96.5t-95 -40.5z" />
    <glyph glyph-name="middledot" unicode="&#xb7;" horiz-adv-x="548" 
d="M274 446q-55 0 -95 40.5t-40 96.5q0 57 39.5 97t95.5 40t95.5 -40t39.5 -97q0 -56 -40 -96.5t-95 -40.5z" />
    <glyph glyph-name="cedilla" unicode="&#xb8;" horiz-adv-x="1024" 
d="M481 -490q-134 0 -203 62v76q59 -42 150 -42q54 0 89.5 22.5t35.5 63.5q0 43 -39.5 65.5t-102.5 22.5q-23 0 -41 -4v72l139 189h70v-37l-74 -111q95 -2 156.5 -53t61.5 -139q0 -86 -72 -136.5t-170 -50.5z" />
    <glyph glyph-name="one.sups" unicode="&#xb9;" horiz-adv-x="637" 
d="M397 1629l1 -649q0 -40 25 -55.5t108 -23.5v-56h-417v56q83 8 108 23.5t25 55.5v526l-142 -32v50l222 105h70z" />
    <glyph glyph-name="o.sups" unicode="&#xba;" horiz-adv-x="771" 
d="M381 833q-133 0 -218 80t-85 207q0 129 88.5 211t223.5 82q133 0 218.5 -79.5t85.5 -207.5q0 -129 -88.5 -211t-224.5 -82zM389 907q69 0 107.5 55t38.5 154q0 102 -43 162.5t-111 60.5t-106.5 -55.5t-38.5 -153.5q0 -102 42.5 -162.5t110.5 -60.5z" />
    <glyph glyph-name="guillemetright" unicode="&#xbb;" horiz-adv-x="1098" 
d="M606 538v-32l-416 -421h-117l330 433l-330 441h117zM1041 538v-32l-416 -421h-117l330 433l-330 441h117z" />
    <glyph glyph-name="onequarter" unicode="&#xbc;" horiz-adv-x="1667" 
d="M397 1445l1 -649q0 -40 25 -55.5t108 -23.5v-56h-417v56q83 8 108 23.5t25 55.5v526l-142 -32v50l222 105h70zM356 0l905 1444h133l-906 -1444h-132zM1355 0v176h-384v87l394 521h123v-491h131v-117h-130v-176h-134zM1355 293v368l-268 -368h268z" />
    <glyph glyph-name="onehalf" unicode="&#xbd;" horiz-adv-x="1733" 
d="M397 1445l1 -649q0 -40 25 -55.5t108 -23.5v-56h-417v56q83 8 108 23.5t25 55.5v526l-142 -32v50l222 105h70zM356 0l905 1444h133l-906 -1444h-132zM1641 0h-525v102l187 183q94 94 130 152.5t36 120.5q0 60 -38.5 96.5t-101.5 36.5q-61 0 -107 -30.5t-71 -85.5l-48 22
q32 93 103.5 148t181.5 55q106 0 171 -58t65 -151q0 -74 -51 -144t-172 -168l-182 -147h422v-132z" />
    <glyph glyph-name="threequarters" unicode="&#xbe;" horiz-adv-x="1692" 
d="M332 644q-109 0 -180.5 49t-71.5 120q0 34 21.5 56t53.5 22t53.5 -21.5t21.5 -53.5q0 -44 -37 -64q43 -33 117 -33q71 0 119 39.5t48 111.5q0 78 -54.5 123t-143.5 45q-37 0 -72 -7v62q253 29 253 147q0 53 -37.5 83t-102.5 30q-132 0 -185 -109l-49 24
q29 89 102.5 141.5t178.5 52.5q106 0 170 -48.5t64 -128.5q0 -65 -48 -114t-126 -65q93 -14 148 -74t55 -144q0 -114 -85 -179t-213 -65zM380 0l905 1444h133l-906 -1444h-132zM1380 0v176h-384v87l394 521h123v-491h131v-117h-130v-176h-134zM1380 293v368l-268 -368h268z
" />
    <glyph glyph-name="questiondown" unicode="&#xbf;" horiz-adv-x="762" 
d="M471 971q54 0 93.5 -39.5t39.5 -94.5q0 -56 -39.5 -95.5t-93.5 -39.5q-56 0 -95 39.5t-39 95.5q0 55 39.5 94.5t94.5 39.5zM515 -509q-174 0 -295 123t-121 311q0 169 95.5 276.5t256.5 146.5l-6 148h69l45 -352q-166 -7 -254 -58.5t-88 -158.5q0 -84 58.5 -145.5
t159.5 -92t232 -30.5q8 -26 8 -46q0 -54 -42.5 -88t-117.5 -34z" />
    <glyph glyph-name="Agrave" unicode="&#xc0;" horiz-adv-x="1448" 
d="M758 1570l-296 271v9h226l163 -280h-93zM1244 267q42 -113 79.5 -146.5t132.5 -44.5v-76h-571v76q122 15 145.5 49t-14.5 143l-82 232h-522l-81 -232q-38 -110 -14.5 -143.5t145.5 -48.5v-76h-470v76q100 11 135.5 44t80.5 153l432 1171h170zM445 594h456l-230 651z" />
    <glyph glyph-name="Aacute" unicode="&#xc1;" horiz-adv-x="1448" 
d="M701 1570h-93l169 280h217v-9zM1244 267q42 -113 79.5 -146.5t132.5 -44.5v-76h-571v76q122 15 145.5 49t-14.5 143l-82 232h-522l-81 -232q-38 -110 -14.5 -143.5t145.5 -48.5v-76h-470v76q100 11 135.5 44t80.5 153l432 1171h170zM445 594h456l-230 651z" />
    <glyph glyph-name="Acircumflex" unicode="&#xc2;" horiz-adv-x="1448" 
d="M541 1570h-91l214 280h135l214 -280h-95l-186 151zM1244 267q42 -113 79.5 -146.5t132.5 -44.5v-76h-571v76q122 15 145.5 49t-14.5 143l-82 232h-522l-81 -232q-38 -110 -14.5 -143.5t145.5 -48.5v-76h-470v76q100 11 135.5 44t80.5 153l432 1171h170zM445 594h456
l-230 651z" />
    <glyph glyph-name="Atilde" unicode="&#xc3;" horiz-adv-x="1448" 
d="M838 1585q-40 0 -71.5 15t-72.5 46l-29 23q-45 35 -78 35q-30 0 -45.5 -27.5t-18.5 -93.5h-85q0 127 47 189t120 62q39 0 70.5 -15t73.5 -46l29 -23q45 -35 78 -35q30 0 45.5 27.5t18.5 93.5h85q0 -127 -47 -189t-120 -62zM1244 267q42 -113 79.5 -146.5t132.5 -44.5v-76
h-571v76q122 15 145.5 49t-14.5 143l-82 232h-522l-81 -232q-38 -110 -14.5 -143.5t145.5 -48.5v-76h-470v76q100 11 135.5 44t80.5 153l432 1171h170zM445 594h456l-230 651z" />
    <glyph glyph-name="Adieresis" unicode="&#xc4;" horiz-adv-x="1448" 
d="M549 1608q-44 0 -74 29.5t-30 72.5t30 73t74 30t74 -30t30 -73t-30 -72.5t-74 -29.5zM894 1608q-44 0 -74 29.5t-30 72.5t30 73t74 30t74 -30t30 -73t-30 -72.5t-74 -29.5zM1244 267q42 -113 79.5 -146.5t132.5 -44.5v-76h-571v76q122 15 145.5 49t-14.5 143l-82 232
h-522l-81 -232q-38 -110 -14.5 -143.5t145.5 -48.5v-76h-470v76q100 11 135.5 44t80.5 153l432 1171h170zM445 594h456l-230 651z" />
    <glyph glyph-name="Aring" unicode="&#x212b;" horiz-adv-x="1448" 
d="M476 1758q0 84 71 139t174 55t174 -55t71 -139t-71 -138.5t-174 -54.5t-174 54.5t-71 138.5zM615 1758q0 -50 29.5 -81.5t75.5 -31.5t75.5 31.5t29.5 81.5q0 51 -29.5 82.5t-75.5 31.5t-75.5 -31.5t-29.5 -82.5zM1244 267q42 -113 79.5 -146.5t132.5 -44.5v-76h-571v76
q122 15 145.5 49t-14.5 143l-82 232h-522l-81 -232q-38 -110 -14.5 -143.5t145.5 -48.5v-76h-470v76q100 11 135.5 44t80.5 153l432 1171h170zM445 594h456l-230 651z" />
    <glyph glyph-name="Aring" unicode="&#xc5;" horiz-adv-x="1448" 
d="M476 1758q0 84 71 139t174 55t174 -55t71 -139t-71 -138.5t-174 -54.5t-174 54.5t-71 138.5zM615 1758q0 -50 29.5 -81.5t75.5 -31.5t75.5 31.5t29.5 81.5q0 51 -29.5 82.5t-75.5 31.5t-75.5 -31.5t-29.5 -82.5zM1244 267q42 -113 79.5 -146.5t132.5 -44.5v-76h-571v76
q122 15 145.5 49t-14.5 143l-82 232h-522l-81 -232q-38 -110 -14.5 -143.5t145.5 -48.5v-76h-470v76q100 11 135.5 44t80.5 153l432 1171h170zM445 594h456l-230 651z" />
    <glyph glyph-name="AE" unicode="&#xc6;" horiz-adv-x="1988" 
d="M1835 1444l16 -360h-70q-19 81 -44 129.5t-68 78t-98 40.5t-145 15l-234 9l7 -572h247q36 0 55.5 14t35.5 56.5t33 132.5h66l5 -495h-66q-24 127 -48.5 165.5t-78.5 38.5h-248l7 -608l230 9q53 2 88.5 4.5t72.5 7t60.5 12.5t48 19t39.5 28t30 38t25 51.5t18.5 65.5
t16.5 82h70l-11 -405h-1063v76q78 7 112 18.5t45 32.5t10 67l-4 375h-483l-153 -308q-48 -98 -27.5 -134.5t131.5 -50.5v-76h-479v76q100 10 143 41.5t97 138.5l608 1188h1003zM903 1356l-344 -692h435l-8 692h-83z" />
    <glyph glyph-name="Ccedilla" unicode="&#xc7;" horiz-adv-x="1449" 
d="M107 723q0 173 57.5 315t158 237t237 147t294.5 52q159 0 285 -32t196 -83l11 -306h-69q-42 168 -140 240t-262 72q-248 0 -387.5 -169t-139.5 -447q0 -296 148.5 -483t378.5 -187q169 0 268 72.5t141 254.5h70l-12 -307q-64 -47 -182.5 -83.5t-247.5 -43.5l-56 -83
q95 -2 157 -53t62 -139q0 -86 -72 -136.5t-170 -50.5q-134 0 -203 62v76q59 -42 150 -42q54 0 89.5 22.5t35.5 63.5q0 44 -39 66t-103 22q-23 0 -41 -4v72l90 123q-142 7 -269.5 62t-224.5 149.5t-154 234.5t-57 306z" />
    <glyph glyph-name="Egrave" unicode="&#xc8;" horiz-adv-x="1299" 
d="M692 1570l-296 271v9h226l163 -280h-93zM1156 1444l12 -360h-70q-35 156 -106 207t-246 56l-286 9v-572h299q52 0 75.5 36.5t50.5 166.5h66v-495h-66q-22 127 -46.5 165.5t-79.5 38.5h-299v-608l282 9q80 2 127.5 6.5t94 17t71 31.5t48 54t37 81.5t26.5 117.5h70
l-15 -405h-1132v76q82 7 117.5 19t46.5 33.5t11 69.5v1048q0 48 -11 69.5t-46.5 33.5t-117.5 19v76h1087z" />
    <glyph glyph-name="Eacute" unicode="&#xc9;" horiz-adv-x="1299" 
d="M635 1570h-93l169 280h217v-9zM1156 1444l12 -360h-70q-35 156 -106 207t-246 56l-286 9v-572h299q52 0 75.5 36.5t50.5 166.5h66v-495h-66q-22 127 -46.5 165.5t-79.5 38.5h-299v-608l282 9q80 2 127.5 6.5t94 17t71 31.5t48 54t37 81.5t26.5 117.5h70l-15 -405h-1132
v76q82 7 117.5 19t46.5 33.5t11 69.5v1048q0 48 -11 69.5t-46.5 33.5t-117.5 19v76h1087z" />
    <glyph glyph-name="Ecircumflex" unicode="&#xca;" horiz-adv-x="1299" 
d="M475 1570h-91l214 280h135l214 -280h-95l-186 151zM1156 1444l12 -360h-70q-35 156 -106 207t-246 56l-286 9v-572h299q52 0 75.5 36.5t50.5 166.5h66v-495h-66q-22 127 -46.5 165.5t-79.5 38.5h-299v-608l282 9q80 2 127.5 6.5t94 17t71 31.5t48 54t37 81.5t26.5 117.5
h70l-15 -405h-1132v76q82 7 117.5 19t46.5 33.5t11 69.5v1048q0 48 -11 69.5t-46.5 33.5t-117.5 19v76h1087z" />
    <glyph glyph-name="Edieresis" unicode="&#xcb;" horiz-adv-x="1299" 
d="M483 1608q-44 0 -74 29.5t-30 72.5t30 73t74 30t74 -30t30 -73t-30 -72.5t-74 -29.5zM828 1608q-44 0 -74 29.5t-30 72.5t30 73t74 30t74 -30t30 -73t-30 -72.5t-74 -29.5zM1156 1444l12 -360h-70q-35 156 -106 207t-246 56l-286 9v-572h299q52 0 75.5 36.5t50.5 166.5
h66v-495h-66q-22 127 -46.5 165.5t-79.5 38.5h-299v-608l282 9q80 2 127.5 6.5t94 17t71 31.5t48 54t37 81.5t26.5 117.5h70l-15 -405h-1132v76q82 7 117.5 19t46.5 33.5t11 69.5v1048q0 48 -11 69.5t-46.5 33.5t-117.5 19v76h1087z" />
    <glyph glyph-name="Igrave" unicode="&#xcc;" horiz-adv-x="704" 
d="M389 1570l-296 271v9h226l163 -280h-93zM460 198q0 -48 11 -69.5t46.5 -33.5t117.5 -19v-76h-566v76q82 7 117.5 19t46.5 33.5t11 69.5v1048q0 48 -11 69.5t-46.5 33.5t-117.5 19v76h566v-76q-82 -7 -117.5 -19t-46.5 -33.5t-11 -69.5v-1048z" />
    <glyph glyph-name="Iacute" unicode="&#xcd;" horiz-adv-x="704" 
d="M332 1570h-93l169 280h217v-9zM460 198q0 -48 11 -69.5t46.5 -33.5t117.5 -19v-76h-566v76q82 7 117.5 19t46.5 33.5t11 69.5v1048q0 48 -11 69.5t-46.5 33.5t-117.5 19v76h566v-76q-82 -7 -117.5 -19t-46.5 -33.5t-11 -69.5v-1048z" />
    <glyph glyph-name="Icircumflex" unicode="&#xce;" horiz-adv-x="704" 
d="M172 1570h-91l214 280h135l214 -280h-95l-186 151zM460 198q0 -48 11 -69.5t46.5 -33.5t117.5 -19v-76h-566v76q82 7 117.5 19t46.5 33.5t11 69.5v1048q0 48 -11 69.5t-46.5 33.5t-117.5 19v76h566v-76q-82 -7 -117.5 -19t-46.5 -33.5t-11 -69.5v-1048z" />
    <glyph glyph-name="Idieresis" unicode="&#xcf;" horiz-adv-x="704" 
d="M180 1608q-44 0 -74 29.5t-30 72.5t30 73t74 30t74 -30t30 -73t-30 -72.5t-74 -29.5zM525 1608q-44 0 -74 29.5t-30 72.5t30 73t74 30t74 -30t30 -73t-30 -72.5t-74 -29.5zM460 198q0 -48 11 -69.5t46.5 -33.5t117.5 -19v-76h-566v76q82 7 117.5 19t46.5 33.5t11 69.5
v1048q0 48 -11 69.5t-46.5 33.5t-117.5 19v76h566v-76q-82 -7 -117.5 -19t-46.5 -33.5t-11 -69.5v-1048z" />
    <glyph glyph-name="Dbar" unicode="&#x110;" horiz-adv-x="1559" 
d="M69 693v94h175v459q0 48 -11 69.5t-46.5 33.5t-117.5 19v76h596q227 0 407.5 -82t286.5 -242.5t106 -375.5q0 -167 -65.5 -309t-175.5 -236t-254.5 -146.5t-302.5 -52.5h-598v76q82 7 117.5 19t46.5 33.5t11 69.5v495h-175zM1227 728q0 278 -166.5 446t-445.5 177l-155 5
v-569h335v-94h-335v-605l155 5q281 9 446.5 178.5t165.5 456.5z" />
    <glyph glyph-name="Dbar" unicode="&#xd0;" horiz-adv-x="1559" 
d="M69 693v94h175v459q0 48 -11 69.5t-46.5 33.5t-117.5 19v76h596q227 0 407.5 -82t286.5 -242.5t106 -375.5q0 -167 -65.5 -309t-175.5 -236t-254.5 -146.5t-302.5 -52.5h-598v76q82 7 117.5 19t46.5 33.5t11 69.5v495h-175zM1227 728q0 278 -166.5 446t-445.5 177l-155 5
v-569h335v-94h-335v-605l155 5q281 9 446.5 178.5t165.5 456.5z" />
    <glyph glyph-name="Ntilde" unicode="&#xd1;" horiz-adv-x="1580" 
d="M915 1585q-40 0 -71.5 15t-72.5 46l-29 23q-45 35 -78 35q-30 0 -45.5 -27.5t-18.5 -93.5h-85q0 127 47 189t120 62q39 0 70.5 -15t73.5 -46l29 -23q45 -35 78 -35q30 0 45.5 27.5t18.5 93.5h85q0 -127 -47 -189t-120 -62zM418 1444l850 -1232l-20 1018q0 43 -5 65
t-24.5 38t-51.5 22.5t-93 12.5v76h467v-76q-59 -7 -89.5 -14.5t-48.5 -24t-23 -37t-5 -61.5l-7 -1231h-209l-848 1229l20 -1015q1 -56 13 -81t46.5 -37.5t115.5 -19.5v-76h-468v76q78 9 111.5 22.5t44.5 37.5t11 77l4 1011q0 43 -4.5 65.5t-23.5 40t-50 25t-89 13.5v76h376z
" />
    <glyph glyph-name="Ograve" unicode="&#xd2;" horiz-adv-x="1671" 
d="M863 1570l-296 271v9h226l163 -280h-93zM107 722q0 209 89 379.5t257.5 271.5t385.5 101q138 0 268 -52.5t232 -146.5t164 -238.5t62 -314.5q0 -156 -52.5 -293.5t-146 -239t-232 -160.5t-302.5 -59q-110 0 -216 32.5t-197.5 97.5t-161.5 154t-110 210t-40 258zM348 742
q0 -178 59.5 -327.5t176 -242.5t267.5 -93q122 0 214.5 49.5t147.5 137t82.5 197.5t27.5 239q0 178 -59.5 327.5t-176 242.5t-267.5 93q-98 0 -177 -33t-133.5 -90t-91.5 -136.5t-53.5 -170t-16.5 -193.5z" />
    <glyph glyph-name="Oacute" unicode="&#xd3;" horiz-adv-x="1671" 
d="M806 1570h-93l169 280h217v-9zM107 722q0 209 89 379.5t257.5 271.5t385.5 101q138 0 268 -52.5t232 -146.5t164 -238.5t62 -314.5q0 -156 -52.5 -293.5t-146 -239t-232 -160.5t-302.5 -59q-110 0 -216 32.5t-197.5 97.5t-161.5 154t-110 210t-40 258zM348 742
q0 -178 59.5 -327.5t176 -242.5t267.5 -93q122 0 214.5 49.5t147.5 137t82.5 197.5t27.5 239q0 178 -59.5 327.5t-176 242.5t-267.5 93q-98 0 -177 -33t-133.5 -90t-91.5 -136.5t-53.5 -170t-16.5 -193.5z" />
    <glyph glyph-name="Ocircumflex" unicode="&#xd4;" horiz-adv-x="1671" 
d="M646 1570h-91l214 280h135l214 -280h-95l-186 151zM107 722q0 209 89 379.5t257.5 271.5t385.5 101q138 0 268 -52.5t232 -146.5t164 -238.5t62 -314.5q0 -156 -52.5 -293.5t-146 -239t-232 -160.5t-302.5 -59q-110 0 -216 32.5t-197.5 97.5t-161.5 154t-110 210t-40 258
zM348 742q0 -178 59.5 -327.5t176 -242.5t267.5 -93q122 0 214.5 49.5t147.5 137t82.5 197.5t27.5 239q0 178 -59.5 327.5t-176 242.5t-267.5 93q-98 0 -177 -33t-133.5 -90t-91.5 -136.5t-53.5 -170t-16.5 -193.5z" />
    <glyph glyph-name="Otilde" unicode="&#xd5;" horiz-adv-x="1671" 
d="M943 1585q-40 0 -71.5 15t-72.5 46l-29 23q-45 35 -78 35q-30 0 -45.5 -27.5t-18.5 -93.5h-85q0 127 47 189t120 62q39 0 70.5 -15t73.5 -46l29 -23q45 -35 78 -35q30 0 45.5 27.5t18.5 93.5h85q0 -127 -47 -189t-120 -62zM107 722q0 209 89 379.5t257.5 271.5t385.5 101
q138 0 268 -52.5t232 -146.5t164 -238.5t62 -314.5q0 -156 -52.5 -293.5t-146 -239t-232 -160.5t-302.5 -59q-110 0 -216 32.5t-197.5 97.5t-161.5 154t-110 210t-40 258zM348 742q0 -178 59.5 -327.5t176 -242.5t267.5 -93q122 0 214.5 49.5t147.5 137t82.5 197.5t27.5 239
q0 178 -59.5 327.5t-176 242.5t-267.5 93q-98 0 -177 -33t-133.5 -90t-91.5 -136.5t-53.5 -170t-16.5 -193.5z" />
    <glyph glyph-name="Odieresis" unicode="&#xd6;" horiz-adv-x="1671" 
d="M654 1608q-44 0 -74 29.5t-30 72.5t30 73t74 30t74 -30t30 -73t-30 -72.5t-74 -29.5zM999 1608q-44 0 -74 29.5t-30 72.5t30 73t74 30t74 -30t30 -73t-30 -72.5t-74 -29.5zM107 722q0 209 89 379.5t257.5 271.5t385.5 101q138 0 268 -52.5t232 -146.5t164 -238.5
t62 -314.5q0 -156 -52.5 -293.5t-146 -239t-232 -160.5t-302.5 -59q-110 0 -216 32.5t-197.5 97.5t-161.5 154t-110 210t-40 258zM348 742q0 -178 59.5 -327.5t176 -242.5t267.5 -93q122 0 214.5 49.5t147.5 137t82.5 197.5t27.5 239q0 178 -59.5 327.5t-176 242.5
t-267.5 93q-98 0 -177 -33t-133.5 -90t-91.5 -136.5t-53.5 -170t-16.5 -193.5z" />
    <glyph glyph-name="multiply" unicode="&#xd7;" horiz-adv-x="1183" 
d="M1042 229l-96 -96l-357 356l-354 -354l-92 92l354 354l-356 356l97 97l356 -356l354 354l92 -92l-354 -354z" />
    <glyph glyph-name="Oslash" unicode="&#xd8;" horiz-adv-x="1671" 
d="M107 722q0 209 89 379.5t257.5 271.5t385.5 101q254 0 453 -159l127 144l73 -65l-128 -145q201 -211 201 -527q0 -156 -52.5 -293.5t-146 -239t-232 -160.5t-302.5 -59q-122 0 -239.5 41t-213.5 118l-126 -144l-74 66l128 145q-200 212 -200 526zM348 742q0 -223 92 -395
l736 836q-140 182 -356 182q-98 0 -177 -33t-133.5 -90t-91.5 -136.5t-53.5 -170t-16.5 -193.5zM1323 702q0 223 -92 395l-735 -836q140 -182 355 -182q122 0 214.5 49.5t147.5 137t82.5 197.5t27.5 239z" />
    <glyph glyph-name="Ugrave" unicode="&#xd9;" horiz-adv-x="1576" 
d="M872 1570l-296 271v9h226l163 -280h-93zM203 1250q0 66 -28.5 87t-138.5 31v76h558v-76q-82 -7 -117.5 -19t-46.5 -33.5t-11 -69.5v-699q0 -207 118 -321t303 -114q196 0 305 115t108 335l-5 671q0 41 -5 62t-24 37.5t-51.5 23.5t-94.5 12v76h467v-77q-58 -5 -89 -12
t-49.5 -23t-23.5 -37t-5 -61l-6 -691q-2 -266 -161.5 -419.5t-430.5 -153.5q-111 0 -212 34.5t-182.5 101t-129.5 174.5t-48 243v727z" />
    <glyph glyph-name="Uacute" unicode="&#xda;" horiz-adv-x="1576" 
d="M815 1570h-93l169 280h217v-9zM203 1250q0 66 -28.5 87t-138.5 31v76h558v-76q-82 -7 -117.5 -19t-46.5 -33.5t-11 -69.5v-699q0 -207 118 -321t303 -114q196 0 305 115t108 335l-5 671q0 41 -5 62t-24 37.5t-51.5 23.5t-94.5 12v76h467v-77q-58 -5 -89 -12t-49.5 -23
t-23.5 -37t-5 -61l-6 -691q-2 -266 -161.5 -419.5t-430.5 -153.5q-111 0 -212 34.5t-182.5 101t-129.5 174.5t-48 243v727z" />
    <glyph glyph-name="Ucircumflex" unicode="&#xdb;" horiz-adv-x="1576" 
d="M655 1570h-91l214 280h135l214 -280h-95l-186 151zM203 1250q0 66 -28.5 87t-138.5 31v76h558v-76q-82 -7 -117.5 -19t-46.5 -33.5t-11 -69.5v-699q0 -207 118 -321t303 -114q196 0 305 115t108 335l-5 671q0 41 -5 62t-24 37.5t-51.5 23.5t-94.5 12v76h467v-77
q-58 -5 -89 -12t-49.5 -23t-23.5 -37t-5 -61l-6 -691q-2 -266 -161.5 -419.5t-430.5 -153.5q-111 0 -212 34.5t-182.5 101t-129.5 174.5t-48 243v727z" />
    <glyph glyph-name="Udieresis" unicode="&#xdc;" horiz-adv-x="1576" 
d="M663 1608q-44 0 -74 29.5t-30 72.5t30 73t74 30t74 -30t30 -73t-30 -72.5t-74 -29.5zM1008 1608q-44 0 -74 29.5t-30 72.5t30 73t74 30t74 -30t30 -73t-30 -72.5t-74 -29.5zM203 1250q0 66 -28.5 87t-138.5 31v76h558v-76q-82 -7 -117.5 -19t-46.5 -33.5t-11 -69.5v-699
q0 -207 118 -321t303 -114q196 0 305 115t108 335l-5 671q0 41 -5 62t-24 37.5t-51.5 23.5t-94.5 12v76h467v-77q-58 -5 -89 -12t-49.5 -23t-23.5 -37t-5 -61l-6 -691q-2 -266 -161.5 -419.5t-430.5 -153.5q-111 0 -212 34.5t-182.5 101t-129.5 174.5t-48 243v727z" />
    <glyph glyph-name="Yacute" unicode="&#xdd;" horiz-adv-x="1372" 
d="M721 1570h-93l169 280h217v-9zM238 1180q-70 109 -113 142.5t-133 45.5v76h570v-76q-120 -13 -136 -50.5t48 -138.5l274 -447l261 447q62 102 47 139t-135 50v76h459v-76q-89 -12 -134 -47t-121 -153l-330 -518v-439q0 -39 5.5 -60t26.5 -37.5t56.5 -24t101.5 -13.5v-76
h-597v76q86 8 125.5 21.5t52.5 37.5t13 76v430z" />
    <glyph glyph-name="Thorn" unicode="&#xde;" horiz-adv-x="1299" 
d="M1217 738q0 -133 -76.5 -226.5t-207 -138t-304.5 -44.5h-169v-118q0 -52 13 -76t52 -37.5t126 -21.5v-76h-582v76q82 7 117.5 19t46.5 33t11 68v1052q0 47 -11 68t-46.5 33t-117.5 19v76h582v-76q-87 -8 -126 -21t-52 -37t-13 -76v-105h169q270 0 429 -98.5t159 -292.5z
M985 722q0 152 -109.5 231t-317.5 84l-98 3v-623l98 3q212 6 319.5 79t107.5 223z" />
    <glyph glyph-name="germandbls" unicode="&#xdf;" horiz-adv-x="1327" 
d="M402 0h-344v76q97 10 122 25.5t25 61.5l1 805q0 264 128.5 407t360.5 143q191 0 301.5 -77.5t110.5 -200.5q0 -67 -34 -118.5t-82 -83.5t-96 -61.5t-82 -69.5t-34 -91t32 -89.5t114 -79.5l70 -34q126 -62 186 -140.5t60 -181.5q0 -139 -97 -226t-242 -87q-90 0 -183.5 21
t-145.5 52v267h70q17 -104 88.5 -169.5t171.5 -65.5q81 0 124 45.5t43 117.5q0 65 -42.5 115.5t-139.5 99.5l-70 35q-104 53 -153 112.5t-49 139.5q0 43 17.5 79.5t45 63.5t61.5 52.5t67.5 51.5t61 54.5t45 67t17.5 84.5q0 95 -64 154t-172 59q-145 0 -219 -100.5
t-74 -287.5v-1026z" />
    <glyph glyph-name="agrave" unicode="&#xe0;" horiz-adv-x="1105" 
d="M550 1165l-318 352v12h227l186 -364h-95zM392 -22q-128 0 -213 72t-85 183q0 123 90.5 198t292.5 119l238 52v79q0 238 -243 238q-103 0 -172 -39q24 -14 39 -39.5t15 -55.5q0 -46 -32.5 -76t-81.5 -30t-82 31.5t-33 79.5q0 102 121.5 167.5t293.5 65.5q175 0 272 -78
t97 -235v-498q0 -63 30.5 -92t79.5 -29q37 0 58 10v-70q-69 -47 -162 -47q-76 0 -126.5 36t-66.5 103q-47 -62 -136 -103.5t-194 -41.5zM294 268q0 -80 54 -127t141 -47q72 0 131.5 28.5t94.5 78.5v310l-153 -33q-145 -32 -206.5 -80.5t-61.5 -129.5z" />
    <glyph glyph-name="aacute" unicode="&#xe1;" horiz-adv-x="1105" 
d="M490 1165h-95l191 364h219v-12zM392 -22q-128 0 -213 72t-85 183q0 123 90.5 198t292.5 119l238 52v79q0 238 -243 238q-103 0 -172 -39q24 -14 39 -39.5t15 -55.5q0 -46 -32.5 -76t-81.5 -30t-82 31.5t-33 79.5q0 102 121.5 167.5t293.5 65.5q175 0 272 -78t97 -235
v-498q0 -63 30.5 -92t79.5 -29q37 0 58 10v-70q-69 -47 -162 -47q-76 0 -126.5 36t-66.5 103q-47 -62 -136 -103.5t-194 -41.5zM294 268q0 -80 54 -127t141 -47q72 0 131.5 28.5t94.5 78.5v310l-153 -33q-145 -32 -206.5 -80.5t-61.5 -129.5z" />
    <glyph glyph-name="acircumflex" unicode="&#xe2;" horiz-adv-x="1105" 
d="M312 1165h-95l238 364h130l238 -364h-99l-203 203zM392 -22q-128 0 -213 72t-85 183q0 123 90.5 198t292.5 119l238 52v79q0 238 -243 238q-103 0 -172 -39q24 -14 39 -39.5t15 -55.5q0 -46 -32.5 -76t-81.5 -30t-82 31.5t-33 79.5q0 102 121.5 167.5t293.5 65.5
q175 0 272 -78t97 -235v-498q0 -63 30.5 -92t79.5 -29q37 0 58 10v-70q-69 -47 -162 -47q-76 0 -126.5 36t-66.5 103q-47 -62 -136 -103.5t-194 -41.5zM294 268q0 -80 54 -127t141 -47q72 0 131.5 28.5t94.5 78.5v310l-153 -33q-145 -32 -206.5 -80.5t-61.5 -129.5z" />
    <glyph glyph-name="atilde" unicode="&#xe3;" horiz-adv-x="1105" 
d="M641 1214q-41 0 -74.5 16.5t-75.5 49.5l-30 25q-46 38 -82 38q-32 0 -48 -30t-19 -101h-86q0 136 49 202t124 66q42 0 75 -16.5t75 -49.5l30 -25q46 -38 82 -38q32 0 48 30t19 101h86q0 -136 -49 -202t-124 -66zM392 -22q-128 0 -213 72t-85 183q0 123 90.5 198
t292.5 119l238 52v79q0 238 -243 238q-103 0 -172 -39q24 -14 39 -39.5t15 -55.5q0 -46 -32.5 -76t-81.5 -30t-82 31.5t-33 79.5q0 102 121.5 167.5t293.5 65.5q175 0 272 -78t97 -235v-498q0 -63 30.5 -92t79.5 -29q37 0 58 10v-70q-69 -47 -162 -47q-76 0 -126.5 36
t-66.5 103q-47 -62 -136 -103.5t-194 -41.5zM294 268q0 -80 54 -127t141 -47q72 0 131.5 28.5t94.5 78.5v310l-153 -33q-145 -32 -206.5 -80.5t-61.5 -129.5z" />
    <glyph glyph-name="adieresis" unicode="&#xe4;" horiz-adv-x="1105" 
d="M291 1235q-48 0 -81.5 32t-33.5 80q0 47 33.5 79t81.5 32t81.5 -32t33.5 -79q0 -48 -33.5 -80t-81.5 -32zM749 1235q-48 0 -81.5 32t-33.5 80q0 47 33.5 79t81.5 32t81.5 -32t33.5 -79q0 -48 -33.5 -80t-81.5 -32zM392 -22q-128 0 -213 72t-85 183q0 123 90.5 198
t292.5 119l238 52v79q0 238 -243 238q-103 0 -172 -39q24 -14 39 -39.5t15 -55.5q0 -46 -32.5 -76t-81.5 -30t-82 31.5t-33 79.5q0 102 121.5 167.5t293.5 65.5q175 0 272 -78t97 -235v-498q0 -63 30.5 -92t79.5 -29q37 0 58 10v-70q-69 -47 -162 -47q-76 0 -126.5 36
t-66.5 103q-47 -62 -136 -103.5t-194 -41.5zM294 268q0 -80 54 -127t141 -47q72 0 131.5 28.5t94.5 78.5v310l-153 -33q-145 -32 -206.5 -80.5t-61.5 -129.5z" />
    <glyph glyph-name="aring" unicode="&#xe5;" horiz-adv-x="1105" 
d="M249 1347q0 92 78.5 152.5t192.5 60.5t192.5 -60.5t78.5 -152.5t-78 -152t-193 -60t-193 60t-78 152zM403 1347q0 -57 33.5 -92.5t83.5 -35.5t83.5 35.5t33.5 92.5t-33.5 92.5t-83.5 35.5t-83.5 -35.5t-33.5 -92.5zM392 -22q-128 0 -213 72t-85 183q0 123 90.5 198
t292.5 119l238 52v79q0 238 -243 238q-103 0 -172 -39q24 -14 39 -39.5t15 -55.5q0 -46 -32.5 -76t-81.5 -30t-82 31.5t-33 79.5q0 102 121.5 167.5t293.5 65.5q175 0 272 -78t97 -235v-498q0 -63 30.5 -92t79.5 -29q37 0 58 10v-70q-69 -47 -162 -47q-76 0 -126.5 36
t-66.5 103q-47 -62 -136 -103.5t-194 -41.5zM294 268q0 -80 54 -127t141 -47q72 0 131.5 28.5t94.5 78.5v310l-153 -33q-145 -32 -206.5 -80.5t-61.5 -129.5z" />
    <glyph glyph-name="ae" unicode="&#xe6;" horiz-adv-x="1672" 
d="M396 -22q-133 0 -217.5 71.5t-84.5 190.5q0 126 100.5 207t308.5 118l210 37v62q0 125 -64.5 190t-179.5 65q-94 0 -162 -34q45 -30 45 -85q0 -48 -33 -81t-82 -33t-81.5 32.5t-32.5 80.5q0 92 111 158t280 66q235 0 314 -155q121 155 331 155q197 0 304 -113t107 -312
q0 -35 -3 -68h-675q6 -195 116 -311t287 -116q76 0 147.5 26t115.5 70v-76q-53 -65 -149.5 -105t-217.5 -40q-139 0 -259 72t-177 196q-31 -126 -127.5 -197t-231.5 -71zM1155 919q-106 0 -176 -75.5t-84 -225.5h485v1q0 300 -225 300zM473 94q104 0 172 72t68 210v140
l-137 -26q-160 -30 -223.5 -82.5t-63.5 -136.5q0 -83 49 -130t135 -47z" />
    <glyph glyph-name="ccedilla" unicode="&#xe7;" horiz-adv-x="1030" 
d="M553 -490q-134 0 -203 62v76q59 -42 150 -42q54 0 89.5 22.5t35.5 63.5q0 44 -39 66t-103 22q-23 0 -41 -4v72l97 133q-191 18 -314 157t-123 355q0 161 72 283.5t187 184.5t253 62q166 0 253.5 -67.5t87.5 -170.5q0 -51 -33 -85t-82 -34t-81.5 33t-32.5 81q0 36 19 64.5
t49 39.5q-55 35 -161 35q-139 0 -230.5 -104.5t-91.5 -283.5q0 -195 106.5 -311.5t283.5 -116.5q74 0 145.5 26t119.5 70v-76q-51 -59 -136.5 -97.5t-192.5 -45.5l-61 -91q95 -2 157 -53t62 -139q0 -86 -72 -136.5t-170 -50.5z" />
    <glyph glyph-name="egrave" unicode="&#xe8;" horiz-adv-x="1101" 
d="M608 1165l-318 352v12h227l186 -364h-95zM102 493q0 234 133 381.5t344 147.5q201 0 310.5 -114.5t109.5 -316.5q0 -42 -3 -69h-692q7 -193 116 -306t287 -113q76 0 148.5 26t119.5 70v-76q-57 -65 -155 -105t-221 -40q-217 0 -357 139.5t-140 375.5zM576 919
q-114 0 -186.5 -77.5t-84.5 -231.5h503v2q0 149 -60 228t-172 79z" />
    <glyph glyph-name="eacute" unicode="&#xe9;" horiz-adv-x="1101" 
d="M548 1165h-95l191 364h219v-12zM102 493q0 234 133 381.5t344 147.5q201 0 310.5 -114.5t109.5 -316.5q0 -42 -3 -69h-692q7 -193 116 -306t287 -113q76 0 148.5 26t119.5 70v-76q-57 -65 -155 -105t-221 -40q-217 0 -357 139.5t-140 375.5zM576 919q-114 0 -186.5 -77.5
t-84.5 -231.5h503v2q0 149 -60 228t-172 79z" />
    <glyph glyph-name="ecircumflex" unicode="&#xea;" horiz-adv-x="1101" 
d="M370 1165h-95l238 364h130l238 -364h-99l-203 203zM102 493q0 234 133 381.5t344 147.5q201 0 310.5 -114.5t109.5 -316.5q0 -42 -3 -69h-692q7 -193 116 -306t287 -113q76 0 148.5 26t119.5 70v-76q-57 -65 -155 -105t-221 -40q-217 0 -357 139.5t-140 375.5zM576 919
q-114 0 -186.5 -77.5t-84.5 -231.5h503v2q0 149 -60 228t-172 79z" />
    <glyph glyph-name="edieresis" unicode="&#xeb;" horiz-adv-x="1101" 
d="M349 1235q-48 0 -81.5 32t-33.5 80q0 47 33.5 79t81.5 32t81.5 -32t33.5 -79q0 -48 -33.5 -80t-81.5 -32zM807 1235q-48 0 -81.5 32t-33.5 80q0 47 33.5 79t81.5 32t81.5 -32t33.5 -79q0 -48 -33.5 -80t-81.5 -32zM102 493q0 234 133 381.5t344 147.5q201 0 310.5 -114.5
t109.5 -316.5q0 -42 -3 -69h-692q7 -193 116 -306t287 -113q76 0 148.5 26t119.5 70v-76q-57 -65 -155 -105t-221 -40q-217 0 -357 139.5t-140 375.5zM576 919q-114 0 -186.5 -77.5t-84.5 -231.5h503v2q0 149 -60 228t-172 79z" />
    <glyph glyph-name="igrave" unicode="&#xec;" horiz-adv-x="611" 
d="M320 1165l-318 352v12h227l186 -364h-95zM410 1012v-849q0 -46 25.5 -61.5t121.5 -25.5v-76h-491v76q96 10 121.5 25.5t25.5 61.5v641q0 41 -12 56t-55 25l-80 19v67z" />
    <glyph glyph-name="iacute" unicode="&#xed;" horiz-adv-x="611" 
d="M260 1165h-95l191 364h219v-12zM410 1012v-849q0 -46 25.5 -61.5t121.5 -25.5v-76h-491v76q96 10 121.5 25.5t25.5 61.5v641q0 41 -12 56t-55 25l-80 19v67z" />
    <glyph glyph-name="icircumflex" unicode="&#xee;" horiz-adv-x="611" 
d="M103 1165h-86l215 364h117l214 -364h-89l-184 203zM410 1012v-849q0 -46 25.5 -61.5t121.5 -25.5v-76h-491v76q96 10 121.5 25.5t25.5 61.5v641q0 41 -12 56t-55 25l-80 19v67z" />
    <glyph glyph-name="idieresis" unicode="&#xef;" horiz-adv-x="611" 
d="M61 1235q-48 0 -81.5 32t-33.5 80q0 47 33.5 79t81.5 32t81.5 -32t33.5 -79q0 -48 -33.5 -80t-81.5 -32zM519 1235q-48 0 -81.5 32t-33.5 80q0 47 33.5 79t81.5 32t81.5 -32t33.5 -79q0 -48 -33.5 -80t-81.5 -32zM410 1012v-849q0 -46 25.5 -61.5t121.5 -25.5v-76h-491
v76q96 10 121.5 25.5t25.5 61.5v641q0 41 -12 56t-55 25l-80 19v67z" />
    <glyph glyph-name="eth" unicode="&#xf0;" horiz-adv-x="1195" 
d="M589 -22q-211 0 -349 141t-138 380q0 146 59.5 261t160.5 177t224 62q217 0 312 -153q-63 206 -277 390l-244 -173l-53 76l222 157q-103 77 -230 146l53 76q157 -78 271 -155l219 155l53 -76l-193 -136q414 -312 414 -730q0 -142 -40.5 -257.5t-110 -189t-160 -112.5
t-193.5 -39zM604 82q134 0 216 110.5t81 312.5q-1 183 -78 286.5t-209 103.5q-136 0 -219 -104t-83 -288q0 -185 81.5 -303t210.5 -118z" />
    <glyph glyph-name="ntilde" unicode="&#xf1;" horiz-adv-x="1281" 
d="M770 1214q-41 0 -74.5 16.5t-75.5 49.5l-30 25q-46 38 -82 38q-32 0 -48 -30t-19 -101h-86q0 136 49 202t124 66q42 0 75 -16.5t75 -49.5l30 -25q46 -38 82 -38q32 0 48 30t19 101h86q0 -136 -49 -202t-124 -66zM405 1012v-152q46 73 132.5 118t198.5 45
q158 0 253.5 -85.5t95.5 -236.5v-538q0 -46 25 -61.5t122 -25.5v-76h-482v76q90 10 113.5 24.5t23.5 58.5v487q0 121 -63.5 186.5t-175.5 65.5q-83 0 -145 -31.5t-93 -81.5v-626q0 -44 23.5 -58.5t114.5 -24.5v-76h-482v76q96 10 121.5 25.5t25.5 61.5v641q0 41 -12 56
t-55 25l-80 19v67z" />
    <glyph glyph-name="ograve" unicode="&#xf2;" horiz-adv-x="1223" 
d="M639 1165l-318 352v12h227l186 -364h-95zM603 -22q-215 0 -358 146t-143 372q0 231 147 379t370 148q216 0 359 -146t143 -372q0 -231 -147.5 -379t-370.5 -148zM619 82q136 0 212 107.5t76 295.5q0 197 -85.5 315.5t-218.5 118.5q-136 0 -212 -107.5t-76 -295.5
q0 -197 85.5 -315.5t218.5 -118.5z" />
    <glyph glyph-name="oacute" unicode="&#xf3;" horiz-adv-x="1223" 
d="M579 1165h-95l191 364h219v-12zM603 -22q-215 0 -358 146t-143 372q0 231 147 379t370 148q216 0 359 -146t143 -372q0 -231 -147.5 -379t-370.5 -148zM619 82q136 0 212 107.5t76 295.5q0 197 -85.5 315.5t-218.5 118.5q-136 0 -212 -107.5t-76 -295.5
q0 -197 85.5 -315.5t218.5 -118.5z" />
    <glyph glyph-name="ocircumflex" unicode="&#xf4;" horiz-adv-x="1223" 
d="M401 1165h-95l238 364h130l238 -364h-99l-203 203zM603 -22q-215 0 -358 146t-143 372q0 231 147 379t370 148q216 0 359 -146t143 -372q0 -231 -147.5 -379t-370.5 -148zM619 82q136 0 212 107.5t76 295.5q0 197 -85.5 315.5t-218.5 118.5q-136 0 -212 -107.5
t-76 -295.5q0 -197 85.5 -315.5t218.5 -118.5z" />
    <glyph glyph-name="otilde" unicode="&#xf5;" horiz-adv-x="1223" 
d="M730 1214q-41 0 -74.5 16.5t-75.5 49.5l-30 25q-46 38 -82 38q-32 0 -48 -30t-19 -101h-86q0 136 49 202t124 66q42 0 75 -16.5t75 -49.5l30 -25q46 -38 82 -38q32 0 48 30t19 101h86q0 -136 -49 -202t-124 -66zM603 -22q-215 0 -358 146t-143 372q0 231 147 379t370 148
q216 0 359 -146t143 -372q0 -231 -147.5 -379t-370.5 -148zM619 82q136 0 212 107.5t76 295.5q0 197 -85.5 315.5t-218.5 118.5q-136 0 -212 -107.5t-76 -295.5q0 -197 85.5 -315.5t218.5 -118.5z" />
    <glyph glyph-name="odieresis" unicode="&#xf6;" horiz-adv-x="1223" 
d="M380 1235q-48 0 -81.5 32t-33.5 80q0 47 33.5 79t81.5 32t81.5 -32t33.5 -79q0 -48 -33.5 -80t-81.5 -32zM838 1235q-48 0 -81.5 32t-33.5 80q0 47 33.5 79t81.5 32t81.5 -32t33.5 -79q0 -48 -33.5 -80t-81.5 -32zM603 -22q-215 0 -358 146t-143 372q0 231 147 379
t370 148q216 0 359 -146t143 -372q0 -231 -147.5 -379t-370.5 -148zM619 82q136 0 212 107.5t76 295.5q0 197 -85.5 315.5t-218.5 118.5q-136 0 -212 -107.5t-76 -295.5q0 -197 85.5 -315.5t218.5 -118.5z" />
    <glyph glyph-name="divide" unicode="&#xf7;" horiz-adv-x="1183" 
d="M592 847q-47 0 -81 34.5t-34 82.5t34 82.5t81 34.5t81 -34.5t34 -82.5t-34 -82.5t-81 -34.5zM118 516v134h947v-134h-947zM592 87q-47 0 -81 34.5t-34 82.5t34 82.5t81 34.5t81 -34.5t34 -82.5t-34 -82.5t-81 -34.5z" />
    <glyph glyph-name="oslash" unicode="&#xf8;" horiz-adv-x="1217" 
d="M601 -22q-174 0 -303 98l-84 -95l-70 63l85 96q-127 143 -127 355q0 152 67.5 273t185 187t262.5 66q173 0 305 -99l87 98l71 -63l-89 -100q125 -144 125 -353q0 -152 -67.5 -273t-185 -187t-262.5 -66zM310 515q0 -135 42 -236l466 526q-84 114 -217 114
q-137 0 -214 -107.5t-77 -296.5zM617 80q137 0 214 107.5t77 296.5q0 130 -41 233l-466 -525q86 -112 216 -112z" />
    <glyph glyph-name="ugrave" unicode="&#xf9;" horiz-adv-x="1245" 
d="M644 1165l-318 352v12h227l186 -364h-95zM382 1012v-649q0 -126 63 -193t177 -67q77 0 135.5 31.5t88.5 81.5v588q0 41 -12 56t-54 25l-81 19v67l345 41v-814q0 -41 12 -56.5t56 -25.5l79 -19v-66l-341 -42v152q-46 -74 -129.5 -118.5t-193.5 -44.5q-155 0 -248.5 87.5
t-93.5 242.5v496q0 41 -12 56t-55 25l-80 19v67z" />
    <glyph glyph-name="uacute" unicode="&#xfa;" horiz-adv-x="1245" 
d="M584 1165h-95l191 364h219v-12zM382 1012v-649q0 -126 63 -193t177 -67q77 0 135.5 31.5t88.5 81.5v588q0 41 -12 56t-54 25l-81 19v67l345 41v-814q0 -41 12 -56.5t56 -25.5l79 -19v-66l-341 -42v152q-46 -74 -129.5 -118.5t-193.5 -44.5q-155 0 -248.5 87.5
t-93.5 242.5v496q0 41 -12 56t-55 25l-80 19v67z" />
    <glyph glyph-name="ucircumflex" unicode="&#xfb;" horiz-adv-x="1245" 
d="M406 1165h-95l238 364h130l238 -364h-99l-203 203zM382 1012v-649q0 -126 63 -193t177 -67q77 0 135.5 31.5t88.5 81.5v588q0 41 -12 56t-54 25l-81 19v67l345 41v-814q0 -41 12 -56.5t56 -25.5l79 -19v-66l-341 -42v152q-46 -74 -129.5 -118.5t-193.5 -44.5
q-155 0 -248.5 87.5t-93.5 242.5v496q0 41 -12 56t-55 25l-80 19v67z" />
    <glyph glyph-name="udieresis" unicode="&#xfc;" horiz-adv-x="1245" 
d="M385 1235q-48 0 -81.5 32t-33.5 80q0 47 33.5 79t81.5 32t81.5 -32t33.5 -79q0 -48 -33.5 -80t-81.5 -32zM843 1235q-48 0 -81.5 32t-33.5 80q0 47 33.5 79t81.5 32t81.5 -32t33.5 -79q0 -48 -33.5 -80t-81.5 -32zM382 1012v-649q0 -126 63 -193t177 -67q77 0 135.5 31.5
t88.5 81.5v588q0 41 -12 56t-54 25l-81 19v67l345 41v-814q0 -41 12 -56.5t56 -25.5l79 -19v-66l-341 -42v152q-46 -74 -129.5 -118.5t-193.5 -44.5q-155 0 -248.5 87.5t-93.5 242.5v496q0 41 -12 56t-55 25l-80 19v67z" />
    <glyph glyph-name="yacute" unicode="&#xfd;" horiz-adv-x="1096" 
d="M562 1165h-95l191 364h219v-12zM185 764q-36 89 -67.5 117.5t-105.5 43.5v76h494v-76q-104 -9 -126.5 -35.5t7.5 -109.5l203 -543l215 543q17 43 20 68.5t-12 42t-43.5 23.5t-83.5 11v76h398v-76q-42 -6 -63.5 -12t-42.5 -24t-35.5 -45.5t-36.5 -81.5l-241 -583l-74 -179
l-167 -460h-180v4q99 185 247 469z" />
    <glyph glyph-name="thorn" unicode="&#xfe;" horiz-adv-x="1220" 
d="M1118 513q0 -235 -136.5 -385t-339.5 -150q-80 0 -150.5 28.5t-118.5 73.5v-365q0 -30 4 -45t22.5 -27t48.5 -17t88 -10v-76h-507v76q96 10 121.5 25.5t25.5 61.5v1574q0 41 -12 56.5t-55 25.5l-80 19v66l344 42l-5 -640q42 79 135.5 128t203.5 49q83 0 157 -35t131 -99
t90 -161.5t33 -214.5zM912 495q0 187 -83 295t-222 108q-80 0 -141.5 -31.5t-92.5 -88.5v-589q27 -46 87.5 -76t139.5 -30q139 0 225.5 111.5t86.5 300.5z" />
    <glyph glyph-name="ydieresis" unicode="&#xff;" horiz-adv-x="1096" 
d="M363 1235q-48 0 -81.5 32t-33.5 80q0 47 33.5 79t81.5 32t81.5 -32t33.5 -79q0 -48 -33.5 -80t-81.5 -32zM821 1235q-48 0 -81.5 32t-33.5 80q0 47 33.5 79t81.5 32t81.5 -32t33.5 -79q0 -48 -33.5 -80t-81.5 -32zM185 764q-36 89 -67.5 117.5t-105.5 43.5v76h494v-76
q-104 -9 -126.5 -35.5t7.5 -109.5l203 -543l215 543q17 43 20 68.5t-12 42t-43.5 23.5t-83.5 11v76h398v-76q-42 -6 -63.5 -12t-42.5 -24t-35.5 -45.5t-36.5 -81.5l-241 -583l-74 -179l-167 -460h-180v4q99 185 247 469z" />
    <glyph glyph-name="Amacron" unicode="&#x100;" horiz-adv-x="1448" 
d="M456 1631v119h530v-119h-530zM1244 267q42 -113 79.5 -146.5t132.5 -44.5v-76h-571v76q122 15 145.5 49t-14.5 143l-82 232h-522l-81 -232q-38 -110 -14.5 -143.5t145.5 -48.5v-76h-470v76q100 11 135.5 44t80.5 153l432 1171h170zM445 594h456l-230 651z" />
    <glyph glyph-name="amacron" unicode="&#x101;" horiz-adv-x="1105" 
d="M226 1269v130h588v-130h-588zM392 -22q-128 0 -213 72t-85 183q0 123 90.5 198t292.5 119l238 52v79q0 238 -243 238q-103 0 -172 -39q24 -14 39 -39.5t15 -55.5q0 -46 -32.5 -76t-81.5 -30t-82 31.5t-33 79.5q0 102 121.5 167.5t293.5 65.5q175 0 272 -78t97 -235v-498
q0 -63 30.5 -92t79.5 -29q37 0 58 10v-70q-69 -47 -162 -47q-76 0 -126.5 36t-66.5 103q-47 -62 -136 -103.5t-194 -41.5zM294 268q0 -80 54 -127t141 -47q72 0 131.5 28.5t94.5 78.5v310l-153 -33q-145 -32 -206.5 -80.5t-61.5 -129.5z" />
    <glyph glyph-name="Abreve" unicode="&#x102;" horiz-adv-x="1448" 
d="M721 1601q-121 0 -193.5 76t-72.5 177q0 26 4 46h76v-11q0 -68 49.5 -113.5t136.5 -45.5t136.5 45.5t49.5 113.5v11h76q4 -20 4 -46q0 -101 -72.5 -177t-193.5 -76zM1244 267q42 -113 79.5 -146.5t132.5 -44.5v-76h-571v76q122 15 145.5 49t-14.5 143l-82 232h-522
l-81 -232q-38 -110 -14.5 -143.5t145.5 -48.5v-76h-470v76q100 11 135.5 44t80.5 153l432 1171h170zM445 594h456l-230 651z" />
    <glyph glyph-name="abreve" unicode="&#x103;" horiz-adv-x="1105" 
d="M520 1176q-136 0 -217 85.5t-81 200.5q0 30 4 53h86v-13q0 -75 55.5 -125.5t152.5 -50.5t152.5 50.5t55.5 125.5v13h86q4 -23 4 -53q0 -115 -81 -200.5t-217 -85.5zM392 -22q-128 0 -213 72t-85 183q0 123 90.5 198t292.5 119l238 52v79q0 238 -243 238q-103 0 -172 -39
q24 -14 39 -39.5t15 -55.5q0 -46 -32.5 -76t-81.5 -30t-82 31.5t-33 79.5q0 102 121.5 167.5t293.5 65.5q175 0 272 -78t97 -235v-498q0 -63 30.5 -92t79.5 -29q37 0 58 10v-70q-69 -47 -162 -47q-76 0 -126.5 36t-66.5 103q-47 -62 -136 -103.5t-194 -41.5zM294 268
q0 -80 54 -127t141 -47q72 0 131.5 28.5t94.5 78.5v310l-153 -33q-145 -32 -206.5 -80.5t-61.5 -129.5z" />
    <glyph glyph-name="Aogonek" unicode="&#x104;" horiz-adv-x="1448" 
d="M1244 267q42 -113 79.5 -146.5t132.5 -44.5v-76h-231q-28 -35 -45 -88.5t-17 -109.5q0 -80 37.5 -130.5t95.5 -50.5q53 0 87 27v-76q-26 -27 -73.5 -44.5t-103.5 -17.5q-89 0 -148.5 53.5t-59.5 143.5q0 74 42 150.5t112 142.5h-267v76q122 15 145.5 49t-14.5 143
l-82 232h-522l-81 -232q-38 -110 -14.5 -143.5t145.5 -48.5v-76h-470v76q100 11 135.5 44t80.5 153l432 1171h170zM445 594h456l-230 651z" />
    <glyph glyph-name="aogonek" unicode="&#x105;" horiz-adv-x="1101" 
d="M392 -22q-128 0 -213 72t-85 183q0 123 90.5 198t292.5 119l238 52v79q0 238 -243 238q-103 0 -172 -39q24 -14 39 -39.5t15 -55.5q0 -46 -32.5 -76t-81.5 -30t-82 31.5t-33 79.5q0 102 121.5 167.5t293.5 65.5q175 0 272 -78t97 -235v-498q0 -63 30.5 -92t79.5 -29
q37 0 58 10v-70q-112 -95 -157 -163t-45 -135q0 -53 30.5 -82.5t73.5 -29.5q67 0 101 31v-76q-27 -30 -78 -48t-110 -18q-83 0 -140 47t-57 126q0 75 54 146.5t179 154.5h-13q-75 0 -126 36.5t-67 102.5q-47 -62 -136 -103.5t-194 -41.5zM294 268q0 -80 54 -127t141 -47
q72 0 131.5 28.5t94.5 78.5v310l-153 -33q-145 -32 -206.5 -80.5t-61.5 -129.5z" />
    <glyph glyph-name="Cacute" unicode="&#x106;" horiz-adv-x="1449" 
d="M814 1570h-93l169 280h217v-9zM107 723q0 173 57.5 315t158 237t237 147t294.5 52q159 0 285 -32t196 -83l11 -306h-69q-42 168 -140 240t-262 72q-248 0 -387.5 -169t-139.5 -447q0 -296 148.5 -483t378.5 -187q169 0 268 72.5t141 254.5h70l-12 -307
q-72 -53 -208.5 -91t-279.5 -38q-149 0 -284 52t-238 146.5t-164 238.5t-61 316z" />
    <glyph glyph-name="cacute" unicode="&#x107;" horiz-adv-x="1030" 
d="M574 1165h-95l191 364h219v-12zM592 -22q-102 0 -192 36.5t-156 102.5t-104 163t-38 213q0 161 72 283.5t187 184.5t253 62q166 0 253.5 -67.5t87.5 -170.5q0 -51 -33 -85t-82 -34t-81.5 33t-32.5 81q0 36 19 64.5t49 39.5q-55 35 -161 35q-139 0 -230.5 -104.5
t-91.5 -283.5q0 -195 106.5 -311.5t283.5 -116.5q74 0 145.5 26t119.5 70v-76q-56 -65 -154 -105t-220 -40z" />
    <glyph glyph-name="Ccircumflex" unicode="&#x108;" horiz-adv-x="1449" 
d="M654 1570h-91l214 280h135l214 -280h-95l-186 151zM107 723q0 173 57.5 315t158 237t237 147t294.5 52q159 0 285 -32t196 -83l11 -306h-69q-42 168 -140 240t-262 72q-248 0 -387.5 -169t-139.5 -447q0 -296 148.5 -483t378.5 -187q169 0 268 72.5t141 254.5h70
l-12 -307q-72 -53 -208.5 -91t-279.5 -38q-149 0 -284 52t-238 146.5t-164 238.5t-61 316z" />
    <glyph glyph-name="ccircumflex" unicode="&#x109;" horiz-adv-x="1030" 
d="M396 1165h-95l238 364h130l238 -364h-99l-203 203zM592 -22q-102 0 -192 36.5t-156 102.5t-104 163t-38 213q0 161 72 283.5t187 184.5t253 62q166 0 253.5 -67.5t87.5 -170.5q0 -51 -33 -85t-82 -34t-81.5 33t-32.5 81q0 36 19 64.5t49 39.5q-55 35 -161 35
q-139 0 -230.5 -104.5t-91.5 -283.5q0 -195 106.5 -311.5t283.5 -116.5q74 0 145.5 26t119.5 70v-76q-56 -65 -154 -105t-220 -40z" />
    <glyph glyph-name="Cdotaccent" unicode="&#x10a;" horiz-adv-x="1449" 
d="M834 1610q-44 0 -74 29t-30 71q0 43 30 72t74 29t74 -29t30 -72q0 -42 -30 -71t-74 -29zM107 723q0 173 57.5 315t158 237t237 147t294.5 52q159 0 285 -32t196 -83l11 -306h-69q-42 168 -140 240t-262 72q-248 0 -387.5 -169t-139.5 -447q0 -296 148.5 -483t378.5 -187
q169 0 268 72.5t141 254.5h70l-12 -307q-72 -53 -208.5 -91t-279.5 -38q-149 0 -284 52t-238 146.5t-164 238.5t-61 316z" />
    <glyph glyph-name="cdotaccent" unicode="&#x10b;" horiz-adv-x="1030" 
d="M604 1228q-51 0 -86.5 34t-35.5 85q0 50 35.5 84t86.5 34t86.5 -34t35.5 -84q0 -51 -35.5 -85t-86.5 -34zM592 -22q-102 0 -192 36.5t-156 102.5t-104 163t-38 213q0 161 72 283.5t187 184.5t253 62q166 0 253.5 -67.5t87.5 -170.5q0 -51 -33 -85t-82 -34t-81.5 33
t-32.5 81q0 36 19 64.5t49 39.5q-55 35 -161 35q-139 0 -230.5 -104.5t-91.5 -283.5q0 -195 106.5 -311.5t283.5 -116.5q74 0 145.5 26t119.5 70v-76q-56 -65 -154 -105t-220 -40z" />
    <glyph glyph-name="Ccaron" unicode="&#x10c;" horiz-adv-x="1449" 
d="M1033 1849h91l-214 -280h-135l-214 280h96l186 -152zM107 723q0 173 57.5 315t158 237t237 147t294.5 52q159 0 285 -32t196 -83l11 -306h-69q-42 168 -140 240t-262 72q-248 0 -387.5 -169t-139.5 -447q0 -296 148.5 -483t378.5 -187q169 0 268 72.5t141 254.5h70
l-12 -307q-72 -53 -208.5 -91t-279.5 -38q-149 0 -284 52t-238 146.5t-164 238.5t-61 316z" />
    <glyph glyph-name="ccaron" unicode="&#x10d;" horiz-adv-x="1030" 
d="M812 1527h95l-238 -364h-130l-238 364h99l203 -203zM592 -22q-102 0 -192 36.5t-156 102.5t-104 163t-38 213q0 161 72 283.5t187 184.5t253 62q166 0 253.5 -67.5t87.5 -170.5q0 -51 -33 -85t-82 -34t-81.5 33t-32.5 81q0 36 19 64.5t49 39.5q-55 35 -161 35
q-139 0 -230.5 -104.5t-91.5 -283.5q0 -195 106.5 -311.5t283.5 -116.5q74 0 145.5 26t119.5 70v-76q-56 -65 -154 -105t-220 -40z" />
    <glyph glyph-name="Dcaron" unicode="&#x10e;" horiz-adv-x="1559" 
d="M940 1849h91l-214 -280h-135l-214 280h96l186 -152zM1465 744q0 -167 -65.5 -309t-175.5 -236t-254.5 -146.5t-302.5 -52.5h-598v76q82 7 117.5 19t46.5 33.5t11 69.5v1048q0 48 -11 69.5t-46.5 33.5t-117.5 19v76h596q227 0 407.5 -82t286.5 -242.5t106 -375.5z
M1227 728q0 278 -166.5 446t-445.5 177l-155 5v-1268l155 5q281 9 446.5 178.5t165.5 456.5z" />
    <glyph glyph-name="dcaron" unicode="&#x10f;" horiz-adv-x="1245" 
d="M1269 1107h-72l45 420h179zM102 488q0 235 136.5 385t339.5 150q81 0 151 -28t117 -74v356q0 41 -12 56.5t-54 25.5l-81 19v66l345 42v-1288q0 -41 12.5 -56.5t56.5 -25.5l78 -19v-66l-340 -42v163q-41 -78 -134.5 -126t-203.5 -48q-83 0 -157 35t-131 99t-90 161.5
t-33 214.5zM307 506q0 -187 83 -295t223 -108q79 0 140.5 31.5t92.5 88.5v590q-26 45 -87 75t-140 30q-138 0 -225 -111.5t-87 -300.5z" />
    <glyph glyph-name="dbar" unicode="&#x111;" horiz-adv-x="1245" 
d="M102 488q0 235 136.5 385t339.5 150q80 0 150.5 -28.5t117.5 -73.5v288h-298v94h298v170l198 15v-185h147v-94h-147v-1011q0 -41 12.5 -56.5t56.5 -25.5l78 -19v-66l-340 -42v163q-41 -78 -134.5 -126t-203.5 -48q-83 0 -157 35t-131 99t-90 161.5t-33 214.5zM307 506
q0 -187 83 -295t223 -108q79 0 140.5 31.5t92.5 88.5v590q-26 45 -87 75t-140 30q-138 0 -225 -111.5t-87 -300.5z" />
    <glyph glyph-name="Emacron" unicode="&#x112;" horiz-adv-x="1299" 
d="M390 1631v119h530v-119h-530zM1156 1444l12 -360h-70q-35 156 -106 207t-246 56l-286 9v-572h299q52 0 75.5 36.5t50.5 166.5h66v-495h-66q-22 127 -46.5 165.5t-79.5 38.5h-299v-608l282 9q80 2 127.5 6.5t94 17t71 31.5t48 54t37 81.5t26.5 117.5h70l-15 -405h-1132v76
q82 7 117.5 19t46.5 33.5t11 69.5v1048q0 48 -11 69.5t-46.5 33.5t-117.5 19v76h1087z" />
    <glyph glyph-name="emacron" unicode="&#x113;" horiz-adv-x="1101" 
d="M284 1269v130h588v-130h-588zM102 493q0 234 133 381.5t344 147.5q201 0 310.5 -114.5t109.5 -316.5q0 -42 -3 -69h-692q7 -193 116 -306t287 -113q76 0 148.5 26t119.5 70v-76q-57 -65 -155 -105t-221 -40q-217 0 -357 139.5t-140 375.5zM576 919q-114 0 -186.5 -77.5
t-84.5 -231.5h503v2q0 149 -60 228t-172 79z" />
    <glyph glyph-name="Ebreve" unicode="&#x114;" horiz-adv-x="1299" 
d="M655 1601q-121 0 -193.5 76t-72.5 177q0 26 4 46h76v-11q0 -68 49.5 -113.5t136.5 -45.5t136.5 45.5t49.5 113.5v11h76q4 -20 4 -46q0 -101 -72.5 -177t-193.5 -76zM1156 1444l12 -360h-70q-35 156 -106 207t-246 56l-286 9v-572h299q52 0 75.5 36.5t50.5 166.5h66v-495
h-66q-22 127 -46.5 165.5t-79.5 38.5h-299v-608l282 9q80 2 127.5 6.5t94 17t71 31.5t48 54t37 81.5t26.5 117.5h70l-15 -405h-1132v76q82 7 117.5 19t46.5 33.5t11 69.5v1048q0 48 -11 69.5t-46.5 33.5t-117.5 19v76h1087z" />
    <glyph glyph-name="ebreve" unicode="&#x115;" horiz-adv-x="1101" 
d="M578 1176q-136 0 -217 85.5t-81 200.5q0 30 4 53h86v-13q0 -75 55.5 -125.5t152.5 -50.5t152.5 50.5t55.5 125.5v13h86q4 -23 4 -53q0 -115 -81 -200.5t-217 -85.5zM102 493q0 234 133 381.5t344 147.5q201 0 310.5 -114.5t109.5 -316.5q0 -42 -3 -69h-692
q7 -193 116 -306t287 -113q76 0 148.5 26t119.5 70v-76q-57 -65 -155 -105t-221 -40q-217 0 -357 139.5t-140 375.5zM576 919q-114 0 -186.5 -77.5t-84.5 -231.5h503v2q0 149 -60 228t-172 79z" />
    <glyph glyph-name="Edotaccent" unicode="&#x116;" horiz-adv-x="1299" 
d="M655 1610q-44 0 -74 29t-30 71q0 43 30 72t74 29t74 -29t30 -72q0 -42 -30 -71t-74 -29zM1156 1444l12 -360h-70q-35 156 -106 207t-246 56l-286 9v-572h299q52 0 75.5 36.5t50.5 166.5h66v-495h-66q-22 127 -46.5 165.5t-79.5 38.5h-299v-608l282 9q80 2 127.5 6.5
t94 17t71 31.5t48 54t37 81.5t26.5 117.5h70l-15 -405h-1132v76q82 7 117.5 19t46.5 33.5t11 69.5v1048q0 48 -11 69.5t-46.5 33.5t-117.5 19v76h1087z" />
    <glyph glyph-name="edotaccent" unicode="&#x117;" horiz-adv-x="1101" 
d="M578 1228q-51 0 -86.5 34t-35.5 85q0 50 35.5 84t86.5 34t86.5 -34t35.5 -84q0 -51 -35.5 -85t-86.5 -34zM102 493q0 234 133 381.5t344 147.5q201 0 310.5 -114.5t109.5 -316.5q0 -42 -3 -69h-692q7 -193 116 -306t287 -113q76 0 148.5 26t119.5 70v-76
q-57 -65 -155 -105t-221 -40q-217 0 -357 139.5t-140 375.5zM576 919q-114 0 -186.5 -77.5t-84.5 -231.5h503v2q0 149 -60 228t-172 79z" />
    <glyph glyph-name="Eogonek" unicode="&#x118;" horiz-adv-x="1299" 
d="M1039 -490q-89 0 -148 53.5t-59 143.5q0 74 41.5 150.5t111.5 142.5h-916v76q82 7 117.5 19t46.5 33.5t11 69.5v1048q0 48 -11 69.5t-46.5 33.5t-117.5 19v76h1087l12 -360h-70q-35 156 -106 207t-246 56l-286 9v-572h299q52 0 75.5 36.5t50.5 166.5h66v-495h-66
q-22 127 -46.5 165.5t-79.5 38.5h-299v-608l282 9q80 2 127.5 6.5t94 17t71 31.5t48 54t37 81.5t26.5 117.5h70l-15 -405h-142q-28 -34 -45 -88t-17 -110q0 -80 37 -130.5t96 -50.5q54 0 86 27v-76q-26 -27 -73 -44.5t-104 -17.5z" />
    <glyph glyph-name="eogonek" unicode="&#x119;" horiz-adv-x="1101" 
d="M102 493q0 234 133 382t344 148q201 0 310.5 -115t109.5 -317q0 -42 -3 -69h-692q7 -193 116 -306t287 -113q76 0 148.5 26t119.5 70v-76q-1 -1 -37.5 -44t-37.5 -44q-70 -83 -101 -146t-31 -127q0 -63 35 -102.5t88 -39.5q55 0 87 32v-76q-27 -31 -78 -48.5t-107 -17.5
q-89 0 -145 52.5t-56 135.5q0 149 201 309l3 2q-93 -31 -197 -31q-217 0 -357 139.5t-140 375.5zM576 919q-114 0 -186.5 -77.5t-84.5 -231.5h503v2q0 149 -60 228t-172 79z" />
    <glyph glyph-name="Ecaron" unicode="&#x11a;" horiz-adv-x="1299" 
d="M854 1849h91l-214 -280h-135l-214 280h96l186 -152zM1156 1444l12 -360h-70q-35 156 -106 207t-246 56l-286 9v-572h299q52 0 75.5 36.5t50.5 166.5h66v-495h-66q-22 127 -46.5 165.5t-79.5 38.5h-299v-608l282 9q80 2 127.5 6.5t94 17t71 31.5t48 54t37 81.5t26.5 117.5
h70l-15 -405h-1132v76q82 7 117.5 19t46.5 33.5t11 69.5v1048q0 48 -11 69.5t-46.5 33.5t-117.5 19v76h1087z" />
    <glyph glyph-name="ecaron" unicode="&#x11b;" horiz-adv-x="1101" 
d="M786 1527h95l-238 -364h-130l-238 364h99l203 -203zM102 493q0 234 133 381.5t344 147.5q201 0 310.5 -114.5t109.5 -316.5q0 -42 -3 -69h-692q7 -193 116 -306t287 -113q76 0 148.5 26t119.5 70v-76q-57 -65 -155 -105t-221 -40q-217 0 -357 139.5t-140 375.5zM576 919
q-114 0 -186.5 -77.5t-84.5 -231.5h503v2q0 149 -60 228t-172 79z" />
    <glyph glyph-name="Gcircumflex" unicode="&#x11c;" horiz-adv-x="1566" 
d="M646 1570h-91l214 280h135l214 -280h-95l-186 151zM107 723q0 173 57.5 315t158 237t237 147t294.5 52q159 0 285 -32t196 -83l12 -306h-70q-42 168 -140 240t-262 72q-248 0 -387.5 -169t-139.5 -447q0 -296 148.5 -483t379.5 -187q184 0 286 70v342q0 30 -3.5 45.5
t-12.5 29t-33 20.5t-56.5 12t-91.5 10v75h577v-75q-65 -6 -97 -11.5t-52.5 -19.5t-24.5 -32t-4 -55v-387q-86 -59 -224 -96t-286 -37q-149 0 -284 52t-238 147t-164 238.5t-61 315.5z" />
    <glyph glyph-name="gcircumflex" unicode="&#x11d;" horiz-adv-x="1145" 
d="M351 1165h-95l238 364h130l238 -364h-99l-203 203zM115 671q0 155 123.5 253.5t307.5 98.5q123 0 212 -41l363 19v-105l-256 12q48 -34 76.5 -96t28.5 -131q0 -105 -59.5 -186t-154.5 -122t-205 -41q-50 0 -123 12q-122 -39 -122 -119q0 -97 156 -97h249q172 0 267.5 -69
t95.5 -195q0 -154 -145 -254t-376 -100q-228 0 -355.5 72t-127.5 190q0 76 68 132t197 83q-86 7 -141 51.5t-55 114.5q0 139 213 214q-106 29 -171.5 109.5t-65.5 194.5zM316 683q0 -120 66.5 -188.5t168.5 -68.5q93 0 156 69.5t63 175.5q0 119 -62.5 188.5t-171.5 69.5
q-98 0 -159 -69.5t-61 -176.5zM249 -198q0 -84 82.5 -136t228.5 -52q154 0 246 56.5t92 145.5q0 149 -226 149h-264q-76 -14 -117.5 -57t-41.5 -106z" />
    <glyph glyph-name="Gbreve" unicode="&#x11e;" horiz-adv-x="1566" 
d="M826 1601q-121 0 -193.5 76t-72.5 177q0 26 4 46h76v-11q0 -68 49.5 -113.5t136.5 -45.5t136.5 45.5t49.5 113.5v11h76q4 -20 4 -46q0 -101 -72.5 -177t-193.5 -76zM107 723q0 173 57.5 315t158 237t237 147t294.5 52q159 0 285 -32t196 -83l12 -306h-70
q-42 168 -140 240t-262 72q-248 0 -387.5 -169t-139.5 -447q0 -296 148.5 -483t379.5 -187q184 0 286 70v342q0 30 -3.5 45.5t-12.5 29t-33 20.5t-56.5 12t-91.5 10v75h577v-75q-65 -6 -97 -11.5t-52.5 -19.5t-24.5 -32t-4 -55v-387q-86 -59 -224 -96t-286 -37
q-149 0 -284 52t-238 147t-164 238.5t-61 315.5z" />
    <glyph glyph-name="gbreve" unicode="&#x11f;" horiz-adv-x="1145" 
d="M559 1176q-136 0 -217 85.5t-81 200.5q0 30 4 53h86v-13q0 -75 55.5 -125.5t152.5 -50.5t152.5 50.5t55.5 125.5v13h86q4 -23 4 -53q0 -115 -81 -200.5t-217 -85.5zM115 671q0 155 123.5 253.5t307.5 98.5q123 0 212 -41l363 19v-105l-256 12q48 -34 76.5 -96t28.5 -131
q0 -105 -59.5 -186t-154.5 -122t-205 -41q-50 0 -123 12q-122 -39 -122 -119q0 -97 156 -97h249q172 0 267.5 -69t95.5 -195q0 -154 -145 -254t-376 -100q-228 0 -355.5 72t-127.5 190q0 76 68 132t197 83q-86 7 -141 51.5t-55 114.5q0 139 213 214q-106 29 -171.5 109.5
t-65.5 194.5zM316 683q0 -120 66.5 -188.5t168.5 -68.5q93 0 156 69.5t63 175.5q0 119 -62.5 188.5t-171.5 69.5q-98 0 -159 -69.5t-61 -176.5zM249 -198q0 -84 82.5 -136t228.5 -52q154 0 246 56.5t92 145.5q0 149 -226 149h-264q-76 -14 -117.5 -57t-41.5 -106z" />
    <glyph glyph-name="Gdotaccent" unicode="&#x120;" horiz-adv-x="1566" 
d="M826 1610q-44 0 -74 29t-30 71q0 43 30 72t74 29t74 -29t30 -72q0 -42 -30 -71t-74 -29zM107 723q0 173 57.5 315t158 237t237 147t294.5 52q159 0 285 -32t196 -83l12 -306h-70q-42 168 -140 240t-262 72q-248 0 -387.5 -169t-139.5 -447q0 -296 148.5 -483t379.5 -187
q184 0 286 70v342q0 30 -3.5 45.5t-12.5 29t-33 20.5t-56.5 12t-91.5 10v75h577v-75q-65 -6 -97 -11.5t-52.5 -19.5t-24.5 -32t-4 -55v-387q-86 -59 -224 -96t-286 -37q-149 0 -284 52t-238 147t-164 238.5t-61 315.5z" />
    <glyph glyph-name="gdotaccent" unicode="&#x121;" horiz-adv-x="1145" 
d="M559 1228q-51 0 -86.5 34t-35.5 85q0 50 35.5 84t86.5 34t86.5 -34t35.5 -84q0 -51 -35.5 -85t-86.5 -34zM115 671q0 155 123.5 253.5t307.5 98.5q123 0 212 -41l363 19v-105l-256 12q48 -34 76.5 -96t28.5 -131q0 -105 -59.5 -186t-154.5 -122t-205 -41q-50 0 -123 12
q-122 -39 -122 -119q0 -97 156 -97h249q172 0 267.5 -69t95.5 -195q0 -154 -145 -254t-376 -100q-228 0 -355.5 72t-127.5 190q0 76 68 132t197 83q-86 7 -141 51.5t-55 114.5q0 139 213 214q-106 29 -171.5 109.5t-65.5 194.5zM316 683q0 -120 66.5 -188.5t168.5 -68.5
q93 0 156 69.5t63 175.5q0 119 -62.5 188.5t-171.5 69.5q-98 0 -159 -69.5t-61 -176.5zM249 -198q0 -84 82.5 -136t228.5 -52q154 0 246 56.5t92 145.5q0 149 -226 149h-264q-76 -14 -117.5 -57t-41.5 -106z" />
    <glyph glyph-name="Gcommaaccent" unicode="&#x122;" horiz-adv-x="1566" 
d="M107 723q0 173 57.5 315t158 237t237 147t294.5 52q159 0 285 -32t196 -83l12 -306h-70q-42 168 -140 240t-262 72q-248 0 -387.5 -169t-139.5 -447q0 -296 148.5 -483t379.5 -187q184 0 286 70v342q0 30 -3.5 45.5t-12.5 29t-33 20.5t-56.5 12t-91.5 10v75h577v-75
q-65 -6 -97 -11.5t-52.5 -19.5t-24.5 -32t-4 -55v-387q-86 -59 -224 -96t-286 -37q-149 0 -284 52t-238 147t-164 238.5t-61 315.5zM841 -490q-120 0 -187 51v75q61 -34 145 -34q53 0 87.5 23t34.5 64q0 39 -33.5 61.5t-84.5 22.5q-58 0 -92 -17v69q20 24 63.5 40.5
t97.5 16.5q95 0 153.5 -50.5t58.5 -134.5t-66 -135.5t-177 -51.5z" />
    <glyph glyph-name="gcommaaccent" unicode="&#x123;" horiz-adv-x="1145" 
d="M582 1533q120 0 187 -51v-75q-61 34 -145 34q-53 0 -87 -23t-34 -64q0 -39 33 -61.5t85 -22.5q57 0 91 17v-69q-19 -24 -63 -40.5t-98 -16.5q-95 0 -153.5 50.5t-58.5 134.5t66 135.5t177 51.5zM115 671q0 155 123.5 253.5t307.5 98.5q123 0 212 -41l363 19v-105l-256 12
q48 -34 76.5 -96t28.5 -131q0 -105 -59.5 -186t-154.5 -122t-205 -41q-50 0 -123 12q-122 -39 -122 -119q0 -97 156 -97h249q172 0 267.5 -69t95.5 -195q0 -154 -145 -254t-376 -100q-228 0 -355.5 72t-127.5 190q0 76 68 132t197 83q-86 7 -141 51.5t-55 114.5
q0 139 213 214q-106 29 -171.5 109.5t-65.5 194.5zM316 683q0 -120 66.5 -188.5t168.5 -68.5q93 0 156 69.5t63 175.5q0 119 -62.5 188.5t-171.5 69.5q-98 0 -159 -69.5t-61 -176.5zM249 -198q0 -84 82.5 -136t228.5 -52q154 0 246 56.5t92 145.5q0 149 -226 149h-264
q-76 -14 -117.5 -57t-41.5 -106z" />
    <glyph glyph-name="Hcircumflex" unicode="&#x124;" horiz-adv-x="1662" 
d="M654 1570h-91l214 280h135l214 -280h-95l-186 151zM460 194q0 -66 28.5 -87t138.5 -31v-76h-558v76q82 7 117.5 19t46.5 33.5t11 69.5v1048q0 48 -11 69.5t-46.5 33.5t-117.5 19v76h558v-77q-110 -10 -138.5 -31t-28.5 -87v-463h742v464q0 47 -10.5 67.5t-44 32
t-111.5 18.5v76h557v-76q-80 -7 -115.5 -19t-47.5 -33.5t-12 -69.5v-1048q0 -48 12 -69.5t47.5 -33.5t115.5 -19v-76h-557v76q78 7 111.5 18.5t44 32t10.5 67.5v497h-742v-497z" />
    <glyph glyph-name="hcircumflex" unicode="&#x125;" horiz-adv-x="1281" 
d="M100 1570h-91l214 280h135l214 -280h-95l-186 151zM410 1486v-620q46 71 131 114t195 43q158 0 253.5 -85.5t95.5 -236.5v-538q0 -46 25 -61.5t122 -25.5v-76h-482v76q90 10 113.5 24.5t23.5 58.5v487q0 121 -63.5 186.5t-175.5 65.5q-83 0 -145 -31.5t-93 -81.5v-626
q0 -44 23.5 -58.5t114.5 -24.5v-76h-482v76q96 10 121.5 25.5t25.5 61.5v1114q0 41 -12 56.5t-55 25.5l-80 19v66z" />
    <glyph glyph-name="Hbar" unicode="&#x126;" horiz-adv-x="1662" 
d="M460 194q0 -66 28.5 -87t138.5 -31v-76h-558v76q82 7 117.5 19t46.5 33.5t11 69.5v842h-175v93h175v113q0 48 -11 69.5t-46.5 33.5t-117.5 19v76h558v-77q-110 -10 -138.5 -31t-28.5 -87v-116h742v117q0 47 -10.5 67.5t-44 32t-111.5 18.5v76h557v-76q-80 -7 -115.5 -19
t-47.5 -33.5t-12 -69.5v-113h175v-93h-175v-842q0 -48 12 -69.5t47.5 -33.5t115.5 -19v-76h-557v76q78 7 111.5 18.5t44 32t10.5 67.5v497h-742v-497zM460 786h742v254h-742v-254z" />
    <glyph glyph-name="hbar" unicode="&#x127;" horiz-adv-x="1281" 
d="M66 1209v94h147v159l197 24v-183h298v-94h-298v-343q46 71 131 114t195 43q158 0 253.5 -85.5t95.5 -236.5v-538q0 -46 25 -61.5t122 -25.5v-76h-482v76q90 10 113.5 24.5t23.5 58.5v487q0 121 -63.5 186.5t-175.5 65.5q-83 0 -145 -31.5t-93 -81.5v-626
q0 -44 23.5 -58.5t114.5 -24.5v-76h-482v76q96 10 121.5 25.5t25.5 61.5v1046h-147z" />
    <glyph glyph-name="Itilde" unicode="&#x128;" horiz-adv-x="704" 
d="M469 1585q-40 0 -71.5 15t-72.5 46l-29 23q-45 35 -78 35q-30 0 -45.5 -27.5t-18.5 -93.5h-85q0 127 47 189t120 62q39 0 70.5 -15t73.5 -46l29 -23q45 -35 78 -35q30 0 45.5 27.5t18.5 93.5h85q0 -127 -47 -189t-120 -62zM460 198q0 -48 11 -69.5t46.5 -33.5t117.5 -19
v-76h-566v76q82 7 117.5 19t46.5 33.5t11 69.5v1048q0 48 -11 69.5t-46.5 33.5t-117.5 19v76h566v-76q-82 -7 -117.5 -19t-46.5 -33.5t-11 -69.5v-1048z" />
    <glyph glyph-name="itilde" unicode="&#x129;" horiz-adv-x="611" 
d="M399 1214q-37 0 -67.5 16.5t-67.5 49.5l-27 25q-41 38 -74 38q-29 0 -43.5 -30t-16.5 -101h-78q0 136 44 202t112 66q38 0 67.5 -16.5t67.5 -49.5l27 -25q41 -38 74 -38q29 0 43.5 30t16.5 101h78q0 -136 -44 -202t-112 -66zM410 1012v-849q0 -46 25.5 -61.5t121.5 -25.5
v-76h-491v76q96 10 121.5 25.5t25.5 61.5v641q0 41 -12 56t-55 25l-80 19v67z" />
    <glyph glyph-name="Imacron" unicode="&#x12a;" horiz-adv-x="704" 
d="M87 1631v119h530v-119h-530zM460 198q0 -48 11 -69.5t46.5 -33.5t117.5 -19v-76h-566v76q82 7 117.5 19t46.5 33.5t11 69.5v1048q0 48 -11 69.5t-46.5 33.5t-117.5 19v76h566v-76q-82 -7 -117.5 -19t-46.5 -33.5t-11 -69.5v-1048z" />
    <glyph glyph-name="imacron" unicode="&#x12b;" horiz-adv-x="611" 
d="M55 1269v130h470v-130h-470zM410 1012v-849q0 -46 25.5 -61.5t121.5 -25.5v-76h-491v76q96 10 121.5 25.5t25.5 61.5v641q0 41 -12 56t-55 25l-80 19v67z" />
    <glyph glyph-name="Ibreve" unicode="&#x12c;" horiz-adv-x="704" 
d="M352 1601q-121 0 -193.5 76t-72.5 177q0 26 4 46h76v-11q0 -68 49.5 -113.5t136.5 -45.5t136.5 45.5t49.5 113.5v11h76q4 -20 4 -46q0 -101 -72.5 -177t-193.5 -76zM460 198q0 -48 11 -69.5t46.5 -33.5t117.5 -19v-76h-566v76q82 7 117.5 19t46.5 33.5t11 69.5v1048
q0 48 -11 69.5t-46.5 33.5t-117.5 19v76h566v-76q-82 -7 -117.5 -19t-46.5 -33.5t-11 -69.5v-1048z" />
    <glyph glyph-name="ibreve" unicode="&#x12d;" horiz-adv-x="611" 
d="M290 1176q-123 0 -195.5 85.5t-72.5 200.5q0 28 3 53h78v-13q0 -75 50 -125.5t137 -50.5q88 0 137.5 50.5t49.5 125.5v13h78q3 -25 3 -53q0 -115 -72.5 -200.5t-195.5 -85.5zM410 1012v-849q0 -46 25.5 -61.5t121.5 -25.5v-76h-491v76q96 10 121.5 25.5t25.5 61.5v641
q0 41 -12 56t-55 25l-80 19v67z" />
    <glyph glyph-name="Iogonek" unicode="&#x12e;" horiz-adv-x="704" 
d="M460 198q0 -48 11 -69.5t46.5 -33.5t117.5 -19v-76h-232q-28 -35 -45 -88.5t-17 -109.5q0 -80 37.5 -130.5t95.5 -50.5q53 0 87 27v-76q-26 -27 -73.5 -44.5t-103.5 -17.5q-89 0 -148.5 53.5t-59.5 143.5q0 74 42 150.5t112 142.5h-261v76q82 7 117.5 19t46.5 33.5
t11 69.5v1048q0 48 -11 69.5t-46.5 33.5t-117.5 19v76h566v-76q-82 -7 -117.5 -19t-46.5 -33.5t-11 -69.5v-1048z" />
    <glyph glyph-name="iogonek" unicode="&#x12f;" horiz-adv-x="611" 
d="M290 1224q-52 0 -88.5 35.5t-36.5 86.5t36.5 86.5t88.5 35.5t88.5 -35.5t36.5 -86.5t-36.5 -86.5t-88.5 -35.5zM332 -490q-80 0 -138 53.5t-58 139.5q0 76 41.5 153.5t111.5 143.5h-223v76q96 10 121.5 25.5t25.5 61.5v641q0 41 -12 56t-55 25l-80 19v67l344 41v-849
q0 -46 25.5 -61.5t121.5 -25.5v-76h-194q-58 -92 -58 -206q0 -81 34.5 -127t87.5 -46q59 0 93 31v-76q-28 -29 -78 -47.5t-110 -18.5z" />
    <glyph glyph-name="Idotaccent" unicode="&#x130;" horiz-adv-x="704" 
d="M352 1610q-44 0 -74 29t-30 71q0 43 30 72t74 29t74 -29t30 -72q0 -42 -30 -71t-74 -29zM460 198q0 -48 11 -69.5t46.5 -33.5t117.5 -19v-76h-566v76q82 7 117.5 19t46.5 33.5t11 69.5v1048q0 48 -11 69.5t-46.5 33.5t-117.5 19v76h566v-76q-82 -7 -117.5 -19
t-46.5 -33.5t-11 -69.5v-1048z" />
    <glyph glyph-name="dotlessi" unicode="&#x131;" horiz-adv-x="611" 
d="M410 1012v-849q0 -46 25.5 -61.5t121.5 -25.5v-76h-491v76q96 10 121.5 25.5t25.5 61.5v641q0 41 -12 56t-55 25l-80 19v67z" />
    <glyph glyph-name="IJ" unicode="&#x132;" horiz-adv-x="1408" 
d="M460 198q0 -48 11 -69.5t46.5 -33.5t117.5 -19v-76h-566v76q82 7 117.5 19t46.5 33.5t11 69.5v1048q0 48 -11 69.5t-46.5 33.5t-117.5 19v76h566v-76q-82 -7 -117.5 -19t-46.5 -33.5t-11 -69.5v-1048zM1164 253q0 -84 -13.5 -153.5t-43.5 -128t-67.5 -106t-95.5 -93.5
t-117.5 -83.5t-142.5 -82.5l-37 66q168 112 234.5 245t66.5 367v962q0 48 -11 69.5t-46.5 33.5t-117.5 19v76h566v-76q-82 -7 -117.5 -19t-46.5 -33.5t-11 -69.5v-993z" />
    <glyph glyph-name="ij" unicode="&#x133;" horiz-adv-x="1197" 
d="M290 1222q-54 0 -91 36t-37 89t37 88.5t91 35.5t91 -35.5t37 -88.5t-37 -89t-91 -36zM889 1222q-54 0 -91 36t-37 89t37 88.5t91 35.5t91 -35.5t37 -88.5t-37 -89t-91 -36zM410 1012v-849q0 -46 25.5 -61.5t121.5 -25.5v-76h-491v76q96 10 121.5 25.5t25.5 61.5v641
q0 41 -12 56t-55 25l-80 19v67zM1009 1012v-850q0 -217 -58.5 -345.5t-229.5 -257.5l-55 -41l-48 65q115 97 154.5 223t39.5 345v653q0 41 -12 56t-55 25l-80 19v67z" />
    <glyph glyph-name="Jcircumflex" unicode="&#x134;" horiz-adv-x="704" 
d="M171 1570h-91l214 280h135l214 -280h-95l-186 151zM460 253q0 -84 -13.5 -153.5t-43.5 -128t-67.5 -106t-95.5 -93.5t-117.5 -83.5t-142.5 -82.5l-37 66q168 112 234.5 245t66.5 367v962q0 48 -11 69.5t-46.5 33.5t-117.5 19v76h566v-76q-82 -7 -117.5 -19t-46.5 -33.5
t-11 -69.5v-993z" />
    <glyph glyph-name="jcircumflex" unicode="&#x135;" horiz-adv-x="586" 
d="M70 1165h-95l238 364h130l238 -364h-99l-203 203zM398 1012v-850q0 -217 -58.5 -345.5t-229.5 -257.5l-55 -41l-48 65q115 97 154.5 223t39.5 345v653q0 41 -12 56t-55 25l-80 19v67z" />
    <glyph glyph-name="Kcommaaccent" unicode="&#x136;" horiz-adv-x="1386" 
d="M460 194q0 -66 28.5 -87t138.5 -31v-76h-558v76q82 7 117.5 19t46.5 33.5t11 69.5v1048q0 48 -11 69.5t-46.5 33.5t-117.5 19v76h558v-77q-110 -10 -138.5 -31t-28.5 -87v-455h181l320 392q79 99 63 136t-143 46v76h502v-76q-94 -16 -152.5 -58t-172.5 -172l-257 -290
l322 -497q100 -153 154.5 -209t116.5 -72v-70h-298l-453 705h-183v-511zM781 -490q-120 0 -187 51v75q61 -34 145 -34q53 0 87.5 23t34.5 64q0 39 -33.5 61.5t-84.5 22.5q-58 0 -92 -17v69q20 24 63.5 40.5t97.5 16.5q95 0 153.5 -50.5t58.5 -134.5t-66 -135.5t-177 -51.5z
" />
    <glyph glyph-name="kcommaaccent" unicode="&#x137;" horiz-adv-x="1140" 
d="M872 0l-313 506h-149v-347q0 -44 23.5 -58.5t114.5 -24.5v-76h-482v76q96 10 121.5 25.5t25.5 61.5v1114q0 41 -12 56.5t-55 25.5l-80 19v66l344 42v-890h148l182 192q47 49 55 75.5t-17 40t-93 21.5v76h437v-76q-78 -11 -136.5 -47t-193.5 -161l-95 -88l238 -379
q57 -91 102 -129t103 -51v-70h-268zM658 -490q-120 0 -187 51v75q61 -34 145 -34q53 0 87.5 23t34.5 64q0 39 -33.5 61.5t-84.5 22.5q-58 0 -92 -17v69q20 24 63.5 40.5t97.5 16.5q95 0 153.5 -50.5t58.5 -134.5t-66 -135.5t-177 -51.5z" />
    <glyph glyph-name="Lacute" unicode="&#x139;" horiz-adv-x="1195" 
d="M336 1570h-93l169 280h217v-9zM1124 0h-1055v76q82 7 117.5 19t46.5 33.5t11 69.5v1048q0 48 -11 69.5t-46.5 33.5t-117.5 19v76h582v-76q-87 -8 -126 -21t-52 -37t-13 -75v-1147l236 8q61 2 101.5 7t80 18t65.5 35.5t50.5 60.5t42.5 91t34 128h70z" />
    <glyph glyph-name="lacute" unicode="&#x13a;" horiz-adv-x="611" 
d="M260 1570h-93l169 280h217v-9zM410 1485v-1322q0 -46 25.5 -61.5t121.5 -25.5v-76h-491v76q96 10 121.5 25.5t25.5 61.5v1114q0 41 -12 56.5t-55 25.5l-80 19v66z" />
    <glyph glyph-name="Lcommaaccent" unicode="&#x13b;" horiz-adv-x="1195" 
d="M1124 0h-1055v76q82 7 117.5 19t46.5 33.5t11 69.5v1048q0 48 -11 69.5t-46.5 33.5t-117.5 19v76h582v-76q-87 -8 -126 -21t-52 -37t-13 -75v-1147l236 8q61 2 101.5 7t80 18t65.5 35.5t50.5 60.5t42.5 91t34 128h70zM587 -490q-120 0 -187 51v75q61 -34 145 -34
q53 0 87.5 23t34.5 64q0 39 -33.5 61.5t-84.5 22.5q-58 0 -92 -17v69q20 24 63.5 40.5t97.5 16.5q95 0 153.5 -50.5t58.5 -134.5t-66 -135.5t-177 -51.5z" />
    <glyph glyph-name="lcommaaccent" unicode="&#x13c;" horiz-adv-x="611" 
d="M410 1485v-1322q0 -46 25.5 -61.5t121.5 -25.5v-76h-491v76q96 10 121.5 25.5t25.5 61.5v1114q0 41 -12 56.5t-55 25.5l-80 19v66zM300 -490q-120 0 -187 51v75q61 -34 145 -34q53 0 87.5 23t34.5 64q0 39 -33.5 61.5t-84.5 22.5q-58 0 -92 -17v69q20 24 63.5 40.5
t97.5 16.5q95 0 153.5 -50.5t58.5 -134.5t-66 -135.5t-177 -51.5z" />
    <glyph glyph-name="Lcaron" unicode="&#x13d;" horiz-adv-x="1195" 
d="M930 1109h-72l45 420h179zM1124 0h-1055v76q82 7 117.5 19t46.5 33.5t11 69.5v1048q0 48 -11 69.5t-46.5 33.5t-117.5 19v76h582v-76q-87 -8 -126 -21t-52 -37t-13 -75v-1147l236 8q61 2 101.5 7t80 18t65.5 35.5t50.5 60.5t42.5 91t34 128h70z" />
    <glyph glyph-name="lcaron" unicode="&#x13e;" horiz-adv-x="611" 
d="M640 1107h-72l45 420h179zM410 1485v-1322q0 -46 25.5 -61.5t121.5 -25.5v-76h-491v76q96 10 121.5 25.5t25.5 61.5v1114q0 41 -12 56.5t-55 25.5l-80 19v66z" />
    <glyph glyph-name="Ldot" unicode="&#x13f;" horiz-adv-x="1195" 
d="M1124 0h-1055v76q82 7 117.5 19t46.5 33.5t11 69.5v1048q0 48 -11 69.5t-46.5 33.5t-117.5 19v76h582v-76q-87 -8 -126 -21t-52 -37t-13 -75v-1147l236 8q61 2 101.5 7t80 18t65.5 35.5t50.5 60.5t42.5 91t34 128h70zM938 724q-51 0 -86.5 34t-35.5 85q0 50 35.5 84
t86.5 34t86.5 -34t35.5 -84q0 -51 -35.5 -85t-86.5 -34z" />
    <glyph glyph-name="ldot" unicode="&#x140;" horiz-adv-x="750" 
d="M410 1485v-1322q0 -46 25.5 -61.5t121.5 -25.5v-76h-491v76q96 10 121.5 25.5t25.5 61.5v1114q0 41 -12 56.5t-55 25.5l-80 19v66zM680 610q-49 0 -82 32t-33 80t33 80t82 32t82.5 -32t33.5 -80t-33.5 -80t-82.5 -32z" />
    <glyph glyph-name="Lslash" unicode="&#x141;" horiz-adv-x="1195" 
d="M69 599v101l175 56v490q0 48 -11 69.5t-46.5 33.5t-117.5 19v76h582v-76q-87 -8 -126 -21t-52 -37t-13 -75v-411l370 118v-100l-370 -118v-636l236 8q61 2 101.5 7t80 18t65.5 35.5t50.5 60.5t42.5 91t34 128h70l-16 -436h-1055v76q82 7 117.5 19t46.5 33.5t11 69.5v457z
" />
    <glyph glyph-name="lslash" unicode="&#x142;" horiz-adv-x="611" 
d="M66 692v101l147 57v427q0 41 -12 56.5t-55 25.5l-80 19v66l344 41v-560l150 58v-101l-150 -58v-661q0 -46 25.5 -61.5t121.5 -25.5v-76h-491v76q96 10 121.5 25.5t25.5 61.5v586z" />
    <glyph glyph-name="Nacute" unicode="&#x143;" horiz-adv-x="1580" 
d="M778 1570h-93l169 280h217v-9zM418 1444l850 -1232l-20 1018q0 43 -5 65t-24.5 38t-51.5 22.5t-93 12.5v76h467v-76q-59 -7 -89.5 -14.5t-48.5 -24t-23 -37t-5 -61.5l-7 -1231h-209l-848 1229l20 -1015q1 -56 13 -81t46.5 -37.5t115.5 -19.5v-76h-468v76q78 9 111.5 22.5
t44.5 37.5t11 77l4 1011q0 43 -4.5 65.5t-23.5 40t-50 25t-89 13.5v76h376z" />
    <glyph glyph-name="nacute" unicode="&#x144;" horiz-adv-x="1281" 
d="M619 1165h-95l191 364h219v-12zM405 1012v-152q46 73 132.5 118t198.5 45q158 0 253.5 -85.5t95.5 -236.5v-538q0 -46 25 -61.5t122 -25.5v-76h-482v76q90 10 113.5 24.5t23.5 58.5v487q0 121 -63.5 186.5t-175.5 65.5q-83 0 -145 -31.5t-93 -81.5v-626q0 -44 23.5 -58.5
t114.5 -24.5v-76h-482v76q96 10 121.5 25.5t25.5 61.5v641q0 41 -12 56t-55 25l-80 19v67z" />
    <glyph glyph-name="Ncommaaccent" unicode="&#x145;" horiz-adv-x="1580" 
d="M418 1444l850 -1232l-20 1018q0 43 -5 65t-24.5 38t-51.5 22.5t-93 12.5v76h467v-76q-59 -7 -89.5 -14.5t-48.5 -24t-23 -37t-5 -61.5l-7 -1231h-209l-848 1229l20 -1015q1 -56 13 -81t46.5 -37.5t115.5 -19.5v-76h-468v76q78 9 111.5 22.5t44.5 37.5t11 77l4 1011
q0 43 -4.5 65.5t-23.5 40t-50 25t-89 13.5v76h376zM781 -490q-120 0 -187 51v75q61 -34 145 -34q53 0 87.5 23t34.5 64q0 39 -33.5 61.5t-84.5 22.5q-58 0 -92 -17v69q20 24 63.5 40.5t97.5 16.5q95 0 153.5 -50.5t58.5 -134.5t-66 -135.5t-177 -51.5z" />
    <glyph glyph-name="ncommaaccent" unicode="&#x146;" horiz-adv-x="1281" 
d="M405 1012v-152q46 73 132.5 118t198.5 45q158 0 253.5 -85.5t95.5 -236.5v-538q0 -46 25 -61.5t122 -25.5v-76h-482v76q90 10 113.5 24.5t23.5 58.5v487q0 121 -63.5 186.5t-175.5 65.5q-83 0 -145 -31.5t-93 -81.5v-626q0 -44 23.5 -58.5t114.5 -24.5v-76h-482v76
q96 10 121.5 25.5t25.5 61.5v641q0 41 -12 56t-55 25l-80 19v67zM637 -490q-120 0 -187 51v75q61 -34 145 -34q53 0 87.5 23t34.5 64q0 39 -33.5 61.5t-84.5 22.5q-58 0 -92 -17v69q20 24 63.5 40.5t97.5 16.5q95 0 153.5 -50.5t58.5 -134.5t-66 -135.5t-177 -51.5z" />
    <glyph glyph-name="Ncaron" unicode="&#x147;" horiz-adv-x="1580" 
d="M997 1849h91l-214 -280h-135l-214 280h96l186 -152zM418 1444l850 -1232l-20 1018q0 43 -5 65t-24.5 38t-51.5 22.5t-93 12.5v76h467v-76q-59 -7 -89.5 -14.5t-48.5 -24t-23 -37t-5 -61.5l-7 -1231h-209l-848 1229l20 -1015q1 -56 13 -81t46.5 -37.5t115.5 -19.5v-76
h-468v76q78 9 111.5 22.5t44.5 37.5t11 77l4 1011q0 43 -4.5 65.5t-23.5 40t-50 25t-89 13.5v76h376z" />
    <glyph glyph-name="ncaron" unicode="&#x148;" horiz-adv-x="1281" 
d="M857 1527h95l-238 -364h-130l-238 364h99l203 -203zM405 1012v-152q46 73 132.5 118t198.5 45q158 0 253.5 -85.5t95.5 -236.5v-538q0 -46 25 -61.5t122 -25.5v-76h-482v76q90 10 113.5 24.5t23.5 58.5v487q0 121 -63.5 186.5t-175.5 65.5q-83 0 -145 -31.5t-93 -81.5
v-626q0 -44 23.5 -58.5t114.5 -24.5v-76h-482v76q96 10 121.5 25.5t25.5 61.5v641q0 41 -12 56t-55 25l-80 19v67z" />
    <glyph glyph-name="Omacron" unicode="&#x14c;" horiz-adv-x="1671" 
d="M561 1631v119h530v-119h-530zM107 722q0 209 89 379.5t257.5 271.5t385.5 101q138 0 268 -52.5t232 -146.5t164 -238.5t62 -314.5q0 -156 -52.5 -293.5t-146 -239t-232 -160.5t-302.5 -59q-110 0 -216 32.5t-197.5 97.5t-161.5 154t-110 210t-40 258zM348 742
q0 -178 59.5 -327.5t176 -242.5t267.5 -93q122 0 214.5 49.5t147.5 137t82.5 197.5t27.5 239q0 178 -59.5 327.5t-176 242.5t-267.5 93q-98 0 -177 -33t-133.5 -90t-91.5 -136.5t-53.5 -170t-16.5 -193.5z" />
    <glyph glyph-name="omacron" unicode="&#x14d;" horiz-adv-x="1223" 
d="M315 1269v130h588v-130h-588zM603 -22q-215 0 -358 146t-143 372q0 231 147 379t370 148q216 0 359 -146t143 -372q0 -231 -147.5 -379t-370.5 -148zM619 82q136 0 212 107.5t76 295.5q0 197 -85.5 315.5t-218.5 118.5q-136 0 -212 -107.5t-76 -295.5q0 -197 85.5 -315.5
t218.5 -118.5z" />
    <glyph glyph-name="Obreve" unicode="&#x14e;" horiz-adv-x="1671" 
d="M826 1601q-121 0 -193.5 76t-72.5 177q0 26 4 46h76v-11q0 -68 49.5 -113.5t136.5 -45.5t136.5 45.5t49.5 113.5v11h76q4 -20 4 -46q0 -101 -72.5 -177t-193.5 -76zM107 722q0 209 89 379.5t257.5 271.5t385.5 101q138 0 268 -52.5t232 -146.5t164 -238.5t62 -314.5
q0 -156 -52.5 -293.5t-146 -239t-232 -160.5t-302.5 -59q-110 0 -216 32.5t-197.5 97.5t-161.5 154t-110 210t-40 258zM348 742q0 -178 59.5 -327.5t176 -242.5t267.5 -93q122 0 214.5 49.5t147.5 137t82.5 197.5t27.5 239q0 178 -59.5 327.5t-176 242.5t-267.5 93
q-98 0 -177 -33t-133.5 -90t-91.5 -136.5t-53.5 -170t-16.5 -193.5z" />
    <glyph glyph-name="obreve" unicode="&#x14f;" horiz-adv-x="1223" 
d="M609 1176q-136 0 -217 85.5t-81 200.5q0 30 4 53h86v-13q0 -75 55.5 -125.5t152.5 -50.5t152.5 50.5t55.5 125.5v13h86q4 -23 4 -53q0 -115 -81 -200.5t-217 -85.5zM603 -22q-215 0 -358 146t-143 372q0 231 147 379t370 148q216 0 359 -146t143 -372q0 -231 -147.5 -379
t-370.5 -148zM619 82q136 0 212 107.5t76 295.5q0 197 -85.5 315.5t-218.5 118.5q-136 0 -212 -107.5t-76 -295.5q0 -197 85.5 -315.5t218.5 -118.5z" />
    <glyph glyph-name="Ohungarumlaut" unicode="&#x150;" horiz-adv-x="1671" 
d="M721 1850h177v-9l-172 -271h-93zM1063 1850h188v-9l-252 -271h-97zM107 722q0 209 89 379.5t257.5 271.5t385.5 101q138 0 268 -52.5t232 -146.5t164 -238.5t62 -314.5q0 -156 -52.5 -293.5t-146 -239t-232 -160.5t-302.5 -59q-110 0 -216 32.5t-197.5 97.5t-161.5 154
t-110 210t-40 258zM348 742q0 -178 59.5 -327.5t176 -242.5t267.5 -93q122 0 214.5 49.5t147.5 137t82.5 197.5t27.5 239q0 178 -59.5 327.5t-176 242.5t-267.5 93q-98 0 -177 -33t-133.5 -90t-91.5 -136.5t-53.5 -170t-16.5 -193.5z" />
    <glyph glyph-name="ohungarumlaut" unicode="&#x151;" horiz-adv-x="1223" 
d="M500 1529h180v-12l-191 -352h-95zM869 1529h190v-12l-273 -352h-97zM603 -22q-215 0 -358 146t-143 372q0 231 147 379t370 148q216 0 359 -146t143 -372q0 -231 -147.5 -379t-370.5 -148zM619 82q136 0 212 107.5t76 295.5q0 197 -85.5 315.5t-218.5 118.5
q-136 0 -212 -107.5t-76 -295.5q0 -197 85.5 -315.5t218.5 -118.5z" />
    <glyph glyph-name="OE" unicode="&#x152;" horiz-adv-x="2103" 
d="M107 711q0 217 93 390t265.5 273t395.5 100q80 0 192.5 -15t194.5 -15h715l11 -360h-70q-35 156 -106 207t-246 56l-285 9v-572h299q52 0 75.5 36.5t50.5 166.5h65v-495h-65q-22 127 -46.5 165.5t-79.5 38.5h-299v-608l281 9q80 2 127.5 6.5t93.5 17t70.5 31.5t48 54
t37 81.5t26.5 117.5h70l-16 -405h-757q-76 0 -198 -15t-206 -15q-163 0 -302.5 60.5t-233.5 162t-147.5 236.5t-53.5 282zM347 726q0 -183 60 -329t180.5 -234t281.5 -88q107 0 182 28v1236q-67 30 -173 30q-124 0 -225 -50.5t-167.5 -138t-102.5 -204t-36 -250.5z" />
    <glyph glyph-name="oe" unicode="&#x153;" horiz-adv-x="1913" 
d="M611 -22q-230 0 -369.5 146.5t-139.5 382.5q0 227 145 371.5t365 144.5q130 0 232 -51.5t167 -146.5q63 94 160 146t216 52q203 0 313.5 -115t110.5 -317q0 -45 -4 -69h-695q8 -192 117.5 -305.5t288.5 -113.5q76 0 148.5 25.5t119.5 70.5v-76q-56 -66 -154 -105.5
t-220 -39.5q-128 0 -232.5 51.5t-170.5 146.5q-66 -94 -169.5 -146t-228.5 -52zM627 82q136 0 212 104.5t76 292.5q0 199 -87.5 319.5t-224.5 120.5q-136 0 -212 -104.5t-76 -291.5q0 -199 87.5 -320t224.5 -121zM1383 919q-114 0 -186 -77.5t-84 -231.5h507v2
q0 149 -61.5 228t-175.5 79z" />
    <glyph glyph-name="Racute" unicode="&#x154;" horiz-adv-x="1347" 
d="M624 1570h-93l169 280h217v-9zM1213 1052q1 -133 -81.5 -227.5t-219.5 -129.5l189 -345q90 -160 139.5 -214t101.5 -66v-70h-273l-353 638h-256v-444q0 -66 28.5 -87t138.5 -31v-76h-558v76q82 7 117.5 19t46.5 33.5t11 69.5v1048q0 48 -11 69.5t-46.5 33.5t-117.5 19v76
h581q274 0 418.5 -103.5t144.5 -288.5zM990 1032q0 307 -405 320l-125 4v-631l151 4q379 11 379 303z" />
    <glyph glyph-name="racute" unicode="&#x155;" horiz-adv-x="868" 
d="M425 1165h-95l191 364h219v-12zM405 1012v-205q96 109 169 160.5t140 51.5q57 0 83.5 -31t26.5 -79q0 -47 -19 -71q-35 10 -99 10q-87 0 -172 -29t-124 -74v-570q0 -30 4 -45t22.5 -27t48.5 -17t88 -10v-76h-507v76q96 10 121.5 25.5t25.5 61.5v641q0 41 -12 56t-55 25
l-80 19v67z" />
    <glyph glyph-name="Rcommaaccent" unicode="&#x156;" horiz-adv-x="1347" 
d="M1213 1052q1 -133 -81.5 -227.5t-219.5 -129.5l189 -345q90 -160 139.5 -214t101.5 -66v-70h-273l-353 638h-256v-444q0 -66 28.5 -87t138.5 -31v-76h-558v76q82 7 117.5 19t46.5 33.5t11 69.5v1048q0 48 -11 69.5t-46.5 33.5t-117.5 19v76h581q274 0 418.5 -103.5
t144.5 -288.5zM990 1032q0 307 -405 320l-125 4v-631l151 4q379 11 379 303zM737 -490q-120 0 -187 51v75q61 -34 145 -34q53 0 87.5 23t34.5 64q0 39 -33.5 61.5t-84.5 22.5q-58 0 -92 -17v69q20 24 63.5 40.5t97.5 16.5q95 0 153.5 -50.5t58.5 -134.5t-66 -135.5
t-177 -51.5z" />
    <glyph glyph-name="rcommaaccent" unicode="&#x157;" horiz-adv-x="868" 
d="M405 1012v-205q96 109 169 160.5t140 51.5q57 0 83.5 -31t26.5 -79q0 -47 -19 -71q-35 10 -99 10q-87 0 -172 -29t-124 -74v-570q0 -30 4 -45t22.5 -27t48.5 -17t88 -10v-76h-507v76q96 10 121.5 25.5t25.5 61.5v641q0 41 -12 56t-55 25l-80 19v67zM307 -490
q-120 0 -187 51v75q61 -34 145 -34q53 0 87.5 23t34.5 64q0 39 -33.5 61.5t-84.5 22.5q-58 0 -92 -17v69q20 24 63.5 40.5t97.5 16.5q95 0 153.5 -50.5t58.5 -134.5t-66 -135.5t-177 -51.5z" />
    <glyph glyph-name="Rcaron" unicode="&#x158;" horiz-adv-x="1347" 
d="M843 1849h91l-214 -280h-135l-214 280h96l186 -152zM1213 1052q1 -133 -81.5 -227.5t-219.5 -129.5l189 -345q90 -160 139.5 -214t101.5 -66v-70h-273l-353 638h-256v-444q0 -66 28.5 -87t138.5 -31v-76h-558v76q82 7 117.5 19t46.5 33.5t11 69.5v1048q0 48 -11 69.5
t-46.5 33.5t-117.5 19v76h581q274 0 418.5 -103.5t144.5 -288.5zM990 1032q0 307 -405 320l-125 4v-631l151 4q379 11 379 303z" />
    <glyph glyph-name="rcaron" unicode="&#x159;" horiz-adv-x="868" 
d="M663 1527h95l-238 -364h-130l-238 364h99l203 -203zM405 1012v-205q96 109 169 160.5t140 51.5q57 0 83.5 -31t26.5 -79q0 -47 -19 -71q-35 10 -99 10q-87 0 -172 -29t-124 -74v-570q0 -30 4 -45t22.5 -27t48.5 -17t88 -10v-76h-507v76q96 10 121.5 25.5t25.5 61.5v641
q0 41 -12 56t-55 25l-80 19v67z" />
    <glyph glyph-name="Sacute" unicode="&#x15a;" horiz-adv-x="1188" 
d="M602 1570h-93l169 280h217v-9zM579 -30q-145 0 -270 36t-193 93l-12 305h70q36 -160 148 -242.5t267 -82.5q137 0 218.5 70.5t81.5 183.5q0 107 -67.5 178.5t-210.5 116.5l-111 36q-384 120 -384 412q0 175 137.5 286.5t366.5 111.5q128 0 236 -33.5t164 -81.5l12 -305
h-70q-29 158 -122 234.5t-230 76.5q-143 0 -220.5 -66t-77.5 -176q0 -99 67.5 -160.5t206.5 -105.5l112 -35q200 -64 293.5 -167.5t93.5 -258.5q0 -187 -144.5 -306.5t-361.5 -119.5z" />
    <glyph glyph-name="sacute" unicode="&#x15b;" horiz-adv-x="973" 
d="M466 1165h-95l191 364h219v-12zM113 740q0 131 105.5 207t282.5 76q109 0 195.5 -21.5t134.5 -54.5l8 -250h-70q-21 107 -92.5 164.5t-174.5 57.5q-95 0 -152.5 -39.5t-57.5 -107.5q0 -65 50 -102.5t153 -65.5l81 -22q146 -39 222.5 -112t76.5 -193q0 -132 -113.5 -213.5
t-280.5 -81.5q-115 0 -213 26t-158 66l-8 255h70q26 -120 109 -181.5t198 -61.5q99 0 158 44t59 115q0 66 -45.5 106t-152.5 69l-82 22q-146 40 -224.5 111.5t-78.5 186.5z" />
    <glyph glyph-name="Scircumflex" unicode="&#x15c;" horiz-adv-x="1188" 
d="M442 1570h-91l214 280h135l214 -280h-95l-186 151zM579 -30q-145 0 -270 36t-193 93l-12 305h70q36 -160 148 -242.5t267 -82.5q137 0 218.5 70.5t81.5 183.5q0 107 -67.5 178.5t-210.5 116.5l-111 36q-384 120 -384 412q0 175 137.5 286.5t366.5 111.5q128 0 236 -33.5
t164 -81.5l12 -305h-70q-29 158 -122 234.5t-230 76.5q-143 0 -220.5 -66t-77.5 -176q0 -99 67.5 -160.5t206.5 -105.5l112 -35q200 -64 293.5 -167.5t93.5 -258.5q0 -187 -144.5 -306.5t-361.5 -119.5z" />
    <glyph glyph-name="scircumflex" unicode="&#x15d;" horiz-adv-x="973" 
d="M288 1165h-95l238 364h130l238 -364h-99l-203 203zM113 740q0 131 105.5 207t282.5 76q109 0 195.5 -21.5t134.5 -54.5l8 -250h-70q-21 107 -92.5 164.5t-174.5 57.5q-95 0 -152.5 -39.5t-57.5 -107.5q0 -65 50 -102.5t153 -65.5l81 -22q146 -39 222.5 -112t76.5 -193
q0 -132 -113.5 -213.5t-280.5 -81.5q-115 0 -213 26t-158 66l-8 255h70q26 -120 109 -181.5t198 -61.5q99 0 158 44t59 115q0 66 -45.5 106t-152.5 69l-82 22q-146 40 -224.5 111.5t-78.5 186.5z" />
    <glyph glyph-name="Scedilla" unicode="&#x15e;" horiz-adv-x="1188" 
d="M546 -490q-134 0 -203 62v76q59 -42 150 -42q54 0 89.5 22.5t35.5 63.5q0 44 -39 66t-103 22q-23 0 -41 -4v72l91 123q-129 7 -238.5 42t-171.5 86l-12 305h70q36 -160 148 -242.5t267 -82.5q137 0 218.5 70.5t81.5 183.5q0 107 -67.5 178.5t-210.5 116.5l-111 36
q-384 120 -384 412q0 175 137.5 286.5t366.5 111.5q128 0 236 -33.5t164 -81.5l12 -305h-70q-29 158 -122 234.5t-230 76.5q-143 0 -220.5 -66t-77.5 -176q0 -99 67.5 -160.5t206.5 -105.5l112 -35q200 -64 293.5 -167.5t93.5 -258.5q0 -176 -130 -293.5t-330 -130.5
l-56 -83q95 -2 157 -53t62 -139q0 -86 -72 -136.5t-170 -50.5z" />
    <glyph glyph-name="scedilla" unicode="&#x15f;" horiz-adv-x="973" 
d="M448 -490q-134 0 -203 62v76q59 -42 150 -42q54 0 89.5 22.5t35.5 63.5q0 44 -39 66t-103 22q-23 0 -41 -4v72l99 135q-101 5 -186.5 30t-139.5 61l-8 255h70q26 -120 109 -181.5t198 -61.5q99 0 158 44t59 115q0 66 -45.5 106t-152.5 69l-82 22q-146 40 -224.5 111.5
t-78.5 186.5q0 131 105.5 207t282.5 76q109 0 195.5 -21.5t134.5 -54.5l8 -250h-70q-21 107 -92.5 164.5t-174.5 57.5q-95 0 -152.5 -39.5t-57.5 -107.5q0 -65 50 -102.5t153 -65.5l81 -22q146 -39 222.5 -112t76.5 -193t-95.5 -199.5t-243.5 -93.5l-65 -95q95 -2 157 -53
t62 -139q0 -86 -72 -136.5t-170 -50.5z" />
    <glyph glyph-name="Scaron" unicode="&#x160;" horiz-adv-x="1188" 
d="M821 1849h91l-214 -280h-135l-214 280h96l186 -152zM579 -30q-145 0 -270 36t-193 93l-12 305h70q36 -160 148 -242.5t267 -82.5q137 0 218.5 70.5t81.5 183.5q0 107 -67.5 178.5t-210.5 116.5l-111 36q-384 120 -384 412q0 175 137.5 286.5t366.5 111.5q128 0 236 -33.5
t164 -81.5l12 -305h-70q-29 158 -122 234.5t-230 76.5q-143 0 -220.5 -66t-77.5 -176q0 -99 67.5 -160.5t206.5 -105.5l112 -35q200 -64 293.5 -167.5t93.5 -258.5q0 -187 -144.5 -306.5t-361.5 -119.5z" />
    <glyph glyph-name="scaron" unicode="&#x161;" horiz-adv-x="973" 
d="M704 1527h95l-238 -364h-130l-238 364h99l203 -203zM113 740q0 131 105.5 207t282.5 76q109 0 195.5 -21.5t134.5 -54.5l8 -250h-70q-21 107 -92.5 164.5t-174.5 57.5q-95 0 -152.5 -39.5t-57.5 -107.5q0 -65 50 -102.5t153 -65.5l81 -22q146 -39 222.5 -112t76.5 -193
q0 -132 -113.5 -213.5t-280.5 -81.5q-115 0 -213 26t-158 66l-8 255h70q26 -120 109 -181.5t198 -61.5q99 0 158 44t59 115q0 66 -45.5 106t-152.5 69l-82 22q-146 40 -224.5 111.5t-78.5 186.5z" />
    <glyph glyph-name="Tcedilla" unicode="&#x162;" horiz-adv-x="1379" 
d="M659 -490q-135 0 -204 62v76q59 -42 150 -42q55 0 90 22.5t35 63.5q0 43 -39.5 65.5t-102.5 22.5q-23 0 -41 -4v72l113 152h-269v76q66 6 101.5 13.5t56.5 24t26.5 37.5t5.5 60v1145l-62 -2q-76 -2 -125.5 -7t-93.5 -17t-70.5 -29.5t-48 -48t-34 -70.5t-22.5 -98h-70
l12 360h1245l12 -360h-70q-10 58 -22.5 98t-34 70.5t-48 48t-70.5 29.5t-93.5 17t-125.5 7l-63 2v-1145q0 -52 13 -76t52 -37.5t126 -21.5v-76h-231l-75 -111q95 -2 156.5 -53.5t61.5 -138.5q0 -86 -72 -136.5t-169 -50.5z" />
    <glyph glyph-name="tcedilla" unicode="&#x163;" horiz-adv-x="755" 
d="M192 279v617h-137v53l299 238h35v-192l317 6v-105l-317 4v-572q0 -127 47.5 -180.5t131.5 -53.5t155 42v-76q-30 -27 -87 -49t-117 -29l-63 -93q95 -2 157 -53t62 -139q0 -86 -72 -136.5t-170 -50.5q-134 0 -203 62v76q59 -42 150 -42q54 0 89.5 22.5t35.5 63.5
q0 44 -39 66t-103 22q-23 0 -41 -4v72l98 133q-101 13 -164.5 84t-63.5 214z" />
    <glyph glyph-name="Tcaron" unicode="&#x164;" horiz-adv-x="1379" 
d="M888 1849h91l-214 -280h-135l-214 280h96l186 -152zM1312 1444l12 -360h-70q-10 58 -22.5 98t-34 70.5t-48 48t-70.5 29.5t-93.5 17t-125.5 7l-63 2v-1145q0 -52 13 -76t52 -37.5t126 -21.5v-76h-597v76q66 6 101.5 13.5t56.5 24t26.5 37.5t5.5 60v1145l-62 -2
q-76 -2 -125.5 -7t-93.5 -17t-70.5 -29.5t-48 -48t-34 -70.5t-22.5 -98h-70l12 360h1245z" />
    <glyph glyph-name="tcaron" unicode="&#x165;" horiz-adv-x="755" 
d="M627 1107h-72l45 420h179zM192 279v617h-137v53l299 238h35v-192l317 6v-105l-317 4v-572q0 -127 47.5 -180.5t131.5 -53.5t155 42v-76q-38 -33 -112.5 -57.5t-145.5 -24.5q-55 0 -101 15t-86 48t-63 94t-23 144z" />
    <glyph glyph-name="Tbar" unicode="&#x166;" horiz-adv-x="1379" 
d="M292 693v94h289v569l-62 -2q-76 -2 -125.5 -7t-93.5 -17t-70.5 -29.5t-48 -48t-34 -70.5t-22.5 -98h-70l12 360h1245l12 -360h-70q-10 58 -22.5 98t-34 70.5t-48 48t-70.5 29.5t-93.5 17t-125.5 7l-63 2v-569h290v-94h-290v-483q0 -52 13 -76t52 -37t126 -21v-76h-597v76
q87 8 125.5 21t51.5 37t13 76v483h-289z" />
    <glyph glyph-name="tbar" unicode="&#x167;" horiz-adv-x="755" 
d="M192 279v231h-120v94h120v292h-137v53l299 238h35v-192l317 6v-105l-317 4v-296h334v-94h-334v-182q0 -127 47.5 -180.5t131.5 -53.5t155 42v-76q-38 -33 -112.5 -57.5t-145.5 -24.5q-55 0 -101 15t-86 48t-63 94t-23 144z" />
    <glyph glyph-name="Utilde" unicode="&#x168;" horiz-adv-x="1576" 
d="M952 1585q-40 0 -71.5 15t-72.5 46l-29 23q-45 35 -78 35q-30 0 -45.5 -27.5t-18.5 -93.5h-85q0 127 47 189t120 62q39 0 70.5 -15t73.5 -46l29 -23q45 -35 78 -35q30 0 45.5 27.5t18.5 93.5h85q0 -127 -47 -189t-120 -62zM203 1250q0 66 -28.5 87t-138.5 31v76h558v-76
q-82 -7 -117.5 -19t-46.5 -33.5t-11 -69.5v-699q0 -207 118 -321t303 -114q196 0 305 115t108 335l-5 671q0 41 -5 62t-24 37.5t-51.5 23.5t-94.5 12v76h467v-77q-58 -5 -89 -12t-49.5 -23t-23.5 -37t-5 -61l-6 -691q-2 -266 -161.5 -419.5t-430.5 -153.5q-111 0 -212 34.5
t-182.5 101t-129.5 174.5t-48 243v727z" />
    <glyph glyph-name="utilde" unicode="&#x169;" horiz-adv-x="1245" 
d="M735 1214q-41 0 -74.5 16.5t-75.5 49.5l-30 25q-46 38 -82 38q-32 0 -48 -30t-19 -101h-86q0 136 49 202t124 66q42 0 75 -16.5t75 -49.5l30 -25q46 -38 82 -38q32 0 48 30t19 101h86q0 -136 -49 -202t-124 -66zM382 1012v-649q0 -126 63 -193t177 -67q77 0 135.5 31.5
t88.5 81.5v588q0 41 -12 56t-54 25l-81 19v67l345 41v-814q0 -41 12 -56.5t56 -25.5l79 -19v-66l-341 -42v152q-46 -74 -129.5 -118.5t-193.5 -44.5q-155 0 -248.5 87.5t-93.5 242.5v496q0 41 -12 56t-55 25l-80 19v67z" />
    <glyph glyph-name="Umacron" unicode="&#x16a;" horiz-adv-x="1576" 
d="M570 1631v119h530v-119h-530zM203 1250q0 66 -28.5 87t-138.5 31v76h558v-76q-82 -7 -117.5 -19t-46.5 -33.5t-11 -69.5v-699q0 -207 118 -321t303 -114q196 0 305 115t108 335l-5 671q0 41 -5 62t-24 37.5t-51.5 23.5t-94.5 12v76h467v-77q-58 -5 -89 -12t-49.5 -23
t-23.5 -37t-5 -61l-6 -691q-2 -266 -161.5 -419.5t-430.5 -153.5q-111 0 -212 34.5t-182.5 101t-129.5 174.5t-48 243v727z" />
    <glyph glyph-name="umacron" unicode="&#x16b;" horiz-adv-x="1245" 
d="M320 1269v130h588v-130h-588zM382 1012v-649q0 -126 63 -193t177 -67q77 0 135.5 31.5t88.5 81.5v588q0 41 -12 56t-54 25l-81 19v67l345 41v-814q0 -41 12 -56.5t56 -25.5l79 -19v-66l-341 -42v152q-46 -74 -129.5 -118.5t-193.5 -44.5q-155 0 -248.5 87.5t-93.5 242.5
v496q0 41 -12 56t-55 25l-80 19v67z" />
    <glyph glyph-name="Ubreve" unicode="&#x16c;" horiz-adv-x="1576" 
d="M835 1601q-121 0 -193.5 76t-72.5 177q0 26 4 46h76v-11q0 -68 49.5 -113.5t136.5 -45.5t136.5 45.5t49.5 113.5v11h76q4 -20 4 -46q0 -101 -72.5 -177t-193.5 -76zM203 1250q0 66 -28.5 87t-138.5 31v76h558v-76q-82 -7 -117.5 -19t-46.5 -33.5t-11 -69.5v-699
q0 -207 118 -321t303 -114q196 0 305 115t108 335l-5 671q0 41 -5 62t-24 37.5t-51.5 23.5t-94.5 12v76h467v-77q-58 -5 -89 -12t-49.5 -23t-23.5 -37t-5 -61l-6 -691q-2 -266 -161.5 -419.5t-430.5 -153.5q-111 0 -212 34.5t-182.5 101t-129.5 174.5t-48 243v727z" />
    <glyph glyph-name="ubreve" unicode="&#x16d;" horiz-adv-x="1245" 
d="M614 1176q-136 0 -217 85.5t-81 200.5q0 30 4 53h86v-13q0 -75 55.5 -125.5t152.5 -50.5t152.5 50.5t55.5 125.5v13h86q4 -23 4 -53q0 -115 -81 -200.5t-217 -85.5zM382 1012v-649q0 -126 63 -193t177 -67q77 0 135.5 31.5t88.5 81.5v588q0 41 -12 56t-54 25l-81 19v67
l345 41v-814q0 -41 12 -56.5t56 -25.5l79 -19v-66l-341 -42v152q-46 -74 -129.5 -118.5t-193.5 -44.5q-155 0 -248.5 87.5t-93.5 242.5v496q0 41 -12 56t-55 25l-80 19v67z" />
    <glyph glyph-name="Uring" unicode="&#x16e;" horiz-adv-x="1576" 
d="M590 1758q0 84 71 139t174 55t174 -55t71 -139t-71 -138.5t-174 -54.5t-174 54.5t-71 138.5zM729 1758q0 -50 29.5 -81.5t75.5 -31.5t75.5 31.5t29.5 81.5q0 51 -29.5 82.5t-75.5 31.5t-75.5 -31.5t-29.5 -82.5zM203 1250q0 66 -28.5 87t-138.5 31v76h558v-76
q-82 -7 -117.5 -19t-46.5 -33.5t-11 -69.5v-699q0 -207 118 -321t303 -114q196 0 305 115t108 335l-5 671q0 41 -5 62t-24 37.5t-51.5 23.5t-94.5 12v76h467v-77q-58 -5 -89 -12t-49.5 -23t-23.5 -37t-5 -61l-6 -691q-2 -266 -161.5 -419.5t-430.5 -153.5q-111 0 -212 34.5
t-182.5 101t-129.5 174.5t-48 243v727z" />
    <glyph glyph-name="uring" unicode="&#x16f;" horiz-adv-x="1245" 
d="M343 1347q0 92 78.5 152.5t192.5 60.5t192.5 -60.5t78.5 -152.5t-78 -152t-193 -60t-193 60t-78 152zM497 1347q0 -57 33.5 -92.5t83.5 -35.5t83.5 35.5t33.5 92.5t-33.5 92.5t-83.5 35.5t-83.5 -35.5t-33.5 -92.5zM382 1012v-649q0 -126 63 -193t177 -67
q77 0 135.5 31.5t88.5 81.5v588q0 41 -12 56t-54 25l-81 19v67l345 41v-814q0 -41 12 -56.5t56 -25.5l79 -19v-66l-341 -42v152q-46 -74 -129.5 -118.5t-193.5 -44.5q-155 0 -248.5 87.5t-93.5 242.5v496q0 41 -12 56t-55 25l-80 19v67z" />
    <glyph glyph-name="Uhungarumlaut" unicode="&#x170;" horiz-adv-x="1576" 
d="M730 1850h177v-9l-172 -271h-93zM1072 1850h188v-9l-252 -271h-97zM203 1250q0 66 -28.5 87t-138.5 31v76h558v-76q-82 -7 -117.5 -19t-46.5 -33.5t-11 -69.5v-699q0 -207 118 -321t303 -114q196 0 305 115t108 335l-5 671q0 41 -5 62t-24 37.5t-51.5 23.5t-94.5 12v76
h467v-77q-58 -5 -89 -12t-49.5 -23t-23.5 -37t-5 -61l-6 -691q-2 -266 -161.5 -419.5t-430.5 -153.5q-111 0 -212 34.5t-182.5 101t-129.5 174.5t-48 243v727z" />
    <glyph glyph-name="uhungarumlaut" unicode="&#x171;" horiz-adv-x="1245" 
d="M505 1529h180v-12l-191 -352h-95zM874 1529h190v-12l-273 -352h-97zM382 1012v-649q0 -126 63 -193t177 -67q77 0 135.5 31.5t88.5 81.5v588q0 41 -12 56t-54 25l-81 19v67l345 41v-814q0 -41 12 -56.5t56 -25.5l79 -19v-66l-341 -42v152q-46 -74 -129.5 -118.5
t-193.5 -44.5q-155 0 -248.5 87.5t-93.5 242.5v496q0 41 -12 56t-55 25l-80 19v67z" />
    <glyph glyph-name="Uogonek" unicode="&#x172;" horiz-adv-x="1576" 
d="M848 -490q-89 0 -148.5 53.5t-59.5 143.5q0 130 136 263h-1q-111 0 -212 34.5t-182.5 101t-129.5 174.5t-48 243v727q0 66 -28.5 87t-138.5 31v76h558v-76q-82 -7 -117.5 -19t-46.5 -33.5t-11 -69.5v-699q0 -207 118 -321t303 -114q196 0 305 115t108 335l-5 671
q0 54 -11 77.5t-46.5 37t-117.5 20.5v76h467v-77q-109 -10 -138 -34t-29 -99l-6 -691q-2 -245 -138 -395.5t-372 -173.5q-52 -73 -52 -178q0 -77 37 -126t96 -49q53 0 87 27v-76q-26 -27 -73.5 -44.5t-103.5 -17.5z" />
    <glyph glyph-name="uogonek" unicode="&#x173;" horiz-adv-x="1245" 
d="M382 1012v-649q0 -126 63 -193t177 -67q77 0 135.5 31.5t88.5 81.5v588q0 41 -12 56t-54 25l-81 19v67l345 41v-814q0 -41 12 -56.5t56 -25.5l79 -19v-66q-107 -91 -150.5 -160t-43.5 -138q0 -53 28 -82.5t68 -29.5q66 0 102 31v-76q-27 -30 -76 -48t-105 -18
q-81 0 -139 47t-58 126q0 76 56 151t182 163l31 21l-236 -29v152q-46 -74 -129.5 -118.5t-193.5 -44.5q-155 0 -248.5 87.5t-93.5 242.5v496q0 41 -12 56t-55 25l-80 19v67z" />
    <glyph glyph-name="Wcircumflex" unicode="&#x174;" horiz-adv-x="2187" 
d="M967 1570h-91l214 280h135l214 -280h-95l-186 151zM203 1177q-15 48 -29 78t-29.5 51t-38.5 33t-48 18t-66 11v76h565v-76q-51 -6 -80 -14t-48 -19.5t-22 -33.5t1 -49.5t18 -74.5l291 -974l280 974q17 60 21 90t-10.5 52.5t-46 31.5t-95.5 17v76h550v-76q-51 -6 -80 -14
t-48 -19.5t-22 -33.5t1 -49.5t18 -74.5l287 -973l284 973q12 40 17 64t4 46t-9 33.5t-27.5 21.5t-46 15.5t-69.5 10.5v76h470v-76q-102 -11 -139.5 -44.5t-75.5 -151.5l-375 -1172h-171l-336 1119l-349 -1119h-170z" />
    <glyph glyph-name="wcircumflex" unicode="&#x175;" horiz-adv-x="1655" 
d="M662 1165h-95l238 364h130l238 -364h-99l-203 203zM186 764q-30 87 -63 116t-111 45v76h469v-76q-87 -8 -105.5 -35t7.5 -110l175 -539l190 539q28 82 10 110.5t-96 34.5v76h434v-76q-78 -6 -95.5 -34.5t8.5 -110.5l174 -538l187 538q28 84 9 111t-107 34v76h371v-76
q-42 -6 -62.5 -12t-41.5 -23.5t-35 -45.5t-33 -80l-281 -764h-113l-246 723l-263 -723h-113z" />
    <glyph glyph-name="Ycircumflex" unicode="&#x176;" horiz-adv-x="1372" 
d="M561 1570h-91l214 280h135l214 -280h-95l-186 151zM238 1180q-70 109 -113 142.5t-133 45.5v76h570v-76q-120 -13 -136 -50.5t48 -138.5l274 -447l261 447q62 102 47 139t-135 50v76h459v-76q-89 -12 -134 -47t-121 -153l-330 -518v-439q0 -39 5.5 -60t26.5 -37.5
t56.5 -24t101.5 -13.5v-76h-597v76q86 8 125.5 21.5t52.5 37.5t13 76v430z" />
    <glyph glyph-name="ycircumflex" unicode="&#x177;" horiz-adv-x="1096" 
d="M384 1165h-95l238 364h130l238 -364h-99l-203 203zM185 764q-36 89 -67.5 117.5t-105.5 43.5v76h494v-76q-104 -9 -126.5 -35.5t7.5 -109.5l203 -543l215 543q17 43 20 68.5t-12 42t-43.5 23.5t-83.5 11v76h398v-76q-42 -6 -63.5 -12t-42.5 -24t-35.5 -45.5t-36.5 -81.5
l-241 -583l-74 -179l-167 -460h-180v4q99 185 247 469z" />
    <glyph glyph-name="Ydieresis" unicode="&#x178;" horiz-adv-x="1372" 
d="M569 1608q-44 0 -74 29.5t-30 72.5t30 73t74 30t74 -30t30 -73t-30 -72.5t-74 -29.5zM914 1608q-44 0 -74 29.5t-30 72.5t30 73t74 30t74 -30t30 -73t-30 -72.5t-74 -29.5zM238 1180q-70 109 -113 142.5t-133 45.5v76h570v-76q-120 -13 -136 -50.5t48 -138.5l274 -447
l261 447q62 102 47 139t-135 50v76h459v-76q-89 -12 -134 -47t-121 -153l-330 -518v-439q0 -39 5.5 -60t26.5 -37.5t56.5 -24t101.5 -13.5v-76h-597v76q86 8 125.5 21.5t52.5 37.5t13 76v430z" />
    <glyph glyph-name="Zacute" unicode="&#x179;" horiz-adv-x="1259" 
d="M606 1570h-93l169 280h217v-9zM1167 0h-1091v70l846 1286l-414 -12q-100 -3 -156.5 -13t-96.5 -40.5t-58.5 -76.5t-34.5 -130h-70l12 360h1064v-70l-847 -1286l369 12q58 2 96.5 4.5t79.5 9t67 15.5t53 25t44 37.5t33.5 52.5t28 70.5t21.5 90.5h70z" />
    <glyph glyph-name="zacute" unicode="&#x17a;" horiz-adv-x="962" 
d="M462 1165h-95l191 364h219v-12zM87 1001h796v-69l-581 -846l299 10q51 2 82 9.5t59.5 30t46 65t32.5 111.5h70l-8 -312h-812v69l573 846l-259 -9q-60 -2 -94 -9.5t-62.5 -29.5t-45.5 -59t-34 -103h-70z" />
    <glyph glyph-name="Zdotaccent" unicode="&#x17b;" horiz-adv-x="1259" 
d="M626 1610q-44 0 -74 29t-30 71q0 43 30 72t74 29t74 -29t30 -72q0 -42 -30 -71t-74 -29zM1167 0h-1091v70l846 1286l-414 -12q-100 -3 -156.5 -13t-96.5 -40.5t-58.5 -76.5t-34.5 -130h-70l12 360h1064v-70l-847 -1286l369 12q58 2 96.5 4.5t79.5 9t67 15.5t53 25
t44 37.5t33.5 52.5t28 70.5t21.5 90.5h70z" />
    <glyph glyph-name="zdotaccent" unicode="&#x17c;" horiz-adv-x="962" 
d="M492 1228q-51 0 -86.5 34t-35.5 85q0 50 35.5 84t86.5 34t86.5 -34t35.5 -84q0 -51 -35.5 -85t-86.5 -34zM87 1001h796v-69l-581 -846l299 10q51 2 82 9.5t59.5 30t46 65t32.5 111.5h70l-8 -312h-812v69l573 846l-259 -9q-60 -2 -94 -9.5t-62.5 -29.5t-45.5 -59t-34 -103
h-70z" />
    <glyph glyph-name="Zcaron" unicode="&#x17d;" horiz-adv-x="1259" 
d="M825 1849h91l-214 -280h-135l-214 280h96l186 -152zM1167 0h-1091v70l846 1286l-414 -12q-100 -3 -156.5 -13t-96.5 -40.5t-58.5 -76.5t-34.5 -130h-70l12 360h1064v-70l-847 -1286l369 12q58 2 96.5 4.5t79.5 9t67 15.5t53 25t44 37.5t33.5 52.5t28 70.5t21.5 90.5h70z
" />
    <glyph glyph-name="zcaron" unicode="&#x17e;" horiz-adv-x="962" 
d="M700 1527h95l-238 -364h-130l-238 364h99l203 -203zM87 1001h796v-69l-581 -846l299 10q51 2 82 9.5t59.5 30t46 65t32.5 111.5h70l-8 -312h-812v69l573 846l-259 -9q-60 -2 -94 -9.5t-62.5 -29.5t-45.5 -59t-34 -103h-70z" />
    <glyph glyph-name="Schwa" unicode="&#x18f;" horiz-adv-x="1492" 
d="M693 -30q-153 0 -271 45.5t-191.5 128t-111 192t-37.5 241.5q0 49 10 106h1059v37q0 309 -128 477t-371 168q-347 0 -419 -312h-70l12 306q74 52 209 83.5t297 31.5q156 0 285.5 -50t222.5 -144.5t145 -238t52 -322.5q0 -172 -52 -313.5t-144 -236.5t-219.5 -147
t-277.5 -52zM300 578q0 -112 22.5 -201.5t69.5 -157t125.5 -104t183.5 -36.5q193 1 306.5 135t137.5 379h-845v-15z" />
    <glyph glyph-name="florin" unicode="&#x192;" horiz-adv-x="1183" 
d="M386 324l120 455h-293v74h312l51 194q57 220 154 323.5t247 103.5q92 0 147 -47t55 -119q0 -44 -30 -74t-72 -30q-43 0 -70.5 29t-27.5 71q0 50 41 76q-14 2 -23 2q-72 0 -116 -56.5t-83 -205.5l-70 -267h330v-74h-350l-100 -382q-57 -220 -154 -323.5t-247 -103.5
q-92 0 -147 47t-55 119q0 44 29.5 74t71.5 30q43 0 71 -29t28 -71q0 -51 -42 -76q14 -2 23 -2q73 0 117 56.5t83 205.5z" />
    <glyph glyph-name="Ohorn" unicode="&#x1a0;" horiz-adv-x="1675" 
d="M107 722q0 209 89 379.5t257.5 271.5t385.5 101q75 0 187.5 -12t155.5 -12q103 0 155.5 53t52.5 148q0 36 -9.5 76t-23.5 61h75q52 -44 84 -102.5t32 -119.5q0 -96 -80 -142t-220 -46q-25 0 -55 5q172 -98 272 -269t100 -392q0 -156 -52.5 -293.5t-146 -239t-232 -160.5
t-302.5 -59q-110 0 -216 32.5t-197.5 97.5t-161.5 154t-110 210t-40 258zM348 742q0 -178 59.5 -327.5t176 -242.5t267.5 -93q122 0 214.5 49.5t147.5 137t82.5 197.5t27.5 239q0 178 -59.5 327.5t-176 242.5t-267.5 93q-98 0 -177 -33t-133.5 -90t-91.5 -136.5t-53.5 -170
t-16.5 -193.5z" />
    <glyph glyph-name="ohorn" unicode="&#x1a1;" horiz-adv-x="1273" 
d="M603 -22q-227 0 -364 143t-137 375q0 150 67 271.5t180 188.5t247 67q66 0 152 -10t129 -10q89 0 140.5 50.5t51.5 135.5q0 86 -33 137h75q50 -41 81.5 -100.5t31.5 -116.5q0 -78 -65 -125t-174 -47q-74 0 -131 14q126 -58 196.5 -176.5t70.5 -269.5q0 -231 -147.5 -379
t-370.5 -148zM619 82q137 0 212.5 106t75.5 301t-85.5 312.5t-218.5 117.5q-137 0 -212.5 -106t-75.5 -301t85.5 -312.5t218.5 -117.5z" />
    <glyph glyph-name="Uhorn" unicode="&#x1af;" horiz-adv-x="1657" 
d="M202 523v709q0 72 -28 96.5t-132 39.5v76h555v-76q-82 -10 -118 -24t-48.5 -37.5t-12.5 -74.5v-685q0 -207 118 -321t304 -114q196 0 304.5 114.5t107.5 333.5l-5 672q0 52 -11 75t-47.5 37t-121.5 24v76h145q137 0 201 56t65 151q0 87 -34 137h76q47 -42 77 -102.5
t30 -119.5q0 -84 -55 -130t-167 -46q-5 0 -15 0.5t-14 0.5l-9 -848q-3 -266 -162.5 -419.5t-429.5 -153.5q-111 0 -212 34.5t-182.5 101t-130 174.5t-48.5 243z" />
    <glyph glyph-name="uhorn" unicode="&#x1b0;" horiz-adv-x="1313" 
d="M381 1012v-649q0 -126 63 -193t177 -67q77 0 136 31.5t89 81.5v588q0 41 -12.5 56t-57.5 25l-80 19v65l132 11q154 13 216 63.5t62 145.5q0 85 -33 136h75q51 -41 84 -101t32 -115q0 -73 -48 -112t-133 -39q-22 0 -40 3v-763q0 -41 12.5 -56.5t56.5 -25.5l81 -19v-66
l-343 -42v152q-47 -74 -130.5 -118.5t-193.5 -44.5q-154 0 -248 87.5t-94 242.5v496q0 41 -12.5 56t-56.5 25l-81 19v67z" />
    <glyph glyph-name="uni01C4" unicode="&#x1c4;" horiz-adv-x="2818" 
d="M2384 1849h91l-214 -280h-135l-214 280h96l186 -152zM1465 744q0 -167 -65.5 -309t-175.5 -236t-254.5 -146.5t-302.5 -52.5h-598v76q82 7 117.5 19t46.5 33.5t11 69.5v1048q0 48 -11 69.5t-46.5 33.5t-117.5 19v76h596q227 0 407.5 -82t286.5 -242.5t106 -375.5zM2726 0
h-1091v70l846 1286l-414 -12q-100 -3 -156.5 -13t-96.5 -40.5t-58.5 -76.5t-34.5 -130h-70l12 360h1064v-70l-847 -1286l369 12q58 2 96.5 4.5t79.5 9t67 15.5t53 25t44 37.5t33.5 52.5t28 70.5t21.5 90.5h70zM1227 728q0 278 -166.5 446t-445.5 177l-155 5v-1268l155 5
q281 9 446.5 178.5t165.5 456.5z" />
    <glyph glyph-name="uni01C5" unicode="&#x1c5;" horiz-adv-x="2521" 
d="M2259 1527h95l-238 -364h-130l-238 364h99l203 -203zM1465 744q0 -167 -65.5 -309t-175.5 -236t-254.5 -146.5t-302.5 -52.5h-598v76q82 7 117.5 19t46.5 33.5t11 69.5v1048q0 48 -11 69.5t-46.5 33.5t-117.5 19v76h596q227 0 407.5 -82t286.5 -242.5t106 -375.5z
M1227 728q0 278 -166.5 446t-445.5 177l-155 5v-1268l155 5q281 9 446.5 178.5t165.5 456.5zM1646 1001h796v-69l-581 -846l299 10q51 2 82 9.5t59.5 30t46 65t32.5 111.5h70l-8 -312h-812v69l573 846l-259 -9q-60 -2 -94 -9.5t-62.5 -29.5t-45.5 -59t-34 -103h-70z" />
    <glyph glyph-name="uni01C6" unicode="&#x1c6;" horiz-adv-x="2207" 
d="M1945 1527h95l-238 -364h-130l-238 364h99l203 -203zM102 488q0 235 136.5 385t339.5 150q81 0 151 -28t117 -74v356q0 41 -12 56.5t-54 25.5l-81 19v66l345 42v-1288q0 -41 12.5 -56.5t56.5 -25.5l78 -19v-66l-340 -42v163q-41 -78 -134.5 -126t-203.5 -48
q-83 0 -157 35t-131 99t-90 161.5t-33 214.5zM1332 1001h796v-69l-581 -846l299 10q51 2 82 9.5t59.5 30t46 65t32.5 111.5h70l-8 -312h-812v69l573 846l-259 -9q-60 -2 -94 -9.5t-62.5 -29.5t-45.5 -59t-34 -103h-70zM307 506q0 -187 83 -295t223 -108q79 0 140.5 31.5
t92.5 88.5v590q-26 45 -87 75t-140 30q-138 0 -225 -111.5t-87 -300.5z" />
    <glyph glyph-name="uni01C7" unicode="&#x1c7;" horiz-adv-x="1899" 
d="M1124 0h-1055v76q82 7 117.5 19t46.5 33.5t11 69.5v1048q0 48 -11 69.5t-46.5 33.5t-117.5 19v76h582v-76q-87 -8 -126 -21t-52 -37t-13 -75v-1147l236 8q61 2 101.5 7t80 18t65.5 35.5t50.5 60.5t42.5 91t34 128h70zM1655 253q0 -84 -13.5 -153.5t-43.5 -128t-67.5 -106
t-95.5 -93.5t-117.5 -83.5t-142.5 -82.5l-37 66q168 112 234.5 245t66.5 367v962q0 48 -11 69.5t-46.5 33.5t-117.5 19v76h566v-76q-82 -7 -117.5 -19t-46.5 -33.5t-11 -69.5v-993z" />
    <glyph glyph-name="uni01C8" unicode="&#x1c8;" horiz-adv-x="1780" 
d="M1473 1222q-54 0 -91 36t-37 89t37 88.5t91 35.5t91 -35.5t37 -88.5t-37 -89t-91 -36zM1124 0h-1055v76q82 7 117.5 19t46.5 33.5t11 69.5v1048q0 48 -11 69.5t-46.5 33.5t-117.5 19v76h582v-76q-87 -8 -126 -21t-52 -37t-13 -75v-1147l236 8q61 2 101.5 7t80 18
t65.5 35.5t50.5 60.5t42.5 91t34 128h70zM1593 1012v-850q0 -217 -58.5 -345.5t-229.5 -257.5l-55 -41l-48 65q115 97 154.5 223t39.5 345v653q0 41 -12 56t-55 25l-80 19v67z" />
    <glyph glyph-name="uni01C9" unicode="&#x1c9;" horiz-adv-x="1197" 
d="M410 1485v-1322q0 -46 25.5 -61.5t121.5 -25.5v-76h-491v76q96 10 121.5 25.5t25.5 61.5v1114q0 41 -12 56.5t-55 25.5l-80 19v66zM889 1222q-54 0 -91 36t-37 89t37 88.5t91 35.5t91 -35.5t37 -88.5t-37 -89t-91 -36zM1009 1012v-850q0 -217 -58.5 -345.5t-229.5 -257.5
l-55 -41l-48 65q115 97 154.5 223t39.5 345v653q0 41 -12 56t-55 25l-80 19v67z" />
    <glyph glyph-name="uni01CA" unicode="&#x1ca;" horiz-adv-x="2284" 
d="M418 1444l850 -1232l-20 1018q0 43 -5 65t-24.5 38t-51.5 22.5t-93 12.5v76h467v-76q-59 -7 -89.5 -14.5t-48.5 -24t-23 -37t-5 -61.5l-7 -1231h-209l-848 1229l20 -1015q1 -56 13 -81t46.5 -37.5t115.5 -19.5v-76h-468v76q78 9 111.5 22.5t44.5 37.5t11 77l4 1011
q0 43 -4.5 65.5t-23.5 40t-50 25t-89 13.5v76h376zM2040 253q0 -84 -13.5 -153.5t-43.5 -128t-67.5 -106t-95.5 -93.5t-117.5 -83.5t-142.5 -82.5l-37 66q168 112 234.5 245t66.5 367v962q0 48 -11 69.5t-46.5 33.5t-117.5 19v76h566v-76q-82 -7 -117.5 -19t-46.5 -33.5
t-11 -69.5v-993z" />
    <glyph glyph-name="uni01CB" unicode="&#x1cb;" horiz-adv-x="2165" 
d="M1858 1222q-54 0 -91 36t-37 89t37 88.5t91 35.5t91 -35.5t37 -88.5t-37 -89t-91 -36zM418 1444l850 -1232l-20 1018q0 43 -5 65t-24.5 38t-51.5 22.5t-93 12.5v76h467v-76q-59 -7 -89.5 -14.5t-48.5 -24t-23 -37t-5 -61.5l-7 -1231h-209l-848 1229l20 -1015
q1 -56 13 -81t46.5 -37.5t115.5 -19.5v-76h-468v76q78 9 111.5 22.5t44.5 37.5t11 77l4 1011q0 43 -4.5 65.5t-23.5 40t-50 25t-89 13.5v76h376zM1978 1012v-850q0 -217 -58.5 -345.5t-229.5 -257.5l-55 -41l-48 65q115 97 154.5 223t39.5 345v653q0 41 -12 56t-55 25
l-80 19v67z" />
    <glyph glyph-name="uni01CC" unicode="&#x1cc;" horiz-adv-x="1867" 
d="M1559 1222q-54 0 -91 36t-37 89t37 88.5t91 35.5t91 -35.5t37 -88.5t-37 -89t-91 -36zM405 1012v-152q46 73 132.5 118t198.5 45q158 0 253.5 -85.5t95.5 -236.5v-538q0 -46 25 -61.5t122 -25.5v-76h-482v76q90 10 113.5 24.5t23.5 58.5v487q0 121 -63.5 186.5
t-175.5 65.5q-83 0 -145 -31.5t-93 -81.5v-626q0 -44 23.5 -58.5t114.5 -24.5v-76h-482v76q96 10 121.5 25.5t25.5 61.5v641q0 41 -12 56t-55 25l-80 19v67zM1679 1012v-850q0 -217 -58.5 -345.5t-229.5 -257.5l-55 -41l-48 65q115 97 154.5 223t39.5 345v653q0 41 -12 56
t-55 25l-80 19v67z" />
    <glyph glyph-name="Acaron" unicode="&#x1cd;" horiz-adv-x="1448" 
d="M920 1849h91l-214 -280h-135l-214 280h96l186 -152zM1244 267q42 -113 79.5 -146.5t132.5 -44.5v-76h-571v76q122 15 145.5 49t-14.5 143l-82 232h-522l-81 -232q-38 -110 -14.5 -143.5t145.5 -48.5v-76h-470v76q100 11 135.5 44t80.5 153l432 1171h170zM445 594h456
l-230 651z" />
    <glyph glyph-name="acaron" unicode="&#x1ce;" horiz-adv-x="1105" 
d="M728 1527h95l-238 -364h-130l-238 364h99l203 -203zM392 -22q-128 0 -213 72t-85 183q0 123 90.5 198t292.5 119l238 52v79q0 238 -243 238q-103 0 -172 -39q24 -14 39 -39.5t15 -55.5q0 -46 -32.5 -76t-81.5 -30t-82 31.5t-33 79.5q0 102 121.5 167.5t293.5 65.5
q175 0 272 -78t97 -235v-498q0 -63 30.5 -92t79.5 -29q37 0 58 10v-70q-69 -47 -162 -47q-76 0 -126.5 36t-66.5 103q-47 -62 -136 -103.5t-194 -41.5zM294 268q0 -80 54 -127t141 -47q72 0 131.5 28.5t94.5 78.5v310l-153 -33q-145 -32 -206.5 -80.5t-61.5 -129.5z" />
    <glyph glyph-name="Icaron" unicode="&#x1cf;" horiz-adv-x="704" 
d="M551 1849h91l-214 -280h-135l-214 280h96l186 -152zM460 198q0 -48 11 -69.5t46.5 -33.5t117.5 -19v-76h-566v76q82 7 117.5 19t46.5 33.5t11 69.5v1048q0 48 -11 69.5t-46.5 33.5t-117.5 19v76h566v-76q-82 -7 -117.5 -19t-46.5 -33.5t-11 -69.5v-1048z" />
    <glyph glyph-name="icaron" unicode="&#x1d0;" horiz-adv-x="611" 
d="M477 1527h86l-214 -364h-117l-215 364h89l184 -203zM410 1012v-849q0 -46 25.5 -61.5t121.5 -25.5v-76h-491v76q96 10 121.5 25.5t25.5 61.5v641q0 41 -12 56t-55 25l-80 19v67z" />
    <glyph glyph-name="Ocaron" unicode="&#x1d1;" horiz-adv-x="1671" 
d="M1025 1849h91l-214 -280h-135l-214 280h96l186 -152zM107 722q0 209 89 379.5t257.5 271.5t385.5 101q138 0 268 -52.5t232 -146.5t164 -238.5t62 -314.5q0 -156 -52.5 -293.5t-146 -239t-232 -160.5t-302.5 -59q-110 0 -216 32.5t-197.5 97.5t-161.5 154t-110 210
t-40 258zM348 742q0 -178 59.5 -327.5t176 -242.5t267.5 -93q122 0 214.5 49.5t147.5 137t82.5 197.5t27.5 239q0 178 -59.5 327.5t-176 242.5t-267.5 93q-98 0 -177 -33t-133.5 -90t-91.5 -136.5t-53.5 -170t-16.5 -193.5z" />
    <glyph glyph-name="ocaron" unicode="&#x1d2;" horiz-adv-x="1223" 
d="M817 1527h95l-238 -364h-130l-238 364h99l203 -203zM603 -22q-215 0 -358 146t-143 372q0 231 147 379t370 148q216 0 359 -146t143 -372q0 -231 -147.5 -379t-370.5 -148zM619 82q136 0 212 107.5t76 295.5q0 197 -85.5 315.5t-218.5 118.5q-136 0 -212 -107.5
t-76 -295.5q0 -197 85.5 -315.5t218.5 -118.5z" />
    <glyph glyph-name="Ucaron" unicode="&#x1d3;" horiz-adv-x="1576" 
d="M1034 1849h91l-214 -280h-135l-214 280h96l186 -152zM203 1250q0 66 -28.5 87t-138.5 31v76h558v-76q-82 -7 -117.5 -19t-46.5 -33.5t-11 -69.5v-699q0 -207 118 -321t303 -114q196 0 305 115t108 335l-5 671q0 41 -5 62t-24 37.5t-51.5 23.5t-94.5 12v76h467v-77
q-58 -5 -89 -12t-49.5 -23t-23.5 -37t-5 -61l-6 -691q-2 -266 -161.5 -419.5t-430.5 -153.5q-111 0 -212 34.5t-182.5 101t-129.5 174.5t-48 243v727z" />
    <glyph glyph-name="ucaron" unicode="&#x1d4;" horiz-adv-x="1245" 
d="M822 1527h95l-238 -364h-130l-238 364h99l203 -203zM382 1012v-649q0 -126 63 -193t177 -67q77 0 135.5 31.5t88.5 81.5v588q0 41 -12 56t-54 25l-81 19v67l345 41v-814q0 -41 12 -56.5t56 -25.5l79 -19v-66l-341 -42v152q-46 -74 -129.5 -118.5t-193.5 -44.5
q-155 0 -248.5 87.5t-93.5 242.5v496q0 41 -12 56t-55 25l-80 19v67z" />
    <glyph glyph-name="Udieresismacron" unicode="&#x1d5;" horiz-adv-x="1576" 
d="M561 1812v91h547v-91h-547zM683 1549h-9q-36 0 -60.5 21.5t-24.5 52.5t24.5 52.5t60.5 21.5h9q35 0 59.5 -21.5t24.5 -52.5t-24.5 -52.5t-59.5 -21.5zM996 1549h-9q-35 0 -59.5 21.5t-24.5 52.5t24.5 52.5t59.5 21.5h9q36 0 60 -21.5t24 -52.5q0 -32 -24 -53t-60 -21z
M203 1250q0 66 -28.5 87t-138.5 31v76h558v-76q-82 -7 -117.5 -19t-46.5 -33.5t-11 -69.5v-699q0 -207 118 -321t303 -114q196 0 305 115t108 335l-5 671q0 41 -5 62t-24 37.5t-51.5 23.5t-94.5 12v76h467v-77q-58 -5 -89 -12t-49.5 -23t-23.5 -37t-5 -61l-6 -691
q-2 -266 -161.5 -419.5t-430.5 -153.5q-111 0 -212 34.5t-182.5 101t-129.5 174.5t-48 243v727z" />
    <glyph glyph-name="udieresismacron" unicode="&#x1d6;" horiz-adv-x="1245" 
d="M347 1483v106h534v-106h-534zM453 1156h-8q-38 0 -63.5 25t-25.5 62t26 62.5t63 25.5h8q37 0 63 -25.5t26 -62.5t-25.5 -62t-63.5 -25zM783 1156h-8q-38 0 -63.5 25t-25.5 62t26 62.5t63 25.5h8q37 0 63 -25.5t26 -62.5t-25.5 -62t-63.5 -25zM382 1012v-649
q0 -126 63 -193t177 -67q77 0 135.5 31.5t88.5 81.5v588q0 41 -12 56t-54 25l-81 19v67l345 41v-814q0 -41 12 -56.5t56 -25.5l79 -19v-66l-341 -42v152q-46 -74 -129.5 -118.5t-193.5 -44.5q-155 0 -248.5 87.5t-93.5 242.5v496q0 41 -12 56t-55 25l-80 19v67z" />
    <glyph glyph-name="Udieresisacute" unicode="&#x1d7;" horiz-adv-x="1576" 
d="M1109 1836l-547 -76v70l547 125v-119zM683 1549h-9q-36 0 -60.5 21.5t-24.5 52.5t24.5 52.5t60.5 21.5h9q35 0 59.5 -21.5t24.5 -52.5t-24.5 -52.5t-59.5 -21.5zM996 1549h-9q-35 0 -59.5 21.5t-24.5 52.5t24.5 52.5t59.5 21.5h9q36 0 60 -21.5t24 -52.5q0 -32 -24 -53
t-60 -21zM203 1250q0 66 -28.5 87t-138.5 31v76h558v-76q-82 -7 -117.5 -19t-46.5 -33.5t-11 -69.5v-699q0 -207 118 -321t303 -114q196 0 305 115t108 335l-5 671q0 41 -5 62t-24 37.5t-51.5 23.5t-94.5 12v76h467v-77q-58 -5 -89 -12t-49.5 -23t-23.5 -37t-5 -61l-6 -691
q-2 -266 -161.5 -419.5t-430.5 -153.5q-111 0 -212 34.5t-182.5 101t-129.5 174.5t-48 243v727z" />
    <glyph glyph-name="udieresisacute" unicode="&#x1d8;" horiz-adv-x="1245" 
d="M881 1521l-534 -89v83l534 146v-140zM453 1156h-8q-38 0 -63.5 25t-25.5 62t26 62.5t63 25.5h8q37 0 63 -25.5t26 -62.5t-25.5 -62t-63.5 -25zM783 1156h-8q-38 0 -63.5 25t-25.5 62t26 62.5t63 25.5h8q37 0 63 -25.5t26 -62.5t-25.5 -62t-63.5 -25zM382 1012v-649
q0 -126 63 -193t177 -67q77 0 135.5 31.5t88.5 81.5v588q0 41 -12 56t-54 25l-81 19v67l345 41v-814q0 -41 12 -56.5t56 -25.5l79 -19v-66l-341 -42v152q-46 -74 -129.5 -118.5t-193.5 -44.5q-155 0 -248.5 87.5t-93.5 242.5v496q0 41 -12 56t-55 25l-80 19v67z" />
    <glyph glyph-name="Udieresiscaron" unicode="&#x1d9;" horiz-adv-x="1576" 
d="M1109 1959l-1 -69l-247 -134h-51l-249 134v69l274 -93zM683 1549h-9q-36 0 -60.5 21.5t-24.5 52.5t24.5 52.5t60.5 21.5h9q35 0 59.5 -21.5t24.5 -52.5t-24.5 -52.5t-59.5 -21.5zM996 1549h-9q-35 0 -59.5 21.5t-24.5 52.5t24.5 52.5t59.5 21.5h9q36 0 60 -21.5t24 -52.5
q0 -32 -24 -53t-60 -21zM203 1250q0 66 -28.5 87t-138.5 31v76h558v-76q-82 -7 -117.5 -19t-46.5 -33.5t-11 -69.5v-699q0 -207 118 -321t303 -114q196 0 305 115t108 335l-5 671q0 41 -5 62t-24 37.5t-51.5 23.5t-94.5 12v76h467v-77q-58 -5 -89 -12t-49.5 -23t-23.5 -37
t-5 -61l-6 -691q-2 -266 -161.5 -419.5t-430.5 -153.5q-111 0 -212 34.5t-182.5 101t-129.5 174.5t-48 243v727z" />
    <glyph glyph-name="udieresiscaron" unicode="&#x1da;" horiz-adv-x="1245" 
d="M881 1677v-83l-241 -165h-50l-243 165v83l267 -113zM453 1156h-8q-38 0 -63.5 25t-25.5 62t26 62.5t63 25.5h8q37 0 63 -25.5t26 -62.5t-25.5 -62t-63.5 -25zM783 1156h-8q-38 0 -63.5 25t-25.5 62t26 62.5t63 25.5h8q37 0 63 -25.5t26 -62.5t-25.5 -62t-63.5 -25z
M382 1012v-649q0 -126 63 -193t177 -67q77 0 135.5 31.5t88.5 81.5v588q0 41 -12 56t-54 25l-81 19v67l345 41v-814q0 -41 12 -56.5t56 -25.5l79 -19v-66l-341 -42v152q-46 -74 -129.5 -118.5t-193.5 -44.5q-155 0 -248.5 87.5t-93.5 242.5v496q0 41 -12 56t-55 25l-80 19
v67z" />
    <glyph glyph-name="Udieresisgrave" unicode="&#x1db;" horiz-adv-x="1576" 
d="M561 1836v119l547 -125v-70zM683 1549h-9q-36 0 -60.5 21.5t-24.5 52.5t24.5 52.5t60.5 21.5h9q35 0 59.5 -21.5t24.5 -52.5t-24.5 -52.5t-59.5 -21.5zM996 1549h-9q-35 0 -59.5 21.5t-24.5 52.5t24.5 52.5t59.5 21.5h9q36 0 60 -21.5t24 -52.5q0 -32 -24 -53t-60 -21z
M203 1250q0 66 -28.5 87t-138.5 31v76h558v-76q-82 -7 -117.5 -19t-46.5 -33.5t-11 -69.5v-699q0 -207 118 -321t303 -114q196 0 305 115t108 335l-5 671q0 41 -5 62t-24 37.5t-51.5 23.5t-94.5 12v76h467v-77q-58 -5 -89 -12t-49.5 -23t-23.5 -37t-5 -61l-6 -691
q-2 -266 -161.5 -419.5t-430.5 -153.5q-111 0 -212 34.5t-182.5 101t-129.5 174.5t-48 243v727z" />
    <glyph glyph-name="udieresisgrave" unicode="&#x1dc;" horiz-adv-x="1245" 
d="M347 1521v140l534 -146v-83zM453 1156h-8q-38 0 -63.5 25t-25.5 62t26 62.5t63 25.5h8q37 0 63 -25.5t26 -62.5t-25.5 -62t-63.5 -25zM783 1156h-8q-38 0 -63.5 25t-25.5 62t26 62.5t63 25.5h8q37 0 63 -25.5t26 -62.5t-25.5 -62t-63.5 -25zM382 1012v-649
q0 -126 63 -193t177 -67q77 0 135.5 31.5t88.5 81.5v588q0 41 -12 56t-54 25l-81 19v67l345 41v-814q0 -41 12 -56.5t56 -25.5l79 -19v-66l-341 -42v152q-46 -74 -129.5 -118.5t-193.5 -44.5q-155 0 -248.5 87.5t-93.5 242.5v496q0 41 -12 56t-55 25l-80 19v67z" />
    <glyph glyph-name="Adieresismacron" unicode="&#x1de;" horiz-adv-x="1448" 
d="M447 1812v91h547v-91h-547zM569 1549h-9q-36 0 -60.5 21.5t-24.5 52.5t24.5 52.5t60.5 21.5h9q35 0 59.5 -21.5t24.5 -52.5t-24.5 -52.5t-59.5 -21.5zM882 1549h-9q-35 0 -59.5 21.5t-24.5 52.5t24.5 52.5t59.5 21.5h9q36 0 60 -21.5t24 -52.5q0 -32 -24 -53t-60 -21z
M1244 267q42 -113 79.5 -146.5t132.5 -44.5v-76h-571v76q122 15 145.5 49t-14.5 143l-82 232h-522l-81 -232q-38 -110 -14.5 -143.5t145.5 -48.5v-76h-470v76q100 11 135.5 44t80.5 153l432 1171h170zM445 594h456l-230 651z" />
    <glyph glyph-name="adieresismacron" unicode="&#x1df;" horiz-adv-x="1105" 
d="M253 1483v106h534v-106h-534zM359 1156h-8q-38 0 -63.5 25t-25.5 62t26 62.5t63 25.5h8q37 0 63 -25.5t26 -62.5t-25.5 -62t-63.5 -25zM689 1156h-8q-38 0 -63.5 25t-25.5 62t26 62.5t63 25.5h8q37 0 63 -25.5t26 -62.5t-25.5 -62t-63.5 -25zM392 -22q-128 0 -213 72
t-85 183q0 123 90.5 198t292.5 119l238 52v79q0 238 -243 238q-103 0 -172 -39q24 -14 39 -39.5t15 -55.5q0 -46 -32.5 -76t-81.5 -30t-82 31.5t-33 79.5q0 102 121.5 167.5t293.5 65.5q175 0 272 -78t97 -235v-498q0 -63 30.5 -92t79.5 -29q37 0 58 10v-70
q-69 -47 -162 -47q-76 0 -126.5 36t-66.5 103q-47 -62 -136 -103.5t-194 -41.5zM294 268q0 -80 54 -127t141 -47q72 0 131.5 28.5t94.5 78.5v310l-153 -33q-145 -32 -206.5 -80.5t-61.5 -129.5z" />
    <glyph glyph-name="Adotmacron" unicode="&#x1e0;" horiz-adv-x="1448" 
d="M447 1789v91h547v-91h-547zM721 1542q-39 0 -66 24t-27 58t27 57.5t66 23.5t66 -23.5t27 -57.5t-27 -58t-66 -24zM1244 267q42 -113 79.5 -146.5t132.5 -44.5v-76h-571v76q122 15 145.5 49t-14.5 143l-82 232h-522l-81 -232q-38 -110 -14.5 -143.5t145.5 -48.5v-76h-470
v76q100 11 135.5 44t80.5 153l432 1171h170zM445 594h456l-230 651z" />
    <glyph glyph-name="adotmacron" unicode="&#x1e1;" horiz-adv-x="1105" 
d="M253 1470v107h534v-107h-534zM520 1158q-41 0 -69.5 27.5t-28.5 67.5t28.5 68t69.5 28t69.5 -28t28.5 -68t-28.5 -67.5t-69.5 -27.5zM392 -22q-128 0 -213 72t-85 183q0 123 90.5 198t292.5 119l238 52v79q0 238 -243 238q-103 0 -172 -39q24 -14 39 -39.5t15 -55.5
q0 -46 -32.5 -76t-81.5 -30t-82 31.5t-33 79.5q0 102 121.5 167.5t293.5 65.5q175 0 272 -78t97 -235v-498q0 -63 30.5 -92t79.5 -29q37 0 58 10v-70q-69 -47 -162 -47q-76 0 -126.5 36t-66.5 103q-47 -62 -136 -103.5t-194 -41.5zM294 268q0 -80 54 -127t141 -47
q72 0 131.5 28.5t94.5 78.5v310l-153 -33q-145 -32 -206.5 -80.5t-61.5 -129.5z" />
    <glyph glyph-name="AEmacron" unicode="&#x1e2;" horiz-adv-x="1988" 
d="M1009 1631v119h530v-119h-530zM1835 1444l16 -360h-70q-19 81 -44 129.5t-68 78t-98 40.5t-145 15l-234 9l7 -572h247q36 0 55.5 14t35.5 56.5t33 132.5h66l5 -495h-66q-24 127 -48.5 165.5t-78.5 38.5h-248l7 -608l230 9q53 2 88.5 4.5t72.5 7t60.5 12.5t48 19t39.5 28
t30 38t25 51.5t18.5 65.5t16.5 82h70l-11 -405h-1063v76q78 7 112 18.5t45 32.5t10 67l-4 375h-483l-153 -308q-48 -98 -27.5 -134.5t131.5 -50.5v-76h-479v76q100 10 143 41.5t97 138.5l608 1188h1003zM903 1356l-344 -692h435l-8 692h-83z" />
    <glyph glyph-name="aemacron" unicode="&#x1e3;" horiz-adv-x="1672" 
d="M532 1269v130h588v-130h-588zM396 -22q-133 0 -217.5 71.5t-84.5 190.5q0 126 100.5 207t308.5 118l210 37v62q0 125 -64.5 190t-179.5 65q-94 0 -162 -34q45 -30 45 -85q0 -48 -33 -81t-82 -33t-81.5 32.5t-32.5 80.5q0 92 111 158t280 66q235 0 314 -155
q121 155 331 155q197 0 304 -113t107 -312q0 -35 -3 -68h-675q6 -195 116 -311t287 -116q76 0 147.5 26t115.5 70v-76q-53 -65 -149.5 -105t-217.5 -40q-139 0 -259 72t-177 196q-31 -126 -127.5 -197t-231.5 -71zM1155 919q-106 0 -176 -75.5t-84 -225.5h485v1
q0 300 -225 300zM473 94q104 0 172 72t68 210v140l-137 -26q-160 -30 -223.5 -82.5t-63.5 -136.5q0 -83 49 -130t135 -47z" />
    <glyph glyph-name="Gcaron" unicode="&#x1e6;" horiz-adv-x="1566" 
d="M1025 1849h91l-214 -280h-135l-214 280h96l186 -152zM107 723q0 173 57.5 315t158 237t237 147t294.5 52q159 0 285 -32t196 -83l12 -306h-70q-42 168 -140 240t-262 72q-248 0 -387.5 -169t-139.5 -447q0 -296 148.5 -483t379.5 -187q184 0 286 70v342q0 30 -3.5 45.5
t-12.5 29t-33 20.5t-56.5 12t-91.5 10v75h577v-75q-65 -6 -97 -11.5t-52.5 -19.5t-24.5 -32t-4 -55v-387q-86 -59 -224 -96t-286 -37q-149 0 -284 52t-238 147t-164 238.5t-61 315.5z" />
    <glyph glyph-name="gcaron" unicode="&#x1e7;" horiz-adv-x="1145" 
d="M767 1527h95l-238 -364h-130l-238 364h99l203 -203zM115 671q0 155 123.5 253.5t307.5 98.5q123 0 212 -41l363 19v-105l-256 12q48 -34 76.5 -96t28.5 -131q0 -105 -59.5 -186t-154.5 -122t-205 -41q-50 0 -123 12q-122 -39 -122 -119q0 -97 156 -97h249
q172 0 267.5 -69t95.5 -195q0 -154 -145 -254t-376 -100q-228 0 -355.5 72t-127.5 190q0 76 68 132t197 83q-86 7 -141 51.5t-55 114.5q0 139 213 214q-106 29 -171.5 109.5t-65.5 194.5zM316 683q0 -120 66.5 -188.5t168.5 -68.5q93 0 156 69.5t63 175.5q0 119 -62.5 188.5
t-171.5 69.5q-98 0 -159 -69.5t-61 -176.5zM249 -198q0 -84 82.5 -136t228.5 -52q154 0 246 56.5t92 145.5q0 149 -226 149h-264q-76 -14 -117.5 -57t-41.5 -106z" />
    <glyph glyph-name="Kcaron" unicode="&#x1e8;" horiz-adv-x="1386" 
d="M949 1849h91l-214 -280h-135l-214 280h96l186 -152zM460 194q0 -66 28.5 -87t138.5 -31v-76h-558v76q82 7 117.5 19t46.5 33.5t11 69.5v1048q0 48 -11 69.5t-46.5 33.5t-117.5 19v76h558v-77q-110 -10 -138.5 -31t-28.5 -87v-455h181l320 392q79 99 63 136t-143 46v76
h502v-76q-94 -16 -152.5 -58t-172.5 -172l-257 -290l322 -497q100 -153 154.5 -209t116.5 -72v-70h-298l-453 705h-183v-511z" />
    <glyph glyph-name="kcaron" unicode="&#x1e9;" horiz-adv-x="1140" 
d="M507 1851h91l-214 -280h-135l-214 280h96l186 -152zM872 0l-313 506h-149v-347q0 -44 23.5 -58.5t114.5 -24.5v-76h-482v76q96 10 121.5 25.5t25.5 61.5v1114q0 41 -12 56.5t-55 25.5l-80 19v66l344 42v-890h148l182 192q47 49 55 75.5t-17 40t-93 21.5v76h437v-76
q-78 -11 -136.5 -47t-193.5 -161l-95 -88l238 -379q57 -91 102 -129t103 -51v-70h-268z" />
    <glyph glyph-name="Oogonek" unicode="&#x1ea;" horiz-adv-x="1671" 
d="M107 722q0 209 89 379.5t257.5 271.5t385.5 101q138 0 268 -52.5t232 -146.5t164 -238.5t62 -314.5q0 -150 -48 -283t-135 -233t-215 -162.5t-281 -71.5q-51 -76 -51 -176q0 -77 37 -126t96 -49q53 0 87 27v-76q-27 -27 -74 -44.5t-103 -17.5q-89 0 -148.5 53.5
t-59.5 143.5q0 130 136 263q-135 5 -260 59.5t-223 148.5t-157 236t-59 308zM348 742q0 -178 59.5 -327.5t176 -242.5t267.5 -93q122 0 214.5 49.5t147.5 137t82.5 197.5t27.5 239q0 178 -59.5 327.5t-176 242.5t-267.5 93q-98 0 -177 -33t-133.5 -90t-91.5 -136.5
t-53.5 -170t-16.5 -193.5z" />
    <glyph glyph-name="oogonek" unicode="&#x1eb;" horiz-adv-x="1223" 
d="M659 -490q-81 0 -139 53.5t-58 139.5q0 139 133 275q-212 3 -352.5 148.5t-140.5 369.5q0 231 147 379t370 148q216 0 359 -146t143 -372q0 -210 -123.5 -353t-317.5 -169q-49 -87 -49 -189q0 -81 35 -127t88 -46q57 0 93 31v-76q-28 -29 -78 -47.5t-110 -18.5zM619 82
q136 0 212 107.5t76 295.5q0 197 -85.5 315.5t-218.5 118.5q-136 0 -212 -107.5t-76 -295.5q0 -197 85.5 -315.5t218.5 -118.5z" />
    <glyph glyph-name="Oogonekmacron" unicode="&#x1ec;" horiz-adv-x="1671" 
d="M561 1631v119h530v-119h-530zM107 722q0 209 89 379.5t257.5 271.5t385.5 101q138 0 268 -52.5t232 -146.5t164 -238.5t62 -314.5q0 -150 -48 -283t-135 -233t-215 -162.5t-281 -71.5q-51 -76 -51 -176q0 -77 37 -126t96 -49q53 0 87 27v-76q-27 -27 -74 -44.5
t-103 -17.5q-89 0 -148.5 53.5t-59.5 143.5q0 130 136 263q-135 5 -260 59.5t-223 148.5t-157 236t-59 308zM348 742q0 -178 59.5 -327.5t176 -242.5t267.5 -93q122 0 214.5 49.5t147.5 137t82.5 197.5t27.5 239q0 178 -59.5 327.5t-176 242.5t-267.5 93q-98 0 -177 -33
t-133.5 -90t-91.5 -136.5t-53.5 -170t-16.5 -193.5z" />
    <glyph glyph-name="oogonekmacron" unicode="&#x1ed;" horiz-adv-x="1223" 
d="M315 1269v130h588v-130h-588zM659 -490q-81 0 -139 53.5t-58 139.5q0 139 133 275q-212 3 -352.5 148.5t-140.5 369.5q0 231 147 379t370 148q216 0 359 -146t143 -372q0 -210 -123.5 -353t-317.5 -169q-49 -87 -49 -189q0 -81 35 -127t88 -46q57 0 93 31v-76
q-28 -29 -78 -47.5t-110 -18.5zM619 82q136 0 212 107.5t76 295.5q0 197 -85.5 315.5t-218.5 118.5q-136 0 -212 -107.5t-76 -295.5q0 -197 85.5 -315.5t218.5 -118.5z" />
    <glyph glyph-name="uni01F1" unicode="&#x1f1;" horiz-adv-x="2818" 
d="M1465 744q0 -167 -65.5 -309t-175.5 -236t-254.5 -146.5t-302.5 -52.5h-598v76q82 7 117.5 19t46.5 33.5t11 69.5v1048q0 48 -11 69.5t-46.5 33.5t-117.5 19v76h596q227 0 407.5 -82t286.5 -242.5t106 -375.5zM2726 0h-1091v70l846 1286l-414 -12q-100 -3 -156.5 -13
t-96.5 -40.5t-58.5 -76.5t-34.5 -130h-70l12 360h1064v-70l-847 -1286l369 12q58 2 96.5 4.5t79.5 9t67 15.5t53 25t44 37.5t33.5 52.5t28 70.5t21.5 90.5h70zM1227 728q0 278 -166.5 446t-445.5 177l-155 5v-1268l155 5q281 9 446.5 178.5t165.5 456.5z" />
    <glyph glyph-name="uni01F2" unicode="&#x1f2;" horiz-adv-x="2521" 
d="M1465 744q0 -167 -65.5 -309t-175.5 -236t-254.5 -146.5t-302.5 -52.5h-598v76q82 7 117.5 19t46.5 33.5t11 69.5v1048q0 48 -11 69.5t-46.5 33.5t-117.5 19v76h596q227 0 407.5 -82t286.5 -242.5t106 -375.5zM1227 728q0 278 -166.5 446t-445.5 177l-155 5v-1268l155 5
q281 9 446.5 178.5t165.5 456.5zM1646 1001h796v-69l-581 -846l299 10q51 2 82 9.5t59.5 30t46 65t32.5 111.5h70l-8 -312h-812v69l573 846l-259 -9q-60 -2 -94 -9.5t-62.5 -29.5t-45.5 -59t-34 -103h-70z" />
    <glyph glyph-name="uni01F3" unicode="&#x1f3;" horiz-adv-x="2207" 
d="M102 488q0 235 136.5 385t339.5 150q81 0 151 -28t117 -74v356q0 41 -12 56.5t-54 25.5l-81 19v66l345 42v-1288q0 -41 12.5 -56.5t56.5 -25.5l78 -19v-66l-340 -42v163q-41 -78 -134.5 -126t-203.5 -48q-83 0 -157 35t-131 99t-90 161.5t-33 214.5zM1332 1001h796v-69
l-581 -846l299 10q51 2 82 9.5t59.5 30t46 65t32.5 111.5h70l-8 -312h-812v69l573 846l-259 -9q-60 -2 -94 -9.5t-62.5 -29.5t-45.5 -59t-34 -103h-70zM307 506q0 -187 83 -295t223 -108q79 0 140.5 31.5t92.5 88.5v590q-26 45 -87 75t-140 30q-138 0 -225 -111.5
t-87 -300.5z" />
    <glyph glyph-name="Gacute" unicode="&#x1f4;" horiz-adv-x="1566" 
d="M806 1570h-93l169 280h217v-9zM107 723q0 173 57.5 315t158 237t237 147t294.5 52q159 0 285 -32t196 -83l12 -306h-70q-42 168 -140 240t-262 72q-248 0 -387.5 -169t-139.5 -447q0 -296 148.5 -483t379.5 -187q184 0 286 70v342q0 30 -3.5 45.5t-12.5 29t-33 20.5
t-56.5 12t-91.5 10v75h577v-75q-65 -6 -97 -11.5t-52.5 -19.5t-24.5 -32t-4 -55v-387q-86 -59 -224 -96t-286 -37q-149 0 -284 52t-238 147t-164 238.5t-61 315.5z" />
    <glyph glyph-name="gacute" unicode="&#x1f5;" horiz-adv-x="1145" 
d="M529 1165h-95l191 364h219v-12zM115 671q0 155 123.5 253.5t307.5 98.5q123 0 212 -41l363 19v-105l-256 12q48 -34 76.5 -96t28.5 -131q0 -105 -59.5 -186t-154.5 -122t-205 -41q-50 0 -123 12q-122 -39 -122 -119q0 -97 156 -97h249q172 0 267.5 -69t95.5 -195
q0 -154 -145 -254t-376 -100q-228 0 -355.5 72t-127.5 190q0 76 68 132t197 83q-86 7 -141 51.5t-55 114.5q0 139 213 214q-106 29 -171.5 109.5t-65.5 194.5zM316 683q0 -120 66.5 -188.5t168.5 -68.5q93 0 156 69.5t63 175.5q0 119 -62.5 188.5t-171.5 69.5
q-98 0 -159 -69.5t-61 -176.5zM249 -198q0 -84 82.5 -136t228.5 -52q154 0 246 56.5t92 145.5q0 149 -226 149h-264q-76 -14 -117.5 -57t-41.5 -106z" />
    <glyph glyph-name="Ngrave" unicode="&#x1f8;" horiz-adv-x="1580" 
d="M835 1570l-296 271v9h226l163 -280h-93zM418 1444l850 -1232l-20 1018q0 43 -5 65t-24.5 38t-51.5 22.5t-93 12.5v76h467v-76q-59 -7 -89.5 -14.5t-48.5 -24t-23 -37t-5 -61.5l-7 -1231h-209l-848 1229l20 -1015q1 -56 13 -81t46.5 -37.5t115.5 -19.5v-76h-468v76
q78 9 111.5 22.5t44.5 37.5t11 77l4 1011q0 43 -4.5 65.5t-23.5 40t-50 25t-89 13.5v76h376z" />
    <glyph glyph-name="ngrave" unicode="&#x1f9;" horiz-adv-x="1281" 
d="M679 1165l-318 352v12h227l186 -364h-95zM405 1012v-152q46 73 132.5 118t198.5 45q158 0 253.5 -85.5t95.5 -236.5v-538q0 -46 25 -61.5t122 -25.5v-76h-482v76q90 10 113.5 24.5t23.5 58.5v487q0 121 -63.5 186.5t-175.5 65.5q-83 0 -145 -31.5t-93 -81.5v-626
q0 -44 23.5 -58.5t114.5 -24.5v-76h-482v76q96 10 121.5 25.5t25.5 61.5v641q0 41 -12 56t-55 25l-80 19v67z" />
    <glyph glyph-name="Aringacute" unicode="&#x1fa;" horiz-adv-x="1448" 
d="M995 1820l-547 -76v70l547 125v-119zM761 1502h-81q-83 0 -133 29t-50 77t50 76.5t133 28.5h81q84 0 133.5 -28.5t49.5 -76.5t-49.5 -77t-133.5 -29zM756 1565q63 0 63 43q0 42 -63 42h-71q-30 0 -46.5 -11.5t-16.5 -30.5q0 -20 16.5 -31.5t46.5 -11.5h71zM1244 267
q42 -113 79.5 -146.5t132.5 -44.5v-76h-571v76q122 15 145.5 49t-14.5 143l-82 232h-522l-81 -232q-38 -110 -14.5 -143.5t145.5 -48.5v-76h-470v76q100 11 135.5 44t80.5 153l432 1171h170zM445 594h456l-230 651z" />
    <glyph glyph-name="aringacute" unicode="&#x1fb;" horiz-adv-x="1105" 
d="M787 1524l-534 -89v83l534 146v-140zM562 1105h-85q-87 0 -139.5 38.5t-52.5 102.5t52.5 102.5t139.5 38.5h85q89 0 140.5 -38.5t51.5 -102.5t-51.5 -102.5t-140.5 -38.5zM557 1189q32 0 49 15.5t17 41.5t-17 41.5t-49 15.5h-75q-31 0 -48.5 -16t-17.5 -41t17.5 -41
t48.5 -16h75zM392 -22q-128 0 -213 72t-85 183q0 123 90.5 198t292.5 119l238 52v79q0 238 -243 238q-103 0 -172 -39q24 -14 39 -39.5t15 -55.5q0 -46 -32.5 -76t-81.5 -30t-82 31.5t-33 79.5q0 102 121.5 167.5t293.5 65.5q175 0 272 -78t97 -235v-498q0 -63 30.5 -92
t79.5 -29q37 0 58 10v-70q-69 -47 -162 -47q-76 0 -126.5 36t-66.5 103q-47 -62 -136 -103.5t-194 -41.5zM294 268q0 -80 54 -127t141 -47q72 0 131.5 28.5t94.5 78.5v310l-153 -33q-145 -32 -206.5 -80.5t-61.5 -129.5z" />
    <glyph glyph-name="AEacute" unicode="&#x1fc;" horiz-adv-x="1988" 
d="M1254 1570h-93l169 280h217v-9zM1835 1444l16 -360h-70q-19 81 -44 129.5t-68 78t-98 40.5t-145 15l-234 9l7 -572h247q36 0 55.5 14t35.5 56.5t33 132.5h66l5 -495h-66q-24 127 -48.5 165.5t-78.5 38.5h-248l7 -608l230 9q53 2 88.5 4.5t72.5 7t60.5 12.5t48 19t39.5 28
t30 38t25 51.5t18.5 65.5t16.5 82h70l-11 -405h-1063v76q78 7 112 18.5t45 32.5t10 67l-4 375h-483l-153 -308q-48 -98 -27.5 -134.5t131.5 -50.5v-76h-479v76q100 10 143 41.5t97 138.5l608 1188h1003zM903 1356l-344 -692h435l-8 692h-83z" />
    <glyph glyph-name="aeacute" unicode="&#x1fd;" horiz-adv-x="1672" 
d="M796 1165h-95l191 364h219v-12zM396 -22q-133 0 -217.5 71.5t-84.5 190.5q0 126 100.5 207t308.5 118l210 37v62q0 125 -64.5 190t-179.5 65q-94 0 -162 -34q45 -30 45 -85q0 -48 -33 -81t-82 -33t-81.5 32.5t-32.5 80.5q0 92 111 158t280 66q235 0 314 -155
q121 155 331 155q197 0 304 -113t107 -312q0 -35 -3 -68h-675q6 -195 116 -311t287 -116q76 0 147.5 26t115.5 70v-76q-53 -65 -149.5 -105t-217.5 -40q-139 0 -259 72t-177 196q-31 -126 -127.5 -197t-231.5 -71zM1155 919q-106 0 -176 -75.5t-84 -225.5h485v1
q0 300 -225 300zM473 94q104 0 172 72t68 210v140l-137 -26q-160 -30 -223.5 -82.5t-63.5 -136.5q0 -83 49 -130t135 -47z" />
    <glyph glyph-name="Oslashacute" unicode="&#x1fe;" horiz-adv-x="1671" 
d="M806 1570h-93l169 280h217v-9zM107 722q0 209 89 379.5t257.5 271.5t385.5 101q254 0 453 -159l127 144l73 -65l-128 -145q201 -211 201 -527q0 -156 -52.5 -293.5t-146 -239t-232 -160.5t-302.5 -59q-122 0 -239.5 41t-213.5 118l-126 -144l-74 66l128 145
q-200 212 -200 526zM348 742q0 -223 92 -395l736 836q-140 182 -356 182q-98 0 -177 -33t-133.5 -90t-91.5 -136.5t-53.5 -170t-16.5 -193.5zM1323 702q0 223 -92 395l-735 -836q140 -182 355 -182q122 0 214.5 49.5t147.5 137t82.5 197.5t27.5 239z" />
    <glyph glyph-name="oslashacute" unicode="&#x1ff;" horiz-adv-x="1217" 
d="M577 1164h-95l191 364h219v-12zM601 -22q-174 0 -303 98l-84 -95l-70 63l85 96q-127 143 -127 355q0 152 67.5 273t185 187t262.5 66q173 0 305 -99l87 98l71 -63l-89 -100q125 -144 125 -353q0 -152 -67.5 -273t-185 -187t-262.5 -66zM310 515q0 -135 42 -236l466 526
q-84 114 -217 114q-137 0 -214 -107.5t-77 -296.5zM617 80q137 0 214 107.5t77 296.5q0 130 -41 233l-466 -525q86 -112 216 -112z" />
    <glyph glyph-name="Adblgrave" unicode="&#x200;" horiz-adv-x="1448" 
d="M506 1850l161 -280h-97l-252 271v9h188zM848 1850l88 -280h-94l-170 271v9h176zM1244 267q42 -113 79.5 -146.5t132.5 -44.5v-76h-571v76q122 15 145.5 49t-14.5 143l-82 232h-522l-81 -232q-38 -110 -14.5 -143.5t145.5 -48.5v-76h-470v76q100 11 135.5 44t80.5 153
l432 1171h170zM445 594h456l-230 651z" />
    <glyph glyph-name="adblgrave" unicode="&#x201;" horiz-adv-x="1105" 
d="M262 1529l180 -364h-97l-273 352v12h190zM631 1529l106 -364h-95l-191 352v12h180zM392 -22q-128 0 -213 72t-85 183q0 123 90.5 198t292.5 119l238 52v79q0 238 -243 238q-103 0 -172 -39q24 -14 39 -39.5t15 -55.5q0 -46 -32.5 -76t-81.5 -30t-82 31.5t-33 79.5
q0 102 121.5 167.5t293.5 65.5q175 0 272 -78t97 -235v-498q0 -63 30.5 -92t79.5 -29q37 0 58 10v-70q-69 -47 -162 -47q-76 0 -126.5 36t-66.5 103q-47 -62 -136 -103.5t-194 -41.5zM294 268q0 -80 54 -127t141 -47q72 0 131.5 28.5t94.5 78.5v310l-153 -33
q-145 -32 -206.5 -80.5t-61.5 -129.5z" />
    <glyph glyph-name="Ainvertedbreve" unicode="&#x202;" horiz-adv-x="1448" 
d="M721 1900q121 0 193.5 -76t72.5 -177q0 -26 -4 -46h-76v11q0 68 -49.5 113.5t-136.5 45.5t-136.5 -45.5t-49.5 -113.5v-11h-76q-4 20 -4 46q0 101 72.5 177t193.5 76zM1244 267q42 -113 79.5 -146.5t132.5 -44.5v-76h-571v76q122 15 145.5 49t-14.5 143l-82 232h-522
l-81 -232q-38 -110 -14.5 -143.5t145.5 -48.5v-76h-470v76q100 11 135.5 44t80.5 153l432 1171h170zM445 594h456l-230 651z" />
    <glyph glyph-name="ainvertedbreve" unicode="&#x203;" horiz-adv-x="1105" 
d="M520 1517q136 0 217 -86t81 -201q0 -29 -4 -52h-86v12q0 75 -55 125.5t-153 50.5t-153 -50.5t-55 -125.5v-12h-86q-4 23 -4 52q0 115 81 201t217 86zM392 -22q-128 0 -213 72t-85 183q0 123 90.5 198t292.5 119l238 52v79q0 238 -243 238q-103 0 -172 -39
q24 -14 39 -39.5t15 -55.5q0 -46 -32.5 -76t-81.5 -30t-82 31.5t-33 79.5q0 102 121.5 167.5t293.5 65.5q175 0 272 -78t97 -235v-498q0 -63 30.5 -92t79.5 -29q37 0 58 10v-70q-69 -47 -162 -47q-76 0 -126.5 36t-66.5 103q-47 -62 -136 -103.5t-194 -41.5zM294 268
q0 -80 54 -127t141 -47q72 0 131.5 28.5t94.5 78.5v310l-153 -33q-145 -32 -206.5 -80.5t-61.5 -129.5z" />
    <glyph glyph-name="Edblgrave" unicode="&#x204;" horiz-adv-x="1299" 
d="M440 1850l161 -280h-97l-252 271v9h188zM782 1850l88 -280h-94l-170 271v9h176zM1156 1444l12 -360h-70q-35 156 -106 207t-246 56l-286 9v-572h299q52 0 75.5 36.5t50.5 166.5h66v-495h-66q-22 127 -46.5 165.5t-79.5 38.5h-299v-608l282 9q80 2 127.5 6.5t94 17
t71 31.5t48 54t37 81.5t26.5 117.5h70l-15 -405h-1132v76q82 7 117.5 19t46.5 33.5t11 69.5v1048q0 48 -11 69.5t-46.5 33.5t-117.5 19v76h1087z" />
    <glyph glyph-name="edblgrave" unicode="&#x205;" horiz-adv-x="1101" 
d="M320 1529l180 -364h-97l-273 352v12h190zM689 1529l106 -364h-95l-191 352v12h180zM102 493q0 234 133 381.5t344 147.5q201 0 310.5 -114.5t109.5 -316.5q0 -42 -3 -69h-692q7 -193 116 -306t287 -113q76 0 148.5 26t119.5 70v-76q-57 -65 -155 -105t-221 -40
q-217 0 -357 139.5t-140 375.5zM576 919q-114 0 -186.5 -77.5t-84.5 -231.5h503v2q0 149 -60 228t-172 79z" />
    <glyph glyph-name="Einvertedbreve" unicode="&#x206;" horiz-adv-x="1299" 
d="M655 1900q121 0 193.5 -76t72.5 -177q0 -26 -4 -46h-76v11q0 68 -49.5 113.5t-136.5 45.5t-136.5 -45.5t-49.5 -113.5v-11h-76q-4 20 -4 46q0 101 72.5 177t193.5 76zM1156 1444l12 -360h-70q-35 156 -106 207t-246 56l-286 9v-572h299q52 0 75.5 36.5t50.5 166.5h66
v-495h-66q-22 127 -46.5 165.5t-79.5 38.5h-299v-608l282 9q80 2 127.5 6.5t94 17t71 31.5t48 54t37 81.5t26.5 117.5h70l-15 -405h-1132v76q82 7 117.5 19t46.5 33.5t11 69.5v1048q0 48 -11 69.5t-46.5 33.5t-117.5 19v76h1087z" />
    <glyph glyph-name="einvertedbreve" unicode="&#x207;" horiz-adv-x="1101" 
d="M578 1517q136 0 217 -86t81 -201q0 -29 -4 -52h-86v12q0 75 -55 125.5t-153 50.5t-153 -50.5t-55 -125.5v-12h-86q-4 23 -4 52q0 115 81 201t217 86zM102 493q0 234 133 381.5t344 147.5q201 0 310.5 -114.5t109.5 -316.5q0 -42 -3 -69h-692q7 -193 116 -306t287 -113
q76 0 148.5 26t119.5 70v-76q-57 -65 -155 -105t-221 -40q-217 0 -357 139.5t-140 375.5zM576 919q-114 0 -186.5 -77.5t-84.5 -231.5h503v2q0 149 -60 228t-172 79z" />
    <glyph glyph-name="Idblgrave" unicode="&#x208;" horiz-adv-x="704" 
d="M137 1850l161 -280h-97l-252 271v9h188zM479 1850l88 -280h-94l-170 271v9h176zM460 198q0 -48 11 -69.5t46.5 -33.5t117.5 -19v-76h-566v76q82 7 117.5 19t46.5 33.5t11 69.5v1048q0 48 -11 69.5t-46.5 33.5t-117.5 19v76h566v-76q-82 -7 -117.5 -19t-46.5 -33.5
t-11 -69.5v-1048z" />
    <glyph glyph-name="idblgrave" unicode="&#x209;" horiz-adv-x="611" 
d="M32 1529l180 -364h-97l-273 352v12h190zM401 1529l106 -364h-95l-191 352v12h180zM410 1012v-849q0 -46 25.5 -61.5t121.5 -25.5v-76h-491v76q96 10 121.5 25.5t25.5 61.5v641q0 41 -12 56t-55 25l-80 19v67z" />
    <glyph glyph-name="Iinvertedbreve" unicode="&#x20a;" horiz-adv-x="704" 
d="M352 1900q121 0 193.5 -76t72.5 -177q0 -26 -4 -46h-76v11q0 68 -49.5 113.5t-136.5 45.5t-136.5 -45.5t-49.5 -113.5v-11h-76q-4 20 -4 46q0 101 72.5 177t193.5 76zM460 198q0 -48 11 -69.5t46.5 -33.5t117.5 -19v-76h-566v76q82 7 117.5 19t46.5 33.5t11 69.5v1048
q0 48 -11 69.5t-46.5 33.5t-117.5 19v76h566v-76q-82 -7 -117.5 -19t-46.5 -33.5t-11 -69.5v-1048z" />
    <glyph glyph-name="iinvertedbreve" unicode="&#x20b;" horiz-adv-x="611" 
d="M290 1517q123 0 195.5 -86t72.5 -201q0 -26 -3 -52h-78v12q0 75 -49.5 125.5t-137.5 50.5q-87 0 -137 -50.5t-50 -125.5v-12h-78q-3 26 -3 52q0 115 72.5 201t195.5 86zM410 1012v-849q0 -46 25.5 -61.5t121.5 -25.5v-76h-491v76q96 10 121.5 25.5t25.5 61.5v641
q0 41 -12 56t-55 25l-80 19v67z" />
    <glyph glyph-name="Odblgrave" unicode="&#x20c;" horiz-adv-x="1671" 
d="M611 1850l161 -280h-97l-252 271v9h188zM953 1850l88 -280h-94l-170 271v9h176zM107 722q0 209 89 379.5t257.5 271.5t385.5 101q138 0 268 -52.5t232 -146.5t164 -238.5t62 -314.5q0 -156 -52.5 -293.5t-146 -239t-232 -160.5t-302.5 -59q-110 0 -216 32.5t-197.5 97.5
t-161.5 154t-110 210t-40 258zM348 742q0 -178 59.5 -327.5t176 -242.5t267.5 -93q122 0 214.5 49.5t147.5 137t82.5 197.5t27.5 239q0 178 -59.5 327.5t-176 242.5t-267.5 93q-98 0 -177 -33t-133.5 -90t-91.5 -136.5t-53.5 -170t-16.5 -193.5z" />
    <glyph glyph-name="odblgrave" unicode="&#x20d;" horiz-adv-x="1223" 
d="M351 1529l180 -364h-97l-273 352v12h190zM720 1529l106 -364h-95l-191 352v12h180zM603 -22q-215 0 -358 146t-143 372q0 231 147 379t370 148q216 0 359 -146t143 -372q0 -231 -147.5 -379t-370.5 -148zM619 82q136 0 212 107.5t76 295.5q0 197 -85.5 315.5
t-218.5 118.5q-136 0 -212 -107.5t-76 -295.5q0 -197 85.5 -315.5t218.5 -118.5z" />
    <glyph glyph-name="Oinvertedbreve" unicode="&#x20e;" horiz-adv-x="1671" 
d="M826 1900q121 0 193.5 -76t72.5 -177q0 -26 -4 -46h-76v11q0 68 -49.5 113.5t-136.5 45.5t-136.5 -45.5t-49.5 -113.5v-11h-76q-4 20 -4 46q0 101 72.5 177t193.5 76zM107 722q0 209 89 379.5t257.5 271.5t385.5 101q138 0 268 -52.5t232 -146.5t164 -238.5t62 -314.5
q0 -156 -52.5 -293.5t-146 -239t-232 -160.5t-302.5 -59q-110 0 -216 32.5t-197.5 97.5t-161.5 154t-110 210t-40 258zM348 742q0 -178 59.5 -327.5t176 -242.5t267.5 -93q122 0 214.5 49.5t147.5 137t82.5 197.5t27.5 239q0 178 -59.5 327.5t-176 242.5t-267.5 93
q-98 0 -177 -33t-133.5 -90t-91.5 -136.5t-53.5 -170t-16.5 -193.5z" />
    <glyph glyph-name="oinvertedbreve" unicode="&#x20f;" horiz-adv-x="1223" 
d="M609 1517q136 0 217 -86t81 -201q0 -29 -4 -52h-86v12q0 75 -55 125.5t-153 50.5t-153 -50.5t-55 -125.5v-12h-86q-4 23 -4 52q0 115 81 201t217 86zM603 -22q-215 0 -358 146t-143 372q0 231 147 379t370 148q216 0 359 -146t143 -372q0 -231 -147.5 -379t-370.5 -148z
M619 82q136 0 212 107.5t76 295.5q0 197 -85.5 315.5t-218.5 118.5q-136 0 -212 -107.5t-76 -295.5q0 -197 85.5 -315.5t218.5 -118.5z" />
    <glyph glyph-name="Rdblgrave" unicode="&#x210;" horiz-adv-x="1347" 
d="M429 1850l161 -280h-97l-252 271v9h188zM771 1850l88 -280h-94l-170 271v9h176zM1213 1052q1 -133 -81.5 -227.5t-219.5 -129.5l189 -345q90 -160 139.5 -214t101.5 -66v-70h-273l-353 638h-256v-444q0 -66 28.5 -87t138.5 -31v-76h-558v76q82 7 117.5 19t46.5 33.5
t11 69.5v1048q0 48 -11 69.5t-46.5 33.5t-117.5 19v76h581q274 0 418.5 -103.5t144.5 -288.5zM990 1032q0 307 -405 320l-125 4v-631l151 4q379 11 379 303z" />
    <glyph glyph-name="rdblgrave" unicode="&#x211;" horiz-adv-x="868" 
d="M197 1529l180 -364h-97l-273 352v12h190zM566 1529l106 -364h-95l-191 352v12h180zM405 1012v-205q96 109 169 160.5t140 51.5q57 0 83.5 -31t26.5 -79q0 -47 -19 -71q-35 10 -99 10q-87 0 -172 -29t-124 -74v-570q0 -30 4 -45t22.5 -27t48.5 -17t88 -10v-76h-507v76
q96 10 121.5 25.5t25.5 61.5v641q0 41 -12 56t-55 25l-80 19v67z" />
    <glyph glyph-name="Rinvertedbreve" unicode="&#x212;" horiz-adv-x="1347" 
d="M644 1900q121 0 193.5 -76t72.5 -177q0 -26 -4 -46h-76v11q0 68 -49.5 113.5t-136.5 45.5t-136.5 -45.5t-49.5 -113.5v-11h-76q-4 20 -4 46q0 101 72.5 177t193.5 76zM1213 1052q1 -133 -81.5 -227.5t-219.5 -129.5l189 -345q90 -160 139.5 -214t101.5 -66v-70h-273
l-353 638h-256v-444q0 -66 28.5 -87t138.5 -31v-76h-558v76q82 7 117.5 19t46.5 33.5t11 69.5v1048q0 48 -11 69.5t-46.5 33.5t-117.5 19v76h581q274 0 418.5 -103.5t144.5 -288.5zM990 1032q0 307 -405 320l-125 4v-631l151 4q379 11 379 303z" />
    <glyph glyph-name="rinvertedbreve" unicode="&#x213;" horiz-adv-x="868" 
d="M455 1517q136 0 217 -86t81 -201q0 -29 -4 -52h-86v12q0 75 -55 125.5t-153 50.5t-153 -50.5t-55 -125.5v-12h-86q-4 23 -4 52q0 115 81 201t217 86zM405 1012v-205q96 109 169 160.5t140 51.5q57 0 83.5 -31t26.5 -79q0 -47 -19 -71q-35 10 -99 10q-87 0 -172 -29
t-124 -74v-570q0 -30 4 -45t22.5 -27t48.5 -17t88 -10v-76h-507v76q96 10 121.5 25.5t25.5 61.5v641q0 41 -12 56t-55 25l-80 19v67z" />
    <glyph glyph-name="Udblgrave" unicode="&#x214;" horiz-adv-x="1576" 
d="M620 1850l161 -280h-97l-252 271v9h188zM962 1850l88 -280h-94l-170 271v9h176zM203 1250q0 66 -28.5 87t-138.5 31v76h558v-76q-82 -7 -117.5 -19t-46.5 -33.5t-11 -69.5v-699q0 -207 118 -321t303 -114q196 0 305 115t108 335l-5 671q0 41 -5 62t-24 37.5t-51.5 23.5
t-94.5 12v76h467v-77q-58 -5 -89 -12t-49.5 -23t-23.5 -37t-5 -61l-6 -691q-2 -266 -161.5 -419.5t-430.5 -153.5q-111 0 -212 34.5t-182.5 101t-129.5 174.5t-48 243v727z" />
    <glyph glyph-name="udblgrave" unicode="&#x215;" horiz-adv-x="1245" 
d="M356 1529l180 -364h-97l-273 352v12h190zM725 1529l106 -364h-95l-191 352v12h180zM382 1012v-649q0 -126 63 -193t177 -67q77 0 135.5 31.5t88.5 81.5v588q0 41 -12 56t-54 25l-81 19v67l345 41v-814q0 -41 12 -56.5t56 -25.5l79 -19v-66l-341 -42v152
q-46 -74 -129.5 -118.5t-193.5 -44.5q-155 0 -248.5 87.5t-93.5 242.5v496q0 41 -12 56t-55 25l-80 19v67z" />
    <glyph glyph-name="Uinvertedbreve" unicode="&#x216;" horiz-adv-x="1576" 
d="M835 1900q121 0 193.5 -76t72.5 -177q0 -26 -4 -46h-76v11q0 68 -49.5 113.5t-136.5 45.5t-136.5 -45.5t-49.5 -113.5v-11h-76q-4 20 -4 46q0 101 72.5 177t193.5 76zM203 1250q0 66 -28.5 87t-138.5 31v76h558v-76q-82 -7 -117.5 -19t-46.5 -33.5t-11 -69.5v-699
q0 -207 118 -321t303 -114q196 0 305 115t108 335l-5 671q0 41 -5 62t-24 37.5t-51.5 23.5t-94.5 12v76h467v-77q-58 -5 -89 -12t-49.5 -23t-23.5 -37t-5 -61l-6 -691q-2 -266 -161.5 -419.5t-430.5 -153.5q-111 0 -212 34.5t-182.5 101t-129.5 174.5t-48 243v727z" />
    <glyph glyph-name="uinvertedbreve" unicode="&#x217;" horiz-adv-x="1245" 
d="M614 1517q136 0 217 -86t81 -201q0 -29 -4 -52h-86v12q0 75 -55 125.5t-153 50.5t-153 -50.5t-55 -125.5v-12h-86q-4 23 -4 52q0 115 81 201t217 86zM382 1012v-649q0 -126 63 -193t177 -67q77 0 135.5 31.5t88.5 81.5v588q0 41 -12 56t-54 25l-81 19v67l345 41v-814
q0 -41 12 -56.5t56 -25.5l79 -19v-66l-341 -42v152q-46 -74 -129.5 -118.5t-193.5 -44.5q-155 0 -248.5 87.5t-93.5 242.5v496q0 41 -12 56t-55 25l-80 19v67z" />
    <glyph glyph-name="Scommaaccent" unicode="&#x218;" horiz-adv-x="1188" 
d="M579 -30q-145 0 -270 36t-193 93l-12 305h70q36 -160 148 -242.5t267 -82.5q137 0 218.5 70.5t81.5 183.5q0 107 -67.5 178.5t-210.5 116.5l-111 36q-384 120 -384 412q0 175 137.5 286.5t366.5 111.5q128 0 236 -33.5t164 -81.5l12 -305h-70q-29 158 -122 234.5
t-230 76.5q-143 0 -220.5 -66t-77.5 -176q0 -99 67.5 -160.5t206.5 -105.5l112 -35q200 -64 293.5 -167.5t93.5 -258.5q0 -187 -144.5 -306.5t-361.5 -119.5zM566 -490q-120 0 -187 51v75q61 -34 145 -34q53 0 87.5 23t34.5 64q0 39 -33.5 61.5t-84.5 22.5q-58 0 -92 -17v69
q20 24 63.5 40.5t97.5 16.5q95 0 153.5 -50.5t58.5 -134.5t-66 -135.5t-177 -51.5z" />
    <glyph glyph-name="scommaaccent" unicode="&#x219;" horiz-adv-x="973" 
d="M113 740q0 131 105.5 207t282.5 76q109 0 195.5 -21.5t134.5 -54.5l8 -250h-70q-21 107 -92.5 164.5t-174.5 57.5q-95 0 -152.5 -39.5t-57.5 -107.5q0 -65 50 -102.5t153 -65.5l81 -22q146 -39 222.5 -112t76.5 -193q0 -132 -113.5 -213.5t-280.5 -81.5q-115 0 -213 26
t-158 66l-8 255h70q26 -120 109 -181.5t198 -61.5q99 0 158 44t59 115q0 66 -45.5 106t-152.5 69l-82 22q-146 40 -224.5 111.5t-78.5 186.5zM467 -490q-120 0 -187 51v75q61 -34 145 -34q53 0 87.5 23t34.5 64q0 39 -33.5 61.5t-84.5 22.5q-58 0 -92 -17v69
q20 24 63.5 40.5t97.5 16.5q95 0 153.5 -50.5t58.5 -134.5t-66 -135.5t-177 -51.5z" />
    <glyph glyph-name="Tcommaaccent" unicode="&#x21a;" horiz-adv-x="1379" 
d="M1312 1444l12 -360h-70q-10 58 -22.5 98t-34 70.5t-48 48t-70.5 29.5t-93.5 17t-125.5 7l-63 2v-1145q0 -52 13 -76t52 -37.5t126 -21.5v-76h-597v76q66 6 101.5 13.5t56.5 24t26.5 37.5t5.5 60v1145l-62 -2q-76 -2 -125.5 -7t-93.5 -17t-70.5 -29.5t-48 -48t-34 -70.5
t-22.5 -98h-70l12 360h1245zM678 -490q-120 0 -187 51v75q61 -34 145 -34q53 0 87.5 23t34.5 64q0 39 -33.5 61.5t-84.5 22.5q-58 0 -92 -17v69q20 24 63.5 40.5t97.5 16.5q95 0 153.5 -50.5t58.5 -134.5t-66 -135.5t-177 -51.5z" />
    <glyph glyph-name="tcommaaccent" unicode="&#x21b;" horiz-adv-x="755" 
d="M192 279v617h-137v53l299 238h35v-192l317 6v-105l-317 4v-572q0 -127 47.5 -180.5t131.5 -53.5t155 42v-76q-38 -33 -112.5 -57.5t-145.5 -24.5q-55 0 -101 15t-86 48t-63 94t-23 144zM453 -490q-120 0 -187 51v75q61 -34 145 -34q53 0 87.5 23t34.5 64q0 39 -33.5 61.5
t-84.5 22.5q-58 0 -92 -17v69q20 24 63.5 40.5t97.5 16.5q95 0 153.5 -50.5t58.5 -134.5t-66 -135.5t-177 -51.5z" />
    <glyph glyph-name="Hcaron" unicode="&#x21e;" horiz-adv-x="1662" 
d="M1033 1849h91l-214 -280h-135l-214 280h96l186 -152zM460 194q0 -66 28.5 -87t138.5 -31v-76h-558v76q82 7 117.5 19t46.5 33.5t11 69.5v1048q0 48 -11 69.5t-46.5 33.5t-117.5 19v76h558v-77q-110 -10 -138.5 -31t-28.5 -87v-463h742v464q0 47 -10.5 67.5t-44 32
t-111.5 18.5v76h557v-76q-80 -7 -115.5 -19t-47.5 -33.5t-12 -69.5v-1048q0 -48 12 -69.5t47.5 -33.5t115.5 -19v-76h-557v76q78 7 111.5 18.5t44 32t10.5 67.5v497h-742v-497z" />
    <glyph glyph-name="hcaron" unicode="&#x21f;" horiz-adv-x="1281" 
d="M479 1849h91l-214 -280h-135l-214 280h96l186 -152zM410 1486v-620q46 71 131 114t195 43q158 0 253.5 -85.5t95.5 -236.5v-538q0 -46 25 -61.5t122 -25.5v-76h-482v76q90 10 113.5 24.5t23.5 58.5v487q0 121 -63.5 186.5t-175.5 65.5q-83 0 -145 -31.5t-93 -81.5v-626
q0 -44 23.5 -58.5t114.5 -24.5v-76h-482v76q96 10 121.5 25.5t25.5 61.5v1114q0 41 -12 56.5t-55 25.5l-80 19v66z" />
    <glyph glyph-name="Adotaccent" unicode="&#x226;" horiz-adv-x="1448" 
d="M721 1610q-44 0 -74 29t-30 71q0 43 30 72t74 29t74 -29t30 -72q0 -42 -30 -71t-74 -29zM1244 267q42 -113 79.5 -146.5t132.5 -44.5v-76h-571v76q122 15 145.5 49t-14.5 143l-82 232h-522l-81 -232q-38 -110 -14.5 -143.5t145.5 -48.5v-76h-470v76q100 11 135.5 44
t80.5 153l432 1171h170zM445 594h456l-230 651z" />
    <glyph glyph-name="adotaccent" unicode="&#x227;" horiz-adv-x="1105" 
d="M520 1228q-51 0 -86.5 34t-35.5 85q0 50 35.5 84t86.5 34t86.5 -34t35.5 -84q0 -51 -35.5 -85t-86.5 -34zM392 -22q-128 0 -213 72t-85 183q0 123 90.5 198t292.5 119l238 52v79q0 238 -243 238q-103 0 -172 -39q24 -14 39 -39.5t15 -55.5q0 -46 -32.5 -76t-81.5 -30
t-82 31.5t-33 79.5q0 102 121.5 167.5t293.5 65.5q175 0 272 -78t97 -235v-498q0 -63 30.5 -92t79.5 -29q37 0 58 10v-70q-69 -47 -162 -47q-76 0 -126.5 36t-66.5 103q-47 -62 -136 -103.5t-194 -41.5zM294 268q0 -80 54 -127t141 -47q72 0 131.5 28.5t94.5 78.5v310
l-153 -33q-145 -32 -206.5 -80.5t-61.5 -129.5z" />
    <glyph glyph-name="Ecedilla" unicode="&#x228;" horiz-adv-x="1299" 
d="M641 -490q-134 0 -203 62v76q59 -42 150 -42q54 0 89.5 22.5t35.5 63.5q0 44 -39 66t-103 22q-23 0 -41 -4v72l112 152h-573v76q82 7 117.5 19t46.5 33.5t11 69.5v1048q0 48 -11 69.5t-46.5 33.5t-117.5 19v76h1087l12 -360h-70q-35 156 -106 207t-246 56l-286 9v-572
h299q52 0 75.5 36.5t50.5 166.5h66v-495h-66q-22 127 -46.5 165.5t-79.5 38.5h-299v-608l282 9q80 2 127.5 6.5t94 17t71 31.5t48 54t37 81.5t26.5 117.5h70l-15 -405h-462l-75 -111q95 -2 157 -53t62 -139q0 -86 -72 -136.5t-170 -50.5z" />
    <glyph glyph-name="ecedilla" unicode="&#x229;" horiz-adv-x="1101" 
d="M102 493q0 234 133 381.5t344 147.5q201 0 310.5 -114.5t109.5 -316.5q0 -42 -3 -69h-692q7 -193 116 -306t287 -113q76 0 148.5 26t119.5 70v-76q-49 -56 -130 -94.5t-183 -47.5l-62 -92q95 -2 157 -53t62 -139q0 -86 -72 -136.5t-170 -50.5q-134 0 -203 62v76
q59 -42 150 -42q54 0 89.5 22.5t35.5 63.5q0 44 -39 66t-103 22q-23 0 -41 -4v72l96 131q-202 12 -331 150t-129 364zM576 919q-114 0 -186.5 -77.5t-84.5 -231.5h503v2q0 149 -60 228t-172 79z" />
    <glyph glyph-name="Odieresismacron" unicode="&#x22a;" horiz-adv-x="1671" 
d="M552 1812v91h547v-91h-547zM674 1549h-9q-36 0 -60.5 21.5t-24.5 52.5t24.5 52.5t60.5 21.5h9q35 0 59.5 -21.5t24.5 -52.5t-24.5 -52.5t-59.5 -21.5zM987 1549h-9q-35 0 -59.5 21.5t-24.5 52.5t24.5 52.5t59.5 21.5h9q36 0 60 -21.5t24 -52.5q0 -32 -24 -53t-60 -21z
M107 722q0 209 89 379.5t257.5 271.5t385.5 101q138 0 268 -52.5t232 -146.5t164 -238.5t62 -314.5q0 -156 -52.5 -293.5t-146 -239t-232 -160.5t-302.5 -59q-110 0 -216 32.5t-197.5 97.5t-161.5 154t-110 210t-40 258zM348 742q0 -178 59.5 -327.5t176 -242.5t267.5 -93
q122 0 214.5 49.5t147.5 137t82.5 197.5t27.5 239q0 178 -59.5 327.5t-176 242.5t-267.5 93q-98 0 -177 -33t-133.5 -90t-91.5 -136.5t-53.5 -170t-16.5 -193.5z" />
    <glyph glyph-name="odieresismacron" unicode="&#x22b;" horiz-adv-x="1223" 
d="M342 1483v106h534v-106h-534zM448 1156h-8q-38 0 -63.5 25t-25.5 62t26 62.5t63 25.5h8q37 0 63 -25.5t26 -62.5t-25.5 -62t-63.5 -25zM778 1156h-8q-38 0 -63.5 25t-25.5 62t26 62.5t63 25.5h8q37 0 63 -25.5t26 -62.5t-25.5 -62t-63.5 -25zM603 -22q-215 0 -358 146
t-143 372q0 231 147 379t370 148q216 0 359 -146t143 -372q0 -231 -147.5 -379t-370.5 -148zM619 82q136 0 212 107.5t76 295.5q0 197 -85.5 315.5t-218.5 118.5q-136 0 -212 -107.5t-76 -295.5q0 -197 85.5 -315.5t218.5 -118.5z" />
    <glyph glyph-name="Otildemacron" unicode="&#x22c;" horiz-adv-x="1671" 
d="M552 1812v91h547v-91h-547zM943 1548q-58 0 -125 24l-28 9q-57 20 -90 20q-65 0 -65 -61h-83q0 79 45 119t112 40q61 0 125 -23l28 -10q62 -20 90 -20q65 0 65 61h83q0 -79 -44.5 -119t-112.5 -40zM107 722q0 209 89 379.5t257.5 271.5t385.5 101q138 0 268 -52.5
t232 -146.5t164 -238.5t62 -314.5q0 -156 -52.5 -293.5t-146 -239t-232 -160.5t-302.5 -59q-110 0 -216 32.5t-197.5 97.5t-161.5 154t-110 210t-40 258zM348 742q0 -178 59.5 -327.5t176 -242.5t267.5 -93q122 0 214.5 49.5t147.5 137t82.5 197.5t27.5 239
q0 178 -59.5 327.5t-176 242.5t-267.5 93q-98 0 -177 -33t-133.5 -90t-91.5 -136.5t-53.5 -170t-16.5 -193.5z" />
    <glyph glyph-name="otildemacron" unicode="&#x22d;" horiz-adv-x="1223" 
d="M342 1483v106h534v-106h-534zM723 1164q-56 0 -122 28l-27 11q-56 23 -88 23q-63 0 -63 -70h-81q0 92 44 139t109 47q60 0 122 -28l27 -11q56 -23 88 -23q63 0 63 71h81q0 -93 -43.5 -140t-109.5 -47zM603 -22q-215 0 -358 146t-143 372q0 231 147 379t370 148
q216 0 359 -146t143 -372q0 -231 -147.5 -379t-370.5 -148zM619 82q136 0 212 107.5t76 295.5q0 197 -85.5 315.5t-218.5 118.5q-136 0 -212 -107.5t-76 -295.5q0 -197 85.5 -315.5t218.5 -118.5z" />
    <glyph glyph-name="Odotaccent" unicode="&#x22e;" horiz-adv-x="1671" 
d="M826 1610q-44 0 -74 29t-30 71q0 43 30 72t74 29t74 -29t30 -72q0 -42 -30 -71t-74 -29zM107 722q0 209 89 379.5t257.5 271.5t385.5 101q138 0 268 -52.5t232 -146.5t164 -238.5t62 -314.5q0 -156 -52.5 -293.5t-146 -239t-232 -160.5t-302.5 -59q-110 0 -216 32.5
t-197.5 97.5t-161.5 154t-110 210t-40 258zM348 742q0 -178 59.5 -327.5t176 -242.5t267.5 -93q122 0 214.5 49.5t147.5 137t82.5 197.5t27.5 239q0 178 -59.5 327.5t-176 242.5t-267.5 93q-98 0 -177 -33t-133.5 -90t-91.5 -136.5t-53.5 -170t-16.5 -193.5z" />
    <glyph glyph-name="odotaccent" unicode="&#x22f;" horiz-adv-x="1223" 
d="M609 1228q-51 0 -86.5 34t-35.5 85q0 50 35.5 84t86.5 34t86.5 -34t35.5 -84q0 -51 -35.5 -85t-86.5 -34zM603 -22q-215 0 -358 146t-143 372q0 231 147 379t370 148q216 0 359 -146t143 -372q0 -231 -147.5 -379t-370.5 -148zM619 82q136 0 212 107.5t76 295.5
q0 197 -85.5 315.5t-218.5 118.5q-136 0 -212 -107.5t-76 -295.5q0 -197 85.5 -315.5t218.5 -118.5z" />
    <glyph glyph-name="Odotaccentmacron" unicode="&#x230;" horiz-adv-x="1671" 
d="M552 1789v91h547v-91h-547zM826 1542q-39 0 -66 24t-27 58t27 57.5t66 23.5t66 -23.5t27 -57.5t-27 -58t-66 -24zM107 722q0 209 89 379.5t257.5 271.5t385.5 101q138 0 268 -52.5t232 -146.5t164 -238.5t62 -314.5q0 -156 -52.5 -293.5t-146 -239t-232 -160.5
t-302.5 -59q-110 0 -216 32.5t-197.5 97.5t-161.5 154t-110 210t-40 258zM348 742q0 -178 59.5 -327.5t176 -242.5t267.5 -93q122 0 214.5 49.5t147.5 137t82.5 197.5t27.5 239q0 178 -59.5 327.5t-176 242.5t-267.5 93q-98 0 -177 -33t-133.5 -90t-91.5 -136.5t-53.5 -170
t-16.5 -193.5z" />
    <glyph glyph-name="odotaccentmacron" unicode="&#x231;" horiz-adv-x="1223" 
d="M342 1470v107h534v-107h-534zM609 1158q-41 0 -69.5 27.5t-28.5 67.5t28.5 68t69.5 28t69.5 -28t28.5 -68t-28.5 -67.5t-69.5 -27.5zM603 -22q-215 0 -358 146t-143 372q0 231 147 379t370 148q216 0 359 -146t143 -372q0 -231 -147.5 -379t-370.5 -148zM619 82
q136 0 212 107.5t76 295.5q0 197 -85.5 315.5t-218.5 118.5q-136 0 -212 -107.5t-76 -295.5q0 -197 85.5 -315.5t218.5 -118.5z" />
    <glyph glyph-name="Ymacron" unicode="&#x232;" horiz-adv-x="1372" 
d="M476 1631v119h530v-119h-530zM238 1180q-70 109 -113 142.5t-133 45.5v76h570v-76q-120 -13 -136 -50.5t48 -138.5l274 -447l261 447q62 102 47 139t-135 50v76h459v-76q-89 -12 -134 -47t-121 -153l-330 -518v-439q0 -39 5.5 -60t26.5 -37.5t56.5 -24t101.5 -13.5v-76
h-597v76q86 8 125.5 21.5t52.5 37.5t13 76v430z" />
    <glyph glyph-name="ymacron" unicode="&#x233;" horiz-adv-x="1096" 
d="M298 1269v130h588v-130h-588zM185 764q-36 89 -67.5 117.5t-105.5 43.5v76h494v-76q-104 -9 -126.5 -35.5t7.5 -109.5l203 -543l215 543q17 43 20 68.5t-12 42t-43.5 23.5t-83.5 11v76h398v-76q-42 -6 -63.5 -12t-42.5 -24t-35.5 -45.5t-36.5 -81.5l-241 -583l-74 -179
l-167 -460h-180v4q99 185 247 469z" />
    <glyph glyph-name="dotlessj" unicode="&#x237;" horiz-adv-x="586" 
d="M398 1012v-850q0 -217 -58.5 -345.5t-229.5 -257.5l-55 -41l-48 65q115 97 154.5 223t39.5 345v653q0 41 -12 56t-55 25l-80 19v67z" />
    <glyph glyph-name="schwa" unicode="&#x259;" horiz-adv-x="1101" 
d="M999 507q0 -234 -133 -381.5t-344 -147.5q-201 0 -310.5 114.5t-109.5 316.5q0 42 3 69h692q-7 193 -116 306t-287 113q-76 0 -148.5 -26t-118.5 -70v76q55 66 153.5 105.5t221.5 39.5q217 0 357 -139.5t140 -375.5zM293 388q0 -149 60.5 -228t172.5 -79q114 0 186 77.5
t84 231.5h-503v-2z" />
    <glyph glyph-name="g.1" unicode="&#x261;" horiz-adv-x="1228" 
d="M102 494q0 232 135 381t335 149q105 0 189.5 -36t126.5 -98l75 111h81v-1015q0 -220 -140.5 -348t-375.5 -128q-166 0 -266.5 77.5t-100.5 188.5q0 48 33 81t80 33t81 -33.5t34 -80.5q0 -32 -17.5 -59.5t-45.5 -42.5q73 -59 195 -59q146 0 234.5 84t90.5 251l4 208
q-39 -78 -129.5 -127t-200.5 -49q-80 0 -155 35.5t-133.5 99t-94 162t-35.5 215.5zM307 520q0 -189 85.5 -301.5t216.5 -112.5q83 0 144.5 31.5t92.5 89.5v590q-26 47 -86 74.5t-141 27.5q-135 0 -223.5 -109.5t-88.5 -289.5z" />
    <glyph glyph-name="quoteright" unicode="&#x2019;" horiz-adv-x="548" 
d="M154 925l-29 64q68 26 109.5 69.5t41.5 97.5q0 57 -40.5 93.5t-107.5 41.5q0 75 37.5 125t104.5 50q71 0 112 -55.5t41 -143.5q0 -126 -78.5 -216t-190.5 -126z" />
    <glyph glyph-name="quoteright" unicode="&#x2bc;" horiz-adv-x="548" 
d="M154 925l-29 64q68 26 109.5 69.5t41.5 97.5q0 57 -40.5 93.5t-107.5 41.5q0 75 37.5 125t104.5 50q71 0 112 -55.5t41 -143.5q0 -126 -78.5 -216t-190.5 -126z" />
    <glyph glyph-name="circumflex" unicode="&#x2c6;" horiz-adv-x="1024" 
d="M304 1165h-95l238 364h130l238 -364h-99l-203 203z" />
    <glyph glyph-name="caron" unicode="&#x2c7;" horiz-adv-x="1024" 
d="M720 1527h95l-238 -364h-130l-238 364h99l203 -203z" />
    <glyph glyph-name="breve" unicode="&#x2d8;" horiz-adv-x="1024" 
d="M512 1176q-136 0 -217 85.5t-81 200.5q0 30 4 53h86v-13q0 -75 55.5 -125.5t152.5 -50.5t152.5 50.5t55.5 125.5v13h86q4 -23 4 -53q0 -115 -81 -200.5t-217 -85.5z" />
    <glyph glyph-name="dotaccent" unicode="&#x2d9;" horiz-adv-x="1024" 
d="M512 1228q-51 0 -86.5 34t-35.5 85q0 50 35.5 84t86.5 34t86.5 -34t35.5 -84q0 -51 -35.5 -85t-86.5 -34z" />
    <glyph glyph-name="ring" unicode="&#x2da;" horiz-adv-x="1024" 
d="M241 1347q0 92 78.5 152.5t192.5 60.5t192.5 -60.5t78.5 -152.5t-78 -152t-193 -60t-193 60t-78 152zM395 1347q0 -57 33.5 -92.5t83.5 -35.5t83.5 35.5t33.5 92.5t-33.5 92.5t-83.5 35.5t-83.5 -35.5t-33.5 -92.5z" />
    <glyph glyph-name="ogonek" unicode="&#x2db;" horiz-adv-x="1024" 
d="M340 -490q-82 0 -135.5 45.5t-53.5 123.5q0 84 68 168t228 182l81 2q-117 -98 -164.5 -166.5t-47.5 -132.5q0 -56 33 -86.5t80 -30.5q67 0 103 31v-76q-26 -28 -78.5 -44t-113.5 -16z" />
    <glyph glyph-name="tilde" unicode="&#x2dc;" horiz-adv-x="1024" 
d="M633 1214q-41 0 -74.5 16.5t-75.5 49.5l-30 25q-46 38 -82 38q-32 0 -48 -30t-19 -101h-86q0 136 49 202t124 66q42 0 75 -16.5t75 -49.5l30 -25q46 -38 82 -38q32 0 48 30t19 101h86q0 -136 -49 -202t-124 -66z" />
    <glyph glyph-name="hungarumlaut" unicode="&#x2dd;" horiz-adv-x="1024" 
d="M403 1529h180v-12l-191 -352h-95zM772 1529h190v-12l-273 -352h-97z" />
    <glyph glyph-name="gravecmb" unicode="&#x300;" 
d="M30 1165l-318 352v12h227l186 -364h-95z" />
    <glyph glyph-name="acutecmb" unicode="&#x301;" 
d="M-30 1165h-95l191 364h219v-12z" />
    <glyph glyph-name="circumflexcmb" unicode="&#x302;" 
d="M-208 1165h-95l238 364h130l238 -364h-99l-203 203z" />
    <glyph glyph-name="tildecmb" unicode="&#x303;" 
d="M121 1214q-41 0 -74.5 16.5t-75.5 49.5l-30 25q-46 38 -82 38q-32 0 -48 -30t-19 -101h-86q0 136 49 202t124 66q42 0 75 -16.5t75 -49.5l30 -25q46 -38 82 -38q32 0 48 30t19 101h86q0 -136 -49 -202t-124 -66z" />
    <glyph glyph-name="macroncmb" unicode="&#x304;" 
d="M-294 1269v130h588v-130h-588z" />
    <glyph glyph-name="brevecmb" unicode="&#x306;" 
d="M0 1176q-136 0 -217 85.5t-81 200.5q0 30 4 53h86v-13q0 -75 55.5 -125.5t152.5 -50.5t152.5 50.5t55.5 125.5v13h86q4 -23 4 -53q0 -115 -81 -200.5t-217 -85.5z" />
    <glyph glyph-name="dotaccentcmb" unicode="&#x307;" 
d="M0 1228q-51 0 -86.5 34t-35.5 85q0 50 35.5 84t86.5 34t86.5 -34t35.5 -84q0 -51 -35.5 -85t-86.5 -34z" />
    <glyph glyph-name="dieresiscmb" unicode="&#x308;" 
d="M-229 1235q-48 0 -81.5 32t-33.5 80q0 47 33.5 79t81.5 32t81.5 -32t33.5 -79q0 -48 -33.5 -80t-81.5 -32zM229 1235q-48 0 -81.5 32t-33.5 80q0 47 33.5 79t81.5 32t81.5 -32t33.5 -79q0 -48 -33.5 -80t-81.5 -32z" />
    <glyph glyph-name="hookabovecmb" unicode="&#x309;" 
d="M29 1535q93 0 149 -42.5t56 -110.5q0 -62 -50.5 -112.5t-170.5 -104.5h-94q82 59 117 96.5t35 76.5q0 38 -31.5 61.5t-83.5 23.5q-89 0 -146 -44v71q34 36 90.5 60.5t128.5 24.5z" />
    <glyph glyph-name="ringcmb" unicode="&#x30a;" 
d="M-271 1347q0 92 78.5 152.5t192.5 60.5t192.5 -60.5t78.5 -152.5t-78 -152t-193 -60t-193 60t-78 152zM-117 1347q0 -57 33.5 -92.5t83.5 -35.5t83.5 35.5t33.5 92.5t-33.5 92.5t-83.5 35.5t-83.5 -35.5t-33.5 -92.5z" />
    <glyph glyph-name="hungarumlautcmb" unicode="&#x30b;" 
d="M-109 1529h180v-12l-191 -352h-95zM260 1529h190v-12l-273 -352h-97z" />
    <glyph glyph-name="caroncmb" unicode="&#x30c;" 
d="M208 1527h95l-238 -364h-130l-238 364h99l203 -203z" />
    <glyph glyph-name="dblgravecmb" unicode="&#x30f;" 
d="M-258 1529l180 -364h-97l-273 352v12h190zM111 1529l106 -364h-95l-191 352v12h180z" />
    <glyph glyph-name="invertedbrevecmb" unicode="&#x311;" 
d="M0 1517q136 0 217 -86t81 -201q0 -29 -4 -52h-86v12q0 75 -55 125.5t-153 50.5t-153 -50.5t-55 -125.5v-12h-86q-4 23 -4 52q0 115 81 201t217 86z" />
    <glyph glyph-name="horncmb" unicode="&#x31b;" 
d="M192 1312h95q47 -19 79.5 -63.5t32.5 -95.5q0 -96 -105 -154t-315 -61v63q71 0 122.5 16t78 43.5t38.5 58t12 67.5q0 77 -38 126z" />
    <glyph glyph-name="dotbelowcmb" unicode="&#x323;" 
d="M0 -412q-47 0 -80 30.5t-33 76.5t33 76.5t80 30.5q48 0 81 -31t33 -76t-33 -76t-81 -31z" />
    <glyph glyph-name="dieresisbelowcmb" unicode="&#x324;" 
d="M-213 -405q-45 0 -76 29t-31 71t31 71t76 29t76 -29t31 -71t-31 -71t-76 -29zM213 -405q-45 0 -76 29t-31 71t31 71t76 29t76 -29t31 -71t-31 -71t-76 -29z" />
    <glyph glyph-name="ringbelowcmb" unicode="&#x325;" 
d="M-271 -304q0 83 78.5 136.5t192.5 53.5t192.5 -53.5t78.5 -136.5t-78.5 -137t-192.5 -54t-192.5 54t-78.5 137zM-117 -304q0 -48 33.5 -78.5t83.5 -30.5t83.5 30t33.5 79t-33.5 78.5t-83.5 29.5t-83.5 -29.5t-33.5 -78.5z" />
    <glyph glyph-name="commaaccentcmb" unicode="&#x326;" 
d="M-23 -490q-120 0 -187 51v75q61 -34 145 -34q53 0 87.5 23t34.5 64q0 39 -33.5 61.5t-84.5 22.5q-58 0 -92 -17v69q20 24 63.5 40.5t97.5 16.5q95 0 153.5 -50.5t58.5 -134.5t-66 -135.5t-177 -51.5z" />
    <glyph glyph-name="cedillacmb" unicode="&#x327;" 
d="M-31 -490q-134 0 -203 62v76q59 -42 150 -42q54 0 89.5 22.5t35.5 63.5q0 44 -39 66t-103 22q-23 0 -41 -4v72l139 189h70v-37l-75 -111q95 -2 157 -53t62 -139q0 -86 -72 -136.5t-170 -50.5z" />
    <glyph glyph-name="ogonekcmb" unicode="&#x328;" 
d="M-172 -490q-82 0 -135.5 45.5t-53.5 123.5q0 84 68 168t228 182l81 2q-117 -98 -164.5 -166.5t-47.5 -132.5q0 -56 33 -86.5t80 -30.5q67 0 103 31v-76q-26 -28 -78.5 -44t-113.5 -16z" />
    <glyph glyph-name="circumflexbelowcmb" unicode="&#x32d;" 
d="M-193 -468h-89l222 327h120l222 -327h-92l-189 182z" />
    <glyph glyph-name="brevebelowcmb" unicode="&#x32e;" 
d="M0 -457q-127 0 -202 77t-75 181q0 27 4 48h80v-12q0 -68 51 -113.5t142 -45.5t142 45.5t51 113.5v12h80q4 -21 4 -48q0 -104 -75 -181t-202 -77z" />
    <glyph glyph-name="tildebelowcmb" unicode="&#x330;" 
d="M113 -424q-38 0 -69.5 14.5t-70.5 44.5l-28 23q-44 34 -76 34q-30 0 -45 -27t-17 -91h-80q0 122 45 181.5t115 59.5q39 0 69.5 -14.5t70.5 -44.5l28 -23q42 -34 76 -34q30 0 45 27t17 91h80q0 -122 -45 -181.5t-115 -59.5z" />
    <glyph glyph-name="macronbelowcmb" unicode="&#x332;" 
d="M-273 -362v117h546v-117h-546z" />
    <glyph glyph-name="macronbelowcmb" unicode="&#x331;" 
d="M-273 -362v117h546v-117h-546z" />
    <glyph glyph-name="numeralsigngreek" unicode="&#x374;" horiz-adv-x="274" 
d="M98 1024h-72l45 420h179z" />
    <glyph glyph-name="lownumeralsigngreek" unicode="&#x375;" horiz-adv-x="274" 
d="M177 22h72l-45 -420h-179z" />
    <glyph glyph-name="tonosgreek" unicode="&#x384;" horiz-adv-x="1024" 
d="M553 1165h-86l72 364h197v-12z" />
    <glyph glyph-name="dieresistonosgreek" unicode="&#x385;" horiz-adv-x="1024" 
d="M540 1165h-81l44 364h187v-12zM296 1214q-44 0 -74 29t-30 72t30 71.5t74 28.5t74 -28.5t30 -71.5t-30 -72t-74 -29zM794 1214q-44 0 -74 29t-30 72t30 71.5t74 28.5t74 -28.5t30 -71.5t-30 -72t-74 -29z" />
    <glyph glyph-name="Alphatonosgreek" unicode="&#x386;" horiz-adv-x="1448" 
d="M1244 267q42 -113 79.5 -146.5t132.5 -44.5v-76h-571v76q122 15 145.5 49t-14.5 143l-82 232h-522l-81 -232q-38 -110 -14.5 -143.5t145.5 -48.5v-76h-470v76q100 11 135.5 44t80.5 153l432 1171h170zM272 1080h-86l72 364h197v-12zM445 594h456l-230 651z" />
    <glyph glyph-name="anoteleiagreek" unicode="&#x387;" horiz-adv-x="548" 
d="M274 756q-55 0 -95 40.5t-40 96.5q0 57 39.5 97t95.5 40t95.5 -40t39.5 -97q0 -56 -40 -96.5t-95 -40.5z" />
    <glyph glyph-name="Epsilontonosgreek" unicode="&#x388;" horiz-adv-x="1586" 
d="M1443 1444l12 -360h-70q-35 156 -106 207t-246 56l-286 9v-572h299q52 0 75.5 36.5t50.5 166.5h66v-495h-66q-22 127 -46.5 165.5t-79.5 38.5h-299v-608l282 9q80 2 127.5 6.5t94 17t71 31.5t48 54t37 81.5t26.5 117.5h70l-15 -405h-1132v76q82 7 117.5 19t46.5 33.5
t11 69.5v1048q0 48 -11 69.5t-46.5 33.5t-117.5 19v76h1087zM86 1080h-86l72 364h197v-12z" />
    <glyph glyph-name="Etatonosgreek" unicode="&#x389;" horiz-adv-x="1950" 
d="M747 194q0 -66 28.5 -87t138.5 -31v-76h-558v76q82 7 117.5 19t46.5 33.5t11 69.5v1048q0 48 -11 69.5t-46.5 33.5t-117.5 19v76h558v-77q-110 -10 -138.5 -31t-28.5 -87v-463h742v464q0 47 -10.5 67.5t-44 32t-111.5 18.5v76h557v-76q-80 -7 -115.5 -19t-47.5 -33.5
t-12 -69.5v-1048q0 -48 12 -69.5t47.5 -33.5t115.5 -19v-76h-557v76q78 7 111.5 18.5t44 32t10.5 67.5v497h-742v-497zM86 1080h-86l72 364h197v-12z" />
    <glyph glyph-name="Iotatonosgreek" unicode="&#x38a;" horiz-adv-x="991" 
d="M747 198q0 -48 11 -69.5t46.5 -33.5t117.5 -19v-76h-566v76q82 7 117.5 19t46.5 33.5t11 69.5v1048q0 48 -11 69.5t-46.5 33.5t-117.5 19v76h566v-76q-82 -7 -117.5 -19t-46.5 -33.5t-11 -69.5v-1048zM86 1080h-86l72 364h197v-12z" />
    <glyph glyph-name="Omicrontonosgreek" unicode="&#x38c;" horiz-adv-x="1751" 
d="M187 722q0 209 89 379.5t257.5 271.5t385.5 101q138 0 268 -52.5t232 -146.5t164 -238.5t62 -314.5q0 -156 -52.5 -293.5t-146 -239t-232 -160.5t-302.5 -59q-110 0 -216 32.5t-197.5 97.5t-161.5 154t-110 210t-40 258zM86 1080h-86l72 364h197v-12zM428 742
q0 -178 59.5 -327.5t176 -242.5t267.5 -93q122 0 214.5 49.5t147.5 137t82.5 197.5t27.5 239q0 178 -59.5 327.5t-176 242.5t-267.5 93q-98 0 -177 -33t-133.5 -90t-91.5 -136.5t-53.5 -170t-16.5 -193.5z" />
    <glyph glyph-name="Upsilontonosgreek" unicode="&#x38e;" horiz-adv-x="1703" 
d="M569 1180q-70 109 -113 142.5t-133 45.5v76h570v-76q-120 -13 -136 -50.5t48 -138.5l274 -447l261 447q62 102 47 139t-135 50v76h459v-76q-89 -12 -134 -47t-121 -153l-330 -518v-439q0 -39 5.5 -60t26.5 -37.5t56.5 -24t101.5 -13.5v-76h-597v76q86 8 125.5 21.5
t52.5 37.5t13 76v430zM86 1080h-86l72 364h197v-12z" />
    <glyph glyph-name="Omegatonosgreek" unicode="&#x38f;" horiz-adv-x="1696" 
d="M226 0l-52 351h61q28 -66 70 -108.5t105 -66t136.5 -32.5t179.5 -9v115q-231 39 -374.5 192.5t-143.5 387.5q0 185 90.5 332t253 229.5t369.5 82.5q200 0 362.5 -79t256.5 -223t94 -326q0 -242 -143.5 -401.5t-373.5 -194.5v-115q216 0 328.5 46t160.5 170h61l-50 -351
h-590v304q172 39 276 180.5t104 345.5q0 245 -137 390.5t-357 145.5q-216 0 -347 -140.5t-131 -379.5q0 -214 97.5 -354t283.5 -188v-304h-590zM86 1080h-86l72 364h197v-12z" />
    <glyph glyph-name="iotadieresistonosgreek" unicode="&#x390;" horiz-adv-x="666" 
d="M292 1165h-81l44 364h187v-12zM48 1214q-44 0 -74 29t-30 72t30 71.5t74 28.5t74 -28.5t30 -71.5t-30 -72t-74 -29zM546 1214q-44 0 -74 29t-30 72t30 71.5t74 28.5t74 -28.5t30 -71.5t-30 -72t-74 -29zM154 1001h203l-11 -693q-1 -109 46 -157.5t127 -48.5q95 0 147 39
v-75q-37 -40 -103 -64t-140 -24q-119 0 -188 75t-71 231z" />
    <glyph glyph-name="Alphagreek" unicode="&#x391;" horiz-adv-x="1448" 
d="M1244 267q42 -113 79.5 -146.5t132.5 -44.5v-76h-571v76q122 15 145.5 49t-14.5 143l-82 232h-522l-81 -232q-38 -110 -14.5 -143.5t145.5 -48.5v-76h-470v76q100 11 135.5 44t80.5 153l432 1171h170zM445 594h456l-230 651z" />
    <glyph glyph-name="Betagreek" unicode="&#x392;" horiz-adv-x="1379" 
d="M1285 419q0 -133 -80 -229t-214 -143t-305 -47h-617v76q82 7 117.5 19t46.5 33.5t11 69.5v1048q0 48 -11 69.5t-46.5 33.5t-117.5 19v76h617q247 0 382 -93.5t135 -255.5q0 -129 -94.5 -210t-249.5 -101q195 -18 310.5 -111t115.5 -254zM979 1066q0 274 -364 285l-155 5
v-557h186q162 0 247.5 72t85.5 195zM1052 399q0 154 -104.5 233t-301.5 79h-186v-623l155 5q437 13 437 306z" />
    <glyph glyph-name="Gammagreek" unicode="&#x393;" horiz-adv-x="1180" 
d="M1106 1444l11 -360h-70q-35 157 -109.5 208.5t-256.5 56.5l-221 7v-1145q0 -52 13 -76t52 -37.5t126 -21.5v-76h-582v76q82 7 117.5 19t46.5 33.5t11 69.5v1048q0 48 -11 69.5t-46.5 33.5t-117.5 19v76h1037z" />
    <glyph glyph-name="Deltagreek" unicode="&#x394;" horiz-adv-x="1331" 
d="M47 0v110l534 1334h169l534 -1336v-108h-1237zM189 154h846l-423 1107z" />
    <glyph glyph-name="Epsilongreek" unicode="&#x395;" horiz-adv-x="1299" 
d="M1156 1444l12 -360h-70q-35 156 -106 207t-246 56l-286 9v-572h299q52 0 75.5 36.5t50.5 166.5h66v-495h-66q-22 127 -46.5 165.5t-79.5 38.5h-299v-608l282 9q80 2 127.5 6.5t94 17t71 31.5t48 54t37 81.5t26.5 117.5h70l-15 -405h-1132v76q82 7 117.5 19t46.5 33.5
t11 69.5v1048q0 48 -11 69.5t-46.5 33.5t-117.5 19v76h1087z" />
    <glyph glyph-name="Zetagreek" unicode="&#x396;" horiz-adv-x="1259" 
d="M1167 0h-1091v70l846 1286l-414 -12q-100 -3 -156.5 -13t-96.5 -40.5t-58.5 -76.5t-34.5 -130h-70l12 360h1064v-70l-847 -1286l369 12q58 2 96.5 4.5t79.5 9t67 15.5t53 25t44 37.5t33.5 52.5t28 70.5t21.5 90.5h70z" />
    <glyph glyph-name="Etagreek" unicode="&#x397;" horiz-adv-x="1662" 
d="M460 194q0 -66 28.5 -87t138.5 -31v-76h-558v76q82 7 117.5 19t46.5 33.5t11 69.5v1048q0 48 -11 69.5t-46.5 33.5t-117.5 19v76h558v-77q-110 -10 -138.5 -31t-28.5 -87v-463h742v464q0 47 -10.5 67.5t-44 32t-111.5 18.5v76h557v-76q-80 -7 -115.5 -19t-47.5 -33.5
t-12 -69.5v-1048q0 -48 12 -69.5t47.5 -33.5t115.5 -19v-76h-557v76q78 7 111.5 18.5t44 32t10.5 67.5v497h-742v-497z" />
    <glyph glyph-name="Thetagreek" unicode="&#x398;" horiz-adv-x="1672" 
d="M832 -30q-138 0 -268 52.5t-232 146.5t-164 238.5t-62 314.5q0 156 52.5 293.5t146.5 239t232.5 160.5t302.5 59q138 0 268 -52.5t232 -146.5t164 -238.5t62 -314.5q0 -156 -52.5 -293.5t-146.5 -239t-232.5 -160.5t-302.5 -59zM852 77q123 0 217 49.5t150 137t84 198
t28 240.5q0 179 -60.5 329t-178.5 243t-271 93q-99 0 -180 -33t-136 -90t-92 -136.5t-54 -171t-17 -194.5q0 -133 35.5 -253.5t100 -212t161.5 -145.5t213 -54zM518 467v486h64q20 -120 55.5 -159t119.5 -39h151q84 0 119.5 39.5t54.5 158.5h65v-486h-65q-19 119 -54.5 158
t-119.5 39h-151q-84 0 -119.5 -39t-55.5 -158h-64z" />
    <glyph glyph-name="Iotagreek" unicode="&#x399;" horiz-adv-x="704" 
d="M460 198q0 -48 11 -69.5t46.5 -33.5t117.5 -19v-76h-566v76q82 7 117.5 19t46.5 33.5t11 69.5v1048q0 48 -11 69.5t-46.5 33.5t-117.5 19v76h566v-76q-82 -7 -117.5 -19t-46.5 -33.5t-11 -69.5v-1048z" />
    <glyph glyph-name="Kappagreek" unicode="&#x39a;" horiz-adv-x="1386" 
d="M460 194q0 -66 28.5 -87t138.5 -31v-76h-558v76q82 7 117.5 19t46.5 33.5t11 69.5v1048q0 48 -11 69.5t-46.5 33.5t-117.5 19v76h558v-77q-110 -10 -138.5 -31t-28.5 -87v-455h181l320 392q79 99 63 136t-143 46v76h502v-76q-94 -16 -152.5 -58t-172.5 -172l-257 -290
l322 -497q100 -153 154.5 -209t116.5 -72v-70h-298l-453 705h-183v-511z" />
    <glyph glyph-name="Lambdagreek" unicode="&#x39b;" horiz-adv-x="1427" 
d="M1214 270q21 -60 39.5 -95t44 -56t53 -29t76.5 -14v-76h-571v76q38 5 59 9t44.5 11.5t33 18t16 27t3.5 40t-14 55.5l-337 1006l-326 -991q-34 -88 -10 -125.5t146 -50.5v-76h-469v76q90 9 129 39t71 121l428 1208h171z" />
    <glyph glyph-name="Mugreek" unicode="&#x39c;" horiz-adv-x="1883" 
d="M486 1444l471 -1196l430 1196h425v-76q-115 -10 -146 -32t-29 -90l24 -1048q1 -48 13 -69.5t47 -33.5t115 -19v-76h-556v76q112 10 140 31t26 87l-22 1046l-405 -1046l-74 -194h-108l-497 1240l-3 -1022q0 -43 4.5 -64.5t23 -39t49.5 -24.5t91 -14v-76h-458v76
q58 7 88.5 14t48.5 23.5t23 37.5t6 62l25 1011q2 56 -10 82t-46 40t-111 22v76h415z" />
    <glyph glyph-name="Nugreek" unicode="&#x39d;" horiz-adv-x="1580" 
d="M418 1444l850 -1232l-20 1018q0 43 -5 65t-24.5 38t-51.5 22.5t-93 12.5v76h467v-76q-59 -7 -89.5 -14.5t-48.5 -24t-23 -37t-5 -61.5l-7 -1231h-209l-848 1229l20 -1015q1 -56 13 -81t46.5 -37.5t115.5 -19.5v-76h-468v76q78 9 111.5 22.5t44.5 37.5t11 77l4 1011
q0 43 -4.5 65.5t-23.5 40t-50 25t-89 13.5v76h376z" />
    <glyph glyph-name="Xigreek" unicode="&#x39e;" horiz-adv-x="1359" 
d="M1262 1444l13 -385h-70q-32 139 -105 185t-247 46h-347q-174 0 -247 -46t-105 -185h-69l12 385h1165zM542 685q-85 0 -121 -38.5t-56 -152.5h-66v475h66q20 -114 56 -152.5t121 -38.5h275q85 0 121.5 38t56.5 153h65v-475h-65q-20 115 -56.5 153t-121.5 38h-275zM1261 0
h-1163l-16 429h70q11 -64 24.5 -106t36 -74t48.5 -50t71.5 -28.5t95 -13.5t127.5 -3h249q78 0 127.5 3t95 13.5t71.5 28t49 49.5t36 74.5t25 106.5h70z" />
    <glyph glyph-name="Omicrongreek" unicode="&#x39f;" horiz-adv-x="1671" 
d="M107 722q0 209 89 379.5t257.5 271.5t385.5 101q138 0 268 -52.5t232 -146.5t164 -238.5t62 -314.5q0 -156 -52.5 -293.5t-146 -239t-232 -160.5t-302.5 -59q-110 0 -216 32.5t-197.5 97.5t-161.5 154t-110 210t-40 258zM348 742q0 -178 59.5 -327.5t176 -242.5
t267.5 -93q122 0 214.5 49.5t147.5 137t82.5 197.5t27.5 239q0 178 -59.5 327.5t-176 242.5t-267.5 93q-98 0 -177 -33t-133.5 -90t-91.5 -136.5t-53.5 -170t-16.5 -193.5z" />
    <glyph glyph-name="Pigreek" unicode="&#x3a0;" horiz-adv-x="1622" 
d="M1378 198q0 -37 4.5 -55.5t24 -33.5t52 -21.5t94.5 -11.5v-76h-557v76q109 10 137.5 31t28.5 87v1155h-702v-1155q0 -66 28.5 -87t138.5 -31v-76h-558v76q82 7 117.5 19t46.5 33.5t11 69.5v1048q0 48 -11 69.5t-46.5 33.5t-117.5 19v76h1484v-76q-62 -5 -94.5 -11.5
t-52 -21.5t-24 -33.5t-4.5 -55.5v-1048z" />
    <glyph glyph-name="Rhogreek" unicode="&#x3a1;" horiz-adv-x="1320" 
d="M1225 1015q0 -147 -76.5 -251t-210.5 -155t-313 -51h-165v-347q0 -52 13 -76t52 -37.5t126 -21.5v-76h-582v76q82 7 117.5 19t46.5 33.5t11 69.5v1048q0 48 -11 69.5t-46.5 33.5t-117.5 19v76h556q281 0 440.5 -108.5t159.5 -320.5zM993 999q0 335 -439 353l-94 4v-710
l94 4q223 10 331 94.5t108 254.5z" />
    <glyph glyph-name="Sigmagreek" unicode="&#x3a3;" horiz-adv-x="1291" 
d="M1134 1444l11 -360h-70q-36 152 -102.5 204.5t-235.5 57.5l-399 12l400 -564v-34l-513 -606h482q78 0 127.5 3t94.5 14t71 29t49 51t36.5 77t25.5 109h72l-16 -437h-1095v108l479 607l-479 659v70h1062z" />
    </font>
</defs>
</svg>
