<svg xmlns="https://www.w3.org/2000/svg" xmlns:xlink="https://www.w3.org/1999/xlink" version="1.1"><metadata>Created by FontForge 20170731 at Tue Jun 16 09:34:26 2020 By Aleksey,,, (c) 2017-2020 Apple Inc. All rights reserved.</metadata><defs><font id="NewYorkMedium-HeavyItalic" horiz-adv-x="1024"><font-face x-height="1027" ascent="1638" bbox="-426 -506 3810.04 1950" cap-height="1444" descent="-410" font-family="New York Medium" font-stretch="normal" font-style="italic" font-weight="800" panose-1="0 0 0 0 0 0 0 0 0 0" slope="-12" underline-position="-346" underline-thickness="125" unicode-range="U+0020-2212" units-per-em="2048"/><glyph d="M0 -494l519 2444h199l-519 -2444h-199zM410 -494l519 2444h199l-519 -2444h-199zM819 -494l519 2444h200l-519 -2444h-200zM1229 -494l519 2444h200l-519 -2444h-200zM1639 -494l519 2444h199l-519 -2444h-199z" glyph-name=".notdef" horiz-adv-x="2048"/><glyph glyph-name=".null" horiz-adv-x="0"/><glyph glyph-name="nonmarkingreturn" horiz-adv-x="0"/><glyph glyph-name="space" horiz-adv-x="485"/><glyph d="M592 1476q99 0 154.5 -52t55.5 -141q0 -74 -40.5 -173t-158.5 -336l-165 -328h-60l-10 347q-6 337 -2 417q5 117 61.5 191.5t164.5 74.5zM346 -26q-79 0 -130 46t-51 114q0 73 54.5 122t132.5 49t129 -46.5t51 -114.5q0 -73 -54.5 -121.5t-131.5 -48.5z" glyph-name="exclam" horiz-adv-x="637" unicode="!"/><glyph d="M560 1466q69 0 107.5 -42t37.5 -110q0 -38 -20 -95t-41.5 -102t-72.5 -144l-88 -171h-63l-20 205q-18 204 -12 277q11 182 172 182zM1005 1466q69 0 107.5 -42t37.5 -110q0 -38 -19.5 -94.5t-42 -103t-72.5 -143.5l-87 -171h-64l-19 205q-19 194 -13 277q12 182 172 182z" glyph-name="quotedbl" horiz-adv-x="1002" unicode="&quot;"/><glyph d="M257 0l106 375h-214l50 177h214l96 340h-214l49 177h215l106 375h185l-106 -375h297l107 375h184l-106 -375h214l-49 -177h-215l-96 -340h215l-50 -177h-215l-106 -375h-184l106 375h-298l-106 -375h-185zM598 552h297l97 340h-298z" glyph-name="numbersign" horiz-adv-x="1282" unicode="#"/><glyph d="M586 -189l44 207q-120 4 -228.5 35.5t-179.5 78.5l49 335h88q7 -166 82 -243.5t215 -82.5l87 409l-96 62q-141 85 -209 178t-68 216q0 82 32.5 153t98 129.5t175.5 95.5t254 43l43 205h80l-44 -205q111 -3 207.5 -28t159.5 -61l-48 -324h-87q-15 274 -258 289l-82 -385 l6 -4l103 -69q138 -88 204.5 -175t66.5 -201q0 -197 -153 -319t-419 -132l-44 -207h-79zM729 1124q1 -48 24.5 -83t78.5 -75l71 334q-84 -11 -130 -57.5t-44 -118.5zM920 334q-2 53 -25 90.5t-82 80.5l-77 -359q86 13 135.5 62t48.5 126z" glyph-name="dollar" horiz-adv-x="1283" unicode="$"/><glyph d="M612 628q-103 0 -177.5 51t-109.5 131t-35 178q-1 91 25.5 174.5t77 151t132 108t183.5 40.5t176.5 -51t109.5 -131t36 -178q0 -91 -26 -174.5t-76.5 -151t-132 -108t-183.5 -40.5zM451 0l1274 1444h170l-1274 -1444h-170zM612 715q47 0 87.5 73t63.5 189t22 240 q-3 159 -78 159q-47 0 -87.5 -73t-63.5 -189t-22 -241q4 -158 78 -158zM1638 -17q-103 0 -177.5 51t-109.5 131t-35 178q-1 91 25.5 174.5t77 151t132 108t183.5 40.5t176.5 -51t109.5 -131t36 -178q0 -91 -26 -174.5t-76.5 -151t-132 -108t-183.5 -40.5zM1638 70 q47 0 87.5 73t63.5 189t22 240q-3 159 -78 159q-47 0 -87.5 -73t-63.5 -189t-22 -241q4 -158 78 -158z" glyph-name="percent" horiz-adv-x="2040" unicode="%"/><glyph d="M112 346q0 323 409 431q-60 85 -88 157.5t-28 150.5q2 172 132.5 280.5t349.5 108.5q205 0 320 -82.5t115 -220.5q0 -214 -379 -321l266 -327l103 119q68 82 57 115t-108 45l20 98h457l-20 -98q-84 -11 -141.5 -48t-173.5 -156l-137 -145l75 -93q158 -194 279 -290 l-15 -70h-447l-157 190q-117 -114 -226.5 -166.5t-234.5 -52.5q-201 0 -314.5 106t-113.5 269zM753 1192q0 -55 29 -114t100 -151q145 93 145 245q0 78 -34.5 123.5t-98.5 45.5q-63 0 -102 -39.5t-39 -109.5zM466 486q0 -122 85 -202t215 -80q93 0 176 57l-339 410 q-4 4 -11 13t-10 13q-116 -80 -116 -211z" glyph-name="ampersand" horiz-adv-x="1594" unicode="&amp;"/><glyph d="M560 1466q69 0 107.5 -42t37.5 -110q0 -38 -20 -95t-41.5 -102t-72.5 -144l-88 -171h-63l-20 205q-18 204 -12 277q11 182 172 182z" glyph-name="quotesingle" horiz-adv-x="556" unicode="'"/><glyph d="M583 380q0 -176 47 -364.5t115 -299.5h-103q-183 118 -292.5 340.5t-109.5 466.5q0 176 51.5 340t148.5 303.5t246.5 248t336.5 169.5h116q-268 -180 -412 -488.5t-144 -715.5z" glyph-name="parenleft" horiz-adv-x="829" unicode="("/><glyph d="M522 920q0 176 -47 364.5t-115 299.5h103q183 -118 292.5 -340.5t109.5 -466.5q0 -176 -51.5 -340t-148.5 -303.5t-246.5 -248t-336.5 -169.5h-116q268 180 412 488.5t144 715.5z" glyph-name="parenright" horiz-adv-x="829" unicode=")"/><glyph d="M749 1474q42 0 69.5 -27.5t27.5 -72.5q0 -52 -36 -108l-111 -183h-24l-31 187q-5 35 -5 71q0 64 29 98.5t81 34.5zM446 1340q82 0 138 -103l86 -157l-13 -20l-182 50q-137 36 -137 125q0 43 31 74t77 31zM991 1284q44 0 71.5 -26.5t27.5 -68.5q0 -115 -217 -122l-161 -9 l-9 22l139 125q49 44 81.5 61.5t67.5 17.5zM377 829q-44 0 -71.5 26.5t-27.5 68.5q0 114 217 122l161 9l9 -21l-139 -126q-49 -44 -81.5 -61.5t-67.5 -17.5zM1030 877q0 -43 -31 -73.5t-77 -30.5q-84 0 -138 103l-86 157l13 20l182 -50q137 -35 137 -126zM619 638 q-42 0 -69.5 28t-27.5 73q0 51 36 108l111 183h24l31 -188q5 -34 5 -70q0 -64 -29.5 -99t-80.5 -35z" glyph-name="asterisk" horiz-adv-x="920" unicode="*"/><glyph d="M231 502l44 208h418l89 419h209l-89 -419h418l-45 -208h-418l-88 -418h-209l89 418h-418z" glyph-name="plus" horiz-adv-x="1292" unicode="+"/><glyph d="M30 -247l21 96q93 5 152.5 47.5t59.5 107.5q0 56 -42 89t-114 42q5 106 64.5 177.5t157.5 71.5q90 0 148.5 -61t58.5 -166q0 -176 -142.5 -288.5t-363.5 -115.5z" glyph-name="comma" horiz-adv-x="585" unicode=","/><glyph d="M846 497h-608l46 218h607z" glyph-name="hyphen" horiz-adv-x="871" unicode="‑"/><glyph d="M846 497h-608l46 218h607z" glyph-name="hyphen" horiz-adv-x="871" unicode="-"/><glyph d="M324 -17q-88 0 -146 55.5t-58 136.5q0 88 62 147t151 59q88 0 145.5 -55.5t57.5 -136.5q0 -88 -62 -147t-150 -59z" glyph-name="period" horiz-adv-x="585" unicode="."/><glyph d="M4 -284l897 1868h200l-898 -1868h-199z" glyph-name="slash" horiz-adv-x="829" unicode="/"/><glyph d="M757 -29q-127 0 -229 52t-165 141t-96 202t-33 240q1 128 29.5 251.5t87.5 235.5t141.5 196.5t199 134.5t251.5 50q127 0 229 -52.5t165 -141.5t96 -201.5t32 -238.5q0 -127 -28.5 -250.5t-87.5 -235.5t-141 -197t-199 -135.5t-252 -50.5zM756 101q87 0 163 136.5 t119.5 348.5t44.5 437q1 321 -140 321q-87 0 -163.5 -137t-119.5 -349t-43 -437q-3 -320 139 -320z" glyph-name="zero" horiz-adv-x="1392" unicode="0"/><glyph d="M992 1445l-255 -1201q-16 -75 22.5 -102.5t171.5 -42.5l-21 -99h-832l20 99q141 15 191 42.5t66 102.5l197 925q3 18 -15 15l-228 -38l20 98l505 201h158z" glyph-name="one" horiz-adv-x="957" unicode="1"/><glyph d="M1035 0h-942l50 234l363 299q216 176 296 284t80 224q0 94 -58.5 152.5t-156.5 58.5q-191 0 -293 -211l-87 33q67 187 206.5 293t347.5 106q185 0 303.5 -96.5t118.5 -262.5q0 -85 -26 -153t-92 -138t-160 -137.5t-250 -161.5l-337 -212h704z" glyph-name="two" horiz-adv-x="1136" unicode="2"/><glyph d="M919 1061q0 80 -59.5 135.5t-160.5 55.5q-195 0 -297 -205l-88 33q62 189 209.5 291t334.5 102q81 0 156 -21t136 -60t97.5 -102.5t36.5 -142.5q0 -74 -35 -136t-94 -103.5t-131.5 -68t-153.5 -35.5q150 -38 233 -132.5t83 -223.5q0 -112 -52 -204t-138.5 -150.5 t-195 -90.5t-225.5 -32q-113 0 -212.5 35.5t-164 106t-64.5 160.5q0 66 44 110.5t111 44.5q65 0 108 -43.5t43 -106.5q0 -41 -21 -76t-57 -54q66 -41 158 -41q121 0 207 86t86 233q0 115 -81.5 185.5t-208.5 70.5q-45 0 -93 -6l23 109q466 38 466 276z" glyph-name="three" horiz-adv-x="1178" unicode="3"/><glyph d="M671 0l63 298h-633l32 151l924 996h250l-190 -896h193l-53 -251h-193l-63 -298h-330zM788 549l121 571l-518 -571h397z" glyph-name="four" horiz-adv-x="1246" unicode="4"/><glyph d="M570 -29q-189 0 -312 86.5t-123 215.5q0 66 42.5 110.5t108.5 44.5t109.5 -43t43.5 -107q0 -43 -22 -78.5t-59 -53.5q67 -38 149 -38q123 0 211 86.5t88 233.5q0 122 -67 196.5t-182 75.5q-71 1 -130.5 -30.5t-96.5 -91.5l-104 1l294 865h772l-65 -314h-675l-155 -384 q138 157 365 154q203 -1 317.5 -118t114.5 -300q0 -143 -79.5 -259.5t-222.5 -184t-322 -67.5z" glyph-name="five" horiz-adv-x="1167" unicode="5"/><glyph d="M1329 525q0 -244 -167.5 -398.5t-431.5 -154.5q-240 0 -383.5 150t-143.5 400q0 154 52 294.5t154.5 257t244.5 202.5t330.5 133.5t404.5 46.5l-18 -97q-212 -5 -382.5 -99t-276 -257t-133.5 -373q45 145 144.5 219.5t237.5 73.5q161 -1 264.5 -112t103.5 -286zM951 487 q0 112 -40.5 179t-118.5 67q-106 0 -169 -108t-63 -259q0 -121 41 -190.5t123 -69.5q72 0 124.5 54t77.5 139t25 188z" glyph-name="six" horiz-adv-x="1293" unicode="6"/><glyph d="M491 0h-361l5 25l936 1105h-788l66 314h939l-62 -295z" glyph-name="seven" horiz-adv-x="1041" unicode="7"/><glyph d="M703 -29q-140 0 -257.5 41t-190.5 123t-73 189q0 139 102 224t288 113q-238 157 -238 368q0 203 154 323.5t407 120.5q225 0 367 -92t142 -248q0 -71 -33.5 -128.5t-92.5 -95.5t-128.5 -61.5t-150.5 -35.5q145 -87 219.5 -179t74.5 -219q0 -132 -80 -234t-213.5 -156 t-296.5 -53zM844 905l66 -39q92 44 138.5 115.5t46.5 150.5q0 96 -57 151.5t-145 55.5q-93 0 -151.5 -60t-58.5 -143q0 -72 39 -126t122 -105zM492 335q0 -101 59 -165t163 -64q98 0 161.5 57t63.5 150q0 70 -46.5 124.5t-145.5 115.5l-84 52q-85 -45 -127.5 -116 t-43.5 -154z" glyph-name="eight" horiz-adv-x="1291" unicode="8"/><glyph d="M279 921q0 161 76 287t212.5 195.5t310.5 69.5q241 0 384.5 -149.5t143.5 -400.5q0 -154 -52.5 -294.5t-154.5 -257t-244 -202.5t-331 -133.5t-404 -46.5l18 98q159 4 296.5 59t239 150.5t168 228.5t88.5 291q-46 -145 -145.5 -220t-236.5 -74q-161 1 -265 112.5 t-104 286.5zM657 958q0 -111 41 -178.5t118 -67.5q71 0 125 52.5t80.5 135t26.5 179.5q0 121 -40.5 190.5t-123.5 70.5q-106 -1 -166.5 -112t-60.5 -270z" glyph-name="nine" horiz-adv-x="1294" unicode="9"/><glyph d="M455 600q-88 0 -146 55t-58 136q0 88 62.5 147t150.5 59t146 -55t58 -137q0 -87 -62.5 -146t-150.5 -59zM324 -17q-88 0 -146 55.5t-58 136.5q0 88 62 147t151 59q88 0 145.5 -55.5t57.5 -136.5q0 -88 -62 -147t-150 -59z" glyph-name="colon" horiz-adv-x="585" unicode=":"/><glyph d="M455 599q-88 0 -146 55.5t-58 136.5q0 88 62 147t151 59q88 0 145.5 -55.5t57.5 -136.5q0 -88 -62 -147t-150 -59zM30 -247l21 96q93 5 152.5 47.5t59.5 107.5q0 56 -42 89t-114 42q5 106 64.5 177.5t157.5 71.5q90 0 148.5 -61t58.5 -166q0 -176 -142.5 -288.5 t-363.5 -115.5z" glyph-name="semicolon" horiz-adv-x="585" unicode=";"/><glyph d="M1217 248l-46 -213l-953 486l28 131l1158 487l-48 -225l-826 -332z" glyph-name="less" horiz-adv-x="1280" unicode="&lt;"/><glyph d="M281 737l44 209h1045l-45 -209h-1044zM181 267l44 209h1045l-45 -209h-1044z" glyph-name="equal" horiz-adv-x="1292" unicode="="/><glyph d="M313 927l45 212l953 -485l-28 -132l-1157 -487l47 225l826 333z" glyph-name="greater" horiz-adv-x="1280" unicode="&gt;"/><glyph d="M342 450l28 402q149 0 237.5 14t127 40.5t39.5 71.5q1 69 -99 118.5t-328 84.5q13 133 87 214.5t194 81.5q129 0 214.5 -103t85.5 -279q0 -214 -128.5 -357t-377.5 -181l-12 -107h-68zM343 -26q-78 0 -129 46t-51 114q0 73 54.5 122t131.5 49q79 0 130 -46.5t51 -114.5 q0 -73 -54.5 -121.5t-132.5 -48.5z" glyph-name="question" horiz-adv-x="798" unicode="?"/><glyph d="M1524 -299q-70 -57 -196 -91.5t-263 -34.5q-176 0 -332 60t-273 169t-185 272.5t-68 359.5q0 210 77.5 399.5t213 330t332 223t422.5 82.5q200 0 369.5 -56t288 -156t185 -242t66.5 -309q0 -144 -45.5 -270.5t-126.5 -218.5t-199 -145.5t-256 -53.5q-136 0 -210.5 62 t-72.5 163q0 30 5 54q-116 -247 -321 -247q-118 0 -184.5 89t-66.5 253q0 161 57 302.5t164.5 230.5t240.5 89q87 0 147.5 -38.5t86.5 -108.5l128 122h206l-143 -664q-15 -74 3.5 -108.5t81.5 -34.5q66 0 129.5 35.5t114.5 99t82.5 160t31.5 209.5q0 295 -204.5 475 t-556.5 180q-153 0 -293 -46t-249 -129.5t-189.5 -195t-123.5 -248.5t-43 -284q0 -224 97.5 -393t263 -256t374.5 -87q265 0 433 96zM1028 400q0 -155 83 -155q51 0 94.5 53.5t61.5 138.5l69 324q7 62 -16 95.5t-68 33.5q-63 0 -116 -84t-80.5 -195.5t-27.5 -210.5z" glyph-name="at" horiz-adv-x="2121" unicode="@"/><glyph d="M1354 306q16 -121 44 -158t107 -49l-21 -99h-727l21 99q108 16 137 55.5t18 153.5l-16 153h-432l-76 -145q-44 -83 -51 -124.5t19 -61t97 -31.5l-21 -99h-457l21 99q85 13 127.5 51t114.5 168l627 1129h324zM551 585h354l-57 563z" glyph-name="A" horiz-adv-x="1481" unicode="A"/><glyph d="M1525 449q0 -214 -226.5 -331.5t-622.5 -117.5h-627l21 99q100 15 131 37.5t45 89.5l211 991q14 68 -7.5 90.5t-114.5 37.5l21 99h622q309 0 462.5 -87.5t152.5 -246.5q0 -100 -64 -173.5t-163.5 -110.5t-227.5 -46q190 -20 288.5 -111.5t98.5 -219.5zM1174 1099 q0 107 -60.5 166t-169.5 64l-57 2l-110 -517l95 1q140 0 221 78t81 206zM1086 449q0 116 -65.5 181.5t-173.5 68.5l-94 2l-126 -588l58 1q197 5 299 95t102 240z" glyph-name="B" horiz-adv-x="1508" unicode="B"/><glyph d="M674 544q0 -203 84 -321.5t225 -118.5q114 0 215 94t163 259l92 1l-82 -383q-71 -49 -183.5 -77t-246.5 -28q-114 0 -218 26t-194 81.5t-155.5 135t-102.5 192.5t-35 248q2 242 114 429.5t307 289t440 101.5q153 0 290 -38.5t217 -94.5l-64 -368l-90 3q-5 177 -77 270 t-204 93q-137 0 -252.5 -115.5t-179 -297.5t-63.5 -381z" glyph-name="C" horiz-adv-x="1428" unicode="C"/><glyph d="M1715 823q0 -184 -79 -339t-218 -260.5t-333 -164.5t-419 -59h-617l21 99q100 15 131 37.5t45 89.5l211 992q14 66 -8 89t-114 38l21 99h599q225 0 395 -70t267.5 -212t97.5 -339zM1266 892q0 190 -88.5 308t-242.5 128l-48 3l-258 -1218l55 3q171 9 305 115t205.5 279 t71.5 382z" glyph-name="D" horiz-adv-x="1648" unicode="D"/><glyph d="M1515 1444l-74 -411h-90q-5 92 -16.5 143t-43.5 85t-82 46t-140 16l-180 8l-114 -538l163 2q69 2 106 40.5t85 159.5h84l-110 -522h-85q4 125 -16.5 164t-88.5 41l-162 2l-119 -567l195 8q97 4 157.5 18t112.5 50.5t89.5 95t81.5 159.5h90l-106 -444h-1201l21 99 q100 15 131 37.5t45 89.5l211 992q14 66 -7.5 89t-114.5 38l21 99h1157z" glyph-name="E" horiz-adv-x="1320" unicode="E"/><glyph d="M1493 1444l-74 -411h-91q-3 62 -8.5 102.5t-19 74.5t-32 53t-50.5 33t-72 19.5t-99 8.5l-156 7l-116 -549l140 2q69 2 105.5 40.5t83.5 159.5h85l-111 -522h-84q3 86 -5.5 128.5t-30.5 59t-68 17.5l-139 2l-94 -444q-14 -66 10.5 -88.5t127.5 -38.5l-21 -98h-721l21 99 q100 15 131 37.5t45 89.5l211 992q14 66 -8 89t-114 38l21 99h1133z" glyph-name="F" horiz-adv-x="1250" unicode="F"/><glyph d="M236 653q2 182 68 335.5t180.5 259.5t273 165.5t342.5 59.5q154 0 291 -38.5t217 -94.5l-63 -368l-91 3q-5 177 -77.5 270t-205.5 93q-103 0 -196.5 -68.5t-158.5 -179.5t-103 -254.5t-38 -291.5q0 -208 84 -323.5t225 -115.5q84 0 127 31l76 365q13 64 -8 87t-114 35 l21 98h630l-21 -98q-86 -12 -114 -35t-42 -88l-86 -401q-86 -59 -228 -93.5t-284 -34.5q-113 0 -216.5 26.5t-193.5 81.5t-156 134.5t-103 192.5t-36 247z" glyph-name="G" horiz-adv-x="1590" unicode="G"/><glyph d="M652 226q-14 -66 6.5 -89.5t107.5 -37.5l-21 -99h-697l21 99q69 10 102 23.5t49 36t25 68.5l211 990q14 66 -8 89.5t-114 38.5l21 99h697l-21 -99q-94 -15 -124 -38t-44 -89l-90 -421h473l90 421q14 68 -6.5 91t-107.5 36l21 99h697l-21 -99q-99 -13 -130.5 -36.5 t-45.5 -91.5l-211 -990q-14 -68 8 -91.5t114 -36.5l-21 -99h-697l21 99q93 13 123.5 36t44.5 91l96 450h-473z" glyph-name="H" horiz-adv-x="1681" unicode="H"/><glyph d="M653 226q-14 -66 7.5 -89t113.5 -38l-21 -99h-704l21 99q69 10 101.5 23t48.5 35.5t25 68.5l211 992q15 67 -7.5 91.5t-113.5 35.5l21 99h704l-21 -99q-100 -15 -131 -37.5t-45 -89.5z" glyph-name="I" horiz-adv-x="802" unicode="I"/><glyph d="M665 280q-29 -135 -89 -237t-160.5 -181t-225 -138.5t-304.5 -118.5l-27 79q179 108 265 237t137 372l197 925q14 67 -7.5 89.5t-113.5 38.5l21 98h704l-21 -98q-70 -11 -102.5 -24t-48.5 -35.5t-25 -68.5z" glyph-name="J" horiz-adv-x="806" unicode="J"/><glyph d="M653 226q-14 -67 5.5 -90.5t102.5 -36.5l-21 -99h-691l21 99q100 15 131 37.5t45 89.5l210 992q14 66 -7.5 89t-113.5 38l21 99h691l-21 -99q-90 -14 -119 -37t-43 -90l-91 -426h94l375 371q90 92 86 130.5t-97 51.5l21 99h511l-21 -99q-98 -17 -170.5 -60t-220.5 -171 l-163 -143l192 -591q54 -161 83.5 -213.5t74.5 -72.5l-20 -94h-463l-211 672h-96z" glyph-name="K" horiz-adv-x="1511" unicode="K"/><glyph d="M1186 0h-1137l21 99q100 16 131 38.5t45 88.5l207 978q16 74 -5.5 100t-112.5 41l21 99h712l-21 -98q-105 -16 -137.5 -39t-46.5 -89l-234 -1105l147 6q81 4 138 21.5t109.5 59.5t96 111t92.5 178h90z" glyph-name="L" horiz-adv-x="1246" unicode="L"/><glyph d="M972 1444l103 -927l458 927h613l-21 -99q-100 -12 -131 -35t-43 -87l-189 -1002q-12 -65 9.5 -87.5t114.5 -34.5l-21 -99h-698l20 99q100 13 131.5 35.5t43.5 86.5l172 926l-339 -639l-260 -508h-215l-140 1132l-176 -849q-18 -67 -13 -105t31.5 -54t92.5 -25l-20 -99 h-454l21 99q100 12 134.5 46t59.5 137l209 892q23 86 1.5 121.5t-113.5 49.5l21 99h598z" glyph-name="M" horiz-adv-x="1905" unicode="M"/><glyph d="M883 1444l422 -1037l147 758q19 101 -1.5 132t-118.5 48l21 99h445l-21 -99q-93 -15 -125.5 -48t-54.5 -132l-257 -1165h-349l-443 1095l-159 -805q-21 -108 -1 -141t119 -50l-21 -99h-445l21 99q94 16 127 50.5t56 139.5l195 887q18 83 -5 121t-114 48l21 99h541z" glyph-name="N" horiz-adv-x="1533" unicode="N"/><glyph d="M923 -28q-163 0 -295.5 52t-219 143t-132 212.5t-43.5 262.5q3 171 61.5 322t162 264t256.5 178.5t335 65.5q163 0 295 -52t218 -143t132 -212.5t46 -262.5q0 -170 -58.5 -322t-162.5 -264.5t-258.5 -178t-336.5 -65.5zM897 102q89 0 168 75.5t132 196.5t83.5 270.5 t30.5 298.5q0 202 -61.5 300t-175.5 98q-73 0 -139 -49.5t-115 -134t-85.5 -192t-55 -227.5t-18.5 -237q0 -203 61.5 -301t174.5 -98z" glyph-name="O" horiz-adv-x="1664" unicode="O"/><glyph d="M776 0h-730l21 99q99 12 131 35t47 89l212 998q15 65 -7.5 88.5t-117.5 35.5l21 99h628q327 0 479 -111.5t152 -313.5q0 -224 -195.5 -351t-524.5 -127h-170l-68 -317q-14 -65 11.5 -88.5t131.5 -36.5zM889 1330l-143 -675l79 3q163 6 263 110.5t100 284.5 q0 127 -65 197.5t-180 76.5z" glyph-name="P" horiz-adv-x="1474" unicode="P"/><glyph d="M1337 -416q-119 0 -221.5 52t-221.5 184l-155 171q-242 52 -376 229.5t-130 421.5q3 171 61.5 322t162 264t256.5 178.5t335 65.5q163 0 295 -52t218 -143t132 -212.5t46 -262.5q0 -277 -146 -492t-397 -296l92 -93q108 -110 182.5 -145t173.5 -30l-19 -91 q-114 -71 -288 -71zM897 102q89 0 168 75.5t132 196.5t83.5 270.5t30.5 298.5q0 202 -61.5 300t-175.5 98q-73 0 -139 -49.5t-115 -134t-85.5 -192t-55 -227.5t-18.5 -237q0 -203 61.5 -301t174.5 -98z" glyph-name="Q" horiz-adv-x="1679" unicode="Q"/><glyph d="M1088 0l-212 617h-10h-128l-83 -391q-14 -67 5 -90.5t103 -36.5l-21 -99h-695l21 99q69 8 103 21t49 35t25 67l213 1000q14 66 -8.5 88.5t-116.5 34.5l21 99h629q307 0 465.5 -96t158.5 -279q0 -145 -94 -243.5t-254 -150.5l121 -335q49 -133 81.5 -181.5t79.5 -64.5 l-21 -94h-432zM1193 1065q0 121 -63.5 189t-182.5 72l-58 2l-126 -597l77 2q171 7 262 100t91 232z" glyph-name="R" horiz-adv-x="1511" unicode="R"/><glyph d="M620 -30q-146 0 -279.5 31.5t-206.5 76.5l60 380h90q2 -169 91.5 -261.5t227.5 -92.5q105 0 171.5 53t66.5 142q0 73 -38.5 127.5t-135.5 115.5l-86 57q-147 91 -211 185.5t-64 223.5q0 94 38.5 177t111 147.5t188.5 102.5t261 38q147 0 269.5 -35.5t187.5 -86.5 l-63 -363h-90q-7 173 -81 262t-204 89q-99 0 -162 -52.5t-63 -135.5q0 -68 41 -120.5t137 -113.5l87 -56q142 -88 206.5 -184.5t64.5 -221.5q0 -215 -172.5 -350t-442.5 -135z" glyph-name="S" horiz-adv-x="1220" unicode="S"/><glyph d="M1646 1444l-74 -411h-90q0 171 -51.5 229t-209.5 67l-36 2l-235 -1106q-14 -66 10 -88.5t127 -38.5l-21 -98h-734l20 98q109 16 143 39t48 88l234 1106l-36 -2q-162 -9 -238 -67.5t-148 -228.5h-90l98 411h1283z" glyph-name="T" horiz-adv-x="1397" unicode="T"/><glyph d="M811 -29q-130 0 -234.5 38.5t-180.5 120.5t-99 208.5t11 303.5l121 572q15 67 -5 90.5t-104 40.5l21 99h695l-21 -99q-102 -18 -133.5 -41t-45.5 -90l-128 -602q-46 -219 23 -325.5t220 -106.5q143 0 244.5 100.5t140.5 291.5l121 596q19 98 -1.5 128.5t-118.5 48.5 l21 99h444l-21 -99q-95 -16 -126.5 -47.5t-53.5 -129.5l-135 -612q-62 -282 -229.5 -433.5t-425.5 -151.5z" glyph-name="U" horiz-adv-x="1538" unicode="U"/><glyph d="M435 1138q-15 121 -43 158t-107 49l21 99h726l-20 -99q-108 -16 -137.5 -55.5t-17.5 -153.5l85 -841l436 827q45 86 52 129t-18.5 63t-95.5 31l20 99h457l-20 -99q-86 -13 -128.5 -51.5t-116.5 -172.5l-624 -1124h-324z" glyph-name="V" horiz-adv-x="1485" unicode="V"/><glyph d="M421 1139q-6 63 -14 99.5t-25.5 59.5t-39.5 32t-62 15l21 99h709l-21 -99q-101 -15 -127 -53t-19 -156l47 -792l368 791q53 108 39.5 154t-105.5 56l21 99h683l-21 -99q-43 -6 -67.5 -14t-43 -22t-23.5 -35.5t-8.5 -56t2.5 -82.5l49 -790l366 786q30 64 41 101t4.5 62 t-31 35.5t-73.5 15.5l20 99h452l-21 -99q-86 -12 -130.5 -51.5t-111.5 -171.5l-569 -1125h-321l-75 996l-499 -996h-310z" glyph-name="W" horiz-adv-x="2253" unicode="W"/><glyph d="M348 321l317 360l-188 477q-38 97 -71.5 132t-105.5 55l21 99h737l-20 -99q-97 -16 -115.5 -51t21.5 -132l110 -281l209 260q61 75 77.5 114t-3.5 59t-86 31l21 99h472l-21 -99q-94 -14 -152.5 -54.5t-166.5 -165.5l-307 -354l190 -482q38 -96 71.5 -131t104.5 -57 l-21 -98h-736l20 98q97 17 115 53t-20 131l-113 287l-219 -269q-61 -75 -77.5 -113.5t3.5 -59t86 -31.5l-21 -99h-475l21 99q94 14 152 54.5t170 167.5z" glyph-name="X" horiz-adv-x="1447" unicode="X"/><glyph d="M458 1155q-36 109 -67 143.5t-104 46.5l21 99h719l-20 -99q-99 -13 -120 -48t9 -135l119 -415l285 405q76 107 69.5 143.5t-103.5 49.5l21 99h441l-21 -99q-81 -12 -125 -45t-125 -140l-413 -546l-82 -389q-14 -66 10 -88.5t125 -38.5l-21 -98h-730l21 98 q107 15 140.5 38t47.5 89l82 389z" glyph-name="Y" horiz-adv-x="1422" unicode="Y"/><glyph d="M1213 0h-1149l21 94l939 1237l-208 -9q-74 -3 -125 -12.5t-92.5 -27.5t-74 -52.5t-60.5 -79.5t-61 -117h-90l97 411h1097l-20 -94l-939 -1237l214 8q103 4 166.5 17.5t119.5 49.5t96 96t83 160h91z" glyph-name="Z" horiz-adv-x="1286" unicode="Z"/><glyph d="M186 -284l399 1868h559l-23 -111h-269l-351 -1646h268l-23 -111h-560z" glyph-name="bracketleft" horiz-adv-x="829" unicode="["/><glyph d="M504 -284l-103 1868h199l104 -1868h-200z" glyph-name="backslash" horiz-adv-x="829" unicode="\"/><glyph d="M919 1584l-399 -1868h-559l24 111h268l351 1646h-268l24 111h559z" glyph-name="bracketright" horiz-adv-x="829" unicode="]"/><glyph d="M856 1444h193l298 -599l-136 -106l-289 508l-502 -508l-117 106z" glyph-name="asciicircum" horiz-adv-x="1286" unicode="^"/><glyph d="M-63 -379l40 188h989l-40 -188h-989z" glyph-name="underscore" unicode="_"/><glyph d="M812 1554l82 -402h-117l-354 390v12h389z" glyph-name="grave" unicode="`"/><glyph d="M174 362q0 192 70 349t194.5 247.5t278.5 90.5q101 0 168 -39t93 -99l137 116h224l-156 -730q-23 -108 53 -108q57 0 97 31l-21 -99q-49 -62 -136.5 -100.5t-186.5 -38.5q-94 0 -140.5 50t-39.5 148q0 31 7 61q-46 -127 -135.5 -195.5t-208.5 -68.5q-133 0 -215.5 102 t-82.5 283zM559 354q-1 -185 98 -185q54 0 99.5 57t69.5 158l96 450q-8 27 -36 45t-70 18q-51 0 -94.5 -35.5t-72.5 -92.5t-50 -129t-30.5 -145t-9.5 -141z" glyph-name="a" horiz-adv-x="1283" unicode="a"/><glyph d="M1323 665q0 -192 -70 -349.5t-194.5 -248t-278.5 -90.5q-101 0 -168 39.5t-92 99.5l-137 -116h-225l264 1239q9 44 -0.5 62.5t-48.5 30.5l-63 17l21 95l523 58l-153 -675q48 107 132 164.5t192 57.5q133 0 215.5 -101.5t82.5 -282.5zM939 673q0 184 -98 184 q-55 0 -100.5 -56.5t-68.5 -158.5l-96 -449q7 -28 35 -46t70 -18q63 0 114.5 53.5t81.5 137t46 175t16 178.5z" glyph-name="b" horiz-adv-x="1279" unicode="b"/><glyph d="M627 -24q-87 0 -165.5 29t-140.5 84.5t-98.5 145.5t-36.5 202q0 173 76.5 313t212.5 219.5t306 79.5q165 1 259.5 -76t94.5 -190q0 -75 -50.5 -123t-125.5 -48q-68 0 -115.5 45t-47.5 113q0 51 28 91.5t74 57.5q-19 5 -46 5q-119 0 -197 -121t-78 -304q0 -159 70 -241 t187 -82q58 0 116 20.5t98 58.5l-21 -101q-52 -78 -161 -128t-239 -50z" glyph-name="c" horiz-adv-x="1026" unicode="c"/><glyph d="M174 362q0 192 70 349t194.5 247.5t278.5 90.5q82 0 141.5 -26.5t89.5 -69.5l61 286q9 44 -1 62.5t-48 30.5l-63 17l21 95l523 58l-256 -1205q-23 -108 53 -108q57 0 97 31l-21 -99q-50 -62 -137.5 -100.5t-185.5 -38.5q-95 0 -142 50t-40 148q0 31 7 61 q-46 -127 -135.5 -195.5t-208.5 -68.5q-133 0 -215.5 101.5t-82.5 283.5zM559 354q-1 -185 97 -185q55 0 100.5 57t68.5 158l96 450q-7 27 -35 45t-70 18q-51 0 -94.5 -35.5t-72.5 -92.5t-50 -129t-30.5 -145t-9.5 -141z" glyph-name="d" horiz-adv-x="1287" unicode="d"/><glyph d="M625 -24q-87 0 -165 29t-140 84t-98.5 145t-36.5 202q0 174 81 315.5t219.5 219.5t305.5 78q160 0 256.5 -65t96.5 -172q0 -68 -31.5 -121.5t-99.5 -97t-155.5 -77.5t-218.5 -72l-62 -19q15 -126 82 -187.5t168 -61.5q61 0 119.5 20.5t97.5 58.5l-21 -101 q-54 -79 -161.5 -128.5t-236.5 -49.5zM778 928q-86 0 -143 -114t-62 -286l40 14q111 37 176.5 115.5t65.5 171.5q0 46 -19.5 72.5t-57.5 26.5z" glyph-name="e" horiz-adv-x="1041" unicode="e"/><glyph d="M347 1038q44 235 173.5 362t325.5 127q147 0 235 -62t88 -159q0 -64 -44.5 -108t-107.5 -44q-60 0 -102.5 43t-42.5 104q0 59 40 102q-68 -5 -111 -72.5t-64 -209.5l-19 -123l259 11l-31 -142l-243 6l-85 -499q-33 -194 -79.5 -340.5t-101 -243.5t-123 -157.5t-141 -86 t-159.5 -25.5q-112 0 -181.5 58.5t-69.5 150.5q0 65 43.5 109t106.5 44q59 0 100 -44t41 -106q0 -42 -22 -77q54 23 90 100.5t60 226.5l139 884h-135l19 91l133 30z" glyph-name="f" horiz-adv-x="784" unicode="f"/><glyph d="M203 666q0 168 138.5 271t374.5 103q169 0 279 -48l375 12l-29 -146l-219 44q62 -76 62 -179q0 -165 -139 -273.5t-376 -108.5q-68 0 -136 10q-30 -8 -47 -24.5t-17 -38.5q0 -54 123 -74l198 -31q165 -26 251 -105t86 -200q0 -161 -164 -257t-424 -96q-234 0 -375 63.5 t-141 170.5q0 75 79 128.5t223 71.5q-71 26 -107 73t-36 107q0 84 69.5 146t197.5 86q-122 38 -184 117t-62 178zM562 620q0 -76 27.5 -121t78.5 -45q50 0 88 49t55.5 117.5t17.5 141.5q0 77 -28 121.5t-80 44.5q-49 0 -86.5 -50t-55 -118.5t-17.5 -139.5zM301 -201 q0 -70 66 -113t180 -43q113 0 184 39t71 100q0 49 -41.5 78t-145.5 45l-195 30h-2q-56 -18 -86.5 -53t-30.5 -83z" glyph-name="g" horiz-adv-x="1182" unicode="g"/><glyph d="M855 1502l-168 -723q56 131 153.5 200.5t223.5 69.5q160 0 225.5 -96t28.5 -272l-82 -384q-22 -108 53 -108q57 0 98 31l-21 -99q-51 -62 -139.5 -100.5t-187.5 -38.5q-118 0 -167 68t-20 205l91 443q16 76 -6.5 118t-75.5 42q-59 0 -113.5 -59t-76.5 -157l-136 -642 h-376l263 1239q9 44 -0.5 62.5t-48.5 30.5l-63 17l21 95z" glyph-name="h" horiz-adv-x="1330" unicode="h"/><glyph d="M578 1163q-80 0 -134 53t-54 129q0 83 60 141t145 58q79 0 132 -52.5t53 -130.5q0 -82 -59 -140t-143 -58zM742 1040l-159 -743q-22 -108 53 -108q57 0 98 31l-21 -99q-51 -61 -140 -100t-188 -39q-118 0 -167 68.5t-20 204.5l110 519q10 43 0 62t-48 32l-62 16l20 95z" glyph-name="i" horiz-adv-x="686" unicode="i"/><glyph d="M590 1163q-80 0 -133.5 53t-53.5 129q0 83 60 141t144 58q79 0 132.5 -53t53.5 -130q0 -82 -59 -140t-144 -58zM752 1040l-201 -945q-27 -127 -77.5 -220.5t-130.5 -160.5t-180.5 -111.5t-240.5 -78.5l-29 90q131 71 183 161.5t96 297.5l148 701q9 44 -0.5 62.5 t-47.5 31.5l-62 16l20 95z" glyph-name="j" horiz-adv-x="677" unicode="j"/><glyph d="M1032 -18q-105 0 -171.5 71.5t-110.5 224.5l-59 198l-65 -50l-91 -426h-377l264 1239q9 44 -0.5 62.5t-48.5 30.5l-63 17l21 95l523 58l-203 -958l303 256q83 73 74 104t-105 43l16 80h486l-16 -80q-82 -18 -157.5 -57.5t-192.5 -129.5l-66 -51l119 -358 q29 -88 60.5 -123.5t70.5 -35.5q45 0 78 28l-21 -100q-39 -61 -110 -99.5t-158 -38.5z" glyph-name="k" horiz-adv-x="1237" unicode="k"/><glyph d="M840 1502l-257 -1205q-23 -108 53 -108q57 0 97 31l-21 -99q-50 -61 -139 -100t-188 -39q-119 0 -168 68.5t-20 204.5l210 984q10 43 0 62t-48 31l-63 17l20 95z" glyph-name="l" horiz-adv-x="686" unicode="l"/><glyph d="M323 774q9 44 -0.5 62.5t-47.5 31.5l-63 16l20 95l510 61l-55 -261q52 131 145.5 200.5t214.5 69.5q140 0 208.5 -71.5t59.5 -185.5q45 117 138.5 187t210.5 70q158 0 223 -95.5t28 -271.5l-83 -385q-22 -108 53 -108q57 0 98 31l-21 -99q-50 -61 -139 -100t-188 -39 q-118 0 -167 68t-20 205l93 447q15 73 -6 114.5t-69 41.5q-56 0 -106.5 -60.5t-71.5 -159.5l-135 -638h-375l147 705q15 71 -6 112t-70 41q-56 0 -106 -59.5t-71 -157.5l-137 -641h-377z" glyph-name="m" horiz-adv-x="1926" unicode="m"/><glyph d="M742 1040l-55 -261q56 131 153 200.5t224 69.5q160 0 225.5 -96.5t28.5 -271.5l-82 -384q-23 -108 53 -108q57 0 97 31l-21 -99q-50 -61 -138.5 -100t-187.5 -39q-118 0 -167 68t-21 205l92 443q16 76 -7 118t-76 42q-59 0 -113.5 -60.5t-76.5 -160.5l-135 -637h-377 l165 774q9 44 -0.5 62.5t-47.5 31.5l-63 16l20 95z" glyph-name="n" horiz-adv-x="1330" unicode="n"/><glyph d="M665 -23q-221 0 -349 128.5t-128 339.5q0 126 47.5 237.5t129.5 192t198.5 127.5t249.5 47q221 0 349 -128.5t128 -339.5q0 -126 -47.5 -237.5t-129.5 -192t-198.5 -127.5t-249.5 -47zM677 104q55 0 102 61.5t75.5 155.5t44.5 197t16 194q0 210 -114 210 q-55 0 -102 -61.5t-75.5 -155t-44.5 -197t-16 -194.5q0 -210 114 -210z" glyph-name="o" horiz-adv-x="1260" unicode="o"/><glyph d="M1322 665q0 -192 -70 -349.5t-194.5 -248t-278.5 -90.5q-81 0 -141 27.5t-91 70.5l-66 -329q-7 -36 2 -53t43 -29t115 -25l-21 -99h-691l21 99q88 17 115.5 36.5t38.5 68.5l219 1030q9 43 -1 62t-48 32l-61 16l19 95l510 61l-55 -236q47 118 135 181.5t202 63.5 q133 0 215.5 -101.5t82.5 -282.5zM937 673q1 184 -97 184q-55 0 -100.5 -56.5t-68.5 -158.5l-96 -449q7 -28 35 -46t70 -18q63 0 114.5 53.5t81 137t45.5 175t16 178.5z" glyph-name="p" horiz-adv-x="1278" unicode="p"/><glyph d="M174 362q0 192 70 349t194.5 247.5t278.5 90.5q101 0 168 -39t93 -99l135 116h225l-271 -1272q-11 -49 11.5 -70.5t105.5 -37.5l-23 -107h-690l23 107q112 14 147.5 35t48.5 71l114 461q-48 -114 -134.5 -175.5t-197.5 -61.5q-133 0 -215.5 102t-82.5 283zM559 365 q-1 -196 100 -196q54 0 98.5 56.5t68.5 158.5l96 450q-9 27 -35 45t-64 18q-75 0 -137 -81t-94.5 -202.5t-32.5 -248.5z" glyph-name="q" horiz-adv-x="1267" unicode="q"/><glyph d="M740 1040l-66 -330q96 186 163 261.5t148 75.5q63 0 94.5 -43.5t31.5 -119.5q0 -66 -26 -130q-49 20 -124 20q-99 0 -179 -38.5t-122 -104.5l-125 -631h-377l165 774q9 43 -1 62t-48 32l-61 16l19 95z" glyph-name="r" horiz-adv-x="961" unicode="r"/><glyph d="M121 82l49 275h90q6 -124 73 -192t167 -68q68 0 107 31.5t40 83.5q0 46 -24 79t-87 68l-91 49q-107 57 -159.5 128.5t-52.5 171.5q0 155 132.5 248t356.5 93q220 0 354 -77l-49 -266h-90q-7 104 -63.5 164t-151.5 60q-63 0 -97.5 -28.5t-35.5 -77.5q0 -43 27.5 -76 t94.5 -70l91 -49q103 -56 152 -128t48 -173q0 -69 -29.5 -130.5t-88 -111.5t-157.5 -79.5t-227 -29.5q-116 0 -220.5 30.5t-158.5 74.5z" glyph-name="s" horiz-adv-x="985" unicode="s"/><glyph d="M496 -19q-165 0 -234 94.5t-32 270.5l109 518h-136l19 91l144 34l43 198l391 50l-52 -246l256 15l-31 -142l-251 6l-104 -494q-40 -189 106 -189q89 0 149 50l-20 -100q-46 -66 -148.5 -111t-208.5 -45z" glyph-name="t" horiz-adv-x="822" unicode="t"/><glyph d="M738 1041l-147 -707q-16 -77 7 -118.5t78 -41.5q61 0 112 56.5t73 153.5l84 390q10 43 0 61.5t-48 33.5l-53 16l20 93l514 63l-158 -744q-23 -108 53 -108q53 0 99 31l-21 -99q-50 -61 -138 -100t-182 -39q-96 0 -144.5 50t-41.5 148q0 24 9 63q-59 -127 -157.5 -196.5 t-219.5 -69.5q-161 0 -228.5 100t-30.5 276l89 421q9 44 -1 63t-47 31l-62 16l19 95z" glyph-name="u" horiz-adv-x="1323" unicode="u"/><glyph d="M636 1041l33 -832q248 273 325 485h-8q-74 0 -126 52t-52 126q0 77 54 127t132 50q82 0 136 -52.5t54 -136.5q0 -99 -88.5 -254t-216 -308t-278.5 -301h-281l-52 795q-2 36 -17 52.5t-57 29.5l-49 11l20 98z" glyph-name="v" horiz-adv-x="1090" unicode="v"/><glyph d="M644 1041l26 -792q216 325 227 584l-5 152l351 55l24 -832q238 251 318 486h-5q-73 0 -124.5 52t-51.5 126q0 77 54 127t134 50q81 0 134.5 -52.5t53.5 -136.5q0 -76 -52.5 -187.5t-138 -229.5t-185.5 -232t-204 -214h-274l-17 498q-117 -267 -307 -498h-280l-45 795 q-2 36 -17 52.5t-58 29.5l-48 11l20 98z" glyph-name="w" horiz-adv-x="1679" unicode="w"/><glyph d="M78 145q0 71 49 120t122 49q49 0 88 -24.5t60 -65.5q23 31 57 83l72 110l-127 362q-17 48 -35.5 66t-64.5 30l-52 10l20 98l426 56l116 -326l44 81q76 144 137.5 199.5t141.5 55.5q75 0 121.5 -47.5t46.5 -119.5q0 -71 -49 -120t-121 -49q-49 0 -88.5 24.5t-60.5 65.5 q-10 -14 -57 -84l-76 -116l94 -264q29 -83 62 -117.5t78 -34.5q46 0 91 30l-21 -99q-36 -62 -111 -101t-165 -39q-107 0 -173 60.5t-111 191.5l-27 76l-40 -73q-77 -144 -138 -200t-141 -56q-75 0 -121.5 48t-46.5 120z" glyph-name="x" horiz-adv-x="1167" unicode="x"/><glyph d="M636 1041l32 -889q259 323 331 544q-2 0 -8 -0.5t-9 -0.5q-74 0 -126 52t-53 125q-1 77 53 128t133 51q82 0 136 -52.5t55 -136.5q1 -113 -119 -326t-334 -477q-98 -119 -236 -275q-122 -141 -205 -244h-380v31q111 58 238.5 137.5t204.5 140.5l-78 937q-4 41 -18.5 58 t-57.5 30l-48 11l20 98z" glyph-name="y" horiz-adv-x="1092" unicode="y"/><glyph d="M69 58l663 690h-307q-65 0 -93 -19.5t-54 -84.5h-90l107 383h814l-21 -97l-535 -542l59 -36q82 -49 134 -68.5t105 -19.5q88 -2 158 103l67 -59q-83 -169 -192 -252t-229 -83q-77 0 -145 27t-168 95l-47 32l-140 -158z" glyph-name="z" horiz-adv-x="1003" unicode="z"/><glyph d="M847 1044q-35 -160 -131.5 -236.5t-281.5 -96.5q174 -31 233 -135.5t21 -283.5l-46 -217q-15 -77 -15.5 -132.5t34 -86t108.5 -30.5l-23 -110h-48q-240 0 -332.5 100t-50.5 301l68 327q25 119 -11.5 167.5t-135.5 48.5l23 109q96 0 154.5 48.5t83.5 159.5l58 265 q40 177 171 259.5t370 82.5h48l-23 -110q-103 0 -151.5 -45t-71.5 -152z" glyph-name="braceleft" horiz-adv-x="829" unicode="{"/><glyph d="M254 -284l397 1868h200l-397 -1868h-200z" glyph-name="bar" horiz-adv-x="829" unicode="|"/><glyph d="M426 1044l48 233q22 107 -7.5 152t-132.5 45l24 110h48q240 0 335.5 -82.5t60.5 -259.5l-55 -265q-22 -112 16 -160t134 -48l-24 -109q-99 0 -156.5 -48.5t-82.5 -167.5l-70 -327q-43 -201 -179 -301t-375 -100h-48l23 110q57 0 97 16.5t66 51.5t41.5 76.5t29.5 104.5 l46 217q38 179 141 283.5t291 135.5q-177 20 -240.5 96.5t-30.5 236.5z" glyph-name="braceright" horiz-adv-x="829" unicode="}"/><glyph d="M1009 574q72 0 121.5 53.5t68.5 160.5h162q-24 -203 -117.5 -310t-233.5 -107q-58 0 -115.5 22t-104.5 53.5t-92 63t-92.5 53.5t-90.5 22q-74 0 -123.5 -53.5t-68.5 -162.5h-161q23 204 117 312t236 108q58 0 116 -22t105 -53.5t91.5 -63.5t92 -54t89.5 -22z" glyph-name="asciitilde" horiz-adv-x="1279" unicode="~"/><glyph d="M497 997q79 0 130 -46t51 -114q0 -73 -54.5 -122t-132.5 -49t-129 46t-51 114q0 73 54.5 122t131.5 49zM251 -505q-99 0 -154.5 52t-55.5 141q0 73 40.5 171.5t158.5 336.5l165 329h59l11 -347q6 -337 2 -418q-5 -117 -61.5 -191t-164.5 -74z" glyph-name="exclamdown" horiz-adv-x="637" unicode="¡"/><glyph d="M759 0h-79l39 186q-85 9 -159 42t-133 89t-93 142t-34 191q0 174 83 313.5t231 219t334 81.5l38 180h80l-39 -183q148 -16 234 -88.5t86 -167.5q0 -68 -47 -112.5t-115 -44.5q-63 0 -107 42t-44 104q0 42 22 77.5t58 54.5q-47 13 -95 13q-3 0 -9 -0.5t-9 -0.5l-155 -727 q61 -29 137 -29q143 0 231 80l-21 -100q-52 -76 -159.5 -125.5t-235.5 -53.5zM693 700q0 -155 85 -240l139 658q-101 -41 -162.5 -153.5t-61.5 -264.5z" glyph-name="cent" horiz-adv-x="1283" unicode="¢"/><glyph d="M284 690l17 79h143q-42 144 -41 243q4 212 159 336.5t397 124.5q183 0 290 -70.5t107 -181.5q0 -65 -44.5 -110t-109.5 -45t-107.5 43t-42.5 108q0 82 68 122q-38 7 -71 7q-71 0 -129.5 -27t-97.5 -87.5t-40 -147.5q0 -50 8 -104t22.5 -117.5t19.5 -93.5h294l-18 -79 h-269v-13q-3 -123 -82 -213.5t-206 -144.5h661l-75 -319h-990l50 237q292 88 296 300q2 57 -25 153h-184z" glyph-name="sterling" horiz-adv-x="1283" unicode="£"/><glyph d="M568 139q-122 0 -214 62l-207 -171l-117 148l206 171q-43 106 -16 231q26 124 114 231l-133 171l179 148l134 -171q118 63 242 63t215 -64l208 172l117 -148l-208 -172q41 -107 15 -230q-27 -126 -113 -229l135 -173l-179 -147l-135 172q-119 -64 -243 -64zM608 327 q103 0 189 72.5t109 180.5t-32.5 180.5t-157.5 72.5q-103 0 -189 -72t-109 -181q-23 -108 32.5 -180.5t157.5 -72.5z" glyph-name="currency" horiz-adv-x="1310" unicode="¤"/><glyph d="M247 496h308l41 196h-308l17 79h275l-130 413q-30 95 -57 124t-101 40l20 96h662l-21 -96q-83 -10 -102 -42.5t3 -117.5l88 -357l235 347q27 40 40 64t19 44t-4 31t-30.5 18.5t-58.5 12.5l14 96h425l-20 -96q-79 -11 -119.5 -42t-114.5 -131l-302 -404h277l-16 -79h-309 l-41 -196h308l-17 -79h-308l-42 -198q-6 -27 -6 -43.5t7 -30t26.5 -22t48 -15t76.5 -12.5l-21 -96h-737l21 96q119 15 154.5 37t48.5 86l42 198h-308z" glyph-name="yen" horiz-adv-x="1283" unicode="¥"/><glyph d="M483 790l169 794h199l-169 -794h-199zM254 -284l169 794h199l-168 -794h-200z" glyph-name="brokenbar" horiz-adv-x="829" unicode="¦"/><glyph d="M414 1127q0 163 130 255.5t371 92.5q205 0 352 -66l-51 -252h-94q-2 80 -53.5 134t-144.5 54q-82 0 -123.5 -33.5t-41.5 -89.5q0 -46 28 -77.5t89 -61.5l79 -36q104 -49 164 -91t95.5 -102t35.5 -138q0 -148 -116.5 -231t-290.5 -83q-9 0 -29 2q111 -60 164 -133.5 t53 -166.5q0 -163 -131 -257.5t-370 -94.5q-130 0 -240 24t-175 60l52 262h94q3 -94 63.5 -155t185.5 -61q86 0 131 35t45 92q0 47 -28 78t-97 65l-78 35q-157 75 -226 146.5t-69 185.5q0 148 116.5 230.5t290.5 82.5q20 0 30 -1q-211 115 -211 296zM616 501q80 -45 156 -45 q66 0 107.5 40t41.5 101q0 82 -101 137q-80 45 -156 45q-66 0 -107.5 -39.5t-41.5 -101.5q0 -82 101 -137z" glyph-name="section" horiz-adv-x="1172" unicode="§"/><glyph d="M556 1183q-72 0 -120 47.5t-48 115.5q0 74 53.5 126.5t129.5 52.5q71 0 118.5 -47.5t47.5 -116.5q0 -74 -53 -126t-128 -52zM1030 1183q-71 0 -119 47.5t-48 115.5q0 74 53.5 126.5t128.5 52.5q71 0 119 -47.5t48 -116.5q0 -74 -53 -126t-129 -52z" glyph-name="dieresis" unicode="¨"/><glyph d="M932 -28q-191 0 -349.5 91.5t-250 251.5t-91.5 354q0 173 61.5 323.5t167.5 255.5t252.5 165.5t311.5 60.5q142 0 270 -54t220.5 -146.5t146.5 -222t54 -274.5q0 -173 -62 -323.5t-168 -256t-252.5 -165.5t-310.5 -60zM932 51q143 0 272.5 54t224 148.5t150.5 230.5 t56 292q0 171 -80.5 313.5t-218.5 223.5t-303 81q-144 0 -273.5 -54t-224 -148.5t-150 -230t-55.5 -291.5q0 -172 80 -314.5t218 -223.5t304 -81zM878 620q1 -94 38.5 -147t103.5 -53q54 0 103 45t77 121h54l-42 -193q-77 -52 -217 -52q-77 0 -144 21.5t-119.5 63.5 t-81.5 109.5t-28 153.5q3 188 132 303t332 115q74 0 140.5 -18t107.5 -46l-31 -185h-53q-2 78 -37 123t-96 45q-66 0 -122.5 -64.5t-87 -157.5t-29.5 -184z" glyph-name="copyright" horiz-adv-x="1659" unicode="©"/><glyph d="M293 1022q-1 168 89.5 277.5t228.5 109.5q61 0 101.5 -23.5t56.5 -59.5l85 69h145l-82 -386q-14 -65 31 -65q31 0 54 14l-14 -65q-32 -38 -85.5 -61.5t-115.5 -23.5q-117 0 -114 110q0 16 4 34q-26 -70 -79 -109t-124 -39q-80 0 -130 58t-51 160zM540 1019q3 -89 54 -89 q29 0 52 26.5t33 72.5l53 249q-10 29 -56 29q-35 0 -62.5 -28.5t-43 -73.5t-23.5 -93t-7 -93z" glyph-name="a.sups" horiz-adv-x="816" unicode="ª"/><glyph d="M169 527l9 44l561 441h167l-357 -468l165 -459h-151zM741 527l9 44l561 441h168l-358 -468l165 -459h-151z" glyph-name="guillemetleft" horiz-adv-x="1553" unicode="«"/><glyph d="M231 502l44 208h1045l-22 -104l-111 -523h-209l89 419h-836z" glyph-name="logicalnot" horiz-adv-x="1292" unicode="¬"/><glyph d="M932 -28q-191 0 -349.5 91.5t-250 251.5t-91.5 354q0 173 61.5 323.5t167.5 255.5t252.5 165.5t311.5 60.5q142 0 270 -54t220.5 -146.5t146.5 -222t54 -274.5q0 -173 -62 -323.5t-168 -256t-252.5 -165.5t-310.5 -60zM932 51q143 0 272.5 54t224 148.5t150.5 230.5 t56 292q0 171 -80.5 313.5t-218.5 223.5t-303 81q-144 0 -273.5 -54t-224 -148.5t-150 -230t-55.5 -291.5q0 -172 80 -314.5t218 -223.5t304 -81zM925 415l-13 -59h-382l12 59q50 7 66 19t23 44l104 490q8 32 -3.5 44t-58.5 19l13 59h341q169 0 254 -50t85 -144 q0 -140 -173 -202l57 -163q23 -63 38 -86.5t36 -31.5l-12 -58h-248l-99 304h-56l-37 -177q-7 -34 2.5 -46.5t50.5 -20.5zM987 1020l-62 -293l33 1q80 4 123 51.5t43 111.5q0 124 -116 129h-21z" glyph-name="registered" horiz-adv-x="1659" unicode="®"/><glyph d="M436 1236l43 203h677l-43 -203h-677z" glyph-name="macron" unicode="¯"/><glyph d="M697 1400q145 0 233 -88.5t88 -219.5q0 -158 -118.5 -269.5t-289.5 -111.5q-146 0 -234 88.5t-88 219.5q0 158 118.5 269.5t290.5 111.5zM686 1267q-97 0 -170 -72.5t-73 -171.5q0 -82 48 -130.5t129 -48.5q97 0 170 72.5t73 171.5q0 82 -48 130.5t-129 48.5z" glyph-name="degree" horiz-adv-x="869" unicode="°"/><glyph d="M262 648l44 209h418l58 272h208l-58 -272h419l-45 -209h-418l-58 -272h-208l57 272h-417zM142 84l44 209h1045l-45 -209h-1044z" glyph-name="plusminus" horiz-adv-x="1292" unicode="±"/><glyph d="M833 818h-567l32 152l210 160q123 94 166 146.5t41 108.5q-1 46 -35.5 74.5t-88.5 28.5q-112 0 -167 -114l-57 22q40 112 124 175t212 63q111 0 183.5 -56t72.5 -148q1 -94 -63.5 -157.5t-246.5 -159.5l-186 -93h413z" glyph-name="two.sups" horiz-adv-x="748" unicode="²"/><glyph d="M737 1390q-1 43 -35.5 70.5t-92.5 27.5q-112 0 -171 -111l-57 22q37 115 126.5 175t204.5 60q66 0 123.5 -19.5t96.5 -63t39 -103.5q1 -78 -67.5 -126.5t-168.5 -58.5q87 -22 135.5 -72.5t49.5 -118.5q0 -84 -53 -147.5t-135 -93.5t-178 -30q-105 0 -185 48.5t-80 129.5 q0 40 27.5 67.5t69.5 27.5q40 0 66.5 -26t26.5 -66q0 -50 -41 -76q35 -16 82 -16q67 0 114.5 44.5t46.5 120.5q0 65 -47.5 97.5t-118.5 32.5q-34 0 -55 -3l14 74q49 2 90 8.5t83.5 20.5t66.5 41t23 64z" glyph-name="three.sups" horiz-adv-x="771" unicode="³"/><glyph d="M853 1555h407v-12l-502 -390h-123z" glyph-name="acute" unicode="´"/><glyph d="M29 -460l128 602q3 17 90.5 431.5t94.5 453.5h407q-90 -306 -153 -599q-22 -94 -14 -150t36.5 -79t82.5 -23q48 0 90.5 22.5t68.5 64.5l157 764h415q-18 -66 -93 -375.5t-88 -365.5q-35 -149 80 -149q28 0 46 7l-21 -93q-112 -68 -266 -68q-117 0 -172.5 54.5 t-53.5 153.5q-43 -92 -127 -153t-183 -61q-27 0 -59 5q-41 -236 -54 -442h-412z" glyph-name="mugreek" horiz-adv-x="1348" unicode="µ"/><glyph d="M622 -220l149 699h-42q-71 0 -137 16t-125.5 50.5t-103.5 84t-70 121t-26 156.5q0 163 89.5 287.5t232.5 187t314 62.5h231l-354 -1664h-158zM1362 1444h335l-21 -99q-114 -12 -152.5 -39.5t-55.5 -107.5l-302 -1418h-158z" glyph-name="paragraph" horiz-adv-x="1442" unicode="¶"/><glyph d="M415 408q-88 0 -146 55.5t-58 135.5q0 88 62 147t150 59t146 -55t58 -137q0 -87 -62 -146t-150 -59z" glyph-name="middledot" horiz-adv-x="585" unicode="‧"/><glyph d="M415 408q-88 0 -146 55.5t-58 135.5q0 88 62 147t150 59t146 -55t58 -137q0 -87 -62 -146t-150 -59z" glyph-name="middledot" horiz-adv-x="585" unicode="·"/><glyph d="M422 -480q-135 0 -218 75l20 90q57 -34 127 -34q51 0 79 17.5t28 48.5q0 32 -27 50t-78 18q-33 0 -37 -2l16 77l185 190h82l-11 -52l-87 -86q101 -5 161.5 -55.5t60.5 -130.5q0 -93 -81 -149.5t-220 -56.5z" glyph-name="cedilla" unicode="¸"/><glyph d="M827 1617l-137 -649q-9 -43 14 -59.5t101 -24.5l-14 -67h-512l14 67q83 8 112.5 24.5t38.5 59.5l100 471q1 5 -1.5 7.5t-7.5 1.5l-134 -18l13 67l310 120h103z" glyph-name="one.sups" horiz-adv-x="696" unicode="¹"/><glyph d="M593 804q-135 0 -213 72.5t-79 194.5q0 145 107 241t268 96q135 0 213 -72.5t79 -193.5q1 -146 -106.5 -242t-268.5 -96zM602 889q39 0 69.5 59.5t44 135.5t12.5 141q-1 98 -61 98q-39 0 -69.5 -59.5t-44.5 -135.5t-13 -141q3 -98 62 -98z" glyph-name="o.sups" horiz-adv-x="800" unicode="º"/><glyph d="M891 569l-9 -43l-561 -441h-168l358 468l-165 459h151zM1466 569l-9 -43l-561 -441h-168l357 468l-164 459h151z" glyph-name="guillemetright" horiz-adv-x="1564" unicode="»"/><glyph d="M790 1445l-137 -649q-10 -43 13.5 -60t100.5 -25l-13 -67h-512l13 67q82 8 112.5 25t39.5 59l100 471q1 5 -1.5 7.5t-7.5 1.5l-134 -17l13 66l310 121h103zM317 0l1274 1444h170l-1274 -1444h-170zM1301 0l30 149h-368l23 108l528 543h167l-104 -490h110l-34 -161h-109 l-32 -149h-211zM1367 310l62 293l-281 -293h219z" glyph-name="onequarter" horiz-adv-x="1670" unicode="¼"/><glyph d="M790 1445l-137 -649q-10 -43 13.5 -60t100.5 -25l-13 -67h-512l13 67q82 8 112.5 25t39.5 59l100 471q1 5 -1.5 7.5t-7.5 1.5l-134 -17l13 66l310 121h103zM317 0l1274 1444h170l-1274 -1444h-170zM1688 0h-567l32 153l210 160q122 92 165 145t42 109q-1 46 -35.5 74.5 t-88.5 28.5q-112 0 -167 -114l-57 22q39 112 123 175t213 63q112 0 184 -55.5t72 -148.5q1 -94 -63.5 -157t-246.5 -159l-186 -93h413z" glyph-name="onehalf" horiz-adv-x="1787" unicode="½"/><glyph d="M700 1217q-1 43 -35.5 70.5t-93.5 27.5q-112 0 -170 -111l-57 22q37 115 126.5 175t204.5 60q104 0 181 -48.5t78 -137.5q1 -78 -67.5 -126t-168.5 -59q87 -22 135.5 -72.5t49.5 -117.5q0 -85 -53.5 -148.5t-135 -93.5t-177.5 -30q-105 0 -185 48.5t-80 129.5 q0 40 27 67.5t69 27.5q41 0 67.5 -26t26.5 -66q0 -49 -41 -75q37 -17 81 -17q68 0 115.5 45t46.5 121q0 64 -47.5 96.5t-118.5 32.5q-34 0 -56 -3l15 74q49 2 90 8.5t83.5 20.5t66.5 41t23 64zM346 0l1273 1444h170l-1273 -1444h-170zM1329 0l30 149h-367l22 108l528 543 h167l-104 -490h110l-34 -161h-109l-31 -149h-212zM1395 310l62 293l-281 -293h219z" glyph-name="threequarters" horiz-adv-x="1699" unicode="¾"/><glyph d="M661 997q78 0 129 -46t51 -114q0 -73 -54.5 -122t-131.5 -49q-78 0 -129.5 46t-51.5 114q0 73 54.5 122t132.5 49zM662 520l-28 -402q-149 0 -237.5 -13.5t-126.5 -40t-39 -71.5q-2 -70 98 -119.5t329 -83.5q-14 -134 -88 -215t-194 -81q-129 0 -214 103t-85 279 q0 214 128 356.5t377 180.5l13 107h67z" glyph-name="questiondown" horiz-adv-x="798" unicode="¿"/><glyph d="M1047 1854l85 -312h-95l-317 302v10h327zM1354 306q16 -121 44 -158t107 -49l-21 -99h-727l21 99q108 16 137 55.5t18 153.5l-16 153h-432l-76 -145q-44 -83 -51 -124.5t19 -61t97 -31.5l-21 -99h-457l21 99q85 13 127.5 51t114.5 168l627 1129h324zM551 585h354l-57 563 z" glyph-name="Agrave" horiz-adv-x="1481" unicode="À"/><glyph d="M1114 1855h347v-9l-435 -303h-103zM1354 306q16 -121 44 -158t107 -49l-21 -99h-727l21 99q108 16 137 55.5t18 153.5l-16 153h-432l-76 -145q-44 -83 -51 -124.5t19 -61t97 -31.5l-21 -99h-457l21 99q85 13 127.5 51t114.5 168l627 1129h324zM551 585h354l-57 563z" glyph-name="Aacute" horiz-adv-x="1481" unicode="Á"/><glyph d="M836 1543h-111l256 311h234l130 -311h-106l-170 137zM1354 306q16 -121 44 -158t107 -49l-21 -99h-727l21 99q108 16 137 55.5t18 153.5l-16 153h-432l-76 -145q-44 -83 -51 -124.5t19 -61t97 -31.5l-21 -99h-457l21 99q85 13 127.5 51t114.5 168l627 1129h324zM551 585 h354l-57 563z" glyph-name="Acircumflex" horiz-adv-x="1481" unicode="Â"/><glyph d="M1178 1567q-75 0 -152 54l-25 19q-39 28 -71 28q-29 0 -47 -24.5t-29 -86.5h-99q20 164 73.5 230.5t133.5 66.5q79 0 152 -54l26 -19q37 -28 70 -28q29 0 47.5 25t29.5 87h99q-20 -165 -73.5 -231.5t-134.5 -66.5zM1354 306q16 -121 44 -158t107 -49l-21 -99h-727l21 99 q108 16 137 55.5t18 153.5l-16 153h-432l-76 -145q-44 -83 -51 -124.5t19 -61t97 -31.5l-21 -99h-457l21 99q85 13 127.5 51t114.5 168l627 1129h324zM551 585h354l-57 563z" glyph-name="Atilde" horiz-adv-x="1481" unicode="Ã"/><glyph d="M881 1561q-57 0 -95.5 38t-37.5 94q0 60 43 102.5t103 42.5q57 0 95 -38.5t37 -94.5q0 -59 -42.5 -101.5t-102.5 -42.5zM1242 1561q-57 0 -95 38t-38 94q0 60 43 102.5t103 42.5q57 0 95 -38.5t38 -94.5q-1 -59 -43.5 -101.5t-102.5 -42.5zM1354 306q16 -121 44 -158 t107 -49l-21 -99h-727l21 99q108 16 137 55.5t18 153.5l-16 153h-432l-76 -145q-44 -83 -51 -124.5t19 -61t97 -31.5l-21 -99h-457l21 99q85 13 127.5 51t114.5 168l627 1129h324zM551 585h354l-57 563z" glyph-name="Adieresis" horiz-adv-x="1481" unicode="Ä"/><glyph d="M797 1739q0 88 81 148.5t220 60.5q112 0 185.5 -53t73.5 -140q0 -88 -81 -148t-220 -60q-112 0 -185.5 52.5t-73.5 139.5zM996 1721q0 -40 18 -62.5t48 -22.5q40 0 68.5 39.5t28.5 97.5q0 40 -18 62.5t-49 22.5q-40 0 -68 -39t-28 -98zM1354 306q16 -121 44 -158t107 -49 l-21 -99h-727l21 99q108 16 137 55.5t18 153.5l-16 153h-432l-76 -145q-44 -83 -51 -124.5t19 -61t97 -31.5l-21 -99h-457l21 99q85 13 127.5 51t114.5 168l627 1129h324zM551 585h354l-57 563z" glyph-name="Aring" horiz-adv-x="1481" unicode="Å"/><glyph d="M2198 1444l-73 -410h-89q-4 62 -9 101t-17.5 73.5t-30.5 53t-49.5 32.5t-71.5 20t-100 9l-176 8l-104 -537l149 2q68 2 104 40.5t81 158.5h87l-105 -522h-87q4 124 -16 163t-87 41l-149 1l-110 -565l196 9q177 8 259.5 70t164.5 252h89l-107 -444h-1190l21 99 q107 14 138.5 39.5t46.5 105.5l63 320h-425l-159 -242q-54 -83 -66.5 -126.5t10.5 -65t90 -31.5l-21 -99h-465l21 99q83 11 135.5 52t142.5 172l765 1121h1144zM1102 1327l-419 -638h368l124 638h-73z" glyph-name="AE" horiz-adv-x="2015" unicode="Æ"/><glyph d="M674 544q0 -203 84 -321.5t225 -118.5q114 0 215 94t163 259l92 1l-82 -383q-71 -49 -183 -77t-245 -28l-60 -58q101 -5 161.5 -55.5t60.5 -130.5q0 -93 -81 -149.5t-220 -56.5q-134 0 -219 75l21 90q55 -34 127 -34q51 0 79 17.5t28 48.5q0 32 -27 50t-78 18 q-33 0 -37 -2l16 77l115 117q-125 16 -231.5 65.5t-189 131.5t-128.5 205t-44 274q2 242 114 429.5t307 289t440 101.5q153 0 290 -38.5t217 -94.5l-64 -368l-90 3q-5 177 -77 270t-204 93q-137 0 -252.5 -115.5t-179 -297.5t-63.5 -381z" glyph-name="Ccedilla" horiz-adv-x="1428" unicode="Ç"/><glyph d="M998 1854l85 -312h-95l-317 302v10h327zM1515 1444l-74 -411h-90q-5 92 -16.5 143t-43.5 85t-82 46t-140 16l-180 8l-114 -538l163 2q69 2 106 40.5t85 159.5h84l-110 -522h-85q4 125 -16.5 164t-88.5 41l-162 2l-119 -567l195 8q97 4 157.5 18t112.5 50.5t89.5 95 t81.5 159.5h90l-106 -444h-1201l21 99q100 15 131 37.5t45 89.5l211 992q14 66 -7.5 89t-114.5 38l21 99h1157z" glyph-name="Egrave" horiz-adv-x="1320" unicode="È"/><glyph d="M1065 1855h347v-9l-435 -303h-103zM1515 1444l-74 -411h-90q-5 92 -16.5 143t-43.5 85t-82 46t-140 16l-180 8l-114 -538l163 2q69 2 106 40.5t85 159.5h84l-110 -522h-85q4 125 -16.5 164t-88.5 41l-162 2l-119 -567l195 8q97 4 157.5 18t112.5 50.5t89.5 95t81.5 159.5 h90l-106 -444h-1201l21 99q100 15 131 37.5t45 89.5l211 992q14 66 -7.5 89t-114.5 38l21 99h1157z" glyph-name="Eacute" horiz-adv-x="1320" unicode="É"/><glyph d="M787 1543h-111l257 311h233l130 -311h-106l-170 137zM1515 1444l-74 -411h-90q-5 92 -16.5 143t-43.5 85t-82 46t-140 16l-180 8l-114 -538l163 2q69 2 106 40.5t85 159.5h84l-110 -522h-85q4 125 -16.5 164t-88.5 41l-162 2l-119 -567l195 8q97 4 157.5 18t112.5 50.5 t89.5 95t81.5 159.5h90l-106 -444h-1201l21 99q100 15 131 37.5t45 89.5l211 992q14 66 -7.5 89t-114.5 38l21 99h1157z" glyph-name="Ecircumflex" horiz-adv-x="1320" unicode="Ê"/><glyph d="M832 1561q-57 0 -95 38t-38 94q0 60 43 102.5t103 42.5q57 0 95 -38.5t38 -94.5q-1 -59 -43.5 -101.5t-102.5 -42.5zM1194 1561q-58 0 -96 38t-38 94q0 61 43 103t104 42q57 0 94.5 -38.5t37.5 -94.5q0 -59 -43 -101.5t-102 -42.5zM1515 1444l-74 -411h-90 q-5 92 -16.5 143t-43.5 85t-82 46t-140 16l-180 8l-114 -538l163 2q69 2 106 40.5t85 159.5h84l-110 -522h-85q4 125 -16.5 164t-88.5 41l-162 2l-119 -567l195 8q97 4 157.5 18t112.5 50.5t89.5 95t81.5 159.5h90l-106 -444h-1201l21 99q100 15 131 37.5t45 89.5l211 992 q14 66 -7.5 89t-114.5 38l21 99h1157z" glyph-name="Edieresis" horiz-adv-x="1320" unicode="Ë"/><glyph d="M740 1854l85 -312h-95l-317 303v9h327zM653 226q-14 -66 7.5 -89t113.5 -38l-21 -99h-704l21 99q69 10 101.5 23t48.5 35.5t25 68.5l211 992q15 67 -7.5 91.5t-113.5 35.5l21 99h704l-21 -99q-100 -15 -131 -37.5t-45 -89.5z" glyph-name="Igrave" horiz-adv-x="802" unicode="Ì"/><glyph d="M807 1856h347v-10l-435 -302h-103zM653 226q-14 -66 7.5 -89t113.5 -38l-21 -99h-704l21 99q69 10 101.5 23t48.5 35.5t25 68.5l211 992q15 67 -7.5 91.5t-113.5 35.5l21 99h704l-21 -99q-100 -15 -131 -37.5t-45 -89.5z" glyph-name="Iacute" horiz-adv-x="802" unicode="Í"/><glyph d="M529 1544h-111l257 311h233l130 -311h-106l-170 136zM653 226q-14 -66 7.5 -89t113.5 -38l-21 -99h-704l21 99q69 10 101.5 23t48.5 35.5t25 68.5l211 992q15 67 -7.5 91.5t-113.5 35.5l21 99h704l-21 -99q-100 -15 -131 -37.5t-45 -89.5z" glyph-name="Icircumflex" horiz-adv-x="802" unicode="Î"/><glyph d="M574 1561q-57 0 -95.5 38.5t-37.5 93.5q0 61 43 103.5t103 42.5q57 0 95 -39t37 -95q0 -59 -42.5 -101.5t-102.5 -42.5zM935 1561q-57 0 -95 38.5t-38 93.5q0 61 43 103.5t103 42.5q57 0 95 -38.5t38 -95.5q-1 -59 -43.5 -101.5t-102.5 -42.5zM653 226q-14 -66 7.5 -89 t113.5 -38l-21 -99h-704l21 99q69 10 101.5 23t48.5 35.5t25 68.5l211 992q15 67 -7.5 91.5t-113.5 35.5l21 99h704l-21 -99q-100 -15 -131 -37.5t-45 -89.5z" glyph-name="Idieresis" horiz-adv-x="802" unicode="Ï"/><glyph d="M195 687l22 106h149l91 425q14 66 -8 89t-114 38l21 99h599q225 0 395 -70t267.5 -212t97.5 -339q0 -245 -135.5 -433.5t-373.5 -289t-540 -100.5h-617l21 99q100 15 131 37.5t45 89.5l98 461h-149zM1266 892q0 190 -88.5 308.5t-242.5 127.5l-48 3l-114 -538h210 l-23 -106h-209l-122 -573l55 2q171 9 305 115t205.5 279t71.5 382z" glyph-name="Dbar" horiz-adv-x="1648" unicode="Ð"/><glyph d="M1235 1567q-76 0 -151 54l-26 19q-37 28 -71 28q-28 0 -46.5 -25t-29.5 -86h-99q20 164 73.5 230.5t134.5 66.5q77 0 152 -54l25 -19q37 -28 70 -28q29 0 47.5 25t29.5 87h99q-20 -165 -73.5 -231.5t-134.5 -66.5zM883 1444l422 -1037l147 758q19 101 -1.5 132t-118.5 48 l21 99h445l-21 -99q-93 -15 -125.5 -48t-54.5 -132l-257 -1165h-349l-443 1095l-159 -805q-21 -108 -1 -141t119 -50l-21 -99h-445l21 99q94 16 127 50.5t56 139.5l195 887q18 83 -5 121t-114 48l21 99h541z" glyph-name="Ntilde" horiz-adv-x="1533" unicode="Ñ"/><glyph d="M1121 1854l84 -312h-95l-317 302v10h328zM923 -28q-163 0 -295.5 52t-219 143t-132 212.5t-43.5 262.5q3 171 61.5 322t162 264t256.5 178.5t335 65.5q163 0 295 -52t218 -143t132 -212.5t46 -262.5q0 -170 -58.5 -322t-162.5 -264.5t-258.5 -178t-336.5 -65.5zM897 102 q89 0 168 75.5t132 196.5t83.5 270.5t30.5 298.5q0 202 -61.5 300t-175.5 98q-73 0 -139 -49.5t-115 -134t-85.5 -192t-55 -227.5t-18.5 -237q0 -203 61.5 -301t174.5 -98z" glyph-name="Ograve" horiz-adv-x="1664" unicode="Ò"/><glyph d="M1188 1855h347v-9l-436 -303h-103zM923 -28q-163 0 -295.5 52t-219 143t-132 212.5t-43.5 262.5q3 171 61.5 322t162 264t256.5 178.5t335 65.5q163 0 295 -52t218 -143t132 -212.5t46 -262.5q0 -170 -58.5 -322t-162.5 -264.5t-258.5 -178t-336.5 -65.5zM897 102 q89 0 168 75.5t132 196.5t83.5 270.5t30.5 298.5q0 202 -61.5 300t-175.5 98q-73 0 -139 -49.5t-115 -134t-85.5 -192t-55 -227.5t-18.5 -237q0 -203 61.5 -301t174.5 -98z" glyph-name="Oacute" horiz-adv-x="1664" unicode="Ó"/><glyph d="M909 1543h-111l257 311h233l130 -311h-106l-170 137zM923 -28q-163 0 -295.5 52t-219 143t-132 212.5t-43.5 262.5q3 171 61.5 322t162 264t256.5 178.5t335 65.5q163 0 295 -52t218 -143t132 -212.5t46 -262.5q0 -170 -58.5 -322t-162.5 -264.5t-258.5 -178 t-336.5 -65.5zM897 102q89 0 168 75.5t132 196.5t83.5 270.5t30.5 298.5q0 202 -61.5 300t-175.5 98q-73 0 -139 -49.5t-115 -134t-85.5 -192t-55 -227.5t-18.5 -237q0 -203 61.5 -301t174.5 -98z" glyph-name="Ocircumflex" horiz-adv-x="1664" unicode="Ô"/><glyph d="M1251 1567q-76 0 -151 54l-26 19q-37 28 -70 28q-29 0 -47.5 -25t-29.5 -86h-99q20 164 73.5 230.5t134.5 66.5q77 0 152 -54l25 -19q39 -28 71 -28q28 0 46.5 25t29.5 87h99q-20 -165 -73.5 -231.5t-134.5 -66.5zM923 -28q-163 0 -295.5 52t-219 143t-132 212.5 t-43.5 262.5q3 171 61.5 322t162 264t256.5 178.5t335 65.5q163 0 295 -52t218 -143t132 -212.5t46 -262.5q0 -170 -58.5 -322t-162.5 -264.5t-258.5 -178t-336.5 -65.5zM897 102q89 0 168 75.5t132 196.5t83.5 270.5t30.5 298.5q0 202 -61.5 300t-175.5 98 q-73 0 -139 -49.5t-115 -134t-85.5 -192t-55 -227.5t-18.5 -237q0 -203 61.5 -301t174.5 -98z" glyph-name="Otilde" horiz-adv-x="1664" unicode="Õ"/><glyph d="M954 1561q-57 0 -95 38t-38 94q0 61 43 103t104 42q57 0 94.5 -38.5t37.5 -94.5q-1 -59 -43.5 -101.5t-102.5 -42.5zM1316 1561q-57 0 -95.5 38t-38.5 94q1 61 43.5 103t103.5 42q57 0 94.5 -38.5t37.5 -94.5q0 -59 -43 -101.5t-102 -42.5zM923 -28q-163 0 -295.5 52 t-219 143t-132 212.5t-43.5 262.5q3 171 61.5 322t162 264t256.5 178.5t335 65.5q163 0 295 -52t218 -143t132 -212.5t46 -262.5q0 -170 -58.5 -322t-162.5 -264.5t-258.5 -178t-336.5 -65.5zM897 102q89 0 168 75.5t132 196.5t83.5 270.5t30.5 298.5q0 202 -61.5 300 t-175.5 98q-73 0 -139 -49.5t-115 -134t-85.5 -192t-55 -227.5t-18.5 -237q0 -203 61.5 -301t174.5 -98z" glyph-name="Odieresis" horiz-adv-x="1664" unicode="Ö"/><glyph d="M1208 228l-167 -131l-285 362l-455 -374l-129 156l458 377l-288 366l167 132l286 -362l454 374l129 -156l-458 -377z" glyph-name="multiply" horiz-adv-x="1292" unicode="×"/><glyph d="M924 -28q-295 0 -480 163l-167 -158l-77 82l167 157q-139 177 -134 426q3 171 61.5 322t162 264t256.5 178.5t335 65.5q293 0 480 -164l169 159l76 -82l-169 -159q135 -176 135 -424q0 -170 -58.5 -322t-162.5 -264.5t-258 -178t-336 -65.5zM661 501v-9l639 602 q-41 247 -226 247q-90 0 -169.5 -76t-131.5 -197.5t-82 -270t-30 -296.5zM897 102q89 0 168 75.5t132 196t83.5 270.5t30.5 299v7l-639 -601q41 -247 225 -247z" glyph-name="Oslash" horiz-adv-x="1664" unicode="Ø"/><glyph d="M1171 1854l85 -312h-95l-317 302v10h327zM811 -29q-130 0 -234.5 38.5t-180.5 120.5t-99 208.5t11 303.5l121 572q15 67 -5 90.5t-104 40.5l21 99h695l-21 -99q-102 -18 -133.5 -41t-45.5 -90l-128 -602q-46 -219 23 -325.5t220 -106.5q143 0 244.5 100.5t140.5 291.5 l121 596q19 98 -1.5 128.5t-118.5 48.5l21 99h444l-21 -99q-95 -16 -126.5 -47.5t-53.5 -129.5l-135 -612q-62 -282 -229.5 -433.5t-425.5 -151.5z" glyph-name="Ugrave" horiz-adv-x="1538" unicode="Ù"/><glyph d="M1238 1855h347v-9l-435 -303h-103zM811 -29q-130 0 -234.5 38.5t-180.5 120.5t-99 208.5t11 303.5l121 572q15 67 -5 90.5t-104 40.5l21 99h695l-21 -99q-102 -18 -133.5 -41t-45.5 -90l-128 -602q-46 -219 23 -325.5t220 -106.5q143 0 244.5 100.5t140.5 291.5l121 596 q19 98 -1.5 128.5t-118.5 48.5l21 99h444l-21 -99q-95 -16 -126.5 -47.5t-53.5 -129.5l-135 -612q-62 -282 -229.5 -433.5t-425.5 -151.5z" glyph-name="Uacute" horiz-adv-x="1538" unicode="Ú"/><glyph d="M960 1543h-111l257 311h233l130 -311h-106l-170 137zM811 -29q-130 0 -234.5 38.5t-180.5 120.5t-99 208.5t11 303.5l121 572q15 67 -5 90.5t-104 40.5l21 99h695l-21 -99q-102 -18 -133.5 -41t-45.5 -90l-128 -602q-46 -219 23 -325.5t220 -106.5q143 0 244.5 100.5 t140.5 291.5l121 596q19 98 -1.5 128.5t-118.5 48.5l21 99h444l-21 -99q-95 -16 -126.5 -47.5t-53.5 -129.5l-135 -612q-62 -282 -229.5 -433.5t-425.5 -151.5z" glyph-name="Ucircumflex" horiz-adv-x="1538" unicode="Û"/><glyph d="M1005 1561q-57 0 -95.5 38t-37.5 94q0 60 43 102.5t103 42.5q57 0 95 -38.5t37 -94.5q0 -59 -42.5 -101.5t-102.5 -42.5zM1366 1561q-57 0 -95 38t-38 94q0 60 43 102.5t103 42.5q57 0 95 -38.5t38 -94.5q-1 -59 -43.5 -101.5t-102.5 -42.5zM811 -29q-130 0 -234.5 38.5 t-180.5 120.5t-99 208.5t11 303.5l121 572q15 67 -5 90.5t-104 40.5l21 99h695l-21 -99q-102 -18 -133.5 -41t-45.5 -90l-128 -602q-46 -219 23 -325.5t220 -106.5q143 0 244.5 100.5t140.5 291.5l121 596q19 98 -1.5 128.5t-118.5 48.5l21 99h444l-21 -99 q-95 -16 -126.5 -47.5t-53.5 -129.5l-135 -612q-62 -282 -229.5 -433.5t-425.5 -151.5z" glyph-name="Udieresis" horiz-adv-x="1538" unicode="Ü"/><glyph d="M1180 1855h347v-9l-436 -303h-103zM458 1155q-36 109 -67 143.5t-104 46.5l21 99h719l-20 -99q-99 -13 -120 -48t9 -135l119 -415l285 405q76 107 69.5 143.5t-103.5 49.5l21 99h441l-21 -99q-81 -12 -125 -45t-125 -140l-413 -546l-82 -389q-14 -66 10 -88.5t125 -38.5 l-21 -98h-730l21 98q107 15 140.5 38t47.5 89l82 389z" glyph-name="Yacute" horiz-adv-x="1421" unicode="Ý"/><glyph d="M229 225l211 992q14 67 -7.5 89.5t-113.5 37.5l21 99h704l-21 -99q-99 -15 -130.5 -38t-45.5 -89l-15 -72h155q271 0 409 -100t138 -273q0 -91 -39 -167t-105.5 -127.5t-157 -87t-191.5 -52t-211 -16.5h-173l-20 -97q-14 -67 7.5 -89.5t113.5 -38.5l-21 -98h-704l21 98 q100 16 130.5 38.5t44.5 89.5zM1108 789q0 102 -59.5 169t-166.5 71l-74 2l-127 -596l77 3q115 4 196.5 56.5t117.5 128.5t36 166z" glyph-name="Thorn" horiz-adv-x="1469" unicode="Þ"/><glyph d="M528 0h-385l210 986q57 269 235 403t450 134q224 0 357.5 -82t133.5 -197q0 -50 -22 -89t-57 -63.5t-77 -44.5t-84 -36.5t-77 -33t-57 -40t-22 -53.5q0 -35 24.5 -64.5t85.5 -77.5l77 -61q104 -82 148 -155.5t44 -171.5q0 -168 -139 -274.5t-390 -106.5q-95 0 -183 26.5 t-138 64.5l60 277h90q-2 -109 44.5 -173.5t138.5 -64.5q72 0 119 38.5t47 111.5q0 48 -26.5 89t-90.5 93l-75 60q-76 61 -109 113t-33 118q0 47 19.5 88t51 72.5t69.5 61t76 59.5t69.5 61t51 72t19.5 87q0 78 -46 124.5t-125 46.5q-187 0 -250 -295z" glyph-name="germandbls" horiz-adv-x="1476" unicode="ß"/><glyph d="M911 1554l82 -402h-117l-354 390v12h389zM174 362q0 192 70 349t194.5 247.5t278.5 90.5q101 0 168 -39t93 -99l137 116h224l-156 -730q-23 -108 53 -108q57 0 97 31l-21 -99q-49 -62 -136.5 -100.5t-186.5 -38.5q-94 0 -140.5 50t-39.5 148q0 31 7 61 q-46 -127 -135.5 -195.5t-208.5 -68.5q-133 0 -215.5 102t-82.5 283zM559 354q-1 -185 98 -185q54 0 99.5 57t69.5 158l96 450q-8 27 -36 45t-70 18q-51 0 -94.5 -35.5t-72.5 -92.5t-50 -129t-30.5 -145t-9.5 -141z" glyph-name="agrave" horiz-adv-x="1283" unicode="à"/><glyph d="M952 1555h407v-12l-502 -390h-123zM174 362q0 192 70 349t194.5 247.5t278.5 90.5q101 0 168 -39t93 -99l137 116h224l-156 -730q-23 -108 53 -108q57 0 97 31l-21 -99q-49 -62 -136.5 -100.5t-186.5 -38.5q-94 0 -140.5 50t-39.5 148q0 31 7 61q-46 -127 -135.5 -195.5 t-208.5 -68.5q-133 0 -215.5 102t-82.5 283zM559 354q-1 -185 98 -185q54 0 99.5 57t69.5 158l96 450q-8 27 -36 45t-70 18q-51 0 -94.5 -35.5t-72.5 -92.5t-50 -129t-30.5 -145t-9.5 -141z" glyph-name="aacute" horiz-adv-x="1283" unicode="á"/><glyph d="M635 1154h-124l298 402h259l132 -402h-118l-181 185zM174 362q0 192 70 349t194.5 247.5t278.5 90.5q101 0 168 -39t93 -99l137 116h224l-156 -730q-23 -108 53 -108q57 0 97 31l-21 -99q-49 -62 -136.5 -100.5t-186.5 -38.5q-94 0 -140.5 50t-39.5 148q0 31 7 61 q-46 -127 -135.5 -195.5t-208.5 -68.5q-133 0 -215.5 102t-82.5 283zM559 354q-1 -185 98 -185q54 0 99.5 57t69.5 158l96 450q-8 27 -36 45t-70 18q-51 0 -94.5 -35.5t-72.5 -92.5t-50 -129t-30.5 -145t-9.5 -141z" glyph-name="acircumflex" horiz-adv-x="1283" unicode="â"/><glyph d="M1029 1181q-91 0 -179 67l-32 25q-47 36 -86 35q-35 0 -57.5 -30.5t-36.5 -107.5h-112q13 103 37 175t57 111.5t70 56.5t82 17q90 0 178 -67l32 -24q47 -36 87 -36q34 0 56.5 31.5t36.5 108.5h112q-25 -200 -87.5 -281t-157.5 -81zM174 362q0 192 70 349t194.5 247.5 t278.5 90.5q101 0 168 -39t93 -99l137 116h224l-156 -730q-23 -108 53 -108q57 0 97 31l-21 -99q-49 -62 -136.5 -100.5t-186.5 -38.5q-94 0 -140.5 50t-39.5 148q0 31 7 61q-46 -127 -135.5 -195.5t-208.5 -68.5q-133 0 -215.5 102t-82.5 283zM559 354q-1 -185 98 -185 q54 0 99.5 57t69.5 158l96 450q-8 27 -36 45t-70 18q-51 0 -94.5 -35.5t-72.5 -92.5t-50 -129t-30.5 -145t-9.5 -141z" glyph-name="atilde" horiz-adv-x="1283" unicode="ã"/><glyph d="M655 1183q-72 0 -120 47.5t-48 115.5q0 74 53.5 126.5t129.5 52.5q71 0 118.5 -47.5t47.5 -116.5q0 -74 -53 -126t-128 -52zM1129 1183q-71 0 -119 47.5t-48 115.5q0 74 53.5 126.5t128.5 52.5q71 0 119 -47.5t48 -116.5q0 -74 -53 -126t-129 -52zM174 362q0 192 70 349 t194.5 247.5t278.5 90.5q101 0 168 -39t93 -99l137 116h224l-156 -730q-23 -108 53 -108q57 0 97 31l-21 -99q-49 -62 -136.5 -100.5t-186.5 -38.5q-94 0 -140.5 50t-39.5 148q0 31 7 61q-46 -127 -135.5 -195.5t-208.5 -68.5q-133 0 -215.5 102t-82.5 283zM559 354 q-1 -185 98 -185q54 0 99.5 57t69.5 158l96 450q-8 27 -36 45t-70 18q-51 0 -94.5 -35.5t-72.5 -92.5t-50 -129t-30.5 -145t-9.5 -141z" glyph-name="adieresis" horiz-adv-x="1283" unicode="ä"/><glyph d="M589 1349q0 99 89.5 165t244.5 66q125 0 206.5 -58t81.5 -153q0 -99 -89.5 -165t-244.5 -66q-125 0 -206.5 58t-81.5 153zM809 1330q0 -46 19.5 -71t54.5 -25q44 0 76 44.5t32 109.5q0 46 -19.5 71t-54.5 25q-44 0 -76 -44.5t-32 -109.5zM174 362q0 192 70 349 t194.5 247.5t278.5 90.5q101 0 168 -39t93 -99l137 116h224l-156 -730q-23 -108 53 -108q57 0 97 31l-21 -99q-49 -62 -136.5 -100.5t-186.5 -38.5q-94 0 -140.5 50t-39.5 148q0 31 7 61q-46 -127 -135.5 -195.5t-208.5 -68.5q-133 0 -215.5 102t-82.5 283zM559 354 q-1 -185 98 -185q54 0 99.5 57t69.5 158l96 450q-8 27 -36 45t-70 18q-51 0 -94.5 -35.5t-72.5 -92.5t-50 -129t-30.5 -145t-9.5 -141z" glyph-name="aring" horiz-adv-x="1283" unicode="å"/><glyph d="M248 788q0 115 118.5 188t311.5 73q224 0 339 -121q145 121 345 121q161 0 259 -67.5t98 -184.5q0 -61 -27.5 -109.5t-88.5 -89.5t-168.5 -69t-258.5 -40l-30 -2q4 -154 70 -233t181 -79q60 0 117.5 20t97.5 54l-21 -100q-56 -76 -161 -124.5t-234 -48.5q-143 0 -254 80 t-143 228q-34 -151 -132 -229t-240 -78q-131 0 -214 68t-83 182q0 141 127 227.5t380 110.5l169 16l6 36q26 151 -25.5 225.5t-166.5 74.5q-42 0 -84 -11q51 -46 51 -114q0 -64 -51.5 -110t-122.5 -46q-68 0 -116.5 44t-48.5 108zM1346 927q-76 0 -131 -97t-67 -248l12 1 q136 14 201 77t68 147q2 52 -19.5 86t-63.5 34zM486 280q0 -53 28.5 -82.5t75.5 -29.5q71 0 120 67.5t70 194.5l9 55l-65 -8q-122 -17 -180 -69.5t-58 -127.5z" glyph-name="ae" horiz-adv-x="1620" unicode="æ"/><glyph d="M544 -480q-135 0 -218 75l20 90q57 -34 127 -34q51 0 79 17.5t28 48.5q0 32 -27 50t-78 18q-33 0 -37 -2l16 77l117 120q-165 18 -275 136t-110 321q0 173 76.5 313t212.5 219.5t306 79.5q165 1 259.5 -76t94.5 -190q0 -75 -50.5 -123t-125.5 -48q-68 0 -115.5 45 t-47.5 113q0 51 28 91.5t74 57.5q-19 5 -46 5q-119 0 -197 -121t-78 -304q0 -159 70 -241t187 -82q58 0 116 20.5t98 58.5l-21 -101q-46 -67 -135 -114.5t-199 -59.5l-70 -68q101 -5 161.5 -55.5t60.5 -130.5q0 -93 -81 -149.5t-220 -56.5z" glyph-name="ccedilla" horiz-adv-x="1026" unicode="ç"/><glyph d="M839 1554l83 -402h-118l-354 390v12h389zM625 -24q-87 0 -165 29t-140 84t-98.5 145t-36.5 202q0 174 81 315.5t219.5 219.5t305.5 78q160 0 256.5 -65t96.5 -172q0 -68 -31.5 -121.5t-99.5 -97t-155.5 -77.5t-218.5 -72l-62 -19q15 -126 82 -187.5t168 -61.5 q61 0 119.5 20.5t97.5 58.5l-21 -101q-54 -79 -161.5 -128.5t-236.5 -49.5zM778 928q-86 0 -143 -114t-62 -286l40 14q111 37 176.5 115.5t65.5 171.5q0 46 -19.5 72.5t-57.5 26.5z" glyph-name="egrave" horiz-adv-x="1041" unicode="è"/><glyph d="M880 1555h407v-12l-501 -390h-124zM625 -24q-87 0 -165 29t-140 84t-98.5 145t-36.5 202q0 174 81 315.5t219.5 219.5t305.5 78q160 0 256.5 -65t96.5 -172q0 -68 -31.5 -121.5t-99.5 -97t-155.5 -77.5t-218.5 -72l-62 -19q15 -126 82 -187.5t168 -61.5q61 0 119.5 20.5 t97.5 58.5l-21 -101q-54 -79 -161.5 -128.5t-236.5 -49.5zM778 928q-86 0 -143 -114t-62 -286l40 14q111 37 176.5 115.5t65.5 171.5q0 46 -19.5 72.5t-57.5 26.5z" glyph-name="eacute" horiz-adv-x="1041" unicode="é"/><glyph d="M564 1154h-124l297 402h259l132 -402h-117l-182 185zM625 -24q-87 0 -165 29t-140 84t-98.5 145t-36.5 202q0 174 81 315.5t219.5 219.5t305.5 78q160 0 256.5 -65t96.5 -172q0 -68 -31.5 -121.5t-99.5 -97t-155.5 -77.5t-218.5 -72l-62 -19q15 -126 82 -187.5t168 -61.5 q61 0 119.5 20.5t97.5 58.5l-21 -101q-54 -79 -161.5 -128.5t-236.5 -49.5zM778 928q-86 0 -143 -114t-62 -286l40 14q111 37 176.5 115.5t65.5 171.5q0 46 -19.5 72.5t-57.5 26.5z" glyph-name="ecircumflex" horiz-adv-x="1041" unicode="ê"/><glyph d="M583 1183q-72 0 -120 47.5t-48 115.5q0 74 53.5 126.5t129.5 52.5q71 0 118.5 -47.5t47.5 -116.5q0 -74 -53 -126t-128 -52zM1058 1183q-72 0 -120 47.5t-48 115.5q0 74 53.5 126.5t129.5 52.5q71 0 118.5 -47.5t47.5 -116.5q0 -74 -53 -126t-128 -52zM625 -24 q-87 0 -165 29t-140 84t-98.5 145t-36.5 202q0 174 81 315.5t219.5 219.5t305.5 78q160 0 256.5 -65t96.5 -172q0 -68 -31.5 -121.5t-99.5 -97t-155.5 -77.5t-218.5 -72l-62 -19q15 -126 82 -187.5t168 -61.5q61 0 119.5 20.5t97.5 58.5l-21 -101q-54 -79 -161.5 -128.5 t-236.5 -49.5zM778 928q-86 0 -143 -114t-62 -286l40 14q111 37 176.5 115.5t65.5 171.5q0 46 -19.5 72.5t-57.5 26.5z" glyph-name="edieresis" horiz-adv-x="1041" unicode="ë"/><glyph d="M597 1554l83 -402h-118l-353 390v12h388zM742 1040l-159 -743q-22 -108 53 -108q57 0 98 31l-21 -99q-51 -61 -140 -100t-188 -39q-118 0 -167 68.5t-20 204.5l110 519q10 43 0 62t-48 32l-62 16l20 95z" glyph-name="igrave" horiz-adv-x="686" unicode="ì"/><glyph d="M638 1555h407v-12l-501 -390h-124zM742 1040l-159 -743q-22 -108 53 -108q57 0 98 31l-21 -99q-51 -61 -140 -100t-188 -39q-118 0 -167 68.5t-20 204.5l110 519q10 43 0 62t-48 32l-62 16l20 95z" glyph-name="iacute" horiz-adv-x="686" unicode="í"/><glyph d="M344 1154h-112l277 402h233l110 -402h-106l-159 185zM742 1040l-159 -743q-22 -108 53 -108q57 0 98 31l-21 -99q-51 -61 -140 -100t-188 -39q-118 0 -167 68.5t-20 204.5l110 519q10 43 0 62t-48 32l-62 16l20 95z" glyph-name="icircumflex" horiz-adv-x="686" unicode="î"/><glyph d="M341 1183q-71 0 -119.5 47.5t-48.5 115.5q0 74 53.5 126.5t129.5 52.5q71 0 118.5 -47.5t47.5 -116.5q0 -74 -53 -126t-128 -52zM816 1183q-72 0 -120 47.5t-48 115.5q0 74 53.5 126.5t129.5 52.5q71 0 118.5 -47.5t47.5 -116.5q0 -74 -53 -126t-128 -52zM742 1040 l-159 -743q-22 -108 53 -108q57 0 98 31l-21 -99q-51 -61 -140 -100t-188 -39q-118 0 -167 68.5t-20 204.5l110 519q10 43 0 62t-48 32l-62 16l20 95z" glyph-name="idieresis" horiz-adv-x="686" unicode="ï"/><glyph d="M647 -23q-216 0 -344 119t-128 330q0 241 144 401.5t355 160.5q116 0 187.5 -55.5t93.5 -158.5q16 262 -151 458l-286 -147l-47 92l257 132q-90 78 -205 133l58 87q170 -60 302 -141l275 141l47 -92l-224 -115q341 -255 341 -657q0 -160 -56.5 -292.5t-151 -217.5 t-215.5 -131.5t-252 -46.5zM675 100q66 0 123 81.5t88.5 200t34.5 239.5q2 106 -28 163.5t-92 57.5q-53 0 -98.5 -53.5t-73 -136t-43.5 -171.5t-17 -169q0 -212 106 -212z" glyph-name="eth" horiz-adv-x="1267" unicode="ð"/><glyph d="M1082 1181q-90 0 -178 67l-32 25q-47 36 -87 35q-34 0 -56.5 -30.5t-36.5 -107.5h-112q13 103 37 175t57 111.5t70 56.5t82 17q90 0 178 -67l32 -24q47 -36 87 -36q34 0 56.5 31.5t36.5 108.5h112q-13 -104 -37 -176.5t-57 -112t-69.5 -56.5t-82.5 -17zM742 1040 l-55 -261q56 131 153 200.5t224 69.5q160 0 225.5 -96.5t28.5 -271.5l-82 -384q-23 -108 53 -108q57 0 97 31l-21 -99q-50 -61 -138.5 -100t-187.5 -39q-118 0 -167 68t-21 205l92 443q16 76 -7 118t-76 42q-59 0 -113.5 -60.5t-76.5 -160.5l-135 -637h-377l165 774 q9 44 -0.5 62.5t-47.5 31.5l-63 16l20 95z" glyph-name="ntilde" horiz-adv-x="1330" unicode="ñ"/><glyph d="M888 1554l83 -402h-117l-354 390v12h388zM665 -23q-221 0 -349 128.5t-128 339.5q0 126 47.5 237.5t129.5 192t198.5 127.5t249.5 47q221 0 349 -128.5t128 -339.5q0 -126 -47.5 -237.5t-129.5 -192t-198.5 -127.5t-249.5 -47zM677 104q55 0 102 61.5t75.5 155.5 t44.5 197t16 194q0 210 -114 210q-55 0 -102 -61.5t-75.5 -155t-44.5 -197t-16 -194.5q0 -210 114 -210z" glyph-name="ograve" horiz-adv-x="1260" unicode="ò"/><glyph d="M929 1555h407v-12l-501 -390h-123zM665 -23q-221 0 -349 128.5t-128 339.5q0 126 47.5 237.5t129.5 192t198.5 127.5t249.5 47q221 0 349 -128.5t128 -339.5q0 -126 -47.5 -237.5t-129.5 -192t-198.5 -127.5t-249.5 -47zM677 104q55 0 102 61.5t75.5 155.5t44.5 197 t16 194q0 210 -114 210q-55 0 -102 -61.5t-75.5 -155t-44.5 -197t-16 -194.5q0 -210 114 -210z" glyph-name="oacute" horiz-adv-x="1260" unicode="ó"/><glyph d="M614 1154h-125l298 402h259l132 -402h-117l-182 185zM665 -23q-221 0 -349 128.5t-128 339.5q0 126 47.5 237.5t129.5 192t198.5 127.5t249.5 47q221 0 349 -128.5t128 -339.5q0 -126 -47.5 -237.5t-129.5 -192t-198.5 -127.5t-249.5 -47zM677 104q55 0 102 61.5 t75.5 155.5t44.5 197t16 194q0 210 -114 210q-55 0 -102 -61.5t-75.5 -155t-44.5 -197t-16 -194.5q0 -210 114 -210z" glyph-name="ocircumflex" horiz-adv-x="1260" unicode="ô"/><glyph d="M1006 1181q-90 0 -178 67l-32 25q-49 36 -87 35q-34 0 -56.5 -30.5t-36.5 -107.5h-112q25 199 88 279.5t157 80.5q90 0 178 -67l33 -24q47 -36 87 -36q34 0 56.5 31.5t36.5 108.5h112q-25 -200 -88 -281t-158 -81zM665 -23q-221 0 -349 128.5t-128 339.5 q0 126 47.5 237.5t129.5 192t198.5 127.5t249.5 47q221 0 349 -128.5t128 -339.5q0 -126 -47.5 -237.5t-129.5 -192t-198.5 -127.5t-249.5 -47zM677 104q55 0 102 61.5t75.5 155.5t44.5 197t16 194q0 210 -114 210q-55 0 -102 -61.5t-75.5 -155t-44.5 -197t-16 -194.5 q0 -210 114 -210z" glyph-name="otilde" horiz-adv-x="1260" unicode="õ"/><glyph d="M632 1183q-71 0 -119 47.5t-48 115.5q0 74 53.5 126.5t128.5 52.5q71 0 119 -47.5t48 -116.5q0 -74 -53 -126t-129 -52zM1107 1183q-71 0 -119.5 47.5t-48.5 115.5q0 74 53.5 126.5t129.5 52.5q71 0 119 -47.5t48 -116.5q0 -74 -53 -126t-129 -52zM665 -23 q-221 0 -349 128.5t-128 339.5q0 126 47.5 237.5t129.5 192t198.5 127.5t249.5 47q221 0 349 -128.5t128 -339.5q0 -126 -47.5 -237.5t-129.5 -192t-198.5 -127.5t-249.5 -47zM677 104q55 0 102 61.5t75.5 155.5t44.5 197t16 194q0 210 -114 210q-55 0 -102 -61.5 t-75.5 -155t-44.5 -197t-16 -194.5q0 -210 114 -210z" glyph-name="odieresis" horiz-adv-x="1260" unicode="ö"/><glyph d="M852 809q-78 0 -129.5 49.5t-51.5 121.5q0 79 55.5 131.5t133.5 52.5q79 0 130.5 -49t51.5 -122q0 -79 -55.5 -131.5t-134.5 -52.5zM231 502l44 208h1045l-45 -208h-1044zM691 48q-79 0 -130.5 49t-51.5 122q0 79 55.5 131.5t133.5 52.5q79 0 130.5 -49.5t51.5 -121.5 q0 -79 -55.5 -131.5t-133.5 -52.5z" glyph-name="divide" horiz-adv-x="1292" unicode="÷"/><glyph d="M661 -23q-193 0 -317 102l-117 -106l-72 79l116 106q-83 118 -83 285t79.5 305t221.5 218.5t318 80.5q196 0 321 -106l124 113l72 -80l-124 -113q80 -115 80 -280q0 -125 -47 -237t-128.5 -192.5t-197 -127.5t-246.5 -47zM796 923q-48 0 -90.5 -46t-71.5 -120.5 t-48 -160.5t-27 -175l353 323q-9 179 -116 179zM672 101q63 0 115 78.5t80.5 186t40.5 228.5l-352 -321q10 -172 116 -172z" glyph-name="oslash" horiz-adv-x="1250" unicode="ø"/><glyph d="M930 1554l82 -402h-117l-354 390v12h389zM738 1041l-147 -707q-16 -77 7 -118.5t78 -41.5q61 0 112 56.5t73 153.5l84 390q10 43 0 61.5t-48 33.5l-53 16l20 93l514 63l-158 -744q-23 -108 53 -108q53 0 99 31l-21 -99q-50 -61 -138 -100t-182 -39q-96 0 -144.5 50 t-41.5 148q0 24 9 63q-59 -127 -157.5 -196.5t-219.5 -69.5q-161 0 -228.5 100t-30.5 276l89 421q9 44 -1 63t-47 31l-62 16l19 95z" glyph-name="ugrave" horiz-adv-x="1323" unicode="ù"/><glyph d="M971 1555h407v-12l-502 -390h-123zM738 1041l-147 -707q-16 -77 7 -118.5t78 -41.5q61 0 112 56.5t73 153.5l84 390q10 43 0 61.5t-48 33.5l-53 16l20 93l514 63l-158 -744q-23 -108 53 -108q53 0 99 31l-21 -99q-50 -61 -138 -100t-182 -39q-96 0 -144.5 50t-41.5 148 q0 24 9 63q-59 -127 -157.5 -196.5t-219.5 -69.5q-161 0 -228.5 100t-30.5 276l89 421q9 44 -1 63t-47 31l-62 16l19 95z" glyph-name="uacute" horiz-adv-x="1323" unicode="ú"/><glyph d="M655 1154h-125l298 402h259l132 -402h-118l-181 185zM738 1041l-147 -707q-16 -77 7 -118.5t78 -41.5q61 0 112 56.5t73 153.5l84 390q10 43 0 61.5t-48 33.5l-53 16l20 93l514 63l-158 -744q-23 -108 53 -108q53 0 99 31l-21 -99q-50 -61 -138 -100t-182 -39 q-96 0 -144.5 50t-41.5 148q0 24 9 63q-59 -127 -157.5 -196.5t-219.5 -69.5q-161 0 -228.5 100t-30.5 276l89 421q9 44 -1 63t-47 31l-62 16l19 95z" glyph-name="ucircumflex" horiz-adv-x="1323" unicode="û"/><glyph d="M674 1183q-72 0 -120 47.5t-48 115.5q0 74 53.5 126.5t129.5 52.5q71 0 118.5 -47.5t47.5 -116.5q0 -74 -53 -126t-128 -52zM1148 1183q-71 0 -119 47.5t-48 115.5q0 74 53.5 126.5t128.5 52.5q71 0 119 -47.5t48 -116.5q0 -74 -53 -126t-129 -52zM738 1041l-147 -707 q-16 -77 7 -118.5t78 -41.5q61 0 112 56.5t73 153.5l84 390q10 43 0 61.5t-48 33.5l-53 16l20 93l514 63l-158 -744q-23 -108 53 -108q53 0 99 31l-21 -99q-50 -61 -138 -100t-182 -39q-96 0 -144.5 50t-41.5 148q0 24 9 63q-59 -127 -157.5 -196.5t-219.5 -69.5 q-161 0 -228.5 100t-30.5 276l89 421q9 44 -1 63t-47 31l-62 16l19 95z" glyph-name="udieresis" horiz-adv-x="1323" unicode="ü"/><glyph d="M885 1555h407v-12l-501 -390h-124zM636 1041l32 -889q259 323 331 544q-2 0 -8 -0.5t-9 -0.5q-74 0 -126 52t-53 125q-1 77 53 128t133 51q82 0 136 -52.5t55 -136.5q1 -113 -119 -326t-334 -477q-98 -119 -236 -275q-122 -141 -205 -244h-380v31q111 58 238.5 137.5 t204.5 140.5l-78 937q-4 41 -18.5 58t-57.5 30l-48 11l20 98z" glyph-name="yacute" horiz-adv-x="1092" unicode="ý"/><glyph d="M1315 665q0 -192 -70 -349.5t-194.5 -248t-278.5 -90.5q-83 0 -142.5 28t-90.5 72l-67 -331q-11 -51 16 -70t144 -37l-21 -99h-695l21 99q61 12 90.5 24t42.5 29.5t21 51.5l319 1503q7 33 -1.5 50.5t-34.5 25.5l-78 23l22 98l529 60l-154 -677q48 107 132 164.5t192 57.5 q133 0 215.5 -101.5t82.5 -282.5zM930 673q1 184 -98 184q-54 0 -99.5 -56.5t-69.5 -158.5l-96 -449q8 -28 36 -46t70 -18q63 0 114.5 53.5t81 137t45.5 175t16 178.5z" glyph-name="thorn" horiz-adv-x="1272" unicode="þ"/><glyph d="M588 1183q-71 0 -119.5 47.5t-48.5 115.5q0 74 53.5 126.5t129.5 52.5q71 0 119 -47.5t48 -116.5q0 -74 -53 -126t-129 -52zM1063 1183q-71 0 -119.5 47.5t-48.5 115.5q0 74 53.5 126.5t129.5 52.5q71 0 118.5 -47.5t47.5 -116.5q0 -74 -53 -126t-128 -52zM636 1041 l32 -889q259 323 331 544q-2 0 -8 -0.5t-9 -0.5q-74 0 -126 52t-53 125q-1 77 53 128t133 51q82 0 136 -52.5t55 -136.5q1 -113 -119 -326t-334 -477q-98 -119 -236 -275q-122 -141 -205 -244h-380v31q111 58 238.5 137.5t204.5 140.5l-78 937q-4 41 -18.5 58t-57.5 30 l-48 11l20 98z" glyph-name="ydieresis" horiz-adv-x="1092" unicode="ÿ"/><glyph d="M742 1040l-159 -743q-22 -108 53 -108q57 0 98 31l-21 -99q-51 -61 -140 -100t-188 -39q-118 0 -167 68.5t-20 204.5l110 519q10 43 0 62t-48 32l-62 16l20 95z" glyph-name="dotlessi" horiz-adv-x="686" unicode="ı"/><glyph d="M237 649q0 172 61 323t170.5 262t270 175t349.5 64q77 0 193 -14.5t185 -14.5h826l-75 -410h-90q-4 93 -14 142t-40.5 84t-79.5 47.5t-138 16.5l-162 7l-114 -537l150 2q68 2 104 40.5t83 159.5h86l-111 -524h-86q4 125 -15.5 164t-86.5 41l-149 1l-120 -565l183 8 q120 5 190.5 32.5t123.5 93.5t110 197h88l-105 -444h-748q-73 0 -181.5 -14t-173.5 -14q-197 0 -351.5 81t-243.5 236t-89 360zM658 559q0 -224 82 -341.5t227 -117.5q35 0 60 8l257 1212q-51 24 -130 24q-115 0 -210.5 -68.5t-157 -181t-95 -251.5t-33.5 -284z" glyph-name="OE" horiz-adv-x="2091" unicode="Œ"/><glyph d="M694 -23q-230 0 -371 136.5t-141 346.5q0 162 70.5 295t207.5 213.5t315 80.5q218 0 348 -144q160 149 383 149q152 0 248 -66.5t95 -173.5q0 -56 -22 -102t-59.5 -81t-101.5 -67.5t-134.5 -57.5t-173.5 -55l-64 -20q15 -127 78.5 -191t162.5 -64q58 0 115 20.5t94 57.5 l-21 -100q-52 -79 -153.5 -128.5t-222.5 -49.5q-185 0 -299 126q-146 -125 -354 -125zM1494 931q-84 0 -141.5 -112.5t-62.5 -284.5l43 15q113 37 175.5 104.5t64.5 159.5q2 50 -18.5 84t-60.5 34zM694 99q66 0 119 97.5t78.5 232t25.5 266.5q-1 232 -120 232 q-67 0 -119.5 -97.5t-78 -231.5t-25.5 -266q1 -233 120 -233z" glyph-name="oe" horiz-adv-x="1760" unicode="œ"/><glyph d="M261 842l21 96q93 5 152.5 47.5t59.5 107.5q0 56 -42 89t-114 42q5 106 64.5 177.5t158.5 71.5q90 0 148.5 -61t58.5 -166q0 -175 -142.5 -287.5t-364.5 -116.5z" glyph-name="quoteright" horiz-adv-x="585" unicode="’"/><glyph d="M261 842l21 96q93 5 152.5 47.5t59.5 107.5q0 56 -42 89t-114 42q5 106 64.5 177.5t158.5 71.5q90 0 148.5 -61t58.5 -166q0 -175 -142.5 -287.5t-364.5 -116.5z" glyph-name="quoteright" horiz-adv-x="585" unicode="ʼ"/><glyph d="M538 1154h-125l298 402h259l132 -402h-118l-181 185z" glyph-name="circumflex" unicode="ˆ"/><glyph d="M490 1349q0 99 89.5 165t244.5 66q125 0 206.5 -58t81.5 -153q0 -99 -89.5 -165t-244.5 -66q-125 0 -206.5 58t-81.5 153zM710 1330q0 -46 19.5 -71t54.5 -25q44 0 76 44.5t32 109.5q0 46 -19.5 71t-54.5 25q-44 0 -76 -44.5t-32 -109.5z" glyph-name="ring" unicode="˚"/><glyph d="M930 1181q-91 0 -179 67l-32 25q-47 36 -86 35q-35 0 -57.5 -30.5t-36.5 -107.5h-112q13 103 37 175t57 111.5t70 56.5t82 17q90 0 178 -67l32 -24q47 -36 87 -36q34 0 56.5 31.5t36.5 108.5h112q-25 -200 -87.5 -281t-157.5 -81z" glyph-name="tilde" unicode="˜"/><glyph d="M126 512l40 189h1257l-40 -189h-1257z" glyph-name="figuredash" horiz-adv-x="1292" unicode="‒"/><glyph d="M126 512l40 189h989l-40 -189h-989z" glyph-name="endash" unicode="–"/><glyph d="M126 512l40 189h2013l-40 -189h-2013z" glyph-name="emdash" horiz-adv-x="2048" unicode="—"/><glyph d="M816 1473l-21 -95q-92 -6 -152 -48.5t-60 -107.5q0 -56 42 -88.5t114 -41.5q-5 -106 -64.5 -178t-157.5 -72q-90 0 -148.5 61t-58.5 166q0 176 142.5 288.5t363.5 115.5z" glyph-name="quoteleft" horiz-adv-x="585" unicode="‘"/><glyph d="M30 -247l21 96q93 5 152.5 47.5t59.5 107.5q0 56 -42 89t-114 42q5 106 64.5 177.5t157.5 71.5q90 0 148.5 -61t58.5 -166q0 -176 -142.5 -288.5t-363.5 -115.5z" glyph-name="quotesinglbase" horiz-adv-x="585" unicode="‚"/><glyph d="M816 1473l-21 -95q-92 -6 -152 -48.5t-60 -107.5q0 -56 42 -88.5t114 -41.5q-5 -106 -64.5 -178t-157.5 -72q-90 0 -148.5 61t-58.5 166q0 176 142.5 288.5t363.5 115.5zM1327 1473l-21 -95q-92 -6 -152 -48.5t-60 -107.5q0 -56 42 -88.5t114 -41.5q-5 -107 -64.5 -178.5 t-157.5 -71.5q-90 0 -148.5 61t-58.5 166q0 176 142.5 288.5t363.5 115.5z" glyph-name="quotedblleft" horiz-adv-x="1096" unicode="“"/><glyph d="M261 842l21 96q93 5 152.5 47.5t59.5 107.5q0 56 -42 89t-114 42q5 106 64.5 177.5t158.5 71.5q90 0 148.5 -61t58.5 -166q0 -175 -142.5 -287.5t-364.5 -116.5zM773 842l21 96q93 5 152.5 47.5t59.5 107.5q0 56 -41.5 89t-113.5 42q5 107 64.5 178t157.5 71 q90 0 148.5 -61t58.5 -166q0 -175 -142.5 -287.5t-364.5 -116.5z" glyph-name="quotedblright" horiz-adv-x="1097" unicode="”"/><glyph d="M30 -247l21 96q93 5 152.5 47.5t59.5 107.5q0 56 -42 89t-114 42q5 106 64.5 177.5t157.5 71.5q90 0 148.5 -61t58.5 -166q0 -176 -142.5 -288.5t-363.5 -115.5zM542 -247l21 96q93 5 152.5 47.5t59.5 107.5q0 56 -42 89t-114 42q5 106 64.5 177.5t157.5 71.5 q90 0 148.5 -61t58.5 -166q0 -176 -142.5 -288.5t-363.5 -115.5z" glyph-name="quotedblbase" horiz-adv-x="1097" unicode="„"/><glyph d="M797 1471q47 0 79 -26.5t36.5 -74.5t-34.5 -115l-131 -243q-8 10 -21 10q-10 0 -21 -7l-28 253q-17 96 14.5 149.5t105.5 53.5zM304 878l48 228l348 -95q-10 -10 -10 -25q0 -9 5 -16zM1096 878l-352 89q10 10 10 25q0 12 -4 16l394 98zM778 776q0 -102 -43.5 -238.5 t-210.5 -565.5h-36q6 220 13 346.5t19.5 236t36 175t55.5 120.5t86 116q9 -9 21 -9q13 0 20 7q39 -94 39 -188z" glyph-name="dagger" unicode="†"/><glyph d="M797 1471q46 0 78 -26.5t36.5 -74.5t-34.5 -115l-130 -238q-8 10 -22 10q-9 0 -20 -7l-28 248q-17 96 14.5 149.5t105.5 53.5zM304 883l48 227l348 -94q-10 -10 -10 -25q0 -9 5 -16zM1096 883l-352 89q10 9 10 25q0 8 -4 16l394 97zM553 655q2 169 145 316q8 -10 21 -10 q11 0 21 7q42 -90 40 -177q-2 -177 -146 -317q-6 10 -21 10q-13 0 -20 -7q-43 97 -40 178zM236 562l352 -89q-10 -9 -10 -25q0 -9 5 -16l-395 -97zM1028 562l-48 -227l-348 95q10 9 10 24q0 12 -4 16zM535 -26q-46 0 -78 27t-36.5 75t34.5 114l131 238q5 -9 21 -9q13 0 20 7 l29 -249q17 -95 -15 -149t-106 -54z" glyph-name="daggerdbl" unicode="‡"/><glyph d="M559 328q-123 0 -204.5 77.5t-81.5 190.5q0 123 86.5 205.5t210.5 82.5q123 0 204.5 -77.5t81.5 -190.5q0 -123 -87 -205.5t-210 -82.5z" glyph-name="bullet" horiz-adv-x="871" unicode="•"/><glyph d="M324 -17q-88 0 -146 55.5t-58 136.5q0 88 62 147t151 59q88 0 145.5 -55.5t57.5 -136.5q0 -88 -62 -147t-150 -59zM861 -17q-88 0 -146 55.5t-58 136.5q0 88 62 147t150 59t146 -55.5t58 -136.5q0 -88 -62 -147t-150 -59zM1397 -17q-88 0 -146 55.5t-58 136.5 q0 88 62 147t150 59t146 -55.5t58 -136.5q0 -88 -62 -147t-150 -59z" glyph-name="ellipsis" horiz-adv-x="1658" unicode="…"/><glyph d="M612 628q-103 0 -177.5 51t-109.5 131t-35 178q-1 91 25.5 174.5t77 151t132 108t183.5 40.5t176.5 -51t109.5 -131t36 -178q0 -91 -26 -174.5t-76.5 -151t-132 -108t-183.5 -40.5zM451 0l1274 1444h170l-1274 -1444h-170zM612 715q47 0 87.5 73t63.5 189t22 240 q-3 159 -78 159q-47 0 -87.5 -73t-63.5 -189t-22 -241q4 -158 78 -158zM1638 -17q-103 0 -177.5 51t-109.5 131t-35 178q-1 91 25.5 174.5t77 151t132 108t183.5 40.5t176.5 -51t109.5 -131t36 -178q0 -91 -26 -174.5t-76.5 -151t-132 -108t-183.5 -40.5zM2515 -17 q-102 0 -176.5 51t-110 131t-35.5 178q-1 91 25.5 174.5t77 151t132 108t183.5 40.5q152 0 237 -104.5t85 -255.5q1 -91 -25.5 -174.5t-77 -151t-132 -108t-183.5 -40.5zM1638 70q47 0 87.5 73t63.5 189t22 240q-3 159 -78 159q-47 0 -87.5 -73t-63.5 -189t-22 -241 q4 -158 78 -158zM2515 70q47 0 88 73t63.5 189t21.5 240q-3 159 -78 159q-47 0 -87.5 -73t-63.5 -189t-22 -241q4 -158 78 -158z" glyph-name="perthousand" horiz-adv-x="2917" unicode="‰"/><glyph d="M612 628q-103 0 -177.5 51t-109.5 131t-35 178q-1 91 25.5 174.5t77 151t132 108t183.5 40.5t176.5 -51t109.5 -131t36 -178q0 -91 -26 -174.5t-76.5 -151t-132 -108t-183.5 -40.5zM451 0l1274 1444h170l-1274 -1444h-170zM612 715q47 0 87.5 73t63.5 189t22 240 q-3 159 -78 159q-47 0 -87.5 -73t-63.5 -189t-22 -241q4 -158 78 -158zM1638 -17q-103 0 -177.5 51t-109.5 131t-35 178q-1 91 25.5 174.5t77 151t132 108t183.5 40.5t176.5 -51t109.5 -131t36 -178q0 -91 -26 -174.5t-76.5 -151t-132 -108t-183.5 -40.5zM2515 -17 q-102 0 -176.5 51t-110 131t-35.5 178q-1 91 25.5 174.5t77 151t132 108t183.5 40.5q152 0 237 -104.5t85 -255.5q1 -91 -25.5 -174.5t-77 -151t-132 -108t-183.5 -40.5zM3392 -17q-102 0 -176.5 51t-110 131t-35.5 178q-1 91 25.5 174.5t77 151t132 108t183.5 40.5 q152 0 237 -104.5t85 -255.5q1 -91 -25.5 -174.5t-77 -151t-132 -108t-183.5 -40.5zM1638 70q47 0 87.5 73t63.5 189t22 240q-3 159 -78 159q-47 0 -87.5 -73t-63.5 -189t-22 -241q4 -158 78 -158zM2515 70q47 0 88 73t63.5 189t21.5 240q-3 159 -78 159q-47 0 -87.5 -73 t-63.5 -189t-22 -241q4 -158 78 -158zM3392 70q47 0 88 73t63.5 189t21.5 240q-3 159 -77 159q-48 0 -88.5 -73t-63.5 -189t-22 -241q4 -158 78 -158z" glyph-name="pertenthousand" horiz-adv-x="3794" unicode="‱"/><glyph d="M213 0h158l186 -365l-105 -88l-183 299l-307 -299l-90 89z" glyph-name="caret" horiz-adv-x="585" unicode="‸"/><glyph d="M169 527l9 44l561 441h167l-357 -468l165 -459h-151z" glyph-name="guilsinglleft" horiz-adv-x="827" unicode="‹"/><glyph d="M891 569l-9 -43l-561 -441h-168l358 468l-165 459h151z" glyph-name="guilsinglright" horiz-adv-x="827" unicode="›"/><glyph d="M661 497h-456l46 218h456z" glyph-name="uni2043" horiz-adv-x="686" unicode="⁃"/><glyph d="M-426 0l1274 1444h170l-1274 -1444h-170z" glyph-name="fraction" horiz-adv-x="286" unicode="⁄"/><glyph d="M149 630h185v11q0 99 19 185h-162l16 79h166q80 257 298 412.5t522 155.5q250 0 419 -108l-59 -349h-90q-2 155 -65 239.5t-182 85.5q-144 -1 -252.5 -122t-164.5 -314h479l-17 -79h-481q-22 -99 -26 -196h465l-16 -80h-451q7 -447 262 -447q106 0 190 78t154 249h91 l-77 -359q-70 -44 -171 -72t-212 -28q-278 0 -451.5 156t-199.5 423h-206z" glyph-name="euro" horiz-adv-x="1427" unicode="€"/><glyph d="M1574 1444l60 -458l233 458h389l-15 -67q-58 -7 -76 -19.5t-25 -47.5l-99 -531q-7 -35 5.5 -48t66.5 -20l-14 -66h-431l14 66q58 7 76 20t25 48l88 478l-156 -272h-2l-170 -340h-141l-82 600l-90 -437q-12 -53 -0.5 -71.5t67.5 -25.5l-14 -66h-273l14 66q58 7 78 25.5 t33 71.5l112 474q13 47 0.5 67t-67.5 29l14 66h380zM1124 1444l-43 -238h-59q-1 94 -30.5 125.5t-117.5 35.5l-18 1l-125 -586q-8 -36 6 -49t73 -22l-14 -67h-451l14 67q62 9 82 22t28 49l124 586l-19 -1q-89 -4 -131 -35.5t-84 -125.5h-59l56 238h768z" glyph-name="trademark" horiz-adv-x="2024" unicode="™"/><glyph d="M231 502l44 208h1045l-45 -208h-1044z" glyph-name="minus" horiz-adv-x="1292" unicode="−"/><glyph d="M798 1855h347v-9l-435 -303h-103zM665 280q-29 -135 -89 -237t-160.5 -181t-225 -138.5t-304.5 -118.5l-27 79q179 108 265 237t137 372l197 925q14 67 -7.5 89.5t-113.5 38.5l21 98h704l-21 -98q-70 -11 -102.5 -24t-48.5 -35.5t-25 -68.5z" glyph-name="Jacute" horiz-adv-x="806"/><glyph d="M402 1186q-64 0 -102 44.5t-26 114.5l3 21q12 73 52 115t102 42q65 0 103 -44.5t27 -114.5l-4 -21q-12 -73 -52 -115t-103 -42zM740 1186q-64 0 -102.5 44.5t-26.5 114.5l4 21q11 73 51 115t102 42q65 0 103.5 -44.5t26.5 -114.5l-4 -21q-11 -73 -51 -115t-103 -42z M742 1040l-159 -743q-22 -108 53 -108q57 0 98 31l-21 -99q-51 -61 -140 -100t-188 -39q-118 0 -167 68.5t-20 204.5l110 519q10 43 0 62t-48 32l-62 16l20 95z" glyph-name="idieresis.narrow" horiz-adv-x="686"/><glyph d="M650 1555h407v-12l-501 -390h-123zM752 1040l-201 -945q-27 -127 -77.5 -220.5t-130.5 -160.5t-180.5 -111.5t-240.5 -78.5l-29 90q131 71 183 161.5t96 297.5l148 701q9 44 -0.5 62.5t-47.5 31.5l-62 16l20 95z" glyph-name="jacute" horiz-adv-x="677"/><glyph d="M254 550q-72 0 -120.5 47.5t-48.5 116.5q0 76 53.5 128.5t130.5 52.5q72 0 120 -48t48 -118q0 -74 -53.5 -126.5t-129.5 -52.5z" glyph-name="middledotcmb.CAT" horiz-adv-x="215"/><glyph d="M-101 678q-76 0 -127 50t-51 123q0 79 57 134.5t137 55.5q75 0 126 -50.5t51 -124.5q0 -77 -56.5 -132.5t-136.5 -55.5z" glyph-name="middledotcmb.uc.CAT" horiz-adv-x="0"/><glyph d="M505 832q-88 0 -146 55t-58 136q0 88 62 147t150 59t146 -55.5t58 -136.5q0 -87 -62 -146t-150 -59zM374 215q-88 0 -146 55.5t-58 136.5q0 87 62 146t150 59t146 -55t58 -136q0 -88 -62 -147t-150 -59z" glyph-name="colon.uc" horiz-adv-x="585"/></font>
</defs>
</svg>
