<?xml version="1.0" standalone="no"?>
<!DOCTYPE svg PUBLIC "-//W3C//DTD SVG 1.1//EN" "http://www.w3.org/Graphics/SVG/1.1/DTD/svg11.dtd" >
<svg xmlns="http://www.w3.org/2000/svg" xmlns:xlink="http://www.w3.org/1999/xlink" version="1.1">
<metadata>
Created by FontForge 20170731 at Sat Sep  7 01:29:13 2019
 By Aleksey,,,
(c) 2015-2019 Apple Inc. All rights reserved.
</metadata>
<defs>
<font id="SFProDisplay-UltralightItalic" horiz-adv-x="0" >
  <font-face 
    font-family="SF Pro Display"
    font-weight="100"
    font-style="italic"
    font-stretch="normal"
    units-per-em="2048"
    panose-1="0 0 0 0 0 0 0 0 0 0"
    ascent="1638"
    descent="-410"
    x-height="1040"
    cap-height="1443"
    bbox="-488 -494 2629 2099"
    underline-thickness="44"
    underline-position="-435"
    slope="-12"
    unicode-range="U+0020-1F16B"
  />
<missing-glyph horiz-adv-x="2048" 
d="M328 1595l75 355h1848l-75 -355h-1848zM239 1178l76 354h1847l-75 -354h-1848zM150 760l76 354h1847l-75 -354h-1848zM62 342l75 354h1848l-76 -354h-1847zM-27 -76l75 354h1848l-76 -354h-1847zM-116 -494l75 355h1848l-75 -355h-1848z" />
    <glyph glyph-name=".notdef" horiz-adv-x="2048" 
d="M328 1595l75 355h1848l-75 -355h-1848zM239 1178l76 354h1847l-75 -354h-1848zM150 760l76 354h1847l-75 -354h-1848zM62 342l75 354h1848l-76 -354h-1847zM-27 -76l75 354h1848l-76 -354h-1847zM-116 -494l75 355h1848l-75 -355h-1848z" />
    <glyph glyph-name=".null" 
 />
    <glyph glyph-name="nonmarkingreturn" unicode="&#x2029;" 
 />
    <glyph glyph-name="nonmarkingreturn" unicode="&#x2028;" 
 />
    <glyph glyph-name="space" unicode=" " horiz-adv-x="453" 
 />
    <glyph glyph-name="exclam" unicode="!" horiz-adv-x="500" 
d="M418 1443h55l-219 -1032h-54zM154 -7q-21 0 -36.5 15.5t-15.5 36.5q0 22 15.5 37.5t36.5 15.5q22 0 37.5 -15.5t15.5 -37.5q0 -21 -15.5 -36.5t-37.5 -15.5z" />
    <glyph glyph-name="quotedbl" unicode="&#x22;" horiz-adv-x="479" 
d="M250 998h-49l95 445h49zM479 998h-49l95 445h49z" />
    <glyph glyph-name="numbersign" unicode="#" horiz-adv-x="1231" 
d="M619 0l150 450h-425l-151 -450h-48l152 450h-277l14 46h278l147 456h-284l14 45h284l151 453h48l-150 -453h425l151 453h48l-151 -453h303l-15 -45h-302l-147 -456h309l-15 -46h-309l-151 -450h-49zM360 496h426l146 456h-425z" />
    <glyph glyph-name="dollar" unicode="$" horiz-adv-x="1178" 
d="M68 386h49q4 -129 107 -221.5t265 -113.5l143 671l-6 2q-183 73 -261 153.5t-78 196.5q0 161 125 264t323 103q33 0 49 -2l33 156h43l-34 -160q157 -23 259.5 -114.5t112.5 -222.5h-49q-10 110 -102.5 190.5t-230.5 100.5l-135 -636l81 -31q148 -59 215 -138.5t67 -197.5
q0 -172 -129.5 -279t-342.5 -107q-17 0 -51 2l-37 -179h-43l39 183q-181 23 -295 127.5t-117 252.5zM336 1074q0 -99 71 -170t235 -135l132 625q-14 1 -43 1q-173 0 -284 -90.5t-111 -230.5zM737 680l-66 26l-140 -659q14 -1 42 -1q189 0 305 93.5t116 246.5
q0 102 -60.5 171.5t-196.5 122.5z" />
    <glyph glyph-name="percent" unicode="%" horiz-adv-x="1442" 
d="M375 783q-96 0 -153 65.5t-58 175.5q-2 180 86 304.5t218 124.5q97 0 154 -65.5t58 -176.5q2 -180 -86.5 -304t-218.5 -124zM198 0h-57l1186 1443h56zM377 823q109 0 185 114t74 274q0 92 -46.5 147t-123.5 55q-108 0 -184 -114t-75 -274q1 -92 47.5 -147t122.5 -55z
M1061 -10q-96 0 -153 65.5t-58 175.5q-2 180 86 304.5t218 124.5q97 0 154 -65.5t58 -176.5q2 -180 -86.5 -304t-218.5 -124zM1063 30q109 0 185 114t75 274q-1 92 -47 147t-123 55q-109 0 -185.5 -114t-74.5 -274q1 -92 47.5 -147t122.5 -55z" />
    <glyph glyph-name="ampersand" unicode="&#x26;" horiz-adv-x="1496" 
d="M1140 0l-126 180q-231 -200 -497 -200q-180 0 -303 101.5t-123 250.5q0 136 88.5 237.5t273.5 179.5l129 55q-84 118 -120 198t-36 148q0 130 108 222t265 92q135 0 221 -72.5t86 -183.5q0 -130 -107 -230.5t-346 -193.5l373 -537q85 93 148.5 208t84.5 216l18 89h49
l-19 -91q-22 -113 -91.5 -236.5t-163.5 -221.5l145 -211h-57zM477 1155q0 -62 34.5 -137t118.5 -195q425 159 425 373q0 99 -71.5 161t-189.5 62q-129 0 -223 -79t-94 -185zM517 25q124 0 246 50t226 142l-383 549l-133 -56q-331 -139 -331 -368q0 -137 106 -227t269 -90z
" />
    <glyph glyph-name="quotesingle" unicode="'" horiz-adv-x="249" 
d="M250 998h-49l95 445h49z" />
    <glyph glyph-name="parenleft" unicode="(" horiz-adv-x="582" 
d="M329 -299h-52q-101 213 -101 624q0 322 124.5 615.5t338.5 502.5h60q-218 -209 -346 -505t-128 -605q0 -190 26.5 -361.5t77.5 -270.5z" />
    <glyph glyph-name="parenright" unicode=")" horiz-adv-x="582" 
d="M274 1443h51q102 -212 102 -624q0 -321 -125 -615t-339 -503h-60q218 209 346.5 505t128.5 606q0 188 -26.5 359.5t-77.5 271.5z" />
    <glyph glyph-name="asterisk" unicode="*" horiz-adv-x="727" 
d="M695 1029l-178 124l-47 -224h-40l47 224l-228 -122l-13 33l229 124l-173 123l23 31l176 -123l48 224h41l-48 -224l224 121l15 -34l-229 -123l176 -125z" />
    <glyph glyph-name="plus" unicode="+" horiz-adv-x="1178" 
d="M620 554l-97 -459h-49l98 459h-422l10 47h422l97 459h49l-98 -459h422l-10 -47h-422z" />
    <glyph glyph-name="comma" unicode="," horiz-adv-x="489" 
d="M25 -253h-44l185 427h52z" />
    <glyph glyph-name="hyphen" unicode="&#x2011;" horiz-adv-x="830" 
d="M93 539l10 46h650l-10 -46h-650z" />
    <glyph glyph-name="hyphen" unicode="-" horiz-adv-x="830" 
d="M93 539l10 46h650l-10 -46h-650z" />
    <glyph glyph-name="period" unicode="." horiz-adv-x="509" 
d="M153 -7q-21 0 -36.5 15.5t-15.5 36.5q0 22 15.5 37.5t36.5 15.5q22 0 37.5 -15.5t15.5 -37.5q0 -21 -15.5 -36.5t-37.5 -15.5z" />
    <glyph glyph-name="slash" unicode="/" horiz-adv-x="582" 
d="M-125 -299h-49l902 1742h50z" />
    <glyph glyph-name="zero" unicode="0" horiz-adv-x="1210" 
d="M534 -20q-194 0 -308 142.5t-114 384.5q0 195 51.5 372t138 305t207 203.5t252.5 75.5q194 0 308 -142.5t114 -384.5q0 -195 -51.5 -372.5t-138 -305t-207 -203t-252.5 -75.5zM163 507q0 -220 101 -350.5t271 -130.5q160 0 297.5 122.5t218 332.5t80.5 454
q0 221 -100.5 351.5t-270.5 130.5q-120 0 -230.5 -72.5t-190.5 -195t-128 -291t-48 -351.5z" />
    <glyph glyph-name="one" unicode="1" horiz-adv-x="778" 
d="M373 0l294 1381h-4q-141 -72 -447 -247l13 60q222 129 451 249h50l-307 -1443h-50z" />
    <glyph glyph-name="two" unicode="2" horiz-adv-x="1152" 
d="M247 1073q32 173 164 281.5t309 108.5q169 0 284.5 -100t115.5 -246q0 -88 -35 -162t-121.5 -166.5t-261.5 -242.5l-578 -495l-1 -4h842l-9 -47h-921l8 43l629 540q243 209 320.5 312t77.5 219q0 130 -100.5 216.5t-250.5 86.5q-156 0 -274 -96.5t-147 -247.5h-51z" />
    <glyph glyph-name="three" unicode="3" horiz-adv-x="1145" 
d="M420 727l9 46h196q184 0 304 95t120 241q0 139 -96.5 223.5t-256.5 84.5q-136 0 -243 -73.5t-149 -195.5h-51q44 144 165.5 229.5t282.5 85.5q175 0 286.5 -97t111.5 -249q0 -150 -103 -250.5t-274 -119.5l-1 -4q136 -16 219 -107.5t83 -225.5q0 -189 -144 -309.5
t-369 -120.5q-194 0 -325.5 102.5t-131.5 252.5q0 48 10 70h47q-7 -37 -7 -64q0 -134 117.5 -224.5t291.5 -90.5q201 0 331 106.5t130 272.5q0 148 -107 235t-288 87h-158z" />
    <glyph glyph-name="four" unicode="4" horiz-adv-x="1185" 
d="M726 0l81 379h-768l9 47q129 151 290.5 322.5t676.5 701.5h69l-218 -1024h237l-10 -47h-236l-81 -379h-50zM115 430l-1 -4h703l204 960h-4q-485 -500 -630 -654t-272 -302z" />
    <glyph glyph-name="five" unicode="5" horiz-adv-x="1174" 
d="M542 -20q-186 0 -317.5 105.5t-131.5 255.5v13h50v-7q1 -135 117.5 -228t284.5 -93q207 0 345 139.5t138 347.5q0 165 -107 266t-281 101q-111 0 -227 -58t-181 -147q0 -1 -55 -1l237 769h755l-10 -47h-709l-200 -644h4q66 78 175 126t217 48q189 0 310.5 -113
t121.5 -290q0 -236 -151.5 -389.5t-384.5 -153.5z" />
    <glyph glyph-name="six" unicode="6" horiz-adv-x="1187" 
d="M1098 530q0 -238 -151.5 -394t-387.5 -156q-200 0 -326 142t-126 361q0 87 11.5 179t37.5 188t63.5 184.5t93 167t122.5 136.5t155 91.5t188 33.5q174 0 290 -99t120 -253h-51q-5 136 -107 221t-257 85q-238 0 -397.5 -208.5t-209.5 -564.5h4q59 144 192.5 223t301.5 79
q188 0 311 -117.5t123 -298.5zM659 900q-132 0 -246.5 -58.5t-183 -161t-68.5 -224.5q0 -181 114 -305.5t287 -124.5q208 0 347 141t139 353q0 168 -109 274t-280 106z" />
    <glyph glyph-name="seven" unicode="7" horiz-adv-x="1072" 
d="M129 0l989 1392l1 4h-849l10 47h907l-11 -50l-994 -1393h-53z" />
    <glyph glyph-name="eight" unicode="8" horiz-adv-x="1188" 
d="M1067 414q0 -194 -149 -314t-390 -120q-209 0 -338 103t-129 271q0 167 119.5 284t312.5 139l1 4q-104 28 -168.5 108t-64.5 181q0 169 138 281t346 112q182 0 299 -92.5t117 -237.5t-102 -248.5t-266 -124.5l-1 -4q122 -34 198.5 -129t76.5 -213zM311 1077
q0 -129 104.5 -208t274.5 -79q182 0 301.5 95.5t119.5 240.5q0 130 -102 210.5t-268 80.5q-182 0 -306 -97.5t-124 -242.5zM586 745q-203 0 -339 -109t-136 -271q0 -155 113.5 -247t306.5 -92q218 0 352 106t134 280q0 145 -121.5 239t-309.5 94z" />
    <glyph glyph-name="nine" unicode="9" horiz-adv-x="1175" 
d="M180 930q0 151 69.5 272.5t194.5 191t282 69.5q193 0 314 -128.5t121 -336.5q0 -70 -7.5 -150t-28.5 -181t-53 -194.5t-86 -184.5t-122.5 -158t-168 -108.5t-217.5 -41.5q-170 0 -283.5 98t-125.5 255h51q13 -139 112 -223t249 -84q252 0 412.5 204.5t205.5 587.5h-4
q-48 -144 -179.5 -232.5t-297.5 -88.5q-186 0 -312 124.5t-126 308.5zM624 543q91 0 178.5 35.5t155 96t109 148t41.5 185.5q0 181 -108.5 295t-278.5 114q-211 0 -350.5 -138t-140.5 -345q0 -165 113 -278t281 -113z" />
    <glyph glyph-name="colon" unicode=":" horiz-adv-x="509" 
d="M350 919q-21 0 -36.5 15.5t-15.5 36.5q0 22 15.5 37.5t36.5 15.5q22 0 37.5 -15.5t15.5 -37.5q0 -21 -15.5 -36.5t-37.5 -15.5zM153 -7q-21 0 -36.5 15.5t-15.5 36.5q0 22 15.5 37.5t36.5 15.5q22 0 37.5 -15.5t15.5 -37.5q0 -21 -15.5 -36.5t-37.5 -15.5z" />
    <glyph glyph-name="semicolon" unicode=";" horiz-adv-x="489" 
d="M350 919q-21 0 -36.5 15.5t-15.5 36.5q0 22 15.5 37.5t36.5 15.5q22 0 37.5 -15.5t15.5 -37.5q0 -21 -15.5 -36.5t-37.5 -15.5zM25 -253h-44l185 427h52z" />
    <glyph glyph-name="less" unicode="&#x3c;" horiz-adv-x="1178" 
d="M952 133l-11 -53l-791 476l10 46l993 475l-13 -58l-923 -441l-1 -5z" />
    <glyph glyph-name="equal" unicode="=" horiz-adv-x="1178" 
d="M1086 766h-889l10 46h888zM996 343h-889l9 46h889z" />
    <glyph glyph-name="greater" unicode="&#x3e;" horiz-adv-x="1178" 
d="M251 1025l11 52l790 -476l-10 -45l-993 -476l13 58l923 441l1 6z" />
    <glyph glyph-name="question" unicode="?" horiz-adv-x="908" 
d="M195 1129q37 153 148 243.5t268 90.5t254.5 -93t97.5 -232q0 -128 -75.5 -225t-218.5 -150q-107 -39 -161.5 -98t-74.5 -154l-24 -113h-51l25 117q23 111 82 175.5t177 108.5q270 103 270 334q0 124 -81.5 203.5t-222.5 79.5q-134 0 -231.5 -77.5t-133.5 -209.5h-48z
M323 -7q-22 0 -37.5 15.5t-15.5 36.5q0 22 15.5 37.5t37.5 15.5t37.5 -15.5t15.5 -37.5q0 -21 -15.5 -36.5t-37.5 -15.5z" />
    <glyph glyph-name="at" unicode="@" horiz-adv-x="1727" 
d="M999 1431q335 0 537 -180t202 -480q0 -163 -56 -300t-153 -216.5t-212 -79.5q-88 0 -142 43t-55 113q0 18 3 36h-5q-53 -90 -134.5 -141t-174.5 -51q-132 0 -213 93t-81 244q0 132 58.5 248t157 185t209.5 69q105 0 178 -61t85 -159h5l40 193h50l-121 -567
q-11 -45 -11 -76q0 -57 41.5 -90.5t111.5 -33.5q101 0 186.5 73.5t135 200.5t49.5 277q0 282 -188.5 449t-505.5 167q-251 0 -452 -110t-314 -305.5t-113 -439.5q0 -332 208 -527t562 -195q119 0 182 17l-9 -47q-72 -15 -178 -15q-371 0 -592 208t-221 557q0 257 120 463
t332.5 322t477.5 116zM1177 691q0 131 -61 204.5t-171 73.5q-155 0 -267.5 -134.5t-112.5 -320.5q0 -134 66.5 -214t178.5 -80q98 0 182.5 64.5t134.5 173t50 233.5z" />
    <glyph glyph-name="A" unicode="A" horiz-adv-x="1201" 
d="M1021 0l-85 502h-668l-299 -502h-60l861 1443h52l247 -1443h-48zM784 1375l-490 -828h635l-141 828h-4z" />
    <glyph glyph-name="B" unicode="B" horiz-adv-x="1169" 
d="M512 0h-492l307 1443h466q169 0 264 -87t95 -228q0 -144 -104.5 -254.5t-257.5 -130.5l-1 -4q130 -16 210 -97.5t80 -215.5q0 -194 -156.5 -310t-410.5 -116zM367 1397l-134 -632h450q112 0 208 47t153.5 129t57.5 180q0 127 -82 201.5t-235 74.5h-418zM80 46h437
q228 0 370 105.5t142 271.5q0 144 -101 220t-261 76h-444z" />
    <glyph glyph-name="C" unicode="C" horiz-adv-x="1342" 
d="M1314 973v2q-2 194 -134.5 317.5t-349.5 123.5q-186 0 -340 -112t-242.5 -306t-88.5 -427q0 -244 141.5 -394t372.5 -150q189 0 331.5 96.5t204.5 268.5h53q-65 -193 -222.5 -302.5t-370.5 -109.5q-251 0 -406 161.5t-155 423.5q0 251 95 457t261.5 323.5t369.5 117.5
q236 0 382 -136.5t148 -351.5v-2h-50z" />
    <glyph glyph-name="D" unicode="D" horiz-adv-x="1348" 
d="M327 1443h424q276 0 426 -149t150 -406q0 -256 -104.5 -457.5t-299.5 -316t-449 -114.5h-453zM369 1396l-287 -1349h392q238 0 422 108.5t282.5 298t98.5 428.5q0 242 -136.5 378t-395.5 136h-376z" />
    <glyph glyph-name="E" unicode="E" horiz-adv-x="1039" 
d="M856 47l-10 -47h-826l307 1443h826l-10 -47h-776l-134 -632h740l-11 -46h-739l-142 -671h775z" />
    <glyph glyph-name="F" unicode="F" horiz-adv-x="1008" 
d="M70 0h-50l307 1443h816l-10 -47h-766l-135 -634h706l-11 -47h-706z" />
    <glyph glyph-name="G" unicode="G" horiz-adv-x="1351" 
d="M1311 691l-39 -179q-56 -255 -215 -393.5t-393 -138.5q-249 0 -402.5 162t-153.5 423q0 248 93 454t258 325t368 119q218 0 359.5 -119t164.5 -320v-1h-50q-23 181 -151.5 287t-326.5 106q-185 0 -338 -113.5t-240 -307t-87 -424.5q0 -244 140.5 -394t369.5 -150
q210 0 357 129.5t199 361.5l29 127h-505l10 46h553z" />
    <glyph glyph-name="H" unicode="H" horiz-adv-x="1310" 
d="M1068 0h-50l153 718h-948l-153 -718h-50l307 1443h50l-144 -678h948l144 678h50z" />
    <glyph glyph-name="I" unicode="I" horiz-adv-x="312" 
d="M70 0h-50l307 1443h50z" />
    <glyph glyph-name="J" unicode="J" horiz-adv-x="937" 
d="M4 295q0 12 1 22h51q-1 -5 -1 -17q0 -122 84 -198.5t220 -76.5q138 0 233 87.5t129 243.5l231 1087h50l-235 -1108q-36 -168 -145.5 -262.5t-267.5 -94.5q-156 0 -253 88.5t-97 228.5z" />
    <glyph glyph-name="K" unicode="&#x212a;" horiz-adv-x="1109" 
d="M70 0h-50l307 1443h50l-176 -828h4l952 828h72l-716 -623l479 -820h-58l-459 788l-292 -253z" />
    <glyph glyph-name="K" unicode="K" horiz-adv-x="1109" 
d="M70 0h-50l307 1443h50l-176 -828h4l952 828h72l-716 -623l479 -820h-58l-459 788l-292 -253z" />
    <glyph glyph-name="L" unicode="L" horiz-adv-x="1002" 
d="M855 47l-10 -47h-825l307 1443h50l-297 -1396h775z" />
    <glyph glyph-name="M" unicode="M" horiz-adv-x="1589" 
d="M69 0h-49l307 1443h50l316 -1381h4l898 1381h59l-307 -1443h-49l283 1329h-4l-866 -1328h-53l-302 1328h-5z" />
    <glyph glyph-name="N" unicode="N" horiz-adv-x="1332" 
d="M70 0h-50l307 1443h48l679 -1362h4l289 1362h50l-307 -1443h-48l-679 1362h-4z" />
    <glyph glyph-name="O" unicode="O" horiz-adv-x="1436" 
d="M678 -20q-254 0 -410.5 165.5t-156.5 438.5q0 184 56.5 347.5t153.5 280t232.5 184t289.5 67.5q253 0 409.5 -165.5t156.5 -438.5q0 -184 -56.5 -347.5t-153 -280t-232.5 -184t-289 -67.5zM839 1416q-188 0 -343.5 -109t-245 -298.5t-89.5 -418.5q0 -257 143 -410
t377 -153q188 0 343.5 109t245 298.5t89.5 418.5q0 257 -142.5 410t-377.5 153z" />
    <glyph glyph-name="P" unicode="P" horiz-adv-x="1138" 
d="M331 1443h413q194 0 307 -104.5t113 -271.5q0 -213 -159.5 -339.5t-418.5 -126.5h-386l-130 -601h-50zM372 1396l-162 -748h380q229 0 376.5 112.5t147.5 303.5q0 147 -100 239.5t-276 92.5h-366z" />
    <glyph glyph-name="Q" unicode="Q" horiz-adv-x="1436" 
d="M1118 -182h-53l-114 222q-129 -60 -273 -60q-254 0 -410.5 165.5t-156.5 438.5q0 184 56.5 347.5t153.5 280t232.5 184t289.5 67.5q253 0 409.5 -165.5t156.5 -438.5q0 -268 -113 -481t-303 -318zM681 27q131 0 249 55l-144 278h53l132 -256q177 99 282.5 299.5
t105.5 449.5q0 257 -142.5 410t-377.5 153q-188 0 -343.5 -109t-245 -298.5t-89.5 -418.5q0 -257 143 -410t377 -153z" />
    <glyph glyph-name="R" unicode="R" horiz-adv-x="1142" 
d="M20 0l311 1443h395q207 0 320 -97.5t113 -264.5q0 -182 -117 -299.5t-320 -143.5l244 -638h-53l-242 632h-464l-137 -632h-50zM372 1396l-156 -717h423q209 0 339.5 110.5t130.5 287.5q0 148 -100 233.5t-286 85.5h-351z" />
    <glyph glyph-name="S" unicode="S" horiz-adv-x="1187" 
d="M54 401h50q8 -167 139.5 -270.5t336.5 -103.5q195 0 315 96.5t120 254.5q0 106 -67 178.5t-218 132.5l-130 51q-186 74 -266 157t-80 206q0 159 128.5 259.5t331.5 100.5q201 0 335 -110t146 -285h-50q-11 153 -131 250.5t-300 97.5q-181 0 -295 -87.5t-114 -224.5
q0 -107 72.5 -179.5t243.5 -139.5l133 -52q165 -64 239 -147.5t74 -206.5q0 -177 -134.5 -288t-353.5 -111q-227 0 -372.5 116.5t-152.5 304.5z" />
    <glyph glyph-name="T" unicode="T" horiz-adv-x="1143" 
d="M486 0h-50l297 1396h-521l10 47h1091l-10 -47h-520z" />
    <glyph glyph-name="U" unicode="U" horiz-adv-x="1337" 
d="M603 -20q-215 0 -348 117t-133 305q0 71 14 143l193 898h50l-194 -901q-13 -57 -13 -136q1 -171 120 -275t315 -104q207 0 349.5 115.5t185.5 318.5l210 982h50l-211 -988q-49 -226 -203 -350.5t-385 -124.5z" />
    <glyph glyph-name="V" unicode="V" horiz-adv-x="1201" 
d="M515 0h-52l-247 1443h49l234 -1371h4l816 1371h58z" />
    <glyph glyph-name="W" unicode="W" horiz-adv-x="1744" 
d="M1042 1341l-679 -1341h-48l-97 1443h49l90 -1342h4l679 1342h46l113 -1342h4l660 1342h55l-713 -1443h-46l-113 1341h-4z" />
    <glyph glyph-name="X" unicode="X" horiz-adv-x="1156" 
d="M-90 0l681 726l-368 717h56l349 -680l636 680h67l-679 -725l368 -718h-56l-349 681l-638 -681h-67z" />
    <glyph glyph-name="Y" unicode="Y" horiz-adv-x="1145" 
d="M487 0h-50l134 632l-355 811h55l331 -758h4l651 758h63l-699 -814z" />
    <glyph glyph-name="Z" unicode="Z" horiz-adv-x="1153" 
d="M-45 0l10 42l1237 1351v4h-921l10 46h990l-10 -43l-1236 -1350v-4h950l-10 -46h-1020z" />
    <glyph glyph-name="bracketleft" unicode="[" horiz-adv-x="582" 
d="M396 1443h353l-10 -45h-303l-352 -1652h304l-10 -45h-352z" />
    <glyph glyph-name="backslash" unicode="\" horiz-adv-x="582" 
d="M304 -299l-51 1742h47l51 -1742h-47z" />
    <glyph glyph-name="bracketright" unicode="]" horiz-adv-x="582" 
d="M207 -299h-353l10 45h303l351 1652h-303l9 45h353z" />
    <glyph glyph-name="asciicircum" unicode="^" horiz-adv-x="727" 
d="M538 1350l-287 -388h-53l331 449h40l141 -449h-48l-121 388h-3z" />
    <glyph glyph-name="underscore" unicode="_" horiz-adv-x="1024" 
d="M-152 -145l10 45h1044l-10 -45h-1044z" />
    <glyph glyph-name="grave" unicode="`" horiz-adv-x="1024" 
d="M728 1216l-119 304h53l112 -304h-46z" />
    <glyph glyph-name="a" unicode="a" horiz-adv-x="966" 
d="M346 -15q-143 0 -233 74t-90 192q0 143 112.5 227t319.5 96l372 22l19 93q11 50 11 85q0 110 -76.5 173t-212.5 63q-144 0 -242.5 -70t-124.5 -191h-51q29 140 143 223.5t278 83.5q152 0 243.5 -76t91.5 -202q0 -40 -9 -90l-147 -688h-49l44 204l-4 1
q-57 -100 -164.5 -160t-230.5 -60zM352 30q152 0 272.5 94t151.5 237l42 191l-362 -21q-184 -10 -283.5 -82t-99.5 -194q0 -100 77 -162.5t202 -62.5z" />
    <glyph glyph-name="b" unicode="b" horiz-adv-x="1090" 
d="M501 -15q-153 0 -258.5 95.5t-118.5 244.5h-4l-69 -325h-48l307 1443h49l-138 -656h4q67 125 179 196.5t241 71.5q174 0 278.5 -119.5t104.5 -320.5q0 -174 -68.5 -318.5t-190 -228t-268.5 -83.5zM504 30q131 0 240 77.5t171.5 212t62.5 295.5q0 183 -91.5 289
t-249.5 106q-129 0 -240 -82t-176.5 -221t-65.5 -299q0 -170 96 -274t253 -104z" />
    <glyph glyph-name="c" unicode="c" horiz-adv-x="1000" 
d="M588 1056q158 0 264 -91t123 -239v-1h-49q-16 128 -108.5 206.5t-230.5 78.5q-132 0 -241.5 -77.5t-172 -212.5t-62.5 -298q0 -176 99.5 -284t261.5 -108q126 0 226.5 65t148.5 175h51q-54 -134 -167 -210t-260 -76q-185 0 -297.5 120.5t-112.5 315.5q0 133 40.5 251
t110.5 202.5t167.5 133.5t208.5 49z" />
    <glyph glyph-name="d" unicode="d" horiz-adv-x="1091" 
d="M430 -15q-168 0 -273 116t-105 300q0 175 74 326t198.5 239.5t268.5 88.5q152 0 255 -93t116 -243h4l154 724h50l-307 -1443h-50l54 253h-4q-66 -123 -184.5 -195.5t-250.5 -72.5zM439 30q140 0 254.5 84t177.5 221.5t63 296.5q0 172 -93.5 275t-248.5 103
q-128 0 -241.5 -83.5t-181.5 -223.5t-68 -297q0 -169 92.5 -272.5t245.5 -103.5z" />
    <glyph glyph-name="e" unicode="e" horiz-adv-x="1017" 
d="M458 -16q-185 0 -294 114t-109 307q0 184 69.5 333t192 233.5t274.5 84.5q176 0 278.5 -108.5t102.5 -293.5q0 -71 -16 -137h-841q-11 -71 -11 -107q0 -175 96.5 -277.5t260.5 -102.5q142 0 244.5 68t147.5 192h52q-47 -143 -165.5 -224.5t-281.5 -81.5zM123 562h792
q8 37 8 91q0 164 -90 260.5t-245 96.5q-174 0 -303.5 -125t-161.5 -323z" />
    <glyph glyph-name="f" unicode="f" horiz-adv-x="521" 
d="M69 0l211 995h-163l10 45h162l33 155q25 119 94.5 180.5t173.5 61.5q57 0 104 -14l-10 -46q-43 15 -95 15q-83 0 -140 -52t-77 -148l-32 -152h250l-9 -45h-251l-211 -995h-50z" />
    <glyph glyph-name="g" unicode="g" horiz-adv-x="1084" 
d="M393 -371q-170 0 -281 82.5t-113 196.5h51q7 -98 102.5 -166t246.5 -68q156 0 264 84t140 228l61 280h-4q-61 -124 -174.5 -195.5t-247.5 -71.5q-175 0 -279 113.5t-104 304.5q0 171 71.5 318t195.5 233.5t270 86.5q154 0 253.5 -92t110.5 -242h4l70 319h50l-227 -1059
q-36 -165 -158.5 -258.5t-301.5 -93.5zM446 45q100 0 189.5 46t153 125t101 188t37.5 231q0 172 -91 273.5t-245 101.5q-130 0 -242.5 -80.5t-178.5 -216.5t-66 -293q0 -174 91.5 -274.5t250.5 -100.5z" />
    <glyph glyph-name="h" unicode="h" horiz-adv-x="1040" 
d="M3 0l310 1443h49l-133 -620h4q63 107 162 169.5t226 62.5q155 0 251 -89t96 -229q0 -55 -8 -97l-139 -640h-48l134 629q11 60 11 98q0 128 -83.5 205.5t-222.5 77.5q-155 0 -271 -105.5t-149 -259.5l-139 -645h-50z" />
    <glyph glyph-name="i" unicode="i" horiz-adv-x="286" 
d="M322 1317q-20 0 -34 13.5t-14 33.5q0 19 14 32.5t34 13.5q19 0 33 -13.5t14 -32.5q0 -20 -14 -33.5t-33 -13.5zM7 0l221 1040h50l-221 -1040h-50z" />
    <glyph glyph-name="j" unicode="j" horiz-adv-x="290" 
d="M324 1317q-20 0 -34 13.5t-14 33.5q0 19 14 32.5t34 13.5q19 0 33 -13.5t14 -32.5q0 -20 -14 -33.5t-33 -13.5zM280 1040l-245 -1157q-26 -123 -92.5 -177.5t-178.5 -54.5q-34 0 -67 3l10 45q27 -3 56 -3q93 0 147 46.5t75 145.5l245 1152h50z" />
    <glyph glyph-name="k" unicode="k" horiz-adv-x="881" 
d="M53 0h-50l307 1443h50l-203 -949h4l731 546h75l-596 -449l391 -591h-58l-374 564l-188 -142z" />
    <glyph glyph-name="l" unicode="l" horiz-adv-x="290" 
d="M9 0l307 1443h50l-307 -1443h-50z" />
    <glyph glyph-name="m" unicode="m" horiz-adv-x="1582" 
d="M3 0l221 1040h49l-45 -209h4q107 225 326 225q123 0 205.5 -74.5t90.5 -192.5h4q41 118 137.5 192.5t219.5 74.5q130 0 214 -81.5t84 -208.5q0 -75 -11 -124l-137 -642h-49l134 632q14 65 14 124q0 113 -72 183.5t-187 70.5q-131 0 -227 -98.5t-132 -269.5l-137 -642h-50
l134 632q14 65 14 124q0 113 -71.5 183.5t-187.5 70.5q-127 0 -224 -98t-133 -264l-139 -648h-49z" />
    <glyph glyph-name="n" unicode="n" horiz-adv-x="1033" 
d="M3 0l221 1040h49l-47 -222h4q63 110 163.5 174t228.5 64q153 0 248 -87.5t95 -223.5q0 -54 -11 -105l-137 -640h-49l134 629q13 63 13 107q0 123 -82.5 198.5t-220.5 75.5q-155 0 -271.5 -106t-149.5 -259l-139 -645h-49z" />
    <glyph glyph-name="o" unicode="o" horiz-adv-x="1075" 
d="M595 1056q190 0 304 -119.5t114 -316.5q0 -180 -69.5 -325.5t-191.5 -228t-273 -82.5q-189 0 -303.5 119.5t-114.5 316.5q0 180 69.5 325.5t191.5 228t273 82.5zM479 30q135 0 246.5 77t175 212t63.5 299q0 177 -101 284.5t-268 107.5q-135 0 -246 -77t-174.5 -211.5
t-63.5 -299.5q0 -177 100.5 -284.5t267.5 -107.5z" />
    <glyph glyph-name="p" unicode="p" horiz-adv-x="1086" 
d="M-19 -339h-50l293 1379h48l-54 -254h6q67 126 179.5 197.5t241.5 71.5q174 0 278 -120t104 -320q0 -175 -69 -320t-189.5 -227.5t-267.5 -82.5q-153 0 -258.5 95t-118.5 244h-3zM504 30q130 0 239 77.5t172 212t63 295.5q0 183 -91.5 289t-249.5 106q-129 0 -240 -82
t-176.5 -221t-65.5 -299q0 -170 96 -274t253 -104z" />
    <glyph glyph-name="q" unicode="q" horiz-adv-x="1091" 
d="M794 -339h-51l127 593h-4q-67 -123 -185.5 -196t-250.5 -73q-167 0 -272.5 117.5t-105.5 302.5q0 172 74 322.5t199 239t268 88.5q154 0 257 -94.5t115 -245.5h3l69 325h50zM439 30q136 0 250 79.5t179.5 218t65.5 304.5q0 175 -92.5 276.5t-251.5 101.5
q-126 0 -239.5 -84t-181.5 -224.5t-68 -296.5q0 -166 94.5 -270.5t243.5 -104.5z" />
    <glyph glyph-name="r" unicode="r" horiz-adv-x="598" 
d="M3 0l221 1040h49l-41 -191h4q113 206 300 206q89 0 138 -29l-11 -50q-41 33 -134 33q-117 0 -211 -103.5t-130 -271.5l-136 -634h-49z" />
    <glyph glyph-name="s" unicode="s" horiz-adv-x="914" 
d="M172 780q0 120 100 198t256 78q150 0 250 -84t113 -218h-50q-13 114 -99.5 185.5t-217.5 71.5q-130 0 -216 -65t-86 -163q0 -74 50.5 -123.5t167.5 -90.5l89 -32q143 -50 203 -111t60 -158q0 -126 -103 -205t-267 -79q-166 0 -279.5 87.5t-127.5 227.5h50
q16 -121 115.5 -195.5t244.5 -74.5q140 0 228.5 67t88.5 171q0 81 -52.5 131.5t-186.5 96.5l-91 33q-124 43 -182 104t-58 148z" />
    <glyph glyph-name="t" unicode="t" horiz-adv-x="511" 
d="M307 -1q-99 0 -155 42.5t-56 121.5q0 36 11 89l158 743h-150l9 45h150l60 279h49l-58 -279h225l-10 -45h-225l-158 -742q-10 -47 -10 -76q0 -65 44 -98.5t125 -33.5q56 0 58 1l-10 -46q-1 0 -28 -0.5t-29 -0.5z" />
    <glyph glyph-name="u" unicode="u" horiz-adv-x="1034" 
d="M1031 1040l-221 -1040h-48l47 220h-3q-63 -108 -165 -172t-230 -64q-153 0 -247.5 88t-94.5 223q0 52 10 105l138 640h49l-134 -629q-13 -59 -13 -106q0 -124 81.5 -199.5t220.5 -75.5q155 0 273 106t150 259l138 645h49z" />
    <glyph glyph-name="v" unicode="v" horiz-adv-x="872" 
d="M122 1040h50l163 -992h4l583 992h57l-616 -1040h-68z" />
    <glyph glyph-name="w" unicode="w" horiz-adv-x="1380" 
d="M1486 1040l-525 -1040h-68l-95 980h-3l-511 -980h-70l-82 1040h48l77 -985h4l513 985h66l94 -985h4l493 985h55z" />
    <glyph glyph-name="x" unicode="x" horiz-adv-x="860" 
d="M425 476h-4l-453 -476h-66l498 523l-279 517h56l256 -479h4l456 479h66l-500 -525l277 -515h-55z" />
    <glyph glyph-name="y" unicode="y" horiz-adv-x="876" 
d="M2 -349q-33 0 -56 6l8 44q30 -5 51 -5q69 0 123.5 44t115.5 149l56 94l-180 1057h51l166 -991h3l580 991h56l-689 -1173q-73 -123 -136 -169.5t-149 -46.5z" />
    <glyph glyph-name="z" unicode="z" horiz-adv-x="896" 
d="M-52 0l9 46l905 945l1 4h-703l10 45h770l-9 -46l-905 -945l-1 -4h703l-10 -45h-770z" />
    <glyph glyph-name="braceleft" unicode="{" horiz-adv-x="582" 
d="M198 300q12 56 12 94q0 73 -41.5 99.5t-138.5 34.5l20 88q120 0 176 42.5t82 163.5l72 334q37 171 103 229t212 58h54l-10 -45h-45q-122 0 -178 -49.5t-87 -192.5l-73 -346q-27 -126 -85.5 -173t-183.5 -59l-4 -18q91 -9 134.5 -43t43.5 -114q0 -39 -12 -95l-57 -265
q-16 -75 -16 -122q0 -91 45.5 -133t139.5 -42h25l-9 -45h-30q-113 0 -167.5 55.5t-54.5 156.5q0 56 16 128z" />
    <glyph glyph-name="bar" unicode="|" horiz-adv-x="582" 
d="M140 -299h-47l370 1742h48z" />
    <glyph glyph-name="braceright" unicode="}" horiz-adv-x="582" 
d="M405 844q-12 -56 -12 -93q0 -73 41.5 -100t137.5 -34l-19 -89q-121 0 -176 -42t-82 -164l-72 -334q-37 -170 -103 -228.5t-212 -58.5h-54l10 45h45q121 0 177.5 50t87.5 192l73 346q27 127 85.5 174t183.5 59l4 17q-91 9 -134.5 43.5t-43.5 114.5q0 40 12 94l57 265
q16 75 16 123q0 90 -45.5 132t-139.5 42h-25l9 45h30q221 0 221 -212q0 -59 -15 -128z" />
    <glyph glyph-name="asciitilde" unicode="~" horiz-adv-x="1178" 
d="M792 430q-58 0 -105.5 24.5t-80.5 59t-63.5 69.5t-69 59.5t-81.5 24.5q-75 0 -136 -64t-84 -167h-48q27 124 99.5 201t170.5 77q43 0 81.5 -17.5t65.5 -44t57.5 -57t56.5 -57t62.5 -44t76.5 -17.5q74 0 142.5 70t94.5 174h48q-25 -120 -108 -205.5t-179 -85.5z" />
    <glyph glyph-name="nonbreakingspace" unicode="&#xa0;" horiz-adv-x="500" 
 />
    <glyph glyph-name="exclamdown" unicode="&#xa1;" horiz-adv-x="500" 
d="M363 1112q22 0 37.5 -15.5t15.5 -37.5q0 -21 -15.5 -36.5t-37.5 -15.5t-37.5 15.5t-15.5 36.5q0 22 15.5 37.5t37.5 15.5zM94 -340h-55l219 1032h53z" />
    <glyph glyph-name="cent" unicode="&#xa2;" horiz-adv-x="1178" 
d="M484 0l41 192q-151 26 -239.5 141.5t-88.5 288.5q0 178 68.5 324t189 229t268.5 83q5 0 14.5 -0.5t13.5 -0.5l40 186h45l-40 -191q131 -20 215.5 -107.5t98.5 -217.5h-49q-13 112 -87.5 187.5t-187.5 92.5l-207 -975q4 0 13.5 -0.5t14.5 -0.5q127 0 227 65t148 176h51
q-53 -135 -166 -211t-260 -76q-14 0 -38 2l-40 -187h-45zM246 623q0 -154 78.5 -258t209.5 -127l207 973h-18q-132 0 -241.5 -77.5t-172.5 -212.5t-63 -298z" />
    <glyph glyph-name="sterling" unicode="&#xa3;" horiz-adv-x="1178" 
d="M431 548q0 -196 -99 -330.5t-241 -157.5l-1 -4h913l-10 -46h-1036l11 48q194 27 302.5 157.5t108.5 326.5q0 46 -6 148h-229l9 46h218q-6 77 -6 143q0 180 72 309.5t192 192t274 62.5q91 0 176 -22t128 -45l-14 -45q-42 26 -121 46t-171 20q-102 0 -189.5 -32.5
t-153.5 -95t-104 -161t-38 -222.5q0 -56 7 -150h537l-9 -46h-526q6 -98 6 -142z" />
    <glyph glyph-name="currency" unicode="&#xa4;" horiz-adv-x="1178" 
d="M622 279q-162 0 -275 121l-238 -195l-30 36l238 197q-70 97 -70 217q0 166 123 278l-111 139l39 31l109 -140q96 68 215 68q161 0 273 -117l233 191l28 -36l-231 -191q73 -98 73 -223q0 -82 -33.5 -155t-93.5 -126l107 -135l-38 -31l-107 137q-94 -66 -211 -66zM622 325
q136 0 233 97.5t97 232.5q0 137 -97 234t-233 97t-232.5 -97t-96.5 -234q0 -88 49 -165t125 -121t155 -44z" />
    <glyph glyph-name="yen" unicode="&#xa5;" horiz-adv-x="1178" 
d="M506 9h-50l81 381h-348l9 44h348l42 197h-348l9 44h322l-328 745h55l321 -735h4l631 735h63l-642 -745h351l-10 -44h-378l-41 -197h377l-9 -44h-378z" />
    <glyph glyph-name="brokenbar" unicode="&#xa6;" horiz-adv-x="582" 
d="M366 760h-47l144 683h48zM141 -299h-48l146 684h47z" />
    <glyph glyph-name="section" unicode="&#xa7;" horiz-adv-x="931" 
d="M355 -166q-147 0 -247 79t-107 201h51q12 -102 97.5 -167t208.5 -65q131 0 218 71t89 178q2 73 -49 130t-163 106l-91 39q-112 49 -164.5 110.5t-50.5 147.5q2 115 89.5 196t205.5 90l1 6q-148 75 -145 224q2 121 99.5 202t239.5 81q132 0 223 -75t99 -188h-48
q-9 91 -90 153.5t-190 62.5q-115 0 -197 -68t-84 -165q-2 -76 43.5 -129t148.5 -94l86 -36q126 -51 182 -116.5t55 -158.5q-2 -115 -81.5 -194.5t-193.5 -94.5l-1 -4q67 -47 97 -100.5t29 -123.5q-2 -130 -104 -214t-256 -84zM391 449l135 -57q124 6 205 77t83 176
q2 79 -45.5 133.5t-159.5 101.5l-104 43q-127 -1 -216 -77.5t-91 -178.5q-1 -72 44.5 -122.5t148.5 -95.5z" />
    <glyph glyph-name="dieresis" unicode="&#xa8;" horiz-adv-x="1024" 
d="M552 1317q-20 0 -34 13.5t-14 33.5q0 19 14 32.5t34 13.5t34 -13.5t14 -32.5q0 -20 -14 -33.5t-34 -13.5zM829 1317q-19 0 -33 13.5t-14 33.5q0 19 14 32.5t33 13.5q20 0 34 -13.5t14 -32.5q0 -20 -14 -33.5t-34 -13.5z" />
    <glyph glyph-name="copyright" unicode="&#xa9;" horiz-adv-x="1736" 
d="M861 -138q-214 0 -381 92.5t-260 260t-93 380.5q0 160 63.5 307t170 254t253 170.5t305.5 63.5q161 0 297.5 -54t232.5 -149.5t150 -232t54 -297.5q0 -160 -63.5 -307t-170 -254t-253 -170.5t-305.5 -63.5zM861 -92q150 0 287.5 60t238 160.5t160 239t59.5 289.5
q0 202 -86 358.5t-242.5 242.5t-358.5 86q-150 0 -287.5 -60t-238 -160.5t-160 -239t-59.5 -289.5q0 -201 86.5 -357.5t243 -243t357.5 -86.5zM1271 774h-45q-7 111 -88.5 179.5t-203.5 68.5q-164 0 -275.5 -128.5t-111.5 -316.5q0 -154 84 -245.5t224 -91.5q98 0 175 46
t114 126h50q-42 -101 -132.5 -158t-208.5 -57q-160 0 -256.5 103t-96.5 275q0 206 127 348t311 142q141 0 233.5 -81t99.5 -210z" />
    <glyph glyph-name="a.sups" unicode="&#xaa;" horiz-adv-x="546" 
d="M334 881q-79 0 -130 40.5t-52 104.5q-1 78 61.5 122.5t178.5 50.5l200 11l10 46q5 27 5 41q-1 55 -42 86.5t-113 31.5q-76 0 -126.5 -34.5t-63.5 -93.5h-43q15 75 79 120.5t157 45.5q87 0 139.5 -41.5t53.5 -109.5q0 -28 -5 -47l-77 -365h-40l20 100h-2
q-30 -50 -87 -79.5t-123 -29.5zM343 918q80 0 143 46.5t79 117.5l20 93l-193 -11q-96 -4 -148 -39.5t-51 -95.5q1 -49 42.5 -80t107.5 -31z" />
    <glyph glyph-name="guillemotleft" unicode="&#xab;" horiz-adv-x="1105" 
d="M515 158h-62l-290 407l2 7l460 406h70l-462 -411l-2 -7zM864 158h-62l-289 407l1 7l460 406h70l-462 -411l-2 -7z" />
    <glyph glyph-name="logicalnot" unicode="&#xac;" horiz-adv-x="1178" 
d="M1027 601l-107 -506h-49l97 459h-793l10 47h842z" />
    <glyph glyph-name="registered" unicode="&#xae;" horiz-adv-x="1078" 
d="M640 668q-170 0 -287 115.5t-117 282.5q0 179 120 300.5t297 121.5q172 0 288.5 -114t116.5 -282q0 -181 -120 -302.5t-298 -121.5zM640 706q161 0 269 110.5t108 275.5q-1 151 -106 255t-257 104q-161 0 -269 -110t-109 -275q0 -150 106.5 -255t257.5 -105zM491 869h-40
l95 448h157q60 0 96 -34.5t36 -90.5t-36.5 -94t-99.5 -48l90 -181h-44l-90 178h-126zM578 1280l-42 -198h127q61 0 97 29t36 77q0 42 -26 67t-71 25h-121z" />
    <glyph glyph-name="macron" unicode="&#xaf;" horiz-adv-x="1024" 
d="M931 1386l-9 -44h-470l9 44h470z" />
    <glyph glyph-name="degree" unicode="&#xb0;" horiz-adv-x="727" 
d="M499 951q-98 0 -167.5 69t-69.5 167q0 97 69.5 166t167.5 69q97 0 166.5 -69t69.5 -166t-69.5 -166.5t-166.5 -69.5zM499 996q79 0 134.5 56t55.5 135q0 80 -55.5 136.5t-134.5 56.5t-135 -56.5t-56 -136.5q0 -79 56 -135t135 -56z" />
    <glyph glyph-name="plusminus" unicode="&#xb1;" horiz-adv-x="1178" 
d="M644 670l-77 -368h-48l78 368h-401l10 46h400l74 344h47l-73 -344h401l-10 -46h-401zM923 95h-849l10 46h849z" />
    <glyph glyph-name="two.sups" unicode="&#xb2;" horiz-adv-x="556" 
d="M242 1370q13 81 76.5 132t150.5 51q83 0 140 -46t58 -115q0 -60 -38.5 -111t-157.5 -147l-253 -202l-1 -3h385l-8 -39h-446l7 36l292 238q108 87 143 131t34 93q-1 54 -45.5 89.5t-110.5 35.5q-70 0 -121 -39.5t-63 -103.5h-42z" />
    <glyph glyph-name="three.sups" unicode="&#xb3;" horiz-adv-x="553" 
d="M328 1210l8 37h91q83 0 136 38.5t52 99.5q-1 58 -44.5 93t-114.5 35q-62 0 -109 -31t-64 -83h-43q19 70 79 111.5t141 41.5q87 0 142 -45.5t56 -115.5q1 -66 -46.5 -110.5t-126.5 -53.5v-2q63 -9 101 -49t39 -99q1 -87 -68.5 -142t-176.5 -55q-98 0 -162 49t-64 122
q0 12 3 24h41q-2 -14 -2 -20q1 -59 53.5 -97.5t132.5 -38.5q89 0 144.5 44t54.5 114q-1 61 -48.5 97t-126.5 36h-78z" />
    <glyph glyph-name="acute" unicode="&#xb4;" horiz-adv-x="1024" 
d="M594 1216h-52l241 304h59z" />
    <glyph glyph-name="mugreek" unicode="&#x3bc;" horiz-adv-x="1210" 
d="M-27 -339l293 1379h49l-141 -655q-12 -65 -12 -105q0 -118 71 -183.5t199 -65.5q158 0 284 110t161 279l131 620h49l-178 -854q-10 -45 -10 -75q0 -37 20.5 -56t67.5 -19q44 0 73 10l-10 -45q-29 -10 -72 -10q-131 0 -131 117q0 40 23 127h-4q-62 -114 -175 -182
t-239 -68q-116 0 -197.5 60t-85.5 149h-4l-113 -533h-49z" />
    <glyph glyph-name="mugreek" unicode="&#xb5;" horiz-adv-x="1210" 
d="M-27 -339l293 1379h49l-141 -655q-12 -65 -12 -105q0 -118 71 -183.5t199 -65.5q158 0 284 110t161 279l131 620h49l-178 -854q-10 -45 -10 -75q0 -37 20.5 -56t67.5 -19q44 0 73 10l-10 -45q-29 -10 -72 -10q-131 0 -131 117q0 40 23 127h-4q-62 -114 -175 -182
t-239 -68q-116 0 -197.5 60t-85.5 149h-4l-113 -533h-49z" />
    <glyph glyph-name="paragraph" unicode="&#xb6;" horiz-adv-x="931" 
d="M610 -146l339 1589h47l-338 -1589h-48zM429 -146h-48l192 899h-17q-135 0 -219 83.5t-84 217.5q0 177 128 283t324 106h62z" />
    <glyph glyph-name="middledot" unicode="&#xb7;" horiz-adv-x="509" 
d="M254 467q-21 0 -36.5 15.5t-15.5 37.5t15.5 37.5t36.5 15.5q22 0 37.5 -15.5t15.5 -37.5t-15.5 -37.5t-37.5 -15.5z" />
    <glyph glyph-name="cedilla" unicode="&#xb8;" horiz-adv-x="1024" 
d="M196 -439l9 44q54 -22 120 -22q71 0 116.5 33.5t45.5 89.5q0 53 -43.5 82t-120.5 29h-34l7 34l88 156h44v-7l-79 -141q81 0 134 -39.5t53 -112.5q0 -76 -59 -122t-153 -46q-69 0 -128 22z" />
    <glyph glyph-name="one.sups" unicode="&#xb9;" horiz-adv-x="393" 
d="M312 890l128 601h-1q-25 -11 -106 -56.5t-105 -57.5l12 50q11 6 52.5 30t84.5 47.5t74 38.5h43l-140 -653h-42z" />
    <glyph glyph-name="o.sups" unicode="&#xba;" horiz-adv-x="604" 
d="M468 1453q107 0 172 -64.5t67 -171.5q1 -144 -83.5 -240.5t-212.5 -96.5q-108 0 -172.5 64.5t-66.5 171.5q-2 144 83 240.5t213 96.5zM411 919q110 0 182.5 85t70.5 212q-1 90 -54.5 144t-141.5 54q-110 0 -182.5 -85t-71.5 -212q2 -90 55.5 -144t141.5 -54z" />
    <glyph glyph-name="guillemotright" unicode="&#xbb;" horiz-adv-x="1104" 
d="M609 978h62l289 -408l-1 -6l-460 -406h-70l462 411l1 6zM260 978h61l290 -408l-1 -6l-460 -406h-71l462 411l2 6z" />
    <glyph glyph-name="onequarter" unicode="&#xbc;" horiz-adv-x="1242" 
d="M291 790l128 601h-1q-25 -11 -106 -56.5t-105 -57.5l12 50q11 6 52.5 30t84.5 47.5t74 38.5h43l-140 -653h-42zM59 0h-57l1186 1443h56zM952 0l33 159h-359l8 42q70 83 155.5 173t280.5 281h62l-97 -456h109l-9 -40h-108l-33 -159h-42zM683 200l-1 -1h312l88 412h-2
q-176 -169 -250.5 -247t-146.5 -164z" />
    <glyph glyph-name="onehalf" unicode="&#xbd;" horiz-adv-x="1303" 
d="M291 790l128 601h-1q-25 -11 -106 -56.5t-105 -57.5l12 50q11 6 52.5 30t84.5 47.5t74 38.5h43l-140 -653h-42zM59 0h-57l1186 1443h56zM799 481q14 81 77 132t151 51q83 0 139.5 -46.5t57.5 -114.5q0 -60 -39 -111.5t-157 -146.5l-252 -203l-1 -2h384l-8 -40h-446l8 36
l291 238q108 87 143 131.5t34 93.5q-1 54 -45.5 89.5t-110.5 35.5q-69 0 -120.5 -40t-62.5 -103h-43z" />
    <glyph glyph-name="threequarters" unicode="&#xbe;" horiz-adv-x="1402" 
d="M307 1110l8 37h91q83 0 136 38.5t52 99.5q-1 58 -44.5 93t-114.5 35q-62 0 -109 -31t-64 -83h-43q19 70 79 111.5t141 41.5q87 0 142 -45.5t56 -115.5q1 -66 -46.5 -110.5t-126.5 -53.5v-2q63 -9 101 -49t39 -99q1 -87 -68.5 -142t-176.5 -55q-98 0 -162 49t-64 122
q0 12 3 24h41q-2 -14 -2 -20q1 -59 53.5 -97.5t132.5 -38.5q89 0 144.5 44t54.5 114q-1 61 -48.5 97t-126.5 36h-78zM219 0h-57l1186 1443h56zM1112 0l34 159h-360l9 42q126 152 435 454h63l-97 -456h108l-8 -40h-109l-33 -159h-42zM843 200l-1 -1h312l88 412h-2
q-177 -170 -252 -248.5t-145 -162.5z" />
    <glyph glyph-name="questiondown" unicode="&#xbf;" horiz-adv-x="908" 
d="M598 1119q22 0 37.5 -15.5t15.5 -37.5t-15.5 -37.5t-37.5 -15.5t-37 15.5t-15 37.5t15 37.5t37 15.5zM727 -19q-36 -154 -147 -244t-269 -90q-157 0 -254.5 92.5t-97.5 231.5q0 128 75.5 225.5t218.5 149.5q107 40 161.5 98.5t74.5 154.5l24 113h51l-25 -117
q-23 -110 -82 -175t-176 -109q-270 -102 -270 -335q0 -124 81 -203.5t222 -79.5q134 0 231.5 78t133.5 210h48z" />
    <glyph glyph-name="Agrave" unicode="&#xc0;" horiz-adv-x="1201" 
d="M797 1554l-114 287h52l108 -287h-46zM1021 0l-85 502h-668l-299 -502h-60l861 1443h52l247 -1443h-48zM784 1375l-490 -828h635l-141 828h-4z" />
    <glyph glyph-name="Aacute" unicode="&#xc1;" horiz-adv-x="1201" 
d="M840 1554h-52l229 287h58zM1021 0l-85 502h-668l-299 -502h-60l861 1443h52l247 -1443h-48zM784 1375l-490 -828h635l-141 828h-4z" />
    <glyph glyph-name="Acircumflex" unicode="&#xc2;" horiz-adv-x="1201" 
d="M897 1841l197 -287h-56l-166 244h-2l-268 -244h-64l316 287h43zM1021 0l-85 502h-668l-299 -502h-60l861 1443h52l247 -1443h-48zM784 1375l-490 -828h635l-141 828h-4z" />
    <glyph glyph-name="Atilde" unicode="&#xc3;" horiz-adv-x="1201" 
d="M556 1609q24 88 67 135.5t100 47.5q32 0 61.5 -16.5t51.5 -40.5t43.5 -48t46 -40.5t50.5 -16.5q78 0 120 139h45q-24 -88 -67 -135.5t-99 -47.5q-40 0 -76.5 25.5t-59.5 55.5t-55 55.5t-63 25.5q-78 0 -118 -139h-47zM1021 0l-85 502h-668l-299 -502h-60l861 1443h52
l247 -1443h-48zM784 1375l-490 -828h635l-141 828h-4z" />
    <glyph glyph-name="Adieresis" unicode="&#xc4;" horiz-adv-x="1201" 
d="M712 1654q-20 0 -34 13.5t-14 32.5q0 20 14 33.5t34 13.5q19 0 33 -13.5t14 -33.5q0 -19 -14 -32.5t-33 -13.5zM989 1654q-20 0 -34 13.5t-14 32.5q0 20 14 33.5t34 13.5t34 -13.5t14 -33.5q0 -19 -14 -32.5t-34 -13.5zM1021 0l-85 502h-668l-299 -502h-60l861 1443h52
l247 -1443h-48zM784 1375l-490 -828h635l-141 828h-4z" />
    <glyph glyph-name="Aring" unicode="&#x212b;" horiz-adv-x="1201" 
d="M861 1586q-67 0 -115.5 48.5t-48.5 116.5t48.5 116.5t115.5 48.5t115.5 -48.5t48.5 -116.5t-48.5 -116.5t-115.5 -48.5zM861 1624q53 0 89.5 37t36.5 90t-36.5 89.5t-89.5 36.5t-89 -36.5t-36 -89.5t36 -90t89 -37zM1021 0l-85 502h-668l-299 -502h-60l861 1443h52
l247 -1443h-48zM784 1375l-490 -828h635l-141 828h-4z" />
    <glyph glyph-name="Aring" unicode="&#xc5;" horiz-adv-x="1201" 
d="M861 1586q-67 0 -115.5 48.5t-48.5 116.5t48.5 116.5t115.5 48.5t115.5 -48.5t48.5 -116.5t-48.5 -116.5t-115.5 -48.5zM861 1624q53 0 89.5 37t36.5 90t-36.5 89.5t-89.5 36.5t-89 -36.5t-36 -89.5t36 -90t89 -37zM1021 0l-85 502h-668l-299 -502h-60l861 1443h52
l247 -1443h-48zM784 1375l-490 -828h635l-141 828h-4z" />
    <glyph glyph-name="AE" unicode="&#xc6;" horiz-adv-x="1832" 
d="M862 0l88 411h-688l-295 -411h-59l1037 1443h983l-10 -47h-709l-134 -633h673l-11 -46h-673l-142 -670h709l-10 -47h-759zM1159 1397h-190l-675 -939h665z" />
    <glyph glyph-name="Ccedilla" unicode="&#xc7;" horiz-adv-x="1342" 
d="M453 -439l9 44q54 -22 120 -22q71 0 116.5 33.5t45.5 89.5q0 53 -43.5 82t-120.5 29h-34l7 34l73 130q-233 14 -375.5 174t-142.5 410q0 251 95 457t261.5 323.5t369.5 117.5q236 0 382 -136.5t148 -351.5v-2h-50v2q-2 194 -134.5 317.5t-349.5 123.5q-186 0 -340 -112
t-242.5 -306t-88.5 -427q0 -244 141.5 -394t372.5 -150q189 0 331.5 96.5t204.5 268.5h53q-65 -193 -221.5 -302.5t-366.5 -109.5l-68 -121q81 0 134 -39.5t53 -112.5q0 -76 -59 -122t-153 -46q-69 0 -128 22z" />
    <glyph glyph-name="Egrave" unicode="&#xc8;" horiz-adv-x="1038" 
d="M741 1554l-114 287h53l107 -287h-46zM856 47l-10 -47h-826l307 1443h826l-10 -47h-776l-134 -632h740l-11 -46h-739l-142 -671h775z" />
    <glyph glyph-name="Eacute" unicode="&#xc9;" horiz-adv-x="1038" 
d="M784 1554h-51l228 287h58zM856 47l-10 -47h-826l307 1443h826l-10 -47h-776l-134 -632h740l-11 -46h-739l-142 -671h775z" />
    <glyph glyph-name="Ecircumflex" unicode="&#xca;" horiz-adv-x="1038" 
d="M841 1841l197 -287h-55l-166 244h-3l-268 -244h-63l316 287h42zM856 47l-10 -47h-826l307 1443h826l-10 -47h-776l-134 -632h740l-11 -46h-739l-142 -671h775z" />
    <glyph glyph-name="Edieresis" unicode="&#xcb;" horiz-adv-x="1038" 
d="M656 1654q-20 0 -34 13.5t-14 32.5q0 20 14 33.5t34 13.5t34 -13.5t14 -33.5q0 -19 -14 -32.5t-34 -13.5zM933 1654q-19 0 -33 13.5t-14 32.5q0 20 14 33.5t33 13.5q20 0 34 -13.5t14 -33.5q0 -19 -14 -32.5t-34 -13.5zM856 47l-10 -47h-826l307 1443h826l-10 -47h-776
l-134 -632h740l-11 -46h-739l-142 -671h775z" />
    <glyph glyph-name="Igrave" unicode="&#xcc;" horiz-adv-x="311" 
d="M352 1554l-113 287h52l107 -287h-46zM70 0h-50l307 1443h50z" />
    <glyph glyph-name="Iacute" unicode="&#xcd;" horiz-adv-x="311" 
d="M396 1554h-52l228 287h59zM70 0h-50l307 1443h50z" />
    <glyph glyph-name="Icircumflex" unicode="&#xce;" horiz-adv-x="311" 
d="M453 1841l197 -287h-56l-166 244h-2l-269 -244h-63l316 287h43zM70 0h-50l307 1443h50z" />
    <glyph glyph-name="Idieresis" unicode="&#xcf;" horiz-adv-x="311" 
d="M267 1654q-19 0 -33 13.5t-14 32.5q0 20 14 33.5t33 13.5q20 0 34 -13.5t14 -33.5q0 -19 -14 -32.5t-34 -13.5zM545 1654q-20 0 -34 13.5t-14 32.5q0 20 14 33.5t34 13.5q19 0 33 -13.5t14 -33.5q0 -19 -14 -32.5t-33 -13.5zM70 0h-50l307 1443h50z" />
    <glyph glyph-name="Eth" unicode="&#xd0;" horiz-adv-x="1348" 
d="M44 717l10 47h129l144 679h424q276 0 426 -149t150 -406q0 -256 -104.5 -457.5t-299.5 -316t-449 -114.5h-453l152 717h-129zM369 1396l-134 -632h448l-10 -47h-448l-143 -670h392q238 0 422 108.5t282.5 298t98.5 428.5q0 242 -136.5 378t-395.5 136h-376z" />
    <glyph glyph-name="Ntilde" unicode="&#xd1;" horiz-adv-x="1332" 
d="M618 1609q24 88 67 135.5t100 47.5q32 0 61.5 -16.5t51.5 -40.5t43.5 -48t46 -40.5t50.5 -16.5q77 0 120 139h45q-24 -88 -67 -135.5t-99 -47.5q-40 0 -76.5 25.5t-59.5 55.5t-55 55.5t-63 25.5q-77 0 -119 -139h-46zM70 0h-50l307 1443h48l679 -1362h4l289 1362h50
l-307 -1443h-48l-679 1362h-4z" />
    <glyph glyph-name="Ograve" unicode="&#xd2;" horiz-adv-x="1436" 
d="M844 1554l-113 287h52l107 -287h-46zM678 -20q-254 0 -410.5 165.5t-156.5 438.5q0 184 56.5 347.5t153.5 280t232.5 184t289.5 67.5q253 0 409.5 -165.5t156.5 -438.5q0 -184 -56.5 -347.5t-153 -280t-232.5 -184t-289 -67.5zM839 1416q-188 0 -343.5 -109t-245 -298.5
t-89.5 -418.5q0 -257 143 -410t377 -153q188 0 343.5 109t245 298.5t89.5 418.5q0 257 -142.5 410t-377.5 153z" />
    <glyph glyph-name="Oacute" unicode="&#xd3;" horiz-adv-x="1436" 
d="M888 1554h-52l229 287h58zM678 -20q-254 0 -410.5 165.5t-156.5 438.5q0 184 56.5 347.5t153.5 280t232.5 184t289.5 67.5q253 0 409.5 -165.5t156.5 -438.5q0 -184 -56.5 -347.5t-153 -280t-232.5 -184t-289 -67.5zM839 1416q-188 0 -343.5 -109t-245 -298.5
t-89.5 -418.5q0 -257 143 -410t377 -153q188 0 343.5 109t245 298.5t89.5 418.5q0 257 -142.5 410t-377.5 153z" />
    <glyph glyph-name="Ocircumflex" unicode="&#xd4;" horiz-adv-x="1436" 
d="M945 1841l197 -287h-56l-166 244h-2l-268 -244h-64l316 287h43zM678 -20q-254 0 -410.5 165.5t-156.5 438.5q0 184 56.5 347.5t153.5 280t232.5 184t289.5 67.5q253 0 409.5 -165.5t156.5 -438.5q0 -184 -56.5 -347.5t-153 -280t-232.5 -184t-289 -67.5zM839 1416
q-188 0 -343.5 -109t-245 -298.5t-89.5 -418.5q0 -257 143 -410t377 -153q188 0 343.5 109t245 298.5t89.5 418.5q0 257 -142.5 410t-377.5 153z" />
    <glyph glyph-name="Otilde" unicode="&#xd5;" horiz-adv-x="1436" 
d="M604 1609q24 88 67 135.5t100 47.5q32 0 61.5 -16.5t51.5 -40.5t43.5 -48t46 -40.5t50.5 -16.5q77 0 120 139h45q-24 -88 -67 -135.5t-99 -47.5q-40 0 -76.5 25.5t-59.5 55.5t-55 55.5t-63 25.5q-77 0 -119 -139h-46zM678 -20q-254 0 -410.5 165.5t-156.5 438.5
q0 184 56.5 347.5t153.5 280t232.5 184t289.5 67.5q253 0 409.5 -165.5t156.5 -438.5q0 -184 -56.5 -347.5t-153 -280t-232.5 -184t-289 -67.5zM839 1416q-188 0 -343.5 -109t-245 -298.5t-89.5 -418.5q0 -257 143 -410t377 -153q188 0 343.5 109t245 298.5t89.5 418.5
q0 257 -142.5 410t-377.5 153z" />
    <glyph glyph-name="Odieresis" unicode="&#xd6;" horiz-adv-x="1436" 
d="M760 1654q-20 0 -34 13.5t-14 32.5q0 20 14 33.5t34 13.5q19 0 33 -13.5t14 -33.5q0 -19 -14 -32.5t-33 -13.5zM1037 1654q-20 0 -34 13.5t-14 32.5q0 20 14 33.5t34 13.5t33.5 -13.5t13.5 -33.5q0 -19 -13.5 -32.5t-33.5 -13.5zM678 -20q-254 0 -410.5 165.5
t-156.5 438.5q0 184 56.5 347.5t153.5 280t232.5 184t289.5 67.5q253 0 409.5 -165.5t156.5 -438.5q0 -184 -56.5 -347.5t-153 -280t-232.5 -184t-289 -67.5zM839 1416q-188 0 -343.5 -109t-245 -298.5t-89.5 -418.5q0 -257 143 -410t377 -153q188 0 343.5 109t245 298.5
t89.5 418.5q0 257 -142.5 410t-377.5 153z" />
    <glyph glyph-name="multiply" unicode="&#xd7;" horiz-adv-x="1178" 
d="M873 193l-276 351l-425 -351l-30 35l426 353l-277 353l37 30l277 -352l426 352l30 -36l-428 -353l278 -352z" />
    <glyph glyph-name="Oslash" unicode="&#xd8;" horiz-adv-x="1436" 
d="M54 69l156 149q-99 154 -99 366q0 184 56.5 347.5t153.5 280t232.5 184t289.5 67.5q143 0 258 -55t191 -157l140 134l35 -33l-148 -142q90 -147 90 -351q0 -184 -56.5 -347.5t-153 -280t-232.5 -184t-289 -67.5q-139 0 -251.5 52t-188.5 148l-151 -144zM839 1416
q-188 0 -343.5 -109t-245 -298.5t-89.5 -418.5q0 -196 87 -336l1007 961q-69 97 -176 149t-240 52zM1359 853q0 185 -78 321l-1007 -959q70 -91 174 -139.5t233 -48.5q188 0 343.5 109t245 298.5t89.5 418.5z" />
    <glyph glyph-name="Ugrave" unicode="&#xd9;" horiz-adv-x="1337" 
d="M865 1554l-114 287h53l107 -287h-46zM603 -20q-215 0 -348 117t-133 305q0 71 14 143l193 898h50l-194 -901q-13 -57 -13 -136q1 -171 120 -275t315 -104q207 0 349.5 115.5t185.5 318.5l210 982h50l-211 -988q-49 -226 -203 -350.5t-385 -124.5z" />
    <glyph glyph-name="Uacute" unicode="&#xda;" horiz-adv-x="1337" 
d="M908 1554h-51l228 287h58zM603 -20q-215 0 -348 117t-133 305q0 71 14 143l193 898h50l-194 -901q-13 -57 -13 -136q1 -171 120 -275t315 -104q207 0 349.5 115.5t185.5 318.5l210 982h50l-211 -988q-49 -226 -203 -350.5t-385 -124.5z" />
    <glyph glyph-name="Ucircumflex" unicode="&#xdb;" horiz-adv-x="1337" 
d="M966 1841l196 -287h-55l-166 244h-3l-268 -244h-63l316 287h43zM603 -20q-215 0 -348 117t-133 305q0 71 14 143l193 898h50l-194 -901q-13 -57 -13 -136q1 -171 120 -275t315 -104q207 0 349.5 115.5t185.5 318.5l210 982h50l-211 -988q-49 -226 -203 -350.5
t-385 -124.5z" />
    <glyph glyph-name="Udieresis" unicode="&#xdc;" horiz-adv-x="1337" 
d="M780 1654q-20 0 -34 13.5t-14 32.5q0 20 14 33.5t34 13.5t34 -13.5t14 -33.5q0 -19 -14 -32.5t-34 -13.5zM1057 1654q-19 0 -33 13.5t-14 32.5q0 20 14 33.5t33 13.5q20 0 34 -13.5t14 -33.5q0 -19 -14 -32.5t-34 -13.5zM603 -20q-215 0 -348 117t-133 305q0 71 14 143
l193 898h50l-194 -901q-13 -57 -13 -136q1 -171 120 -275t315 -104q207 0 349.5 115.5t185.5 318.5l210 982h50l-211 -988q-49 -226 -203 -350.5t-385 -124.5z" />
    <glyph glyph-name="Yacute" unicode="&#xdd;" horiz-adv-x="1144" 
d="M811 1554h-52l229 287h58zM487 0h-50l134 632l-355 811h55l331 -758h4l651 758h63l-699 -814z" />
    <glyph glyph-name="Thorn" unicode="&#xde;" horiz-adv-x="1133" 
d="M10 0l307 1443h52l-63 -291h402q177 0 283.5 -97.5t106.5 -237.5q0 -207 -143.5 -334.5t-391.5 -127.5h-426l-75 -355h-52zM297 1105l-149 -704h423q219 0 348 115t129 294q0 125 -92 210t-259 85h-400z" />
    <glyph glyph-name="germandbls" unicode="&#xdf;" horiz-adv-x="1046" 
d="M71 0h-49l235 1096q34 159 138.5 247.5t256.5 88.5q153 0 250.5 -86t97.5 -222q0 -141 -98.5 -246.5t-245.5 -122.5v-3q140 -17 226 -113t86 -235q0 -183 -130.5 -302.5t-329.5 -119.5q-122 0 -239 38l10 47q113 -37 223 -37q181 0 297 104.5t116 268.5q0 146 -104 236.5
t-270 90.5h-102l11 49h125q152 0 263 99.5t111 236.5q0 120 -83 195.5t-215 75.5q-131 0 -225.5 -80.5t-123.5 -217.5z" />
    <glyph glyph-name="agrave" unicode="&#xe0;" horiz-adv-x="966" 
d="M587 1216l-119 304h53l112 -304h-46zM346 -15q-143 0 -233 74t-90 192q0 143 112.5 227t319.5 96l372 22l19 93q11 50 11 85q0 110 -76.5 173t-212.5 63q-144 0 -242.5 -70t-124.5 -191h-51q29 140 143 223.5t278 83.5q152 0 243.5 -76t91.5 -202q0 -40 -9 -90l-147 -688
h-49l44 204l-4 1q-57 -100 -164.5 -160t-230.5 -60zM352 30q152 0 272.5 94t151.5 237l42 191l-362 -21q-184 -10 -283.5 -82t-99.5 -194q0 -100 77 -162.5t202 -62.5z" />
    <glyph glyph-name="aacute" unicode="&#xe1;" horiz-adv-x="966" 
d="M628 1216h-52l241 304h59zM346 -15q-143 0 -233 74t-90 192q0 143 112.5 227t319.5 96l372 22l19 93q11 50 11 85q0 110 -76.5 173t-212.5 63q-144 0 -242.5 -70t-124.5 -191h-51q29 140 143 223.5t278 83.5q152 0 243.5 -76t91.5 -202q0 -40 -9 -90l-147 -688h-49
l44 204l-4 1q-57 -100 -164.5 -160t-230.5 -60zM352 30q152 0 272.5 94t151.5 237l42 191l-362 -21q-184 -10 -283.5 -82t-99.5 -194q0 -100 77 -162.5t202 -62.5z" />
    <glyph glyph-name="acircumflex" unicode="&#xe2;" horiz-adv-x="966" 
d="M703 1520l185 -304h-54l-160 263h-2l-284 -263h-62l324 304h53zM346 -15q-143 0 -233 74t-90 192q0 143 112.5 227t319.5 96l372 22l19 93q11 50 11 85q0 110 -76.5 173t-212.5 63q-144 0 -242.5 -70t-124.5 -191h-51q29 140 143 223.5t278 83.5q152 0 243.5 -76
t91.5 -202q0 -40 -9 -90l-147 -688h-49l44 204l-4 1q-57 -100 -164.5 -160t-230.5 -60zM352 30q152 0 272.5 94t151.5 237l42 191l-362 -21q-184 -10 -283.5 -82t-99.5 -194q0 -100 77 -162.5t202 -62.5z" />
    <glyph glyph-name="atilde" unicode="&#xe3;" horiz-adv-x="966" 
d="M346 1272q24 88 67 135.5t99 47.5q40 0 76 -25.5t59.5 -55.5t55.5 -55.5t63 -25.5q77 0 119 139h46q-24 -88 -67 -135.5t-100 -47.5q-39 0 -75.5 25.5t-60 55.5t-55 55.5t-62.5 25.5q-79 0 -119 -139h-46zM346 -15q-143 0 -233 74t-90 192q0 143 112.5 227t319.5 96
l372 22l19 93q11 50 11 85q0 110 -76.5 173t-212.5 63q-144 0 -242.5 -70t-124.5 -191h-51q29 140 143 223.5t278 83.5q152 0 243.5 -76t91.5 -202q0 -40 -9 -90l-147 -688h-49l44 204l-4 1q-57 -100 -164.5 -160t-230.5 -60zM352 30q152 0 272.5 94t151.5 237l42 191
l-362 -21q-184 -10 -283.5 -82t-99.5 -194q0 -100 77 -162.5t202 -62.5z" />
    <glyph glyph-name="adieresis" unicode="&#xe4;" horiz-adv-x="966" 
d="M501 1317q-19 0 -33.5 13.5t-14.5 33.5q0 19 14.5 32.5t33.5 13.5q20 0 34 -13.5t14 -32.5q0 -20 -14 -33.5t-34 -13.5zM778 1317q-19 0 -33 13.5t-14 33.5q0 19 14 32.5t33 13.5q20 0 34 -13.5t14 -32.5q0 -20 -14 -33.5t-34 -13.5zM346 -15q-143 0 -233 74t-90 192
q0 143 112.5 227t319.5 96l372 22l19 93q11 50 11 85q0 110 -76.5 173t-212.5 63q-144 0 -242.5 -70t-124.5 -191h-51q29 140 143 223.5t278 83.5q152 0 243.5 -76t91.5 -202q0 -40 -9 -90l-147 -688h-49l44 204l-4 1q-57 -100 -164.5 -160t-230.5 -60zM352 30
q152 0 272.5 94t151.5 237l42 191l-362 -21q-184 -10 -283.5 -82t-99.5 -194q0 -100 77 -162.5t202 -62.5z" />
    <glyph glyph-name="aring" unicode="&#xe5;" horiz-adv-x="966" 
d="M637 1184q-67 0 -115.5 48.5t-48.5 116.5t48.5 116.5t115.5 48.5t115.5 -48.5t48.5 -116.5t-48.5 -116.5t-115.5 -48.5zM637 1223q53 0 89 36.5t36 89.5t-36 89.5t-89 36.5t-89.5 -36.5t-36.5 -89.5t36.5 -89.5t89.5 -36.5zM346 -15q-143 0 -233 74t-90 192
q0 143 112.5 227t319.5 96l372 22l19 93q11 50 11 85q0 110 -76.5 173t-212.5 63q-144 0 -242.5 -70t-124.5 -191h-51q29 140 143 223.5t278 83.5q152 0 243.5 -76t91.5 -202q0 -40 -9 -90l-147 -688h-49l44 204l-4 1q-57 -100 -164.5 -160t-230.5 -60zM352 30
q152 0 272.5 94t151.5 237l42 191l-362 -21q-184 -10 -283.5 -82t-99.5 -194q0 -100 77 -162.5t202 -62.5z" />
    <glyph glyph-name="ae" unicode="&#xe6;" horiz-adv-x="1801" 
d="M1235 -16q-160 0 -266.5 88.5t-130.5 238.5h-3q-38 -108 -120.5 -184.5t-173.5 -109.5t-182 -33q-143 0 -233.5 75t-90.5 192q0 142 110.5 219.5t319.5 88.5l385 20l23 110q11 47 11 85q0 110 -77 173t-213 63q-144 0 -245 -71t-126 -190h-51q28 139 144 223t280 84
q153 0 241.5 -75t91.5 -201h4q69 128 185.5 202t251.5 74q166 0 275 -116t109 -287q0 -57 -14 -123h-850q-12 -70 -12 -131q0 -167 98 -268t263 -101q132 0 230 54.5t144 153.5h51q-44 -117 -159.5 -185.5t-269.5 -68.5zM899 574h799q6 32 6 78q0 152 -95.5 255t-241.5 103
q-161 0 -291 -119t-177 -317zM365 30q156 0 282 95.5t156 235.5l38 175l-376 -21q-380 -22 -380 -260q0 -100 77.5 -162.5t202.5 -62.5z" />
    <glyph glyph-name="ccedilla" unicode="&#xe7;" horiz-adv-x="1000" 
d="M253 -439l10 44q52 -22 119 -22q71 0 116.5 33.5t45.5 89.5q0 53 -43.5 82t-120.5 29h-34l7 34l76 135q-167 14 -267.5 132t-100.5 302q0 133 40.5 251t110.5 202.5t167.5 133.5t208.5 49q158 0 264 -91t123 -239v-1h-49q-16 128 -108.5 206.5t-230.5 78.5
q-132 0 -241.5 -77.5t-172 -212.5t-62.5 -298q0 -176 99.5 -284t261.5 -108q126 0 226.5 65t148.5 175h51q-54 -134 -166 -210t-256 -76l-70 -125q81 0 134 -39.5t53 -112.5q0 -76 -59 -122t-153 -46q-69 0 -128 22z" />
    <glyph glyph-name="egrave" unicode="&#xe8;" horiz-adv-x="1017" 
d="M646 1216l-120 304h53l112 -304h-45zM458 -16q-185 0 -294 114t-109 307q0 184 69.5 333t192 233.5t274.5 84.5q176 0 278.5 -108.5t102.5 -293.5q0 -71 -16 -137h-841q-11 -71 -11 -107q0 -175 96.5 -277.5t260.5 -102.5q142 0 244.5 68t147.5 192h52
q-47 -143 -165.5 -224.5t-281.5 -81.5zM123 562h792q8 37 8 91q0 164 -90 260.5t-245 96.5q-174 0 -303.5 -125t-161.5 -323z" />
    <glyph glyph-name="eacute" unicode="&#xe9;" horiz-adv-x="1017" 
d="M686 1216h-52l241 304h59zM458 -16q-185 0 -294 114t-109 307q0 184 69.5 333t192 233.5t274.5 84.5q176 0 278.5 -108.5t102.5 -293.5q0 -71 -16 -137h-841q-11 -71 -11 -107q0 -175 96.5 -277.5t260.5 -102.5q142 0 244.5 68t147.5 192h52q-47 -143 -165.5 -224.5
t-281.5 -81.5zM123 562h792q8 37 8 91q0 164 -90 260.5t-245 96.5q-174 0 -303.5 -125t-161.5 -323z" />
    <glyph glyph-name="ecircumflex" unicode="&#xea;" horiz-adv-x="1017" 
d="M761 1520l185 -304h-54l-160 263h-2l-284 -263h-62l325 304h52zM458 -16q-185 0 -294 114t-109 307q0 184 69.5 333t192 233.5t274.5 84.5q176 0 278.5 -108.5t102.5 -293.5q0 -71 -16 -137h-841q-11 -71 -11 -107q0 -175 96.5 -277.5t260.5 -102.5q142 0 244.5 68
t147.5 192h52q-47 -143 -165.5 -224.5t-281.5 -81.5zM123 562h792q8 37 8 91q0 164 -90 260.5t-245 96.5q-174 0 -303.5 -125t-161.5 -323z" />
    <glyph glyph-name="edieresis" unicode="&#xeb;" horiz-adv-x="1017" 
d="M559 1317q-19 0 -33 13.5t-14 33.5q0 19 14 32.5t33 13.5q20 0 34 -13.5t14 -32.5q0 -20 -14 -33.5t-34 -13.5zM836 1317q-19 0 -33 13.5t-14 33.5q0 19 14 32.5t33 13.5q20 0 34 -13.5t14 -32.5q0 -20 -14 -33.5t-34 -13.5zM458 -16q-185 0 -294 114t-109 307
q0 184 69.5 333t192 233.5t274.5 84.5q176 0 278.5 -108.5t102.5 -293.5q0 -71 -16 -137h-841q-11 -71 -11 -107q0 -175 96.5 -277.5t260.5 -102.5q142 0 244.5 68t147.5 192h52q-47 -143 -165.5 -224.5t-281.5 -81.5zM123 562h792q8 37 8 91q0 164 -90 260.5t-245 96.5
q-174 0 -303.5 -125t-161.5 -323z" />
    <glyph glyph-name="igrave" unicode="&#xec;" horiz-adv-x="286" 
d="M270 1216l-120 304h53l112 -304h-45zM7 0l221 1040h50l-221 -1040h-50z" />
    <glyph glyph-name="iacute" unicode="&#xed;" horiz-adv-x="286" 
d="M310 1216h-52l241 304h59zM7 0l221 1040h50l-221 -1040h-50z" />
    <glyph glyph-name="icircumflex" unicode="&#xee;" horiz-adv-x="286" 
d="M385 1520l185 -304h-54l-160 263h-2l-284 -263h-62l325 304h52zM7 0l221 1040h50l-221 -1040h-50z" />
    <glyph glyph-name="idieresis" unicode="&#xef;" horiz-adv-x="286" 
d="M183 1317q-19 0 -33 13.5t-14 33.5q0 19 14 32.5t33 13.5q20 0 34 -13.5t14 -32.5q0 -20 -14 -33.5t-34 -13.5zM460 1317q-19 0 -33 13.5t-14 33.5q0 19 14 32.5t33 13.5q20 0 34 -13.5t14 -32.5q0 -20 -14 -33.5t-34 -13.5zM7 0l221 1040h50l-221 -1040h-50z" />
    <glyph glyph-name="eth" unicode="&#xf0;" horiz-adv-x="1035" 
d="M450 -16q-177 0 -287.5 114.5t-110.5 309.5q0 159 69.5 299.5t195.5 227.5t277 87q138 0 232 -71t122 -177h5q-8 277 -211 463l-303 -96l10 49l254 81q-91 71 -204 118l9 45q150 -63 249 -147l277 88l-10 -49l-229 -73q202 -196 202 -511q0 -109 -20 -215
q-47 -253 -188 -398t-339 -145zM448 30q103 0 195.5 52t155 135.5t99.5 188t37 210.5q0 176 -97 268t-244 92q-136 0 -250.5 -79.5t-178 -208.5t-63.5 -273q0 -177 97.5 -281t248.5 -104z" />
    <glyph glyph-name="ntilde" unicode="&#xf1;" horiz-adv-x="1034" 
d="M393 1272q24 88 66.5 135.5t99.5 47.5q40 0 76 -25.5t59.5 -55.5t55 -55.5t62.5 -25.5q78 0 120 139h45q-24 -88 -67 -135.5t-99 -47.5q-33 0 -62.5 16.5t-51.5 40.5t-43 48t-46 40.5t-50 16.5q-79 0 -119 -139h-46zM3 0l221 1040h49l-47 -222h4q63 110 163.5 174
t228.5 64q153 0 248 -87.5t95 -223.5q0 -54 -11 -105l-137 -640h-49l134 629q13 63 13 107q0 123 -82.5 198.5t-220.5 75.5q-155 0 -271.5 -106t-149.5 -259l-139 -645h-49z" />
    <glyph glyph-name="ograve" unicode="&#xf2;" horiz-adv-x="1076" 
d="M609 1216l-119 304h52l113 -304h-46zM595 1056q190 0 304 -119.5t114 -316.5q0 -180 -69.5 -325.5t-191.5 -228t-273 -82.5q-189 0 -303.5 119.5t-114.5 316.5q0 180 69.5 325.5t191.5 228t273 82.5zM479 30q135 0 246.5 77t175 212t63.5 299q0 177 -101 284.5
t-268 107.5q-135 0 -246 -77t-174.5 -211.5t-63.5 -299.5q0 -177 100.5 -284.5t267.5 -107.5z" />
    <glyph glyph-name="oacute" unicode="&#xf3;" horiz-adv-x="1076" 
d="M650 1216h-52l241 304h59zM595 1056q190 0 304 -119.5t114 -316.5q0 -180 -69.5 -325.5t-191.5 -228t-273 -82.5q-189 0 -303.5 119.5t-114.5 316.5q0 180 69.5 325.5t191.5 228t273 82.5zM479 30q135 0 246.5 77t175 212t63.5 299q0 177 -101 284.5t-268 107.5
q-135 0 -246 -77t-174.5 -211.5t-63.5 -299.5q0 -177 100.5 -284.5t267.5 -107.5z" />
    <glyph glyph-name="ocircumflex" unicode="&#xf4;" horiz-adv-x="1076" 
d="M724 1520l186 -304h-54l-160 263h-2l-284 -263h-63l325 304h52zM595 1056q190 0 304 -119.5t114 -316.5q0 -180 -69.5 -325.5t-191.5 -228t-273 -82.5q-189 0 -303.5 119.5t-114.5 316.5q0 180 69.5 325.5t191.5 228t273 82.5zM479 30q135 0 246.5 77t175 212t63.5 299
q0 177 -101 284.5t-268 107.5q-135 0 -246 -77t-174.5 -211.5t-63.5 -299.5q0 -177 100.5 -284.5t267.5 -107.5z" />
    <glyph glyph-name="otilde" unicode="&#xf5;" horiz-adv-x="1076" 
d="M368 1272q24 88 66.5 135.5t99.5 47.5q40 0 76 -25.5t59.5 -55.5t55 -55.5t62.5 -25.5q78 0 120 139h45q-24 -88 -67 -135.5t-99 -47.5q-33 0 -62.5 16.5t-51.5 40.5t-43 48t-46 40.5t-50 16.5q-79 0 -119 -139h-46zM595 1056q190 0 304 -119.5t114 -316.5
q0 -180 -69.5 -325.5t-191.5 -228t-273 -82.5q-189 0 -303.5 119.5t-114.5 316.5q0 180 69.5 325.5t191.5 228t273 82.5zM479 30q135 0 246.5 77t175 212t63.5 299q0 177 -101 284.5t-268 107.5q-135 0 -246 -77t-174.5 -211.5t-63.5 -299.5q0 -177 100.5 -284.5
t267.5 -107.5z" />
    <glyph glyph-name="odieresis" unicode="&#xf6;" horiz-adv-x="1076" 
d="M523 1317q-20 0 -34 13.5t-14 33.5q0 19 14 32.5t34 13.5t33.5 -13.5t13.5 -32.5q0 -20 -13.5 -33.5t-33.5 -13.5zM800 1317q-19 0 -33 13.5t-14 33.5q0 19 14 32.5t33 13.5q20 0 34 -13.5t14 -32.5q0 -20 -14 -33.5t-34 -13.5zM595 1056q190 0 304 -119.5t114 -316.5
q0 -180 -69.5 -325.5t-191.5 -228t-273 -82.5q-189 0 -303.5 119.5t-114.5 316.5q0 180 69.5 325.5t191.5 228t273 82.5zM479 30q135 0 246.5 77t175 212t63.5 299q0 177 -101 284.5t-268 107.5q-135 0 -246 -77t-174.5 -211.5t-63.5 -299.5q0 -177 100.5 -284.5
t267.5 -107.5z" />
    <glyph glyph-name="divide" unicode="&#xf7;" horiz-adv-x="1178" 
d="M688 930q-22 0 -37.5 15.5t-15.5 37.5t15.5 37.5t37.5 15.5t37.5 -15.5t15.5 -37.5t-15.5 -37.5t-37.5 -15.5zM1042 554h-892l10 46h892zM515 119q-21 0 -36.5 15.5t-15.5 37.5q0 21 15.5 36.5t36.5 15.5q22 0 37.5 -15.5t15.5 -36.5q0 -22 -15.5 -37.5t-37.5 -15.5z" />
    <glyph glyph-name="oslash" unicode="&#xf8;" horiz-adv-x="1076" 
d="M22 34l116 116q-77 111 -77 270q0 180 69.5 325.5t191.5 228t273 82.5q202 0 316 -133l112 112l30 -29l-116 -116q76 -112 76 -270q0 -180 -69.5 -325.5t-191.5 -228t-273 -82.5q-201 0 -315 133l-112 -112zM111 422q0 -139 63 -236l702 702q-102 122 -281 122
q-135 0 -246 -77t-174.5 -211.5t-63.5 -299.5zM479 30q135 0 246.5 77t175 212t63.5 299q0 139 -63 236l-702 -702q100 -122 280 -122z" />
    <glyph glyph-name="ugrave" unicode="&#xf9;" horiz-adv-x="1034" 
d="M621 1216l-119 304h53l112 -304h-46zM1031 1040l-221 -1040h-48l47 220h-3q-63 -108 -165 -172t-230 -64q-153 0 -247.5 88t-94.5 223q0 52 10 105l138 640h49l-134 -629q-13 -59 -13 -106q0 -124 81.5 -199.5t220.5 -75.5q155 0 273 106t150 259l138 645h49z" />
    <glyph glyph-name="uacute" unicode="&#xfa;" horiz-adv-x="1034" 
d="M662 1216h-52l241 304h59zM1031 1040l-221 -1040h-48l47 220h-3q-63 -108 -165 -172t-230 -64q-153 0 -247.5 88t-94.5 223q0 52 10 105l138 640h49l-134 -629q-13 -59 -13 -106q0 -124 81.5 -199.5t220.5 -75.5q155 0 273 106t150 259l138 645h49z" />
    <glyph glyph-name="ucircumflex" unicode="&#xfb;" horiz-adv-x="1034" 
d="M737 1520l185 -304h-54l-160 263h-2l-284 -263h-62l324 304h53zM1031 1040l-221 -1040h-48l47 220h-3q-63 -108 -165 -172t-230 -64q-153 0 -247.5 88t-94.5 223q0 52 10 105l138 640h49l-134 -629q-13 -59 -13 -106q0 -124 81.5 -199.5t220.5 -75.5q155 0 273 106
t150 259l138 645h49z" />
    <glyph glyph-name="udieresis" unicode="&#xfc;" horiz-adv-x="1034" 
d="M535 1317q-19 0 -33.5 13.5t-14.5 33.5q0 19 14.5 32.5t33.5 13.5q20 0 34 -13.5t14 -32.5q0 -20 -14 -33.5t-34 -13.5zM812 1317q-19 0 -33 13.5t-14 33.5q0 19 14 32.5t33 13.5q20 0 34 -13.5t14 -32.5q0 -20 -14 -33.5t-34 -13.5zM1031 1040l-221 -1040h-48l47 220h-3
q-63 -108 -165 -172t-230 -64q-153 0 -247.5 88t-94.5 223q0 52 10 105l138 640h49l-134 -629q-13 -59 -13 -106q0 -124 81.5 -199.5t220.5 -75.5q155 0 273 106t150 259l138 645h49z" />
    <glyph glyph-name="yacute" unicode="&#xfd;" horiz-adv-x="876" 
d="M600 1216h-52l241 304h59zM2 -349q-33 0 -56 6l8 44q30 -5 51 -5q69 0 123.5 44t115.5 149l56 94l-180 1057h51l166 -991h3l580 991h56l-689 -1173q-73 -123 -136 -169.5t-149 -46.5z" />
    <glyph glyph-name="thorn" unicode="&#xfe;" horiz-adv-x="1096" 
d="M133 324l-150 -702h-49l386 1822h50l-139 -658h4q67 126 179 197.5t241 71.5q174 0 278.5 -120t104.5 -320q0 -131 -40.5 -248t-110.5 -201t-168 -132.5t-208 -48.5q-153 0 -258 95t-118 244h-2zM514 30q130 0 239 77.5t172 212t63 295.5q0 183 -91.5 289t-249.5 106
q-129 0 -240 -82t-176.5 -221t-65.5 -299q0 -170 96 -274t253 -104z" />
    <glyph glyph-name="ydieresis" unicode="&#xff;" horiz-adv-x="876" 
d="M473 1317q-19 0 -33 13.5t-14 33.5q0 19 14 32.5t33 13.5q20 0 34 -13.5t14 -32.5q0 -20 -14 -33.5t-34 -13.5zM750 1317q-19 0 -33 13.5t-14 33.5q0 19 14 32.5t33 13.5q20 0 34 -13.5t14 -32.5q0 -20 -14 -33.5t-34 -13.5zM2 -349q-33 0 -56 6l8 44q30 -5 51 -5
q69 0 123.5 44t115.5 149l56 94l-180 1057h51l166 -991h3l580 991h56l-689 -1173q-73 -123 -136 -169.5t-149 -46.5z" />
    <glyph glyph-name="Amacron" unicode="&#x100;" horiz-adv-x="1201" 
d="M1093 1722l-9 -43h-470l10 43h469zM1021 0l-85 502h-668l-299 -502h-60l861 1443h52l247 -1443h-48zM784 1375l-490 -828h635l-141 828h-4z" />
    <glyph glyph-name="amacron" unicode="&#x101;" horiz-adv-x="966" 
d="M883 1386l-9 -44h-470l9 44h470zM346 -15q-143 0 -233 74t-90 192q0 143 112.5 227t319.5 96l372 22l19 93q11 50 11 85q0 110 -76.5 173t-212.5 63q-144 0 -242.5 -70t-124.5 -191h-51q29 140 143 223.5t278 83.5q152 0 243.5 -76t91.5 -202q0 -40 -9 -90l-147 -688h-49
l44 204l-4 1q-57 -100 -164.5 -160t-230.5 -60zM352 30q152 0 272.5 94t151.5 237l42 191l-362 -21q-184 -10 -283.5 -82t-99.5 -194q0 -100 77 -162.5t202 -62.5z" />
    <glyph glyph-name="Abreve" unicode="&#x102;" horiz-adv-x="1201" 
d="M825 1581q-112 0 -170.5 64.5t-54.5 153.5h46q-3 -75 44.5 -125t138.5 -50q80 0 133.5 48t63.5 127h46q-11 -97 -79 -157.5t-168 -60.5zM1021 0l-85 502h-668l-299 -502h-60l861 1443h52l247 -1443h-48zM784 1375l-490 -828h635l-141 828h-4z" />
    <glyph glyph-name="abreve" unicode="&#x103;" horiz-adv-x="966" 
d="M632 1240q-118 0 -176.5 70.5t-45.5 165.5h45q-10 -82 37 -137.5t144 -55.5q84 0 138.5 53t59.5 140h46q-5 -104 -74 -170t-174 -66zM346 -15q-143 0 -233 74t-90 192q0 143 112.5 227t319.5 96l372 22l19 93q11 50 11 85q0 110 -76.5 173t-212.5 63q-144 0 -242.5 -70
t-124.5 -191h-51q29 140 143 223.5t278 83.5q152 0 243.5 -76t91.5 -202q0 -40 -9 -90l-147 -688h-49l44 204l-4 1q-57 -100 -164.5 -160t-230.5 -60zM352 30q152 0 272.5 94t151.5 237l42 191l-362 -21q-184 -10 -283.5 -82t-99.5 -194q0 -100 77 -162.5t202 -62.5z" />
    <glyph glyph-name="Aogonek" unicode="&#x104;" horiz-adv-x="1201" 
d="M990 -327l-10 -44q-27 -12 -72 -12q-68 0 -112 39.5t-44 100.5q0 79 69 145t199 110l-85 490h-667l-298 -502h-61l861 1443h52l248 -1446l-1 -1q-268 -94 -268 -231q0 -44 34 -74t86 -30q47 0 69 12zM783 1374l-489 -827h634l-141 827h-4z" />
    <glyph glyph-name="aogonek" unicode="&#x105;" horiz-adv-x="966" 
d="M346 -15q-143 0 -233 74t-90 192q0 143 112.5 227t319.5 96l372 22l19 93q11 50 11 85q0 110 -76.5 173t-212.5 63q-144 0 -242.5 -70t-124.5 -191h-51q29 140 143 223.5t278 83.5q152 0 243.5 -76t91.5 -202q0 -40 -9 -90l-147 -688h-20q-226 -110 -226 -228
q0 -47 35.5 -71t84.5 -24q44 0 86 17l-9 -45q-43 -16 -87 -16q-64 0 -110.5 35t-46.5 99q0 133 226 250l20 -7l42 194l-4 1q-57 -100 -164.5 -160t-230.5 -60zM352 30q152 0 272.5 94t151.5 237l42 191l-362 -21q-184 -10 -283.5 -82t-99.5 -194q0 -100 77 -162.5t202 -62.5
z" />
    <glyph glyph-name="Cacute" unicode="&#x106;" horiz-adv-x="1342" 
d="M905 1555h-51l228 286h58zM1314 973v2q-2 194 -134.5 317.5t-349.5 123.5q-186 0 -340 -112t-242.5 -306t-88.5 -427q0 -244 141.5 -394t372.5 -150q189 0 331.5 96.5t204.5 268.5h53q-65 -193 -222.5 -302.5t-370.5 -109.5q-251 0 -406 161.5t-155 423.5q0 251 95 457
t261.5 323.5t369.5 117.5q236 0 382 -136.5t148 -351.5v-2h-50z" />
    <glyph glyph-name="cacute" unicode="&#x107;" horiz-adv-x="1000" 
d="M695 1216h-51l241 304h59zM588 1056q158 0 264 -91t123 -239v-1h-49q-16 128 -108.5 206.5t-230.5 78.5q-132 0 -241.5 -77.5t-172 -212.5t-62.5 -298q0 -176 99.5 -284t261.5 -108q126 0 226.5 65t148.5 175h51q-54 -134 -167 -210t-260 -76q-185 0 -297.5 120.5
t-112.5 315.5q0 133 40.5 251t110.5 202.5t167.5 133.5t208.5 49z" />
    <glyph glyph-name="Ccircumflex" unicode="&#x108;" horiz-adv-x="1342" 
d="M963 1841l196 -286h-55l-166 244h-3l-268 -244h-63l316 286h43zM1314 973v2q-2 194 -134.5 317.5t-349.5 123.5q-186 0 -340 -112t-242.5 -306t-88.5 -427q0 -244 141.5 -394t372.5 -150q189 0 331.5 96.5t204.5 268.5h53q-65 -193 -222.5 -302.5t-370.5 -109.5
q-251 0 -406 161.5t-155 423.5q0 251 95 457t261.5 323.5t369.5 117.5q236 0 382 -136.5t148 -351.5v-2h-50z" />
    <glyph glyph-name="ccircumflex" unicode="&#x109;" horiz-adv-x="1000" 
d="M770 1520l185 -304h-54l-159 263h-3l-283 -263h-63l325 304h52zM588 1056q158 0 264 -91t123 -239v-1h-49q-16 128 -108.5 206.5t-230.5 78.5q-132 0 -241.5 -77.5t-172 -212.5t-62.5 -298q0 -176 99.5 -284t261.5 -108q126 0 226.5 65t148.5 175h51q-54 -134 -167 -210
t-260 -76q-185 0 -297.5 120.5t-112.5 315.5q0 133 40.5 251t110.5 202.5t167.5 133.5t208.5 49z" />
    <glyph glyph-name="Cdotaccent" unicode="&#x10a;" horiz-adv-x="1342" 
d="M916 1654q-20 0 -34 13.5t-14 32.5q0 20 14 33.5t34 13.5q19 0 33 -13.5t14 -33.5q0 -19 -14 -32.5t-33 -13.5zM1314 973v2q-2 194 -134.5 317.5t-349.5 123.5q-186 0 -340 -112t-242.5 -306t-88.5 -427q0 -244 141.5 -394t372.5 -150q189 0 331.5 96.5t204.5 268.5h53
q-65 -193 -222.5 -302.5t-370.5 -109.5q-251 0 -406 161.5t-155 423.5q0 251 95 457t261.5 323.5t369.5 117.5q236 0 382 -136.5t148 -351.5v-2h-50z" />
    <glyph glyph-name="cdotaccent" unicode="&#x10b;" horiz-adv-x="1000" 
d="M707 1317q-19 0 -33 13.5t-14 33.5q0 19 14 32.5t33 13.5q20 0 34 -13.5t14 -32.5q0 -20 -14 -33.5t-34 -13.5zM588 1056q158 0 264 -91t123 -239v-1h-49q-16 128 -108.5 206.5t-230.5 78.5q-132 0 -241.5 -77.5t-172 -212.5t-62.5 -298q0 -176 99.5 -284t261.5 -108
q126 0 226.5 65t148.5 175h51q-54 -134 -167 -210t-260 -76q-185 0 -297.5 120.5t-112.5 315.5q0 133 40.5 251t110.5 202.5t167.5 133.5t208.5 49z" />
    <glyph glyph-name="Ccaron" unicode="&#x10c;" horiz-adv-x="1342" 
d="M862 1555l-197 286h55l166 -244h3l268 244h63l-316 -286h-42zM1314 973v2q-2 194 -134.5 317.5t-349.5 123.5q-186 0 -340 -112t-242.5 -306t-88.5 -427q0 -244 141.5 -394t372.5 -150q189 0 331.5 96.5t204.5 268.5h53q-65 -193 -222.5 -302.5t-370.5 -109.5
q-251 0 -406 161.5t-155 423.5q0 251 95 457t261.5 323.5t369.5 117.5q236 0 382 -136.5t148 -351.5v-2h-50z" />
    <glyph glyph-name="ccaron" unicode="&#x10d;" horiz-adv-x="1000" 
d="M643 1216l-185 304h54l160 -264h2l284 264h62l-325 -304h-52zM588 1056q158 0 264 -91t123 -239v-1h-49q-16 128 -108.5 206.5t-230.5 78.5q-132 0 -241.5 -77.5t-172 -212.5t-62.5 -298q0 -176 99.5 -284t261.5 -108q126 0 226.5 65t148.5 175h51q-54 -134 -167 -210
t-260 -76q-185 0 -297.5 120.5t-112.5 315.5q0 133 40.5 251t110.5 202.5t167.5 133.5t208.5 49z" />
    <glyph glyph-name="Dcaron" unicode="&#x10e;" horiz-adv-x="1348" 
d="M711 1554l-197 287h56l166 -244h2l268 244h64l-316 -287h-43zM327 1443h424q276 0 426 -149t150 -406q0 -256 -104.5 -457.5t-299.5 -316t-449 -114.5h-453zM369 1396l-287 -1349h392q238 0 422 108.5t282.5 298t98.5 428.5q0 242 -136.5 378t-395.5 136h-376z" />
    <glyph glyph-name="dcaron" unicode="&#x10f;" horiz-adv-x="1260" 
d="M1313 1520h52l-91 -353h-36zM430 -15q-168 0 -273 116t-105 300q0 175 74 326t198.5 239.5t268.5 88.5q152 0 255 -93t116 -243h4l154 724h50l-307 -1443h-50l54 253h-4q-66 -123 -184.5 -195.5t-250.5 -72.5zM439 30q140 0 254.5 84t177.5 221.5t63 296.5
q0 172 -93.5 275t-248.5 103q-128 0 -241.5 -83.5t-181.5 -223.5t-68 -297q0 -169 92.5 -272.5t245.5 -103.5z" />
    <glyph glyph-name="Dcroat" unicode="&#x110;" horiz-adv-x="1348" 
d="M44 717l10 47h129l144 679h424q276 0 426 -149t150 -406q0 -256 -104.5 -457.5t-299.5 -316t-449 -114.5h-453l152 717h-129zM369 1396l-134 -632h448l-10 -47h-448l-143 -670h392q238 0 422 108.5t282.5 298t98.5 428.5q0 242 -136.5 378t-395.5 136h-376z" />
    <glyph glyph-name="dcroat" unicode="&#x111;" horiz-adv-x="1091" 
d="M430 -15q-168 0 -273 116t-105 300q0 175 74 326t198.5 239.5t268.5 88.5q152 0 255 -93t116 -243h4l110 519h-289l9 44h290l34 161h50l-34 -161h201l-9 -44h-201l-264 -1238h-50l54 253h-4q-66 -123 -184.5 -195.5t-250.5 -72.5zM439 30q140 0 254.5 84t177.5 221.5
t63 296.5q0 172 -93.5 275t-248.5 103q-128 0 -241.5 -83.5t-181.5 -223.5t-68 -297q0 -169 92.5 -272.5t245.5 -103.5z" />
    <glyph glyph-name="Emacron" unicode="&#x112;" horiz-adv-x="1038" 
d="M1038 1722l-10 -43h-469l9 43h470zM856 47l-10 -47h-826l307 1443h826l-10 -47h-776l-134 -632h740l-11 -46h-739l-142 -671h775z" />
    <glyph glyph-name="emacron" unicode="&#x113;" horiz-adv-x="1017" 
d="M941 1386l-9 -44h-470l9 44h470zM458 -16q-185 0 -294 114t-109 307q0 184 69.5 333t192 233.5t274.5 84.5q176 0 278.5 -108.5t102.5 -293.5q0 -71 -16 -137h-841q-11 -71 -11 -107q0 -175 96.5 -277.5t260.5 -102.5q142 0 244.5 68t147.5 192h52
q-47 -143 -165.5 -224.5t-281.5 -81.5zM123 562h792q8 37 8 91q0 164 -90 260.5t-245 96.5q-174 0 -303.5 -125t-161.5 -323z" />
    <glyph glyph-name="Ebreve" unicode="&#x114;" horiz-adv-x="1038" 
d="M769 1581q-111 0 -170 64.5t-54 153.5h45q-3 -75 44.5 -125t139.5 -50q79 0 132.5 48t63.5 127h46q-11 -97 -79 -157.5t-168 -60.5zM856 47l-10 -47h-826l307 1443h826l-10 -47h-776l-134 -632h740l-11 -46h-739l-142 -671h775z" />
    <glyph glyph-name="ebreve" unicode="&#x115;" horiz-adv-x="1017" 
d="M690 1240q-117 0 -176 71t-46 165h46q-10 -82 36.5 -137.5t143.5 -55.5q84 0 138.5 53t59.5 140h46q-5 -104 -74 -170t-174 -66zM458 -16q-185 0 -294 114t-109 307q0 184 69.5 333t192 233.5t274.5 84.5q176 0 278.5 -108.5t102.5 -293.5q0 -71 -16 -137h-841
q-11 -71 -11 -107q0 -175 96.5 -277.5t260.5 -102.5q142 0 244.5 68t147.5 192h52q-47 -143 -165.5 -224.5t-281.5 -81.5zM123 562h792q8 37 8 91q0 164 -90 260.5t-245 96.5q-174 0 -303.5 -125t-161.5 -323z" />
    <glyph glyph-name="Edotaccent" unicode="&#x116;" horiz-adv-x="1038" 
d="M795 1654q-20 0 -34 13.5t-14 32.5q0 20 14 33.5t34 13.5q19 0 33 -13.5t14 -33.5q0 -19 -14 -32.5t-33 -13.5zM856 47l-10 -47h-826l307 1443h826l-10 -47h-776l-134 -632h740l-11 -46h-739l-142 -671h775z" />
    <glyph glyph-name="edotaccent" unicode="&#x117;" horiz-adv-x="1017" 
d="M698 1317q-20 0 -34 13.5t-14 33.5q0 19 14 32.5t34 13.5t33.5 -13.5t13.5 -32.5q0 -20 -13.5 -33.5t-33.5 -13.5zM458 -16q-185 0 -294 114t-109 307q0 184 69.5 333t192 233.5t274.5 84.5q176 0 278.5 -108.5t102.5 -293.5q0 -71 -16 -137h-841q-11 -71 -11 -107
q0 -175 96.5 -277.5t260.5 -102.5q142 0 244.5 68t147.5 192h52q-47 -143 -165.5 -224.5t-281.5 -81.5zM123 562h792q8 37 8 91q0 164 -90 260.5t-245 96.5q-174 0 -303.5 -125t-161.5 -323z" />
    <glyph glyph-name="Eogonek" unicode="&#x118;" horiz-adv-x="1038" 
d="M20 0l307 1443h826l-10 -47h-776l-134 -632h740l-11 -46h-740l-142 -671h776l-10 -46l-1 -1q-143 -60 -208 -116t-65 -119q0 -44 34 -74t86 -30q46 0 68 12l-9 -44q-27 -12 -73 -12q-67 0 -111 39.5t-44 100.5q0 142 241 243h-744z" />
    <glyph glyph-name="eogonek" unicode="&#x119;" horiz-adv-x="1017" 
d="M450 -384q-66 0 -109 39t-43 99q0 66 51.5 122t165.5 110v1q-18 -3 -59 -3q-185 0 -294 114t-109 307q0 183 69.5 332.5t192.5 234t274 84.5q176 0 278.5 -108.5t102.5 -293.5q0 -71 -16 -137h-841q-11 -71 -11 -107q0 -175 96.5 -277.5t261.5 -102.5q142 0 244.5 68
t147.5 192h52q-36 -106 -108 -174.5t-147 -98.5q-170 -78 -236.5 -134t-66.5 -122q0 -44 33.5 -73t83.5 -29q51 0 71 12l-10 -42q-26 -13 -74 -13zM121 562h792q8 32 8 91q0 164 -90 260.5t-245 96.5q-174 0 -303.5 -125t-161.5 -323z" />
    <glyph glyph-name="Ecaron" unicode="&#x11a;" horiz-adv-x="1038" 
d="M740 1554l-196 287h55l166 -244h3l268 244h63l-316 -287h-43zM856 47l-10 -47h-826l307 1443h826l-10 -47h-776l-134 -632h740l-11 -46h-739l-142 -671h775z" />
    <glyph glyph-name="ecaron" unicode="&#x11b;" horiz-adv-x="1017" 
d="M634 1216l-185 304h53l160 -264h3l283 264h63l-325 -304h-52zM458 -16q-185 0 -294 114t-109 307q0 184 69.5 333t192 233.5t274.5 84.5q176 0 278.5 -108.5t102.5 -293.5q0 -71 -16 -137h-841q-11 -71 -11 -107q0 -175 96.5 -277.5t260.5 -102.5q142 0 244.5 68
t147.5 192h52q-47 -143 -165.5 -224.5t-281.5 -81.5zM123 562h792q8 37 8 91q0 164 -90 260.5t-245 96.5q-174 0 -303.5 -125t-161.5 -323z" />
    <glyph glyph-name="Gcircumflex" unicode="&#x11c;" horiz-adv-x="1351" 
d="M922 1841l197 -287h-56l-166 244h-2l-269 -244h-63l316 287h43zM1311 691l-39 -179q-56 -255 -215 -393.5t-393 -138.5q-249 0 -402.5 162t-153.5 423q0 248 93 454t258 325t368 119q218 0 359.5 -119t164.5 -320v-1h-50q-23 181 -151.5 287t-326.5 106
q-185 0 -338 -113.5t-240 -307t-87 -424.5q0 -244 140.5 -394t369.5 -150q210 0 357 129.5t199 361.5l29 127h-505l10 46h553z" />
    <glyph glyph-name="gcircumflex" unicode="&#x11d;" horiz-adv-x="1084" 
d="M767 1520l185 -304h-54l-160 263h-2l-284 -263h-62l325 304h52zM393 -371q-170 0 -281 82.5t-113 196.5h51q7 -98 102.5 -166t246.5 -68q156 0 264 84t140 228l61 280h-4q-61 -124 -174.5 -195.5t-247.5 -71.5q-175 0 -279 113.5t-104 304.5q0 171 71.5 318t195.5 233.5
t270 86.5q154 0 253.5 -92t110.5 -242h4l70 319h50l-227 -1059q-36 -165 -158.5 -258.5t-301.5 -93.5zM446 45q100 0 189.5 46t153 125t101 188t37.5 231q0 172 -91 273.5t-245 101.5q-130 0 -242.5 -80.5t-178.5 -216.5t-66 -293q0 -174 91.5 -274.5t250.5 -100.5z" />
    <glyph glyph-name="Gbreve" unicode="&#x11e;" horiz-adv-x="1351" 
d="M850 1581q-112 0 -170.5 64.5t-54.5 153.5h46q-3 -76 44 -125.5t139 -49.5q79 0 132.5 47.5t64.5 127.5h46q-11 -97 -79 -157.5t-168 -60.5zM1311 691l-39 -179q-56 -255 -215 -393.5t-393 -138.5q-249 0 -402.5 162t-153.5 423q0 248 93 454t258 325t368 119
q218 0 359.5 -119t164.5 -320v-1h-50q-23 181 -151.5 287t-326.5 106q-185 0 -338 -113.5t-240 -307t-87 -424.5q0 -244 140.5 -394t369.5 -150q210 0 357 129.5t199 361.5l29 127h-505l10 46h553z" />
    <glyph glyph-name="gbreve" unicode="&#x11f;" horiz-adv-x="1084" 
d="M696 1240q-117 0 -176 71t-46 165h46q-10 -82 36.5 -137.5t143.5 -55.5q84 0 138.5 53t59.5 140h46q-5 -104 -74 -170t-174 -66zM393 -371q-170 0 -281 82.5t-113 196.5h51q7 -98 102.5 -166t246.5 -68q156 0 264 84t140 228l61 280h-4q-61 -124 -174.5 -195.5
t-247.5 -71.5q-175 0 -279 113.5t-104 304.5q0 171 71.5 318t195.5 233.5t270 86.5q154 0 253.5 -92t110.5 -242h4l70 319h50l-227 -1059q-36 -165 -158.5 -258.5t-301.5 -93.5zM446 45q100 0 189.5 46t153 125t101 188t37.5 231q0 172 -91 273.5t-245 101.5
q-130 0 -242.5 -80.5t-178.5 -216.5t-66 -293q0 -174 91.5 -274.5t250.5 -100.5z" />
    <glyph glyph-name="Gdotaccent" unicode="&#x120;" horiz-adv-x="1351" 
d="M875 1654q-19 0 -33 13.5t-14 32.5q0 20 14 33.5t33 13.5q20 0 34 -13.5t14 -33.5q0 -19 -14 -32.5t-34 -13.5zM1311 691l-39 -179q-56 -255 -215 -393.5t-393 -138.5q-249 0 -402.5 162t-153.5 423q0 248 93 454t258 325t368 119q218 0 359.5 -119t164.5 -320v-1h-50
q-23 181 -151.5 287t-326.5 106q-185 0 -338 -113.5t-240 -307t-87 -424.5q0 -244 140.5 -394t369.5 -150q210 0 357 129.5t199 361.5l29 127h-505l10 46h553z" />
    <glyph glyph-name="gdotaccent" unicode="&#x121;" horiz-adv-x="1084" 
d="M704 1317q-20 0 -34 13.5t-14 33.5q0 19 14 32.5t34 13.5t34 -13.5t14 -32.5q0 -20 -14 -33.5t-34 -13.5zM393 -371q-170 0 -281 82.5t-113 196.5h51q7 -98 102.5 -166t246.5 -68q156 0 264 84t140 228l61 280h-4q-61 -124 -174.5 -195.5t-247.5 -71.5q-175 0 -279 113.5
t-104 304.5q0 171 71.5 318t195.5 233.5t270 86.5q154 0 253.5 -92t110.5 -242h4l70 319h50l-227 -1059q-36 -165 -158.5 -258.5t-301.5 -93.5zM446 45q100 0 189.5 46t153 125t101 188t37.5 231q0 172 -91 273.5t-245 101.5q-130 0 -242.5 -80.5t-178.5 -216.5t-66 -293
q0 -174 91.5 -274.5t250.5 -100.5z" />
    <glyph glyph-name="Gcommaaccent" unicode="&#x122;" horiz-adv-x="1351" 
d="M1311 691l-39 -179q-56 -255 -215 -393.5t-393 -138.5q-249 0 -402.5 162t-153.5 423q0 248 93 454t258 325t368 119q218 0 359.5 -119t164.5 -320v-1h-50q-23 181 -151.5 287t-326.5 106q-185 0 -338 -113.5t-240 -307t-87 -424.5q0 -244 140.5 -394t369.5 -150
q210 0 357 129.5t199 361.5l29 127h-505l10 46h553zM547 -476h-45l105 337h58z" />
    <glyph glyph-name="gcommaaccent" unicode="&#x123;" horiz-adv-x="1084" 
d="M761 1553h46l-106 -337h-57zM393 -371q-170 0 -281 82.5t-113 196.5h51q7 -98 102.5 -166t246.5 -68q156 0 264 84t140 228l61 280h-4q-61 -124 -174.5 -195.5t-247.5 -71.5q-175 0 -279 113.5t-104 304.5q0 171 71.5 318t195.5 233.5t270 86.5q154 0 253.5 -92
t110.5 -242h4l70 319h50l-227 -1059q-36 -165 -158.5 -258.5t-301.5 -93.5zM446 45q100 0 189.5 46t153 125t101 188t37.5 231q0 172 -91 273.5t-245 101.5q-130 0 -242.5 -80.5t-178.5 -216.5t-66 -293q0 -174 91.5 -274.5t250.5 -100.5z" />
    <glyph glyph-name="Hcircumflex" unicode="&#x124;" horiz-adv-x="1310" 
d="M951 1841l197 -287h-56l-165 244h-3l-268 -244h-64l316 287h43zM1068 0h-50l153 718h-948l-153 -718h-50l307 1443h50l-144 -678h948l144 678h50z" />
    <glyph glyph-name="hcircumflex" unicode="&#x125;" horiz-adv-x="1040" 
d="M438 1841l197 -287h-56l-166 244h-2l-269 -244h-63l316 287h43zM3 0l310 1443h49l-133 -620h4q63 107 162 169.5t226 62.5q155 0 251 -89t96 -229q0 -55 -8 -97l-139 -640h-48l134 629q11 60 11 98q0 128 -83.5 205.5t-222.5 77.5q-155 0 -271 -105.5t-149 -259.5
l-139 -645h-50z" />
    <glyph glyph-name="Hbar" unicode="&#x126;" horiz-adv-x="1310" 
d="M1068 0h-50l153 718h-948l-153 -718h-50l237 1117h-131l9 46h132l60 280h50l-60 -280h948l60 280h50l-60 -280h131l-10 -46h-130zM233 765h948l74 352h-947z" />
    <glyph glyph-name="hbar" unicode="&#x127;" horiz-adv-x="1040" 
d="M3 0l271 1262h-126l9 44h126l30 137h49l-29 -137h358l-10 -44h-357l-95 -439h4q63 107 162 169.5t226 62.5q155 0 251 -89t96 -229q0 -55 -8 -97l-139 -640h-48l134 629q11 60 11 98q0 128 -83.5 205.5t-222.5 77.5q-155 0 -271 -105.5t-149 -259.5l-139 -645h-50z" />
    <glyph glyph-name="Itilde" unicode="&#x128;" horiz-adv-x="311" 
d="M112 1609q24 88 67 135.5t99 47.5q40 0 76.5 -25.5t59.5 -55.5t55 -55.5t63 -25.5q77 0 120 139h45q-24 -88 -67 -135.5t-99 -47.5q-40 0 -76.5 25.5t-59.5 55.5t-55 55.5t-63 25.5q-77 0 -119 -139h-46zM70 0h-50l307 1443h50z" />
    <glyph glyph-name="itilde" unicode="&#x129;" horiz-adv-x="286" 
d="M28 1272q24 88 67 135.5t99 47.5q40 0 76 -25.5t59.5 -55.5t55.5 -55.5t63 -25.5q77 0 119 139h46q-24 -88 -67 -135.5t-100 -47.5q-39 0 -75.5 25.5t-60 55.5t-55 55.5t-62.5 25.5q-79 0 -119 -139h-46zM7 0l221 1040h50l-221 -1040h-50z" />
    <glyph glyph-name="Imacron" unicode="&#x12a;" horiz-adv-x="311" 
d="M649 1722l-9 -43h-470l9 43h470zM70 0h-50l307 1443h50z" />
    <glyph glyph-name="imacron" unicode="&#x12b;" horiz-adv-x="286" 
d="M546 1386l-9 -44h-400l9 44h400zM7 0l221 1040h50l-221 -1040h-50z" />
    <glyph glyph-name="Ibreve" unicode="&#x12c;" horiz-adv-x="311" 
d="M381 1581q-112 0 -171 64.5t-54 153.5h46q-3 -76 44 -125.5t139 -49.5q79 0 132.5 47.5t64.5 127.5h46q-11 -97 -79 -157.5t-168 -60.5zM70 0h-50l307 1443h50z" />
    <glyph glyph-name="ibreve" unicode="&#x12d;" horiz-adv-x="286" 
d="M314 1240q-117 0 -176 71t-46 165h46q-10 -82 36.5 -137.5t143.5 -55.5q84 0 138.5 53t59.5 140h46q-5 -104 -74 -170t-174 -66zM7 0l221 1040h50l-221 -1040h-50z" />
    <glyph glyph-name="Iogonek" unicode="&#x12e;" horiz-adv-x="311" 
d="M-25 -383q-68 0 -112 39.5t-44 100.5q0 135 202 254l306 1432h50l-308 -1445l-1 -1q-111 -68 -155.5 -119.5t-44.5 -111.5q0 -45 34 -75t86 -30q48 0 69 12l-10 -44q-27 -12 -72 -12z" />
    <glyph glyph-name="iogonek" unicode="&#x12f;" horiz-adv-x="285" 
d="M308 1259q-20 0 -34 13.5t-14 32.5q0 20 14 33.5t34 13.5q19 0 33 -13.5t14 -33.5q0 -19 -14 -32.5t-33 -13.5zM16 -371q-26 -13 -75 -13q-67 0 -110 39t-43 99q0 144 221 260l219 1026h49l-222 -1043l-1 -1q-112 -62 -164.5 -119t-52.5 -116q0 -44 33.5 -73t84.5 -29
q52 0 70 12z" />
    <glyph glyph-name="Idotaccent" unicode="&#x130;" horiz-adv-x="311" 
d="M406 1654q-19 0 -33.5 13.5t-14.5 32.5q0 20 14.5 33.5t33.5 13.5q20 0 34 -13.5t14 -33.5q0 -19 -14 -32.5t-34 -13.5zM70 0h-50l307 1443h50z" />
    <glyph glyph-name="dotlessi" unicode="&#x131;" horiz-adv-x="286" 
d="M7 0l221 1040h50l-221 -1040h-50z" />
    <glyph glyph-name="IJ" unicode="&#x132;" horiz-adv-x="1248" 
d="M70 0h-50l307 1443h50zM315 295q0 12 1 22h51q-1 -5 -1 -17q0 -122 84 -198.5t221 -76.5q138 0 233 87.5t128 243.5l231 1087h51l-236 -1108q-35 -168 -144.5 -262.5t-268.5 -94.5q-156 0 -253 88.5t-97 228.5z" />
    <glyph glyph-name="ij" unicode="&#x133;" horiz-adv-x="577" 
d="M322 1317q-20 0 -34 13.5t-14 33.5q0 19 14 32.5t34 13.5q19 0 33 -13.5t14 -32.5q0 -20 -14 -33.5t-33 -13.5zM610 1317q-19 0 -33 13.5t-14 33.5q0 19 14 32.5t33 13.5q20 0 34 -13.5t14 -32.5q0 -20 -14 -33.5t-34 -13.5zM7 0l221 1040h50l-221 -1040h-50zM566 1040
l-245 -1157q-26 -123 -92.5 -177.5t-178.5 -54.5q-32 0 -67 3l10 45q27 -3 57 -3q93 0 147 46.5t74 145.5l245 1152h50z" />
    <glyph glyph-name="Jcircumflex" unicode="&#x134;" horiz-adv-x="937" 
d="M1078 1841l197 -287h-56l-166 244h-2l-268 -244h-64l316 287h43zM4 295q0 12 1 22h51q-1 -5 -1 -17q0 -122 84 -198.5t220 -76.5q138 0 233 87.5t129 243.5l231 1087h50l-235 -1108q-36 -168 -145.5 -262.5t-267.5 -94.5q-156 0 -253 88.5t-97 228.5z" />
    <glyph glyph-name="jcircumflex" unicode="&#x135;" horiz-adv-x="290" 
d="M387 1520l185 -304h-54l-160 263h-2l-284 -263h-62l324 304h53zM280 1040l-245 -1157q-26 -123 -92.5 -177.5t-178.5 -54.5q-34 0 -67 3l10 45q27 -3 56 -3q93 0 147 46.5t75 145.5l245 1152h50z" />
    <glyph glyph-name="Kcommaaccent" unicode="&#x136;" horiz-adv-x="1109" 
d="M70 0h-50l307 1443h50l-176 -828h4l952 828h72l-716 -623l479 -820h-58l-459 788l-292 -253zM364 -476h-45l105 337h57z" />
    <glyph glyph-name="kcommaaccent" unicode="&#x137;" horiz-adv-x="881" 
d="M53 0h-50l307 1443h50l-203 -949h4l731 546h75l-596 -449l391 -591h-58l-374 564l-188 -142zM224 -476h-46l106 337h57z" />
    <glyph glyph-name="kacyrillic" unicode="&#x43a;" horiz-adv-x="881" 
d="M177 559h4l680 481h76l-711 -503l525 -537h-67l-511 520h-4l-112 -520h-49l222 1040h49z" />
    <glyph glyph-name="kacyrillic" unicode="&#x138;" horiz-adv-x="881" 
d="M177 559h4l680 481h76l-711 -503l525 -537h-67l-511 520h-4l-112 -520h-49l222 1040h49z" />
    <glyph glyph-name="Lacute" unicode="&#x139;" horiz-adv-x="1002" 
d="M396 1554h-52l228 287h58zM855 47l-10 -47h-825l307 1443h50l-297 -1396h775z" />
    <glyph glyph-name="lacute" unicode="&#x13a;" horiz-adv-x="290" 
d="M394 1554h-51l228 287h58zM9 0l307 1443h50l-307 -1443h-50z" />
    <glyph glyph-name="Lcommaaccent" unicode="&#x13b;" horiz-adv-x="1002" 
d="M855 47l-10 -47h-825l307 1443h50l-297 -1396h775zM315 -476h-46l106 337h57z" />
    <glyph glyph-name="lcommaaccent" unicode="&#x13c;" horiz-adv-x="290" 
d="M9 0l307 1443h50l-307 -1443h-50zM-84 -476h-45l105 337h57z" />
    <glyph glyph-name="Lcaron" unicode="&#x13d;" horiz-adv-x="1002" 
d="M630 1520h54l-110 -435h-37zM855 47l-10 -47h-825l307 1443h50l-297 -1396h775z" />
    <glyph glyph-name="lcaron" unicode="&#x13e;" horiz-adv-x="470" 
d="M523 1520h52l-90 -354h-37zM9 0l307 1443h50l-307 -1443h-50z" />
    <glyph glyph-name="Ldot" unicode="&#x13f;" horiz-adv-x="1002" 
d="M855 47l-10 -47h-825l307 1443h50l-297 -1396h775zM639 669q-21 0 -36.5 15.5t-15.5 37.5t15.5 37.5t36.5 15.5q22 0 37.5 -15.5t15.5 -37.5t-15.5 -37.5t-37.5 -15.5z" />
    <glyph glyph-name="ldot" unicode="&#x140;" horiz-adv-x="398" 
d="M9 0l307 1443h50l-307 -1443h-50zM377 623q-22 0 -37.5 15.5t-15.5 37.5t15.5 37.5t37.5 15.5q21 0 36.5 -15.5t15.5 -37.5t-15.5 -37.5t-36.5 -15.5z" />
    <glyph glyph-name="Lslash" unicode="&#x141;" horiz-adv-x="1002" 
d="M7 553l11 50l144 67l165 773h50l-159 -747l418 195l-11 -50l-418 -194l-127 -600h775l-10 -47h-825l132 621z" />
    <glyph glyph-name="lslash" unicode="&#x142;" horiz-adv-x="290" 
d="M9 0l152 714l-131 -62l10 52l132 61l144 678h50l-139 -652l129 60l-10 -51l-130 -60l-157 -740h-50z" />
    <glyph glyph-name="Nacute" unicode="&#x143;" horiz-adv-x="1332" 
d="M902 1554h-52l228 287h59zM70 0h-50l307 1443h48l679 -1362h4l289 1362h50l-307 -1443h-48l-679 1362h-4z" />
    <glyph glyph-name="nacute" unicode="&#x144;" horiz-adv-x="1034" 
d="M675 1216h-52l241 304h59zM3 0l221 1040h49l-47 -222h4q63 110 163.5 174t228.5 64q153 0 248 -87.5t95 -223.5q0 -54 -11 -105l-137 -640h-49l134 629q13 63 13 107q0 123 -82.5 198.5t-220.5 75.5q-155 0 -271.5 -106t-149.5 -259l-139 -645h-49z" />
    <glyph glyph-name="Ncommaaccent" unicode="&#x145;" horiz-adv-x="1332" 
d="M70 0h-50l307 1443h48l679 -1362h4l289 1362h50l-307 -1443h-48l-679 1362h-4zM437 -476h-46l106 337h57z" />
    <glyph glyph-name="ncommaaccent" unicode="&#x146;" horiz-adv-x="1034" 
d="M3 0l221 1040h49l-47 -222h4q63 110 163.5 174t228.5 64q153 0 248 -87.5t95 -223.5q0 -54 -11 -105l-137 -640h-49l134 629q13 63 13 107q0 123 -82.5 198.5t-220.5 75.5q-155 0 -271.5 -106t-149.5 -259l-139 -645h-49zM292 -476h-45l105 337h58z" />
    <glyph glyph-name="Ncaron" unicode="&#x147;" horiz-adv-x="1332" 
d="M858 1554l-197 287h56l166 -244h2l269 244h63l-316 -287h-43zM70 0h-50l307 1443h48l679 -1362h4l289 1362h50l-307 -1443h-48l-679 1362h-4z" />
    <glyph glyph-name="ncaron" unicode="&#x148;" horiz-adv-x="1034" 
d="M623 1216l-186 304h54l160 -264h2l284 264h63l-325 -304h-52zM3 0l221 1040h49l-47 -222h4q63 110 163.5 174t228.5 64q153 0 248 -87.5t95 -223.5q0 -54 -11 -105l-137 -640h-49l134 629q13 63 13 107q0 123 -82.5 198.5t-220.5 75.5q-155 0 -271.5 -106t-149.5 -259
l-139 -645h-49z" />
    <glyph glyph-name="Omacron" unicode="&#x14c;" horiz-adv-x="1436" 
d="M1141 1722l-9 -43h-470l9 43h470zM678 -20q-254 0 -410.5 165.5t-156.5 438.5q0 184 56.5 347.5t153.5 280t232.5 184t289.5 67.5q253 0 409.5 -165.5t156.5 -438.5q0 -184 -56.5 -347.5t-153 -280t-232.5 -184t-289 -67.5zM839 1416q-188 0 -343.5 -109t-245 -298.5
t-89.5 -418.5q0 -257 143 -410t377 -153q188 0 343.5 109t245 298.5t89.5 418.5q0 257 -142.5 410t-377.5 153z" />
    <glyph glyph-name="omacron" unicode="&#x14d;" horiz-adv-x="1076" 
d="M905 1386l-10 -44h-470l10 44h470zM595 1056q190 0 304 -119.5t114 -316.5q0 -180 -69.5 -325.5t-191.5 -228t-273 -82.5q-189 0 -303.5 119.5t-114.5 316.5q0 180 69.5 325.5t191.5 228t273 82.5zM479 30q135 0 246.5 77t175 212t63.5 299q0 177 -101 284.5t-268 107.5
q-135 0 -246 -77t-174.5 -211.5t-63.5 -299.5q0 -177 100.5 -284.5t267.5 -107.5z" />
    <glyph glyph-name="Obreve" unicode="&#x14e;" horiz-adv-x="1436" 
d="M873 1581q-112 0 -170.5 64.5t-54.5 153.5h46q-3 -75 44.5 -125t138.5 -50q79 0 132.5 47.5t64.5 127.5h46q-11 -97 -79 -157.5t-168 -60.5zM678 -20q-254 0 -410.5 165.5t-156.5 438.5q0 184 56.5 347.5t153.5 280t232.5 184t289.5 67.5q253 0 409.5 -165.5
t156.5 -438.5q0 -184 -56.5 -347.5t-153 -280t-232.5 -184t-289 -67.5zM839 1416q-188 0 -343.5 -109t-245 -298.5t-89.5 -418.5q0 -257 143 -410t377 -153q188 0 343.5 109t245 298.5t89.5 418.5q0 257 -142.5 410t-377.5 153z" />
    <glyph glyph-name="obreve" unicode="&#x14f;" horiz-adv-x="1076" 
d="M654 1240q-118 0 -176.5 70.5t-46.5 165.5h46q-10 -82 37 -137.5t144 -55.5q84 0 138.5 53t58.5 140h47q-5 -104 -74 -170t-174 -66zM595 1056q190 0 304 -119.5t114 -316.5q0 -180 -69.5 -325.5t-191.5 -228t-273 -82.5q-189 0 -303.5 119.5t-114.5 316.5
q0 180 69.5 325.5t191.5 228t273 82.5zM479 30q135 0 246.5 77t175 212t63.5 299q0 177 -101 284.5t-268 107.5q-135 0 -246 -77t-174.5 -211.5t-63.5 -299.5q0 -177 100.5 -284.5t267.5 -107.5z" />
    <glyph glyph-name="Ohungarumlaut" unicode="&#x150;" horiz-adv-x="1436" 
d="M759 1554h-51l223 287h57zM1014 1554h-52l227 287h59zM678 -20q-254 0 -410.5 165.5t-156.5 438.5q0 184 56.5 347.5t153.5 280t232.5 184t289.5 67.5q253 0 409.5 -165.5t156.5 -438.5q0 -184 -56.5 -347.5t-153 -280t-232.5 -184t-289 -67.5zM839 1416
q-188 0 -343.5 -109t-245 -298.5t-89.5 -418.5q0 -257 143 -410t377 -153q188 0 343.5 109t245 298.5t89.5 418.5q0 257 -142.5 410t-377.5 153z" />
    <glyph glyph-name="ohungarumlaut" unicode="&#x151;" horiz-adv-x="1076" 
d="M447 1216l236 304h58l-244 -304h-50zM701 1216l241 304h59l-249 -304h-51zM595 1056q190 0 304 -119.5t114 -316.5q0 -180 -69.5 -325.5t-191.5 -228t-273 -82.5q-189 0 -303.5 119.5t-114.5 316.5q0 180 69.5 325.5t191.5 228t273 82.5zM479 30q135 0 246.5 77t175 212
t63.5 299q0 177 -101 284.5t-268 107.5q-135 0 -246 -77t-174.5 -211.5t-63.5 -299.5q0 -177 100.5 -284.5t267.5 -107.5z" />
    <glyph glyph-name="OE" unicode="&#x152;" horiz-adv-x="2220" 
d="M1184 0l74 347h-2q-99 -171 -257 -269t-344 -98q-253 0 -403 168.5t-150 451.5q0 239 96.5 437t265 312t371.5 114q230 0 376 -141.5t169 -385.5h4l107 507h825l-10 -47h-775l-134 -632h739l-11 -46h-739l-142 -671h775l-10 -47h-825zM1339 845q0 261 -137 416t-367 155
q-141 0 -268 -64t-217.5 -172.5t-144 -260t-53.5 -319.5q0 -263 136.5 -418t367.5 -155q189 0 346 108.5t247 296.5t90 413z" />
    <glyph glyph-name="oe" unicode="&#x153;" horiz-adv-x="1913" 
d="M1347 -16q-168 0 -276.5 94t-121.5 250h-4q-57 -154 -186 -249t-288 -95q-188 0 -301.5 118t-113.5 315q0 175 68 321t190.5 232t274.5 86q170 0 279.5 -98.5t129.5 -268.5h4q65 167 194 267t286 100q166 0 275 -116t109 -287q0 -64 -16 -131h-850q-10 -50 -10 -123
q0 -169 97.5 -269t263.5 -100q132 0 230 54.5t144 153.5h51q-44 -117 -159.5 -185.5t-269.5 -68.5zM1008 566h802q6 36 6 86q0 152 -95.5 255t-241.5 103q-164 0 -294.5 -124t-176.5 -320zM105 418q0 -180 100.5 -284t268.5 -104q136 0 247 78.5t173 214t62 299.5
q0 178 -100.5 283t-268.5 105q-136 0 -247.5 -80t-173 -215.5t-61.5 -296.5z" />
    <glyph glyph-name="Racute" unicode="&#x154;" horiz-adv-x="1142" 
d="M716 1554h-52l229 287h58zM20 0l311 1443h395q207 0 320 -97.5t113 -264.5q0 -182 -117 -299.5t-320 -143.5l244 -638h-53l-242 632h-464l-137 -632h-50zM372 1396l-156 -717h423q209 0 339.5 110.5t130.5 287.5q0 148 -100 233.5t-286 85.5h-351z" />
    <glyph glyph-name="racute" unicode="&#x155;" horiz-adv-x="598" 
d="M505 1216h-51l241 304h59zM3 0l221 1040h49l-41 -191h4q113 206 300 206q89 0 138 -29l-11 -50q-41 33 -134 33q-117 0 -211 -103.5t-130 -271.5l-136 -634h-49z" />
    <glyph glyph-name="Rcommaaccent" unicode="&#x156;" horiz-adv-x="1142" 
d="M20 0l311 1443h395q207 0 320 -97.5t113 -264.5q0 -182 -117 -299.5t-320 -143.5l244 -638h-53l-242 632h-464l-137 -632h-50zM372 1396l-156 -717h423q209 0 339.5 110.5t130.5 287.5q0 148 -100 233.5t-286 85.5h-351zM346 -476h-46l106 337h57z" />
    <glyph glyph-name="rcommaaccent" unicode="&#x157;" horiz-adv-x="598" 
d="M3 0l221 1040h49l-41 -191h4q113 206 300 206q89 0 138 -29l-11 -50q-41 33 -134 33q-117 0 -211 -103.5t-130 -271.5l-136 -634h-49zM-86 -476h-45l105 337h57z" />
    <glyph glyph-name="Rcaron" unicode="&#x158;" horiz-adv-x="1142" 
d="M672 1554l-197 287h56l166 -244h2l269 244h63l-316 -287h-43zM20 0l311 1443h395q207 0 320 -97.5t113 -264.5q0 -182 -117 -299.5t-320 -143.5l244 -638h-53l-242 632h-464l-137 -632h-50zM372 1396l-156 -717h423q209 0 339.5 110.5t130.5 287.5q0 148 -100 233.5
t-286 85.5h-351z" />
    <glyph glyph-name="rcaron" unicode="&#x159;" horiz-adv-x="598" 
d="M453 1216l-185 304h54l160 -264h2l284 264h62l-324 -304h-53zM3 0l221 1040h49l-41 -191h4q113 206 300 206q89 0 138 -29l-11 -50q-41 33 -134 33q-117 0 -211 -103.5t-130 -271.5l-136 -634h-49z" />
    <glyph glyph-name="Sacute" unicode="&#x15a;" horiz-adv-x="1187" 
d="M755 1554h-51l228 287h58zM54 401h50q8 -167 139.5 -270.5t336.5 -103.5q195 0 315 96.5t120 254.5q0 106 -67 178.5t-218 132.5l-130 51q-186 74 -266 157t-80 206q0 159 128.5 259.5t331.5 100.5q201 0 335 -110t146 -285h-50q-11 153 -131 250.5t-300 97.5
q-181 0 -295 -87.5t-114 -224.5q0 -107 72.5 -179.5t243.5 -139.5l133 -52q165 -64 239 -147.5t74 -206.5q0 -177 -134.5 -288t-353.5 -111q-227 0 -372.5 116.5t-152.5 304.5z" />
    <glyph glyph-name="sacute" unicode="&#x15b;" horiz-adv-x="915" 
d="M636 1216h-52l241 304h59zM172 780q0 120 100 198t256 78q150 0 250 -84t113 -218h-50q-13 114 -99.5 185.5t-217.5 71.5q-130 0 -216 -65t-86 -163q0 -74 50.5 -123.5t167.5 -90.5l89 -32q143 -50 203 -111t60 -158q0 -126 -103 -205t-267 -79q-166 0 -279.5 87.5
t-127.5 227.5h50q16 -121 115.5 -195.5t244.5 -74.5q140 0 228.5 67t88.5 171q0 81 -52.5 131.5t-186.5 96.5l-91 33q-124 43 -182 104t-58 148z" />
    <glyph glyph-name="Scircumflex" unicode="&#x15c;" horiz-adv-x="1187" 
d="M813 1841l197 -287h-56l-166 244h-2l-269 -244h-63l316 287h43zM54 401h50q8 -167 139.5 -270.5t336.5 -103.5q195 0 315 96.5t120 254.5q0 106 -67 178.5t-218 132.5l-130 51q-186 74 -266 157t-80 206q0 159 128.5 259.5t331.5 100.5q201 0 335 -110t146 -285h-50
q-11 153 -131 250.5t-300 97.5q-181 0 -295 -87.5t-114 -224.5q0 -107 72.5 -179.5t243.5 -139.5l133 -52q165 -64 239 -147.5t74 -206.5q0 -177 -134.5 -288t-353.5 -111q-227 0 -372.5 116.5t-152.5 304.5z" />
    <glyph glyph-name="scircumflex" unicode="&#x15d;" horiz-adv-x="915" 
d="M711 1520l185 -304h-54l-160 263h-2l-284 -263h-63l325 304h53zM172 780q0 120 100 198t256 78q150 0 250 -84t113 -218h-50q-13 114 -99.5 185.5t-217.5 71.5q-130 0 -216 -65t-86 -163q0 -74 50.5 -123.5t167.5 -90.5l89 -32q143 -50 203 -111t60 -158
q0 -126 -103 -205t-267 -79q-166 0 -279.5 87.5t-127.5 227.5h50q16 -121 115.5 -195.5t244.5 -74.5q140 0 228.5 67t88.5 171q0 81 -52.5 131.5t-186.5 96.5l-91 33q-124 43 -182 104t-58 148z" />
    <glyph glyph-name="Scedilla" unicode="&#x15e;" horiz-adv-x="1187" 
d="M54 401h50q8 -167 139.5 -270.5t336.5 -103.5q195 0 315 96.5t120 254.5q0 106 -67 178.5t-218 132.5l-130 51q-186 74 -266 157t-80 206q0 159 128.5 259.5t331.5 100.5q201 0 335 -110t146 -285h-50q-11 153 -131 250.5t-300 97.5q-181 0 -295 -87.5t-114 -224.5
q0 -107 72.5 -179.5t243.5 -139.5l133 -52q165 -64 239 -147.5t74 -206.5q0 -177 -134.5 -288t-353.5 -111h-2l-68 -121q81 0 134 -39.5t53 -112.5q0 -76 -59 -122t-153 -46q-69 0 -128 22l9 44q54 -22 120 -22q71 0 116.5 33.5t45.5 89.5q0 53 -43.5 82t-120.5 29h-34l7 34
l73 130q-208 14 -338.5 128.5t-136.5 291.5z" />
    <glyph glyph-name="scedilla" unicode="&#x15f;" horiz-adv-x="915" 
d="M179 -439l9 44q54 -22 119 -22q71 0 117 33.5t46 89.5q0 53 -43.5 82t-120.5 29h-34l7 34l77 137q-142 17 -235 101.5t-106 209.5h50q16 -121 115.5 -195.5t244.5 -74.5q140 0 228.5 67t88.5 171q0 81 -52.5 131.5t-186.5 96.5l-91 33q-124 43 -182 104t-58 148
q0 120 100 198t256 78q150 0 250 -84t113 -218h-50q-13 114 -99.5 185.5t-217.5 71.5q-130 0 -216 -65t-86 -163q0 -74 50.5 -123.5t167.5 -90.5l89 -32q143 -50 203 -111t60 -158q0 -126 -103 -205t-267 -79h-20l-70 -125q81 0 134 -39.5t53 -112.5q0 -76 -59 -122
t-153 -46q-71 0 -128 22z" />
    <glyph glyph-name="Scaron" unicode="&#x160;" horiz-adv-x="1187" 
d="M712 1554l-197 287h56l166 -244h2l268 244h64l-316 -287h-43zM54 401h50q8 -167 139.5 -270.5t336.5 -103.5q195 0 315 96.5t120 254.5q0 106 -67 178.5t-218 132.5l-130 51q-186 74 -266 157t-80 206q0 159 128.5 259.5t331.5 100.5q201 0 335 -110t146 -285h-50
q-11 153 -131 250.5t-300 97.5q-181 0 -295 -87.5t-114 -224.5q0 -107 72.5 -179.5t243.5 -139.5l133 -52q165 -64 239 -147.5t74 -206.5q0 -177 -134.5 -288t-353.5 -111q-227 0 -372.5 116.5t-152.5 304.5z" />
    <glyph glyph-name="scaron" unicode="&#x161;" horiz-adv-x="915" 
d="M584 1216l-186 304h54l160 -264h2l284 264h63l-325 -304h-52zM172 780q0 120 100 198t256 78q150 0 250 -84t113 -218h-50q-13 114 -99.5 185.5t-217.5 71.5q-130 0 -216 -65t-86 -163q0 -74 50.5 -123.5t167.5 -90.5l89 -32q143 -50 203 -111t60 -158q0 -126 -103 -205
t-267 -79q-166 0 -279.5 87.5t-127.5 227.5h50q16 -121 115.5 -195.5t244.5 -74.5q140 0 228.5 67t88.5 171q0 81 -52.5 131.5t-186.5 96.5l-91 33q-124 43 -182 104t-58 148z" />
    <glyph glyph-name="Tcedilla" unicode="&#x162;" horiz-adv-x="1143" 
d="M486 0l-79 -141q81 0 134 -39.5t53 -112.5q0 -76 -59 -122t-154 -46q-70 0 -127 22l9 44q54 -22 119 -22q71 0 117 33.5t46 89.5q0 53 -43.5 82t-121.5 29h-33l6 34l84 149h-1l297 1396h-521l10 47h1091l-10 -47h-520z" />
    <glyph glyph-name="tcedilla" unicode="&#x163;" horiz-adv-x="511" 
d="M307 -1q-24 0 -48 3v-2l-79 -141q81 0 134 -39.5t53 -112.5q0 -76 -59 -122t-153 -46q-70 0 -127 22l9 44q54 -22 119 -22q71 0 116.5 33.5t45.5 89.5q0 53 -43.5 82t-120.5 29h-34l7 34l88 156h16q-65 14 -100 54t-35 102q0 36 11 89l158 743h-150l9 45h150l60 279h49
l-58 -279h225l-10 -45h-225l-158 -742q-10 -47 -10 -76q0 -65 44 -98.5t125 -33.5q56 0 58 1l-10 -46q-1 0 -28 -0.5t-29 -0.5z" />
    <glyph glyph-name="Tcaron" unicode="&#x164;" horiz-adv-x="1143" 
d="M768 1554l-197 287h56l166 -244h2l268 244h64l-316 -287h-43zM486 0h-50l297 1396h-521l10 47h1091l-10 -47h-520z" />
    <glyph glyph-name="tcaron" unicode="&#x165;" horiz-adv-x="526" 
d="M575 1548h52l-91 -354h-36zM307 -1q-99 0 -155 42.5t-56 121.5q0 36 11 89l158 743h-150l9 45h150l60 279h49l-58 -279h225l-10 -45h-225l-158 -742q-10 -47 -10 -76q0 -65 44 -98.5t125 -33.5q56 0 58 1l-10 -46q-1 0 -28 -0.5t-29 -0.5z" />
    <glyph glyph-name="Tbar" unicode="&#x166;" horiz-adv-x="1143" 
d="M486 0h-50l149 700h-385l10 46h384l139 650h-521l10 47h1091l-10 -47h-520l-139 -650h385l-10 -46h-384z" />
    <glyph glyph-name="tbar" unicode="&#x167;" horiz-adv-x="511" 
d="M307 -1q-99 0 -155 42.5t-56 121.5q0 36 11 89l68 320h-150l9 44h150l81 379h-150l9 45h150l60 279h49l-58 -279h225l-10 -45h-225l-81 -379h252l-9 -44h-252l-68 -319q-10 -47 -10 -76q0 -65 44 -98.5t125 -33.5q56 0 58 1l-10 -46q-1 0 -28 -0.5t-29 -0.5z" />
    <glyph glyph-name="Utilde" unicode="&#x168;" horiz-adv-x="1337" 
d="M625 1609q24 88 67 135.5t99 47.5q40 0 76 -25.5t59.5 -55.5t55 -55.5t62.5 -25.5q78 0 120 139h46q-25 -88 -67.5 -135.5t-99.5 -47.5q-33 0 -62.5 16.5t-51.5 40.5t-43 48t-46 40.5t-50 16.5q-79 0 -119 -139h-46zM603 -20q-215 0 -348 117t-133 305q0 71 14 143
l193 898h50l-194 -901q-13 -57 -13 -136q1 -171 120 -275t315 -104q207 0 349.5 115.5t185.5 318.5l210 982h50l-211 -988q-49 -226 -203 -350.5t-385 -124.5z" />
    <glyph glyph-name="utilde" unicode="&#x169;" horiz-adv-x="1034" 
d="M380 1272q24 88 67 135.5t99 47.5q40 0 76 -25.5t59.5 -55.5t55.5 -55.5t63 -25.5q77 0 119 139h46q-24 -88 -67 -135.5t-100 -47.5q-33 0 -62.5 16.5t-51.5 40.5t-43 48t-46 40.5t-50 16.5q-79 0 -119 -139h-46zM1031 1040l-221 -1040h-48l47 220h-3q-63 -108 -165 -172
t-230 -64q-153 0 -247.5 88t-94.5 223q0 52 10 105l138 640h49l-134 -629q-13 -59 -13 -106q0 -124 81.5 -199.5t220.5 -75.5q155 0 273 106t150 259l138 645h49z" />
    <glyph glyph-name="Umacron" unicode="&#x16a;" horiz-adv-x="1337" 
d="M1162 1722l-9 -43h-470l9 43h470zM603 -20q-215 0 -348 117t-133 305q0 71 14 143l193 898h50l-194 -901q-13 -57 -13 -136q1 -171 120 -275t315 -104q207 0 349.5 115.5t185.5 318.5l210 982h50l-211 -988q-49 -226 -203 -350.5t-385 -124.5z" />
    <glyph glyph-name="umacron" unicode="&#x16b;" horiz-adv-x="1034" 
d="M917 1386l-9 -44h-470l9 44h470zM1031 1040l-221 -1040h-48l47 220h-3q-63 -108 -165 -172t-230 -64q-153 0 -247.5 88t-94.5 223q0 52 10 105l138 640h49l-134 -629q-13 -59 -13 -106q0 -124 81.5 -199.5t220.5 -75.5q155 0 273 106t150 259l138 645h49z" />
    <glyph glyph-name="Ubreve" unicode="&#x16c;" horiz-adv-x="1337" 
d="M893 1581q-111 0 -170 64.5t-54 153.5h45q-2 -76 45 -125.5t139 -49.5q79 0 132.5 48t63.5 127h46q-11 -97 -79 -157.5t-168 -60.5zM603 -20q-215 0 -348 117t-133 305q0 71 14 143l193 898h50l-194 -901q-13 -57 -13 -136q1 -171 120 -275t315 -104q207 0 349.5 115.5
t185.5 318.5l210 982h50l-211 -988q-49 -226 -203 -350.5t-385 -124.5z" />
    <glyph glyph-name="ubreve" unicode="&#x16d;" horiz-adv-x="1034" 
d="M666 1240q-118 0 -176.5 70.5t-45.5 165.5h45q-10 -82 37 -137.5t144 -55.5q84 0 138.5 53t59.5 140h46q-5 -104 -74 -170t-174 -66zM1031 1040l-221 -1040h-48l47 220h-3q-63 -108 -165 -172t-230 -64q-153 0 -247.5 88t-94.5 223q0 52 10 105l138 640h49l-134 -629
q-13 -59 -13 -106q0 -124 81.5 -199.5t220.5 -75.5q155 0 273 106t150 259l138 645h49z" />
    <glyph glyph-name="Uring" unicode="&#x16e;" horiz-adv-x="1337" 
d="M930 1586q-68 0 -116 48.5t-48 116.5t48 116.5t116 48.5q67 0 115.5 -48.5t48.5 -116.5t-48.5 -116.5t-115.5 -48.5zM930 1624q53 0 89 37t36 90t-36 89.5t-89 36.5t-89.5 -36.5t-36.5 -89.5t36.5 -90t89.5 -37zM603 -20q-215 0 -348 117t-133 305q0 71 14 143l193 898
h50l-194 -901q-13 -57 -13 -136q1 -171 120 -275t315 -104q207 0 349.5 115.5t185.5 318.5l210 982h50l-211 -988q-49 -226 -203 -350.5t-385 -124.5z" />
    <glyph glyph-name="uring" unicode="&#x16f;" horiz-adv-x="1034" 
d="M671 1184q-67 0 -115.5 48.5t-48.5 116.5t48.5 116.5t115.5 48.5t115.5 -48.5t48.5 -116.5t-48.5 -116.5t-115.5 -48.5zM671 1223q53 0 89 36.5t36 89.5t-36 89.5t-89 36.5t-89.5 -36.5t-36.5 -89.5t36.5 -89.5t89.5 -36.5zM1031 1040l-221 -1040h-48l47 220h-3
q-63 -108 -165 -172t-230 -64q-153 0 -247.5 88t-94.5 223q0 52 10 105l138 640h49l-134 -629q-13 -59 -13 -106q0 -124 81.5 -199.5t220.5 -75.5q155 0 273 106t150 259l138 645h49z" />
    <glyph glyph-name="Uhungarumlaut" unicode="&#x170;" horiz-adv-x="1337" 
d="M779 1554h-51l224 287h57zM1034 1554h-51l227 287h58zM603 -20q-215 0 -348 117t-133 305q0 71 14 143l193 898h50l-194 -901q-13 -57 -13 -136q1 -171 120 -275t315 -104q207 0 349.5 115.5t185.5 318.5l210 982h50l-211 -988q-49 -226 -203 -350.5t-385 -124.5z" />
    <glyph glyph-name="uhungarumlaut" unicode="&#x171;" horiz-adv-x="1034" 
d="M459 1216l237 304h58l-244 -304h-51zM713 1216l241 304h59l-248 -304h-52zM1031 1040l-221 -1040h-48l47 220h-3q-63 -108 -165 -172t-230 -64q-153 0 -247.5 88t-94.5 223q0 52 10 105l138 640h49l-134 -629q-13 -59 -13 -106q0 -124 81.5 -199.5t220.5 -75.5
q155 0 273 106t150 259l138 645h49z" />
    <glyph glyph-name="Uogonek" unicode="&#x172;" horiz-adv-x="1337" 
d="M736 -371q-27 -12 -73 -12q-68 0 -112 39.5t-44 100.5q0 65 50 120.5t160 113.5v4q-55 -15 -114 -15q-223 0 -352.5 114t-129.5 309q0 73 14 137l194 903h51l-195 -906q-14 -72 -14 -130q1 -177 116.5 -278.5t319.5 -101.5q202 0 347.5 120t188.5 323l209 973h51
l-211 -979q-59 -277 -296 -416q-33 -20 -98 -55t-97.5 -55t-71.5 -49.5t-56 -59t-17 -63.5q0 -45 34.5 -75t86.5 -30q47 0 68 12z" />
    <glyph glyph-name="uogonek" unicode="&#x173;" horiz-adv-x="1036" 
d="M720 -371q-26 -13 -75 -13q-66 0 -109.5 39t-43.5 99q0 151 273 262l44 204h-3q-63 -108 -165 -172t-230 -64q-153 0 -247.5 88t-94.5 223q0 52 10 105l137 640h50l-134 -629q-13 -59 -13 -106q0 -124 81.5 -199.5t220.5 -75.5q155 0 272 106t150 259l139 645h49
l-223 -1044v-1q-138 -59 -202.5 -115.5t-64.5 -118.5q0 -44 33.5 -73t84.5 -29q49 0 70 12z" />
    <glyph glyph-name="Wcircumflex" unicode="&#x174;" horiz-adv-x="1743" 
d="M1166 1841l197 -287h-56l-166 244h-2l-268 -244h-64l316 287h43zM1042 1341l-679 -1341h-48l-97 1443h49l90 -1342h4l679 1342h46l113 -1342h4l660 1342h55l-713 -1443h-46l-113 1341h-4z" />
    <glyph glyph-name="wcircumflex" unicode="&#x175;" horiz-adv-x="1380" 
d="M938 1520l185 -304h-53l-160 263h-3l-283 -263h-63l325 304h52zM1486 1040l-525 -1040h-68l-95 980h-3l-511 -980h-70l-82 1040h48l77 -985h4l513 985h66l94 -985h4l493 985h55z" />
    <glyph glyph-name="Ycircumflex" unicode="&#x176;" horiz-adv-x="1144" 
d="M868 1841l197 -287h-56l-165 244h-3l-268 -244h-64l316 287h43zM487 0h-50l134 632l-355 811h55l331 -758h4l651 758h63l-699 -814z" />
    <glyph glyph-name="ycircumflex" unicode="&#x177;" horiz-adv-x="876" 
d="M675 1520l185 -304h-54l-160 263h-2l-284 -263h-62l325 304h52zM2 -349q-33 0 -56 6l8 44q30 -5 51 -5q69 0 123.5 44t115.5 149l56 94l-180 1057h51l166 -991h3l580 991h56l-689 -1173q-73 -123 -136 -169.5t-149 -46.5z" />
    <glyph glyph-name="Ydieresis" unicode="&#x178;" horiz-adv-x="1144" 
d="M683 1654q-20 0 -34 13.5t-14 32.5q0 20 14 33.5t34 13.5t33.5 -13.5t13.5 -33.5q0 -19 -13.5 -32.5t-33.5 -13.5zM960 1654q-19 0 -33 13.5t-14 32.5q0 20 14 33.5t33 13.5q20 0 34 -13.5t14 -33.5q0 -19 -14 -32.5t-34 -13.5zM487 0h-50l134 632l-355 811h55l331 -758
h4l651 758h63l-699 -814z" />
    <glyph glyph-name="Zacute" unicode="&#x179;" horiz-adv-x="1152" 
d="M816 1554h-52l228 287h58zM-45 0l10 42l1237 1351v4h-921l10 46h990l-10 -43l-1236 -1350v-4h950l-10 -46h-1020z" />
    <glyph glyph-name="zacute" unicode="&#x17a;" horiz-adv-x="896" 
d="M612 1216h-52l241 304h59zM-52 0l9 46l905 945l1 4h-703l10 45h770l-9 -46l-905 -945l-1 -4h703l-10 -45h-770z" />
    <glyph glyph-name="Zdotaccent" unicode="&#x17b;" horiz-adv-x="1152" 
d="M826 1654q-20 0 -34 13.5t-14 32.5q0 20 14 33.5t34 13.5t34 -13.5t14 -33.5q0 -19 -14 -32.5t-34 -13.5zM-45 0l10 42l1237 1351v4h-921l10 46h990l-10 -43l-1236 -1350v-4h950l-10 -46h-1020z" />
    <glyph glyph-name="zdotaccent" unicode="&#x17c;" horiz-adv-x="896" 
d="M624 1317q-20 0 -34 13.5t-14 33.5q0 19 14 32.5t34 13.5q19 0 33 -13.5t14 -32.5q0 -20 -14 -33.5t-33 -13.5zM-52 0l9 46l905 945l1 4h-703l10 45h770l-9 -46l-905 -945l-1 -4h703l-10 -45h-770z" />
    <glyph glyph-name="Zcaron" unicode="&#x17d;" horiz-adv-x="1152" 
d="M772 1554l-197 287h56l166 -244h2l268 244h64l-316 -287h-43zM-45 0l10 42l1237 1351v4h-921l10 46h990l-10 -43l-1236 -1350v-4h950l-10 -46h-1020z" />
    <glyph glyph-name="zcaron" unicode="&#x17e;" horiz-adv-x="896" 
d="M560 1216l-186 304h54l160 -264h2l284 264h63l-325 -304h-52zM-52 0l9 46l905 945l1 4h-703l10 45h770l-9 -46l-905 -945l-1 -4h703l-10 -45h-770z" />
    <glyph glyph-name="longs" unicode="&#x17f;" horiz-adv-x="450" 
d="M-61 -338l324 1533q24 119 93.5 180.5t173.5 61.5q58 0 104 -14l-10 -46q-43 15 -94 15q-83 0 -140 -51.5t-78 -148.5l-323 -1530h-50z" />
    <glyph glyph-name="Ereversed" unicode="&#x18e;" horiz-adv-x="1038" 
d="M-19 47h775l143 671h-739l9 46h740l134 632h-776l10 47h826l-306 -1443h-826z" />
    <glyph glyph-name="uni04D8" unicode="&#x4d8;" horiz-adv-x="1374" 
d="M561 -20q-276 0 -402.5 184.5t-62.5 504.5q0 2 4 23.5t4 24.5h1171q3 6 3 21q40 318 -74.5 497.5t-392.5 179.5q-162 0 -308 -81t-233 -221h-51q87 158 251 254t348 96q201 0 327 -91.5t170 -252.5t13 -381q-32 -225 -143.5 -399t-274 -266.5t-349.5 -92.5zM563 28
q120 0 235.5 46.5t209 129.5t162 204t96.5 262h-1119q-20 -93 -20 -186q0 -218 111 -337t325 -119z" />
    <glyph glyph-name="uni04D8" unicode="&#x18f;" horiz-adv-x="1374" 
d="M561 -20q-276 0 -402.5 184.5t-62.5 504.5q0 2 4 23.5t4 24.5h1171q3 6 3 21q40 318 -74.5 497.5t-392.5 179.5q-162 0 -308 -81t-233 -221h-51q87 158 251 254t348 96q201 0 327 -91.5t170 -252.5t13 -381q-32 -225 -143.5 -399t-274 -266.5t-349.5 -92.5zM563 28
q120 0 235.5 46.5t209 129.5t162 204t96.5 262h-1119q-20 -93 -20 -186q0 -218 111 -337t325 -119z" />
    <glyph glyph-name="florin" unicode="&#x192;" horiz-adv-x="1178" 
d="M217 809h422l116 294q69 179 167.5 259.5t244.5 80.5q45 0 90 -10.5t64 -25.5l-10 -45q-18 15 -61.5 25t-89.5 10q-123 0 -209.5 -73t-147.5 -228l-112 -287h431l-10 -46h-439l-166 -423q-69 -177 -168 -258.5t-243 -81.5q-42 0 -88.5 10.5t-66.5 24.5l11 47
q22 -15 65.5 -25.5t84.5 -10.5q238 0 357 302l162 415h-413z" />
    <glyph glyph-name="Ohorn" unicode="&#x1a0;" horiz-adv-x="1436" 
d="M1401 843q0 -179 -57.5 -339t-155.5 -275t-234 -182t-288 -67q-252 0 -402.5 167.5t-150.5 451.5q0 179 57 339.5t154.5 276t233.5 183t288 67.5q81 0 148.5 -15.5t113 -38t84.5 -45t81 -38t85 -15.5q62 0 101.5 41.5t54.5 116.5l24 116h49l-26 -127q-39 -192 -203 -192
q-59 0 -110 28v-4q73 -80 113 -196t40 -253zM1351 844q0 262 -137.5 418t-367.5 156q-141 0 -267.5 -64t-217.5 -173.5t-144.5 -261t-53.5 -320.5q0 -263 136.5 -417.5t367.5 -154.5q189 0 346 108t247.5 296t90.5 413z" />
    <glyph glyph-name="ohorn" unicode="&#x1a1;" horiz-adv-x="1131" 
d="M1010 623q0 -178 -69 -324t-192 -230.5t-274 -84.5q-189 0 -302.5 118t-113.5 315q0 175 68 321t191 232t274 86q82 0 149 -23t103.5 -50t82.5 -50t91 -23q54 0 88.5 35.5t51.5 117.5l20 101h49l-25 -116q-36 -181 -178 -181q-52 0 -85 21v-4q71 -107 71 -261zM109 418
q0 -180 100 -284t269 -104q136 0 247 78.5t173 214t62 299.5q0 178 -100.5 283t-269.5 105q-136 0 -247 -80t-172.5 -215.5t-61.5 -296.5z" />
    <glyph glyph-name="Uhorn" unicode="&#x1af;" horiz-adv-x="1479" 
d="M594 -20q-224 0 -353 114t-129 309q0 70 14 137l193 903h51l-194 -906q-14 -67 -14 -130q1 -177 116.5 -278.5t319.5 -101.5q201 0 346.5 120t189.5 323l209 973h114q120 0 144 106l33 156h48l-35 -168q-16 -73 -61.5 -105.5t-131.5 -32.5h-70l-201 -935
q-49 -225 -206 -354.5t-383 -129.5z" />
    <glyph glyph-name="uhorn" unicode="&#x1b0;" horiz-adv-x="1204" 
d="M806 220q-63 -108 -165 -172t-230 -64q-153 0 -247.5 88t-94.5 223q0 52 10 105l137 640h50l-134 -629q-13 -59 -13 -106q0 -124 81.5 -199.5t220.5 -75.5q155 0 272 106t150 259l138 645h110q123 0 145 106l25 118h48l-28 -133q-15 -71 -60 -103t-128 -32h-72l-211 -996
h-48l47 220h-3z" />
    <glyph glyph-name="uni01C4" unicode="&#x1c4;" horiz-adv-x="2500" 
d="M2120 1554l-197 287h56l166 -244h2l268 244h64l-316 -287h-43zM327 1443h424q276 0 426 -149t150 -406q0 -256 -104.5 -457.5t-299.5 -316t-449 -114.5h-453zM1303 0l10 42l1237 1351v4h-921l10 46h990l-10 -43l-1236 -1350v-4h950l-10 -46h-1020zM369 1396l-287 -1349
h392q238 0 422 108.5t282.5 298t98.5 428.5q0 242 -136.5 378t-395.5 136h-376z" />
    <glyph glyph-name="uni01C5" unicode="&#x1c5;" horiz-adv-x="2244" 
d="M1908 1216l-186 304h54l160 -264h2l284 264h63l-325 -304h-52zM327 1443h424q276 0 426 -149t150 -406q0 -256 -104.5 -457.5t-299.5 -316t-449 -114.5h-453zM369 1396l-287 -1349h392q238 0 422 108.5t282.5 298t98.5 428.5q0 242 -136.5 378t-395.5 136h-376zM1296 0
l9 46l905 945l1 4h-703l10 45h770l-9 -46l-905 -945l-1 -4h703l-10 -45h-770z" />
    <glyph glyph-name="uni01C6" unicode="&#x1c6;" horiz-adv-x="1986" 
d="M1650 1216l-185 304h54l160 -264h2l284 264h62l-325 -304h-52zM430 -15q-168 0 -273 116t-105 300q0 175 74 326t198.5 239.5t268.5 88.5q152 0 255 -93t116 -243h4l154 724h50l-307 -1443h-50l54 253h-4q-66 -123 -184.5 -195.5t-250.5 -72.5zM1039 0l9 46l905 945l1 4
h-703l10 45h770l-10 -46l-904 -945l-1 -4h703l-10 -45h-770zM439 30q140 0 254.5 84t177.5 221.5t63 296.5q0 172 -93.5 275t-248.5 103q-128 0 -241.5 -83.5t-181.5 -223.5t-68 -297q0 -169 92.5 -272.5t245.5 -103.5z" />
    <glyph glyph-name="uni01C7" unicode="&#x1c7;" horiz-adv-x="1938" 
d="M855 47l-10 -47h-825l307 1443h50l-297 -1396h775zM1006 295v22h51q-1 -5 -1 -17q0 -122 84.5 -198.5t220.5 -76.5q138 0 233 87.5t129 243.5l231 1087h50l-236 -1108q-35 -168 -144.5 -262.5t-268.5 -94.5q-155 0 -252 88.5t-97 228.5z" />
    <glyph glyph-name="uni01C8" unicode="&#x1c8;" horiz-adv-x="1292" 
d="M855 47l-10 -47h-825l307 1443h50l-297 -1396h775zM1326 1317q-20 0 -34 13.5t-14 33.5q0 19 14 32.5t34 13.5q19 0 33 -13.5t14 -32.5q0 -20 -14 -33.5t-33 -13.5zM1281 1040l-244 -1157q-26 -124 -92.5 -178t-178.5 -54q-34 0 -67 3l9 45q29 -3 57 -3q93 0 147 46.5
t75 145.5l245 1152h49z" />
    <glyph glyph-name="uni01C9" unicode="&#x1c9;" horiz-adv-x="581" 
d="M9 0l307 1443h50l-307 -1443h-50zM614 1317q-20 0 -34 13.5t-14 33.5q0 19 14 32.5t34 13.5t33.5 -13.5t13.5 -32.5q0 -20 -13.5 -33.5t-33.5 -13.5zM570 1040l-245 -1157q-26 -123 -92.5 -177.5t-178.5 -54.5q-34 0 -67 3l10 45q27 -3 56 -3q93 0 147 46.5t75 145.5
l245 1152h50z" />
    <glyph glyph-name="uni01CA" unicode="&#x1ca;" horiz-adv-x="2268" 
d="M70 0h-50l307 1443h48l679 -1362h4l289 1362h50l-307 -1443h-48l-679 1362h-4zM1335 295q0 12 1 22h51q-1 -5 -1 -17q0 -122 84.5 -198.5t220.5 -76.5q138 0 233 87.5t129 243.5l231 1087h50l-236 -1108q-35 -168 -144.5 -262.5t-268.5 -94.5q-156 0 -253 88.5t-97 228.5
z" />
    <glyph glyph-name="uni01CB" unicode="&#x1cb;" horiz-adv-x="1622" 
d="M70 0h-50l307 1443h48l679 -1362h4l289 1362h50l-307 -1443h-48l-679 1362h-4zM1655 1317q-19 0 -33 13.5t-14 33.5q0 19 14 32.5t33 13.5q20 0 34 -13.5t14 -32.5q0 -20 -14 -33.5t-34 -13.5zM1611 1040l-244 -1157q-26 -124 -92.5 -178t-178.5 -54q-34 0 -67 3l9 45
q28 -3 57 -3q93 0 147 46.5t75 145.5l245 1152h49z" />
    <glyph glyph-name="uni01CC" unicode="&#x1cc;" horiz-adv-x="1324" 
d="M1357 1317q-19 0 -33 13.5t-14 33.5q0 19 14 32.5t33 13.5q20 0 34 -13.5t14 -32.5q0 -20 -14 -33.5t-34 -13.5zM3 0l221 1040h49l-47 -222h4q63 110 163.5 174t228.5 64q153 0 248 -87.5t95 -223.5q0 -54 -11 -105l-137 -640h-49l134 629q13 63 13 107
q0 123 -82.5 198.5t-220.5 75.5q-155 0 -271.5 -106t-149.5 -259l-139 -645h-49zM1313 1040l-244 -1157q-26 -124 -92.5 -178t-179.5 -54q-33 0 -67 3l10 45q28 -3 57 -3q93 0 147 46.5t74 145.5l246 1152h49z" />
    <glyph glyph-name="Acaron" unicode="&#x1cd;" horiz-adv-x="1201" 
d="M796 1554l-197 287h56l166 -244h2l269 244h63l-316 -287h-43zM1021 0l-85 502h-668l-299 -502h-60l861 1443h52l247 -1443h-48zM784 1375l-490 -828h635l-141 828h-4z" />
    <glyph glyph-name="acaron" unicode="&#x1ce;" horiz-adv-x="966" 
d="M576 1216l-185 304h53l160 -264h2l284 264h63l-325 -304h-52zM346 -15q-143 0 -233 74t-90 192q0 143 112.5 227t319.5 96l372 22l19 93q11 50 11 85q0 110 -76.5 173t-212.5 63q-144 0 -242.5 -70t-124.5 -191h-51q29 140 143 223.5t278 83.5q152 0 243.5 -76t91.5 -202
q0 -40 -9 -90l-147 -688h-49l44 204l-4 1q-57 -100 -164.5 -160t-230.5 -60zM352 30q152 0 272.5 94t151.5 237l42 191l-362 -21q-184 -10 -283.5 -82t-99.5 -194q0 -100 77 -162.5t202 -62.5z" />
    <glyph glyph-name="Icaron" unicode="&#x1cf;" horiz-adv-x="311" 
d="M352 1554l-197 287h56l166 -244h2l269 244h63l-316 -287h-43zM70 0h-50l307 1443h50z" />
    <glyph glyph-name="icaron" unicode="&#x1d0;" horiz-adv-x="286" 
d="M258 1216l-185 304h53l160 -264h3l283 264h63l-325 -304h-52zM7 0l221 1040h50l-221 -1040h-50z" />
    <glyph glyph-name="Ocaron" unicode="&#x1d1;" horiz-adv-x="1436" 
d="M844 1554l-197 287h56l166 -244h2l269 244h63l-316 -287h-43zM678 -20q-254 0 -410.5 165.5t-156.5 438.5q0 184 56.5 347.5t153.5 280t232.5 184t289.5 67.5q253 0 409.5 -165.5t156.5 -438.5q0 -184 -56.5 -347.5t-153 -280t-232.5 -184t-289 -67.5zM839 1416
q-188 0 -343.5 -109t-245 -298.5t-89.5 -418.5q0 -257 143 -410t377 -153q188 0 343.5 109t245 298.5t89.5 418.5q0 257 -142.5 410t-377.5 153z" />
    <glyph glyph-name="ocaron" unicode="&#x1d2;" horiz-adv-x="1076" 
d="M597 1216l-185 304h54l160 -264h2l284 264h63l-325 -304h-53zM595 1056q190 0 304 -119.5t114 -316.5q0 -180 -69.5 -325.5t-191.5 -228t-273 -82.5q-189 0 -303.5 119.5t-114.5 316.5q0 180 69.5 325.5t191.5 228t273 82.5zM479 30q135 0 246.5 77t175 212t63.5 299
q0 177 -101 284.5t-268 107.5q-135 0 -246 -77t-174.5 -211.5t-63.5 -299.5q0 -177 100.5 -284.5t267.5 -107.5z" />
    <glyph glyph-name="Ucaron" unicode="&#x1d3;" horiz-adv-x="1337" 
d="M865 1554l-197 287h55l166 -244h3l268 244h63l-316 -287h-42zM603 -20q-215 0 -348 117t-133 305q0 71 14 143l193 898h50l-194 -901q-13 -57 -13 -136q1 -171 120 -275t315 -104q207 0 349.5 115.5t185.5 318.5l210 982h50l-211 -988q-49 -226 -203 -350.5t-385 -124.5z
" />
    <glyph glyph-name="ucaron" unicode="&#x1d4;" horiz-adv-x="1034" 
d="M610 1216l-186 304h54l160 -264h2l284 264h63l-325 -304h-52zM1031 1040l-221 -1040h-48l47 220h-3q-63 -108 -165 -172t-230 -64q-153 0 -247.5 88t-94.5 223q0 52 10 105l138 640h49l-134 -629q-13 -59 -13 -106q0 -124 81.5 -199.5t220.5 -75.5q155 0 273 106t150 259
l138 645h49z" />
    <glyph glyph-name="Udieresismacron" unicode="&#x1d5;" horiz-adv-x="1337" 
d="M1251 1888l-10 -43h-582l10 43h582zM760 1659q22 0 38 -15.5t16 -37.5t-16 -37.5t-38 -15.5t-37.5 15.5t-15.5 37.5t15.5 37.5t37.5 15.5zM1036 1659q22 0 38 -15.5t16 -37.5t-16 -37.5t-38 -15.5t-37.5 15.5t-15.5 37.5t15.5 37.5t37.5 15.5zM603 -20q-215 0 -348 117
t-133 305q0 71 14 143l193 898h50l-194 -901q-13 -57 -13 -136q1 -171 120 -275t315 -104q207 0 349.5 115.5t185.5 318.5l210 982h50l-211 -988q-49 -226 -203 -350.5t-385 -124.5z" />
    <glyph glyph-name="udieresismacron" unicode="&#x1d6;" horiz-adv-x="1034" 
d="M968 1631l-9 -44h-470l9 44h470zM515 1217q-22 0 -38 15.5t-16 37.5t16 38t38 16q23 0 38.5 -16t15.5 -38t-16 -37.5t-38 -15.5zM792 1217q-22 0 -38 15.5t-16 37.5t16 38t38 16q23 0 39 -16t16 -38t-16 -37.5t-39 -15.5zM1031 1040l-221 -1040h-48l47 220h-3
q-63 -108 -165 -172t-230 -64q-153 0 -247.5 88t-94.5 223q0 52 10 105l138 640h49l-134 -629q-13 -59 -13 -106q0 -124 81.5 -199.5t220.5 -75.5q155 0 273 106t150 259l138 645h49z" />
    <glyph glyph-name="Udieresisacute" unicode="&#x1d7;" horiz-adv-x="1337" 
d="M874 1754l251 203h68l-255 -203h-64zM760 1553q-22 0 -37.5 15.5t-15.5 37.5t15.5 37.5t37.5 15.5t38 -15.5t16 -37.5t-16 -37.5t-38 -15.5zM1036 1553q-22 0 -37.5 15.5t-15.5 37.5t15.5 37.5t37.5 15.5t38 -15.5t16 -37.5t-16 -37.5t-38 -15.5zM603 -20
q-215 0 -348 117t-133 305q0 71 14 143l193 898h50l-194 -901q-13 -57 -13 -136q1 -171 120 -275t315 -104q207 0 349.5 115.5t185.5 318.5l210 982h50l-211 -988q-49 -226 -203 -350.5t-385 -124.5z" />
    <glyph glyph-name="udieresisacute" unicode="&#x1d8;" horiz-adv-x="1034" 
d="M667 1474l307 304h66l-315 -304h-58zM530 1283q-20 0 -34 13.5t-14 33.5q0 19 14 32.5t34 13.5q19 0 33 -13.5t14 -32.5q0 -20 -14 -33.5t-33 -13.5zM807 1283q-20 0 -34 13.5t-14 33.5q0 19 14 32.5t34 13.5t34 -13.5t14 -32.5q0 -20 -14 -33.5t-34 -13.5zM1031 1040
l-221 -1040h-48l47 220h-3q-63 -108 -165 -172t-230 -64q-153 0 -247.5 88t-94.5 223q0 52 10 105l138 640h49l-134 -629q-13 -59 -13 -106q0 -124 81.5 -199.5t220.5 -75.5q155 0 273 106t150 259l138 645h49z" />
    <glyph glyph-name="Udieresiscaron" unicode="&#x1d9;" horiz-adv-x="1337" 
d="M912 1753l-220 204h64l180 -166h2l250 166h73l-305 -204h-44zM760 1659q22 0 38 -15.5t16 -37.5t-16 -37.5t-38 -15.5t-37.5 15.5t-15.5 37.5t15.5 37.5t37.5 15.5zM1036 1659q22 0 38 -15.5t16 -37.5t-16 -37.5t-38 -15.5t-37.5 15.5t-15.5 37.5t15.5 37.5t37.5 15.5z
M603 -20q-215 0 -348 117t-133 305q0 71 14 143l193 898h50l-194 -901q-13 -57 -13 -136q1 -171 120 -275t315 -104q207 0 349.5 115.5t185.5 318.5l210 982h50l-211 -988q-49 -226 -203 -350.5t-385 -124.5z" />
    <glyph glyph-name="udieresiscaron" unicode="&#x1da;" horiz-adv-x="1034" 
d="M669 1473l-216 293h56l188 -254h2l297 254h65l-340 -293h-52zM515 1217q-22 0 -38 15.5t-16 37.5t16 38t38 16q23 0 38.5 -16t15.5 -38t-16 -37.5t-38 -15.5zM792 1217q-22 0 -38 15.5t-16 37.5t16 38t38 16q23 0 39 -16t16 -38t-16 -37.5t-39 -15.5zM1031 1040
l-221 -1040h-48l47 220h-3q-63 -108 -165 -172t-230 -64q-153 0 -247.5 88t-94.5 223q0 52 10 105l138 640h49l-134 -629q-13 -59 -13 -106q0 -124 81.5 -199.5t220.5 -75.5q155 0 273 106t150 259l138 645h49z" />
    <glyph glyph-name="Udieresisgrave" unicode="&#x1db;" horiz-adv-x="1337" 
d="M953 1754h-57l-187 203h63zM761 1553q-22 0 -37.5 15.5t-15.5 37.5t15.5 37.5t37.5 15.5t38 -15.5t16 -37.5t-16 -37.5t-38 -15.5zM1037 1553q-22 0 -38 15.5t-16 37.5t16 37.5t38 15.5t38 -15.5t16 -37.5t-16 -37.5t-38 -15.5zM603 -20q-215 0 -348 117t-133 305
q0 71 14 143l193 898h50l-194 -901q-13 -57 -13 -136q1 -171 120 -275t315 -104q207 0 349.5 115.5t185.5 318.5l210 982h50l-211 -988q-49 -226 -203 -350.5t-385 -124.5z" />
    <glyph glyph-name="udieresisgrave" unicode="&#x1dc;" horiz-adv-x="1034" 
d="M718 1474h-49l-191 304h53zM527 1283q-20 0 -34 13.5t-14 33.5q0 19 14 32.5t34 13.5t33.5 -13.5t13.5 -32.5q0 -20 -13.5 -33.5t-33.5 -13.5zM804 1283q-19 0 -33 13.5t-14 33.5q0 19 14 32.5t33 13.5q20 0 34 -13.5t14 -32.5q0 -20 -14 -33.5t-34 -13.5zM1031 1040
l-221 -1040h-48l47 220h-3q-63 -108 -165 -172t-230 -64q-153 0 -247.5 88t-94.5 223q0 52 10 105l138 640h49l-134 -629q-13 -59 -13 -106q0 -124 81.5 -199.5t220.5 -75.5q155 0 273 106t150 259l138 645h49z" />
    <glyph glyph-name="uni04D9" unicode="&#x4d9;" horiz-adv-x="1039" 
d="M173 750h-52q48 143 166.5 224.5t281.5 81.5q185 0 294 -114t109 -307q0 -183 -69.5 -332.5t-192.5 -234t-274 -84.5q-176 0 -278.5 108.5t-102.5 293.5q0 78 16 137h841q10 64 10 106q0 176 -96.5 278.5t-260.5 102.5q-142 0 -244.5 -68t-147.5 -192zM439 30
q174 0 303.5 125t161.5 323h-792q-9 -36 -9 -91q0 -163 90.5 -260t245.5 -97z" />
    <glyph glyph-name="uni04D9" unicode="&#x259;" horiz-adv-x="1039" 
d="M173 750h-52q48 143 166.5 224.5t281.5 81.5q185 0 294 -114t109 -307q0 -183 -69.5 -332.5t-192.5 -234t-274 -84.5q-176 0 -278.5 108.5t-102.5 293.5q0 78 16 137h841q10 64 10 106q0 176 -96.5 278.5t-260.5 102.5q-142 0 -244.5 -68t-147.5 -192zM439 30
q174 0 303.5 125t161.5 323h-792q-9 -36 -9 -91q0 -163 90.5 -260t245.5 -97z" />
    <glyph glyph-name="uni04D9" unicode="&#x1dd;" horiz-adv-x="1039" 
d="M173 750h-52q48 143 166.5 224.5t281.5 81.5q185 0 294 -114t109 -307q0 -183 -69.5 -332.5t-192.5 -234t-274 -84.5q-176 0 -278.5 108.5t-102.5 293.5q0 78 16 137h841q10 64 10 106q0 176 -96.5 278.5t-260.5 102.5q-142 0 -244.5 -68t-147.5 -192zM439 30
q174 0 303.5 125t161.5 323h-792q-9 -36 -9 -91q0 -163 90.5 -260t245.5 -97z" />
    <glyph glyph-name="Adieresismacron" unicode="&#x1de;" horiz-adv-x="1201" 
d="M1182 1888l-9 -43h-582l9 43h582zM692 1659q22 0 38 -15.5t16 -37.5t-16 -37.5t-38 -15.5t-38 15.5t-16 37.5t16 37.5t38 15.5zM968 1659q22 0 38 -15.5t16 -37.5t-16 -37.5t-38 -15.5t-38 15.5t-16 37.5t16 37.5t38 15.5zM1021 0l-85 502h-668l-299 -502h-60l861 1443
h52l247 -1443h-48zM784 1375l-490 -828h635l-141 828h-4z" />
    <glyph glyph-name="adieresismacron" unicode="&#x1df;" horiz-adv-x="966" 
d="M934 1631l-9 -44h-470l9 44h470zM481 1217q-22 0 -38 15.5t-16 37.5t16 38t38 16q23 0 39 -16t16 -38t-16 -37.5t-39 -15.5zM758 1217q-22 0 -38 15.5t-16 37.5t16 38t38 16q23 0 39 -16t16 -38t-16 -37.5t-39 -15.5zM346 -15q-143 0 -233 74t-90 192q0 143 112.5 227
t319.5 96l372 22l19 93q11 50 11 85q0 110 -76.5 173t-212.5 63q-144 0 -242.5 -70t-124.5 -191h-51q29 140 143 223.5t278 83.5q152 0 243.5 -76t91.5 -202q0 -40 -9 -90l-147 -688h-49l44 204l-4 1q-57 -100 -164.5 -160t-230.5 -60zM352 30q152 0 272.5 94t151.5 237
l42 191l-362 -21q-184 -10 -283.5 -82t-99.5 -194q0 -100 77 -162.5t202 -62.5z" />
    <glyph glyph-name="Adotmacron" unicode="&#x1e0;" horiz-adv-x="1201" 
d="M1182 1888l-9 -43h-582l9 43h582zM833 1556q-26 0 -45 18.5t-19 44.5q0 25 19 44t45 19t45 -18.5t19 -44.5t-19 -44.5t-45 -18.5zM1021 0l-85 502h-668l-299 -502h-60l861 1443h52l247 -1443h-48zM784 1375l-490 -828h635l-141 828h-4z" />
    <glyph glyph-name="adotmacron" unicode="&#x1e1;" horiz-adv-x="966" 
d="M934 1631l-9 -44h-470l9 44h470zM623 1216q-26 0 -45 19t-19 45t19 44.5t45 18.5t45 -19t19 -44q0 -26 -19 -45t-45 -19zM346 -15q-143 0 -233 74t-90 192q0 143 112.5 227t319.5 96l372 22l19 93q11 50 11 85q0 110 -76.5 173t-212.5 63q-144 0 -242.5 -70t-124.5 -191
h-51q29 140 143 223.5t278 83.5q152 0 243.5 -76t91.5 -202q0 -40 -9 -90l-147 -688h-49l44 204l-4 1q-57 -100 -164.5 -160t-230.5 -60zM352 30q152 0 272.5 94t151.5 237l42 191l-362 -21q-184 -10 -283.5 -82t-99.5 -194q0 -100 77 -162.5t202 -62.5z" />
    <glyph glyph-name="AEmacron" unicode="&#x1e2;" horiz-adv-x="1832" 
d="M1701 1722l-9 -43h-470l9 43h470zM862 0l88 411h-688l-295 -411h-59l1037 1443h983l-10 -47h-709l-134 -633h673l-11 -46h-673l-142 -670h709l-10 -47h-759zM1159 1397h-190l-675 -939h665z" />
    <glyph glyph-name="aemacron" unicode="&#x1e3;" horiz-adv-x="1801" 
d="M1296 1386l-10 -44h-470l10 44h470zM1235 -16q-160 0 -266.5 88.5t-130.5 238.5h-3q-38 -108 -120.5 -184.5t-173.5 -109.5t-182 -33q-143 0 -233.5 75t-90.5 192q0 142 110.5 219.5t319.5 88.5l385 20l23 110q11 47 11 85q0 110 -77 173t-213 63q-144 0 -245 -71
t-126 -190h-51q28 139 144 223t280 84q153 0 241.5 -75t91.5 -201h4q69 128 185.5 202t251.5 74q166 0 275 -116t109 -287q0 -57 -14 -123h-850q-12 -70 -12 -131q0 -167 98 -268t263 -101q132 0 230 54.5t144 153.5h51q-44 -117 -159.5 -185.5t-269.5 -68.5zM899 574h799
q6 32 6 78q0 152 -95.5 255t-241.5 103q-161 0 -291 -119t-177 -317zM365 30q156 0 282 95.5t156 235.5l38 175l-376 -21q-380 -22 -380 -260q0 -100 77.5 -162.5t202.5 -62.5z" />
    <glyph glyph-name="Gcaron" unicode="&#x1e6;" horiz-adv-x="1351" 
d="M821 1554l-197 287h56l166 -244h2l269 244h63l-316 -287h-43zM1311 691l-39 -179q-56 -255 -215 -393.5t-393 -138.5q-249 0 -402.5 162t-153.5 423q0 248 93 454t258 325t368 119q218 0 359.5 -119t164.5 -320v-1h-50q-23 181 -151.5 287t-326.5 106q-185 0 -338 -113.5
t-240 -307t-87 -424.5q0 -244 140.5 -394t369.5 -150q210 0 357 129.5t199 361.5l29 127h-505l10 46h553z" />
    <glyph glyph-name="gcaron" unicode="&#x1e7;" horiz-adv-x="1084" 
d="M640 1216l-185 304h54l159 -264h3l283 264h63l-325 -304h-52zM393 -371q-170 0 -281 82.5t-113 196.5h51q7 -98 102.5 -166t246.5 -68q156 0 264 84t140 228l61 280h-4q-61 -124 -174.5 -195.5t-247.5 -71.5q-175 0 -279 113.5t-104 304.5q0 171 71.5 318t195.5 233.5
t270 86.5q154 0 253.5 -92t110.5 -242h4l70 319h50l-227 -1059q-36 -165 -158.5 -258.5t-301.5 -93.5zM446 45q100 0 189.5 46t153 125t101 188t37.5 231q0 172 -91 273.5t-245 101.5q-130 0 -242.5 -80.5t-178.5 -216.5t-66 -293q0 -174 91.5 -274.5t250.5 -100.5z" />
    <glyph glyph-name="Kcaron" unicode="&#x1e8;" horiz-adv-x="1109" 
d="M710 1554l-197 287h56l165 -244h3l268 244h64l-317 -287h-42zM70 0h-50l307 1443h50l-176 -828h4l952 828h72l-716 -623l479 -820h-58l-459 788l-292 -253z" />
    <glyph glyph-name="kcaron" unicode="&#x1e9;" horiz-adv-x="881" 
d="M335 1554l-197 287h56l166 -244h2l269 244h63l-316 -287h-43zM53 0h-50l307 1443h50l-203 -949h4l731 546h75l-596 -449l391 -591h-58l-374 564l-188 -142z" />
    <glyph glyph-name="Oogonek" unicode="&#x1ea;" horiz-adv-x="1436" 
d="M797 -371q-27 -12 -73 -12q-67 0 -111 39.5t-44 100.5q0 67 46 118t164 116v4q-55 -15 -113 -15q-252 0 -402.5 168.5t-150.5 451.5q0 179 57 339t154.5 275t233.5 182t288 67q253 0 404 -168t151 -451q0 -257 -117.5 -472t-312.5 -316q-211 -109 -282 -167t-71 -123
q0 -45 34 -75t86 -30q48 0 68 12zM1351 845q0 261 -137.5 416t-367.5 155q-141 0 -268 -64t-217.5 -172.5t-144 -260t-53.5 -319.5q0 -262 137 -417.5t367 -155.5q142 0 268.5 64t217.5 173t144.5 260.5t53.5 320.5z" />
    <glyph glyph-name="oogonek" unicode="&#x1eb;" horiz-adv-x="1071" 
d="M527 -371q-26 -13 -75 -13q-67 0 -110 39t-43 99q0 63 47.5 117.5t156.5 111.5v4q-16 -2 -27 -2q-189 0 -302.5 118t-113.5 314q0 178 69.5 325t192 230.5t271.5 83.5q189 0 303.5 -118.5t114.5 -314.5q0 -204 -92 -366t-246 -232q-179 -80 -252 -140.5t-73 -123.5
q0 -44 33 -73t85 -29q49 0 70 12zM110 418q0 -178 99.5 -283t269.5 -105q135 0 245.5 78t173.5 213.5t63 300.5q0 178 -100.5 283t-269.5 105q-134 0 -244.5 -78t-173.5 -213.5t-63 -300.5z" />
    <glyph glyph-name="Oogonekmacron" unicode="&#x1ec;" horiz-adv-x="1436" 
d="M1141 1722l-9 -43h-470l9 43h470zM797 -371q-27 -12 -73 -12q-67 0 -111 39.5t-44 100.5q0 67 46 118t164 116v4q-55 -15 -113 -15q-252 0 -402.5 168.5t-150.5 451.5q0 179 57 339t154.5 275t233.5 182t288 67q253 0 404 -168t151 -451q0 -257 -117.5 -472t-312.5 -316
q-211 -109 -282 -167t-71 -123q0 -45 34 -75t86 -30q48 0 68 12zM1351 845q0 261 -137.5 416t-367.5 155q-141 0 -268 -64t-217.5 -172.5t-144 -260t-53.5 -319.5q0 -262 137 -417.5t367 -155.5q142 0 268.5 64t217.5 173t144.5 260.5t53.5 320.5z" />
    <glyph glyph-name="oogonekmacron" unicode="&#x1ed;" horiz-adv-x="1072" 
d="M944 1386l-10 -44h-469l9 44h470zM527 -371q-26 -13 -75 -13q-67 0 -110 39t-43 99q0 63 47.5 117.5t156.5 111.5v4q-16 -2 -27 -2q-189 0 -302.5 118t-113.5 314q0 178 69.5 325t192 230.5t271.5 83.5q189 0 303.5 -118.5t114.5 -314.5q0 -204 -92 -366t-246 -232
q-179 -80 -252 -140.5t-73 -123.5q0 -44 33 -73t85 -29q49 0 70 12zM110 418q0 -178 99.5 -283t269.5 -105q135 0 245.5 78t173.5 213.5t63 300.5q0 178 -100.5 283t-269.5 105q-134 0 -244.5 -78t-173.5 -213.5t-63 -300.5z" />
    <glyph glyph-name="uni01F1" unicode="&#x1f1;" horiz-adv-x="2500" 
d="M327 1443h424q276 0 426 -149t150 -406q0 -256 -104.5 -457.5t-299.5 -316t-449 -114.5h-453zM1303 0l10 42l1237 1351v4h-921l10 46h990l-10 -43l-1236 -1350v-4h950l-10 -46h-1020zM369 1396l-287 -1349h392q238 0 422 108.5t282.5 298t98.5 428.5q0 242 -136.5 378
t-395.5 136h-376z" />
    <glyph glyph-name="uni01F2" unicode="&#x1f2;" horiz-adv-x="2244" 
d="M327 1443h424q276 0 426 -149t150 -406q0 -256 -104.5 -457.5t-299.5 -316t-449 -114.5h-453zM369 1396l-287 -1349h392q238 0 422 108.5t282.5 298t98.5 428.5q0 242 -136.5 378t-395.5 136h-376zM1296 0l9 46l905 945l1 4h-703l10 45h770l-9 -46l-905 -945l-1 -4h703
l-10 -45h-770z" />
    <glyph glyph-name="uni01F3" unicode="&#x1f3;" horiz-adv-x="1986" 
d="M430 -15q-168 0 -273 116t-105 300q0 175 74 326t198.5 239.5t268.5 88.5q152 0 255 -93t116 -243h4l154 724h50l-307 -1443h-50l54 253h-4q-66 -123 -184.5 -195.5t-250.5 -72.5zM1039 0l9 46l905 945l1 4h-703l10 45h770l-10 -46l-904 -945l-1 -4h703l-10 -45h-770z
M439 30q140 0 254.5 84t177.5 221.5t63 296.5q0 172 -93.5 275t-248.5 103q-128 0 -241.5 -83.5t-181.5 -223.5t-68 -297q0 -169 92.5 -272.5t245.5 -103.5z" />
    <glyph glyph-name="Gacute" unicode="&#x1f4;" horiz-adv-x="1351" 
d="M865 1554h-52l228 287h59zM1311 691l-39 -179q-56 -255 -215 -393.5t-393 -138.5q-249 0 -402.5 162t-153.5 423q0 248 93 454t258 325t368 119q218 0 359.5 -119t164.5 -320v-1h-50q-23 181 -151.5 287t-326.5 106q-185 0 -338 -113.5t-240 -307t-87 -424.5
q0 -244 140.5 -394t369.5 -150q210 0 357 129.5t199 361.5l29 127h-505l10 46h553z" />
    <glyph glyph-name="gacute" unicode="&#x1f5;" horiz-adv-x="1084" 
d="M692 1216h-52l241 304h60zM393 -371q-170 0 -281 82.5t-113 196.5h51q7 -98 102.5 -166t246.5 -68q156 0 264 84t140 228l61 280h-4q-61 -124 -174.5 -195.5t-247.5 -71.5q-175 0 -279 113.5t-104 304.5q0 171 71.5 318t195.5 233.5t270 86.5q154 0 253.5 -92t110.5 -242
h4l70 319h50l-227 -1059q-36 -165 -158.5 -258.5t-301.5 -93.5zM446 45q100 0 189.5 46t153 125t101 188t37.5 231q0 172 -91 273.5t-245 101.5q-130 0 -242.5 -80.5t-178.5 -216.5t-66 -293q0 -174 91.5 -274.5t250.5 -100.5z" />
    <glyph glyph-name="Ngrave" unicode="&#x1f8;" horiz-adv-x="1332" 
d="M858 1554l-113 287h52l107 -287h-46zM70 0h-50l307 1443h48l679 -1362h4l289 1362h50l-307 -1443h-48l-679 1362h-4z" />
    <glyph glyph-name="ngrave" unicode="&#x1f9;" horiz-adv-x="1034" 
d="M634 1216l-119 304h53l112 -304h-46zM3 0l221 1040h49l-47 -222h4q63 110 163.5 174t228.5 64q153 0 248 -87.5t95 -223.5q0 -54 -11 -105l-137 -640h-49l134 629q13 63 13 107q0 123 -82.5 198.5t-220.5 75.5q-155 0 -271.5 -106t-149.5 -259l-139 -645h-49z" />
    <glyph glyph-name="Aringacute" unicode="&#x1fa;" horiz-adv-x="1201" 
d="M1050 2083h65l-190 -162h-60zM849 1527q-67 0 -115 48t-48 115q0 68 48 116.5t116 48.5t116 -48t47 -116q0 -68 -48 -116t-116 -48zM849 1565q54 0 90 36.5t36 89.5t-36 89t-89 36t-89 -36.5t-36 -89.5t36 -89t88 -36zM1021 0l-85 502h-668l-299 -502h-60l861 1443h52
l247 -1443h-48zM784 1375l-490 -828h635l-141 828h-4z" />
    <glyph glyph-name="aringacute" unicode="&#x1fb;" horiz-adv-x="966" 
d="M637 1604l193 164h68l-200 -164h-61zM641 1196q-68 0 -116 48.5t-48 116.5t48 116.5t116 48.5t116 -48t48 -116t-48.5 -117t-115.5 -49zM516 1361q0 -53 36 -89.5t89 -36.5t89 37t36 90t-36 89.5t-89 36.5t-89 -37t-36 -90zM346 -15q-143 0 -233 74t-90 192
q0 143 112.5 227t319.5 96l372 22l19 93q11 50 11 85q0 110 -76.5 173t-212.5 63q-144 0 -242.5 -70t-124.5 -191h-51q29 140 143 223.5t278 83.5q152 0 243.5 -76t91.5 -202q0 -40 -9 -90l-147 -688h-49l44 204l-4 1q-57 -100 -164.5 -160t-230.5 -60zM352 30
q152 0 272.5 94t151.5 237l42 191l-362 -21q-184 -10 -283.5 -82t-99.5 -194q0 -100 77 -162.5t202 -62.5z" />
    <glyph glyph-name="AEacute" unicode="&#x1fc;" horiz-adv-x="1832" 
d="M1447 1554h-51l228 287h58zM862 0l88 411h-688l-295 -411h-59l1037 1443h983l-10 -47h-709l-134 -633h673l-11 -46h-673l-142 -670h709l-10 -47h-759zM1159 1397h-190l-675 -939h665z" />
    <glyph glyph-name="aeacute" unicode="&#x1fd;" horiz-adv-x="1801" 
d="M1041 1216h-52l241 304h59zM1235 -16q-160 0 -266.5 88.5t-130.5 238.5h-3q-38 -108 -120.5 -184.5t-173.5 -109.5t-182 -33q-143 0 -233.5 75t-90.5 192q0 142 110.5 219.5t319.5 88.5l385 20l23 110q11 47 11 85q0 110 -77 173t-213 63q-144 0 -245 -71t-126 -190h-51
q28 139 144 223t280 84q153 0 241.5 -75t91.5 -201h4q69 128 185.5 202t251.5 74q166 0 275 -116t109 -287q0 -57 -14 -123h-850q-12 -70 -12 -131q0 -167 98 -268t263 -101q132 0 230 54.5t144 153.5h51q-44 -117 -159.5 -185.5t-269.5 -68.5zM899 574h799q6 32 6 78
q0 152 -95.5 255t-241.5 103q-161 0 -291 -119t-177 -317zM365 30q156 0 282 95.5t156 235.5l38 175l-376 -21q-380 -22 -380 -260q0 -100 77.5 -162.5t202.5 -62.5z" />
    <glyph glyph-name="Oslashacute" unicode="&#x1fe;" horiz-adv-x="1436" 
d="M888 1554h-52l229 287h58zM54 69l156 149q-99 154 -99 366q0 184 56.5 347.5t153.5 280t232.5 184t289.5 67.5q143 0 258 -55t191 -157l140 134l35 -33l-148 -142q90 -147 90 -351q0 -184 -56.5 -347.5t-153 -280t-232.5 -184t-289 -67.5q-139 0 -251.5 52t-188.5 148
l-151 -144zM839 1416q-188 0 -343.5 -109t-245 -298.5t-89.5 -418.5q0 -196 87 -336l1007 961q-69 97 -176 149t-240 52zM1359 853q0 185 -78 321l-1007 -959q70 -91 174 -139.5t233 -48.5q188 0 343.5 109t245 298.5t89.5 418.5z" />
    <glyph glyph-name="oslashacute" unicode="&#x1ff;" horiz-adv-x="1076" 
d="M697 1216h-52l241 304h59zM22 34l116 116q-77 111 -77 270q0 180 69.5 325.5t191.5 228t273 82.5q202 0 316 -133l112 112l30 -29l-116 -116q76 -112 76 -270q0 -180 -69.5 -325.5t-191.5 -228t-273 -82.5q-201 0 -315 133l-112 -112zM111 422q0 -139 63 -236l702 702
q-102 122 -281 122q-135 0 -246 -77t-174.5 -211.5t-63.5 -299.5zM479 30q135 0 246.5 77t175 212t63.5 299q0 139 -63 236l-702 -702q100 -122 280 -122z" />
    <glyph glyph-name="Adblgrave" unicode="&#x200;" horiz-adv-x="1201" 
d="M928 1554l-108 287h57l102 -287h-51zM673 1554l-112 287h58l106 -287h-52zM1021 0l-85 502h-668l-299 -502h-60l861 1443h52l247 -1443h-48zM784 1375l-490 -828h635l-141 828h-4z" />
    <glyph glyph-name="adblgrave" unicode="&#x201;" horiz-adv-x="966" 
d="M787 1216h-46l-115 304h52zM539 1216h-46l-120 304h54zM346 -15q-143 0 -233 74t-90 192q0 143 112.5 227t319.5 96l372 22l19 93q11 50 11 85q0 110 -76.5 173t-212.5 63q-144 0 -242.5 -70t-124.5 -191h-51q29 140 143 223.5t278 83.5q152 0 243.5 -76t91.5 -202
q0 -40 -9 -90l-147 -688h-49l44 204l-4 1q-57 -100 -164.5 -160t-230.5 -60zM352 30q152 0 272.5 94t151.5 237l42 191l-362 -21q-184 -10 -283.5 -82t-99.5 -194q0 -100 77 -162.5t202 -62.5z" />
    <glyph glyph-name="Ainvertedbreve" unicode="&#x202;" horiz-adv-x="1201" 
d="M802 1799q111 0 170 -64.5t55 -153.5h-46q3 75 -44.5 124.5t-138.5 49.5q-79 0 -133 -47.5t-64 -126.5h-46q11 97 79 157.5t168 60.5zM1021 0l-85 502h-668l-299 -502h-60l861 1443h52l247 -1443h-48zM784 1375l-490 -828h635l-141 828h-4z" />
    <glyph glyph-name="ainvertedbreve" unicode="&#x203;" horiz-adv-x="966" 
d="M611 1476q118 0 176.5 -71t46.5 -165h-46q10 81 -37 137t-144 56q-83 0 -138 -53.5t-59 -139.5h-47q5 104 74 170t174 66zM346 -15q-143 0 -233 74t-90 192q0 143 112.5 227t319.5 96l372 22l19 93q11 50 11 85q0 110 -76.5 173t-212.5 63q-144 0 -242.5 -70t-124.5 -191
h-51q29 140 143 223.5t278 83.5q152 0 243.5 -76t91.5 -202q0 -40 -9 -90l-147 -688h-49l44 204l-4 1q-57 -100 -164.5 -160t-230.5 -60zM352 30q152 0 272.5 94t151.5 237l42 191l-362 -21q-184 -10 -283.5 -82t-99.5 -194q0 -100 77 -162.5t202 -62.5z" />
    <glyph glyph-name="Edblgrave" unicode="&#x204;" horiz-adv-x="1038" 
d="M873 1554l-109 287h57l103 -287h-51zM618 1554l-113 287h58l106 -287h-51zM856 47l-10 -47h-826l307 1443h826l-10 -47h-776l-134 -632h740l-11 -46h-739l-142 -671h775z" />
    <glyph glyph-name="edblgrave" unicode="&#x205;" horiz-adv-x="1017" 
d="M845 1216h-46l-115 304h52zM597 1216h-46l-120 304h54zM458 -16q-185 0 -294 114t-109 307q0 184 69.5 333t192 233.5t274.5 84.5q176 0 278.5 -108.5t102.5 -293.5q0 -71 -16 -137h-841q-11 -71 -11 -107q0 -175 96.5 -277.5t260.5 -102.5q142 0 244.5 68t147.5 192h52
q-47 -143 -165.5 -224.5t-281.5 -81.5zM123 562h792q8 37 8 91q0 164 -90 260.5t-245 96.5q-174 0 -303.5 -125t-161.5 -323z" />
    <glyph glyph-name="Einvertedbreve" unicode="&#x206;" horiz-adv-x="1038" 
d="M746 1799q112 0 170.5 -64.5t54.5 -153.5h-46q3 75 -44.5 124.5t-138.5 49.5q-79 0 -132.5 -47.5t-64.5 -126.5h-46q11 97 79 157.5t168 60.5zM856 47l-10 -47h-826l307 1443h826l-10 -47h-776l-134 -632h740l-11 -46h-739l-142 -671h775z" />
    <glyph glyph-name="einvertedbreve" unicode="&#x207;" horiz-adv-x="1017" 
d="M669 1476q118 0 177 -71t46 -165h-46q10 81 -37 137t-144 56q-83 0 -138 -53.5t-59 -139.5h-47q5 104 74 170t174 66zM458 -16q-185 0 -294 114t-109 307q0 184 69.5 333t192 233.5t274.5 84.5q176 0 278.5 -108.5t102.5 -293.5q0 -71 -16 -137h-841q-11 -71 -11 -107
q0 -175 96.5 -277.5t260.5 -102.5q142 0 244.5 68t147.5 192h52q-47 -143 -165.5 -224.5t-281.5 -81.5zM123 562h792q8 37 8 91q0 164 -90 260.5t-245 96.5q-174 0 -303.5 -125t-161.5 -323z" />
    <glyph glyph-name="Idblgrave" unicode="&#x208;" horiz-adv-x="311" 
d="M484 1554l-108 287h57l102 -287h-51zM229 1554l-113 287h59l106 -287h-52zM70 0h-50l307 1443h50z" />
    <glyph glyph-name="idblgrave" unicode="&#x209;" horiz-adv-x="286" 
d="M469 1216h-46l-115 304h52zM221 1216h-46l-120 304h54zM7 0l221 1040h50l-221 -1040h-50z" />
    <glyph glyph-name="Iinvertedbreve" unicode="&#x20a;" horiz-adv-x="311" 
d="M358 1799q111 0 170 -64.5t54 -153.5h-45q2 75 -45 124.5t-139 49.5q-79 0 -132.5 -47.5t-63.5 -126.5h-46q11 97 79 157.5t168 60.5zM70 0h-50l307 1443h50z" />
    <glyph glyph-name="iinvertedbreve" unicode="&#x20b;" horiz-adv-x="286" 
d="M293 1476q118 0 177 -71t46 -165h-46q10 81 -37 137t-144 56q-83 0 -138 -53.5t-59 -139.5h-47q5 104 74 170t174 66zM7 0l221 1040h50l-221 -1040h-50z" />
    <glyph glyph-name="Odblgrave" unicode="&#x20c;" horiz-adv-x="1436" 
d="M976 1554l-108 287h57l102 -287h-51zM721 1554l-112 287h58l106 -287h-52zM678 -20q-254 0 -410.5 165.5t-156.5 438.5q0 184 56.5 347.5t153.5 280t232.5 184t289.5 67.5q253 0 409.5 -165.5t156.5 -438.5q0 -184 -56.5 -347.5t-153 -280t-232.5 -184t-289 -67.5z
M839 1416q-188 0 -343.5 -109t-245 -298.5t-89.5 -418.5q0 -257 143 -410t377 -153q188 0 343.5 109t245 298.5t89.5 418.5q0 257 -142.5 410t-377.5 153z" />
    <glyph glyph-name="odblgrave" unicode="&#x20d;" horiz-adv-x="1076" 
d="M809 1216h-46l-116 304h53zM561 1216h-47l-119 304h54zM595 1056q190 0 304 -119.5t114 -316.5q0 -180 -69.5 -325.5t-191.5 -228t-273 -82.5q-189 0 -303.5 119.5t-114.5 316.5q0 180 69.5 325.5t191.5 228t273 82.5zM479 30q135 0 246.5 77t175 212t63.5 299
q0 177 -101 284.5t-268 107.5q-135 0 -246 -77t-174.5 -211.5t-63.5 -299.5q0 -177 100.5 -284.5t267.5 -107.5z" />
    <glyph glyph-name="Oinvertedbreve" unicode="&#x20e;" horiz-adv-x="1436" 
d="M850 1799q111 0 170 -64.5t54 -153.5h-45q3 75 -44.5 124.5t-139.5 49.5q-79 0 -132.5 -47.5t-63.5 -126.5h-46q11 97 79 157.5t168 60.5zM678 -20q-254 0 -410.5 165.5t-156.5 438.5q0 184 56.5 347.5t153.5 280t232.5 184t289.5 67.5q253 0 409.5 -165.5t156.5 -438.5
q0 -184 -56.5 -347.5t-153 -280t-232.5 -184t-289 -67.5zM839 1416q-188 0 -343.5 -109t-245 -298.5t-89.5 -418.5q0 -257 143 -410t377 -153q188 0 343.5 109t245 298.5t89.5 418.5q0 257 -142.5 410t-377.5 153z" />
    <glyph glyph-name="oinvertedbreve" unicode="&#x20f;" horiz-adv-x="1076" 
d="M633 1476q118 0 176.5 -71t45.5 -165h-45q10 81 -37 137t-144 56q-84 0 -138.5 -53.5t-59.5 -139.5h-46q5 104 74 170t174 66zM595 1056q190 0 304 -119.5t114 -316.5q0 -180 -69.5 -325.5t-191.5 -228t-273 -82.5q-189 0 -303.5 119.5t-114.5 316.5q0 180 69.5 325.5
t191.5 228t273 82.5zM479 30q135 0 246.5 77t175 212t63.5 299q0 177 -101 284.5t-268 107.5q-135 0 -246 -77t-174.5 -211.5t-63.5 -299.5q0 -177 100.5 -284.5t267.5 -107.5z" />
    <glyph glyph-name="Rdblgrave" unicode="&#x210;" horiz-adv-x="1142" 
d="M805 1554l-109 287h57l102 -287h-50zM550 1554l-113 287h58l106 -287h-51zM20 0l311 1443h395q207 0 320 -97.5t113 -264.5q0 -182 -117 -299.5t-320 -143.5l244 -638h-53l-242 632h-464l-137 -632h-50zM372 1396l-156 -717h423q209 0 339.5 110.5t130.5 287.5
q0 148 -100 233.5t-286 85.5h-351z" />
    <glyph glyph-name="rdblgrave" unicode="&#x211;" horiz-adv-x="598" 
d="M665 1216h-46l-116 304h53zM417 1216h-47l-119 304h53zM3 0l221 1040h49l-41 -191h4q113 206 300 206q89 0 138 -29l-11 -50q-41 33 -134 33q-117 0 -211 -103.5t-130 -271.5l-136 -634h-49z" />
    <glyph glyph-name="Rinvertedbreve" unicode="&#x212;" horiz-adv-x="1142" 
d="M678 1799q111 0 170 -64.5t55 -153.5h-46q3 75 -44.5 124.5t-138.5 49.5q-79 0 -133 -47.5t-64 -126.5h-46q11 97 79 157.5t168 60.5zM20 0l311 1443h395q207 0 320 -97.5t113 -264.5q0 -182 -117 -299.5t-320 -143.5l244 -638h-53l-242 632h-464l-137 -632h-50z
M372 1396l-156 -717h423q209 0 339.5 110.5t130.5 287.5q0 148 -100 233.5t-286 85.5h-351z" />
    <glyph glyph-name="rinvertedbreve" unicode="&#x213;" horiz-adv-x="598" 
d="M489 1476q117 0 176 -71t46 -165h-46q10 81 -36.5 137t-143.5 56q-84 0 -138.5 -53.5t-59.5 -139.5h-46q5 104 74 170t174 66zM3 0l221 1040h49l-41 -191h4q113 206 300 206q89 0 138 -29l-11 -50q-41 33 -134 33q-117 0 -211 -103.5t-130 -271.5l-136 -634h-49z" />
    <glyph glyph-name="Udblgrave" unicode="&#x214;" horiz-adv-x="1337" 
d="M997 1554l-109 287h57l103 -287h-51zM742 1554l-113 287h58l106 -287h-51zM603 -20q-215 0 -348 117t-133 305q0 71 14 143l193 898h50l-194 -901q-13 -57 -13 -136q1 -171 120 -275t315 -104q207 0 349.5 115.5t185.5 318.5l210 982h50l-211 -988q-49 -226 -203 -350.5
t-385 -124.5z" />
    <glyph glyph-name="udblgrave" unicode="&#x215;" horiz-adv-x="1034" 
d="M821 1216h-46l-115 304h52zM573 1216h-46l-120 304h54zM1031 1040l-221 -1040h-48l47 220h-3q-63 -108 -165 -172t-230 -64q-153 0 -247.5 88t-94.5 223q0 52 10 105l138 640h49l-134 -629q-13 -59 -13 -106q0 -124 81.5 -199.5t220.5 -75.5q155 0 273 106t150 259
l138 645h49z" />
    <glyph glyph-name="Uinvertedbreve" unicode="&#x216;" horiz-adv-x="1337" 
d="M870 1799q112 0 170.5 -64.5t54.5 -153.5h-46q3 75 -44 124.5t-139 49.5q-79 0 -132.5 -47.5t-64.5 -126.5h-46q11 97 79 157.5t168 60.5zM603 -20q-215 0 -348 117t-133 305q0 71 14 143l193 898h50l-194 -901q-13 -57 -13 -136q1 -171 120 -275t315 -104
q207 0 349.5 115.5t185.5 318.5l210 982h50l-211 -988q-49 -226 -203 -350.5t-385 -124.5z" />
    <glyph glyph-name="uinvertedbreve" unicode="&#x217;" horiz-adv-x="1034" 
d="M645 1476q118 0 176.5 -71t46.5 -165h-46q10 81 -37 137t-144 56q-83 0 -138 -53.5t-59 -139.5h-47q5 104 74 170t174 66zM1031 1040l-221 -1040h-48l47 220h-3q-63 -108 -165 -172t-230 -64q-153 0 -247.5 88t-94.5 223q0 52 10 105l138 640h49l-134 -629
q-13 -59 -13 -106q0 -124 81.5 -199.5t220.5 -75.5q155 0 273 106t150 259l138 645h49z" />
    <glyph glyph-name="Scommaaccent" unicode="&#x218;" horiz-adv-x="1187" 
d="M54 401h50q8 -167 139.5 -270.5t336.5 -103.5q195 0 315 96.5t120 254.5q0 106 -67 178.5t-218 132.5l-130 51q-186 74 -266 157t-80 206q0 159 128.5 259.5t331.5 100.5q201 0 335 -110t146 -285h-50q-11 153 -131 250.5t-300 97.5q-181 0 -295 -87.5t-114 -224.5
q0 -107 72.5 -179.5t243.5 -139.5l133 -52q165 -64 239 -147.5t74 -206.5q0 -177 -134.5 -288t-353.5 -111q-227 0 -372.5 116.5t-152.5 304.5zM443 -476h-45l105 337h57z" />
    <glyph glyph-name="scommaaccent" unicode="&#x219;" horiz-adv-x="915" 
d="M172 780q0 120 100 198t256 78q150 0 250 -84t113 -218h-50q-13 114 -99.5 185.5t-217.5 71.5q-130 0 -216 -65t-86 -163q0 -74 50.5 -123.5t167.5 -90.5l89 -32q143 -50 203 -111t60 -158q0 -126 -103 -205t-267 -79q-166 0 -279.5 87.5t-127.5 227.5h50
q16 -121 115.5 -195.5t244.5 -74.5q140 0 228.5 67t88.5 171q0 81 -52.5 131.5t-186.5 96.5l-91 33q-124 43 -182 104t-58 148zM266 -476h-46l106 337h57z" />
    <glyph glyph-name="Tcommaaccent" unicode="&#x21a;" horiz-adv-x="1143" 
d="M486 0h-50l297 1396h-521l10 47h1091l-10 -47h-520zM343 -476h-45l105 337h57z" />
    <glyph glyph-name="tcommaaccent" unicode="&#x21b;" horiz-adv-x="511" 
d="M307 -1q-99 0 -155 42.5t-56 121.5q0 36 11 89l158 743h-150l9 45h150l60 279h49l-58 -279h225l-10 -45h-225l-158 -742q-10 -47 -10 -76q0 -65 44 -98.5t125 -33.5q56 0 58 1l-10 -46q-1 0 -28 -0.5t-29 -0.5zM114 -476h-45l106 337h57z" />
    <glyph glyph-name="Hcaron" unicode="&#x21e;" horiz-adv-x="1310" 
d="M850 1554l-196 287h55l166 -244h2l269 244h63l-316 -287h-43zM1068 0h-50l153 718h-948l-153 -718h-50l307 1443h50l-144 -678h948l144 678h50z" />
    <glyph glyph-name="hcaron" unicode="&#x21f;" horiz-adv-x="1040" 
d="M337 1554l-197 287h56l166 -244h2l268 244h64l-316 -287h-43zM3 0l310 1443h49l-133 -620h4q63 107 162 169.5t226 62.5q155 0 251 -89t96 -229q0 -55 -8 -97l-139 -640h-48l134 629q11 60 11 98q0 128 -83.5 205.5t-222.5 77.5q-155 0 -271 -105.5t-149 -259.5
l-139 -645h-50z" />
    <glyph glyph-name="Adotaccent" unicode="&#x226;" horiz-adv-x="1201" 
d="M850 1654q-19 0 -33 13.5t-14 32.5q0 20 14 33.5t33 13.5q20 0 34 -13.5t14 -33.5q0 -19 -14 -32.5t-34 -13.5zM1021 0l-85 502h-668l-299 -502h-60l861 1443h52l247 -1443h-48zM784 1375l-490 -828h635l-141 828h-4z" />
    <glyph glyph-name="adotaccent" unicode="&#x227;" horiz-adv-x="966" 
d="M640 1317q-20 0 -34 13.5t-14 33.5q0 19 14 32.5t34 13.5q19 0 33 -13.5t14 -32.5q0 -20 -14 -33.5t-33 -13.5zM346 -15q-143 0 -233 74t-90 192q0 143 112.5 227t319.5 96l372 22l19 93q11 50 11 85q0 110 -76.5 173t-212.5 63q-144 0 -242.5 -70t-124.5 -191h-51
q29 140 143 223.5t278 83.5q152 0 243.5 -76t91.5 -202q0 -40 -9 -90l-147 -688h-49l44 204l-4 1q-57 -100 -164.5 -160t-230.5 -60zM352 30q152 0 272.5 94t151.5 237l42 191l-362 -21q-184 -10 -283.5 -82t-99.5 -194q0 -100 77 -162.5t202 -62.5z" />
    <glyph glyph-name="Ecedilla" unicode="&#x228;" horiz-adv-x="1038" 
d="M248 -439l9 44q54 -22 119 -22q71 0 117 33.5t46 89.5q0 53 -43.5 82t-121.5 29h-33l6 34l84 149h-411l307 1443h826l-10 -47h-776l-134 -632h740l-11 -46h-739l-142 -671h775l-10 -47h-366l-79 -141q81 0 134 -39.5t53 -112.5q0 -76 -59 -122t-154 -46q-70 0 -127 22z
" />
    <glyph glyph-name="ecedilla" unicode="&#x229;" horiz-adv-x="1017" 
d="M253 -439l10 44q54 -22 119 -22q71 0 116.5 33.5t45.5 89.5q0 53 -43.5 82t-120.5 29h-34l7 34l75 133q-172 10 -272.5 123t-100.5 298q0 184 69.5 333t192 233.5t274.5 84.5q176 0 278.5 -108.5t102.5 -293.5q0 -71 -16 -137h-841q-11 -71 -11 -107q0 -175 96.5 -277.5
t260.5 -102.5q142 0 244.5 68t147.5 192h52q-46 -139 -159 -220t-270 -86l-70 -125q81 0 134 -39.5t53 -112.5q0 -76 -59 -122t-153 -46q-69 0 -128 22zM123 562h792q8 37 8 91q0 164 -90 260.5t-245 96.5q-174 0 -303.5 -125t-161.5 -323z" />
    <glyph glyph-name="Odieresismacron" unicode="&#x22a;" horiz-adv-x="1436" 
d="M1230 1888l-9 -43h-582l9 43h582zM740 1659q22 0 38 -15.5t16 -37.5t-16 -37.5t-38 -15.5t-38 15.5t-16 37.5t16 37.5t38 15.5zM1016 1659q22 0 38 -15.5t16 -37.5t-16 -37.5t-38 -15.5t-38 15.5t-16 37.5t16 37.5t38 15.5zM678 -20q-254 0 -410.5 165.5t-156.5 438.5
q0 184 56.5 347.5t153.5 280t232.5 184t289.5 67.5q253 0 409.5 -165.5t156.5 -438.5q0 -184 -56.5 -347.5t-153 -280t-232.5 -184t-289 -67.5zM839 1416q-188 0 -343.5 -109t-245 -298.5t-89.5 -418.5q0 -257 143 -410t377 -153q188 0 343.5 109t245 298.5t89.5 418.5
q0 257 -142.5 410t-377.5 153z" />
    <glyph glyph-name="odieresismacron" unicode="&#x22b;" horiz-adv-x="1076" 
d="M956 1631l-10 -44h-469l9 44h470zM503 1217q-22 0 -38 15.5t-16 37.5t16 38t38 16t38 -16t16 -38t-16 -37.5t-38 -15.5zM780 1217q-22 0 -38 15.5t-16 37.5t16 38t38 16t38 -16t16 -38t-16 -37.5t-38 -15.5zM595 1056q190 0 304 -119.5t114 -316.5q0 -180 -69.5 -325.5
t-191.5 -228t-273 -82.5q-189 0 -303.5 119.5t-114.5 316.5q0 180 69.5 325.5t191.5 228t273 82.5zM479 30q135 0 246.5 77t175 212t63.5 299q0 177 -101 284.5t-268 107.5q-135 0 -246 -77t-174.5 -211.5t-63.5 -299.5q0 -177 100.5 -284.5t267.5 -107.5z" />
    <glyph glyph-name="Otildemacron" unicode="&#x22c;" horiz-adv-x="1436" 
d="M1230 1888l-9 -43h-582l9 43h582zM988 1552q-40 0 -69 24t-43 52t-38.5 52t-55.5 24q-41 0 -77.5 -38.5t-48.5 -94.5h-43q17 77 65.5 125t107.5 48q33 0 57.5 -15.5t39.5 -38t29 -45t34.5 -38t46.5 -15.5q41 0 77 38t49 95h42q-19 -77 -66.5 -125t-106.5 -48zM678 -20
q-254 0 -410.5 165.5t-156.5 438.5q0 184 56.5 347.5t153.5 280t232.5 184t289.5 67.5q253 0 409.5 -165.5t156.5 -438.5q0 -184 -56.5 -347.5t-153 -280t-232.5 -184t-289 -67.5zM839 1416q-188 0 -343.5 -109t-245 -298.5t-89.5 -418.5q0 -257 143 -410t377 -153
q188 0 343.5 109t245 298.5t89.5 418.5q0 257 -142.5 410t-377.5 153z" />
    <glyph glyph-name="otildemacron" unicode="&#x22d;" horiz-adv-x="1076" 
d="M956 1631l-10 -44h-469l9 44h470zM355 1217q24 88 66.5 135t99.5 47q40 0 76 -25.5t59.5 -55.5t55 -55.5t62.5 -25.5q78 0 120 140h45q-24 -88 -66.5 -135.5t-99.5 -47.5q-33 0 -62.5 16.5t-51.5 40.5t-43 48t-46 40.5t-50 16.5q-79 0 -119 -139h-46zM595 1056
q190 0 304 -119.5t114 -316.5q0 -180 -69.5 -325.5t-191.5 -228t-273 -82.5q-189 0 -303.5 119.5t-114.5 316.5q0 180 69.5 325.5t191.5 228t273 82.5zM479 30q135 0 246.5 77t175 212t63.5 299q0 177 -101 284.5t-268 107.5q-135 0 -246 -77t-174.5 -211.5t-63.5 -299.5
q0 -177 100.5 -284.5t267.5 -107.5z" />
    <glyph glyph-name="Odotaccent" unicode="&#x22e;" horiz-adv-x="1436" 
d="M898 1654q-19 0 -33 13.5t-14 32.5q0 20 14 33.5t33 13.5q20 0 34 -13.5t14 -33.5q0 -19 -14 -32.5t-34 -13.5zM678 -20q-254 0 -410.5 165.5t-156.5 438.5q0 184 56.5 347.5t153.5 280t232.5 184t289.5 67.5q253 0 409.5 -165.5t156.5 -438.5q0 -184 -56.5 -347.5
t-153 -280t-232.5 -184t-289 -67.5zM839 1416q-188 0 -343.5 -109t-245 -298.5t-89.5 -418.5q0 -257 143 -410t377 -153q188 0 343.5 109t245 298.5t89.5 418.5q0 257 -142.5 410t-377.5 153z" />
    <glyph glyph-name="odotaccent" unicode="&#x22f;" horiz-adv-x="1076" 
d="M661 1317q-19 0 -33 13.5t-14 33.5q0 19 14 32.5t33 13.5q20 0 34 -13.5t14 -32.5q0 -20 -14 -33.5t-34 -13.5zM595 1056q190 0 304 -119.5t114 -316.5q0 -180 -69.5 -325.5t-191.5 -228t-273 -82.5q-189 0 -303.5 119.5t-114.5 316.5q0 180 69.5 325.5t191.5 228
t273 82.5zM479 30q135 0 246.5 77t175 212t63.5 299q0 177 -101 284.5t-268 107.5q-135 0 -246 -77t-174.5 -211.5t-63.5 -299.5q0 -177 100.5 -284.5t267.5 -107.5z" />
    <glyph glyph-name="Odotaccentmacron" unicode="&#x230;" horiz-adv-x="1436" 
d="M1230 1888l-9 -43h-582l9 43h582zM881 1556q-26 0 -45 18.5t-19 44.5q0 25 19 44t45 19t45 -19t19 -44q0 -26 -19 -44.5t-45 -18.5zM678 -20q-254 0 -410.5 165.5t-156.5 438.5q0 184 56.5 347.5t153.5 280t232.5 184t289.5 67.5q253 0 409.5 -165.5t156.5 -438.5
q0 -184 -56.5 -347.5t-153 -280t-232.5 -184t-289 -67.5zM839 1416q-188 0 -343.5 -109t-245 -298.5t-89.5 -418.5q0 -257 143 -410t377 -153q188 0 343.5 109t245 298.5t89.5 418.5q0 257 -142.5 410t-377.5 153z" />
    <glyph glyph-name="odotaccentmacron" unicode="&#x231;" horiz-adv-x="1076" 
d="M956 1631l-10 -44h-469l9 44h470zM644 1216q-26 0 -45 19t-19 45q0 25 19 44t45 19t45.5 -19t19.5 -44q0 -26 -19.5 -45t-45.5 -19zM595 1056q190 0 304 -119.5t114 -316.5q0 -180 -69.5 -325.5t-191.5 -228t-273 -82.5q-189 0 -303.5 119.5t-114.5 316.5
q0 180 69.5 325.5t191.5 228t273 82.5zM479 30q135 0 246.5 77t175 212t63.5 299q0 177 -101 284.5t-268 107.5q-135 0 -246 -77t-174.5 -211.5t-63.5 -299.5q0 -177 100.5 -284.5t267.5 -107.5z" />
    <glyph glyph-name="Ymacron" unicode="&#x232;" horiz-adv-x="1144" 
d="M1065 1722l-10 -43h-470l10 43h470zM487 0h-50l134 632l-355 811h55l331 -758h4l651 758h63l-699 -814z" />
    <glyph glyph-name="ymacron" unicode="&#x233;" horiz-adv-x="876" 
d="M855 1386l-9 -44h-470l9 44h470zM2 -349q-33 0 -56 6l8 44q30 -5 51 -5q69 0 123.5 44t115.5 149l56 94l-180 1057h51l166 -991h3l580 991h56l-689 -1173q-73 -123 -136 -169.5t-149 -46.5z" />
    <glyph glyph-name="dotlessj" unicode="&#x237;" horiz-adv-x="290" 
d="M280 1040l-245 -1157q-26 -123 -92.5 -177.5t-178.5 -54.5q-34 0 -67 3l10 45q27 -3 56 -3q93 0 147 46.5t75 145.5l245 1152h50z" />
    <glyph glyph-name="quoteright" unicode="&#x2019;" horiz-adv-x="365" 
d="M258 1017h-44l186 426h52z" />
    <glyph glyph-name="quoteright" unicode="&#x2bc;" horiz-adv-x="365" 
d="M258 1017h-44l186 426h52z" />
    <glyph glyph-name="circumflex" unicode="&#x2c6;" horiz-adv-x="1024" 
d="M755 1520l185 -304h-54l-159 263h-3l-284 -263h-62l325 304h52z" />
    <glyph glyph-name="caron" unicode="&#x2c7;" horiz-adv-x="1024" 
d="M628 1216l-185 304h54l160 -264h2l284 264h62l-325 -304h-52z" />
    <glyph glyph-name="breve" unicode="&#x2d8;" horiz-adv-x="1024" 
d="M700 1240q-118 0 -176.5 70.5t-45.5 165.5h45q-10 -82 37 -137.5t144 -55.5q84 0 138.5 53t59.5 140h46q-5 -104 -74 -170t-174 -66z" />
    <glyph glyph-name="dotaccent" unicode="&#x2d9;" horiz-adv-x="1024" 
d="M691 1317q-20 0 -34 13.5t-14 33.5q0 19 14 32.5t34 13.5q19 0 33 -13.5t14 -32.5q0 -20 -14 -33.5t-33 -13.5z" />
    <glyph glyph-name="ring" unicode="&#x2da;" horiz-adv-x="1024" 
d="M688 1184q-68 0 -116 48.5t-48 116.5t48 116.5t116 48.5q67 0 115.5 -48.5t48.5 -116.5t-48.5 -116.5t-115.5 -48.5zM688 1223q53 0 89 36.5t36 89.5t-36 89.5t-89 36.5t-89.5 -36.5t-36.5 -89.5t36.5 -89.5t89.5 -36.5z" />
    <glyph glyph-name="ogonek" unicode="&#x2db;" horiz-adv-x="1024" 
d="M336 -367q-64 0 -110.5 35t-46.5 99q0 134 226 250l47 -17q-226 -110 -226 -228q0 -48 35 -71.5t85 -23.5q44 0 86 17l-10 -45q-41 -16 -86 -16z" />
    <glyph glyph-name="tilde" unicode="&#x2dc;" horiz-adv-x="1024" 
d="M396 1272q24 88 67 135.5t99 47.5q40 0 76.5 -25.5t59.5 -55.5t55 -55.5t63 -25.5q77 0 120 139h45q-24 -88 -67 -135.5t-99 -47.5q-40 0 -76.5 25.5t-59.5 55.5t-55 55.5t-63 25.5q-77 0 -119 -139h-46z" />
    <glyph glyph-name="hungarumlaut" unicode="&#x2dd;" horiz-adv-x="1024" 
d="M414 1216l237 304h58l-244 -304h-51zM669 1216l241 304h59l-249 -304h-51z" />
    <glyph glyph-name="gravecmb" unicode="&#x300;" 
d="M126 1216l-119 304h53l112 -304h-46z" />
    <glyph glyph-name="acutecmb" unicode="&#x301;" 
d="M167 1216h-52l241 304h59z" />
    <glyph glyph-name="circumflexcmb" unicode="&#x302;" 
d="M241 1520l186 -304h-54l-160 263h-2l-284 -263h-63l325 304h52z" />
    <glyph glyph-name="tildecmb" unicode="&#x303;" 
d="M-115 1272q24 88 66.5 135.5t99.5 47.5q40 0 76 -25.5t59.5 -55.5t55 -55.5t62.5 -25.5q78 0 120 139h45q-24 -88 -67 -135.5t-99 -47.5q-33 0 -62.5 16.5t-51.5 40.5t-43 48t-46 40.5t-50 16.5q-79 0 -119 -139h-46z" />
    <glyph glyph-name="macroncmb" unicode="&#x304;" 
d="M422 1386l-10 -44h-469l9 44h470z" />
    <glyph glyph-name="brevecmb" unicode="&#x306;" 
d="M171 1240q-118 0 -176.5 70.5t-46.5 165.5h46q-10 -82 37 -137.5t144 -55.5q84 0 138.5 53t58.5 140h47q-5 -104 -74 -170t-174 -66z" />
    <glyph glyph-name="dotaccentcmb" unicode="&#x307;" 
d="M179 1317q-20 0 -34 13.5t-14 33.5q0 19 14 32.5t34 13.5q19 0 33 -13.5t14 -32.5q0 -20 -14 -33.5t-33 -13.5z" />
    <glyph glyph-name="dieresiscmb" unicode="&#x308;" 
d="M40 1317q-20 0 -34 13.5t-14 33.5q0 19 14 32.5t34 13.5t34 -13.5t14 -32.5q0 -20 -14 -33.5t-34 -13.5zM317 1317q-19 0 -33 13.5t-14 33.5q0 19 14 32.5t33 13.5q20 0 34 -13.5t14 -32.5q0 -20 -14 -33.5t-34 -13.5z" />
    <glyph glyph-name="hookabovecmb" unicode="&#x309;" 
d="M54 1448l9 42q35 23 97 23t101.5 -33t39.5 -85q0 -54 -36 -96t-95 -61l-22 33q50 16 78 46.5t28 70.5q0 39 -26.5 61.5t-72.5 22.5q-58 0 -101 -24z" />
    <glyph glyph-name="ringcmb" unicode="&#x30a;" 
d="M176 1184q-68 0 -116 48.5t-48 116.5t48 116.5t116 48.5q67 0 115.5 -48.5t48.5 -116.5t-48.5 -116.5t-115.5 -48.5zM176 1223q53 0 89 36.5t36 89.5t-36 89.5t-89 36.5t-89.5 -36.5t-36.5 -89.5t36.5 -89.5t89.5 -36.5z" />
    <glyph glyph-name="hungarumlautcmb" unicode="&#x30b;" 
d="M-36 1216l237 304h58l-244 -304h-51zM218 1216l241 304h59l-248 -304h-52z" />
    <glyph glyph-name="caroncmb" unicode="&#x30c;" 
d="M115 1216l-186 304h54l160 -264h2l284 264h63l-325 -304h-52z" />
    <glyph glyph-name="dblgravecmb" unicode="&#x30f;" 
d="M326 1216h-46l-116 304h53zM78 1216h-47l-119 304h54z" />
    <glyph glyph-name="invertedbrevecmb" unicode="&#x311;" 
d="M150 1476q118 0 176.5 -71t45.5 -165h-45q10 81 -37 137t-144 56q-84 0 -138.5 -53.5t-59.5 -139.5h-46q5 104 74 170t174 66z" />
    <glyph glyph-name="horncmb" unicode="&#x31b;" 
d="M-20 1013l10 45q26 -13 69 -13q146 0 183 169l23 107h47l-25 -116q-22 -106 -79.5 -155.5t-155.5 -49.5q-40 0 -72 13z" />
    <glyph glyph-name="dotbelowcmb" unicode="&#x323;" 
d="M-164 -294q-20 0 -34 13.5t-14 33.5t14 33.5t34 13.5t34 -13.5t14 -33.5t-14 -33.5t-34 -13.5z" />
    <glyph glyph-name="dieresisbelowcmb" unicode="&#x324;" 
d="M-303 -294q-19 0 -33 13.5t-14 33.5t14 33.5t33 13.5q20 0 34 -13.5t14 -33.5t-14 -33.5t-34 -13.5zM-25 -294q-20 0 -34 13.5t-14 33.5t14 33.5t34 13.5q19 0 33 -13.5t14 -33.5t-14 -33.5t-33 -13.5z" />
    <glyph glyph-name="ringbelowcmb" unicode="&#x325;" 
d="M-164 -412q-67 0 -115.5 48.5t-48.5 116.5t48.5 116.5t115.5 48.5t115.5 -48.5t48.5 -116.5t-48.5 -116.5t-115.5 -48.5zM-164 -373q53 0 89 36.5t36 89.5t-36 89.5t-89 36.5t-89 -36.5t-36 -89.5t36 -89.5t89 -36.5z" />
    <glyph glyph-name="commabelowcmb" unicode="&#x326;" 
d="M-229 -476h-45l105 337h57z" />
    <glyph glyph-name="cedillacmb" unicode="&#x327;" 
d="M-316 -439l9 44q54 -22 120 -22q71 0 116.5 33.5t45.5 89.5q0 53 -43.5 82t-120.5 29h-34l7 34l88 156h44v-7l-79 -141q81 0 134 -39.5t53 -112.5q0 -76 -59 -122t-153 -46q-69 0 -128 22z" />
    <glyph glyph-name="ogonekcmb" unicode="&#x328;" 
d="M-176 -367q-64 0 -110.5 35t-46.5 99q0 134 226 250l47 -17q-226 -110 -226 -228q0 -48 35 -71.5t85 -23.5q44 0 86 17l-10 -45q-41 -16 -86 -16z" />
    <glyph glyph-name="circumflexbelowcmb" unicode="&#x32d;" 
d="M-111 -139l185 -304h-54l-159 264h-3l-283 -264h-63l325 304h52z" />
    <glyph glyph-name="brevebelowcmb" unicode="&#x32e;" 
d="M-170 -366q-117 0 -176 71t-46 166h46q-10 -82 36.5 -137.5t143.5 -55.5q84 0 138.5 53t59.5 140h46q-5 -105 -74 -171t-174 -66z" />
    <glyph glyph-name="tildebelowcmb" unicode="&#x330;" 
d="M-455 -327q24 88 67 135.5t99 47.5q40 0 76 -25.5t59.5 -55.5t55.5 -55.5t63 -25.5q77 0 120 139h45q-24 -88 -67 -135.5t-100 -47.5q-32 0 -61.5 16.5t-51.5 40.5t-43.5 48t-46 40.5t-50.5 16.5q-77 0 -119 -139h-46z" />
    <glyph glyph-name="macronbelowcmb" unicode="&#x332;" 
d="M79 -225l-9 -44h-470l9 44h470z" />
    <glyph glyph-name="macronbelowcmb" unicode="&#x331;" 
d="M79 -225l-9 -44h-470l9 44h470z" />
    <glyph glyph-name="greekquestionmark" unicode="&#x37e;" horiz-adv-x="489" 
d="M350 919q-21 0 -36.5 15.5t-15.5 36.5q0 22 15.5 37.5t36.5 15.5q22 0 37.5 -15.5t15.5 -37.5q0 -21 -15.5 -36.5t-37.5 -15.5zM25 -253h-44l185 427h52z" />
    <glyph glyph-name="tonosgreek" unicode="&#x384;" horiz-adv-x="1024" 
d="M591 1216l145 304h57l-154 -304h-48z" />
    <glyph glyph-name="dieresistonosgreek" unicode="&#x385;" horiz-adv-x="1024" 
d="M623 1216l142 304h56l-150 -304h-48zM516 1218q-20 0 -34 13.5t-14 32.5q0 20 14 33.5t34 13.5q19 0 33 -13.5t14 -33.5q0 -19 -14 -32.5t-33 -13.5zM824 1218q-19 0 -33 13.5t-14 32.5q0 20 14 33.5t33 13.5q20 0 34 -13.5t14 -33.5q0 -19 -14 -32.5t-34 -13.5z" />
    <glyph glyph-name="Alphatonosgreek" unicode="&#x386;" horiz-adv-x="1201" 
d="M1021 0l-85 502h-668l-299 -502h-60l861 1443h52l247 -1443h-48zM306 1139l145 304h57l-154 -304h-48zM784 1375l-490 -828h635l-141 828h-4z" />
    <glyph glyph-name="anoteleia" unicode="&#x387;" horiz-adv-x="509" 
d="M354 935q-22 0 -37.5 15.5t-15.5 36.5q0 22 15.5 37.5t37.5 15.5q21 0 36.5 -15.5t15.5 -37.5q0 -21 -15.5 -36.5t-36.5 -15.5z" />
    <glyph glyph-name="Epsilontonosgreek" unicode="&#x388;" horiz-adv-x="1241" 
d="M141 1139l145 304h56l-153 -304h-48zM1059 47l-10 -47h-826l307 1443h826l-10 -47h-776l-135 -632h740l-10 -46h-739l-143 -671h776z" />
    <glyph glyph-name="Etatonosgreek" unicode="&#x389;" horiz-adv-x="1512" 
d="M141 1139l145 304h56l-153 -304h-48zM1271 0h-50l153 718h-948l-153 -718h-50l307 1443h50l-145 -678h948l145 678h50z" />
    <glyph glyph-name="Iotatonosgreek" unicode="&#x38a;" horiz-adv-x="514" 
d="M141 1139l145 304h56l-153 -304h-48zM273 0h-50l307 1443h50z" />
    <glyph glyph-name="Omicrontonosgreek" unicode="&#x38c;" horiz-adv-x="1527" 
d="M768 -20q-253 0 -409.5 165.5t-156.5 438.5q0 184 56.5 347.5t153 280t232.5 184t289 67.5q254 0 410.5 -165.5t156.5 -438.5q0 -184 -56.5 -347.5t-153.5 -280t-232.5 -184t-289.5 -67.5zM141 1139l145 304h56l-153 -304h-48zM930 1416q-188 0 -343.5 -109t-245 -298.5
t-89.5 -418.5q0 -257 143 -410t377 -153q188 0 343.5 109t245 298.5t89.5 418.5q0 257 -143 410t-377 153z" />
    <glyph glyph-name="Upsilontonosgreek" unicode="&#x38e;" horiz-adv-x="1340" 
d="M141 1139l145 304h56l-153 -304h-48zM683 0h-51l134 632l-354 811h54l331 -758h4l651 758h63l-699 -814z" />
    <glyph glyph-name="Omegatonosgreek" unicode="&#x38f;" horiz-adv-x="1632" 
d="M862 0l16 75q272 84 440 305t168 506q0 236 -141.5 383t-369.5 147q-125 0 -237.5 -41.5t-198 -115.5t-148.5 -171t-96 -211.5t-33 -234.5q0 -206 87.5 -339.5t283.5 -227.5l-16 -75h-503l9 47h452l1 4q-190 97 -277 237t-87 352q0 161 55 309.5t152.5 262.5t243.5 182.5
t316 68.5q252 0 404.5 -155t152.5 -410q0 -295 -162 -521.5t-449 -325.5l-1 -4h494l-9 -47h-547zM141 1139l145 304h56l-153 -304h-48z" />
    <glyph glyph-name="iotadieresistonosgreek" unicode="&#x390;" horiz-adv-x="520" 
d="M296 1216l141 304h57l-151 -304h-47zM188 1218q-20 0 -34 13.5t-14 32.5q0 20 14 33.5t34 13.5t34 -13.5t14 -33.5q0 -19 -14 -32.5t-34 -13.5zM497 1218q-20 0 -34 13.5t-14 32.5q0 20 14 33.5t34 13.5q19 0 33 -13.5t14 -33.5q0 -19 -14 -32.5t-33 -13.5zM308 1040
l-167 -787q-10 -47 -10 -76q0 -65 44.5 -103t123.5 -38q51 0 85 10l-9 -46q-54 -10 -85 -10q-98 0 -154 46.5t-56 126.5q0 36 11 89l167 788h50z" />
    <glyph glyph-name="Alphagreek" unicode="&#x391;" horiz-adv-x="1201" 
d="M1021 0l-85 502h-668l-299 -502h-60l861 1443h52l247 -1443h-48zM784 1375l-490 -828h635l-141 828h-4z" />
    <glyph glyph-name="Betagreek" unicode="&#x392;" horiz-adv-x="1169" 
d="M512 0h-492l307 1443h466q169 0 264 -87t95 -228q0 -144 -104.5 -254.5t-257.5 -130.5l-1 -4q130 -16 210 -97.5t80 -215.5q0 -194 -156.5 -310t-410.5 -116zM367 1397l-134 -632h450q112 0 208 47t153.5 129t57.5 180q0 127 -82 201.5t-235 74.5h-418zM80 46h437
q228 0 370 105.5t142 271.5q0 144 -101 220t-261 76h-444z" />
    <glyph glyph-name="Gammagreek" unicode="&#x393;" horiz-adv-x="1112" 
d="M124 0h-50l307 1443h796l-10 -47h-746z" />
    <glyph glyph-name="Deltagreek" unicode="&#x2206;" horiz-adv-x="1321" 
d="M1125 0h-1152l8 38l849 1405h52l252 -1404zM843 1375l-796 -1324l-1 -4h1036l1 4l-236 1324h-4z" />
    <glyph glyph-name="Deltagreek" unicode="&#x394;" horiz-adv-x="1321" 
d="M1125 0h-1152l8 38l849 1405h52l252 -1404zM843 1375l-796 -1324l-1 -4h1036l1 4l-236 1324h-4z" />
    <glyph glyph-name="Epsilongreek" unicode="&#x395;" horiz-adv-x="1038" 
d="M856 47l-10 -47h-826l307 1443h826l-10 -47h-776l-134 -632h740l-11 -46h-739l-142 -671h775z" />
    <glyph glyph-name="Zetagreek" unicode="&#x396;" horiz-adv-x="1152" 
d="M-45 0l10 42l1237 1351v4h-921l10 46h990l-10 -43l-1236 -1350v-4h950l-10 -46h-1020z" />
    <glyph glyph-name="Etagreek" unicode="&#x397;" horiz-adv-x="1310" 
d="M1068 0h-50l153 718h-948l-153 -718h-50l307 1443h50l-144 -678h948l144 678h50z" />
    <glyph glyph-name="Thetagreek" unicode="&#x398;" horiz-adv-x="1553" 
d="M741 -20q-254 0 -410.5 165.5t-156.5 438.5q0 246 96 447.5t263.5 316.5t372.5 115q254 0 410.5 -165.5t156.5 -438.5q0 -184 -56.5 -347.5t-153.5 -280t-232.5 -184t-289.5 -67.5zM1423 853q0 257 -143 410t-378 153q-187 0 -342.5 -109t-245 -299t-89.5 -418
q0 -257 142.5 -410t377.5 -153q188 0 343.5 109t245 298.5t89.5 418.5zM1176 707h-707l10 46h707z" />
    <glyph glyph-name="Iotagreek" unicode="&#x399;" horiz-adv-x="311" 
d="M70 0h-50l307 1443h50z" />
    <glyph glyph-name="Kappagreek" unicode="&#x39a;" horiz-adv-x="1109" 
d="M70 0h-50l307 1443h50l-176 -828h4l952 828h72l-716 -623l479 -820h-58l-459 788l-292 -253z" />
    <glyph glyph-name="Lambdagreek" unicode="&#x39b;" horiz-adv-x="1199" 
d="M783 1375l-804 -1375h-60l851 1443h51l237 -1443h-48l-223 1375h-4z" />
    <glyph glyph-name="Mugreek" unicode="&#x39c;" horiz-adv-x="1589" 
d="M69 0h-49l307 1443h50l316 -1381h4l898 1381h59l-307 -1443h-49l283 1329h-4l-866 -1328h-53l-302 1328h-5z" />
    <glyph glyph-name="Nugreek" unicode="&#x39d;" horiz-adv-x="1332" 
d="M70 0h-50l307 1443h48l679 -1362h4l289 1362h50l-307 -1443h-48l-679 1362h-4z" />
    <glyph glyph-name="Xigreek" unicode="&#x39e;" horiz-adv-x="1276" 
d="M328 1443h1009l-11 -51h-1008zM1125 718h-892l10 51h893zM32 51h1009l-10 -51h-1009z" />
    <glyph glyph-name="Omicrongreek" unicode="&#x39f;" horiz-adv-x="1436" 
d="M678 -20q-254 0 -410.5 165.5t-156.5 438.5q0 184 56.5 347.5t153.5 280t232.5 184t289.5 67.5q253 0 409.5 -165.5t156.5 -438.5q0 -184 -56.5 -347.5t-153 -280t-232.5 -184t-289 -67.5zM839 1416q-188 0 -343.5 -109t-245 -298.5t-89.5 -418.5q0 -257 143 -410
t377 -153q188 0 343.5 109t245 298.5t89.5 418.5q0 257 -142.5 410t-377.5 153z" />
    <glyph glyph-name="Pigreek" unicode="&#x3a0;" horiz-adv-x="1397" 
d="M1102 0h-50l297 1396h-928l-297 -1396h-50l307 1443h1028z" />
    <glyph glyph-name="Rhogreek" unicode="&#x3a1;" horiz-adv-x="1138" 
d="M331 1443h413q194 0 307 -104.5t113 -271.5q0 -213 -159.5 -339.5t-418.5 -126.5h-386l-130 -601h-50zM372 1396l-162 -748h380q229 0 376.5 112.5t147.5 303.5q0 147 -100 239.5t-276 92.5h-366z" />
    <glyph glyph-name="Sigmagreek" unicode="&#x3a3;" horiz-adv-x="1249" 
d="M92 50v-4h932l-10 -46h-1001l9 42l612 718l-305 638l10 45h961l-11 -46h-902l-1 -4l304 -634l-3 -13z" />
    <glyph glyph-name="Taugreek" unicode="&#x3a4;" horiz-adv-x="1143" 
d="M486 0h-50l297 1396h-521l10 47h1091l-10 -47h-520z" />
    <glyph glyph-name="Upsilongreek" unicode="&#x3a5;" horiz-adv-x="1144" 
d="M487 0h-50l134 632l-355 811h55l331 -758h4l651 758h63l-699 -814z" />
    <glyph glyph-name="Phigreek" unicode="&#x3a6;" horiz-adv-x="1634" 
d="M668 -59l27 126q-289 12 -448 160t-159 390q0 160 59 298.5t169 241.5t279.5 162.5t378.5 60.5l24 110h50l-24 -110q290 -11 449 -159t159 -390q0 -160 -59 -298.5t-169.5 -242t-280 -163t-378.5 -60.5l-27 -126h-50zM705 114l259 1219q-195 -3 -353 -59.5t-260.5 -152.5
t-157.5 -224.5t-55 -276.5q0 -224 143 -361t424 -145zM755 114q195 3 353 59.5t261 153t158 225t55 276.5q0 224 -143.5 360.5t-423.5 144.5z" />
    <glyph glyph-name="Chigreek" unicode="&#x3a7;" horiz-adv-x="1156" 
d="M-90 0l681 726l-368 717h56l349 -680l636 680h67l-679 -725l368 -718h-56l-349 681l-638 -681h-67z" />
    <glyph glyph-name="Psigreek" unicode="&#x3a8;" horiz-adv-x="1541" 
d="M686 0h-51l76 357q-217 1 -343 114t-126 305q0 70 16 140l112 527h50l-112 -527q-16 -78 -16 -135q0 -178 113 -277t316 -100l221 1039h50l-221 -1039q286 7 431.5 135.5t207.5 419.5l103 484h50l-104 -488q-35 -165 -92.5 -279t-144.5 -185t-199 -102.5t-262 -31.5z" />
    <glyph glyph-name="Omegagreek" unicode="&#x2126;" horiz-adv-x="1567" 
d="M797 0l16 75q272 84 439.5 305t167.5 506q0 236 -141 383t-369 147q-125 0 -237.5 -41.5t-198 -115.5t-148.5 -171t-96 -211.5t-33 -234.5q0 -206 87.5 -339.5t283.5 -227.5l-16 -75h-503l9 47h452v4q-190 97 -277 237.5t-87 351.5q0 161 55 309.5t153 262.5t243.5 182.5
t315.5 68.5q252 0 404.5 -155t152.5 -410q0 -295 -161.5 -521.5t-448.5 -325.5l-1 -4h494l-9 -47h-547z" />
    <glyph glyph-name="Omegagreek" unicode="&#x3a9;" horiz-adv-x="1567" 
d="M797 0l16 75q272 84 439.5 305t167.5 506q0 236 -141 383t-369 147q-125 0 -237.5 -41.5t-198 -115.5t-148.5 -171t-96 -211.5t-33 -234.5q0 -206 87.5 -339.5t283.5 -227.5l-16 -75h-503l9 47h452v4q-190 97 -277 237.5t-87 351.5q0 161 55 309.5t153 262.5t243.5 182.5
t315.5 68.5q252 0 404.5 -155t152.5 -410q0 -295 -161.5 -521.5t-448.5 -325.5l-1 -4h494l-9 -47h-547z" />
    <glyph glyph-name="Iotadieresisgreek" unicode="&#x3aa;" horiz-adv-x="311" 
d="M267 1654q-19 0 -33 13.5t-14 32.5q0 20 14 33.5t33 13.5q20 0 34 -13.5t14 -33.5q0 -19 -14 -32.5t-34 -13.5zM545 1654q-20 0 -34 13.5t-14 32.5q0 20 14 33.5t34 13.5q19 0 33 -13.5t14 -33.5q0 -19 -14 -32.5t-33 -13.5zM70 0h-50l307 1443h50z" />
    <glyph glyph-name="Upsilondieresisgreek" unicode="&#x3ab;" horiz-adv-x="1144" 
d="M683 1654q-20 0 -34 13.5t-14 32.5q0 20 14 33.5t34 13.5t33.5 -13.5t13.5 -33.5q0 -19 -13.5 -32.5t-33.5 -13.5zM960 1654q-19 0 -33 13.5t-14 32.5q0 20 14 33.5t33 13.5q20 0 34 -13.5t14 -33.5q0 -19 -14 -32.5t-34 -13.5zM487 0h-50l134 632l-355 811h55l331 -758
h4l651 758h63l-699 -814z" />
    <glyph glyph-name="alphatonosgreek" unicode="&#x3ac;" horiz-adv-x="1254" 
d="M630 1216l145 304h56l-153 -304h-48zM459 -15q-164 0 -265.5 115t-101.5 299q0 176 72 327.5t195 240t266 88.5q148 0 250 -97t110 -243h3l69 325h50l-166 -783q-24 -112 -24 -142q0 -42 20.5 -60.5t68.5 -18.5q42 0 71 10l-10 -45q-25 -10 -69 -10q-134 0 -134 118
q0 27 26 145h-4q-66 -123 -181.5 -196t-245.5 -73zM467 30q133 0 246 83t177.5 221t64.5 295q0 170 -91.5 275.5t-241.5 105.5q-127 0 -238 -83.5t-176.5 -223.5t-65.5 -300q0 -170 88.5 -271.5t236.5 -101.5z" />
    <glyph glyph-name="epsilontonosgreek" unicode="&#x3ad;" horiz-adv-x="1072" 
d="M602 1216l145 304h56l-153 -304h-48zM453 -16q-167 0 -265 72t-98 198q0 116 74 191.5t204 95.5v3q-76 11 -125.5 66t-49.5 129q0 148 112.5 232.5t301.5 84.5q178 0 287.5 -86t108.5 -236h-49q4 126 -95.5 201t-256.5 75q-163 0 -259.5 -68t-96.5 -186q0 -89 71 -142
t198 -53h141l-11 -47h-145q-173 0 -266 -66.5t-93 -192.5q0 -102 86 -163.5t229 -61.5q156 0 279.5 74t171.5 192h51q-46 -137 -186.5 -224.5t-318.5 -87.5z" />
    <glyph glyph-name="etatonosgreek" unicode="&#x3ae;" horiz-adv-x="1218" 
d="M792 1216l145 304h57l-154 -304h-48zM828 -339l205 968q14 67 14 106q0 123 -82.5 198.5t-221.5 75.5q-155 0 -272 -105.5t-150 -259.5l-138 -644h-49l181 853q8 40 8 65q0 46 -19.5 66t-68.5 20q-40 0 -72 -10l10 45q24 10 70 10q131 0 132 -116q0 -21 -19 -115h4
q64 109 165.5 173.5t228.5 64.5q153 0 248 -88t95 -224q0 -55 -11 -106l-209 -977h-49z" />
    <glyph glyph-name="iotatonosgreek" unicode="&#x3af;" horiz-adv-x="520" 
d="M293 1216l144 304h57l-154 -304h-47zM308 1040l-167 -787q-10 -47 -10 -76q0 -65 44.5 -103t123.5 -38q51 0 85 10l-9 -46q-54 -10 -85 -10q-98 0 -154 46.5t-56 126.5q0 36 11 89l167 788h50z" />
    <glyph glyph-name="upsilondieresistonosgreek" unicode="&#x3b0;" horiz-adv-x="1047" 
d="M602 1216l141 304h57l-151 -304h-47zM494 1218q-20 0 -34 13.5t-14 32.5q0 20 14 33.5t34 13.5t34 -13.5t14 -33.5q0 -19 -14 -32.5t-34 -13.5zM803 1218q-20 0 -34 13.5t-14 32.5q0 20 14 33.5t34 13.5q19 0 33 -13.5t14 -33.5q0 -19 -14 -32.5t-33 -13.5zM887 1040h52
q17 -113 17 -257q0 -384 -140 -591.5t-400 -207.5q-147 0 -228.5 75t-81.5 209q0 64 14 128l138 644h49l-135 -634q-17 -80 -17 -135q1 -114 69.5 -177.5t191.5 -63.5q236 0 363.5 196.5t127.5 561.5q0 139 -20 252z" />
    <glyph glyph-name="alphagreek" unicode="&#x3b1;" horiz-adv-x="1254" 
d="M459 -15q-164 0 -265.5 115t-101.5 299q0 176 72 327.5t195 240t266 88.5q148 0 250 -97t110 -243h3l69 325h50l-166 -783q-24 -112 -24 -142q0 -42 20.5 -60.5t68.5 -18.5q42 0 71 10l-10 -45q-25 -10 -69 -10q-134 0 -134 118q0 27 26 145h-4q-66 -123 -181.5 -196
t-245.5 -73zM467 30q133 0 246 83t177.5 221t64.5 295q0 170 -91.5 275.5t-241.5 105.5q-127 0 -238 -83.5t-176.5 -223.5t-65.5 -300q0 -170 88.5 -271.5t236.5 -101.5z" />
    <glyph glyph-name="betagreek" unicode="&#x3b2;" horiz-adv-x="1167" 
d="M262 982q54 256 161.5 366.5t298.5 110.5q156 0 246 -83t90 -226q0 -148 -84.5 -245.5t-230.5 -124.5v-4q145 -27 222.5 -111.5t77.5 -218.5q0 -209 -126 -335t-339 -126q-158 0 -271.5 95.5t-132.5 244.5h-3l-140 -664h-51zM490 754l10 47h118q174 0 284 93.5t110 244.5
q0 133 -75.5 203t-220.5 70q-160 0 -258.5 -103t-146.5 -327l-94 -436q-14 -64 -14 -141q0 -164 107.5 -269.5t274.5 -105.5q183 0 296 112t113 295q0 148 -103.5 232.5t-280.5 84.5h-120z" />
    <glyph glyph-name="gammagreek" unicode="&#x3b3;" horiz-adv-x="993" 
d="M973 1040q-7 -125 -40 -241q-50 -173 -177.5 -355.5t-385.5 -453.5l-66 -314h-50l65 314l-150 1050h50l140 -990h3q232 242 355 419t170 344q28 107 36 227h50z" />
    <glyph glyph-name="deltagreek" unicode="&#x3b4;" horiz-adv-x="1113" 
d="M510 -16q-85 0 -161 27t-138 79.5t-98 139t-36 196.5q0 233 145.5 380.5t368.5 149.5h30l1 4q-221 94 -221 242q0 115 104.5 186t275.5 71q86 0 166 -18t116 -46l-10 -46q-88 64 -276 64q-147 0 -236.5 -57.5t-89.5 -153.5q0 -67 53.5 -116.5t201.5 -119.5
q321 -152 321 -450q0 -228 -148 -380t-369 -152zM516 30q195 0 328.5 138.5t133.5 346.5q0 166 -111 284t-268 118q-205 0 -339 -137t-134 -353q0 -84 23 -152t61.5 -113t90 -75.5t105 -43.5t110.5 -13z" />
    <glyph glyph-name="epsilongreek" unicode="&#x3b5;" horiz-adv-x="1072" 
d="M453 -16q-167 0 -265 72t-98 198q0 116 74 191.5t204 95.5v3q-76 11 -125.5 66t-49.5 129q0 148 112.5 232.5t301.5 84.5q178 0 287.5 -86t108.5 -236h-49q4 126 -95.5 201t-256.5 75q-163 0 -259.5 -68t-96.5 -186q0 -89 71 -142t198 -53h141l-11 -47h-145
q-173 0 -266 -66.5t-93 -192.5q0 -102 86 -163.5t229 -61.5q156 0 279.5 74t171.5 192h51q-46 -137 -186.5 -224.5t-318.5 -87.5z" />
    <glyph glyph-name="zetagreek" unicode="&#x3b6;" horiz-adv-x="868" 
d="M614 -393l-43 16q51 52 74 89t23 79q0 59 -44 102.5t-165 98.5q-207 96 -292 192t-85 247q0 241 217.5 500.5t582.5 459.5v4h-568l11 48h658l2 -48q-251 -125 -446.5 -292.5t-300.5 -341.5t-105 -327q0 -136 72 -218.5t275 -178.5q136 -65 187.5 -115t51.5 -125
q0 -95 -105 -190z" />
    <glyph glyph-name="etagreek" unicode="&#x3b7;" horiz-adv-x="1218" 
d="M828 -339l205 968q14 67 14 106q0 123 -82.5 198.5t-221.5 75.5q-155 0 -272 -105.5t-150 -259.5l-138 -644h-49l181 853q8 40 8 65q0 46 -19.5 66t-68.5 20q-40 0 -72 -10l10 45q24 10 70 10q131 0 132 -116q0 -21 -19 -115h4q64 109 165.5 173.5t228.5 64.5
q153 0 248 -88t95 -224q0 -55 -11 -106l-209 -977h-49z" />
    <glyph glyph-name="thetagreek" unicode="&#x3b8;" horiz-adv-x="1106" 
d="M450 -16q-365 0 -365 450q0 120 29 289q127 736 560 736q183 0 276 -118t93 -351q0 -131 -29 -299q-65 -367 -202 -537t-362 -170zM165 735h806q22 129 22 251q0 427 -325 427q-194 0 -318 -170.5t-185 -507.5zM454 30q201 0 325 160t185 500h-806q-23 -146 -23 -252
q0 -408 319 -408z" />
    <glyph glyph-name="iotagreek" unicode="&#x3b9;" horiz-adv-x="520" 
d="M308 1040l-167 -787q-10 -47 -10 -76q0 -65 44.5 -103t123.5 -38q51 0 85 10l-9 -46q-54 -10 -85 -10q-98 0 -154 46.5t-56 126.5q0 36 11 89l167 788h50z" />
    <glyph glyph-name="kappagreek" unicode="&#x3ba;" horiz-adv-x="1096" 
d="M989 1049q50 0 70 -10l-10 -45q-28 10 -60 10q-43 0 -82 -22t-89 -72l-216 -217l301 -693h-55l-283 658l-408 -405l-52 -253h-50l219 1040h49l-148 -703h3l606 605q61 60 106 83.5t99 23.5z" />
    <glyph glyph-name="lambdagreek" unicode="&#x3bb;" horiz-adv-x="1074" 
d="M849 36q29 0 62 10l-10 -45q-33 -10 -64 -10q-63 0 -97 28.5t-42 89.5l-117 825h-4l-551 -934h-57l601 1012l-31 216q-14 100 -50 142.5t-105 42.5q-56 0 -82 -13l9 46q28 13 78 13q89 0 135 -51t62 -171l155 -1105q8 -53 32 -74.5t76 -21.5z" />
    <glyph glyph-name="nugreek" unicode="&#x3bd;" horiz-adv-x="1000" 
d="M973 1040q-7 -130 -45 -256q-49 -164 -174.5 -341.5t-373.5 -442.5h-63l-148 1040h50l140 -990h4q230 243 350 413.5t168 332.5q35 114 42 244h50z" />
    <glyph glyph-name="xigreek" unicode="&#x3be;" horiz-adv-x="915" 
d="M637 -393l-42 16q51 53 73.5 90t22.5 78q0 61 -44 103t-165 99q-223 104 -309.5 193.5t-86.5 216.5q0 149 104 250.5t292 122.5l1 4q-120 29 -178.5 87.5t-58.5 154.5q0 293 426 370v4h-349l10 48h637l4 -47l-119 -9q-268 -20 -415.5 -113.5t-147.5 -247.5
q0 -223 383 -223h88l-10 -48h-78q-270 0 -404.5 -95.5t-134.5 -259.5q0 -108 77 -185.5t288 -177.5q137 -65 189 -115.5t52 -125.5q0 -95 -105 -190z" />
    <glyph glyph-name="omicrongreek" unicode="&#x3bf;" horiz-adv-x="1076" 
d="M595 1056q190 0 304 -119.5t114 -316.5q0 -180 -69.5 -325.5t-191.5 -228t-273 -82.5q-189 0 -303.5 119.5t-114.5 316.5q0 180 69.5 325.5t191.5 228t273 82.5zM479 30q135 0 246.5 77t175 212t63.5 299q0 177 -101 284.5t-268 107.5q-135 0 -246 -77t-174.5 -211.5
t-63.5 -299.5q0 -177 100.5 -284.5t267.5 -107.5z" />
    <glyph glyph-name="pigreek" unicode="&#x3c0;" horiz-adv-x="1229" 
d="M801 183l171 809h-575l-210 -992h-49l211 992h-207l10 48h1091l-10 -48h-212l-169 -805q-10 -45 -10 -71q0 -43 20 -61.5t75 -18.5q35 0 66 10l-10 -46q-34 -10 -65 -10q-138 0 -138 118q0 33 11 75z" />
    <glyph glyph-name="rhogreek" unicode="&#x3c1;" horiz-adv-x="1171" 
d="M654 1056q186 0 296 -118.5t110 -310.5q0 -137 -42.5 -258t-114 -204.5t-168 -131.5t-202.5 -48q-152 0 -255 94.5t-121 245.5h-3l-141 -664h-50l185 870q57 263 192.5 394t313.5 131zM527 30q134 0 245 76.5t175 213t64 305.5q0 176 -94.5 280.5t-267.5 104.5
q-84 0 -158.5 -35t-129 -94t-94.5 -135.5t-60 -161.5t-20 -169q0 -166 97 -275.5t243 -109.5z" />
    <glyph glyph-name="sigmafinalgreek" unicode="&#x3c2;" horiz-adv-x="1098" 
d="M739 -200q0 -97 -104 -193l-43 16q51 51 74 89.5t23 81.5q0 58 -46.5 101.5t-156.5 94.5q-217 100 -299.5 203t-82.5 274q0 165 71.5 301t194 212t268.5 76q164 0 266 -83t123 -219h-49q-17 116 -108.5 186t-227.5 70q-108 0 -200.5 -46t-155 -122t-97.5 -173.5
t-35 -201.5q0 -108 35.5 -182.5t108 -130t207.5 -119.5q130 -61 182 -112.5t52 -122.5z" />
    <glyph glyph-name="sigmagreek" unicode="&#x3c3;" horiz-adv-x="1186" 
d="M477 -16q-180 0 -281.5 108t-101.5 299q0 288 155 468.5t404 180.5h564l-10 -48h-381l-1 -3q100 -48 145 -134t45 -227q0 -184 -68.5 -331t-191.5 -230t-278 -83zM478 30q104 0 195 46t155 126.5t101 193t37 240.5q0 167 -86.5 262.5t-239.5 95.5q-142 0 -255.5 -76.5
t-177.5 -213.5t-64 -309t89 -268.5t246 -96.5z" />
    <glyph glyph-name="taugreek" unicode="&#x3c4;" horiz-adv-x="929" 
d="M646 46l-9 -46q-37 -10 -93 -10q-96 0 -151.5 43.5t-55.5 116.5q0 44 10 86l159 756h-364l11 48h832l-11 -48h-419l-158 -752q-9 -39 -9 -75q0 -63 44.5 -96t125.5 -33q56 0 88 10z" />
    <glyph glyph-name="upsilongreek" unicode="&#x3c5;" horiz-adv-x="1047" 
d="M887 1040h52q17 -113 17 -257q0 -384 -140 -591.5t-400 -207.5q-147 0 -228.5 75t-81.5 209q0 64 14 128l138 644h49l-135 -634q-17 -80 -17 -135q1 -114 69.5 -177.5t191.5 -63.5q236 0 363.5 196.5t127.5 561.5q0 139 -20 252z" />
    <glyph glyph-name="phigreek" unicode="&#x3c6;" horiz-adv-x="1438" 
d="M512 -339l69 324q-219 20 -344 137.5t-125 307.5q0 279 189 452t506 174l56 263h49l-57 -263q222 -22 345 -141.5t123 -309.5q0 -279 -188.5 -450t-504.5 -171l-69 -323h-49zM592 31l204 979q-284 0 -459.5 -161t-175.5 -414q0 -173 116.5 -282t314.5 -122zM642 30
q283 1 457.5 158.5t174.5 410.5q0 173 -117 286.5t-312 124.5z" />
    <glyph glyph-name="chigreek" unicode="&#x3c7;" horiz-adv-x="1093" 
d="M869 -348q-72 0 -107.5 29.5t-59.5 109.5l-144 490h-5l-470 -620h-59l513 672l-161 553q-17 61 -49 89.5t-83 28.5q-35 0 -65 -10l10 45q30 10 64 10q64 0 104.5 -31.5t61.5 -102.5l158 -538h5l485 663h59l-528 -715l149 -511q20 -66 46.5 -91t80.5 -25q30 0 65 9l-9 -45
q-37 -10 -61 -10z" />
    <glyph glyph-name="psigreek" unicode="&#x3c8;" horiz-adv-x="1276" 
d="M482 -339h-49l69 323q-194 1 -294.5 75t-100.5 218q0 54 14 120l138 643h48l-138 -649q-13 -75 -13 -111q0 -127 87.5 -188t268.5 -61l271 1289h49l-272 -1290q296 18 437.5 208t141.5 550q0 136 -19 252h52q17 -109 17 -257q0 -781 -638 -799z" />
    <glyph glyph-name="omegagreek" unicode="&#x3c9;" horiz-adv-x="1448" 
d="M1330 633q0 -286 -112.5 -467.5t-290.5 -181.5q-116 0 -186.5 68.5t-71.5 184.5h-4q-41 -117 -126.5 -185t-192.5 -68q-130 0 -200 92t-70 264q0 202 92 401t219 299h61q-136 -107 -229.5 -305.5t-93.5 -387.5q0 -151 60 -234t168 -83q238 0 318 367l66 315h49l-66 -312
q-13 -61 -13 -117q0 -122 58.5 -187.5t168.5 -65.5q150 0 248.5 170t98.5 430q0 139 -24 246.5t-61 163.5h59q34 -60 54.5 -170t20.5 -237z" />
    <glyph glyph-name="iotadieresisgreek" unicode="&#x3ca;" horiz-adv-x="520" 
d="M215 1317q-20 0 -34 13.5t-14 33.5q0 19 14 32.5t34 13.5t34 -13.5t14 -32.5q0 -20 -14 -33.5t-34 -13.5zM492 1317q-19 0 -33 13.5t-14 33.5q0 19 14 32.5t33 13.5q20 0 34 -13.5t14 -32.5q0 -20 -14 -33.5t-34 -13.5zM308 1040l-167 -787q-10 -47 -10 -76
q0 -65 44.5 -103t123.5 -38q51 0 85 10l-9 -46q-54 -10 -85 -10q-98 0 -154 46.5t-56 126.5q0 36 11 89l167 788h50z" />
    <glyph glyph-name="upsilondieresisgreek" unicode="&#x3cb;" horiz-adv-x="1047" 
d="M521 1317q-20 0 -34 13.5t-14 33.5q0 19 14 32.5t34 13.5t33.5 -13.5t13.5 -32.5q0 -20 -13.5 -33.5t-33.5 -13.5zM798 1317q-19 0 -33 13.5t-14 33.5q0 19 14 32.5t33 13.5q20 0 34 -13.5t14 -32.5q0 -20 -14 -33.5t-34 -13.5zM887 1040h52q17 -113 17 -257
q0 -384 -140 -591.5t-400 -207.5q-147 0 -228.5 75t-81.5 209q0 64 14 128l138 644h49l-135 -634q-17 -80 -17 -135q1 -114 69.5 -177.5t191.5 -63.5q236 0 363.5 196.5t127.5 561.5q0 139 -20 252z" />
    <glyph glyph-name="omicrontonosgreek" unicode="&#x3cc;" horiz-adv-x="1076" 
d="M648 1216l145 304h57l-154 -304h-48zM595 1056q190 0 304 -119.5t114 -316.5q0 -180 -69.5 -325.5t-191.5 -228t-273 -82.5q-189 0 -303.5 119.5t-114.5 316.5q0 180 69.5 325.5t191.5 228t273 82.5zM479 30q135 0 246.5 77t175 212t63.5 299q0 177 -101 284.5
t-268 107.5q-135 0 -246 -77t-174.5 -211.5t-63.5 -299.5q0 -177 100.5 -284.5t267.5 -107.5z" />
    <glyph glyph-name="upsilontonosgreek" unicode="&#x3cd;" horiz-adv-x="1047" 
d="M599 1216l144 304h57l-154 -304h-47zM887 1040h52q17 -113 17 -257q0 -384 -140 -591.5t-400 -207.5q-147 0 -228.5 75t-81.5 209q0 64 14 128l138 644h49l-135 -634q-17 -80 -17 -135q1 -114 69.5 -177.5t191.5 -63.5q236 0 363.5 196.5t127.5 561.5q0 139 -20 252z" />
    <glyph glyph-name="omegatonosgreek" unicode="&#x3ce;" horiz-adv-x="1448" 
d="M815 1216l144 304h57l-154 -304h-47zM1330 633q0 -286 -112.5 -467.5t-290.5 -181.5q-116 0 -186.5 68.5t-71.5 184.5h-4q-41 -117 -126.5 -185t-192.5 -68q-130 0 -200 92t-70 264q0 202 92 401t219 299h61q-136 -107 -229.5 -305.5t-93.5 -387.5q0 -151 60 -234
t168 -83q238 0 318 367l66 315h49l-66 -312q-13 -61 -13 -117q0 -122 58.5 -187.5t168.5 -65.5q150 0 248.5 170t98.5 430q0 139 -24 246.5t-61 163.5h59q34 -60 54.5 -170t20.5 -237z" />
    <glyph glyph-name="uni0400" unicode="&#x400;" horiz-adv-x="1058" 
d="M750 1554l-113 287h52l107 -287h-46zM865 47l-9 -47h-827l307 1443h827l-10 -47h-776l-135 -632h740l-10 -46h-740l-142 -671h775z" />
    <glyph glyph-name="Iocyrillic" unicode="&#x401;" horiz-adv-x="1058" 
d="M666 1654q-20 0 -34 13.5t-14 32.5q0 20 14 33.5t34 13.5q19 0 33 -13.5t14 -33.5q0 -19 -14 -32.5t-33 -13.5zM943 1654q-20 0 -34 13.5t-14 32.5q0 20 14 33.5t34 13.5t33.5 -13.5t13.5 -33.5q0 -19 -13.5 -32.5t-33.5 -13.5zM865 47l-9 -47h-827l307 1443h827l-10 -47
h-776l-135 -632h740l-10 -46h-740l-142 -671h775z" />
    <glyph glyph-name="Djecyrillic" unicode="&#x402;" horiz-adv-x="1599" 
d="M493 0l297 1397h-520l10 47h1091l-10 -47h-521l-148 -695h8q180 154 391 154q187 0 289.5 -101t102.5 -280q0 -210 -135.5 -347.5t-341.5 -137.5q-75 0 -103 10l9 47q27 -9 99 -9q178 0 299.5 125.5t121.5 308.5q0 162 -87.5 249.5t-255.5 87.5q-106 0 -218.5 -49
t-193.5 -127l-134 -633h-50z" />
    <glyph glyph-name="Gjecyrillic" unicode="&#x403;" horiz-adv-x="1030" 
d="M773 1554h-52l229 287h58zM75 0h-50l307 1443h816l-10 -47h-766z" />
    <glyph glyph-name="Ecyrillic" unicode="&#x404;" horiz-adv-x="1371" 
d="M1283 428q-62 -212 -226 -330.5t-394 -118.5q-251 0 -402.5 164t-145.5 432q2 185 62 349.5t160.5 283t240.5 187.5t296 69q205 0 351.5 -123.5t160.5 -310.5q2 -18 2 -39h-51q-1 182 -134.5 304t-330.5 122q-249 0 -440.5 -182t-247.5 -470h773l-10 -47h-772
q-32 -200 19 -358t174 -246t297 -88q207 0 355 105.5t210 296.5h53z" />
    <glyph glyph-name="Dzecyrillic" unicode="&#x405;" horiz-adv-x="1206" 
d="M63 401h50q9 -167 140.5 -270.5t336.5 -103.5q195 0 315 96.5t120 254.5q0 106 -67 178.5t-219 132.5l-129 51q-186 74 -266 157t-80 206q0 159 128.5 259.5t331.5 100.5q201 0 335 -110t146 -285h-50q-11 153 -131 250.5t-300 97.5q-181 0 -295 -87t-114 -225
q0 -107 72 -179.5t243 -139.5l134 -52q164 -64 238 -147.5t74 -206.5q0 -177 -134 -288t-353 -111q-228 0 -373.5 116.5t-152.5 304.5z" />
    <glyph glyph-name="Icyrillic" unicode="&#x406;" horiz-adv-x="331" 
d="M79 0h-50l307 1443h50z" />
    <glyph glyph-name="Yicyrillic" unicode="&#x407;" horiz-adv-x="331" 
d="M277 1654q-19 0 -33.5 13.5t-14.5 32.5q0 20 14.5 33.5t33.5 13.5q20 0 34 -13.5t14 -33.5q0 -19 -14 -32.5t-34 -13.5zM554 1654q-19 0 -33 13.5t-14 32.5q0 20 14 33.5t33 13.5q20 0 34 -13.5t14 -33.5q0 -19 -14 -32.5t-34 -13.5zM79 0h-50l307 1443h50z" />
    <glyph glyph-name="Jecyrillic" unicode="&#x408;" horiz-adv-x="956" 
d="M13 295q0 12 1 22h51q-1 -5 -1 -17q0 -122 84.5 -198.5t220.5 -76.5q138 0 233 87.5t129 243.5l231 1087h50l-236 -1108q-35 -168 -144.5 -262.5t-268.5 -94.5q-156 0 -253 88.5t-97 228.5z" />
    <glyph glyph-name="Ljecyrillic" unicode="&#x409;" horiz-adv-x="2071" 
d="M338 450q-63 -234 -151.5 -346.5t-212.5 -112.5q-30 0 -53 9l10 47q22 -9 52 -9q191 0 306 419l269 986h759l-128 -601h366q187 0 302 -97t115 -256q0 -217 -148.5 -353t-389.5 -136h-474l297 1396h-660zM1548 795h-368l-160 -748h413q217 0 353 121t136 315
q0 144 -101.5 228t-272.5 84z" />
    <glyph glyph-name="Njecyrillic" unicode="&#x40a;" horiz-adv-x="2071" 
d="M994 0l153 718h-924l-153 -718h-50l307 1443h50l-144 -678h924l144 678h50l-144 -678h359q182 0 294 -91t112 -239q0 -193 -146 -314t-381 -121h-451zM1054 47h390q213 0 345 106t132 276q0 133 -98 211t-263 78h-363z" />
    <glyph glyph-name="Tshecyrillic" unicode="&#x40b;" horiz-adv-x="1612" 
d="M1056 809q-78 0 -152.5 -19.5t-130 -51t-90.5 -56.5t-59 -49l-134 -633h-50l297 1396h-520l10 47h1091l-10 -47h-521l-148 -693h8q74 65 181.5 109t232.5 44q198 0 292.5 -127t47.5 -344l-82 -385h-50l82 387q43 201 -41.5 311.5t-253.5 110.5z" />
    <glyph glyph-name="Kjecyrillic" unicode="&#x40c;" horiz-adv-x="1127" 
d="M769 1554h-52l228 287h58zM236 759h6l927 684h76l-961 -709l721 -734h-67l-705 719h-5l-153 -719h-50l307 1443h50z" />
    <glyph glyph-name="uni040D" unicode="&#x40d;" horiz-adv-x="1338" 
d="M867 1554l-114 287h53l107 -287h-46zM1041 0l289 1354h-5l-1250 -1354h-50l307 1443h50l-288 -1350h5l1249 1350h50l-307 -1443h-50z" />
    <glyph glyph-name="Ushortcyrillic" unicode="&#x40e;" horiz-adv-x="1116" 
d="M771 1554q-118 0 -178.5 60.5t-38.5 166.5h46q-18 -87 29.5 -136.5t144.5 -49.5q94 0 164 49.5t88 136.5h46q-22 -108 -103.5 -167.5t-197.5 -59.5zM143 -9q-42 0 -67 9l10 47q22 -9 63 -9q89 0 162 65t201 256l-285 1084h52l268 -1026h5l670 1026h58l-704 -1075
q-149 -227 -235 -302t-198 -75z" />
    <glyph glyph-name="Dzhecyrillic" unicode="&#x40f;" horiz-adv-x="1308" 
d="M1062 0h-466l-61 -285h-47l61 285h-524l307 1443h50l-298 -1396h938l297 1396h50z" />
    <glyph glyph-name="Acyrillic" unicode="&#x410;" horiz-adv-x="1220" 
d="M1031 0l-85 502h-668l-300 -502h-59l861 1443h52l247 -1443h-48zM794 1375l-490 -828h635l-141 828h-4z" />
    <glyph glyph-name="Becyrillic" unicode="&#x411;" horiz-adv-x="1118" 
d="M499 0h-474l307 1443h803l-10 -47h-753l-123 -577h371q192 0 304.5 -96t112.5 -245q0 -210 -147.5 -344t-390.5 -134zM85 47h413q217 0 352.5 118t135.5 307q0 135 -98.5 217.5t-274.5 82.5h-374z" />
    <glyph glyph-name="Vecyrillic" unicode="&#x412;" horiz-adv-x="1179" 
d="M517 0h-492l307 1443h466q169 0 264 -87t95 -228q0 -144 -104.5 -254.5t-257.5 -130.5l-1 -4q130 -16 210 -97.5t80 -215.5q0 -194 -156.5 -310t-410.5 -116zM372 1397l-134 -632h450q112 0 208 47t153.5 129t57.5 180q0 127 -82 201.5t-235 74.5h-418zM85 46h437
q228 0 370 105.5t142 271.5q0 144 -101 220t-261 76h-444z" />
    <glyph glyph-name="Gecyrillic" unicode="&#x413;" horiz-adv-x="1030" 
d="M75 0h-50l307 1443h816l-10 -47h-766z" />
    <glyph glyph-name="Decyrillic" unicode="&#x414;" horiz-adv-x="1373" 
d="M-25 0l-61 -286h-49l71 333h93q151 67 244 407l270 989h817l-297 -1396h189l-71 -333h-49l61 286h-1218zM323 448q-81 -297 -207 -393l-2 -8h899l287 1349h-718z" />
    <glyph glyph-name="Iecyrillic" unicode="&#x415;" horiz-adv-x="1058" 
d="M865 47l-9 -47h-827l307 1443h827l-10 -47h-776l-135 -632h740l-10 -46h-740l-142 -671h775z" />
    <glyph glyph-name="Zhecyrillic" unicode="&#x416;" horiz-adv-x="1731" 
d="M886 723l-909 -723h-77l944 749l-563 694h62l550 -683h6l145 683h50l-145 -683h5l841 683h72l-871 -708l613 -735h-63l-600 723h-5l-154 -723h-50l154 723h-5z" />
    <glyph glyph-name="Zecyrillic" unicode="&#x417;" horiz-adv-x="1158" 
d="M414 726l9 47h200q196 0 321 95.5t125 243.5q0 146 -97.5 226.5t-264.5 80.5q-147 0 -261 -87t-163 -229h-52q51 167 181 264.5t299 97.5q186 0 297 -93.5t111 -255.5q0 -145 -106.5 -247.5t-276.5 -121.5l-1 -4q136 -22 219 -111t83 -222q0 -183 -143 -307t-371 -124
q-112 0 -204 34.5t-148.5 90t-88 121.5t-34.5 133h50q3 -63 33 -122t82.5 -106.5t134 -76t178.5 -28.5q202 0 331.5 109.5t129.5 272.5q0 147 -108 233t-287 86h-178z" />
    <glyph glyph-name="Iicyrillic" unicode="&#x418;" horiz-adv-x="1338" 
d="M1041 0l289 1354h-5l-1250 -1354h-50l307 1443h50l-288 -1350h5l1249 1350h50l-307 -1443h-50z" />
    <glyph glyph-name="Iishortcyrillic" unicode="&#x419;" horiz-adv-x="1338" 
d="M892 1554q-118 0 -178 60.5t-39 166.5h46q-18 -87 29.5 -136.5t145.5 -49.5q93 0 163 49.5t88 136.5h46q-22 -108 -103 -167.5t-198 -59.5zM1041 0l289 1354h-5l-1250 -1354h-50l307 1443h50l-288 -1350h5l1249 1350h50l-307 -1443h-50z" />
    <glyph glyph-name="Kacyrillic" unicode="&#x41a;" horiz-adv-x="1127" 
d="M236 759h6l927 684h76l-961 -709l721 -734h-67l-705 719h-5l-153 -719h-50l307 1443h50z" />
    <glyph glyph-name="Elcyrillic" unicode="&#x41b;" horiz-adv-x="1294" 
d="M1047 0h-50l297 1396h-697l-259 -946q-22 -79 -45 -142.5t-55.5 -124.5t-69.5 -102t-86.5 -65.5t-107.5 -24.5q-9 0 -17.5 1t-14.5 2.5t-10.5 2.5t-7.5 2l-3 1l10 47q9 -9 52 -9q192 0 306 419l269 986h796z" />
    <glyph glyph-name="Emcyrillic" unicode="&#x41c;" horiz-adv-x="1608" 
d="M78 0h-49l307 1443h51l315 -1381h4l898 1381h60l-307 -1443h-49l282 1329h-4l-865 -1328h-53l-303 1328h-4z" />
    <glyph glyph-name="Encyrillic" unicode="&#x41d;" horiz-adv-x="1329" 
d="M1077 0h-50l153 718h-948l-153 -718h-50l307 1443h50l-144 -678h948l144 678h50z" />
    <glyph glyph-name="Ocyrillic" unicode="&#x41e;" horiz-adv-x="1455" 
d="M687 -20q-254 0 -410 165.5t-156 438.5q0 184 56.5 347.5t153 280t232.5 184t289 67.5q254 0 410.5 -165.5t156.5 -438.5q0 -184 -56.5 -347.5t-153.5 -280t-232.5 -184t-289.5 -67.5zM849 1416q-188 0 -343.5 -109t-245 -298.5t-89.5 -418.5q0 -257 142.5 -410
t377.5 -153q188 0 343.5 109t245 298.5t89.5 418.5q0 257 -143 410t-377 153z" />
    <glyph glyph-name="Pecyrillic" unicode="&#x41f;" horiz-adv-x="1308" 
d="M1062 0h-50l297 1396h-937l-297 -1396h-50l307 1443h1037z" />
    <glyph glyph-name="Ercyrillic" unicode="&#x420;" horiz-adv-x="1158" 
d="M341 1443h413q194 0 307 -104.5t113 -271.5q0 -213 -160 -339.5t-419 -126.5h-385l-130 -601h-51zM381 1396l-161 -748h380q150 0 267.5 49t186.5 144.5t69 222.5q0 147 -99.5 239.5t-275.5 92.5h-367z" />
    <glyph glyph-name="Escyrillic" unicode="&#x421;" horiz-adv-x="1362" 
d="M1324 973v2q-2 194 -134.5 317.5t-350.5 123.5q-139 0 -263.5 -66t-213.5 -178.5t-141.5 -269.5t-52.5 -331q0 -244 141.5 -394t372.5 -150q190 0 332.5 96.5t203.5 268.5h54q-65 -193 -222.5 -302.5t-370.5 -109.5q-251 0 -406 161.5t-155 423.5q0 188 56 354.5t152 286
t230.5 188.5t286.5 69q237 0 383 -136.5t148 -351.5v-2h-50z" />
    <glyph glyph-name="Tecyrillic" unicode="&#x422;" horiz-adv-x="1162" 
d="M495 0h-50l297 1396h-520l9 47h1092l-10 -47h-521z" />
    <glyph glyph-name="Ucyrillic" unicode="&#x423;" horiz-adv-x="1116" 
d="M143 -9q-42 0 -67 9l10 47q22 -9 63 -9q89 0 162 65t201 256l-285 1084h52l268 -1026h5l670 1026h58l-704 -1075q-149 -227 -235 -302t-198 -75z" />
    <glyph glyph-name="Efcyrillic" unicode="&#x424;" horiz-adv-x="1508" 
d="M666 -11h-50l34 160q-264 1 -410 124t-146 347q0 147 59 272.5t164 214t254 138.5t323 50l33 159h50l-34 -159q264 -1 410 -124t146 -348q0 -147 -59 -272t-164 -213.5t-253.5 -138.5t-322.5 -50zM146 621q0 -204 135 -314.5t379 -111.5l224 1053q-213 0 -381.5 -80
t-262.5 -223t-94 -324zM1447 822q0 205 -135 315.5t-379 110.5l-224 -1053q213 0 381.5 80.5t262.5 223.5t94 323z" />
    <glyph glyph-name="Xacyrillic" unicode="&#x425;" horiz-adv-x="1175" 
d="M-80 0l681 726l-368 717h56l348 -680h1l636 680h66l-679 -725l369 -718h-57l-348 681h-1l-637 -681h-67z" />
    <glyph glyph-name="Tsecyrillic" unicode="&#x426;" horiz-adv-x="1371" 
d="M1177 -285h-49l61 285h-1169l308 1443h50l-297 -1396h927l297 1396h50l-297 -1396h189z" />
    <glyph glyph-name="Checyrillic" unicode="&#x427;" horiz-adv-x="1181" 
d="M934 0h-50l151 710h-3q-189 -122 -447 -122q-207 0 -312 128.5t-59 344.5l81 382h50l-81 -385q-42 -195 51 -309t274 -114q265 0 459 138l143 670h50z" />
    <glyph glyph-name="Shacyrillic" unicode="&#x428;" horiz-adv-x="1740" 
d="M25 0l307 1443h50l-297 -1396h659l297 1396h50l-297 -1396h659l298 1396h50l-307 -1443h-1469z" />
    <glyph glyph-name="Shchacyrillic" unicode="&#x429;" horiz-adv-x="1826" 
d="M25 0l307 1443h50l-297 -1396h659l297 1396h50l-297 -1396h659l298 1396h50l-297 -1396h192l-82 -332h-49l69 285h-1609z" />
    <glyph glyph-name="Hardsigncyrillic" unicode="&#x42a;" horiz-adv-x="1461" 
d="M783 0h-474l297 1396h-358l10 47h408l-128 -603h365q193 0 305.5 -99t112.5 -253q0 -216 -148 -352t-390 -136zM897 794h-369l-159 -747h413q217 0 352.5 121t135.5 316q0 139 -98.5 224.5t-274.5 85.5z" />
    <glyph glyph-name="Yericyrillic" unicode="&#x42b;" horiz-adv-x="1427" 
d="M25 0l307 1443h50l-128 -603h365q188 0 303 -96.5t115 -255.5q0 -219 -149 -353.5t-389 -134.5h-474zM1185 0h-50l307 1443h50zM613 794h-369l-159 -747h413q217 0 352.5 121t135.5 316q0 142 -101 226t-272 84z" />
    <glyph glyph-name="Softsigncyrillic" unicode="&#x42c;" horiz-adv-x="1135" 
d="M25 0l307 1443h50l-128 -603h365q188 0 303 -96.5t115 -255.5q0 -219 -149 -353.5t-389 -134.5h-474zM613 794h-369l-159 -747h413q217 0 352.5 121t135.5 316q0 142 -101 226t-272 84z" />
    <glyph glyph-name="Ereversedcyrillic" unicode="&#x42d;" horiz-adv-x="1373" 
d="M583 -20q-211 0 -356.5 127t-156.5 321h51q9 -173 140.5 -287t322.5 -114q259 0 453.5 194t240.5 497h-759l9 47h757q24 188 -30.5 336.5t-176 231.5t-288.5 83q-209 0 -357.5 -110.5t-215.5 -314.5h-52q66 223 232 347.5t396 124.5q250 0 400.5 -164t145.5 -431
q-2 -185 -61.5 -350t-160 -283t-239.5 -186.5t-295 -68.5z" />
    <glyph glyph-name="IUcyrillic" unicode="&#x42e;" horiz-adv-x="1842" 
d="M1071 -20q-248 0 -395 163t-147 427q0 68 10 148h-311l-153 -718h-50l307 1443h50l-144 -678h308q27 148 91.5 276.5t157 221.5t214.5 146.5t258 53.5q248 0 395.5 -164t147.5 -428q0 -188 -58.5 -354t-157.5 -283.5t-235.5 -185.5t-287.5 -68zM1760 869
q0 248 -134.5 397.5t-360.5 149.5q-191 0 -349 -114t-247 -307t-89 -421q0 -248 134 -397.5t359 -149.5q140 0 266.5 64t219 175t147 268t54.5 335z" />
    <glyph glyph-name="IAcyrillic" unicode="&#x42f;" horiz-adv-x="1208" 
d="M633 627l-555 -627h-64l559 634q-148 24 -232 116.5t-84 222.5q0 206 148 338t390 132h474l-307 -1443h-50l132 625h-369q-16 0 -42 2zM680 672h375l154 724h-413q-217 0 -353 -116t-136 -301q0 -138 98.5 -222.5t274.5 -84.5z" />
    <glyph glyph-name="acyrillic" unicode="&#x430;" horiz-adv-x="985" 
d="M356 -15q-143 0 -233 74t-90 192q0 143 112.5 227t319.5 96l371 22l20 93q11 50 11 85q0 110 -77 173t-212 63q-144 0 -242.5 -70t-124.5 -191h-51q29 140 143 223.5t278 83.5q152 0 243.5 -76t91.5 -202q0 -43 -10 -90l-146 -688h-49l43 204l-4 1q-56 -100 -163.5 -160
t-230.5 -60zM362 30q152 0 272.5 94t151.5 237l42 191l-362 -21q-184 -10 -284 -82t-100 -194q0 -100 77.5 -162.5t202.5 -62.5z" />
    <glyph glyph-name="becyrillic" unicode="&#x431;" horiz-adv-x="1084" 
d="M605 1042q189 0 301.5 -117.5t112.5 -312.5q0 -176 -68.5 -319.5t-191 -226t-274.5 -82.5q-189 0 -302.5 119t-113.5 319q0 57 10 123t19 104t28 110q35 130 72.5 225t92.5 177.5t124.5 133.5t165.5 79.5t218 29.5q101 0 184 8q94 10 150 29l-10 -44q-56 -20 -145 -29
q-85 -10 -188 -10q-129 0 -225.5 -34.5t-166.5 -106.5t-118.5 -169t-90.5 -237h5q66 112 175.5 171.5t235.5 59.5zM488 30q135 0 246 77t173.5 209.5t62.5 291.5q0 179 -100.5 283.5t-269.5 104.5q-137 0 -248 -78t-172 -210t-61 -290q0 -179 100 -283.5t269 -104.5z" />
    <glyph glyph-name="vecyrillic" unicode="&#x432;" horiz-adv-x="930" 
d="M8 0l221 1040h368q126 0 197.5 -61t71.5 -160q0 -112 -73.5 -185t-185.5 -94l-1 -5q92 -7 151.5 -58.5t59.5 -141.5q0 -155 -120.5 -245t-310.5 -90h-378zM587 995h-319l-93 -438h315q142 0 233 72t91 187q0 87 -59 133t-168 46zM483 513h-316l-101 -469h329
q169 0 271.5 80t102.5 210q0 179 -286 179z" />
    <glyph glyph-name="gecyrillic" unicode="&#x433;" horiz-adv-x="816" 
d="M867 995h-597l-213 -995h-49l222 1040h646z" />
    <glyph glyph-name="decyrillic" unicode="&#x434;" horiz-adv-x="1187" 
d="M-62 -275h-49l69 320h80q115 67 213 390q92 301 172 605h656l-212 -995h173l-68 -320h-49l59 275h-985zM817 45l203 950h-561q-96 -357 -162 -566q-45 -144 -87.5 -236t-101.5 -143l-1 -5h710z" />
    <glyph glyph-name="iecyrillic" unicode="&#x435;" horiz-adv-x="1037" 
d="M467 -16q-185 0 -294 114.5t-109 306.5q0 184 69.5 333t192.5 233.5t275 84.5q176 0 278.5 -108.5t102.5 -293.5q0 -74 -17 -137h-841q-10 -75 -10 -107q0 -175 96.5 -277.5t260.5 -102.5q142 0 244.5 68t147.5 192h52q-47 -143 -166 -224.5t-282 -81.5zM132 562h793
q8 37 8 91q0 163 -90 260t-245 97q-175 0 -304.5 -125t-161.5 -323z" />
    <glyph glyph-name="zhecyrillic" unicode="&#x436;" horiz-adv-x="1327" 
d="M-93 0l688 546l-426 494h63l411 -480h3l103 480h50l-103 -482h3l611 482h75l-645 -505l458 -535h-63l-443 519h-4l-110 -519h-50l111 520h-4l-652 -520h-76z" />
    <glyph glyph-name="zecyrillic" unicode="&#x437;" horiz-adv-x="930" 
d="M791 311q0 -150 -118 -239.5t-290 -89.5q-169 0 -260 79t-101 207h49q10 -105 89.5 -173t223.5 -68q151 0 254 79t104 201q0 206 -286 206h-170l10 44h170q148 0 242.5 69.5t94.5 176.5q0 102 -69.5 153.5t-201.5 51.5q-124 0 -218 -69t-134 -184h-49q46 134 150.5 216.5
t258.5 82.5q150 0 231.5 -65t81.5 -180q0 -110 -78 -182.5t-189 -88.5l-1 -3q90 -11 148 -68t58 -156z" />
    <glyph glyph-name="iicyrillic" unicode="&#x438;" horiz-adv-x="1038" 
d="M59 0h-51l222 1040h49l-203 -952h6l896 952h51l-221 -1040h-50l203 951h-4z" />
    <glyph glyph-name="iishortcyrillic" unicode="&#x439;" horiz-adv-x="1038" 
d="M705 1240q-127 0 -191.5 68.5t-51.5 167.5h46q-11 -85 41 -139t160 -54q92 0 152 53t66 140h46q-6 -105 -80.5 -170.5t-187.5 -65.5zM59 0h-51l222 1040h49l-203 -952h6l896 952h51l-221 -1040h-50l203 951h-4z" />
    <glyph glyph-name="elcyrillic" unicode="&#x43b;" horiz-adv-x="1049" 
d="M282 429q-25 -81 -45.5 -138.5t-49.5 -118t-59.5 -97.5t-71.5 -60.5t-88 -23.5q-9 0 -17.5 1t-14 2.5t-10.5 2.5t-8 2l-2 1l10 47q9 -9 50 -9q43 0 80.5 29t69 86.5t56.5 123t53 157.5q65 212 170 606h634l-221 -1040h-50l212 995h-539q-125 -457 -159 -566z" />
    <glyph glyph-name="emcyrillic" unicode="&#x43c;" horiz-adv-x="1303" 
d="M57 0h-49l222 1040h53l271 -977h4l676 977h60l-221 -1040h-49l200 942h-3l-652 -940h-44l-263 940h-4z" />
    <glyph glyph-name="encyrillic" unicode="&#x43d;" horiz-adv-x="1028" 
d="M8 0l222 1040h49l-103 -479h691l102 479h50l-222 -1040h-49l109 516h-690l-110 -516h-49z" />
    <glyph glyph-name="ocyrillic" unicode="&#x43e;" horiz-adv-x="1095" 
d="M605 1056q190 0 304 -119.5t114 -316.5q0 -180 -69.5 -325.5t-191.5 -228t-273 -82.5q-190 0 -304 119.5t-114 316.5q0 180 69.5 325.5t191.5 228t273 82.5zM489 30q135 0 246.5 77t175 212t63.5 299q0 177 -101 284.5t-268 107.5q-135 0 -246.5 -77t-175 -212
t-63.5 -299q0 -177 101 -284.5t268 -107.5z" />
    <glyph glyph-name="pecyrillic" unicode="&#x43f;" horiz-adv-x="1018" 
d="M738 0l212 995h-680l-213 -995h-49l222 1040h779l-221 -1040h-50z" />
    <glyph glyph-name="ercyrillic" unicode="&#x440;" horiz-adv-x="1105" 
d="M-10 -339h-50l294 1379h48l-54 -254h6q67 126 179.5 197.5t241.5 71.5q173 0 277.5 -120t104.5 -320q0 -175 -69 -320t-190 -227.5t-267 -82.5q-153 0 -258.5 95t-118.5 244h-3zM513 30q130 0 239.5 77.5t172.5 212t63 295.5q0 183 -91.5 289t-250.5 106q-129 0 -240 -82
t-176.5 -221t-65.5 -299q0 -170 96 -274t253 -104z" />
    <glyph glyph-name="escyrillic" unicode="&#x441;" horiz-adv-x="1020" 
d="M597 1056q159 0 265 -91t122 -239v-1h-49q-16 128 -108.5 206.5t-229.5 78.5q-132 0 -241.5 -77.5t-172.5 -212.5t-63 -298q0 -176 99.5 -284t261.5 -108q127 0 227.5 65t147.5 175h51q-53 -134 -166 -210t-260 -76q-185 0 -297.5 120.5t-112.5 315.5q0 178 68.5 324
t189 229t268.5 83z" />
    <glyph glyph-name="tecyrillic" unicode="&#x442;" horiz-adv-x="912" 
d="M975 1040l-10 -45h-388l-213 -995h-49l212 995h-389l9 45h828z" />
    <glyph glyph-name="ucyrillic" unicode="&#x443;" horiz-adv-x="896" 
d="M11 -349q-32 0 -55 6l8 44q28 -5 50 -5q69 0 123.5 44t116.5 149l55 94l-179 1057h50l166 -991h4l580 991h56l-689 -1173q-73 -123 -136 -169.5t-150 -46.5z" />
    <glyph glyph-name="efcyrillic" unicode="&#x444;" horiz-adv-x="1341" 
d="M504 -379h-50l78 360q-217 7 -341.5 126.5t-124.5 320.5q0 127 49.5 239.5t138.5 197t219.5 135t285.5 54.5l78 368h50l-79 -369q217 -7 341.5 -127t124.5 -320q0 -126 -50 -239t-138.5 -197t-219.5 -134.5t-285 -54.5zM118 433q0 -186 112.5 -293t310.5 -114l208 982
q-140 -4 -259 -52t-200 -126t-126.5 -180.5t-45.5 -216.5zM1222 601q0 186 -112.5 293t-311.5 114l-207 -982q140 4 259 52t200 126t126.5 181t45.5 216z" />
    <glyph glyph-name="hacyrillic" unicode="&#x445;" horiz-adv-x="880" 
d="M435 476h-4l-453 -476h-66l497 523l-278 517h56l256 -479h4l456 479h65l-500 -525l278 -515h-56z" />
    <glyph glyph-name="tsecyrillic" unicode="&#x446;" horiz-adv-x="1117" 
d="M902 -275h-48l59 275h-905l222 1040h49l-212 -995h681l211 995h50l-212 -995h174z" />
    <glyph glyph-name="checyrillic" unicode="&#x447;" horiz-adv-x="952" 
d="M722 0h-49l104 491h-9q-55 -41 -140.5 -67t-185.5 -26q-169 0 -248 103t-43 271l57 268h49l-56 -265q-33 -152 31 -242t216 -90q105 0 195 31.5t148 85.5l103 480h49z" />
    <glyph glyph-name="shacyrillic" unicode="&#x448;" horiz-adv-x="1498" 
d="M8 0l222 1040h49l-212 -995h556l212 995h50l-213 -995h556l212 995h49l-221 -1040h-1260z" />
    <glyph glyph-name="shchacyrillic" unicode="&#x449;" horiz-adv-x="1591" 
d="M8 0l222 1040h49l-212 -995h556l212 995h50l-213 -995h556l212 995h49l-211 -995h190l-82 -330h-49l69 285h-1398z" />
    <glyph glyph-name="hardsigncyrillic" unicode="&#x44a;" horiz-adv-x="1060" 
d="M514 0h-319l212 995h-279l8 45h331l-84 -394h269q147 0 225.5 -68t78.5 -194q0 -159 -120.5 -271.5t-321.5 -112.5zM641 601h-268l-119 -556h267q88 0 162 28t122 75t74.5 107t26.5 125q0 221 -265 221z" />
    <glyph glyph-name="yericyrillic" unicode="&#x44b;" horiz-adv-x="1134" 
d="M854 0l221 1040h50l-221 -1040h-50zM8 0l222 1040h49l-84 -394h269q147 0 226 -68t79 -194q0 -162 -120.5 -273t-322.5 -111h-318zM454 601h-268l-119 -556h266q175 0 280.5 99t105.5 236q0 221 -265 221z" />
    <glyph glyph-name="softsigncyrillic" unicode="&#x44c;" horiz-adv-x="873" 
d="M8 0l222 1040h49l-84 -394h269q147 0 226 -68t79 -194q0 -162 -120.5 -273t-322.5 -111h-318zM454 601h-268l-119 -556h266q175 0 280.5 99t105.5 236q0 221 -265 221z" />
    <glyph glyph-name="ereversedcyrillic" unicode="&#x44d;" horiz-adv-x="1014" 
d="M116 753q45 138 161 220t271 82q181 0 290 -112t109 -299q0 -185 -70.5 -336.5t-196 -239t-279.5 -87.5q-151 0 -255 79t-123 206h50q20 -109 110 -174.5t222 -65.5q181 0 315 138.5t167 351.5h-567l10 45h563q4 33 4 76q0 170 -95.5 271t-258.5 101q-130 0 -231 -70
t-146 -186h-50z" />
    <glyph glyph-name="iucyrillic" unicode="&#x44e;" horiz-adv-x="1424" 
d="M832 -16q-185 0 -296 118t-111 315q0 53 6 99h-264l-109 -516h-50l222 1040h50l-103 -479h260q40 218 179 356.5t333 138.5q184 0 296 -118.5t112 -314.5q0 -178 -67.5 -324t-188 -230.5t-269.5 -84.5zM834 30q134 0 242.5 78.5t169.5 214t61 299.5q0 178 -97.5 283
t-262.5 105q-134 0 -243 -80t-169 -215.5t-60 -296.5q0 -180 97.5 -284t261.5 -104z" />
    <glyph glyph-name="iacyrillic" unicode="&#x44f;" horiz-adv-x="951" 
d="M671 0l92 432h-285l-406 -432h-65l414 437q-121 14 -184.5 80.5t-63.5 178.5q0 154 117 249t324 95h328l-222 -1040h-49zM500 478h273l110 517h-276q-180 0 -281.5 -83t-101.5 -212q0 -112 67 -167t209 -55z" />
    <glyph glyph-name="uni0450" unicode="&#x450;" horiz-adv-x="1037" 
d="M655 1216l-119 304h52l113 -304h-46zM467 -16q-185 0 -294 114.5t-109 306.5q0 184 69.5 333t192.5 233.5t275 84.5q176 0 278.5 -108.5t102.5 -293.5q0 -74 -17 -137h-841q-10 -75 -10 -107q0 -175 96.5 -277.5t260.5 -102.5q142 0 244.5 68t147.5 192h52
q-47 -143 -166 -224.5t-282 -81.5zM132 562h793q8 37 8 91q0 163 -90 260t-245 97q-175 0 -304.5 -125t-161.5 -323z" />
    <glyph glyph-name="iocyrillic" unicode="&#x451;" horiz-adv-x="1037" 
d="M569 1317q-20 0 -34 13.5t-14 33.5q0 19 14 32.5t34 13.5t33.5 -13.5t13.5 -32.5q0 -20 -13.5 -33.5t-33.5 -13.5zM846 1317q-19 0 -33 13.5t-14 33.5q0 19 14 32.5t33 13.5q20 0 34 -13.5t14 -32.5q0 -20 -14 -33.5t-34 -13.5zM467 -16q-185 0 -294 114.5t-109 306.5
q0 184 69.5 333t192.5 233.5t275 84.5q176 0 278.5 -108.5t102.5 -293.5q0 -74 -17 -137h-841q-10 -75 -10 -107q0 -175 96.5 -277.5t260.5 -102.5q142 0 244.5 68t147.5 192h52q-47 -143 -166 -224.5t-282 -81.5zM132 562h793q8 37 8 91q0 163 -90 260t-245 97
q-175 0 -304.5 -125t-161.5 -323z" />
    <glyph glyph-name="djecyrillic" unicode="&#x452;" horiz-adv-x="1060" 
d="M13 0l271 1262h-126l9 44h126l30 137h49l-29 -137h357l-9 -44h-358l-94 -439h4q62 107 161.5 169.5t226.5 62.5q155 0 251 -89t96 -229q0 -55 -8 -97l-139 -640l-25 -115q-27 -131 -92.5 -188.5t-177.5 -57.5q-28 0 -48 5l11 46q17 -5 39 -5q178 0 220 202l23 113h1
l135 629q11 60 11 98q0 128 -83.5 205.5t-223.5 77.5q-155 0 -271 -106t-148 -259l-140 -645h-49z" />
    <glyph glyph-name="gjecyrillic" unicode="&#x453;" horiz-adv-x="816" 
d="M604 1216h-51l241 304h59zM867 995h-597l-213 -995h-49l222 1040h646z" />
    </font>
</defs>
</svg>
