<?xml version="1.0" standalone="no"?>
<!DOCTYPE svg PUBLIC "-//W3C//DTD SVG 1.1//EN" "http://www.w3.org/Graphics/SVG/1.1/DTD/svg11.dtd" >
<svg xmlns="http://www.w3.org/2000/svg" xmlns:xlink="http://www.w3.org/1999/xlink" version="1.1">
<metadata>
Created by FontForge 20170731 at Sat Sep  7 01:27:34 2019
 By Aleksey,,,
(c) 2015-2019 Apple Inc. All rights reserved.
</metadata>
<defs>
<font id="SFProDisplay-RegularItalic" horiz-adv-x="0" >
  <font-face 
    font-family="SF Pro Display"
    font-weight="400"
    font-style="italic"
    font-stretch="normal"
    units-per-em="2048"
    panose-1="0 0 0 0 0 0 0 0 0 0"
    ascent="1638"
    descent="-410"
    x-height="1040"
    cap-height="1443"
    bbox="-514 -494 2756 2206"
    underline-thickness="120"
    underline-position="-550"
    slope="-12"
    unicode-range="U+0020-1F16B"
  />
<missing-glyph horiz-adv-x="2048" 
d="M343 1666l60 284h1848l-61 -284h-1847zM251 1234l61 284h1847l-60 -284h-1848zM159 802l61 284h1847l-60 -284h-1848zM68 370l60 284h1847l-60 -284h-1847zM-24 -62l60 284h1847l-60 -284h-1847zM-116 -494l60 284h1848l-61 -284h-1847z" />
    <glyph glyph-name=".notdef" horiz-adv-x="2048" 
d="M343 1666l60 284h1848l-61 -284h-1847zM251 1234l61 284h1847l-60 -284h-1848zM159 802l61 284h1847l-60 -284h-1848zM68 370l60 284h1847l-60 -284h-1847zM-24 -62l60 284h1847l-60 -284h-1847zM-116 -494l60 284h1848l-61 -284h-1847z" />
    <glyph glyph-name=".null" 
 />
    <glyph glyph-name="nonmarkingreturn" unicode="&#x2029;" 
 />
    <glyph glyph-name="nonmarkingreturn" unicode="&#x2028;" 
 />
    <glyph glyph-name="space" unicode=" " horiz-adv-x="492" 
 />
    <glyph glyph-name="exclam" unicode="!" horiz-adv-x="550" 
d="M368 1443h200l-222 -963h-166zM186 -10q-48 0 -81 33t-33 81t33 81t81 33t81 -33t33 -81t-33 -81t-81 -33z" />
    <glyph glyph-name="quotedbl" unicode="&#x22;" horiz-adv-x="821" 
d="M408 934h-160l108 509h160zM748 934h-160l108 509h160z" />
    <glyph glyph-name="numbersign" unicode="#" horiz-adv-x="1231" 
d="M576 0l133 403h-328l-133 -403h-142l132 403h-234l45 144h237l119 364h-247l47 143h247l130 389h142l-127 -389h326l130 389h143l-129 -389h249l-46 -143h-251l-121 -364h261l-45 -144h-262l-133 -403h-143zM426 544h330l121 369h-330z" />
    <glyph glyph-name="dollar" unicode="$" horiz-adv-x="1238" 
d="M425 -145l40 186q-163 35 -266 141t-108 262h168q11 -94 73.5 -161t163.5 -92l102 479l-6 2q-169 53 -250 137.5t-81 218.5q0 172 129 280.5t335 108.5q21 0 32 -1l36 172h120l-40 -187q148 -35 235.5 -134.5t87.5 -242.5h-167q-4 81 -53 141t-135 85l-95 -450l12 -4
q336 -104 336 -353q0 -81 -31.5 -154.5t-90 -132.5t-152 -94.5t-209.5 -35.5q-20 0 -30 1l-36 -172h-120zM434 1041q0 -71 47.5 -119.5t151.5 -85.5l92 430h-2q-137 0 -213 -66.5t-76 -158.5zM918 407q0 84 -49 137t-158 91l-98 -458q134 0 219.5 61.5t85.5 168.5z" />
    <glyph glyph-name="percent" unicode="%" horiz-adv-x="1702" 
d="M481 781q-125 0 -201.5 83.5t-76.5 217.5q0 154 98.5 264t247.5 110q127 0 202 -82.5t75 -214.5q0 -156 -99 -267t-246 -111zM361 0h-174l1246 1443h168zM489 900q85 0 146 76.5t61 177.5q0 82 -44.5 132.5t-112.5 50.5q-86 0 -146 -76t-60 -177q0 -84 44.5 -134
t111.5 -50zM1274 -12q-125 0 -201.5 83.5t-76.5 217.5q0 154 98.5 264t247.5 110q127 0 202 -82.5t75 -214.5q0 -156 -99 -267t-246 -111zM1282 107q85 0 146 76.5t61 177.5q0 82 -44.5 132.5t-112.5 50.5q-86 0 -146 -76t-60 -177q0 -84 44.5 -134t111.5 -50z" />
    <glyph glyph-name="ampersand" unicode="&#x26;" horiz-adv-x="1371" 
d="M1001 0l-62 96q-178 -123 -433 -123q-133 0 -245 52.5t-177.5 145.5t-65.5 205q0 287 375 433l62 24q-116 170 -116 288q0 148 115.5 252t284.5 104q151 0 249.5 -82t98.5 -207q0 -130 -98 -239.5t-297 -176.5l291 -427q120 136 137 363l4 54h168l-5 -61
q-24 -293 -212 -493l139 -208h-213zM511 1116q0 -89 104 -231q152 46 226.5 124.5t74.5 164.5q0 73 -51.5 116t-132.5 43q-91 0 -156 -63.5t-65 -153.5zM514 124q203 0 341 101l-322 487l-57 -21q-135 -50 -206.5 -128.5t-71.5 -174.5q0 -115 86 -189.5t230 -74.5z" />
    <glyph glyph-name="quotesingle" unicode="'" horiz-adv-x="480" 
d="M408 934h-160l108 509h160z" />
    <glyph glyph-name="parenleft" unicode="(" horiz-adv-x="660" 
d="M424 -308h-154q-49 106 -80.5 294t-31.5 367q0 317 121 603.5t325 486.5h192q-224 -224 -343.5 -508.5t-119.5 -594.5q0 -370 91 -648z" />
    <glyph glyph-name="parenright" unicode=")" horiz-adv-x="660" 
d="M255 1443h154q49 -106 80.5 -294t31.5 -367q0 -317 -121 -603.5t-325 -486.5h-192q224 224 343.5 508.5t119.5 594.5q0 370 -91 648z" />
    <glyph glyph-name="asterisk" unicode="*" horiz-adv-x="820" 
d="M764 857l-189 150l-51 -244h-127l59 249l-243 -112l-36 107l248 110l-191 145l67 91l191 -148l51 238h126l-59 -248l242 111l38 -104l-250 -108l194 -145z" />
    <glyph glyph-name="plus" unicode="+" horiz-adv-x="1238" 
d="M693 488l-90 -422h-162l90 422h-402l34 162h402l90 422h162l-90 -422h402l-34 -162h-402z" />
    <glyph glyph-name="comma" unicode="," horiz-adv-x="522" 
d="M86 -287h-145l205 509h185z" />
    <glyph glyph-name="hyphen" unicode="&#x2011;" horiz-adv-x="830" 
d="M82 486l33 152h650l-33 -152h-650z" />
    <glyph glyph-name="hyphen" unicode="-" horiz-adv-x="830" 
d="M82 486l33 152h650l-33 -152h-650z" />
    <glyph glyph-name="period" unicode="." horiz-adv-x="522" 
d="M172 -10q-48 0 -81 33t-33 81t33 81t81 33t81 -33t33 -81t-33 -81t-81 -33z" />
    <glyph glyph-name="slash" unicode="/" horiz-adv-x="660" 
d="M-26 -308h-150l882 1751h150z" />
    <glyph glyph-name="zero" unicode="0" horiz-adv-x="1285" 
d="M601 -24q-217 0 -345.5 140.5t-128.5 379.5q0 281 82 502.5t228.5 345t332.5 123.5q217 0 345 -142t128 -382q0 -282 -81 -502.5t-227.5 -342.5t-333.5 -122zM313 499q0 -168 80 -266.5t216 -98.5q125 0 227.5 105.5t161 291t58.5 411.5q0 167 -79.5 266.5t-212.5 99.5
q-125 0 -228.5 -107t-163 -292.5t-59.5 -409.5z" />
    <glyph glyph-name="one" unicode="1" horiz-adv-x="913" 
d="M372 0l262 1232h-4l-437 -274l44 209l443 276h179l-307 -1443h-180z" />
    <glyph glyph-name="two" unicode="2" horiz-adv-x="1192" 
d="M228 1046q21 189 158 305t339 116q185 0 307.5 -104t122.5 -262q0 -96 -37.5 -176t-123 -170t-253.5 -229l-435 -360l-1 -4h720l-34 -162h-970l29 144l597 501q191 160 258 250t67 186q0 101 -71.5 165t-185.5 64q-121 0 -204 -71t-105 -193h-178z" />
    <glyph glyph-name="three" unicode="3" horiz-adv-x="1220" 
d="M443 669l32 150h183q150 0 244.5 68.5t94.5 181.5q0 109 -76 174.5t-206 65.5q-115 0 -199.5 -61.5t-104.5 -161.5h-174q34 175 168 277.5t330 102.5q197 0 320.5 -110t123.5 -268q0 -134 -93 -228.5t-235 -114.5l-1 -4q117 -28 182.5 -112.5t65.5 -203.5
q0 -132 -70 -235t-189 -158t-266 -55q-236 0 -373 124.5t-129 308.5h174q5 -131 94 -203.5t244 -72.5q146 0 238 78.5t92 211.5q0 114 -76.5 179.5t-214.5 65.5h-179z" />
    <glyph glyph-name="four" unicode="4" horiz-adv-x="1233" 
d="M691 0l64 299h-718l27 171q198 259 829 973h281l-209 -983h205l-34 -161h-205l-64 -299h-176zM254 463l-1 -4h536l177 829h-4q-464 -517 -708 -825z" />
    <glyph glyph-name="five" unicode="5" horiz-adv-x="1192" 
d="M597 -24q-218 0 -358.5 121t-142.5 311h177q11 -120 102.5 -195t227.5 -75q149 0 243 98t94 252q0 136 -82 220.5t-213 84.5q-89 0 -169.5 -33.5t-126.5 -99.5h-188l244 783h810l-35 -161h-657l-140 -450h5q48 53 128.5 83t172.5 30q190 0 311.5 -121t121.5 -332
q0 -222 -148.5 -369t-376.5 -147z" />
    <glyph glyph-name="six" unicode="6" horiz-adv-x="1232" 
d="M1166 524q0 -83 -22.5 -162.5t-68 -149.5t-109.5 -122.5t-153.5 -83t-192.5 -30.5t-189 36t-150.5 106t-100.5 181.5t-36 253.5q0 149 31.5 287t91.5 251.5t141.5 198t187 131t222.5 46.5q187 0 312 -111.5t139 -291.5h-184q-17 112 -93.5 177t-191.5 65
q-161 0 -286 -149t-174 -399l6 -1q62 88 162 140.5t221 52.5q192 0 314.5 -119t122.5 -307zM685 794q-154 0 -256 -95.5t-102 -248.5q0 -136 87.5 -225t221.5 -89q152 0 248 99.5t96 252.5q0 135 -82.5 220.5t-212.5 85.5z" />
    <glyph glyph-name="seven" unicode="7" horiz-adv-x="1081" 
d="M36 0l922 1276l1 6h-731l35 161h925l-36 -167l-913 -1276h-203z" />
    <glyph glyph-name="eight" unicode="8" horiz-adv-x="1243" 
d="M1125 421q0 -192 -157.5 -319.5t-394.5 -127.5q-224 0 -368 108t-144 277q0 153 111.5 272t280.5 146l1 4q-88 40 -137 112.5t-49 162.5q0 113 65.5 207t179.5 148t252 54q197 0 323.5 -97.5t126.5 -249.5q0 -133 -89.5 -236.5t-233.5 -137.5l-1 -4q109 -38 171.5 -123.5
t62.5 -195.5zM446 1046q0 -96 76.5 -157t195.5 -61q133 0 222.5 76.5t89.5 189.5q0 96 -76.5 156t-200.5 60q-131 0 -219 -75.5t-88 -188.5zM616 674q-157 0 -261.5 -84t-104.5 -210q0 -110 92.5 -179t240.5 -69q154 0 256.5 84t102.5 211q0 109 -91 178t-235 69z" />
    <glyph glyph-name="nine" unicode="9" horiz-adv-x="1231" 
d="M208 926q0 233 151.5 387t391.5 154q221 0 347.5 -146t126.5 -398q0 -259 -83 -474.5t-236 -344t-344 -128.5q-197 0 -325 111t-140 292h184q16 -112 92.5 -176.5t190.5 -64.5q178 0 298 149t164 398l-5 1q-58 -95 -155.5 -143.5t-213.5 -48.5q-191 0 -317.5 122.5
t-126.5 309.5zM685 650q152 0 252.5 98t100.5 254q0 138 -84.5 221.5t-222.5 83.5q-144 0 -240 -98t-100 -251q-4 -135 78.5 -221.5t215.5 -86.5z" />
    <glyph glyph-name="colon" unicode=":" horiz-adv-x="522" 
d="M343 796q-48 0 -81 33t-33 81t33 81t81 33t81 -33t33 -81t-33 -81t-81 -33zM172 -10q-48 0 -81 33t-33 81t33 81t81 33t81 -33t33 -81t-33 -81t-81 -33z" />
    <glyph glyph-name="semicolon" unicode=";" horiz-adv-x="522" 
d="M343 796q-48 0 -81 33t-33 81t33 81t81 33t81 -33t33 -81t-33 -81t-81 -33zM86 -287h-145l205 509h185z" />
    <glyph glyph-name="less" unicode="&#x3c;" horiz-adv-x="1238" 
d="M1039 226l-36 -170l-873 436l33 157l1058 433l-40 -192l-828 -322l-2 -9z" />
    <glyph glyph-name="equal" unicode="=" horiz-adv-x="1238" 
d="M1122 709h-926l32 154h926zM1030 276h-926l32 154h926z" />
    <glyph glyph-name="greater" unicode="&#x3e;" horiz-adv-x="1238" 
d="M220 912l36 170l873 -436l-33 -157l-1058 -433l40 192l828 322l2 9z" />
    <glyph glyph-name="question" unicode="?" horiz-adv-x="964" 
d="M153 1089q34 169 153.5 268t309.5 99q183 0 298.5 -96t115.5 -234q0 -128 -80.5 -234t-209.5 -164q-108 -48 -154 -95.5t-60 -126.5l-11 -60h-179l18 82q27 122 86.5 187t181.5 120q112 52 164.5 118.5t52.5 153.5q0 80 -62.5 136t-172.5 56q-102 0 -175 -55.5
t-102 -154.5h-174zM363 -10q-48 0 -81 33t-33 81t33 81t81 33t81 -33t33 -81t-33 -81t-81 -33z" />
    <glyph glyph-name="at" unicode="@" horiz-adv-x="1794" 
d="M995 1438q222 0 397 -82.5t272.5 -231.5t97.5 -338q0 -176 -58.5 -315t-164.5 -216t-241 -77q-82 0 -140 38.5t-66 98.5l-16 1q-37 -64 -106.5 -101t-152.5 -37q-139 0 -225.5 97t-86.5 252q0 211 117 351t293 140q88 0 158 -47t86 -116h16l26 124h157l-118 -539
q-4 -20 -4 -41q0 -40 25 -62.5t69 -22.5q125 0 210 134.5t85 330.5q0 241 -177 387t-468 146q-158 0 -298.5 -60t-240.5 -162.5t-158.5 -246t-58.5 -305.5q0 -289 190 -471.5t492 -182.5q69 0 138.5 8.5t96.5 20.5l-27 -130q-100 -25 -225 -25q-232 0 -416 99.5t-287 277.5
t-103 403q0 195 68 362.5t187.5 285.5t289.5 185t367 67zM1124 659q0 98 -53.5 158.5t-141.5 60.5q-113 0 -187.5 -96.5t-74.5 -241.5q0 -103 50 -163t135 -60q112 0 192 100.5t80 241.5z" />
    <glyph glyph-name="A" unicode="A" horiz-adv-x="1291" 
d="M984 0l-59 413h-579l-234 -413h-198l836 1443h181l224 -1443h-171zM799 1224l-368 -658h471l-99 658h-4z" />
    <glyph glyph-name="B" unicode="B" horiz-adv-x="1300" 
d="M629 0h-600l307 1443h511q175 0 285.5 -87t110.5 -231q0 -134 -87.5 -235t-225.5 -139l-1 -4q116 -18 181.5 -98t65.5 -191q0 -201 -151.5 -329.5t-395.5 -128.5zM486 1284l-98 -463h297q165 0 268 74t103 193q0 196 -278 196h-292zM247 159h376q159 0 260.5 80.5
t101.5 203.5q0 223 -296 223h-334z" />
    <glyph glyph-name="C" unicode="C" horiz-adv-x="1402" 
d="M1241 978q0 8 -2 24q-15 139 -117.5 219t-256.5 80q-161 0 -287.5 -89t-196 -246.5t-69.5 -355.5q0 -217 109.5 -342.5t300.5 -125.5q145 0 256 74t162 204h182q-59 -202 -223 -322.5t-379 -120.5q-272 0 -432.5 170t-160.5 457q0 242 94.5 439t264.5 310t381 113
q236 0 388.5 -125t166.5 -336q1 -15 1 -27h-182z" />
    <glyph glyph-name="D" unicode="D" horiz-adv-x="1413" 
d="M336 1443h420q288 0 450 -155.5t162 -432.5q0 -250 -98 -445t-275 -302.5t-404 -107.5h-560zM486 1283l-239 -1123h330q174 0 312 86t215.5 239.5t77.5 347.5q0 223 -115.5 336.5t-341.5 113.5h-239z" />
    <glyph glyph-name="E" unicode="E" horiz-adv-x="1134" 
d="M959 162l-34 -162h-896l307 1443h896l-35 -162h-711l-99 -463h674l-34 -160h-674l-105 -496h711z" />
    <glyph glyph-name="F" unicode="F" horiz-adv-x="1084" 
d="M213 0h-184l307 1443h878l-35 -162h-693l-106 -496h636l-34 -160h-636z" />
    <glyph glyph-name="G" unicode="G" horiz-adv-x="1454" 
d="M1411 736l-47 -221q-55 -254 -227 -396t-416 -142q-277 0 -436 172.5t-159 454.5q0 120 27 239t86.5 232t144.5 199.5t210.5 139t274.5 52.5q250 0 401 -136t157 -353v-14h-182q-10 155 -110 246t-266 91q-116 0 -211.5 -42t-158.5 -111t-106.5 -160t-62.5 -185.5
t-19 -191.5q0 -213 107.5 -340.5t302.5 -127.5q175 0 301 104t160 277l11 55h-400l34 158h584z" />
    <glyph glyph-name="H" unicode="H" horiz-adv-x="1436" 
d="M1185 0h-184l140 657h-788l-140 -657h-184l307 1443h184l-133 -624h788l133 624h184z" />
    <glyph glyph-name="I" unicode="I" horiz-adv-x="464" 
d="M213 0h-184l307 1443h184z" />
    <glyph glyph-name="J" unicode="J" horiz-adv-x="1026" 
d="M14 330v22h182v-1q0 -96 60 -151t162 -55q104 0 168.5 66.5t93.5 202.5l218 1029h184l-227 -1070q-40 -191 -156 -294t-299 -103q-167 0 -276.5 101.5t-109.5 252.5z" />
    <glyph glyph-name="K" unicode="&#x212a;" horiz-adv-x="1259" 
d="M213 0h-184l307 1443h184l-149 -701h4l776 701h238l-714 -648l460 -795h-210l-392 683l-215 -189z" />
    <glyph glyph-name="K" unicode="K" horiz-adv-x="1259" 
d="M213 0h-184l307 1443h184l-149 -701h4l776 701h238l-714 -648l460 -795h-210l-392 683l-215 -189z" />
    <glyph glyph-name="L" unicode="L" horiz-adv-x="1078" 
d="M941 162l-34 -162h-878l307 1443h184l-272 -1281h693z" />
    <glyph glyph-name="M" unicode="M" horiz-adv-x="1706" 
d="M199 0h-170l307 1443h200l243 -1216h4l754 1216h225l-307 -1443h-170l239 1124h-7l-699 -1114h-153l-223 1114h-6z" />
    <glyph glyph-name="N" unicode="N" horiz-adv-x="1434" 
d="M213 0h-184l307 1443h184l533 -1173h4l249 1173h184l-307 -1443h-184l-533 1173h-4z" />
    <glyph glyph-name="O" unicode="O" horiz-adv-x="1518" 
d="M726 -23q-272 0 -436 172t-164 457q0 175 56.5 333t155 274t239 184.5t300.5 68.5q272 0 436 -172t164 -457q0 -175 -56.5 -333t-155 -274t-239 -184.5t-300.5 -68.5zM877 1301q-164 0 -294.5 -93t-201 -250t-70.5 -346q0 -215 112.5 -342.5t302.5 -127.5q164 0 294.5 93
t201 250t70.5 346q0 215 -112.5 342.5t-302.5 127.5z" />
    <glyph glyph-name="P" unicode="P" horiz-adv-x="1224" 
d="M336 1443h507q177 0 295.5 -107.5t118.5 -282.5q0 -164 -77.5 -287.5t-209.5 -187t-298 -63.5h-349l-109 -515h-185zM486 1283l-129 -608h304q188 0 298 95t110 267q0 116 -77.5 181t-210.5 65h-295z" />
    <glyph glyph-name="Q" unicode="Q" horiz-adv-x="1518" 
d="M1217 -163h-178l-91 176q-108 -36 -222 -36q-272 0 -436 172t-164 457q0 175 56.5 333t155 274t239 184.5t300.5 68.5q272 0 436 -172t164 -457q0 -242 -104 -444.5t-282 -312.5zM726 142q74 0 145 20l-130 251h178l95 -183q130 89 204 248.5t74 352.5
q0 215 -112.5 342.5t-302.5 127.5q-164 0 -294.5 -93t-201 -250t-70.5 -346q0 -215 112.5 -342.5t302.5 -127.5z" />
    <glyph glyph-name="R" unicode="R" horiz-adv-x="1270" 
d="M29 0l307 1443h505q201 0 313 -103t112 -278q0 -171 -104.5 -300t-284.5 -166l202 -596h-190l-190 571h-364l-121 -571h-185zM486 1283l-117 -552h347q159 0 259.5 87.5t100.5 225.5q0 110 -66 174.5t-179 64.5h-345z" />
    <glyph glyph-name="S" unicode="S" horiz-adv-x="1227" 
d="M49 424h181q15 -128 117 -206t264 -78q144 0 236 65t92 180q0 96 -59 152.5t-196 99.5l-96 30q-182 57 -269 149t-87 236q0 185 139 299.5t360 114.5q224 0 365.5 -113.5t141.5 -304.5h-180q-5 115 -93 185t-236 70q-147 0 -229 -69.5t-82 -167.5q0 -83 60 -138t192 -97
l96 -30q182 -57 272 -149.5t90 -228.5q0 -86 -33.5 -165t-97 -142.5t-164 -101t-224.5 -37.5q-151 0 -275.5 52.5t-202 155.5t-82.5 239z" />
    <glyph glyph-name="T" unicode="T" horiz-adv-x="1211" 
d="M587 0h-184l272 1281h-463l34 162h1110l-34 -162h-463z" />
    <glyph glyph-name="U" unicode="U" horiz-adv-x="1430" 
d="M640 -23q-120 0 -216 34.5t-158 95.5t-95 142t-34 176q-1 60 13 130l186 888h184l-184 -876q-15 -68 -13 -133q5 -137 93 -214t256 -77q162 0 277.5 96t151.5 263l201 941h184l-208 -976q-50 -236 -211 -363t-427 -127z" />
    <glyph glyph-name="V" unicode="V" horiz-adv-x="1293" 
d="M627 0h-182l-223 1443h174l182 -1206h4l679 1206h202z" />
    <glyph glyph-name="W" unicode="W" horiz-adv-x="1896" 
d="M1074 1147l-567 -1147h-177l-87 1443h169l58 -1167h4l572 1167h170l96 -1165h4l539 1165h190l-690 -1443h-177l-100 1147h-4z" />
    <glyph glyph-name="X" unicode="X" horiz-adv-x="1304" 
d="M-71 0l652 734l-333 709h206l262 -581h8l504 581h232l-651 -734l332 -709h-206l-262 582h-8l-504 -582h-232z" />
    <glyph glyph-name="Y" unicode="Y" horiz-adv-x="1256" 
d="M611 0h-185l132 630l-336 813h190l266 -658h4l536 658h208l-689 -839z" />
    <glyph glyph-name="Z" unicode="Z" horiz-adv-x="1263" 
d="M-13 0l27 128l1051 1149l1 4h-779l35 162h1021l-27 -128l-1049 -1149l-1 -4h822l-34 -162h-1067z" />
    <glyph glyph-name="bracketleft" unicode="[" horiz-adv-x="660" 
d="M398 1443h438l-29 -136h-270l-316 -1480h270l-29 -135h-438z" />
    <glyph glyph-name="backslash" unicode="\" horiz-adv-x="660" 
d="M294 -308l-53 1751h145l53 -1751h-145z" />
    <glyph glyph-name="bracketright" unicode="]" horiz-adv-x="660" 
d="M281 -308h-438l29 136h270l316 1480h-270l29 135h438z" />
    <glyph glyph-name="asciicircum" unicode="^" horiz-adv-x="820" 
d="M561 1237l-279 -420h-164l388 570h176l146 -570h-156l-101 420h-10z" />
    <glyph glyph-name="underscore" unicode="_" horiz-adv-x="1024" 
d="M-173 -244l31 144h1044l-31 -144h-1044z" />
    <glyph glyph-name="grave" unicode="`" horiz-adv-x="1024" 
d="M681 1190l-121 300h177l75 -300h-131z" />
    <glyph glyph-name="a" unicode="a" horiz-adv-x="1018" 
d="M349 -18q-137 0 -231.5 81.5t-94.5 207.5q0 151 111 236.5t313 96.5l311 16l14 65q4 17 4 51q0 79 -54 124t-153 45q-103 0 -166 -45.5t-79 -122.5h-182q24 143 143 232t298 89q166 0 267 -82.5t101 -214.5q0 -46 -7 -88l-143 -673h-167l27 127h-3q-54 -68 -134.5 -106.5
t-174.5 -38.5zM395 130q112 0 198.5 65.5t109.5 169.5l26 116l-284 -15q-117 -6 -181.5 -52t-64.5 -125q0 -72 54 -115.5t142 -43.5z" />
    <glyph glyph-name="b" unicode="b" horiz-adv-x="1139" 
d="M560 -18q-122 0 -218 66.5t-122 166.5h-5l-45 -215h-165l307 1443h172l-119 -566h3q43 80 131 130.5t186 50.5q179 0 284.5 -121t105.5 -335q0 -118 -35.5 -228.5t-100 -198t-163.5 -140.5t-216 -53zM558 136q153 0 248 133.5t95 328.5q0 144 -67 225.5t-189 81.5
q-105 0 -188.5 -65t-128 -173.5t-44.5 -238.5q0 -129 76 -210.5t198 -81.5z" />
    <glyph glyph-name="c" unicode="c" horiz-adv-x="1031" 
d="M596 1058q100 0 180.5 -30t130.5 -81.5t76.5 -115.5t26.5 -135v-7h-169q-4 92 -70 154t-177 62q-155 0 -254 -129.5t-99 -332.5q0 -143 68.5 -225.5t183.5 -82.5q100 0 173.5 52.5t107.5 142.5h171q-38 -150 -165 -249t-289 -99q-205 0 -316.5 125t-111.5 330
q0 173 67.5 315t190 224t275.5 82z" />
    <glyph glyph-name="d" unicode="d" horiz-adv-x="1151" 
d="M451 -18q-178 0 -282.5 122.5t-104.5 325.5q0 177 68.5 321t188 225.5t264.5 81.5q122 0 215.5 -67t118.5 -165h5l133 617h174l-307 -1443h-175l35 166h-4q-48 -80 -138.5 -132t-190.5 -52zM491 135q157 0 260.5 136t103.5 341q0 130 -73 211t-195 81q-150 0 -249.5 -131
t-99.5 -335q0 -141 67 -222t186 -81z" />
    <glyph glyph-name="e" unicode="e" horiz-adv-x="1062" 
d="M491 -20q-206 0 -317 126.5t-111 331.5q0 170 65 311.5t183.5 225t266.5 83.5q194 0 307 -118t113 -321q0 -82 -9 -140h-748q-1 -12 -1 -36q0 -143 68.5 -226.5t184.5 -83.5q102 0 176 50t110 137h171q-41 -147 -168 -243.5t-291 -96.5zM263 618h557q1 9 1 28
q0 109 -61 184.5t-184 75.5q-117 0 -198.5 -80t-114.5 -208z" />
    <glyph glyph-name="f" unicode="f" horiz-adv-x="615" 
d="M66 0l186 896h-173l31 144h171l19 99q30 158 119.5 231.5t252.5 73.5q59 0 122 -10l-29 -144q-36 9 -90 9q-88 0 -135.5 -39.5t-64.5 -125.5l-18 -94h241l-31 -144h-240l-186 -896h-175z" />
    <glyph glyph-name="g" unicode="g" horiz-adv-x="1140" 
d="M411 -392q-180 0 -301 86.5t-121 219.5h179q11 -72 76.5 -115t166.5 -43q271 0 343 295l32 132h-4q-48 -81 -138.5 -132t-188.5 -51q-177 0 -284 120.5t-107 322.5q0 117 34.5 226.5t98.5 197.5t165 140.5t223 50.5t213.5 -69.5t118.5 -170.5h5l44 222h171l-208 -986
q-46 -219 -182.5 -332.5t-335.5 -113.5zM494 153q109 0 192.5 63.5t126 167t42.5 228.5q0 127 -76.5 209.5t-190.5 82.5q-157 0 -253.5 -130t-96.5 -327q0 -134 66.5 -214t189.5 -80z" />
    <glyph glyph-name="h" unicode="h" horiz-adv-x="1110" 
d="M5 0l307 1443h175l-120 -565h4q47 78 134.5 129t201.5 51q148 0 240.5 -92t92.5 -220q0 -54 -14 -121l-137 -625h-175l131 595q13 62 13 102q0 93 -60.5 150t-164.5 57q-119 0 -206 -77.5t-114 -202.5l-133 -624h-175z" />
    <glyph glyph-name="i" unicode="i" horiz-adv-x="424" 
d="M386 1225q-45 0 -77 32t-32 77q0 46 32 77.5t77 31.5q46 0 77.5 -31.5t31.5 -77.5q0 -45 -31.5 -77t-77.5 -32zM13 0l221 1040h176l-221 -1040h-176z" />
    <glyph glyph-name="j" unicode="j" horiz-adv-x="416" 
d="M387 1225q-45 0 -77 32t-32 77q0 46 32 77.5t77 31.5q46 0 77.5 -31.5t31.5 -77.5q0 -45 -31.5 -77t-77.5 -32zM407 1040l-239 -1115q-31 -146 -114 -214t-226 -69q-42 0 -79 4l34 151q32 -3 50 -3q72 0 109 34.5t55 119.5l234 1092h176z" />
    <glyph glyph-name="k" unicode="k" horiz-adv-x="961" 
d="M181 0h-176l307 1443h176l-180 -844h4l537 441h223l-519 -429l317 -611h-195l-263 511l-146 -114z" />
    <glyph glyph-name="l" unicode="l" horiz-adv-x="424" 
d="M13 0l307 1443h176l-307 -1443h-176z" />
    <glyph glyph-name="m" unicode="m" horiz-adv-x="1638" 
d="M1 0l221 1040h166l-35 -167h4q40 78 122 131.5t178 53.5q107 0 181 -55.5t93 -130.5h3q56 80 142.5 133t202.5 53q127 0 210.5 -79.5t83.5 -203.5q0 -58 -13 -119l-139 -656h-175l133 626q12 55 12 100q0 76 -49 127t-132 51q-93 0 -171 -68.5t-102 -182.5l-139 -653
h-175l133 626q13 60 13 100q0 76 -49 127t-133 51q-91 0 -170.5 -71t-101.5 -178l-139 -655h-175z" />
    <glyph glyph-name="n" unicode="n" horiz-adv-x="1094" 
d="M1 0l221 1040h166l-34 -162h4q53 85 139 132.5t197 47.5q140 0 235 -87t95 -219q0 -59 -14 -127l-133 -625h-175l127 595q13 61 13 108q0 93 -60 147t-161 54q-114 0 -199 -76t-113 -204l-133 -624h-175z" />
    <glyph glyph-name="o" unicode="o" horiz-adv-x="1096" 
d="M596 1058q199 0 317.5 -124.5t118.5 -332.5q0 -171 -69.5 -313t-192 -224t-271.5 -82q-199 0 -317.5 124.5t-118.5 332.5q0 171 69.5 313t192 224t271.5 82zM499 135q155 0 256 132t101 329q0 141 -70.5 225t-189.5 84q-155 0 -256 -132t-101 -329q0 -141 70.5 -225
t189.5 -84z" />
    <glyph glyph-name="p" unicode="p" horiz-adv-x="1137" 
d="M98 -348h-171l295 1388h171l-36 -168h3q48 82 138 134t190 52q177 0 280.5 -122t103.5 -328q0 -177 -68 -320.5t-186 -224.5t-263 -81q-120 0 -212 63.5t-122 162.5h-5zM551 136q150 0 250 130t100 330q0 146 -67 227.5t-186 81.5q-109 0 -193.5 -67t-127.5 -175
t-43 -235q0 -129 73 -210.5t194 -81.5z" />
    <glyph glyph-name="q" unicode="q" horiz-adv-x="1139" 
d="M841 -348h-171l116 521h-4q-50 -85 -140.5 -138t-190.5 -53q-178 0 -282.5 121t-104.5 327q0 174 68 318t188 227t265 83q123 0 216 -67t118 -165h5l45 214h168zM490 135q157 0 261 136t104 341q0 130 -72.5 211t-194.5 81q-151 0 -250.5 -132.5t-99.5 -333.5
q0 -142 66 -222.5t186 -80.5z" />
    <glyph glyph-name="r" unicode="r" horiz-adv-x="698" 
d="M1 0l221 1040h165l-29 -138h4q106 153 292 153q72 0 120 -23l-37 -165q-54 21 -130 21q-129 0 -201.5 -71t-103.5 -214l-127 -603h-174z" />
    <glyph glyph-name="s" unicode="s" horiz-adv-x="948" 
d="M135 748q0 135 107.5 222t278.5 87q168 0 274.5 -88.5t108.5 -228.5h-166q-7 77 -68 126t-151 49q-97 0 -155 -42.5t-58 -108.5q0 -55 38.5 -89t136.5 -64l90 -28q139 -43 201 -108t62 -168q0 -140 -114.5 -232.5t-288.5 -92.5q-182 0 -296.5 91t-119.5 231h174
q12 -81 78 -130t172 -49q94 0 157 50t63 122q0 50 -34 78t-133 59l-90 28q-142 44 -204.5 111.5t-62.5 174.5z" />
    <glyph glyph-name="t" unicode="t" horiz-adv-x="617" 
d="M365 -8q-114 0 -184.5 55t-70.5 158q0 43 10 89l129 602h-154l30 144h155l53 259h175l-55 -259h223l-30 -144h-223l-117 -548q-12 -56 -12 -94q0 -111 135 -111q41 0 72 4l-31 -145q-58 -10 -105 -10z" />
    <glyph glyph-name="u" unicode="u" horiz-adv-x="1093" 
d="M1091 1040l-221 -1040h-166l33 146h-4q-42 -64 -136.5 -114t-205.5 -50q-146 0 -233 83t-87 207q0 76 15 148l130 620h176l-127 -595q-14 -67 -14 -118q0 -98 51 -144.5t157 -46.5q122 0 210 78t115 202l133 624h174z" />
    <glyph glyph-name="v" unicode="v" horiz-adv-x="974" 
d="M125 1040h172l118 -842h4l458 842h192l-594 -1040h-188z" />
    <glyph glyph-name="w" unicode="w" horiz-adv-x="1450" 
d="M1535 1040l-506 -1040h-180l-61 808h-4l-393 -808h-186l-70 1040h157l47 -840h3l401 840h172l56 -840h4l388 840h172z" />
    <glyph glyph-name="x" unicode="x" horiz-adv-x="959" 
d="M457 388h-4l-327 -388h-204l461 534l-243 506h182l179 -388h4l327 388h204l-461 -534l243 -506h-182z" />
    <glyph glyph-name="y" unicode="y" horiz-adv-x="976" 
d="M52 -379q-67 0 -118 17l26 145q39 -16 94 -16q122 0 208 171l34 68l-170 1034h172l125 -848h3l452 848h192l-650 -1154q-86 -152 -170 -208.5t-198 -56.5z" />
    <glyph glyph-name="z" unicode="z" horiz-adv-x="972" 
d="M-26 0l27 125l743 767l1 4h-579l32 144h798l-29 -128l-737 -764l-1 -4h578l-31 -144h-802z" />
    <glyph glyph-name="braceleft" unicode="{" horiz-adv-x="660" 
d="M187 260q11 53 11 87q0 73 -44 98.5t-144 25.5l41 191q121 0 181.5 47t85.5 166l52 244q37 172 139.5 248t277.5 76h49l-30 -141h-44q-104 0 -157.5 -52t-79.5 -173l-56 -265q-46 -216 -275 -238l-3 -16q96 -21 137.5 -62.5t41.5 -112.5q0 -34 -12 -92l-50 -235
q-11 -53 -11 -87q0 -142 151 -142h45l-29 -136h-48q-39 0 -75 5.5t-76 22.5t-69 43.5t-48 72.5t-19 105q0 45 12 104z" />
    <glyph glyph-name="bar" unicode="|" horiz-adv-x="660" 
d="M226 -308h-146l373 1751h146z" />
    <glyph glyph-name="braceright" unicode="}" horiz-adv-x="660" 
d="M492 874q-11 -53 -11 -87q0 -73 44 -98.5t144 -25.5l-41 -191q-121 0 -181.5 -47t-85.5 -166l-52 -244q-37 -172 -139.5 -248t-277.5 -76h-49l30 141h44q104 0 157.5 52t79.5 173l56 265q46 216 275 238l3 16q-96 21 -137.5 62.5t-41.5 112.5q0 34 12 92l50 235
q11 53 11 87q0 142 -151 142h-45l29 136h48q39 0 75 -5.5t76 -22.5t69 -43.5t48 -72.5t19 -105q0 -46 -12 -104z" />
    <glyph glyph-name="asciitilde" unicode="~" horiz-adv-x="1238" 
d="M820 380q-59 0 -109.5 22.5t-85 55t-66.5 65t-68 55t-74 22.5q-120 0 -170 -179h-155q15 63 41.5 120t68 108t103 81t135.5 30q50 0 93.5 -16.5t72.5 -40.5t59 -53t54.5 -53t56.5 -40.5t66 -16.5q120 0 169 179h155q-10 -50 -28 -96t-48 -91t-67.5 -78t-90 -53.5
t-112.5 -20.5z" />
    <glyph glyph-name="nonbreakingspace" unicode="&#xa0;" horiz-adv-x="492" 
 />
    <glyph glyph-name="exclamdown" unicode="&#xa1;" horiz-adv-x="550" 
d="M376 1113q48 0 81 -33t33 -81t-33 -81t-81 -33t-81 33t-33 81t33 81t81 33zM194 -340h-200l222 963h166z" />
    <glyph glyph-name="cent" unicode="&#xa2;" horiz-adv-x="1238" 
d="M468 0l46 215q-150 34 -230 152t-80 290q0 173 68 315t190.5 224t275.5 82h1l35 165h120l-38 -177q142 -31 219 -128.5t77 -221.5v-7h-169q-3 71 -45 126.5t-114 77.5l-160 -757q89 8 154.5 59.5t96.5 134.5h171q-38 -150 -165 -249t-289 -99h-1l-43 -202h-120zM382 663
q0 -112 43.5 -188.5t120.5 -104.5l160 754q-144 -14 -234 -141t-90 -320z" />
    <glyph glyph-name="sterling" unicode="&#xa3;" horiz-adv-x="1238" 
d="M154 797h219v21q0 301 155 464t433 163q89 0 170 -18.5t126 -40.5l-36 -152q-112 52 -270 52q-104 0 -181 -31.5t-122.5 -89.5t-67 -133.5t-21.5 -169.5q0 -41 1 -65h482l-30 -144h-449v-5q0 -166 -74 -300.5t-192 -179.5l-1 -4h786l-33 -154h-1062l32 152
q178 25 269 143.5t91 296.5q0 33 -1 51h-254z" />
    <glyph glyph-name="currency" unicode="&#xa4;" horiz-adv-x="1238" 
d="M650 265q-143 0 -252 93l-239 -198l-87 110l236 196q-49 90 -49 190q0 143 93 252l-111 140l123 98l111 -141q81 42 175 42q142 0 252 -92l237 196l87 -110l-235 -194q50 -89 50 -191q0 -142 -93 -253l109 -138l-123 -98l-110 139q-82 -41 -174 -41zM650 392
q109 0 186.5 77.5t77.5 186.5t-77.5 186.5t-186.5 77.5t-186.5 -77.5t-77.5 -186.5t77.5 -186.5t186.5 -77.5z" />
    <glyph glyph-name="yen" unicode="&#xa5;" horiz-adv-x="1238" 
d="M603 0h-185l63 299h-338l26 120h337l33 160h-336l25 120h293l-300 723h190l258 -638h4l520 638h207l-593 -723h279l-25 -120h-337l-34 -160h337l-26 -120h-336z" />
    <glyph glyph-name="brokenbar" unicode="&#xa6;" horiz-adv-x="660" 
d="M458 783h-146l141 660h146zM227 -308h-146l140 661h146z" />
    <glyph glyph-name="section" unicode="&#xa7;" horiz-adv-x="1158" 
d="M475 -240q-164 0 -278 86t-123 222h177q18 -73 79.5 -118t152.5 -45q102 0 165.5 50t63.5 129q0 54 -27.5 91.5t-97.5 65.5l-145 58q-240 96 -240 290q0 118 78 195.5t188 104.5l1 4q-83 48 -116.5 104.5t-33.5 142.5q0 147 108 236.5t276 89.5q161 0 263.5 -81
t121.5 -214h-171q-14 67 -72.5 108t-144.5 41q-91 0 -149.5 -48t-58.5 -122q0 -52 34 -89t107 -67l126 -52q126 -52 185.5 -115t59.5 -166q0 -119 -74 -201t-184 -114l-1 -4q80 -50 112 -107t32 -142q0 -146 -116.5 -239.5t-297.5 -93.5zM516 446l92 -34q100 17 159.5 75
t59.5 141q0 117 -123 161l-86 31q-104 -9 -173.5 -68.5t-69.5 -144.5q0 -109 141 -161z" />
    <glyph glyph-name="dieresis" unicode="&#xa8;" horiz-adv-x="1024" 
d="M498 1225q-45 0 -77 32t-32 77q0 46 32 77.5t77 31.5q46 0 77.5 -31.5t31.5 -77.5q0 -45 -31.5 -77t-77.5 -32zM872 1225q-45 0 -77 32t-32 77q0 46 32 77.5t77 31.5q46 0 77.5 -31.5t31.5 -77.5q0 -45 -31.5 -77t-77.5 -32z" />
    <glyph glyph-name="copyright" unicode="&#xa9;" horiz-adv-x="1656" 
d="M840 -168q-230 0 -408.5 94.5t-277 265t-98.5 390.5q0 236 104.5 428t289 301t410.5 109q230 0 408.5 -94t277 -265t98.5 -392q0 -177 -61.5 -332.5t-167.5 -266t-255.5 -174.5t-319.5 -64zM840 -28q187 0 339 90.5t238 250t86 355.5q0 276 -176.5 444t-466.5 168
q-187 0 -339 -90.5t-238 -250t-86 -356.5q0 -274 177 -442.5t466 -168.5zM1220 792h-132q-6 62 -62 104t-134 42q-119 0 -198 -103t-79 -258q0 -110 59 -177.5t156 -67.5q146 0 194 127h134q-26 -113 -117.5 -179t-221.5 -66q-150 0 -244.5 96.5t-94.5 249.5
q0 214 119.5 354t302.5 140q136 0 222.5 -71.5t95.5 -190.5z" />
    <glyph glyph-name="a.sups" unicode="&#xaa;" horiz-adv-x="640" 
d="M346 833q-83 0 -140.5 47.5t-58.5 120.5q0 91 70 143t195 57l180 8l8 37q4 12 2 26q-1 39 -32 61.5t-87 22.5q-58 0 -93 -22.5t-44 -61.5h-128q14 87 88.5 140.5t186.5 53.5q106 0 171.5 -49.5t66.5 -128.5q0 -25 -4 -51l-84 -394h-124l15 74h-2q-68 -84 -186 -84z
M389 938q63 0 111 33.5t60 85.5l13 59l-160 -7q-65 -2 -101.5 -26t-35.5 -64q1 -37 32.5 -59t80.5 -22z" />
    <glyph glyph-name="guillemotleft" unicode="&#xab;" horiz-adv-x="1259" 
d="M603 145h-190l-271 413l3 21l408 406h209l-423 -421v-13zM1036 145h-190l-271 413l3 21l408 406h209l-423 -421v-13z" />
    <glyph glyph-name="logicalnot" unicode="&#xac;" horiz-adv-x="1238" 
d="M1104 651l-124 -585h-162l90 423h-754l34 162h916z" />
    <glyph glyph-name="registered" unicode="&#xae;" horiz-adv-x="1180" 
d="M705 592q-132 0 -242 62t-174 170.5t-64 237.5q0 197 139.5 333.5t340.5 136.5t340.5 -136t139.5 -334q0 -197 -139.5 -333.5t-340.5 -136.5zM705 692q155 0 262.5 107.5t107.5 262.5t-107.5 262.5t-262.5 107.5t-262.5 -107.5t-107.5 -262.5q0 -154 107.5 -262
t262.5 -108zM567 846h-95l96 450h215q60 0 99 -35t39 -85q0 -57 -38.5 -100t-95.5 -52l87 -178h-119l-73 167h-79zM646 1216l-28 -130h105q41 0 67.5 22.5t26.5 55.5q0 24 -16.5 38t-46.5 14h-108z" />
    <glyph glyph-name="macron" unicode="&#xaf;" horiz-adv-x="1024" 
d="M983 1385l-26 -121h-575l26 121h575z" />
    <glyph glyph-name="degree" unicode="&#xb0;" horiz-adv-x="820" 
d="M534 792q-131 0 -220.5 90t-89.5 220t89.5 220t220.5 90q130 0 220 -90t90 -220t-90 -220t-220 -90zM534 937q68 0 114 47.5t46 117.5t-46 117.5t-114 47.5q-65 0 -112.5 -47.5t-47.5 -117.5q0 -69 47.5 -117t112.5 -48z" />
    <glyph glyph-name="plusminus" unicode="&#xb1;" horiz-adv-x="1238" 
d="M716 628l-62 -295h-149l62 295h-434l32 149h434l63 295h149l-63 -295h434l-32 -149h-434zM1031 66h-1017l32 149h1017z" />
    <glyph glyph-name="two.sups" unicode="&#xb2;" horiz-adv-x="635" 
d="M228 1332q8 98 85 160.5t189 62.5q103 0 170.5 -53t68.5 -135q1 -68 -41 -121.5t-165 -144.5l-191 -136l-1 -3h339l-25 -119h-522l23 107l297 224q91 67 121.5 103t29.5 75q-1 37 -33 61t-82 24q-55 0 -91.5 -28t-45.5 -77h-126z" />
    <glyph glyph-name="three.sups" unicode="&#xb3;" horiz-adv-x="650" 
d="M359 1152l22 106h91q68 0 108.5 24.5t39.5 66.5q-2 40 -36.5 64t-91.5 24q-52 0 -88.5 -23t-45.5 -62h-126q19 94 92.5 148.5t181.5 54.5t176.5 -54.5t68.5 -135.5q1 -63 -46.5 -108.5t-121.5 -55.5v-3q60 -13 93.5 -52.5t34.5 -95.5q1 -96 -78.5 -157.5t-200.5 -61.5
q-127 0 -201 59t-72 152q0 4 2 18h127q2 -49 41 -79.5t107 -30.5q64 0 103.5 29.5t38.5 78.5q-2 44 -36.5 69t-95.5 25h-87z" />
    <glyph glyph-name="acute" unicode="&#xb4;" horiz-adv-x="1024" 
d="M628 1190h-139l200 300h194z" />
    <glyph glyph-name="mugreek" unicode="&#x3bc;" horiz-adv-x="1152" 
d="M-69 -348l295 1388h175l-119 -561q-20 -94 -20 -134q0 -200 201 -200q113 0 209 91.5t124 223.5l123 580h174l-163 -769q-7 -32 -7 -56q0 -36 22 -51t72 -15q27 0 48 4l-31 -145q-41 -10 -89 -10q-100 0 -145.5 44.5t-43.5 137.5h-4q-49 -87 -141.5 -138t-192.5 -51
q-70 0 -128.5 37.5t-81.5 100.5h-5l-101 -477h-171z" />
    <glyph glyph-name="mugreek" unicode="&#xb5;" horiz-adv-x="1152" 
d="M-69 -348l295 1388h175l-119 -561q-20 -94 -20 -134q0 -200 201 -200q113 0 209 91.5t124 223.5l123 580h174l-163 -769q-7 -32 -7 -56q0 -36 22 -51t72 -15q27 0 48 4l-31 -145q-41 -10 -89 -10q-100 0 -145.5 44.5t-43.5 137.5h-4q-49 -87 -141.5 -138t-192.5 -51
q-70 0 -128.5 37.5t-81.5 100.5h-5l-101 -477h-171z" />
    <glyph glyph-name="paragraph" unicode="&#xb6;" horiz-adv-x="1158" 
d="M710 -220l354 1663h150l-354 -1663h-150zM564 -220h-150l192 900h-18q-148 0 -241.5 93.5t-93.5 235.5q0 125 67 225t180.5 154.5t250.5 54.5h167z" />
    <glyph glyph-name="middledot" unicode="&#xb7;" horiz-adv-x="522" 
d="M260 406q-48 0 -81 33t-33 81t33 81t81 33t81 -33t33 -81t-33 -81t-81 -33z" />
    <glyph glyph-name="cedilla" unicode="&#xb8;" horiz-adv-x="1024" 
d="M172 -436l25 108q50 -16 108 -16q116 0 116 57q0 63 -125 63h-59l18 86l101 160h127v-22l-80 -127q72 0 122.5 -40.5t50.5 -115.5q0 -88 -71.5 -132t-182.5 -44q-81 0 -150 23z" />
    <glyph glyph-name="one.sups" unicode="&#xb9;" horiz-adv-x="511" 
d="M317 843l119 557h-3l-215 -123l30 141l219 125h134l-149 -700h-135z" />
    <glyph glyph-name="o.sups" unicode="&#xba;" horiz-adv-x="687" 
d="M504 1466q124 0 199.5 -74.5t77.5 -196.5q1 -156 -94.5 -260t-239.5 -104q-124 0 -199.5 74.5t-76.5 196.5q-2 155 93.5 259.5t239.5 104.5zM450 944q88 0 145 70.5t55 176.5q-2 74 -42 117.5t-107 43.5q-88 0 -145 -70.5t-55 -176.5q2 -73 42 -117t107 -44z" />
    <glyph glyph-name="guillemotright" unicode="&#xbb;" horiz-adv-x="1259" 
d="M674 985h190l271 -413l-3 -21l-408 -406h-209l423 421v13zM241 985h190l271 -413l-3 -21l-408 -406h-209l423 421v13z" />
    <glyph glyph-name="onequarter" unicode="&#xbc;" horiz-adv-x="1502" 
d="M296 743l119 557h-3l-215 -123l30 141l219 125h134l-149 -700h-135zM242 0h-174l1246 1443h168zM1137 0l26 123h-365l24 133q26 34 55.5 69.5t78 90t71 79.5t96 105t92.5 100h200l-97 -457h99l-26 -120h-98l-27 -123h-129zM947 242v-3h243l75 351h-3q-194 -205 -315 -348
z" />
    <glyph glyph-name="onehalf" unicode="&#xbd;" horiz-adv-x="1563" 
d="M296 743l119 557h-3l-215 -123l30 141l219 125h134l-149 -700h-135zM242 0h-174l1246 1443h168zM977 489q8 98 85 160.5t189 62.5q103 0 170.5 -53t68.5 -135q1 -68 -41 -121.5t-165 -144.5l-191 -136l-1 -3h339l-25 -119h-522l23 107l297 224q91 67 121.5 103t29.5 75
q-1 37 -33 61t-82 24q-55 0 -91.5 -28t-45.5 -77h-126z" />
    <glyph glyph-name="threequarters" unicode="&#xbe;" horiz-adv-x="1641" 
d="M338 1052l22 106h91q68 0 108.5 24.5t39.5 66.5q-2 40 -36.5 64t-91.5 24q-52 0 -88.5 -23t-45.5 -62h-126q19 94 92.5 148.5t181.5 54.5t176.5 -54.5t68.5 -135.5q1 -63 -46.5 -108.5t-121.5 -55.5v-3q60 -13 93.5 -52.5t34.5 -95.5q1 -96 -78.5 -157.5t-200.5 -61.5
q-127 0 -201 59t-72 152q0 4 2 18h127q2 -49 41 -79.5t107 -30.5q64 0 103.5 29.5t38.5 78.5q-2 44 -36.5 69t-95.5 25h-87zM381 0h-174l1246 1443h168zM1276 0l26 123h-365l24 133q26 34 55.5 69.5t78 90t71 79.5t96 105t92.5 100h200l-97 -457h99l-26 -120h-98l-27 -123
h-129zM1086 242v-3h243l75 351h-3q-194 -205 -315 -348z" />
    <glyph glyph-name="questiondown" unicode="&#xbf;" horiz-adv-x="964" 
d="M613 1113q48 0 81 -33t33 -81t-33 -81t-81 -33t-81 33t-33 81t33 81t81 33zM823 14q-34 -169 -153.5 -268t-309.5 -99q-183 0 -298.5 96t-115.5 234q0 128 80.5 234t209.5 164q108 48 154 95.5t60 126.5l11 60h179l-18 -82q-27 -122 -86.5 -187t-181.5 -120
q-112 -52 -164.5 -118.5t-52.5 -153.5q0 -80 62.5 -136t172.5 -56q102 0 175 55.5t102 154.5h174z" />
    <glyph glyph-name="Agrave" unicode="&#xc0;" horiz-adv-x="1291" 
d="M790 1560l-137 289h193l83 -289h-139zM984 0l-59 413h-579l-234 -413h-198l836 1443h181l224 -1443h-171zM799 1224l-368 -658h471l-99 658h-4z" />
    <glyph glyph-name="Aacute" unicode="&#xc1;" horiz-adv-x="1291" 
d="M931 1560h-139l206 289h193zM984 0l-59 413h-579l-234 -413h-198l836 1443h181l224 -1443h-171zM799 1224l-368 -658h471l-99 658h-4z" />
    <glyph glyph-name="Acircumflex" unicode="&#xc2;" horiz-adv-x="1291" 
d="M979 1858l221 -298h-158l-138 190h-6l-208 -190h-162l317 298h134zM984 0l-59 413h-579l-234 -413h-198l836 1443h181l224 -1443h-171zM799 1224l-368 -658h471l-99 658h-4z" />
    <glyph glyph-name="Atilde" unicode="&#xc3;" horiz-adv-x="1291" 
d="M574 1621q16 98 69.5 159t140.5 61q48 0 85.5 -21.5t57 -47t43.5 -47t47 -21.5q53 0 78 102h128q-16 -99 -69.5 -160.5t-141.5 -61.5q-48 0 -85 21.5t-56 47t-42.5 47t-47.5 21.5q-30 0 -48 -24.5t-30 -75.5h-129zM984 0l-59 413h-579l-234 -413h-198l836 1443h181
l224 -1443h-171zM799 1224l-368 -658h471l-99 658h-4z" />
    <glyph glyph-name="Adieresis" unicode="&#xc4;" horiz-adv-x="1291" 
d="M707 1608q-45 0 -77 32t-32 77q0 46 32 77.5t77 31.5q46 0 77.5 -31.5t31.5 -77.5q0 -45 -31.5 -77t-77.5 -32zM1081 1608q-45 0 -77 32t-32 77q0 46 32 77.5t77 31.5q46 0 77.5 -31.5t31.5 -77.5q0 -45 -31.5 -77t-77.5 -32zM984 0l-59 413h-579l-234 -413h-198
l836 1443h181l224 -1443h-171zM799 1224l-368 -658h471l-99 658h-4z" />
    <glyph glyph-name="Aring" unicode="&#x212b;" horiz-adv-x="1291" 
d="M891 1516q-79 0 -135 56t-56 135t56 135t135 56t135 -56t56 -135t-56 -135t-135 -56zM891 1604q43 0 73 30t30 73t-30 73t-73 30t-73 -30t-30 -73t30 -73t73 -30zM984 0l-59 413h-579l-234 -413h-198l836 1443h181l224 -1443h-171zM799 1224l-368 -658h471l-99 658h-4z
" />
    <glyph glyph-name="Aring" unicode="&#xc5;" horiz-adv-x="1291" 
d="M891 1516q-79 0 -135 56t-56 135t56 135t135 56t135 -56t56 -135t-56 -135t-135 -56zM891 1604q43 0 73 30t30 73t-30 73t-73 30t-73 -30t-30 -73t30 -73t73 -30zM984 0l-59 413h-579l-234 -413h-198l836 1443h181l224 -1443h-171zM799 1224l-368 -658h471l-99 658h-4z
" />
    <glyph glyph-name="AE" unicode="&#xc6;" horiz-adv-x="1869" 
d="M822 0l98 459h-523l-304 -459h-194l958 1443h1110l-35 -162h-654l-100 -473h617l-34 -160h-617l-104 -486h654l-34 -162h-838zM1097 1292h-146l-454 -680h455z" />
    <glyph glyph-name="Ccedilla" unicode="&#xc7;" horiz-adv-x="1402" 
d="M470 -436l25 108q50 -16 108 -16q116 0 116 57q0 63 -125 63h-59l18 86l76 120q-233 29 -367.5 194.5t-134.5 427.5q0 242 94.5 439t264.5 310t381 113q236 0 388.5 -125t166.5 -336q1 -15 1 -27h-182q0 8 -2 24q-15 139 -117.5 219t-256.5 80q-161 0 -287.5 -89
t-196 -246.5t-69.5 -355.5q0 -217 109.5 -342.5t300.5 -125.5q145 0 256 74t162 204h182q-56 -191 -205.5 -309t-348.5 -132l-67 -106q72 0 122.5 -40.5t50.5 -115.5q0 -88 -71.5 -132t-182.5 -44q-81 0 -150 23z" />
    <glyph glyph-name="Egrave" unicode="&#xc8;" horiz-adv-x="1134" 
d="M738 1560l-137 289h193l83 -289h-139zM959 162l-34 -162h-896l307 1443h896l-35 -162h-711l-99 -463h674l-34 -160h-674l-105 -496h711z" />
    <glyph glyph-name="Eacute" unicode="&#xc9;" horiz-adv-x="1134" 
d="M879 1560h-139l206 289h193zM959 162l-34 -162h-896l307 1443h896l-35 -162h-711l-99 -463h674l-34 -160h-674l-105 -496h711z" />
    <glyph glyph-name="Ecircumflex" unicode="&#xca;" horiz-adv-x="1134" 
d="M927 1858l221 -298h-158l-138 190h-6l-208 -190h-162l317 298h134zM959 162l-34 -162h-896l307 1443h896l-35 -162h-711l-99 -463h674l-34 -160h-674l-105 -496h711z" />
    <glyph glyph-name="Edieresis" unicode="&#xcb;" horiz-adv-x="1134" 
d="M655 1608q-45 0 -77 32t-32 77q0 46 32 77.5t77 31.5q46 0 77.5 -31.5t31.5 -77.5q0 -45 -31.5 -77t-77.5 -32zM1029 1608q-45 0 -77 32t-32 77q0 46 32 77.5t77 31.5q46 0 77.5 -31.5t31.5 -77.5q0 -45 -31.5 -77t-77.5 -32zM959 162l-34 -162h-896l307 1443h896
l-35 -162h-711l-99 -463h674l-34 -160h-674l-105 -496h711z" />
    <glyph glyph-name="Igrave" unicode="&#xcc;" horiz-adv-x="464" 
d="M383 1560l-137 289h193l83 -289h-139zM213 0h-184l307 1443h184z" />
    <glyph glyph-name="Iacute" unicode="&#xcd;" horiz-adv-x="464" 
d="M524 1560h-139l206 289h193zM213 0h-184l307 1443h184z" />
    <glyph glyph-name="Icircumflex" unicode="&#xce;" horiz-adv-x="464" 
d="M572 1858l221 -298h-158l-138 190h-6l-208 -190h-162l317 298h134zM213 0h-184l307 1443h184z" />
    <glyph glyph-name="Idieresis" unicode="&#xcf;" horiz-adv-x="464" 
d="M300 1608q-45 0 -77 32t-32 77q0 46 32 77.5t77 31.5q46 0 77.5 -31.5t31.5 -77.5q0 -45 -31.5 -77t-77.5 -32zM674 1608q-45 0 -77 32t-32 77q0 46 32 77.5t77 31.5q46 0 77.5 -31.5t31.5 -77.5q0 -45 -31.5 -77t-77.5 -32zM213 0h-184l307 1443h184z" />
    <glyph glyph-name="Eth" unicode="&#xd0;" horiz-adv-x="1413" 
d="M36 663l34 162h135l131 618h420q288 0 450 -155.5t162 -432.5q0 -250 -98 -445t-275 -302.5t-404 -107.5h-560l140 663h-135zM486 1283l-97 -458h332l-35 -162h-332l-107 -503h330q174 0 312 86t215.5 239.5t77.5 347.5q0 223 -115.5 336.5t-341.5 113.5h-239z" />
    <glyph glyph-name="Ntilde" unicode="&#xd1;" horiz-adv-x="1434" 
d="M661 1621q16 98 69.5 159t140.5 61q48 0 85.5 -21.5t57 -47t43.5 -47t47 -21.5q53 0 78 102h128q-16 -99 -69.5 -160.5t-141.5 -61.5q-48 0 -85 21.5t-56 47t-42.5 47t-47.5 21.5q-30 0 -48 -24.5t-30 -75.5h-129zM213 0h-184l307 1443h184l533 -1173h4l249 1173h184
l-307 -1443h-184l-533 1173h-4z" />
    <glyph glyph-name="Ograve" unicode="&#xd2;" horiz-adv-x="1518" 
d="M850 1560l-137 289h193l83 -289h-139zM726 -23q-272 0 -436 172t-164 457q0 175 56.5 333t155 274t239 184.5t300.5 68.5q272 0 436 -172t164 -457q0 -175 -56.5 -333t-155 -274t-239 -184.5t-300.5 -68.5zM877 1301q-164 0 -294.5 -93t-201 -250t-70.5 -346
q0 -215 112.5 -342.5t302.5 -127.5q164 0 294.5 93t201 250t70.5 346q0 215 -112.5 342.5t-302.5 127.5z" />
    <glyph glyph-name="Oacute" unicode="&#xd3;" horiz-adv-x="1518" 
d="M991 1560h-139l206 289h193zM726 -23q-272 0 -436 172t-164 457q0 175 56.5 333t155 274t239 184.5t300.5 68.5q272 0 436 -172t164 -457q0 -175 -56.5 -333t-155 -274t-239 -184.5t-300.5 -68.5zM877 1301q-164 0 -294.5 -93t-201 -250t-70.5 -346q0 -215 112.5 -342.5
t302.5 -127.5q164 0 294.5 93t201 250t70.5 346q0 215 -112.5 342.5t-302.5 127.5z" />
    <glyph glyph-name="Ocircumflex" unicode="&#xd4;" horiz-adv-x="1518" 
d="M1039 1858l221 -298h-158l-138 190h-6l-208 -190h-162l317 298h134zM726 -23q-272 0 -436 172t-164 457q0 175 56.5 333t155 274t239 184.5t300.5 68.5q272 0 436 -172t164 -457q0 -175 -56.5 -333t-155 -274t-239 -184.5t-300.5 -68.5zM877 1301q-164 0 -294.5 -93
t-201 -250t-70.5 -346q0 -215 112.5 -342.5t302.5 -127.5q164 0 294.5 93t201 250t70.5 346q0 215 -112.5 342.5t-302.5 127.5z" />
    <glyph glyph-name="Otilde" unicode="&#xd5;" horiz-adv-x="1518" 
d="M634 1621q16 98 69.5 159t140.5 61q48 0 85.5 -21.5t57 -47t43.5 -47t47 -21.5q53 0 78 102h128q-16 -99 -69.5 -160.5t-141.5 -61.5q-48 0 -85 21.5t-56 47t-42.5 47t-47.5 21.5q-30 0 -48 -24.5t-30 -75.5h-129zM726 -23q-272 0 -436 172t-164 457q0 175 56.5 333
t155 274t239 184.5t300.5 68.5q272 0 436 -172t164 -457q0 -175 -56.5 -333t-155 -274t-239 -184.5t-300.5 -68.5zM877 1301q-164 0 -294.5 -93t-201 -250t-70.5 -346q0 -215 112.5 -342.5t302.5 -127.5q164 0 294.5 93t201 250t70.5 346q0 215 -112.5 342.5t-302.5 127.5z
" />
    <glyph glyph-name="Odieresis" unicode="&#xd6;" horiz-adv-x="1518" 
d="M767 1608q-45 0 -77 32t-32 77q0 46 32 77.5t77 31.5q46 0 77.5 -31.5t31.5 -77.5q0 -45 -31.5 -77t-77.5 -32zM1141 1608q-45 0 -77 32t-32 77q0 46 32 77.5t77 31.5q46 0 77.5 -31.5t31.5 -77.5q0 -45 -31.5 -77t-77.5 -32zM726 -23q-272 0 -436 172t-164 457
q0 175 56.5 333t155 274t239 184.5t300.5 68.5q272 0 436 -172t164 -457q0 -175 -56.5 -333t-155 -274t-239 -184.5t-300.5 -68.5zM877 1301q-164 0 -294.5 -93t-201 -250t-70.5 -346q0 -215 112.5 -342.5t302.5 -127.5q164 0 294.5 93t201 250t70.5 346q0 215 -112.5 342.5
t-302.5 127.5z" />
    <glyph glyph-name="multiply" unicode="&#xd7;" horiz-adv-x="1238" 
d="M876 122l-263 341l-416 -341l-90 112l418 342l-264 341l121 99l263 -341l416 341l90 -112l-418 -342l264 -341z" />
    <glyph glyph-name="Oslash" unicode="&#xd8;" horiz-adv-x="1518" 
d="M96 141l118 110q-88 150 -88 355q0 175 56.5 333t155 274t239 184.5t300.5 68.5q280 0 445 -182l103 96l83 -100l-110 -103q79 -147 79 -340q0 -175 -56.5 -333t-155 -274t-239 -184.5t-300.5 -68.5q-269 0 -433 169l-114 -106zM877 1301q-164 0 -294.5 -93t-201 -250
t-70.5 -346q0 -130 43 -231l836 780q-112 140 -313 140zM1292 831q0 117 -36 214l-832 -776q113 -127 302 -127q164 0 294.5 93t201 250t70.5 346z" />
    <glyph glyph-name="Ugrave" unicode="&#xd9;" horiz-adv-x="1430" 
d="M850 1560l-137 289h193l83 -289h-139zM640 -23q-120 0 -216 34.5t-158 95.5t-95 142t-34 176q-1 60 13 130l186 888h184l-184 -876q-15 -68 -13 -133q5 -137 93 -214t256 -77q162 0 277.5 96t151.5 263l201 941h184l-208 -976q-50 -236 -211 -363t-427 -127z" />
    <glyph glyph-name="Uacute" unicode="&#xda;" horiz-adv-x="1430" 
d="M991 1560h-139l206 289h193zM640 -23q-120 0 -216 34.5t-158 95.5t-95 142t-34 176q-1 60 13 130l186 888h184l-184 -876q-15 -68 -13 -133q5 -137 93 -214t256 -77q162 0 277.5 96t151.5 263l201 941h184l-208 -976q-50 -236 -211 -363t-427 -127z" />
    <glyph glyph-name="Ucircumflex" unicode="&#xdb;" horiz-adv-x="1430" 
d="M1039 1858l221 -298h-158l-138 190h-6l-208 -190h-162l317 298h134zM640 -23q-120 0 -216 34.5t-158 95.5t-95 142t-34 176q-1 60 13 130l186 888h184l-184 -876q-15 -68 -13 -133q5 -137 93 -214t256 -77q162 0 277.5 96t151.5 263l201 941h184l-208 -976
q-50 -236 -211 -363t-427 -127z" />
    <glyph glyph-name="Udieresis" unicode="&#xdc;" horiz-adv-x="1430" 
d="M767 1608q-45 0 -77 32t-32 77q0 46 32 77.5t77 31.5q46 0 77.5 -31.5t31.5 -77.5q0 -45 -31.5 -77t-77.5 -32zM1141 1608q-45 0 -77 32t-32 77q0 46 32 77.5t77 31.5q46 0 77.5 -31.5t31.5 -77.5q0 -45 -31.5 -77t-77.5 -32zM640 -23q-120 0 -216 34.5t-158 95.5
t-95 142t-34 176q-1 60 13 130l186 888h184l-184 -876q-15 -68 -13 -133q5 -137 93 -214t256 -77q162 0 277.5 96t151.5 263l201 941h184l-208 -976q-50 -236 -211 -363t-427 -127z" />
    <glyph glyph-name="Yacute" unicode="&#xdd;" horiz-adv-x="1256" 
d="M918 1560h-139l206 289h193zM611 0h-185l132 630l-336 813h190l266 -658h4l536 658h208l-689 -839z" />
    <glyph glyph-name="Thorn" unicode="&#xde;" horiz-adv-x="1193" 
d="M29 0l307 1443h179l-57 -266h332q171 0 278.5 -99t107.5 -257q0 -212 -152.5 -342t-400.5 -130h-340l-74 -349h-180zM425 1017l-108 -508h295q178 0 277 78t99 218q0 99 -66.5 155.5t-192.5 56.5h-304z" />
    <glyph glyph-name="germandbls" unicode="&#xdf;" horiz-adv-x="1252" 
d="M240 0h-174l233 1098q35 166 156 259.5t299 93.5q170 0 283 -92.5t113 -232.5t-92 -235.5t-238 -108.5l-4 -18q146 -15 231.5 -98t85.5 -209q0 -194 -142.5 -321.5t-360.5 -127.5q-119 0 -208 34l33 152q34 -13 87.5 -22.5t96.5 -9.5q134 0 228 84t94 205
q0 106 -82.5 169t-219.5 63h-71l36 170h79q113 0 193 71t80 171q0 91 -64 147t-168 56q-109 0 -182.5 -65.5t-99.5 -185.5z" />
    <glyph glyph-name="agrave" unicode="&#xe0;" horiz-adv-x="1018" 
d="M567 1190l-121 300h177l75 -300h-131zM349 -18q-137 0 -231.5 81.5t-94.5 207.5q0 151 111 236.5t313 96.5l311 16l14 65q4 17 4 51q0 79 -54 124t-153 45q-103 0 -166 -45.5t-79 -122.5h-182q24 143 143 232t298 89q166 0 267 -82.5t101 -214.5q0 -46 -7 -88l-143 -673
h-167l27 127h-3q-54 -68 -134.5 -106.5t-174.5 -38.5zM395 130q112 0 198.5 65.5t109.5 169.5l26 116l-284 -15q-117 -6 -181.5 -52t-64.5 -125q0 -72 54 -115.5t142 -43.5z" />
    <glyph glyph-name="aacute" unicode="&#xe1;" horiz-adv-x="1018" 
d="M705 1190h-139l200 300h194zM349 -18q-137 0 -231.5 81.5t-94.5 207.5q0 151 111 236.5t313 96.5l311 16l14 65q4 17 4 51q0 79 -54 124t-153 45q-103 0 -166 -45.5t-79 -122.5h-182q24 143 143 232t298 89q166 0 267 -82.5t101 -214.5q0 -46 -7 -88l-143 -673h-167
l27 127h-3q-54 -68 -134.5 -106.5t-174.5 -38.5zM395 130q112 0 198.5 65.5t109.5 169.5l26 116l-284 -15q-117 -6 -181.5 -52t-64.5 -125q0 -72 54 -115.5t142 -43.5z" />
    <glyph glyph-name="acircumflex" unicode="&#xe2;" horiz-adv-x="1018" 
d="M751 1490l201 -300h-158l-118 189h-6l-188 -189h-162l297 300h134zM349 -18q-137 0 -231.5 81.5t-94.5 207.5q0 151 111 236.5t313 96.5l311 16l14 65q4 17 4 51q0 79 -54 124t-153 45q-103 0 -166 -45.5t-79 -122.5h-182q24 143 143 232t298 89q166 0 267 -82.5
t101 -214.5q0 -46 -7 -88l-143 -673h-167l27 127h-3q-54 -68 -134.5 -106.5t-174.5 -38.5zM395 130q112 0 198.5 65.5t109.5 169.5l26 116l-284 -15q-117 -6 -181.5 -52t-64.5 -125q0 -72 54 -115.5t142 -43.5z" />
    <glyph glyph-name="atilde" unicode="&#xe3;" horiz-adv-x="1018" 
d="M343 1238q16 98 69.5 159t140.5 61q48 0 85.5 -21.5t57 -47t43.5 -47t47 -21.5q53 0 78 102h128q-16 -99 -69.5 -160.5t-141.5 -61.5q-48 0 -85 21.5t-56 47t-42.5 47t-47.5 21.5q-30 0 -48 -24.5t-30 -75.5h-129zM349 -18q-137 0 -231.5 81.5t-94.5 207.5
q0 151 111 236.5t313 96.5l311 16l14 65q4 17 4 51q0 79 -54 124t-153 45q-103 0 -166 -45.5t-79 -122.5h-182q24 143 143 232t298 89q166 0 267 -82.5t101 -214.5q0 -46 -7 -88l-143 -673h-167l27 127h-3q-54 -68 -134.5 -106.5t-174.5 -38.5zM395 130q112 0 198.5 65.5
t109.5 169.5l26 116l-284 -15q-117 -6 -181.5 -52t-64.5 -125q0 -72 54 -115.5t142 -43.5z" />
    <glyph glyph-name="adieresis" unicode="&#xe4;" horiz-adv-x="1018" 
d="M476 1225q-45 0 -77 32t-32 77q0 46 32 77.5t77 31.5q46 0 77.5 -31.5t31.5 -77.5q0 -45 -31.5 -77t-77.5 -32zM850 1225q-45 0 -77 32t-32 77q0 46 32 77.5t77 31.5q46 0 77.5 -31.5t31.5 -77.5q0 -45 -31.5 -77t-77.5 -32zM349 -18q-137 0 -231.5 81.5t-94.5 207.5
q0 151 111 236.5t313 96.5l311 16l14 65q4 17 4 51q0 79 -54 124t-153 45q-103 0 -166 -45.5t-79 -122.5h-182q24 143 143 232t298 89q166 0 267 -82.5t101 -214.5q0 -46 -7 -88l-143 -673h-167l27 127h-3q-54 -68 -134.5 -106.5t-174.5 -38.5zM395 130q112 0 198.5 65.5
t109.5 169.5l26 116l-284 -15q-117 -6 -181.5 -52t-64.5 -125q0 -72 54 -115.5t142 -43.5z" />
    <glyph glyph-name="aring" unicode="&#xe5;" horiz-adv-x="1018" 
d="M660 1132q-79 0 -135 56t-56 135t56 135t135 56t135 -56t56 -135t-56 -135t-135 -56zM660 1220q43 0 73 30t30 73t-30 73t-73 30t-73 -30t-30 -73t30 -73t73 -30zM349 -18q-137 0 -231.5 81.5t-94.5 207.5q0 151 111 236.5t313 96.5l311 16l14 65q4 17 4 51q0 79 -54 124
t-153 45q-103 0 -166 -45.5t-79 -122.5h-182q24 143 143 232t298 89q166 0 267 -82.5t101 -214.5q0 -46 -7 -88l-143 -673h-167l27 127h-3q-54 -68 -134.5 -106.5t-174.5 -38.5zM395 130q112 0 198.5 65.5t109.5 169.5l26 116l-284 -15q-117 -6 -181.5 -52t-64.5 -125
q0 -72 54 -115.5t142 -43.5z" />
    <glyph glyph-name="ae" unicode="&#xe6;" horiz-adv-x="1735" 
d="M1167 -18q-135 0 -226 61.5t-136 172.5h-4q-153 -234 -446 -234q-140 0 -233.5 84t-93.5 205q0 149 113 237t317 97l310 15l14 65q4 17 4 51q0 76 -56.5 122.5t-155.5 46.5q-102 0 -165 -46t-76 -122h-182q21 141 140 231t297 90q111 0 197.5 -43t129.5 -120h4
q137 163 351 163q185 0 293.5 -118.5t108.5 -320.5q0 -83 -9 -140h-747q-1 -9 -1 -36q0 -140 69 -224t187 -84q101 0 174 48.5t108 136.5h171q-40 -149 -167.5 -243.5t-289.5 -94.5zM937 618h557q1 7 1 28q0 117 -63.5 188.5t-165.5 71.5q-122 0 -207 -77t-122 -211z
M400 130q117 0 204 66.5t109 168.5l26 116l-291 -14q-111 -6 -177.5 -54.5t-66.5 -123.5q0 -69 53.5 -114t142.5 -45z" />
    <glyph glyph-name="ccedilla" unicode="&#xe7;" horiz-adv-x="1031" 
d="M259 -436l25 108q50 -16 108 -16q116 0 116 57q0 63 -125 63h-59l18 86l78 124q-172 22 -264.5 143.5t-92.5 307.5q0 173 67.5 315t190 224t275.5 82q100 0 180.5 -30t130.5 -81.5t76.5 -115.5t26.5 -135v-7h-169q-4 92 -70 154t-177 62q-155 0 -254 -129.5t-99 -332.5
q0 -143 68.5 -225.5t183.5 -82.5q100 0 173.5 52.5t107.5 142.5h171q-33 -132 -138 -226.5t-245 -116.5l-72 -114q72 0 122.5 -40.5t50.5 -115.5q0 -88 -71.5 -132t-182.5 -44q-81 0 -150 23z" />
    <glyph glyph-name="egrave" unicode="&#xe8;" horiz-adv-x="1062" 
d="M560 1190l-121 300h177l75 -300h-131zM491 -20q-206 0 -317 126.5t-111 331.5q0 170 65 311.5t183.5 225t266.5 83.5q194 0 307 -118t113 -321q0 -82 -9 -140h-748q-1 -12 -1 -36q0 -143 68.5 -226.5t184.5 -83.5q102 0 176 50t110 137h171q-41 -147 -168 -243.5
t-291 -96.5zM263 618h557q1 9 1 28q0 109 -61 184.5t-184 75.5q-117 0 -198.5 -80t-114.5 -208z" />
    <glyph glyph-name="eacute" unicode="&#xe9;" horiz-adv-x="1062" 
d="M698 1190h-139l200 300h194zM491 -20q-206 0 -317 126.5t-111 331.5q0 170 65 311.5t183.5 225t266.5 83.5q194 0 307 -118t113 -321q0 -82 -9 -140h-748q-1 -12 -1 -36q0 -143 68.5 -226.5t184.5 -83.5q102 0 176 50t110 137h171q-41 -147 -168 -243.5t-291 -96.5z
M263 618h557q1 9 1 28q0 109 -61 184.5t-184 75.5q-117 0 -198.5 -80t-114.5 -208z" />
    <glyph glyph-name="ecircumflex" unicode="&#xea;" horiz-adv-x="1062" 
d="M744 1490l201 -300h-158l-118 189h-6l-188 -189h-162l297 300h134zM491 -20q-206 0 -317 126.5t-111 331.5q0 170 65 311.5t183.5 225t266.5 83.5q194 0 307 -118t113 -321q0 -82 -9 -140h-748q-1 -12 -1 -36q0 -143 68.5 -226.5t184.5 -83.5q102 0 176 50t110 137h171
q-41 -147 -168 -243.5t-291 -96.5zM263 618h557q1 9 1 28q0 109 -61 184.5t-184 75.5q-117 0 -198.5 -80t-114.5 -208z" />
    <glyph glyph-name="edieresis" unicode="&#xeb;" horiz-adv-x="1062" 
d="M469 1225q-45 0 -77 32t-32 77q0 46 32 77.5t77 31.5q46 0 77.5 -31.5t31.5 -77.5q0 -45 -31.5 -77t-77.5 -32zM843 1225q-45 0 -77 32t-32 77q0 46 32 77.5t77 31.5q46 0 77.5 -31.5t31.5 -77.5q0 -45 -31.5 -77t-77.5 -32zM491 -20q-206 0 -317 126.5t-111 331.5
q0 170 65 311.5t183.5 225t266.5 83.5q194 0 307 -118t113 -321q0 -82 -9 -140h-748q-1 -12 -1 -36q0 -143 68.5 -226.5t184.5 -83.5q102 0 176 50t110 137h171q-41 -147 -168 -243.5t-291 -96.5zM263 618h557q1 9 1 28q0 109 -61 184.5t-184 75.5q-117 0 -198.5 -80
t-114.5 -208z" />
    <glyph glyph-name="igrave" unicode="&#xec;" horiz-adv-x="424" 
d="M290 1190l-121 300h177l75 -300h-131zM13 0l221 1040h176l-221 -1040h-176z" />
    <glyph glyph-name="iacute" unicode="&#xed;" horiz-adv-x="424" 
d="M428 1190h-139l200 300h194zM13 0l221 1040h176l-221 -1040h-176z" />
    <glyph glyph-name="icircumflex" unicode="&#xee;" horiz-adv-x="424" 
d="M474 1490l201 -300h-158l-118 189h-6l-188 -189h-162l297 300h134zM13 0l221 1040h176l-221 -1040h-176z" />
    <glyph glyph-name="idieresis" unicode="&#xef;" horiz-adv-x="424" 
d="M199 1225q-45 0 -77 32t-32 77q0 46 32 77.5t77 31.5q46 0 77.5 -31.5t31.5 -77.5q0 -45 -31.5 -77t-77.5 -32zM573 1225q-45 0 -77 32t-32 77q0 46 32 77.5t77 31.5q46 0 77.5 -31.5t31.5 -77.5q0 -45 -31.5 -77t-77.5 -32zM13 0l221 1040h176l-221 -1040h-176z" />
    <glyph glyph-name="eth" unicode="&#xf0;" horiz-adv-x="1113" 
d="M481 -19q-188 0 -302.5 115.5t-114.5 291.5q0 175 64.5 319.5t179 227.5t254.5 83q111 0 201.5 -53.5t124.5 -137.5h15q-11 222 -154 382l-328 -104l27 131l202 64q-78 56 -171 89l26 118q176 -58 293 -160l290 93l-26 -131l-174 -55q156 -200 156 -505q0 -151 -34 -284
q-60 -226 -199.5 -355t-329.5 -129zM503 132q91 0 174.5 63t134 168t50.5 220q0 125 -79 205t-200 80q-147 0 -245.5 -129t-98.5 -321q0 -132 71 -209t193 -77z" />
    <glyph glyph-name="ntilde" unicode="&#xf1;" horiz-adv-x="1094" 
d="M414 1238q16 98 69.5 159t140.5 61q48 0 85.5 -21.5t57 -47t43.5 -47t47 -21.5q53 0 78 102h128q-16 -99 -69.5 -160.5t-141.5 -61.5q-48 0 -85 21.5t-56 47t-42.5 47t-47.5 21.5q-30 0 -48 -24.5t-30 -75.5h-129zM1 0l221 1040h166l-34 -162h4q53 85 139 132.5t197 47.5
q140 0 235 -87t95 -219q0 -59 -14 -127l-133 -625h-175l127 595q13 61 13 108q0 93 -60 147t-161 54q-114 0 -199 -76t-113 -204l-133 -624h-175z" />
    <glyph glyph-name="ograve" unicode="&#xf2;" horiz-adv-x="1096" 
d="M572 1190l-121 300h177l75 -300h-131zM596 1058q199 0 317.5 -124.5t118.5 -332.5q0 -171 -69.5 -313t-192 -224t-271.5 -82q-199 0 -317.5 124.5t-118.5 332.5q0 171 69.5 313t192 224t271.5 82zM499 135q155 0 256 132t101 329q0 141 -70.5 225t-189.5 84
q-155 0 -256 -132t-101 -329q0 -141 70.5 -225t189.5 -84z" />
    <glyph glyph-name="oacute" unicode="&#xf3;" horiz-adv-x="1096" 
d="M710 1190h-139l200 300h194zM596 1058q199 0 317.5 -124.5t118.5 -332.5q0 -171 -69.5 -313t-192 -224t-271.5 -82q-199 0 -317.5 124.5t-118.5 332.5q0 171 69.5 313t192 224t271.5 82zM499 135q155 0 256 132t101 329q0 141 -70.5 225t-189.5 84q-155 0 -256 -132
t-101 -329q0 -141 70.5 -225t189.5 -84z" />
    <glyph glyph-name="ocircumflex" unicode="&#xf4;" horiz-adv-x="1096" 
d="M756 1490l201 -300h-158l-118 189h-6l-188 -189h-162l297 300h134zM596 1058q199 0 317.5 -124.5t118.5 -332.5q0 -171 -69.5 -313t-192 -224t-271.5 -82q-199 0 -317.5 124.5t-118.5 332.5q0 171 69.5 313t192 224t271.5 82zM499 135q155 0 256 132t101 329
q0 141 -70.5 225t-189.5 84q-155 0 -256 -132t-101 -329q0 -141 70.5 -225t189.5 -84z" />
    <glyph glyph-name="otilde" unicode="&#xf5;" horiz-adv-x="1096" 
d="M348 1238q16 98 69.5 159t140.5 61q48 0 85.5 -21.5t57 -47t43.5 -47t47 -21.5q53 0 78 102h128q-16 -99 -69.5 -160.5t-141.5 -61.5q-48 0 -85 21.5t-56 47t-42.5 47t-47.5 21.5q-30 0 -48 -24.5t-30 -75.5h-129zM596 1058q199 0 317.5 -124.5t118.5 -332.5
q0 -171 -69.5 -313t-192 -224t-271.5 -82q-199 0 -317.5 124.5t-118.5 332.5q0 171 69.5 313t192 224t271.5 82zM499 135q155 0 256 132t101 329q0 141 -70.5 225t-189.5 84q-155 0 -256 -132t-101 -329q0 -141 70.5 -225t189.5 -84z" />
    <glyph glyph-name="odieresis" unicode="&#xf6;" horiz-adv-x="1096" 
d="M481 1225q-45 0 -77 32t-32 77q0 46 32 77.5t77 31.5q46 0 77.5 -31.5t31.5 -77.5q0 -45 -31.5 -77t-77.5 -32zM855 1225q-45 0 -77 32t-32 77q0 46 32 77.5t77 31.5q46 0 77.5 -31.5t31.5 -77.5q0 -45 -31.5 -77t-77.5 -32zM596 1058q199 0 317.5 -124.5t118.5 -332.5
q0 -171 -69.5 -313t-192 -224t-271.5 -82q-199 0 -317.5 124.5t-118.5 332.5q0 171 69.5 313t192 224t271.5 82zM499 135q155 0 256 132t101 329q0 141 -70.5 225t-189.5 84q-155 0 -256 -132t-101 -329q0 -141 70.5 -225t189.5 -84z" />
    <glyph glyph-name="divide" unicode="&#xf7;" horiz-adv-x="1238" 
d="M713 844q-48 0 -81 33t-33 81t33 81t81 33t81 -33t33 -81t-33 -81t-81 -33zM1096 493h-966l32 152h966zM548 65q-48 0 -81 33t-33 81t33 81t81 33t81 -33t33 -81t-33 -81t-81 -33z" />
    <glyph glyph-name="oslash" unicode="&#xf8;" horiz-adv-x="1096" 
d="M2 61l123 123q-62 108 -62 255q0 171 69.5 313t192 224t271.5 82q180 0 298 -105l112 112l87 -86l-123 -123q62 -108 62 -255q0 -171 -69.5 -313t-192 -224t-271.5 -82q-180 0 -298 105l-112 -112zM239 444q0 -71 18 -128l517 517q-69 72 -178 72q-155 0 -256 -132
t-101 -329zM499 135q155 0 256 132t101 329q0 71 -18 128l-517 -517q69 -72 178 -72z" />
    <glyph glyph-name="ugrave" unicode="&#xf9;" horiz-adv-x="1093" 
d="M614 1190l-121 300h177l75 -300h-131zM1091 1040l-221 -1040h-166l33 146h-4q-42 -64 -136.5 -114t-205.5 -50q-146 0 -233 83t-87 207q0 76 15 148l130 620h176l-127 -595q-14 -67 -14 -118q0 -98 51 -144.5t157 -46.5q122 0 210 78t115 202l133 624h174z" />
    <glyph glyph-name="uacute" unicode="&#xfa;" horiz-adv-x="1093" 
d="M752 1190h-139l200 300h194zM1091 1040l-221 -1040h-166l33 146h-4q-42 -64 -136.5 -114t-205.5 -50q-146 0 -233 83t-87 207q0 76 15 148l130 620h176l-127 -595q-14 -67 -14 -118q0 -98 51 -144.5t157 -46.5q122 0 210 78t115 202l133 624h174z" />
    <glyph glyph-name="ucircumflex" unicode="&#xfb;" horiz-adv-x="1093" 
d="M798 1490l201 -300h-158l-118 189h-6l-188 -189h-162l297 300h134zM1091 1040l-221 -1040h-166l33 146h-4q-42 -64 -136.5 -114t-205.5 -50q-146 0 -233 83t-87 207q0 76 15 148l130 620h176l-127 -595q-14 -67 -14 -118q0 -98 51 -144.5t157 -46.5q122 0 210 78t115 202
l133 624h174z" />
    <glyph glyph-name="udieresis" unicode="&#xfc;" horiz-adv-x="1093" 
d="M523 1225q-45 0 -77 32t-32 77q0 46 32 77.5t77 31.5q46 0 77.5 -31.5t31.5 -77.5q0 -45 -31.5 -77t-77.5 -32zM897 1225q-45 0 -77 32t-32 77q0 46 32 77.5t77 31.5q46 0 77.5 -31.5t31.5 -77.5q0 -45 -31.5 -77t-77.5 -32zM1091 1040l-221 -1040h-166l33 146h-4
q-42 -64 -136.5 -114t-205.5 -50q-146 0 -233 83t-87 207q0 76 15 148l130 620h176l-127 -595q-14 -67 -14 -118q0 -98 51 -144.5t157 -46.5q122 0 210 78t115 202l133 624h174z" />
    <glyph glyph-name="yacute" unicode="&#xfd;" horiz-adv-x="976" 
d="M691 1190h-139l200 300h194zM52 -379q-67 0 -118 17l26 145q39 -16 94 -16q122 0 208 171l34 68l-170 1034h172l125 -848h3l452 848h192l-650 -1154q-86 -152 -170 -208.5t-198 -56.5z" />
    <glyph glyph-name="thorn" unicode="&#xfe;" horiz-adv-x="1141" 
d="M222 210l-118 -556h-173l383 1799h173l-125 -581h3q48 83 136 134.5t187 51.5q177 0 280.5 -122t103.5 -328q0 -177 -68 -320.5t-186 -224.5t-263 -81q-119 0 -208.5 64t-120.5 164h-4zM551 136q150 0 250 130t100 330q0 146 -67 227.5t-186 81.5q-109 0 -193.5 -67
t-127.5 -175t-43 -235q0 -129 73 -210.5t194 -81.5z" />
    <glyph glyph-name="ydieresis" unicode="&#xff;" horiz-adv-x="976" 
d="M462 1225q-45 0 -77 32t-32 77q0 46 32 77.5t77 31.5q46 0 77.5 -31.5t31.5 -77.5q0 -45 -31.5 -77t-77.5 -32zM836 1225q-45 0 -77 32t-32 77q0 46 32 77.5t77 31.5q46 0 77.5 -31.5t31.5 -77.5q0 -45 -31.5 -77t-77.5 -32zM52 -379q-67 0 -118 17l26 145q39 -16 94 -16
q122 0 208 171l34 68l-170 1034h172l125 -848h3l452 848h192l-650 -1154q-86 -152 -170 -208.5t-198 -56.5z" />
    <glyph glyph-name="Amacron" unicode="&#x100;" horiz-adv-x="1291" 
d="M1192 1768l-26 -121h-575l26 121h575zM984 0l-59 413h-579l-234 -413h-198l836 1443h181l224 -1443h-171zM799 1224l-368 -658h471l-99 658h-4z" />
    <glyph glyph-name="amacron" unicode="&#x101;" horiz-adv-x="1018" 
d="M961 1385l-26 -121h-575l26 121h575zM349 -18q-137 0 -231.5 81.5t-94.5 207.5q0 151 111 236.5t313 96.5l311 16l14 65q4 17 4 51q0 79 -54 124t-153 45q-103 0 -166 -45.5t-79 -122.5h-182q24 143 143 232t298 89q166 0 267 -82.5t101 -214.5q0 -46 -7 -88l-143 -673
h-167l27 127h-3q-54 -68 -134.5 -106.5t-174.5 -38.5zM395 130q112 0 198.5 65.5t109.5 169.5l26 116l-284 -15q-117 -6 -181.5 -52t-64.5 -125q0 -72 54 -115.5t142 -43.5z" />
    <glyph glyph-name="Abreve" unicode="&#x102;" horiz-adv-x="1291" 
d="M879 1542q-59 0 -108.5 14.5t-81.5 38t-56.5 55t-33.5 65t-13 67.5t5 64h119q-10 -80 35 -136t141 -56q87 0 145.5 50.5t71.5 141.5h125q-14 -137 -107.5 -220.5t-241.5 -83.5zM984 0l-59 413h-579l-234 -413h-198l836 1443h181l224 -1443h-171zM799 1224l-368 -658h471
l-99 658h-4z" />
    <glyph glyph-name="abreve" unicode="&#x103;" horiz-adv-x="1018" 
d="M644 1180q-57 0 -105 14.5t-79 38t-54.5 55t-33 66t-13 69t5.5 65.5h123q-10 -82 31.5 -139t131.5 -57q81 0 136.5 51t67.5 145h129q-14 -140 -105 -224t-235 -84zM349 -18q-137 0 -231.5 81.5t-94.5 207.5q0 151 111 236.5t313 96.5l311 16l14 65q4 17 4 51
q0 79 -54 124t-153 45q-103 0 -166 -45.5t-79 -122.5h-182q24 143 143 232t298 89q166 0 267 -82.5t101 -214.5q0 -46 -7 -88l-143 -673h-167l27 127h-3q-54 -68 -134.5 -106.5t-174.5 -38.5zM395 130q112 0 198.5 65.5t109.5 169.5l26 116l-284 -15q-117 -6 -181.5 -52
t-64.5 -125q0 -72 54 -115.5t142 -43.5z" />
    <glyph glyph-name="Aogonek" unicode="&#x104;" horiz-adv-x="1291" 
d="M1077 -288l-25 -118q-30 -21 -111 -21q-85 0 -136.5 41t-51.5 108q0 142 230 283l-61 408h-579l-231 -413h-198l833 1443h181l224 -1427l-22 -13q-109 -64 -165 -123.5t-56 -107.5q0 -35 25 -54t70 -19q44 0 73 13zM796 1224l-368 -658h471l-99 658h-4z" />
    <glyph glyph-name="aogonek" unicode="&#x105;" horiz-adv-x="1018" 
d="M349 -18q-137 0 -231.5 81.5t-94.5 207.5q0 151 111 236.5t313 96.5l311 16l14 65q4 17 4 51q0 79 -54 124t-153 45q-103 0 -166 -45.5t-79 -122.5h-182q24 143 143 232t298 89q166 0 267 -82.5t101 -214.5q0 -46 -7 -88l-143 -673q-96 -37 -167.5 -98.5t-71.5 -118.5
q0 -33 25.5 -50t68.5 -17q32 0 69 8l-28 -129q-36 -9 -78 -9q-90 0 -146 47t-56 122q0 79 62.5 151t158.5 112l23 109h-3q-54 -68 -134.5 -106.5t-174.5 -38.5zM395 130q112 0 198.5 65.5t109.5 169.5l26 116l-284 -15q-117 -6 -181.5 -52t-64.5 -125q0 -72 54 -115.5
t142 -43.5z" />
    <glyph glyph-name="Cacute" unicode="&#x106;" horiz-adv-x="1402" 
d="M961 1562h-139l206 289h193zM1241 978q0 8 -2 24q-15 139 -117.5 219t-256.5 80q-161 0 -287.5 -89t-196 -246.5t-69.5 -355.5q0 -217 109.5 -342.5t300.5 -125.5q145 0 256 74t162 204h182q-59 -202 -223 -322.5t-379 -120.5q-272 0 -432.5 170t-160.5 457
q0 242 94.5 439t264.5 310t381 113q236 0 388.5 -125t166.5 -336q1 -15 1 -27h-182z" />
    <glyph glyph-name="cacute" unicode="&#x107;" horiz-adv-x="1031" 
d="M712 1190h-139l200 300h194zM596 1058q100 0 180.5 -30t130.5 -81.5t76.5 -115.5t26.5 -135v-7h-169q-4 92 -70 154t-177 62q-155 0 -254 -129.5t-99 -332.5q0 -143 68.5 -225.5t183.5 -82.5q100 0 173.5 52.5t107.5 142.5h171q-38 -150 -165 -249t-289 -99
q-205 0 -316.5 125t-111.5 330q0 173 67.5 315t190 224t275.5 82z" />
    <glyph glyph-name="Ccircumflex" unicode="&#x108;" horiz-adv-x="1402" 
d="M1009 1860l221 -298h-158l-138 190h-6l-208 -190h-162l317 298h134zM1241 978q0 8 -2 24q-15 139 -117.5 219t-256.5 80q-161 0 -287.5 -89t-196 -246.5t-69.5 -355.5q0 -217 109.5 -342.5t300.5 -125.5q145 0 256 74t162 204h182q-59 -202 -223 -322.5t-379 -120.5
q-272 0 -432.5 170t-160.5 457q0 242 94.5 439t264.5 310t381 113q236 0 388.5 -125t166.5 -336q1 -15 1 -27h-182z" />
    <glyph glyph-name="ccircumflex" unicode="&#x109;" horiz-adv-x="1031" 
d="M758 1490l201 -300h-158l-118 189h-6l-188 -189h-162l297 300h134zM596 1058q100 0 180.5 -30t130.5 -81.5t76.5 -115.5t26.5 -135v-7h-169q-4 92 -70 154t-177 62q-155 0 -254 -129.5t-99 -332.5q0 -143 68.5 -225.5t183.5 -82.5q100 0 173.5 52.5t107.5 142.5h171
q-38 -150 -165 -249t-289 -99q-205 0 -316.5 125t-111.5 330q0 173 67.5 315t190 224t275.5 82z" />
    <glyph glyph-name="Cdotaccent" unicode="&#x10a;" horiz-adv-x="1402" 
d="M924 1610q-45 0 -77 32t-32 77q0 46 32 77.5t77 31.5q46 0 77.5 -31.5t31.5 -77.5q0 -45 -31.5 -77t-77.5 -32zM1241 978q0 8 -2 24q-15 139 -117.5 219t-256.5 80q-161 0 -287.5 -89t-196 -246.5t-69.5 -355.5q0 -217 109.5 -342.5t300.5 -125.5q145 0 256 74t162 204
h182q-59 -202 -223 -322.5t-379 -120.5q-272 0 -432.5 170t-160.5 457q0 242 94.5 439t264.5 310t381 113q236 0 388.5 -125t166.5 -336q1 -15 1 -27h-182z" />
    <glyph glyph-name="cdotaccent" unicode="&#x10b;" horiz-adv-x="1031" 
d="M670 1225q-45 0 -77 32t-32 77q0 46 32 77.5t77 31.5q46 0 77.5 -31.5t31.5 -77.5q0 -45 -31.5 -77t-77.5 -32zM596 1058q100 0 180.5 -30t130.5 -81.5t76.5 -115.5t26.5 -135v-7h-169q-4 92 -70 154t-177 62q-155 0 -254 -129.5t-99 -332.5q0 -143 68.5 -225.5
t183.5 -82.5q100 0 173.5 52.5t107.5 142.5h171q-38 -150 -165 -249t-289 -99q-205 0 -316.5 125t-111.5 330q0 173 67.5 315t190 224t275.5 82z" />
    <glyph glyph-name="Ccaron" unicode="&#x10c;" horiz-adv-x="1402" 
d="M842 1562l-221 298h158l138 -190h6l208 190h162l-317 -298h-134zM1241 978q0 8 -2 24q-15 139 -117.5 219t-256.5 80q-161 0 -287.5 -89t-196 -246.5t-69.5 -355.5q0 -217 109.5 -342.5t300.5 -125.5q145 0 256 74t162 204h182q-59 -202 -223 -322.5t-379 -120.5
q-272 0 -432.5 170t-160.5 457q0 242 94.5 439t264.5 310t381 113q236 0 388.5 -125t166.5 -336q1 -15 1 -27h-182z" />
    <glyph glyph-name="ccaron" unicode="&#x10d;" horiz-adv-x="1031" 
d="M592 1190l-201 300h158l118 -189h6l188 189h162l-297 -300h-134zM596 1058q100 0 180.5 -30t130.5 -81.5t76.5 -115.5t26.5 -135v-7h-169q-4 92 -70 154t-177 62q-155 0 -254 -129.5t-99 -332.5q0 -143 68.5 -225.5t183.5 -82.5q100 0 173.5 52.5t107.5 142.5h171
q-38 -150 -165 -249t-289 -99q-205 0 -316.5 125t-111.5 330q0 173 67.5 315t190 224t275.5 82z" />
    <glyph glyph-name="Dcaron" unicode="&#x10e;" horiz-adv-x="1413" 
d="M722 1560l-221 298h158l138 -190h6l208 190h162l-317 -298h-134zM336 1443h420q288 0 450 -155.5t162 -432.5q0 -250 -98 -445t-275 -302.5t-404 -107.5h-560zM486 1283l-239 -1123h330q174 0 312 86t215.5 239.5t77.5 347.5q0 223 -115.5 336.5t-341.5 113.5h-239z" />
    <glyph glyph-name="dcaron" unicode="&#x10f;" horiz-adv-x="1507" 
d="M1365 1498h158l-140 -470h-120zM451 -18q-178 0 -282.5 122.5t-104.5 325.5q0 177 68.5 321t188 225.5t264.5 81.5q122 0 215.5 -67t118.5 -165h5l133 617h174l-307 -1443h-175l35 166h-4q-48 -80 -138.5 -132t-190.5 -52zM491 135q157 0 260.5 136t103.5 341
q0 130 -73 211t-195 81q-150 0 -249.5 -131t-99.5 -335q0 -141 67 -222t186 -81z" />
    <glyph glyph-name="Dcroat" unicode="&#x110;" horiz-adv-x="1413" 
d="M36 663l34 162h135l131 618h420q288 0 450 -155.5t162 -432.5q0 -250 -98 -445t-275 -302.5t-404 -107.5h-560l140 663h-135zM486 1283l-97 -458h332l-35 -162h-332l-107 -503h330q174 0 312 86t215.5 239.5t77.5 347.5q0 223 -115.5 336.5t-341.5 113.5h-239z" />
    <glyph glyph-name="dcroat" unicode="&#x111;" horiz-adv-x="1151" 
d="M451 -18q-178 0 -282.5 122.5t-104.5 325.5q0 177 68.5 321t188 225.5t264.5 81.5q122 0 215.5 -67t118.5 -165h5l85 394h-244l26 124h245l21 99h174l-21 -99h154l-27 -124h-153l-260 -1220h-175l35 166h-4q-48 -80 -138.5 -132t-190.5 -52zM491 135q157 0 260.5 136
t103.5 341q0 130 -73 211t-195 81q-150 0 -249.5 -131t-99.5 -335q0 -141 67 -222t186 -81z" />
    <glyph glyph-name="Emacron" unicode="&#x112;" horiz-adv-x="1134" 
d="M1140 1768l-26 -121h-575l26 121h575zM959 162l-34 -162h-896l307 1443h896l-35 -162h-711l-99 -463h674l-34 -160h-674l-105 -496h711z" />
    <glyph glyph-name="emacron" unicode="&#x113;" horiz-adv-x="1062" 
d="M954 1385l-26 -121h-575l26 121h575zM491 -20q-206 0 -317 126.5t-111 331.5q0 170 65 311.5t183.5 225t266.5 83.5q194 0 307 -118t113 -321q0 -82 -9 -140h-748q-1 -12 -1 -36q0 -143 68.5 -226.5t184.5 -83.5q102 0 176 50t110 137h171q-41 -147 -168 -243.5
t-291 -96.5zM263 618h557q1 9 1 28q0 109 -61 184.5t-184 75.5q-117 0 -198.5 -80t-114.5 -208z" />
    <glyph glyph-name="Ebreve" unicode="&#x114;" horiz-adv-x="1134" 
d="M827 1542q-59 0 -108.5 14.5t-81.5 38t-56.5 55t-33.5 65t-13 67.5t5 64h119q-10 -80 35 -136t141 -56q87 0 145.5 50.5t71.5 141.5h125q-14 -137 -107.5 -220.5t-241.5 -83.5zM959 162l-34 -162h-896l307 1443h896l-35 -162h-711l-99 -463h674l-34 -160h-674l-105 -496
h711z" />
    <glyph glyph-name="ebreve" unicode="&#x115;" horiz-adv-x="1062" 
d="M637 1180q-57 0 -105 14.5t-79 38t-54.5 55t-33 66t-13 69t5.5 65.5h123q-10 -82 31.5 -139t131.5 -57q81 0 136.5 51t67.5 145h129q-14 -140 -105 -224t-235 -84zM491 -20q-206 0 -317 126.5t-111 331.5q0 170 65 311.5t183.5 225t266.5 83.5q194 0 307 -118t113 -321
q0 -82 -9 -140h-748q-1 -12 -1 -36q0 -143 68.5 -226.5t184.5 -83.5q102 0 176 50t110 137h171q-41 -147 -168 -243.5t-291 -96.5zM263 618h557q1 9 1 28q0 109 -61 184.5t-184 75.5q-117 0 -198.5 -80t-114.5 -208z" />
    <glyph glyph-name="Edotaccent" unicode="&#x116;" horiz-adv-x="1134" 
d="M842 1608q-45 0 -77 32t-32 77q0 46 32 77.5t77 31.5q46 0 77.5 -31.5t31.5 -77.5q0 -45 -31.5 -77t-77.5 -32zM959 162l-34 -162h-896l307 1443h896l-35 -162h-711l-99 -463h674l-34 -160h-674l-105 -496h711z" />
    <glyph glyph-name="edotaccent" unicode="&#x117;" horiz-adv-x="1062" 
d="M656 1225q-45 0 -77 32t-32 77q0 46 32 77.5t77 31.5q46 0 77.5 -31.5t31.5 -77.5q0 -45 -31.5 -77t-77.5 -32zM491 -20q-206 0 -317 126.5t-111 331.5q0 170 65 311.5t183.5 225t266.5 83.5q194 0 307 -118t113 -321q0 -82 -9 -140h-748q-1 -12 -1 -36
q0 -143 68.5 -226.5t184.5 -83.5q102 0 176 50t110 137h171q-41 -147 -168 -243.5t-291 -96.5zM263 618h557q1 9 1 28q0 109 -61 184.5t-184 75.5q-117 0 -198.5 -80t-114.5 -208z" />
    <glyph glyph-name="Eogonek" unicode="&#x118;" horiz-adv-x="1134" 
d="M29 0l307 1443h896l-35 -162h-711l-100 -463h675l-34 -160h-674l-106 -496h712l-31 -148l-18 -11q-221 -135 -221 -231q0 -35 25 -54t70 -19q44 0 73 13l-25 -118q-30 -21 -111 -21q-85 0 -136.5 41t-51.5 108q0 71 56.5 141.5t162.5 132.5v4h-723z" />
    <glyph glyph-name="eogonek" unicode="&#x119;" horiz-adv-x="1062" 
d="M512 -412q-85 0 -136.5 41t-51.5 109q0 135 173 239v3h-6q-206 0 -317 126.5t-111 331.5q0 170 65 311.5t183.5 225t266.5 83.5q194 0 307 -118t113 -321q0 -82 -9 -140h-748q-1 -12 -1 -36q0 -143 68.5 -226.5t184.5 -83.5q102 0 176 50t110 137h171q-48 -171 -176 -245
q-140 -81 -217 -156t-77 -131q0 -35 25 -54.5t70 -19.5q47 0 73 13l-25 -118q-30 -21 -111 -21zM263 618h557q1 9 1 28q0 109 -61 184.5t-184 75.5q-117 0 -198.5 -80t-114.5 -208z" />
    <glyph glyph-name="Ecaron" unicode="&#x11a;" horiz-adv-x="1134" 
d="M760 1560l-221 298h158l138 -190h6l208 190h162l-317 -298h-134zM959 162l-34 -162h-896l307 1443h896l-35 -162h-711l-99 -463h674l-34 -160h-674l-105 -496h711z" />
    <glyph glyph-name="ecaron" unicode="&#x11b;" horiz-adv-x="1062" 
d="M578 1190l-201 300h158l118 -189h6l188 189h162l-297 -300h-134zM491 -20q-206 0 -317 126.5t-111 331.5q0 170 65 311.5t183.5 225t266.5 83.5q194 0 307 -118t113 -321q0 -82 -9 -140h-748q-1 -12 -1 -36q0 -143 68.5 -226.5t184.5 -83.5q102 0 176 50t110 137h171
q-41 -147 -168 -243.5t-291 -96.5zM263 618h557q1 9 1 28q0 109 -61 184.5t-184 75.5q-117 0 -198.5 -80t-114.5 -208z" />
    <glyph glyph-name="Gcircumflex" unicode="&#x11c;" horiz-adv-x="1454" 
d="M1015 1858l221 -298h-158l-138 190h-6l-208 -190h-162l317 298h134zM1411 736l-47 -221q-55 -254 -227 -396t-416 -142q-277 0 -436 172.5t-159 454.5q0 120 27 239t86.5 232t144.5 199.5t210.5 139t274.5 52.5q250 0 401 -136t157 -353v-14h-182q-10 155 -110 246
t-266 91q-116 0 -211.5 -42t-158.5 -111t-106.5 -160t-62.5 -185.5t-19 -191.5q0 -213 107.5 -340.5t302.5 -127.5q175 0 301 104t160 277l11 55h-400l34 158h584z" />
    <glyph glyph-name="gcircumflex" unicode="&#x11d;" horiz-adv-x="1140" 
d="M818 1490l201 -300h-158l-118 189h-6l-188 -189h-162l297 300h134zM411 -392q-180 0 -301 86.5t-121 219.5h179q11 -72 76.5 -115t166.5 -43q271 0 343 295l32 132h-4q-48 -81 -138.5 -132t-188.5 -51q-177 0 -284 120.5t-107 322.5q0 117 34.5 226.5t98.5 197.5
t165 140.5t223 50.5t213.5 -69.5t118.5 -170.5h5l44 222h171l-208 -986q-46 -219 -182.5 -332.5t-335.5 -113.5zM494 153q109 0 192.5 63.5t126 167t42.5 228.5q0 127 -76.5 209.5t-190.5 82.5q-157 0 -253.5 -130t-96.5 -327q0 -134 66.5 -214t189.5 -80z" />
    <glyph glyph-name="Gbreve" unicode="&#x11e;" horiz-adv-x="1454" 
d="M915 1542q-59 0 -108.5 14.5t-81.5 38t-56.5 55t-33.5 65t-13 67.5t5 64h119q-10 -80 35 -136t141 -56q87 0 145.5 50.5t71.5 141.5h125q-14 -137 -107.5 -220.5t-241.5 -83.5zM1411 736l-47 -221q-55 -254 -227 -396t-416 -142q-277 0 -436 172.5t-159 454.5
q0 120 27 239t86.5 232t144.5 199.5t210.5 139t274.5 52.5q250 0 401 -136t157 -353v-14h-182q-10 155 -110 246t-266 91q-116 0 -211.5 -42t-158.5 -111t-106.5 -160t-62.5 -185.5t-19 -191.5q0 -213 107.5 -340.5t302.5 -127.5q175 0 301 104t160 277l11 55h-400l34 158
h584z" />
    <glyph glyph-name="gbreve" unicode="&#x11f;" horiz-adv-x="1140" 
d="M711 1180q-57 0 -105 14.5t-79 38t-54.5 55t-33 66t-13 69t5.5 65.5h123q-10 -82 31.5 -139t131.5 -57q81 0 136.5 51t67.5 145h129q-14 -140 -105 -224t-235 -84zM411 -392q-180 0 -301 86.5t-121 219.5h179q11 -72 76.5 -115t166.5 -43q271 0 343 295l32 132h-4
q-48 -81 -138.5 -132t-188.5 -51q-177 0 -284 120.5t-107 322.5q0 117 34.5 226.5t98.5 197.5t165 140.5t223 50.5t213.5 -69.5t118.5 -170.5h5l44 222h171l-208 -986q-46 -219 -182.5 -332.5t-335.5 -113.5zM494 153q109 0 192.5 63.5t126 167t42.5 228.5
q0 127 -76.5 209.5t-190.5 82.5q-157 0 -253.5 -130t-96.5 -327q0 -134 66.5 -214t189.5 -80z" />
    <glyph glyph-name="Gdotaccent" unicode="&#x120;" horiz-adv-x="1454" 
d="M930 1608q-45 0 -77 32t-32 77q0 46 32 77.5t77 31.5q46 0 77.5 -31.5t31.5 -77.5q0 -45 -31.5 -77t-77.5 -32zM1411 736l-47 -221q-55 -254 -227 -396t-416 -142q-277 0 -436 172.5t-159 454.5q0 120 27 239t86.5 232t144.5 199.5t210.5 139t274.5 52.5q250 0 401 -136
t157 -353v-14h-182q-10 155 -110 246t-266 91q-116 0 -211.5 -42t-158.5 -111t-106.5 -160t-62.5 -185.5t-19 -191.5q0 -213 107.5 -340.5t302.5 -127.5q175 0 301 104t160 277l11 55h-400l34 158h584z" />
    <glyph glyph-name="gdotaccent" unicode="&#x121;" horiz-adv-x="1140" 
d="M730 1225q-45 0 -77 32t-32 77q0 46 32 77.5t77 31.5q46 0 77.5 -31.5t31.5 -77.5q0 -45 -31.5 -77t-77.5 -32zM411 -392q-180 0 -301 86.5t-121 219.5h179q11 -72 76.5 -115t166.5 -43q271 0 343 295l32 132h-4q-48 -81 -138.5 -132t-188.5 -51q-177 0 -284 120.5
t-107 322.5q0 117 34.5 226.5t98.5 197.5t165 140.5t223 50.5t213.5 -69.5t118.5 -170.5h5l44 222h171l-208 -986q-46 -219 -182.5 -332.5t-335.5 -113.5zM494 153q109 0 192.5 63.5t126 167t42.5 228.5q0 127 -76.5 209.5t-190.5 82.5q-157 0 -253.5 -130t-96.5 -327
q0 -134 66.5 -214t189.5 -80z" />
    <glyph glyph-name="Gcommaaccent" unicode="&#x122;" horiz-adv-x="1454" 
d="M1411 736l-47 -221q-55 -254 -227 -396t-416 -142q-277 0 -436 172.5t-159 454.5q0 120 27 239t86.5 232t144.5 199.5t210.5 139t274.5 52.5q250 0 401 -136t157 -353v-14h-182q-10 155 -110 246t-266 91q-116 0 -211.5 -42t-158.5 -111t-106.5 -160t-62.5 -185.5
t-19 -191.5q0 -213 107.5 -340.5t302.5 -127.5q175 0 301 104t160 277l11 55h-400l34 158h584zM593 -486h-132l153 359h152z" />
    <glyph glyph-name="gcommaaccent" unicode="&#x123;" horiz-adv-x="1140" 
d="M788 1549h132l-153 -359h-152zM411 -392q-180 0 -301 86.5t-121 219.5h179q11 -72 76.5 -115t166.5 -43q271 0 343 295l32 132h-4q-48 -81 -138.5 -132t-188.5 -51q-177 0 -284 120.5t-107 322.5q0 117 34.5 226.5t98.5 197.5t165 140.5t223 50.5t213.5 -69.5
t118.5 -170.5h5l44 222h171l-208 -986q-46 -219 -182.5 -332.5t-335.5 -113.5zM494 153q109 0 192.5 63.5t126 167t42.5 228.5q0 127 -76.5 209.5t-190.5 82.5q-157 0 -253.5 -130t-96.5 -327q0 -134 66.5 -214t189.5 -80z" />
    <glyph glyph-name="Hcircumflex" unicode="&#x124;" horiz-adv-x="1436" 
d="M1049 1858l221 -298h-158l-138 190h-6l-208 -190h-162l317 298h134zM1185 0h-184l140 657h-788l-140 -657h-184l307 1443h184l-133 -624h788l133 624h184z" />
    <glyph glyph-name="hcircumflex" unicode="&#x125;" horiz-adv-x="1110" 
d="M543 1858l221 -298h-158l-138 190h-6l-208 -190h-162l317 298h134zM5 0l307 1443h175l-120 -565h4q47 78 134.5 129t201.5 51q148 0 240.5 -92t92.5 -220q0 -54 -14 -121l-137 -625h-175l131 595q13 62 13 102q0 93 -60.5 150t-164.5 57q-119 0 -206 -77.5t-114 -202.5
l-133 -624h-175z" />
    <glyph glyph-name="Hbar" unicode="&#x126;" horiz-adv-x="1436" 
d="M110 1069l30 142h147l49 232h184l-49 -232h788l49 232h184l-49 -232h142l-30 -142h-143l-227 -1069h-184l140 657h-788l-140 -657h-184l227 1069h-146zM387 819h788l53 250h-788z" />
    <glyph glyph-name="hbar" unicode="&#x127;" horiz-adv-x="1110" 
d="M5 0l260 1220h-117l26 124h117l21 99h175l-21 -99h286l-27 -124h-285l-73 -342h4q47 78 134.5 129t201.5 51q148 0 240.5 -92t92.5 -220q0 -54 -14 -121l-137 -625h-175l131 595q13 62 13 102q0 93 -60.5 150t-164.5 57q-119 0 -206 -77.5t-114 -202.5l-133 -624h-175z
" />
    <glyph glyph-name="Itilde" unicode="&#x128;" horiz-adv-x="464" 
d="M167 1621q16 98 69.5 159t140.5 61q48 0 85.5 -21.5t57 -47t43.5 -47t47 -21.5q53 0 78 102h128q-16 -99 -69.5 -160.5t-141.5 -61.5q-48 0 -85 21.5t-56 47t-42.5 47t-47.5 21.5q-30 0 -48 -24.5t-30 -75.5h-129zM213 0h-184l307 1443h184z" />
    <glyph glyph-name="itilde" unicode="&#x129;" horiz-adv-x="424" 
d="M66 1238q16 98 69.5 159t140.5 61q48 0 85.5 -21.5t57 -47t43.5 -47t47 -21.5q53 0 78 102h128q-16 -99 -69.5 -160.5t-141.5 -61.5q-48 0 -85 21.5t-56 47t-42.5 47t-47.5 21.5q-30 0 -48 -24.5t-30 -75.5h-129zM13 0l221 1040h176l-221 -1040h-176z" />
    <glyph glyph-name="Imacron" unicode="&#x12a;" horiz-adv-x="464" 
d="M785 1768l-26 -121h-575l26 121h575zM213 0h-184l307 1443h184z" />
    <glyph glyph-name="imacron" unicode="&#x12b;" horiz-adv-x="424" 
d="M658 1385l-26 -121h-489l26 121h489zM13 0l221 1040h176l-221 -1040h-176z" />
    <glyph glyph-name="Ibreve" unicode="&#x12c;" horiz-adv-x="464" 
d="M472 1542q-59 0 -108.5 14.5t-81.5 38t-56.5 55t-33.5 65t-13 67.5t5 64h119q-10 -80 35 -136t141 -56q87 0 145.5 50.5t71.5 141.5h125q-14 -137 -107.5 -220.5t-241.5 -83.5zM213 0h-184l307 1443h184z" />
    <glyph glyph-name="ibreve" unicode="&#x12d;" horiz-adv-x="424" 
d="M367 1180q-57 0 -105 14.5t-79 38t-54.5 55t-33 66t-13 69t5.5 65.5h123q-10 -82 31.5 -139t131.5 -57q81 0 136.5 51t67.5 145h129q-14 -140 -105 -224t-235 -84zM13 0l221 1040h176l-221 -1040h-176z" />
    <glyph glyph-name="Iogonek" unicode="&#x12e;" horiz-adv-x="464" 
d="M49 -427q-85 0 -136.5 41t-51.5 108q0 61 39.5 123.5t124.5 136.5l311 1461h184l-303 -1425l-17 -12q-100 -71 -141.5 -125t-41.5 -105q0 -37 25 -57t70 -20q50 0 73 13l-25 -118q-30 -21 -111 -21z" />
    <glyph glyph-name="iogonek" unicode="&#x12f;" horiz-adv-x="400" 
d="M369 1215q-45 0 -77 32t-32 77t32 77t77 32t77 -32t32 -77t-32 -77t-77 -32zM134 -391q-30 -21 -111 -21q-85 0 -136.5 41t-51.5 109q0 67 39.5 128t124.5 126l223 1048h176l-220 -1034l-24 -14q-71 -41 -117 -99t-46 -105q0 -35 25 -54.5t70 -19.5q46 0 73 13z" />
    <glyph glyph-name="Idotaccent" unicode="&#x130;" horiz-adv-x="464" 
d="M487 1608q-45 0 -77 32t-32 77q0 46 32 77.5t77 31.5q46 0 77.5 -31.5t31.5 -77.5q0 -45 -31.5 -77t-77.5 -32zM213 0h-184l307 1443h184z" />
    <glyph glyph-name="dotlessi" unicode="&#x131;" horiz-adv-x="424" 
d="M13 0l221 1040h176l-221 -1040h-176z" />
    <glyph glyph-name="IJ" unicode="&#x132;" horiz-adv-x="1490" 
d="M213 0h-184l307 1443h184zM478 330v22h182v-1q0 -96 60 -151t162 -55q104 0 168.5 66.5t93.5 202.5l218 1029h184l-227 -1070q-40 -191 -156 -294t-299 -103q-167 0 -276.5 101.5t-109.5 252.5z" />
    <glyph glyph-name="ij" unicode="&#x133;" horiz-adv-x="840" 
d="M386 1225q-45 0 -77 32t-32 77q0 46 32 77.5t77 31.5q46 0 77.5 -31.5t31.5 -77.5q0 -45 -31.5 -77t-77.5 -32zM811 1225q-45 0 -77 32t-32 77q0 46 32 77.5t77 31.5q46 0 77.5 -31.5t31.5 -77.5q0 -45 -31.5 -77t-77.5 -32zM13 0l221 1040h176l-221 -1040h-176z
M831 1040l-239 -1115q-31 -146 -114 -214t-226 -69q-42 0 -79 4l34 151q32 -3 50 -3q72 0 109 34.5t55 119.5l234 1092h176z" />
    <glyph glyph-name="Jcircumflex" unicode="&#x134;" horiz-adv-x="1026" 
d="M1134 1858l221 -298h-158l-138 190h-6l-208 -190h-162l317 298h134zM14 330v22h182v-1q0 -96 60 -151t162 -55q104 0 168.5 66.5t93.5 202.5l218 1029h184l-227 -1070q-40 -191 -156 -294t-299 -103q-167 0 -276.5 101.5t-109.5 252.5z" />
    <glyph glyph-name="jcircumflex" unicode="&#x135;" horiz-adv-x="416" 
d="M475 1490l201 -300h-158l-118 189h-6l-188 -189h-162l297 300h134zM407 1040l-239 -1115q-31 -146 -114 -214t-226 -69q-42 0 -79 4l34 151q32 -3 50 -3q72 0 109 34.5t55 119.5l234 1092h176z" />
    <glyph glyph-name="Kcommaaccent" unicode="&#x136;" horiz-adv-x="1259" 
d="M213 0h-184l307 1443h184l-149 -701h4l776 701h238l-714 -648l460 -795h-210l-392 683l-215 -189zM432 -486h-132l153 359h152z" />
    <glyph glyph-name="kcommaaccent" unicode="&#x137;" horiz-adv-x="961" 
d="M181 0h-176l307 1443h176l-180 -844h4l537 441h223l-519 -429l317 -611h-195l-263 511l-146 -114zM311 -486h-132l153 359h152z" />
    <glyph glyph-name="kacyrillic" unicode="&#x43a;" horiz-adv-x="969" 
d="M305 580h8l507 460h228l-565 -501l369 -539h-215l-341 500h-8l-106 -500h-176l221 1040h176z" />
    <glyph glyph-name="kacyrillic" unicode="&#x138;" horiz-adv-x="969" 
d="M305 580h8l507 460h228l-565 -501l369 -539h-215l-341 500h-8l-106 -500h-176l221 1040h176z" />
    <glyph glyph-name="Lacute" unicode="&#x139;" horiz-adv-x="1078" 
d="M523 1560h-139l206 289h193zM941 162l-34 -162h-878l307 1443h184l-272 -1281h693z" />
    <glyph glyph-name="lacute" unicode="&#x13a;" horiz-adv-x="424" 
d="M504 1560h-139l206 289h193zM13 0l307 1443h176l-307 -1443h-176z" />
    <glyph glyph-name="Lcommaaccent" unicode="&#x13b;" horiz-adv-x="1078" 
d="M941 162l-34 -162h-878l307 1443h184l-272 -1281h693zM352 -486h-132l153 359h152z" />
    <glyph glyph-name="lcommaaccent" unicode="&#x13c;" horiz-adv-x="424" 
d="M13 0l307 1443h176l-307 -1443h-176zM-14 -486h-132l153 359h152z" />
    <glyph glyph-name="Lcaron" unicode="&#x13d;" horiz-adv-x="1078" 
d="M808 1490h178l-164 -502h-120zM941 162l-34 -162h-878l307 1443h184l-272 -1281h693z" />
    <glyph glyph-name="lcaron" unicode="&#x13e;" horiz-adv-x="792" 
d="M648 1490h158l-140 -470h-120zM13 0l307 1443h176l-307 -1443h-176z" />
    <glyph glyph-name="Ldot" unicode="&#x13f;" horiz-adv-x="1078" 
d="M941 162l-34 -162h-878l307 1443h184l-272 -1281h693zM738 608q-48 0 -81 33t-33 81t33 81t81 33t81 -33t33 -81t-33 -81t-81 -33z" />
    <glyph glyph-name="ldot" unicode="&#x140;" horiz-adv-x="657" 
d="M13 0l307 1443h176l-307 -1443h-176zM573 562q-48 0 -81 33t-33 81t33 81t81 33t81 -33t33 -81t-33 -81t-81 -33z" />
    <glyph glyph-name="Lslash" unicode="&#x141;" horiz-adv-x="1078" 
d="M-7 491l33 152l155 72l155 728h184l-134 -632l340 158l-33 -152l-339 -158l-106 -497h693l-34 -162h-878l120 564z" />
    <glyph glyph-name="lslash" unicode="&#x142;" horiz-adv-x="424" 
d="M13 0l126 592l-114 -53l37 172l114 53l144 679h176l-125 -588l116 54l-37 -172l-116 -54l-145 -683h-176z" />
    <glyph glyph-name="Nacute" unicode="&#x143;" horiz-adv-x="1434" 
d="M1018 1560h-139l206 289h193zM213 0h-184l307 1443h184l533 -1173h4l249 1173h184l-307 -1443h-184l-533 1173h-4z" />
    <glyph glyph-name="nacute" unicode="&#x144;" horiz-adv-x="1094" 
d="M776 1190h-139l200 300h194zM1 0l221 1040h166l-34 -162h4q53 85 139 132.5t197 47.5q140 0 235 -87t95 -219q0 -59 -14 -127l-133 -625h-175l127 595q13 61 13 108q0 93 -60 147t-161 54q-114 0 -199 -76t-113 -204l-133 -624h-175z" />
    <glyph glyph-name="Ncommaaccent" unicode="&#x145;" horiz-adv-x="1434" 
d="M213 0h-184l307 1443h184l533 -1173h4l249 1173h184l-307 -1443h-184l-533 1173h-4zM490 -486h-132l153 359h152z" />
    <glyph glyph-name="ncommaaccent" unicode="&#x146;" horiz-adv-x="1094" 
d="M1 0l221 1040h166l-34 -162h4q53 85 139 132.5t197 47.5q140 0 235 -87t95 -219q0 -59 -14 -127l-133 -625h-175l127 595q13 61 13 108q0 93 -60 147t-161 54q-114 0 -199 -76t-113 -204l-133 -624h-175zM323 -486h-132l153 359h152z" />
    <glyph glyph-name="Ncaron" unicode="&#x147;" horiz-adv-x="1434" 
d="M899 1560l-221 298h158l138 -190h6l208 190h162l-317 -298h-134zM213 0h-184l307 1443h184l533 -1173h4l249 1173h184l-307 -1443h-184l-533 1173h-4z" />
    <glyph glyph-name="ncaron" unicode="&#x148;" horiz-adv-x="1094" 
d="M656 1190l-201 300h158l118 -189h6l188 189h162l-297 -300h-134zM1 0l221 1040h166l-34 -162h4q53 85 139 132.5t197 47.5q140 0 235 -87t95 -219q0 -59 -14 -127l-133 -625h-175l127 595q13 61 13 108q0 93 -60 147t-161 54q-114 0 -199 -76t-113 -204l-133 -624h-175z
" />
    <glyph glyph-name="Omacron" unicode="&#x14c;" horiz-adv-x="1518" 
d="M1252 1768l-26 -121h-575l26 121h575zM726 -23q-272 0 -436 172t-164 457q0 175 56.5 333t155 274t239 184.5t300.5 68.5q272 0 436 -172t164 -457q0 -175 -56.5 -333t-155 -274t-239 -184.5t-300.5 -68.5zM877 1301q-164 0 -294.5 -93t-201 -250t-70.5 -346
q0 -215 112.5 -342.5t302.5 -127.5q164 0 294.5 93t201 250t70.5 346q0 215 -112.5 342.5t-302.5 127.5z" />
    <glyph glyph-name="omacron" unicode="&#x14d;" horiz-adv-x="1096" 
d="M966 1385l-26 -121h-575l26 121h575zM596 1058q199 0 317.5 -124.5t118.5 -332.5q0 -171 -69.5 -313t-192 -224t-271.5 -82q-199 0 -317.5 124.5t-118.5 332.5q0 171 69.5 313t192 224t271.5 82zM499 135q155 0 256 132t101 329q0 141 -70.5 225t-189.5 84
q-155 0 -256 -132t-101 -329q0 -141 70.5 -225t189.5 -84z" />
    <glyph glyph-name="Obreve" unicode="&#x14e;" horiz-adv-x="1518" 
d="M939 1542q-59 0 -108.5 14.5t-81.5 38t-56.5 55t-33.5 65t-13 67.5t5 64h119q-10 -80 35 -136t141 -56q87 0 145.5 50.5t71.5 141.5h125q-14 -137 -107.5 -220.5t-241.5 -83.5zM726 -23q-272 0 -436 172t-164 457q0 175 56.5 333t155 274t239 184.5t300.5 68.5
q272 0 436 -172t164 -457q0 -175 -56.5 -333t-155 -274t-239 -184.5t-300.5 -68.5zM877 1301q-164 0 -294.5 -93t-201 -250t-70.5 -346q0 -215 112.5 -342.5t302.5 -127.5q164 0 294.5 93t201 250t70.5 346q0 215 -112.5 342.5t-302.5 127.5z" />
    <glyph glyph-name="obreve" unicode="&#x14f;" horiz-adv-x="1096" 
d="M649 1180q-57 0 -105 14.5t-79 38t-54.5 55t-33 66t-13 69t5.5 65.5h123q-10 -82 31.5 -139t131.5 -57q81 0 136.5 51t67.5 145h129q-14 -140 -105 -224t-235 -84zM596 1058q199 0 317.5 -124.5t118.5 -332.5q0 -171 -69.5 -313t-192 -224t-271.5 -82
q-199 0 -317.5 124.5t-118.5 332.5q0 171 69.5 313t192 224t271.5 82zM499 135q155 0 256 132t101 329q0 141 -70.5 225t-189.5 84q-155 0 -256 -132t-101 -329q0 -141 70.5 -225t189.5 -84z" />
    <glyph glyph-name="Ohungarumlaut" unicode="&#x150;" horiz-adv-x="1518" 
d="M834 1560h-129l137 289h176zM1142 1560h-139l193 289h192zM726 -23q-272 0 -436 172t-164 457q0 175 56.5 333t155 274t239 184.5t300.5 68.5q272 0 436 -172t164 -457q0 -175 -56.5 -333t-155 -274t-239 -184.5t-300.5 -68.5zM877 1301q-164 0 -294.5 -93t-201 -250
t-70.5 -346q0 -215 112.5 -342.5t302.5 -127.5q164 0 294.5 93t201 250t70.5 346q0 215 -112.5 342.5t-302.5 127.5z" />
    <glyph glyph-name="ohungarumlaut" unicode="&#x151;" horiz-adv-x="1096" 
d="M414 1190l142 300h178l-191 -300h-129zM712 1190l200 300h194l-255 -300h-139zM596 1058q199 0 317.5 -124.5t118.5 -332.5q0 -171 -69.5 -313t-192 -224t-271.5 -82q-199 0 -317.5 124.5t-118.5 332.5q0 171 69.5 313t192 224t271.5 82zM499 135q155 0 256 132t101 329
q0 141 -70.5 225t-189.5 84q-155 0 -256 -132t-101 -329q0 -141 70.5 -225t189.5 -84z" />
    <glyph glyph-name="OE" unicode="&#x152;" horiz-adv-x="2246" 
d="M1141 0l33 153h-3q-184 -176 -445 -176q-272 0 -436 172t-164 457q0 175 56.5 333t155 274t239 184.5t300.5 68.5q174 0 305.5 -74t206.5 -213h3l56 264h896l-35 -162h-712l-100 -463h676l-34 -160h-675l-106 -496h713l-34 -162h-896zM1292 831q0 215 -112.5 342.5
t-302.5 127.5q-164 0 -294.5 -93t-201 -250t-70.5 -346q0 -215 112.5 -342.5t302.5 -127.5q164 0 294.5 93t201 250t70.5 346z" />
    <glyph glyph-name="oe" unicode="&#x153;" horiz-adv-x="1846" 
d="M1278 -18q-132 0 -227 59t-141 167h-4q-62 -106 -171.5 -166t-235.5 -60q-199 0 -317.5 124.5t-118.5 332.5q0 171 69.5 313t192 224t271.5 82q274 0 379 -224h4q58 99 168.5 161.5t233.5 62.5q185 0 293.5 -118.5t108.5 -320.5q0 -83 -9 -140h-747q-1 -9 -1 -36
q0 -140 69 -224t187 -84q101 0 174 48.5t108 136.5h171q-40 -149 -167.5 -243.5t-289.5 -94.5zM1048 618h557q1 7 1 28q0 117 -63.5 188.5t-165.5 71.5q-122 0 -207 -77t-122 -211zM239 444q0 -141 70.5 -225t189.5 -84q155 0 256 132t101 329q0 141 -70.5 225t-189.5 84
q-155 0 -256 -132t-101 -329z" />
    <glyph glyph-name="Racute" unicode="&#x154;" horiz-adv-x="1270" 
d="M835 1560h-139l206 289h193zM29 0l307 1443h505q201 0 313 -103t112 -278q0 -171 -104.5 -300t-284.5 -166l202 -596h-190l-190 571h-364l-121 -571h-185zM486 1283l-117 -552h347q159 0 259.5 87.5t100.5 225.5q0 110 -66 174.5t-179 64.5h-345z" />
    <glyph glyph-name="racute" unicode="&#x155;" horiz-adv-x="698" 
d="M578 1190h-139l200 300h194zM1 0l221 1040h165l-29 -138h4q106 153 292 153q72 0 120 -23l-37 -165q-54 21 -130 21q-129 0 -201.5 -71t-103.5 -214l-127 -603h-174z" />
    <glyph glyph-name="Rcommaaccent" unicode="&#x156;" horiz-adv-x="1270" 
d="M29 0l307 1443h505q201 0 313 -103t112 -278q0 -171 -104.5 -300t-284.5 -166l202 -596h-190l-190 571h-364l-121 -571h-185zM486 1283l-117 -552h347q159 0 259.5 87.5t100.5 225.5q0 110 -66 174.5t-179 64.5h-345zM436 -486h-132l153 359h152z" />
    <glyph glyph-name="rcommaaccent" unicode="&#x157;" horiz-adv-x="698" 
d="M1 0l221 1040h165l-29 -138h4q106 153 292 153q72 0 120 -23l-37 -165q-54 21 -130 21q-129 0 -201.5 -71t-103.5 -214l-127 -603h-174zM-19 -486h-132l153 359h152z" />
    <glyph glyph-name="Rcaron" unicode="&#x158;" horiz-adv-x="1270" 
d="M716 1560l-221 298h158l138 -190h6l208 190h162l-317 -298h-134zM29 0l307 1443h505q201 0 313 -103t112 -278q0 -171 -104.5 -300t-284.5 -166l202 -596h-190l-190 571h-364l-121 -571h-185zM486 1283l-117 -552h347q159 0 259.5 87.5t100.5 225.5q0 110 -66 174.5
t-179 64.5h-345z" />
    <glyph glyph-name="rcaron" unicode="&#x159;" horiz-adv-x="698" 
d="M458 1190l-201 300h158l118 -189h6l188 189h162l-297 -300h-134zM1 0l221 1040h165l-29 -138h4q106 153 292 153q72 0 120 -23l-37 -165q-54 21 -130 21q-129 0 -201.5 -71t-103.5 -214l-127 -603h-174z" />
    <glyph glyph-name="Sacute" unicode="&#x15a;" horiz-adv-x="1227" 
d="M881 1560h-139l206 289h193zM49 424h181q15 -128 117 -206t264 -78q144 0 236 65t92 180q0 96 -59 152.5t-196 99.5l-96 30q-182 57 -269 149t-87 236q0 185 139 299.5t360 114.5q224 0 365.5 -113.5t141.5 -304.5h-180q-5 115 -93 185t-236 70q-147 0 -229 -69.5
t-82 -167.5q0 -83 60 -138t192 -97l96 -30q182 -57 272 -149.5t90 -228.5q0 -86 -33.5 -165t-97 -142.5t-164 -101t-224.5 -37.5q-151 0 -275.5 52.5t-202 155.5t-82.5 239z" />
    <glyph glyph-name="sacute" unicode="&#x15b;" horiz-adv-x="948" 
d="M632 1190h-139l200 300h194zM135 748q0 135 107.5 222t278.5 87q168 0 274.5 -88.5t108.5 -228.5h-166q-7 77 -68 126t-151 49q-97 0 -155 -42.5t-58 -108.5q0 -55 38.5 -89t136.5 -64l90 -28q139 -43 201 -108t62 -168q0 -140 -114.5 -232.5t-288.5 -92.5
q-182 0 -296.5 91t-119.5 231h174q12 -81 78 -130t172 -49q94 0 157 50t63 122q0 50 -34 78t-133 59l-90 28q-142 44 -204.5 111.5t-62.5 174.5z" />
    <glyph glyph-name="Scircumflex" unicode="&#x15c;" horiz-adv-x="1227" 
d="M929 1858l221 -298h-158l-138 190h-6l-208 -190h-162l317 298h134zM49 424h181q15 -128 117 -206t264 -78q144 0 236 65t92 180q0 96 -59 152.5t-196 99.5l-96 30q-182 57 -269 149t-87 236q0 185 139 299.5t360 114.5q224 0 365.5 -113.5t141.5 -304.5h-180
q-5 115 -93 185t-236 70q-147 0 -229 -69.5t-82 -167.5q0 -83 60 -138t192 -97l96 -30q182 -57 272 -149.5t90 -228.5q0 -86 -33.5 -165t-97 -142.5t-164 -101t-224.5 -37.5q-151 0 -275.5 52.5t-202 155.5t-82.5 239z" />
    <glyph glyph-name="scircumflex" unicode="&#x15d;" horiz-adv-x="948" 
d="M678 1490l201 -300h-158l-118 189h-6l-188 -189h-162l297 300h134zM135 748q0 135 107.5 222t278.5 87q168 0 274.5 -88.5t108.5 -228.5h-166q-7 77 -68 126t-151 49q-97 0 -155 -42.5t-58 -108.5q0 -55 38.5 -89t136.5 -64l90 -28q139 -43 201 -108t62 -168
q0 -140 -114.5 -232.5t-288.5 -92.5q-182 0 -296.5 91t-119.5 231h174q12 -81 78 -130t172 -49q94 0 157 50t63 122q0 50 -34 78t-133 59l-90 28q-142 44 -204.5 111.5t-62.5 174.5z" />
    <glyph glyph-name="Scedilla" unicode="&#x15e;" horiz-adv-x="1227" 
d="M49 424h181q15 -128 117 -206t264 -78q144 0 236 65t92 180q0 96 -59 152.5t-196 99.5l-96 30q-182 57 -269 149t-87 236q0 185 139 299.5t360 114.5q224 0 365.5 -113.5t141.5 -304.5h-180q-5 115 -93 185t-236 70q-147 0 -229 -69.5t-82 -167.5q0 -83 60 -138t192 -97
l96 -30q182 -57 272 -149.5t90 -228.5q0 -82 -30.5 -157.5t-88 -137.5t-148.5 -102t-204 -47l-66 -106q72 0 122.5 -40.5t50.5 -115.5q0 -88 -71.5 -132t-182.5 -44q-81 0 -150 23l25 108q50 -16 108 -16q116 0 116 57q0 63 -125 63h-59l18 86l76 120q-201 23 -332 141
t-138 301z" />
    <glyph glyph-name="scedilla" unicode="&#x15f;" horiz-adv-x="948" 
d="M191 -436l25 108q50 -16 108 -16q116 0 116 57q0 63 -125 63h-59l18 86l79 125q-151 19 -242.5 106.5t-95.5 210.5h174q12 -81 78 -130t172 -49q94 0 157 50t63 122q0 50 -34 78t-133 59l-90 28q-142 44 -204.5 111.5t-62.5 174.5q0 135 107.5 222t278.5 87
q168 0 274.5 -88.5t108.5 -228.5h-166q-7 77 -68 126t-151 49q-97 0 -155 -42.5t-58 -108.5q0 -55 38.5 -89t136.5 -64l90 -28q139 -43 201 -108t62 -168q0 -127 -95 -216t-246 -106l-71 -112q72 0 122.5 -40.5t50.5 -115.5q0 -88 -71.5 -132t-182.5 -44q-81 0 -150 23z" />
    <glyph glyph-name="Scaron" unicode="&#x160;" horiz-adv-x="1227" 
d="M762 1560l-221 298h158l138 -190h6l208 190h162l-317 -298h-134zM49 424h181q15 -128 117 -206t264 -78q144 0 236 65t92 180q0 96 -59 152.5t-196 99.5l-96 30q-182 57 -269 149t-87 236q0 185 139 299.5t360 114.5q224 0 365.5 -113.5t141.5 -304.5h-180
q-5 115 -93 185t-236 70q-147 0 -229 -69.5t-82 -167.5q0 -83 60 -138t192 -97l96 -30q182 -57 272 -149.5t90 -228.5q0 -86 -33.5 -165t-97 -142.5t-164 -101t-224.5 -37.5q-151 0 -275.5 52.5t-202 155.5t-82.5 239z" />
    <glyph glyph-name="scaron" unicode="&#x161;" horiz-adv-x="948" 
d="M512 1190l-201 300h158l118 -189h6l188 189h162l-297 -300h-134zM135 748q0 135 107.5 222t278.5 87q168 0 274.5 -88.5t108.5 -228.5h-166q-7 77 -68 126t-151 49q-97 0 -155 -42.5t-58 -108.5q0 -55 38.5 -89t136.5 -64l90 -28q139 -43 201 -108t62 -168
q0 -140 -114.5 -232.5t-288.5 -92.5q-182 0 -296.5 91t-119.5 231h174q12 -81 78 -130t172 -49q94 0 157 50t63 122q0 50 -34 78t-133 59l-90 28q-142 44 -204.5 111.5t-62.5 174.5z" />
    <glyph glyph-name="Tcedilla" unicode="&#x162;" horiz-adv-x="1211" 
d="M276 -436l25 108q50 -16 108 -16q116 0 116 57q0 63 -125 63h-59l18 86l87 138h-43l272 1281h-463l34 162h1110l-34 -162h-463l-272 -1281l-80 -127q72 0 122.5 -40.5t50.5 -115.5q0 -88 -71.5 -132t-182.5 -44q-81 0 -150 23z" />
    <glyph glyph-name="tcedilla" unicode="&#x163;" horiz-adv-x="617" 
d="M74 -436l25 108q50 -16 108 -16q116 0 116 57q0 63 -125 63h-59l18 86l93 148q-65 22 -102.5 71.5t-37.5 123.5q0 43 10 89l129 602h-154l30 144h155l53 259h175l-55 -259h223l-30 -144h-223l-117 -548q-12 -56 -12 -94q0 -111 135 -111q41 0 72 4l-31 -145
q-52 -9 -90 -10l-75 -119q72 0 122.5 -40.5t50.5 -115.5q0 -88 -71.5 -132t-182.5 -44q-81 0 -150 23z" />
    <glyph glyph-name="Tcaron" unicode="&#x164;" horiz-adv-x="1211" 
d="M781 1560l-221 298h158l138 -190h6l208 190h162l-317 -298h-134zM587 0h-184l272 1281h-463l34 162h1110l-34 -162h-463z" />
    <glyph glyph-name="tcaron" unicode="&#x165;" horiz-adv-x="838" 
d="M732 1670h158l-140 -470h-120zM365 -8q-114 0 -184.5 55t-70.5 158q0 43 10 89l129 602h-154l30 144h155l53 259h175l-55 -259h223l-30 -144h-223l-117 -548q-12 -56 -12 -94q0 -111 135 -111q41 0 72 4l-31 -145q-58 -10 -105 -10z" />
    <glyph glyph-name="Tbar" unicode="&#x166;" horiz-adv-x="1211" 
d="M587 0h-184l138 652h-326l30 142h327l103 487h-463l34 162h1110l-34 -162h-463l-103 -487h322l-30 -142h-323z" />
    <glyph glyph-name="tbar" unicode="&#x167;" horiz-adv-x="617" 
d="M365 -8q-114 0 -184.5 55t-70.5 158q0 43 10 89l60 278h-156l27 124h155l43 200h-154l30 144h155l53 259h175l-55 -259h223l-30 -144h-223l-43 -200h212l-28 -124h-210l-48 -224q-12 -56 -12 -94q0 -111 135 -111q41 0 72 4l-31 -145q-58 -10 -105 -10z" />
    <glyph glyph-name="Utilde" unicode="&#x168;" horiz-adv-x="1430" 
d="M634 1621q16 98 69.5 159t140.5 61q48 0 85.5 -21.5t57 -47t43.5 -47t47 -21.5q53 0 78 102h128q-16 -99 -69.5 -160.5t-141.5 -61.5q-48 0 -85 21.5t-56 47t-42.5 47t-47.5 21.5q-30 0 -48 -24.5t-30 -75.5h-129zM640 -23q-120 0 -216 34.5t-158 95.5t-95 142t-34 176
q-1 60 13 130l186 888h184l-184 -876q-15 -68 -13 -133q5 -137 93 -214t256 -77q162 0 277.5 96t151.5 263l201 941h184l-208 -976q-50 -236 -211 -363t-427 -127z" />
    <glyph glyph-name="utilde" unicode="&#x169;" horiz-adv-x="1093" 
d="M390 1238q16 98 69.5 159t140.5 61q48 0 85.5 -21.5t57 -47t43.5 -47t47 -21.5q53 0 78 102h128q-16 -99 -69.5 -160.5t-141.5 -61.5q-48 0 -85 21.5t-56 47t-42.5 47t-47.5 21.5q-30 0 -48 -24.5t-30 -75.5h-129zM1091 1040l-221 -1040h-166l33 146h-4
q-42 -64 -136.5 -114t-205.5 -50q-146 0 -233 83t-87 207q0 76 15 148l130 620h176l-127 -595q-14 -67 -14 -118q0 -98 51 -144.5t157 -46.5q122 0 210 78t115 202l133 624h174z" />
    <glyph glyph-name="Umacron" unicode="&#x16a;" horiz-adv-x="1430" 
d="M1252 1768l-26 -121h-575l26 121h575zM640 -23q-120 0 -216 34.5t-158 95.5t-95 142t-34 176q-1 60 13 130l186 888h184l-184 -876q-15 -68 -13 -133q5 -137 93 -214t256 -77q162 0 277.5 96t151.5 263l201 941h184l-208 -976q-50 -236 -211 -363t-427 -127z" />
    <glyph glyph-name="umacron" unicode="&#x16b;" horiz-adv-x="1093" 
d="M1008 1385l-26 -121h-575l26 121h575zM1091 1040l-221 -1040h-166l33 146h-4q-42 -64 -136.5 -114t-205.5 -50q-146 0 -233 83t-87 207q0 76 15 148l130 620h176l-127 -595q-14 -67 -14 -118q0 -98 51 -144.5t157 -46.5q122 0 210 78t115 202l133 624h174z" />
    <glyph glyph-name="Ubreve" unicode="&#x16c;" horiz-adv-x="1430" 
d="M939 1542q-59 0 -108.5 14.5t-81.5 38t-56.5 55t-33.5 65t-13 67.5t5 64h119q-10 -80 35 -136t141 -56q87 0 145.5 50.5t71.5 141.5h125q-14 -137 -107.5 -220.5t-241.5 -83.5zM640 -23q-120 0 -216 34.5t-158 95.5t-95 142t-34 176q-1 60 13 130l186 888h184l-184 -876
q-15 -68 -13 -133q5 -137 93 -214t256 -77q162 0 277.5 96t151.5 263l201 941h184l-208 -976q-50 -236 -211 -363t-427 -127z" />
    <glyph glyph-name="ubreve" unicode="&#x16d;" horiz-adv-x="1093" 
d="M691 1180q-57 0 -105 14.5t-79 38t-54.5 55t-33 66t-13 69t5.5 65.5h123q-10 -82 31.5 -139t131.5 -57q81 0 136.5 51t67.5 145h129q-14 -140 -105 -224t-235 -84zM1091 1040l-221 -1040h-166l33 146h-4q-42 -64 -136.5 -114t-205.5 -50q-146 0 -233 83t-87 207
q0 76 15 148l130 620h176l-127 -595q-14 -67 -14 -118q0 -98 51 -144.5t157 -46.5q122 0 210 78t115 202l133 624h174z" />
    <glyph glyph-name="Uring" unicode="&#x16e;" horiz-adv-x="1430" 
d="M951 1516q-79 0 -135 56t-56 135t56 135t135 56t135 -56t56 -135t-56 -135t-135 -56zM951 1604q43 0 73 30t30 73t-30 73t-73 30t-73 -30t-30 -73t30 -73t73 -30zM640 -23q-120 0 -216 34.5t-158 95.5t-95 142t-34 176q-1 60 13 130l186 888h184l-184 -876
q-15 -68 -13 -133q5 -137 93 -214t256 -77q162 0 277.5 96t151.5 263l201 941h184l-208 -976q-50 -236 -211 -363t-427 -127z" />
    <glyph glyph-name="uring" unicode="&#x16f;" horiz-adv-x="1093" 
d="M707 1132q-79 0 -135 56t-56 135t56 135t135 56t135 -56t56 -135t-56 -135t-135 -56zM707 1220q43 0 73 30t30 73t-30 73t-73 30t-73 -30t-30 -73t30 -73t73 -30zM1091 1040l-221 -1040h-166l33 146h-4q-42 -64 -136.5 -114t-205.5 -50q-146 0 -233 83t-87 207
q0 76 15 148l130 620h176l-127 -595q-14 -67 -14 -118q0 -98 51 -144.5t157 -46.5q122 0 210 78t115 202l133 624h174z" />
    <glyph glyph-name="Uhungarumlaut" unicode="&#x170;" horiz-adv-x="1430" 
d="M834 1560h-129l137 289h176zM1142 1560h-139l193 289h192zM640 -23q-120 0 -216 34.5t-158 95.5t-95 142t-34 176q-1 60 13 130l186 888h184l-184 -876q-15 -68 -13 -133q5 -137 93 -214t256 -77q162 0 277.5 96t151.5 263l201 941h184l-208 -976q-50 -236 -211 -363
t-427 -127z" />
    <glyph glyph-name="uhungarumlaut" unicode="&#x171;" horiz-adv-x="1093" 
d="M456 1190l142 300h178l-191 -300h-129zM754 1190l200 300h194l-255 -300h-139zM1091 1040l-221 -1040h-166l33 146h-4q-42 -64 -136.5 -114t-205.5 -50q-146 0 -233 83t-87 207q0 76 15 148l130 620h176l-127 -595q-14 -67 -14 -118q0 -98 51 -144.5t157 -46.5
q122 0 210 78t115 202l133 624h174z" />
    <glyph glyph-name="Uogonek" unicode="&#x172;" horiz-adv-x="1430" 
d="M825 -406q-30 -21 -111 -21q-85 0 -136.5 41t-51.5 109q0 137 191 254v3q-22 -4 -77 -4q-120 0 -216 34.5t-158 95.5t-95 142t-34 176q-1 60 13 130l186 889h184l-184 -877q-15 -68 -13 -133q5 -137 93 -214t256 -77q162 0 277.5 96t151.5 263l201 942h184l-208 -977
q-63 -298 -331 -433q-126 -63 -195.5 -134.5t-69.5 -125.5q0 -35 25 -54.5t70 -19.5q44 0 73 13z" />
    <glyph glyph-name="uogonek" unicode="&#x173;" horiz-adv-x="1093" 
d="M775 -391q-30 -21 -111 -21q-85 0 -136.5 41t-51.5 109q0 149 231 275l30 133h-4q-42 -64 -136.5 -114t-205.5 -50q-146 0 -233 83t-87 207q0 76 15 148l130 620h176l-127 -595q-14 -67 -14 -118q0 -98 51 -144.5t157 -46.5q122 0 210 78t115 202l133 624h174l-223 -1049
l-7 -3q-108 -47 -168.5 -99.5t-60.5 -100.5q0 -35 25 -54.5t70 -19.5q41 0 73 13z" />
    <glyph glyph-name="Wcircumflex" unicode="&#x174;" horiz-adv-x="1896" 
d="M1274 1858l221 -298h-158l-138 190h-6l-208 -190h-162l317 298h134zM1074 1147l-567 -1147h-177l-87 1443h169l58 -1167h4l572 1167h170l96 -1165h4l539 1165h190l-690 -1443h-177l-100 1147h-4z" />
    <glyph glyph-name="wcircumflex" unicode="&#x175;" horiz-adv-x="1450" 
d="M981 1490l201 -300h-158l-118 189h-6l-188 -189h-162l297 300h134zM1535 1040l-506 -1040h-180l-61 808h-4l-393 -808h-186l-70 1040h157l47 -840h3l401 840h172l56 -840h4l388 840h172z" />
    <glyph glyph-name="Ycircumflex" unicode="&#x176;" horiz-adv-x="1256" 
d="M966 1858l221 -298h-158l-138 190h-6l-208 -190h-162l317 298h134zM611 0h-185l132 630l-336 813h190l266 -658h4l536 658h208l-689 -839z" />
    <glyph glyph-name="ycircumflex" unicode="&#x177;" horiz-adv-x="976" 
d="M737 1490l201 -300h-158l-118 189h-6l-188 -189h-162l297 300h134zM52 -379q-67 0 -118 17l26 145q39 -16 94 -16q122 0 208 171l34 68l-170 1034h172l125 -848h3l452 848h192l-650 -1154q-86 -152 -170 -208.5t-198 -56.5z" />
    <glyph glyph-name="Ydieresis" unicode="&#x178;" horiz-adv-x="1256" 
d="M694 1608q-45 0 -77 32t-32 77q0 46 32 77.5t77 31.5q46 0 77.5 -31.5t31.5 -77.5q0 -45 -31.5 -77t-77.5 -32zM1068 1608q-45 0 -77 32t-32 77q0 46 32 77.5t77 31.5q46 0 77.5 -31.5t31.5 -77.5q0 -45 -31.5 -77t-77.5 -32zM611 0h-185l132 630l-336 813h190l266 -658
h4l536 658h208l-689 -839z" />
    <glyph glyph-name="Zacute" unicode="&#x179;" horiz-adv-x="1263" 
d="M916 1560h-139l206 289h193zM-13 0l27 128l1051 1149l1 4h-779l35 162h1021l-27 -128l-1049 -1149l-1 -4h822l-34 -162h-1067z" />
    <glyph glyph-name="zacute" unicode="&#x17a;" horiz-adv-x="972" 
d="M702 1190h-139l200 300h194zM-26 0l27 125l743 767l1 4h-579l32 144h798l-29 -128l-737 -764l-1 -4h578l-31 -144h-802z" />
    <glyph glyph-name="Zdotaccent" unicode="&#x17b;" horiz-adv-x="1263" 
d="M879 1608q-45 0 -77 32t-32 77q0 46 32 77.5t77 31.5q46 0 77.5 -31.5t31.5 -77.5q0 -45 -31.5 -77t-77.5 -32zM-13 0l27 128l1051 1149l1 4h-779l35 162h1021l-27 -128l-1049 -1149l-1 -4h822l-34 -162h-1067z" />
    <glyph glyph-name="zdotaccent" unicode="&#x17c;" horiz-adv-x="972" 
d="M660 1225q-45 0 -77 32t-32 77q0 46 32 77.5t77 31.5q46 0 77.5 -31.5t31.5 -77.5q0 -45 -31.5 -77t-77.5 -32zM-26 0l27 125l743 767l1 4h-579l32 144h798l-29 -128l-737 -764l-1 -4h578l-31 -144h-802z" />
    <glyph glyph-name="Zcaron" unicode="&#x17d;" horiz-adv-x="1263" 
d="M797 1560l-221 298h158l138 -190h6l208 190h162l-317 -298h-134zM-13 0l27 128l1051 1149l1 4h-779l35 162h1021l-27 -128l-1049 -1149l-1 -4h822l-34 -162h-1067z" />
    <glyph glyph-name="zcaron" unicode="&#x17e;" horiz-adv-x="972" 
d="M582 1190l-201 300h158l118 -189h6l188 189h162l-297 -300h-134zM-26 0l27 125l743 767l1 4h-579l32 144h798l-29 -128l-737 -764l-1 -4h578l-31 -144h-802z" />
    <glyph glyph-name="longs" unicode="&#x17f;" horiz-adv-x="566" 
d="M-56 -348l311 1487q33 159 121.5 232t250.5 73q59 0 122 -10l-29 -144q-36 9 -90 9q-87 0 -134.5 -39.5t-65.5 -125.5l-311 -1482h-175z" />
    <glyph glyph-name="Ereversed" unicode="&#x18e;" horiz-adv-x="1134" 
d="M22 162h710l106 496h-674l34 160h674l98 463h-711l34 162h896l-306 -1443h-896z" />
    <glyph glyph-name="uni04D8" unicode="&#x4d8;" horiz-adv-x="1467" 
d="M689 -23q-269 0 -419 156t-150 436q0 85 16 168h1087q9 63 9 102q0 213 -108.5 335.5t-296.5 122.5q-281 0 -409 -216h-197q76 178 238.5 281.5t368.5 103.5q275 0 431 -164.5t156 -454.5q0 -252 -92 -450.5t-257.5 -309t-376.5 -110.5zM697 145q180 0 313 117.5
t183 320.5h-882q-1 -7 -1 -39q0 -187 102.5 -293t284.5 -106z" />
    <glyph glyph-name="uni04D8" unicode="&#x18f;" horiz-adv-x="1467" 
d="M689 -23q-269 0 -419 156t-150 436q0 85 16 168h1087q9 63 9 102q0 213 -108.5 335.5t-296.5 122.5q-281 0 -409 -216h-197q76 178 238.5 281.5t368.5 103.5q275 0 431 -164.5t156 -454.5q0 -252 -92 -450.5t-257.5 -309t-376.5 -110.5zM697 145q180 0 313 117.5
t183 320.5h-882q-1 -7 -1 -39q0 -187 102.5 -293t284.5 -106z" />
    <glyph glyph-name="florin" unicode="&#x192;" horiz-adv-x="1238" 
d="M271 874h358l79 215q69 187 179.5 271.5t285.5 84.5q56 0 117.5 -13.5t100.5 -33.5l-34 -149q-73 40 -182 40q-115 0 -187 -52.5t-112 -162.5l-73 -200h367l-30 -144h-389l-134 -366q-71 -196 -179 -281t-281 -85q-56 0 -118 15.5t-103 37.5l35 159q33 -24 86.5 -38.5
t103.5 -14.5q110 0 178 55t113 176l125 342h-336z" />
    <glyph glyph-name="Ohorn" unicode="&#x1a0;" horiz-adv-x="1518" 
d="M1477 837q0 -175 -56.5 -333t-155 -274t-239 -184.5t-300.5 -68.5q-272 0 -436 172t-164 457q0 175 56.5 333t155 274t239 184.5t300.5 68.5q100 0 178 -21t137.5 -41.5t114.5 -20.5q52 0 78.5 18.5t35.5 62.5l40 196h162l-54 -262q-14 -69 -69 -111t-129 -42h-14v-4
q120 -165 120 -404zM1292 831q0 215 -112.5 342.5t-302.5 127.5q-164 0 -294.5 -93t-201 -250t-70.5 -346q0 -215 112.5 -342.5t302.5 -127.5q164 0 294.5 93t201 250t70.5 346z" />
    <glyph glyph-name="ohorn" unicode="&#x1a1;" horiz-adv-x="1133" 
d="M1032 601q0 -171 -69.5 -313t-192 -224t-271.5 -82q-199 0 -317.5 124.5t-118.5 332.5q0 171 69.5 313t192 224t271.5 82q67 0 169.5 -30t142.5 -30q60 0 87 18t37 68l28 132h162l-44 -201q-15 -66 -63 -103t-111 -37h-43v-3q71 -113 71 -271zM239 444q0 -141 70.5 -225
t189.5 -84q155 0 256 132t101 329q0 141 -70.5 225t-189.5 84q-155 0 -256 -132t-101 -329z" />
    <glyph glyph-name="Uhorn" unicode="&#x1af;" horiz-adv-x="1578" 
d="M640 -24q-120 0 -216 34.5t-158 95.5t-95 142t-34 176q-1 60 13 130l186 889h184l-184 -877q-15 -68 -13 -133q5 -137 93 -214t256 -77q162 0 277.5 96t151.5 263l201 942h187q91 0 110 88l33 159h159l-40 -189q-19 -87 -83 -136.5t-158 -49.5l-51 1l-181 -850
q-50 -236 -211 -363t-427 -127z" />
    <glyph glyph-name="uhorn" unicode="&#x1b0;" horiz-adv-x="1188" 
d="M733 146q-42 -64 -136.5 -114t-205.5 -50q-146 0 -233 83t-87 207q0 76 15 148l130 620h176l-127 -595q-14 -67 -14 -118q0 -98 51 -144.5t157 -46.5q122 0 210 78t115 202l133 624h122q60 0 87 18t37 68l28 132h162l-44 -201q-15 -66 -63 -103t-111 -37h-70l-195 -917
h-166l33 146h-4z" />
    <glyph glyph-name="uni01C4" unicode="&#x1c4;" horiz-adv-x="2676" 
d="M2210 1560l-221 298h158l138 -190h6l208 190h162l-317 -298h-134zM336 1443h420q288 0 450 -155.5t162 -432.5q0 -250 -98 -445t-275 -302.5t-404 -107.5h-560zM1400 0l27 128l1051 1149l1 4h-779l35 162h1021l-27 -128l-1049 -1149l-1 -4h822l-34 -162h-1067zM486 1283
l-239 -1123h330q174 0 312 86t215.5 239.5t77.5 347.5q0 223 -115.5 336.5t-341.5 113.5h-239z" />
    <glyph glyph-name="uni01C5" unicode="&#x1c5;" horiz-adv-x="2385" 
d="M1995 1190l-201 300h158l118 -189h6l188 189h162l-297 -300h-134zM336 1443h420q288 0 450 -155.5t162 -432.5q0 -250 -98 -445t-275 -302.5t-404 -107.5h-560zM486 1283l-239 -1123h330q174 0 312 86t215.5 239.5t77.5 347.5q0 223 -115.5 336.5t-341.5 113.5h-239z
M1387 0l27 125l743 767l1 4h-579l32 144h798l-29 -128l-737 -764l-1 -4h578l-31 -144h-802z" />
    <glyph glyph-name="uni01C6" unicode="&#x1c6;" horiz-adv-x="2123" 
d="M1733 1190l-201 300h158l118 -189h6l188 189h162l-297 -300h-134zM451 -18q-178 0 -282.5 122.5t-104.5 325.5q0 177 68.5 321t188 225.5t264.5 81.5q122 0 215.5 -67t118.5 -165h5l133 617h174l-307 -1443h-175l35 166h-4q-48 -80 -138.5 -132t-190.5 -52zM1125 0
l27 125l743 767l1 4h-579l32 144h798l-29 -128l-737 -764l-1 -4h578l-31 -144h-802zM491 135q157 0 260.5 136t103.5 341q0 130 -73 211t-195 81q-150 0 -249.5 -131t-99.5 -335q0 -141 67 -222t186 -81z" />
    <glyph glyph-name="uni01C7" unicode="&#x1c7;" horiz-adv-x="2104" 
d="M941 162l-34 -162h-878l307 1443h184l-272 -1281h693zM1092 330v22h182v-1q0 -96 60 -151t162 -55q104 0 168.5 66.5t93.5 202.5l218 1029h184l-227 -1070q-40 -191 -156 -294t-299 -103q-167 0 -276.5 101.5t-109.5 252.5z" />
    <glyph glyph-name="uni01C8" unicode="&#x1c8;" horiz-adv-x="1494" 
d="M941 162l-34 -162h-878l307 1443h184l-272 -1281h693zM1465 1225q-45 0 -77 32t-32 77q0 46 32 77.5t77 31.5q46 0 77.5 -31.5t31.5 -77.5q0 -45 -31.5 -77t-77.5 -32zM1485 1040l-239 -1115q-31 -146 -114 -214t-226 -69q-42 0 -79 4l34 151q31 -3 50 -3q72 0 109 34.5
t55 119.5l234 1092h176z" />
    <glyph glyph-name="uni01C9" unicode="&#x1c9;" horiz-adv-x="840" 
d="M13 0l307 1443h176l-307 -1443h-176zM811 1225q-45 0 -77 32t-32 77q0 46 32 77.5t77 31.5q46 0 77.5 -31.5t31.5 -77.5q0 -45 -31.5 -77t-77.5 -32zM831 1040l-239 -1115q-31 -146 -114 -214t-226 -69q-42 0 -79 4l34 151q32 -3 50 -3q72 0 109 34.5t55 119.5l234 1092
h176z" />
    <glyph glyph-name="uni01CA" unicode="&#x1ca;" horiz-adv-x="2460" 
d="M213 0h-184l307 1443h184l533 -1173h4l249 1173h184l-307 -1443h-184l-533 1173h-4zM1448 330v22h182v-1q0 -96 60 -151t162 -55q104 0 168.5 66.5t93.5 202.5l218 1029h184l-227 -1070q-40 -191 -156 -294t-299 -103q-167 0 -276.5 101.5t-109.5 252.5z" />
    <glyph glyph-name="uni01CB" unicode="&#x1cb;" horiz-adv-x="1850" 
d="M213 0h-184l307 1443h184l533 -1173h4l249 1173h184l-307 -1443h-184l-533 1173h-4zM1821 1225q-45 0 -77 32t-32 77q0 46 32 77.5t77 31.5q46 0 77.5 -31.5t31.5 -77.5q0 -45 -31.5 -77t-77.5 -32zM1841 1040l-239 -1115q-31 -146 -114 -214t-226 -69q-42 0 -79 4
l34 151q31 -3 50 -3q72 0 109 34.5t55 119.5l234 1092h176z" />
    <glyph glyph-name="uni01CC" unicode="&#x1cc;" horiz-adv-x="1510" 
d="M1481 1225q-45 0 -77 32t-32 77q0 46 32 77.5t77 31.5q46 0 77.5 -31.5t31.5 -77.5q0 -45 -31.5 -77t-77.5 -32zM1 0l221 1040h166l-34 -162h4q53 85 139 132.5t197 47.5q140 0 235 -87t95 -219q0 -59 -14 -127l-133 -625h-175l127 595q13 61 13 108q0 93 -60 147
t-161 54q-114 0 -199 -76t-113 -204l-133 -624h-175zM1501 1040l-239 -1115q-31 -146 -114 -214t-226 -69q-42 0 -79 4l34 151q31 -3 50 -3q72 0 109 34.5t55 119.5l234 1092h176z" />
    <glyph glyph-name="Acaron" unicode="&#x1cd;" horiz-adv-x="1291" 
d="M812 1560l-221 298h158l138 -190h6l208 190h162l-317 -298h-134zM984 0l-59 413h-579l-234 -413h-198l836 1443h181l224 -1443h-171zM799 1224l-368 -658h471l-99 658h-4z" />
    <glyph glyph-name="acaron" unicode="&#x1ce;" horiz-adv-x="1018" 
d="M585 1190l-201 300h158l118 -189h6l188 189h162l-297 -300h-134zM349 -18q-137 0 -231.5 81.5t-94.5 207.5q0 151 111 236.5t313 96.5l311 16l14 65q4 17 4 51q0 79 -54 124t-153 45q-103 0 -166 -45.5t-79 -122.5h-182q24 143 143 232t298 89q166 0 267 -82.5
t101 -214.5q0 -46 -7 -88l-143 -673h-167l27 127h-3q-54 -68 -134.5 -106.5t-174.5 -38.5zM395 130q112 0 198.5 65.5t109.5 169.5l26 116l-284 -15q-117 -6 -181.5 -52t-64.5 -125q0 -72 54 -115.5t142 -43.5z" />
    <glyph glyph-name="Icaron" unicode="&#x1cf;" horiz-adv-x="464" 
d="M405 1560l-221 298h158l138 -190h6l208 190h162l-317 -298h-134zM213 0h-184l307 1443h184z" />
    <glyph glyph-name="icaron" unicode="&#x1d0;" horiz-adv-x="424" 
d="M308 1190l-201 300h158l118 -189h6l188 189h162l-297 -300h-134zM13 0l221 1040h176l-221 -1040h-176z" />
    <glyph glyph-name="Ocaron" unicode="&#x1d1;" horiz-adv-x="1518" 
d="M872 1560l-221 298h158l138 -190h6l208 190h162l-317 -298h-134zM726 -23q-272 0 -436 172t-164 457q0 175 56.5 333t155 274t239 184.5t300.5 68.5q272 0 436 -172t164 -457q0 -175 -56.5 -333t-155 -274t-239 -184.5t-300.5 -68.5zM877 1301q-164 0 -294.5 -93
t-201 -250t-70.5 -346q0 -215 112.5 -342.5t302.5 -127.5q164 0 294.5 93t201 250t70.5 346q0 215 -112.5 342.5t-302.5 127.5z" />
    <glyph glyph-name="ocaron" unicode="&#x1d2;" horiz-adv-x="1096" 
d="M590 1190l-201 300h158l118 -189h6l188 189h162l-297 -300h-134zM596 1058q199 0 317.5 -124.5t118.5 -332.5q0 -171 -69.5 -313t-192 -224t-271.5 -82q-199 0 -317.5 124.5t-118.5 332.5q0 171 69.5 313t192 224t271.5 82zM499 135q155 0 256 132t101 329
q0 141 -70.5 225t-189.5 84q-155 0 -256 -132t-101 -329q0 -141 70.5 -225t189.5 -84z" />
    <glyph glyph-name="Ucaron" unicode="&#x1d3;" horiz-adv-x="1430" 
d="M872 1560l-221 298h158l138 -190h6l208 190h162l-317 -298h-134zM640 -23q-120 0 -216 34.5t-158 95.5t-95 142t-34 176q-1 60 13 130l186 888h184l-184 -876q-15 -68 -13 -133q5 -137 93 -214t256 -77q162 0 277.5 96t151.5 263l201 941h184l-208 -976
q-50 -236 -211 -363t-427 -127z" />
    <glyph glyph-name="ucaron" unicode="&#x1d4;" horiz-adv-x="1093" 
d="M632 1190l-201 300h158l118 -189h6l188 189h162l-297 -300h-134zM1091 1040l-221 -1040h-166l33 146h-4q-42 -64 -136.5 -114t-205.5 -50q-146 0 -233 83t-87 207q0 76 15 148l130 620h176l-127 -595q-14 -67 -14 -118q0 -98 51 -144.5t157 -46.5q122 0 210 78t115 202
l133 624h174z" />
    <glyph glyph-name="Udieresismacron" unicode="&#x1d5;" horiz-adv-x="1430" 
d="M1337 2025l-25 -116h-634l25 116h634zM766 1766q43 0 73.5 -31t30.5 -75t-30.5 -75t-73.5 -31q-44 0 -74.5 31t-30.5 75t30.5 75t74.5 31zM1120 1766q44 0 74.5 -31t30.5 -75t-30.5 -75t-74.5 -31q-43 0 -73.5 31t-30.5 75t30.5 75t73.5 31zM640 -23q-120 0 -216 34.5
t-158 95.5t-95 142t-34 176q-1 60 13 130l186 888h184l-184 -876q-15 -68 -13 -133q5 -137 93 -214t256 -77q162 0 277.5 96t151.5 263l201 941h184l-208 -976q-50 -236 -211 -363t-427 -127z" />
    <glyph glyph-name="udieresismacron" unicode="&#x1d6;" horiz-adv-x="1093" 
d="M1073 1693l-26 -121h-575l26 121h575zM519 1205q-45 0 -77.5 32t-32.5 78t32.5 78t77.5 32t77.5 -32t32.5 -78t-32.5 -78t-77.5 -32zM891 1205q-45 0 -77.5 32t-32.5 78t32.5 78t77.5 32t77.5 -32t32.5 -78t-32.5 -78t-77.5 -32zM1091 1040l-221 -1040h-166l33 146h-4
q-42 -64 -136.5 -114t-205.5 -50q-146 0 -233 83t-87 207q0 76 15 148l130 620h176l-127 -595q-14 -67 -14 -118q0 -98 51 -144.5t157 -46.5q122 0 210 78t115 202l133 624h174z" />
    <glyph glyph-name="Udieresisacute" unicode="&#x1d7;" horiz-adv-x="1430" 
d="M883 1830l214 216h178l-238 -216h-154zM766 1554q-44 0 -74.5 31t-30.5 75t30.5 75t74.5 31q43 0 73.5 -31t30.5 -75t-30.5 -75t-73.5 -31zM1120 1554q-43 0 -73.5 31t-30.5 75t30.5 75t73.5 31q44 0 74.5 -31t30.5 -75t-30.5 -75t-74.5 -31zM640 -23q-120 0 -216 34.5
t-158 95.5t-95 142t-34 176q-1 60 13 130l186 888h184l-184 -876q-15 -68 -13 -133q5 -137 93 -214t256 -77q162 0 277.5 96t151.5 263l201 941h184l-208 -976q-50 -236 -211 -363t-427 -127z" />
    <glyph glyph-name="udieresisacute" unicode="&#x1d8;" horiz-adv-x="1093" 
d="M660 1530l272 296h172l-294 -296h-150zM525 1215q-45 0 -77 32t-32 77q0 46 32 77.5t77 31.5q46 0 77.5 -31.5t31.5 -77.5q0 -45 -31.5 -77t-77.5 -32zM899 1215q-45 0 -77 32t-32 77q0 46 32 77.5t77 31.5q46 0 77.5 -31.5t31.5 -77.5q0 -45 -31.5 -77t-77.5 -32z
M1091 1040l-221 -1040h-166l33 146h-4q-42 -64 -136.5 -114t-205.5 -50q-146 0 -233 83t-87 207q0 76 15 148l130 620h176l-127 -595q-14 -67 -14 -118q0 -98 51 -144.5t157 -46.5q122 0 210 78t115 202l133 624h174z" />
    <glyph glyph-name="Udieresiscaron" unicode="&#x1d9;" horiz-adv-x="1430" 
d="M897 1816l-215 232h162l133 -144h6l193 144h186l-313 -232h-152zM766 1766q43 0 73.5 -31t30.5 -75t-30.5 -75t-73.5 -31q-44 0 -74.5 31t-30.5 75t30.5 75t74.5 31zM1120 1766q44 0 74.5 -31t30.5 -75t-30.5 -75t-74.5 -31q-43 0 -73.5 31t-30.5 75t30.5 75t73.5 31z
M640 -23q-120 0 -216 34.5t-158 95.5t-95 142t-34 176q-1 60 13 130l186 888h184l-184 -876q-15 -68 -13 -133q5 -137 93 -214t256 -77q162 0 277.5 96t151.5 263l201 941h184l-208 -976q-50 -236 -211 -363t-427 -127z" />
    <glyph glyph-name="udieresiscaron" unicode="&#x1da;" horiz-adv-x="1093" 
d="M637 1506l-212 280h152l135 -178h6l211 178h176l-332 -280h-136zM519 1205q-45 0 -77.5 32t-32.5 78t32.5 78t77.5 32t77.5 -32t32.5 -78t-32.5 -78t-77.5 -32zM891 1205q-45 0 -77.5 32t-32.5 78t32.5 78t77.5 32t77.5 -32t32.5 -78t-32.5 -78t-77.5 -32zM1091 1040
l-221 -1040h-166l33 146h-4q-42 -64 -136.5 -114t-205.5 -50q-146 0 -233 83t-87 207q0 76 15 148l130 620h176l-127 -595q-14 -67 -14 -118q0 -98 51 -144.5t157 -46.5q122 0 210 78t115 202l133 624h174z" />
    <glyph glyph-name="Udieresisgrave" unicode="&#x1db;" horiz-adv-x="1430" 
d="M1065 1830h-134l-146 216h158zM766 1554q-44 0 -74.5 31t-30.5 75t30.5 75t74.5 31q43 0 73.5 -31t30.5 -75t-30.5 -75t-73.5 -31zM1120 1554q-43 0 -73.5 31t-30.5 75t30.5 75t73.5 31q44 0 74.5 -31t30.5 -75t-30.5 -75t-74.5 -31zM640 -23q-120 0 -216 34.5t-158 95.5
t-95 142t-34 176q-1 60 13 130l186 888h184l-184 -876q-15 -68 -13 -133q5 -137 93 -214t256 -77q162 0 277.5 96t151.5 263l201 941h184l-208 -976q-50 -236 -211 -363t-427 -127z" />
    <glyph glyph-name="udieresisgrave" unicode="&#x1dc;" horiz-adv-x="1093" 
d="M829 1530h-130l-168 296h152zM525 1215q-45 0 -77 32t-32 77q0 46 32 77.5t77 31.5q46 0 77.5 -31.5t31.5 -77.5q0 -45 -31.5 -77t-77.5 -32zM899 1215q-45 0 -77 32t-32 77q0 46 32 77.5t77 31.5q46 0 77.5 -31.5t31.5 -77.5q0 -45 -31.5 -77t-77.5 -32zM1091 1040
l-221 -1040h-166l33 146h-4q-42 -64 -136.5 -114t-205.5 -50q-146 0 -233 83t-87 207q0 76 15 148l130 620h176l-127 -595q-14 -67 -14 -118q0 -98 51 -144.5t157 -46.5q122 0 210 78t115 202l133 624h174z" />
    <glyph glyph-name="uni04D9" unicode="&#x4d9;" horiz-adv-x="1063" 
d="M282 719h-171q41 147 167 243t288 96q208 0 320 -126.5t112 -329.5q0 -170 -64.5 -311.5t-182 -225t-263.5 -83.5q-198 0 -311.5 117t-113.5 321q0 82 9 140h747q1 12 1 36q0 142 -68.5 225.5t-185.5 83.5q-101 0 -174.5 -49.5t-109.5 -136.5zM488 134q114 0 195 79.5
t115 207.5h-557q-1 -9 -1 -28q0 -112 60.5 -185.5t187.5 -73.5z" />
    <glyph glyph-name="uni04D9" unicode="&#x259;" horiz-adv-x="1063" 
d="M282 719h-171q41 147 167 243t288 96q208 0 320 -126.5t112 -329.5q0 -170 -64.5 -311.5t-182 -225t-263.5 -83.5q-198 0 -311.5 117t-113.5 321q0 82 9 140h747q1 12 1 36q0 142 -68.5 225.5t-185.5 83.5q-101 0 -174.5 -49.5t-109.5 -136.5zM488 134q114 0 195 79.5
t115 207.5h-557q-1 -9 -1 -28q0 -112 60.5 -185.5t187.5 -73.5z" />
    <glyph glyph-name="uni04D9" unicode="&#x1dd;" horiz-adv-x="1063" 
d="M282 719h-171q41 147 167 243t288 96q208 0 320 -126.5t112 -329.5q0 -170 -64.5 -311.5t-182 -225t-263.5 -83.5q-198 0 -311.5 117t-113.5 321q0 82 9 140h747q1 12 1 36q0 142 -68.5 225.5t-185.5 83.5q-101 0 -174.5 -49.5t-109.5 -136.5zM488 134q114 0 195 79.5
t115 207.5h-557q-1 -9 -1 -28q0 -112 60.5 -185.5t187.5 -73.5z" />
    <glyph glyph-name="Adieresismacron" unicode="&#x1de;" horiz-adv-x="1291" 
d="M1277 2025l-25 -116h-634l25 116h634zM706 1766q43 0 73.5 -31t30.5 -75t-30.5 -75t-73.5 -31q-44 0 -74.5 31t-30.5 75t30.5 75t74.5 31zM1060 1766q44 0 74.5 -31t30.5 -75t-30.5 -75t-74.5 -31q-43 0 -73.5 31t-30.5 75t30.5 75t73.5 31zM984 0l-59 413h-579
l-234 -413h-198l836 1443h181l224 -1443h-171zM799 1224l-368 -658h471l-99 658h-4z" />
    <glyph glyph-name="adieresismacron" unicode="&#x1df;" horiz-adv-x="1018" 
d="M1026 1693l-26 -121h-575l26 121h575zM472 1205q-45 0 -77.5 32t-32.5 78t32.5 78t77.5 32t77.5 -32t32.5 -78t-32.5 -78t-77.5 -32zM844 1205q-45 0 -77.5 32t-32.5 78t32.5 78t77.5 32t77.5 -32t32.5 -78t-32.5 -78t-77.5 -32zM349 -18q-137 0 -231.5 81.5t-94.5 207.5
q0 151 111 236.5t313 96.5l311 16l14 65q4 17 4 51q0 79 -54 124t-153 45q-103 0 -166 -45.5t-79 -122.5h-182q24 143 143 232t298 89q166 0 267 -82.5t101 -214.5q0 -46 -7 -88l-143 -673h-167l27 127h-3q-54 -68 -134.5 -106.5t-174.5 -38.5zM395 130q112 0 198.5 65.5
t109.5 169.5l26 116l-284 -15q-117 -6 -181.5 -52t-64.5 -125q0 -72 54 -115.5t142 -43.5z" />
    <glyph glyph-name="Adotmacron" unicode="&#x1e0;" horiz-adv-x="1291" 
d="M1277 2025l-26 -116h-634l26 116h634zM889 1577q-49 0 -84 34.5t-35 84.5t35 84.5t84 34.5t84 -34.5t35 -84.5t-35 -84.5t-84 -34.5zM984 0l-59 413h-579l-234 -413h-198l836 1443h181l224 -1443h-171zM799 1224l-368 -658h471l-99 658h-4z" />
    <glyph glyph-name="adotmacron" unicode="&#x1e1;" horiz-adv-x="1018" 
d="M1026 1693l-26 -121h-575l26 121h575zM658 1195q-50 0 -84.5 34.5t-34.5 84.5t34.5 84.5t84.5 34.5t84.5 -34.5t34.5 -84.5t-34.5 -84.5t-84.5 -34.5zM349 -18q-137 0 -231.5 81.5t-94.5 207.5q0 151 111 236.5t313 96.5l311 16l14 65q4 17 4 51q0 79 -54 124t-153 45
q-103 0 -166 -45.5t-79 -122.5h-182q24 143 143 232t298 89q166 0 267 -82.5t101 -214.5q0 -46 -7 -88l-143 -673h-167l27 127h-3q-54 -68 -134.5 -106.5t-174.5 -38.5zM395 130q112 0 198.5 65.5t109.5 169.5l26 116l-284 -15q-117 -6 -181.5 -52t-64.5 -125
q0 -72 54 -115.5t142 -43.5z" />
    <glyph glyph-name="AEmacron" unicode="&#x1e2;" horiz-adv-x="1869" 
d="M1632 1768l-26 -121h-575l26 121h575zM822 0l98 459h-523l-304 -459h-194l958 1443h1110l-35 -162h-654l-100 -473h617l-34 -160h-617l-104 -486h654l-34 -162h-838zM1097 1292h-146l-454 -680h455z" />
    <glyph glyph-name="aemacron" unicode="&#x1e3;" horiz-adv-x="1735" 
d="M1317 1385l-26 -121h-575l26 121h575zM1167 -18q-135 0 -226 61.5t-136 172.5h-4q-153 -234 -446 -234q-140 0 -233.5 84t-93.5 205q0 149 113 237t317 97l310 15l14 65q4 17 4 51q0 76 -56.5 122.5t-155.5 46.5q-102 0 -165 -46t-76 -122h-182q21 141 140 231t297 90
q111 0 197.5 -43t129.5 -120h4q137 163 351 163q185 0 293.5 -118.5t108.5 -320.5q0 -83 -9 -140h-747q-1 -9 -1 -36q0 -140 69 -224t187 -84q101 0 174 48.5t108 136.5h171q-40 -149 -167.5 -243.5t-289.5 -94.5zM937 618h557q1 7 1 28q0 117 -63.5 188.5t-165.5 71.5
q-122 0 -207 -77t-122 -211zM400 130q117 0 204 66.5t109 168.5l26 116l-291 -14q-111 -6 -177.5 -54.5t-66.5 -123.5q0 -69 53.5 -114t142.5 -45z" />
    <glyph glyph-name="Gcaron" unicode="&#x1e6;" horiz-adv-x="1454" 
d="M848 1560l-221 298h158l138 -190h6l208 190h162l-317 -298h-134zM1411 736l-47 -221q-55 -254 -227 -396t-416 -142q-277 0 -436 172.5t-159 454.5q0 120 27 239t86.5 232t144.5 199.5t210.5 139t274.5 52.5q250 0 401 -136t157 -353v-14h-182q-10 155 -110 246t-266 91
q-116 0 -211.5 -42t-158.5 -111t-106.5 -160t-62.5 -185.5t-19 -191.5q0 -213 107.5 -340.5t302.5 -127.5q175 0 301 104t160 277l11 55h-400l34 158h584z" />
    <glyph glyph-name="gcaron" unicode="&#x1e7;" horiz-adv-x="1140" 
d="M652 1190l-201 300h158l118 -189h6l188 189h162l-297 -300h-134zM411 -392q-180 0 -301 86.5t-121 219.5h179q11 -72 76.5 -115t166.5 -43q271 0 343 295l32 132h-4q-48 -81 -138.5 -132t-188.5 -51q-177 0 -284 120.5t-107 322.5q0 117 34.5 226.5t98.5 197.5t165 140.5
t223 50.5t213.5 -69.5t118.5 -170.5h5l44 222h171l-208 -986q-46 -219 -182.5 -332.5t-335.5 -113.5zM494 153q109 0 192.5 63.5t126 167t42.5 228.5q0 127 -76.5 209.5t-190.5 82.5q-157 0 -253.5 -130t-96.5 -327q0 -134 66.5 -214t189.5 -80z" />
    <glyph glyph-name="Kcaron" unicode="&#x1e8;" horiz-adv-x="1259" 
d="M771 1560l-221 298h158l138 -190h6l208 190h162l-317 -298h-134zM213 0h-184l307 1443h184l-149 -701h4l776 701h238l-714 -648l460 -795h-210l-392 683l-215 -189z" />
    <glyph glyph-name="kcaron" unicode="&#x1e9;" horiz-adv-x="961" 
d="M375 1560l-221 298h158l138 -190h6l208 190h162l-317 -298h-134zM181 0h-176l307 1443h176l-180 -844h4l537 441h223l-519 -429l317 -611h-195l-263 511l-146 -114z" />
    <glyph glyph-name="Oogonek" unicode="&#x1ea;" horiz-adv-x="1518" 
d="M881 -406q-30 -21 -111 -21q-85 0 -136.5 41t-51.5 109q0 137 191 252v4q-32 -2 -47 -2q-272 0 -436 172t-164 457q0 175 56.5 333t155 274t239 184.5t300.5 68.5q272 0 436 -172t164 -457q0 -265 -130 -474.5t-345 -329.5q-58 -32 -113.5 -72t-103 -93.5t-47.5 -94.5
q0 -35 25 -54.5t70 -19.5q44 0 73 13zM1292 831q0 215 -112.5 342.5t-302.5 127.5q-164 0 -294.5 -93t-201 -250t-70.5 -346q0 -215 112.5 -342.5t302.5 -127.5q164 0 294.5 93t201 250t70.5 346z" />
    <glyph glyph-name="oogonek" unicode="&#x1eb;" horiz-adv-x="1096" 
d="M618 -391q-30 -21 -111 -21q-85 0 -136.5 41t-51.5 109q0 137 182 242v2h-2q-199 0 -317.5 124.5t-118.5 332.5q0 171 69.5 313t192 224t271.5 82q199 0 317.5 -124.5t118.5 -332.5q0 -188 -89.5 -337t-235.5 -236q-232 -138 -232 -240q0 -35 25 -54.5t70 -19.5
q46 0 73 13zM239 444q0 -141 70.5 -225t189.5 -84q155 0 256 132t101 329q0 141 -70.5 225t-189.5 84q-155 0 -256 -132t-101 -329z" />
    <glyph glyph-name="Oogonekmacron" unicode="&#x1ec;" horiz-adv-x="1518" 
d="M1252 1768l-26 -121h-575l26 121h575zM881 -406q-30 -21 -111 -21q-85 0 -136.5 41t-51.5 109q0 137 191 252v4q-32 -2 -47 -2q-272 0 -436 172t-164 457q0 175 56.5 333t155 274t239 184.5t300.5 68.5q272 0 436 -172t164 -457q0 -265 -130 -474.5t-345 -329.5
q-58 -32 -113.5 -72t-103 -93.5t-47.5 -94.5q0 -35 25 -54.5t70 -19.5q44 0 73 13zM1292 831q0 215 -112.5 342.5t-302.5 127.5q-164 0 -294.5 -93t-201 -250t-70.5 -346q0 -215 112.5 -342.5t302.5 -127.5q164 0 294.5 93t201 250t70.5 346z" />
    <glyph glyph-name="oogonekmacron" unicode="&#x1ed;" horiz-adv-x="1096" 
d="M966 1385l-26 -121h-575l26 121h575zM618 -391q-30 -21 -111 -21q-85 0 -136.5 41t-51.5 109q0 137 182 242v2h-2q-199 0 -317.5 124.5t-118.5 332.5q0 171 69.5 313t192 224t271.5 82q199 0 317.5 -124.5t118.5 -332.5q0 -188 -89.5 -337t-235.5 -236
q-232 -138 -232 -240q0 -35 25 -54.5t70 -19.5q46 0 73 13zM239 444q0 -141 70.5 -225t189.5 -84q155 0 256 132t101 329q0 141 -70.5 225t-189.5 84q-155 0 -256 -132t-101 -329z" />
    <glyph glyph-name="uni01F1" unicode="&#x1f1;" horiz-adv-x="2676" 
d="M336 1443h420q288 0 450 -155.5t162 -432.5q0 -250 -98 -445t-275 -302.5t-404 -107.5h-560zM1400 0l27 128l1051 1149l1 4h-779l35 162h1021l-27 -128l-1049 -1149l-1 -4h822l-34 -162h-1067zM486 1283l-239 -1123h330q174 0 312 86t215.5 239.5t77.5 347.5
q0 223 -115.5 336.5t-341.5 113.5h-239z" />
    <glyph glyph-name="uni01F2" unicode="&#x1f2;" horiz-adv-x="2385" 
d="M336 1443h420q288 0 450 -155.5t162 -432.5q0 -250 -98 -445t-275 -302.5t-404 -107.5h-560zM486 1283l-239 -1123h330q174 0 312 86t215.5 239.5t77.5 347.5q0 223 -115.5 336.5t-341.5 113.5h-239zM1387 0l27 125l743 767l1 4h-579l32 144h798l-29 -128l-737 -764
l-1 -4h578l-31 -144h-802z" />
    <glyph glyph-name="uni01F3" unicode="&#x1f3;" horiz-adv-x="2123" 
d="M451 -18q-178 0 -282.5 122.5t-104.5 325.5q0 177 68.5 321t188 225.5t264.5 81.5q122 0 215.5 -67t118.5 -165h5l133 617h174l-307 -1443h-175l35 166h-4q-48 -80 -138.5 -132t-190.5 -52zM1125 0l27 125l743 767l1 4h-579l32 144h798l-29 -128l-737 -764l-1 -4h578
l-31 -144h-802zM491 135q157 0 260.5 136t103.5 341q0 130 -73 211t-195 81q-150 0 -249.5 -131t-99.5 -335q0 -141 67 -222t186 -81z" />
    <glyph glyph-name="Gacute" unicode="&#x1f4;" horiz-adv-x="1454" 
d="M967 1560h-139l206 289h193zM1411 736l-47 -221q-55 -254 -227 -396t-416 -142q-277 0 -436 172.5t-159 454.5q0 120 27 239t86.5 232t144.5 199.5t210.5 139t274.5 52.5q250 0 401 -136t157 -353v-14h-182q-10 155 -110 246t-266 91q-116 0 -211.5 -42t-158.5 -111
t-106.5 -160t-62.5 -185.5t-19 -191.5q0 -213 107.5 -340.5t302.5 -127.5q175 0 301 104t160 277l11 55h-400l34 158h584z" />
    <glyph glyph-name="gacute" unicode="&#x1f5;" horiz-adv-x="1140" 
d="M772 1190h-139l200 300h194zM411 -392q-180 0 -301 86.5t-121 219.5h179q11 -72 76.5 -115t166.5 -43q271 0 343 295l32 132h-4q-48 -81 -138.5 -132t-188.5 -51q-177 0 -284 120.5t-107 322.5q0 117 34.5 226.5t98.5 197.5t165 140.5t223 50.5t213.5 -69.5t118.5 -170.5
h5l44 222h171l-208 -986q-46 -219 -182.5 -332.5t-335.5 -113.5zM494 153q109 0 192.5 63.5t126 167t42.5 228.5q0 127 -76.5 209.5t-190.5 82.5q-157 0 -253.5 -130t-96.5 -327q0 -134 66.5 -214t189.5 -80z" />
    <glyph glyph-name="Ngrave" unicode="&#x1f8;" horiz-adv-x="1434" 
d="M877 1560l-137 289h193l83 -289h-139zM213 0h-184l307 1443h184l533 -1173h4l249 1173h184l-307 -1443h-184l-533 1173h-4z" />
    <glyph glyph-name="ngrave" unicode="&#x1f9;" horiz-adv-x="1094" 
d="M638 1190l-121 300h177l75 -300h-131zM1 0l221 1040h166l-34 -162h4q53 85 139 132.5t197 47.5q140 0 235 -87t95 -219q0 -59 -14 -127l-133 -625h-175l127 595q13 61 13 108q0 93 -60 147t-161 54q-114 0 -199 -76t-113 -204l-133 -624h-175z" />
    <glyph glyph-name="Aringacute" unicode="&#x1fa;" horiz-adv-x="1291" 
d="M1023 2101h164l-167 -171h-146zM882 1507q-77 0 -129.5 46.5t-52.5 125.5q0 83 54.5 136.5t135.5 53.5q78 0 131 -46.5t52 -125.5q-1 -84 -55 -137t-136 -53zM882 1593q46 0 74 27t27 74q-1 41 -26 65t-67 24q-45 0 -72.5 -27t-27.5 -74q0 -41 26 -65t66 -24zM984 0
l-59 413h-579l-234 -413h-198l836 1443h181l224 -1443h-171zM799 1224l-368 -658h471l-99 658h-4z" />
    <glyph glyph-name="aringacute" unicode="&#x1fb;" horiz-adv-x="1018" 
d="M655 1630l164 196h164l-182 -196h-146zM661 1172q-79 0 -133 49.5t-54 132.5q0 88 56 144t139 56q81 0 135 -49.5t53 -132.5q-1 -88 -56.5 -144t-139.5 -56zM564 1357q0 -45 27 -72t70 -27q49 0 78 30t28 81q-1 45 -27.5 72t-70.5 27q-47 0 -76 -30t-29 -81zM349 -18
q-137 0 -231.5 81.5t-94.5 207.5q0 151 111 236.5t313 96.5l311 16l14 65q4 17 4 51q0 79 -54 124t-153 45q-103 0 -166 -45.5t-79 -122.5h-182q24 143 143 232t298 89q166 0 267 -82.5t101 -214.5q0 -46 -7 -88l-143 -673h-167l27 127h-3q-54 -68 -134.5 -106.5
t-174.5 -38.5zM395 130q112 0 198.5 65.5t109.5 169.5l26 116l-284 -15q-117 -6 -181.5 -52t-64.5 -125q0 -72 54 -115.5t142 -43.5z" />
    <glyph glyph-name="AEacute" unicode="&#x1fc;" horiz-adv-x="1869" 
d="M1371 1560h-139l206 289h193zM822 0l98 459h-523l-304 -459h-194l958 1443h1110l-35 -162h-654l-100 -473h617l-34 -160h-617l-104 -486h654l-34 -162h-838zM1097 1292h-146l-454 -680h455z" />
    <glyph glyph-name="aeacute" unicode="&#x1fd;" horiz-adv-x="1735" 
d="M1061 1190h-139l200 300h194zM1167 -18q-135 0 -226 61.5t-136 172.5h-4q-153 -234 -446 -234q-140 0 -233.5 84t-93.5 205q0 149 113 237t317 97l310 15l14 65q4 17 4 51q0 76 -56.5 122.5t-155.5 46.5q-102 0 -165 -46t-76 -122h-182q21 141 140 231t297 90
q111 0 197.5 -43t129.5 -120h4q137 163 351 163q185 0 293.5 -118.5t108.5 -320.5q0 -83 -9 -140h-747q-1 -9 -1 -36q0 -140 69 -224t187 -84q101 0 174 48.5t108 136.5h171q-40 -149 -167.5 -243.5t-289.5 -94.5zM937 618h557q1 7 1 28q0 117 -63.5 188.5t-165.5 71.5
q-122 0 -207 -77t-122 -211zM400 130q117 0 204 66.5t109 168.5l26 116l-291 -14q-111 -6 -177.5 -54.5t-66.5 -123.5q0 -69 53.5 -114t142.5 -45z" />
    <glyph glyph-name="Oslashacute" unicode="&#x1fe;" horiz-adv-x="1518" 
d="M991 1560h-139l206 289h193zM96 141l118 110q-88 150 -88 355q0 175 56.5 333t155 274t239 184.5t300.5 68.5q280 0 445 -182l103 96l83 -100l-110 -103q79 -147 79 -340q0 -175 -56.5 -333t-155 -274t-239 -184.5t-300.5 -68.5q-269 0 -433 169l-114 -106zM877 1301
q-164 0 -294.5 -93t-201 -250t-70.5 -346q0 -130 43 -231l836 780q-112 140 -313 140zM1292 831q0 117 -36 214l-832 -776q113 -127 302 -127q164 0 294.5 93t201 250t70.5 346z" />
    <glyph glyph-name="oslashacute" unicode="&#x1ff;" horiz-adv-x="1096" 
d="M710 1190h-139l200 300h194zM2 61l123 123q-62 108 -62 255q0 171 69.5 313t192 224t271.5 82q180 0 298 -105l112 112l87 -86l-123 -123q62 -108 62 -255q0 -171 -69.5 -313t-192 -224t-271.5 -82q-180 0 -298 105l-112 -112zM239 444q0 -71 18 -128l517 517
q-69 72 -178 72q-155 0 -256 -132t-101 -329zM499 135q155 0 256 132t101 329q0 71 -18 128l-517 -517q69 -72 178 -72z" />
    <glyph glyph-name="Adblgrave" unicode="&#x200;" horiz-adv-x="1291" 
d="M947 1560l-61 289h176l14 -289h-129zM639 1560l-123 289h192l70 -289h-139zM984 0l-59 413h-579l-234 -413h-198l836 1443h181l224 -1443h-171zM799 1224l-368 -658h471l-99 658h-4z" />
    <glyph glyph-name="adblgrave" unicode="&#x201;" horiz-adv-x="1018" 
d="M843 1190h-124l-73 300h168zM564 1190h-131l-121 300h179zM349 -18q-137 0 -231.5 81.5t-94.5 207.5q0 151 111 236.5t313 96.5l311 16l14 65q4 17 4 51q0 79 -54 124t-153 45q-103 0 -166 -45.5t-79 -122.5h-182q24 143 143 232t298 89q166 0 267 -82.5t101 -214.5
q0 -46 -7 -88l-143 -673h-167l27 127h-3q-54 -68 -134.5 -106.5t-174.5 -38.5zM395 130q112 0 198.5 65.5t109.5 169.5l26 116l-284 -15q-117 -6 -181.5 -52t-64.5 -125q0 -72 54 -115.5t142 -43.5z" />
    <glyph glyph-name="Ainvertedbreve" unicode="&#x202;" horiz-adv-x="1291" 
d="M878 1846q59 0 108.5 -14.5t81.5 -38t56.5 -55t33.5 -65t13 -67.5t-5 -64h-119q10 80 -35 136t-141 56q-87 0 -145.5 -50.5t-71.5 -141.5h-125q14 137 107.5 220.5t241.5 83.5zM984 0l-59 413h-579l-234 -413h-198l836 1443h181l224 -1443h-171zM799 1224l-368 -658h471
l-99 658h-4z" />
    <glyph glyph-name="ainvertedbreve" unicode="&#x203;" horiz-adv-x="1018" 
d="M642 1488q57 0 105 -14.5t79 -38t54.5 -55t33 -66t13 -69t-5.5 -65.5h-123q10 82 -31.5 139t-131.5 57q-81 0 -136.5 -51t-67.5 -145h-129q14 140 105 224t235 84zM349 -18q-137 0 -231.5 81.5t-94.5 207.5q0 151 111 236.5t313 96.5l311 16l14 65q4 17 4 51
q0 79 -54 124t-153 45q-103 0 -166 -45.5t-79 -122.5h-182q24 143 143 232t298 89q166 0 267 -82.5t101 -214.5q0 -46 -7 -88l-143 -673h-167l27 127h-3q-54 -68 -134.5 -106.5t-174.5 -38.5zM395 130q112 0 198.5 65.5t109.5 169.5l26 116l-284 -15q-117 -6 -181.5 -52
t-64.5 -125q0 -72 54 -115.5t142 -43.5z" />
    <glyph glyph-name="Edblgrave" unicode="&#x204;" horiz-adv-x="1134" 
d="M895 1560l-61 289h176l14 -289h-129zM587 1560l-123 289h192l70 -289h-139zM959 162l-34 -162h-896l307 1443h896l-35 -162h-711l-99 -463h674l-34 -160h-674l-105 -496h711z" />
    <glyph glyph-name="edblgrave" unicode="&#x205;" horiz-adv-x="1062" 
d="M836 1190h-124l-73 300h168zM557 1190h-131l-121 300h179zM491 -20q-206 0 -317 126.5t-111 331.5q0 170 65 311.5t183.5 225t266.5 83.5q194 0 307 -118t113 -321q0 -82 -9 -140h-748q-1 -12 -1 -36q0 -143 68.5 -226.5t184.5 -83.5q102 0 176 50t110 137h171
q-41 -147 -168 -243.5t-291 -96.5zM263 618h557q1 9 1 28q0 109 -61 184.5t-184 75.5q-117 0 -198.5 -80t-114.5 -208z" />
    <glyph glyph-name="Einvertedbreve" unicode="&#x206;" horiz-adv-x="1134" 
d="M826 1846q59 0 108.5 -14.5t81.5 -38t56.5 -55t33.5 -65t13 -67.5t-5 -64h-119q10 80 -35 136t-141 56q-87 0 -145.5 -50.5t-71.5 -141.5h-125q14 137 107.5 220.5t241.5 83.5zM959 162l-34 -162h-896l307 1443h896l-35 -162h-711l-99 -463h674l-34 -160h-674l-105 -496
h711z" />
    <glyph glyph-name="einvertedbreve" unicode="&#x207;" horiz-adv-x="1062" 
d="M635 1488q57 0 105 -14.5t79 -38t54.5 -55t33 -66t13 -69t-5.5 -65.5h-123q10 82 -31.5 139t-131.5 57q-81 0 -136.5 -51t-67.5 -145h-129q14 140 105 224t235 84zM491 -20q-206 0 -317 126.5t-111 331.5q0 170 65 311.5t183.5 225t266.5 83.5q194 0 307 -118t113 -321
q0 -82 -9 -140h-748q-1 -12 -1 -36q0 -143 68.5 -226.5t184.5 -83.5q102 0 176 50t110 137h171q-41 -147 -168 -243.5t-291 -96.5zM263 618h557q1 9 1 28q0 109 -61 184.5t-184 75.5q-117 0 -198.5 -80t-114.5 -208z" />
    <glyph glyph-name="Idblgrave" unicode="&#x208;" horiz-adv-x="464" 
d="M540 1560l-61 289h176l14 -289h-129zM232 1560l-123 289h192l70 -289h-139zM213 0h-184l307 1443h184z" />
    <glyph glyph-name="idblgrave" unicode="&#x209;" horiz-adv-x="424" 
d="M566 1190h-124l-73 300h168zM287 1190h-131l-121 300h179zM13 0l221 1040h176l-221 -1040h-176z" />
    <glyph glyph-name="Iinvertedbreve" unicode="&#x20a;" horiz-adv-x="464" 
d="M471 1846q59 0 108.5 -14.5t81.5 -38t56.5 -55t33.5 -65t13 -67.5t-5 -64h-119q10 80 -35 136t-141 56q-87 0 -145.5 -50.5t-71.5 -141.5h-125q14 137 107.5 220.5t241.5 83.5zM213 0h-184l307 1443h184z" />
    <glyph glyph-name="iinvertedbreve" unicode="&#x20b;" horiz-adv-x="424" 
d="M365 1488q57 0 105 -14.5t79 -38t54.5 -55t33 -66t13 -69t-5.5 -65.5h-123q10 82 -31.5 139t-131.5 57q-81 0 -136.5 -51t-67.5 -145h-129q14 140 105 224t235 84zM13 0l221 1040h176l-221 -1040h-176z" />
    <glyph glyph-name="Odblgrave" unicode="&#x20c;" horiz-adv-x="1518" 
d="M1007 1560l-61 289h176l14 -289h-129zM699 1560l-123 289h192l70 -289h-139zM726 -23q-272 0 -436 172t-164 457q0 175 56.5 333t155 274t239 184.5t300.5 68.5q272 0 436 -172t164 -457q0 -175 -56.5 -333t-155 -274t-239 -184.5t-300.5 -68.5zM877 1301
q-164 0 -294.5 -93t-201 -250t-70.5 -346q0 -215 112.5 -342.5t302.5 -127.5q164 0 294.5 93t201 250t70.5 346q0 215 -112.5 342.5t-302.5 127.5z" />
    <glyph glyph-name="odblgrave" unicode="&#x20d;" horiz-adv-x="1096" 
d="M848 1190h-124l-73 300h168zM569 1190h-131l-121 300h179zM596 1058q199 0 317.5 -124.5t118.5 -332.5q0 -171 -69.5 -313t-192 -224t-271.5 -82q-199 0 -317.5 124.5t-118.5 332.5q0 171 69.5 313t192 224t271.5 82zM499 135q155 0 256 132t101 329q0 141 -70.5 225
t-189.5 84q-155 0 -256 -132t-101 -329q0 -141 70.5 -225t189.5 -84z" />
    <glyph glyph-name="Oinvertedbreve" unicode="&#x20e;" horiz-adv-x="1518" 
d="M938 1846q59 0 108.5 -14.5t81.5 -38t56.5 -55t33.5 -65t13 -67.5t-5 -64h-119q10 80 -35 136t-141 56q-87 0 -145.5 -50.5t-71.5 -141.5h-125q14 137 107.5 220.5t241.5 83.5zM726 -23q-272 0 -436 172t-164 457q0 175 56.5 333t155 274t239 184.5t300.5 68.5
q272 0 436 -172t164 -457q0 -175 -56.5 -333t-155 -274t-239 -184.5t-300.5 -68.5zM877 1301q-164 0 -294.5 -93t-201 -250t-70.5 -346q0 -215 112.5 -342.5t302.5 -127.5q164 0 294.5 93t201 250t70.5 346q0 215 -112.5 342.5t-302.5 127.5z" />
    <glyph glyph-name="oinvertedbreve" unicode="&#x20f;" horiz-adv-x="1096" 
d="M647 1488q57 0 105 -14.5t79 -38t54.5 -55t33 -66t13 -69t-5.5 -65.5h-123q10 82 -31.5 139t-131.5 57q-81 0 -136.5 -51t-67.5 -145h-129q14 140 105 224t235 84zM596 1058q199 0 317.5 -124.5t118.5 -332.5q0 -171 -69.5 -313t-192 -224t-271.5 -82
q-199 0 -317.5 124.5t-118.5 332.5q0 171 69.5 313t192 224t271.5 82zM499 135q155 0 256 132t101 329q0 141 -70.5 225t-189.5 84q-155 0 -256 -132t-101 -329q0 -141 70.5 -225t189.5 -84z" />
    <glyph glyph-name="Rdblgrave" unicode="&#x210;" horiz-adv-x="1270" 
d="M851 1560l-61 289h176l14 -289h-129zM543 1560l-123 289h192l70 -289h-139zM29 0l307 1443h505q201 0 313 -103t112 -278q0 -171 -104.5 -300t-284.5 -166l202 -596h-190l-190 571h-364l-121 -571h-185zM486 1283l-117 -552h347q159 0 259.5 87.5t100.5 225.5
q0 110 -66 174.5t-179 64.5h-345z" />
    <glyph glyph-name="rdblgrave" unicode="&#x211;" horiz-adv-x="698" 
d="M716 1190h-124l-73 300h168zM437 1190h-131l-121 300h179zM1 0l221 1040h165l-29 -138h4q106 153 292 153q72 0 120 -23l-37 -165q-54 21 -130 21q-129 0 -201.5 -71t-103.5 -214l-127 -603h-174z" />
    <glyph glyph-name="Rinvertedbreve" unicode="&#x212;" horiz-adv-x="1270" 
d="M782 1846q59 0 108.5 -14.5t81.5 -38t56.5 -55t33.5 -65t13 -67.5t-5 -64h-119q10 80 -35 136t-141 56q-87 0 -145.5 -50.5t-71.5 -141.5h-125q14 137 107.5 220.5t241.5 83.5zM29 0l307 1443h505q201 0 313 -103t112 -278q0 -171 -104.5 -300t-284.5 -166l202 -596h-190
l-190 571h-364l-121 -571h-185zM486 1283l-117 -552h347q159 0 259.5 87.5t100.5 225.5q0 110 -66 174.5t-179 64.5h-345z" />
    <glyph glyph-name="rinvertedbreve" unicode="&#x213;" horiz-adv-x="698" 
d="M515 1488q57 0 105 -14.5t79 -38t54.5 -55t33 -66t13 -69t-5.5 -65.5h-123q10 82 -31.5 139t-131.5 57q-81 0 -136.5 -51t-67.5 -145h-129q14 140 105 224t235 84zM1 0l221 1040h165l-29 -138h4q106 153 292 153q72 0 120 -23l-37 -165q-54 21 -130 21q-129 0 -201.5 -71
t-103.5 -214l-127 -603h-174z" />
    <glyph glyph-name="Udblgrave" unicode="&#x214;" horiz-adv-x="1430" 
d="M1007 1560l-61 289h176l14 -289h-129zM699 1560l-123 289h192l70 -289h-139zM640 -23q-120 0 -216 34.5t-158 95.5t-95 142t-34 176q-1 60 13 130l186 888h184l-184 -876q-15 -68 -13 -133q5 -137 93 -214t256 -77q162 0 277.5 96t151.5 263l201 941h184l-208 -976
q-50 -236 -211 -363t-427 -127z" />
    <glyph glyph-name="udblgrave" unicode="&#x215;" horiz-adv-x="1093" 
d="M890 1190h-124l-73 300h168zM611 1190h-131l-121 300h179zM1091 1040l-221 -1040h-166l33 146h-4q-42 -64 -136.5 -114t-205.5 -50q-146 0 -233 83t-87 207q0 76 15 148l130 620h176l-127 -595q-14 -67 -14 -118q0 -98 51 -144.5t157 -46.5q122 0 210 78t115 202l133 624
h174z" />
    <glyph glyph-name="Uinvertedbreve" unicode="&#x216;" horiz-adv-x="1430" 
d="M938 1846q59 0 108.5 -14.5t81.5 -38t56.5 -55t33.5 -65t13 -67.5t-5 -64h-119q10 80 -35 136t-141 56q-87 0 -145.5 -50.5t-71.5 -141.5h-125q14 137 107.5 220.5t241.5 83.5zM640 -23q-120 0 -216 34.5t-158 95.5t-95 142t-34 176q-1 60 13 130l186 888h184l-184 -876
q-15 -68 -13 -133q5 -137 93 -214t256 -77q162 0 277.5 96t151.5 263l201 941h184l-208 -976q-50 -236 -211 -363t-427 -127z" />
    <glyph glyph-name="uinvertedbreve" unicode="&#x217;" horiz-adv-x="1093" 
d="M689 1488q57 0 105 -14.5t79 -38t54.5 -55t33 -66t13 -69t-5.5 -65.5h-123q10 82 -31.5 139t-131.5 57q-81 0 -136.5 -51t-67.5 -145h-129q14 140 105 224t235 84zM1091 1040l-221 -1040h-166l33 146h-4q-42 -64 -136.5 -114t-205.5 -50q-146 0 -233 83t-87 207
q0 76 15 148l130 620h176l-127 -595q-14 -67 -14 -118q0 -98 51 -144.5t157 -46.5q122 0 210 78t115 202l133 624h174z" />
    <glyph glyph-name="Scommaaccent" unicode="&#x218;" horiz-adv-x="1227" 
d="M49 424h181q15 -128 117 -206t264 -78q144 0 236 65t92 180q0 96 -59 152.5t-196 99.5l-96 30q-182 57 -269 149t-87 236q0 185 139 299.5t360 114.5q224 0 365.5 -113.5t141.5 -304.5h-180q-5 115 -93 185t-236 70q-147 0 -229 -69.5t-82 -167.5q0 -83 60 -138t192 -97
l96 -30q182 -57 272 -149.5t90 -228.5q0 -86 -33.5 -165t-97 -142.5t-164 -101t-224.5 -37.5q-151 0 -275.5 52.5t-202 155.5t-82.5 239zM473 -486h-132l153 359h152z" />
    <glyph glyph-name="scommaaccent" unicode="&#x219;" horiz-adv-x="948" 
d="M135 748q0 135 107.5 222t278.5 87q168 0 274.5 -88.5t108.5 -228.5h-166q-7 77 -68 126t-151 49q-97 0 -155 -42.5t-58 -108.5q0 -55 38.5 -89t136.5 -64l90 -28q139 -43 201 -108t62 -168q0 -140 -114.5 -232.5t-288.5 -92.5q-182 0 -296.5 91t-119.5 231h174
q12 -81 78 -130t172 -49q94 0 157 50t63 122q0 50 -34 78t-133 59l-90 28q-142 44 -204.5 111.5t-62.5 174.5zM304 -486h-132l153 359h152z" />
    <glyph glyph-name="Tcommaaccent" unicode="&#x21a;" horiz-adv-x="1211" 
d="M587 0h-184l272 1281h-463l34 162h1110l-34 -162h-463zM383 -486h-132l153 359h152z" />
    <glyph glyph-name="tcommaaccent" unicode="&#x21b;" horiz-adv-x="617" 
d="M365 -8q-114 0 -184.5 55t-70.5 158q0 43 10 89l129 602h-154l30 144h155l53 259h175l-55 -259h223l-30 -144h-223l-117 -548q-12 -56 -12 -94q0 -111 135 -111q41 0 72 4l-31 -145q-58 -10 -105 -10zM187 -486h-132l153 359h152z" />
    <glyph glyph-name="Hcaron" unicode="&#x21e;" horiz-adv-x="1436" 
d="M882 1560l-221 298h158l138 -190h6l208 190h162l-317 -298h-134zM1185 0h-184l140 657h-788l-140 -657h-184l307 1443h184l-133 -624h788l133 624h184z" />
    <glyph glyph-name="hcaron" unicode="&#x21f;" horiz-adv-x="1110" 
d="M376 1560l-221 298h158l138 -190h6l208 190h162l-317 -298h-134zM5 0l307 1443h175l-120 -565h4q47 78 134.5 129t201.5 51q148 0 240.5 -92t92.5 -220q0 -54 -14 -121l-137 -625h-175l131 595q13 62 13 102q0 93 -60.5 150t-164.5 57q-119 0 -206 -77.5t-114 -202.5
l-133 -624h-175z" />
    <glyph glyph-name="Adotaccent" unicode="&#x226;" horiz-adv-x="1291" 
d="M894 1608q-45 0 -77 32t-32 77q0 46 32 77.5t77 31.5q46 0 77.5 -31.5t31.5 -77.5q0 -45 -31.5 -77t-77.5 -32zM984 0l-59 413h-579l-234 -413h-198l836 1443h181l224 -1443h-171zM799 1224l-368 -658h471l-99 658h-4z" />
    <glyph glyph-name="adotaccent" unicode="&#x227;" horiz-adv-x="1018" 
d="M663 1225q-45 0 -77 32t-32 77q0 46 32 77.5t77 31.5q46 0 77.5 -31.5t31.5 -77.5q0 -45 -31.5 -77t-77.5 -32zM349 -18q-137 0 -231.5 81.5t-94.5 207.5q0 151 111 236.5t313 96.5l311 16l14 65q4 17 4 51q0 79 -54 124t-153 45q-103 0 -166 -45.5t-79 -122.5h-182
q24 143 143 232t298 89q166 0 267 -82.5t101 -214.5q0 -46 -7 -88l-143 -673h-167l27 127h-3q-54 -68 -134.5 -106.5t-174.5 -38.5zM395 130q112 0 198.5 65.5t109.5 169.5l26 116l-284 -15q-117 -6 -181.5 -52t-64.5 -125q0 -72 54 -115.5t142 -43.5z" />
    <glyph glyph-name="Ecedilla" unicode="&#x228;" horiz-adv-x="1134" 
d="M270 -436l25 108q50 -16 108 -16q116 0 116 57q0 63 -125 63h-59l18 86l87 138h-411l307 1443h896l-35 -162h-711l-99 -463h674l-34 -160h-674l-105 -496h711l-34 -162h-344l-80 -127q72 0 122.5 -40.5t50.5 -115.5q0 -88 -71.5 -132t-182.5 -44q-81 0 -150 23z" />
    <glyph glyph-name="ecedilla" unicode="&#x229;" horiz-adv-x="1062" 
d="M260 -436l25 108q50 -16 108 -16q116 0 116 57q0 63 -125 63h-59l18 86l77 122q-172 22 -264.5 145t-92.5 309q0 170 65 311.5t183.5 225t266.5 83.5q194 0 307 -118t113 -321q0 -82 -9 -140h-748q-1 -12 -1 -36q0 -143 68.5 -226.5t184.5 -83.5q102 0 176 50t110 137
h171q-37 -130 -142 -222.5t-246 -112.5l-71 -112q72 0 122.5 -40.5t50.5 -115.5q0 -88 -71.5 -132t-182.5 -44q-81 0 -150 23zM263 618h557q1 9 1 28q0 109 -61 184.5t-184 75.5q-117 0 -198.5 -80t-114.5 -208z" />
    <glyph glyph-name="Odieresismacron" unicode="&#x22a;" horiz-adv-x="1518" 
d="M1337 2025l-25 -116h-634l25 116h634zM766 1766q43 0 73.5 -31t30.5 -75t-30.5 -75t-73.5 -31q-44 0 -74.5 31t-30.5 75t30.5 75t74.5 31zM1120 1766q44 0 74.5 -31t30.5 -75t-30.5 -75t-74.5 -31q-43 0 -73.5 31t-30.5 75t30.5 75t73.5 31zM726 -23q-272 0 -436 172
t-164 457q0 175 56.5 333t155 274t239 184.5t300.5 68.5q272 0 436 -172t164 -457q0 -175 -56.5 -333t-155 -274t-239 -184.5t-300.5 -68.5zM877 1301q-164 0 -294.5 -93t-201 -250t-70.5 -346q0 -215 112.5 -342.5t302.5 -127.5q164 0 294.5 93t201 250t70.5 346
q0 215 -112.5 342.5t-302.5 127.5z" />
    <glyph glyph-name="odieresismacron" unicode="&#x22b;" horiz-adv-x="1096" 
d="M1031 1693l-26 -121h-575l26 121h575zM477 1205q-45 0 -77.5 32t-32.5 78t32.5 78t77.5 32t77.5 -32t32.5 -78t-32.5 -78t-77.5 -32zM849 1205q-45 0 -77.5 32t-32.5 78t32.5 78t77.5 32t77.5 -32t32.5 -78t-32.5 -78t-77.5 -32zM596 1058q199 0 317.5 -124.5
t118.5 -332.5q0 -171 -69.5 -313t-192 -224t-271.5 -82q-199 0 -317.5 124.5t-118.5 332.5q0 171 69.5 313t192 224t271.5 82zM499 135q155 0 256 132t101 329q0 141 -70.5 225t-189.5 84q-155 0 -256 -132t-101 -329q0 -141 70.5 -225t189.5 -84z" />
    <glyph glyph-name="Otildemacron" unicode="&#x22c;" horiz-adv-x="1518" 
d="M1337 2025l-26 -116h-634l26 116h634zM1058 1541q-37 0 -68.5 15.5t-53 37.5t-40 43.5t-38.5 37t-41 15.5q-35 0 -62 -35t-37 -95h-116q21 114 82 177t147 63q37 0 68 -15.5t52 -37t39.5 -43.5t39 -37.5t41.5 -15.5q33 0 59 34t39 97h116q-20 -111 -82 -176t-145 -65z
M726 -23q-272 0 -436 172t-164 457q0 175 56.5 333t155 274t239 184.5t300.5 68.5q272 0 436 -172t164 -457q0 -175 -56.5 -333t-155 -274t-239 -184.5t-300.5 -68.5zM877 1301q-164 0 -294.5 -93t-201 -250t-70.5 -346q0 -215 112.5 -342.5t302.5 -127.5q164 0 294.5 93
t201 250t70.5 346q0 215 -112.5 342.5t-302.5 127.5z" />
    <glyph glyph-name="otildemacron" unicode="&#x22d;" horiz-adv-x="1096" 
d="M1031 1693l-26 -121h-575l26 121h575zM348 1186q16 98 69.5 159t140.5 61q48 0 85.5 -21.5t57 -47t43.5 -47t47 -21.5q53 0 78 102h128q-16 -99 -69.5 -160.5t-141.5 -61.5q-48 0 -85 21.5t-56 47t-42.5 47t-47.5 21.5q-30 0 -48 -24.5t-30 -75.5h-129zM596 1058
q199 0 317.5 -124.5t118.5 -332.5q0 -171 -69.5 -313t-192 -224t-271.5 -82q-199 0 -317.5 124.5t-118.5 332.5q0 171 69.5 313t192 224t271.5 82zM499 135q155 0 256 132t101 329q0 141 -70.5 225t-189.5 84q-155 0 -256 -132t-101 -329q0 -141 70.5 -225t189.5 -84z" />
    <glyph glyph-name="Odotaccent" unicode="&#x22e;" horiz-adv-x="1518" 
d="M954 1608q-45 0 -77 32t-32 77q0 46 32 77.5t77 31.5q46 0 77.5 -31.5t31.5 -77.5q0 -45 -31.5 -77t-77.5 -32zM726 -23q-272 0 -436 172t-164 457q0 175 56.5 333t155 274t239 184.5t300.5 68.5q272 0 436 -172t164 -457q0 -175 -56.5 -333t-155 -274t-239 -184.5
t-300.5 -68.5zM877 1301q-164 0 -294.5 -93t-201 -250t-70.5 -346q0 -215 112.5 -342.5t302.5 -127.5q164 0 294.5 93t201 250t70.5 346q0 215 -112.5 342.5t-302.5 127.5z" />
    <glyph glyph-name="odotaccent" unicode="&#x22f;" horiz-adv-x="1096" 
d="M668 1225q-45 0 -77 32t-32 77q0 46 32 77.5t77 31.5q46 0 77.5 -31.5t31.5 -77.5q0 -45 -31.5 -77t-77.5 -32zM596 1058q199 0 317.5 -124.5t118.5 -332.5q0 -171 -69.5 -313t-192 -224t-271.5 -82q-199 0 -317.5 124.5t-118.5 332.5q0 171 69.5 313t192 224t271.5 82z
M499 135q155 0 256 132t101 329q0 141 -70.5 225t-189.5 84q-155 0 -256 -132t-101 -329q0 -141 70.5 -225t189.5 -84z" />
    <glyph glyph-name="Odotaccentmacron" unicode="&#x230;" horiz-adv-x="1518" 
d="M1337 2025l-26 -116h-634l26 116h634zM949 1577q-49 0 -84 34.5t-35 84.5t35 84.5t84 34.5t84 -34.5t35 -84.5t-35 -84.5t-84 -34.5zM726 -23q-272 0 -436 172t-164 457q0 175 56.5 333t155 274t239 184.5t300.5 68.5q272 0 436 -172t164 -457q0 -175 -56.5 -333
t-155 -274t-239 -184.5t-300.5 -68.5zM877 1301q-164 0 -294.5 -93t-201 -250t-70.5 -346q0 -215 112.5 -342.5t302.5 -127.5q164 0 294.5 93t201 250t70.5 346q0 215 -112.5 342.5t-302.5 127.5z" />
    <glyph glyph-name="odotaccentmacron" unicode="&#x231;" horiz-adv-x="1096" 
d="M1031 1693l-26 -121h-575l26 121h575zM663 1195q-50 0 -84.5 34.5t-34.5 84.5t34.5 84.5t84.5 34.5t84.5 -34.5t34.5 -84.5t-34.5 -84.5t-84.5 -34.5zM596 1058q199 0 317.5 -124.5t118.5 -332.5q0 -171 -69.5 -313t-192 -224t-271.5 -82q-199 0 -317.5 124.5
t-118.5 332.5q0 171 69.5 313t192 224t271.5 82zM499 135q155 0 256 132t101 329q0 141 -70.5 225t-189.5 84q-155 0 -256 -132t-101 -329q0 -141 70.5 -225t189.5 -84z" />
    <glyph glyph-name="Ymacron" unicode="&#x232;" horiz-adv-x="1256" 
d="M1179 1768l-26 -121h-575l26 121h575zM611 0h-185l132 630l-336 813h190l266 -658h4l536 658h208l-689 -839z" />
    <glyph glyph-name="ymacron" unicode="&#x233;" horiz-adv-x="976" 
d="M947 1385l-26 -121h-575l26 121h575zM52 -379q-67 0 -118 17l26 145q39 -16 94 -16q122 0 208 171l34 68l-170 1034h172l125 -848h3l452 848h192l-650 -1154q-86 -152 -170 -208.5t-198 -56.5z" />
    <glyph glyph-name="dotlessj" unicode="&#x237;" horiz-adv-x="416" 
d="M407 1040l-239 -1115q-31 -146 -114 -214t-226 -69q-42 0 -79 4l34 151q32 -3 50 -3q72 0 109 34.5t55 119.5l234 1092h176z" />
    <glyph glyph-name="quoteright" unicode="&#x2019;" horiz-adv-x="538" 
d="M361 934h-145l205 509h185z" />
    <glyph glyph-name="quoteright" unicode="&#x2bc;" horiz-adv-x="538" 
d="M361 934h-145l205 509h185z" />
    <glyph glyph-name="circumflex" unicode="&#x2c6;" horiz-adv-x="1024" 
d="M769 1490l201 -300h-158l-118 189h-6l-188 -189h-162l297 300h134z" />
    <glyph glyph-name="caron" unicode="&#x2c7;" horiz-adv-x="1024" 
d="M603 1190l-201 300h158l118 -189h6l188 189h162l-297 -300h-134z" />
    <glyph glyph-name="breve" unicode="&#x2d8;" horiz-adv-x="1024" 
d="M685 1180q-57 0 -105 14.5t-79 38t-54.5 55t-33 66t-13 69t5.5 65.5h123q-10 -82 31.5 -139t131.5 -57q81 0 136.5 51t67.5 145h129q-14 -140 -105 -224t-235 -84z" />
    <glyph glyph-name="dotaccent" unicode="&#x2d9;" horiz-adv-x="1024" 
d="M685 1225q-45 0 -77 32t-32 77q0 46 32 77.5t77 31.5q46 0 77.5 -31.5t31.5 -77.5q0 -45 -31.5 -77t-77.5 -32z" />
    <glyph glyph-name="ring" unicode="&#x2da;" horiz-adv-x="1024" 
d="M682 1132q-79 0 -135 56t-56 135t56 135t135 56t135 -56t56 -135t-56 -135t-135 -56zM682 1220q43 0 73 30t30 73t-30 73t-73 30t-73 -30t-30 -73t30 -73t73 -30z" />
    <glyph glyph-name="ogonek" unicode="&#x2db;" horiz-adv-x="1024" 
d="M324 -414q-90 0 -146 47t-56 122q0 79 63 151.5t163 113.5l158 -20q-96 -37 -167.5 -98.5t-71.5 -118.5q0 -33 25.5 -50t68.5 -17q32 0 69 8l-28 -129q-36 -9 -78 -9z" />
    <glyph glyph-name="tilde" unicode="&#x2dc;" horiz-adv-x="1024" 
d="M359 1238q16 98 69.5 159t140.5 61q48 0 85.5 -21.5t57 -47t43.5 -47t47 -21.5q53 0 78 102h128q-16 -99 -69.5 -160.5t-141.5 -61.5q-48 0 -85 21.5t-56 47t-42.5 47t-47.5 21.5q-30 0 -48 -24.5t-30 -75.5h-129z" />
    <glyph glyph-name="hungarumlaut" unicode="&#x2dd;" horiz-adv-x="1024" 
d="M340 1190l142 300h178l-191 -300h-129zM638 1190l200 300h194l-255 -300h-139z" />
    <glyph glyph-name="gravecmb" unicode="&#x300;" 
d="M77 1190l-121 300h177l75 -300h-131z" />
    <glyph glyph-name="acutecmb" unicode="&#x301;" 
d="M215 1190h-139l200 300h194z" />
    <glyph glyph-name="circumflexcmb" unicode="&#x302;" 
d="M261 1490l201 -300h-158l-118 189h-6l-188 -189h-162l297 300h134z" />
    <glyph glyph-name="tildecmb" unicode="&#x303;" 
d="M-147 1238q16 98 69.5 159t140.5 61q48 0 85.5 -21.5t57 -47t43.5 -47t47 -21.5q53 0 78 102h128q-16 -99 -69.5 -160.5t-141.5 -61.5q-48 0 -85 21.5t-56 47t-42.5 47t-47.5 21.5q-30 0 -48 -24.5t-30 -75.5h-129z" />
    <glyph glyph-name="macroncmb" unicode="&#x304;" 
d="M471 1385l-26 -121h-575l26 121h575z" />
    <glyph glyph-name="brevecmb" unicode="&#x306;" 
d="M154 1180q-57 0 -105 14.5t-79 38t-54.5 55t-33 66t-13 69t5.5 65.5h123q-10 -82 31.5 -139t131.5 -57q81 0 136.5 51t67.5 145h129q-14 -140 -105 -224t-235 -84z" />
    <glyph glyph-name="dotaccentcmb" unicode="&#x307;" 
d="M173 1225q-45 0 -77 32t-32 77q0 46 32 77.5t77 31.5q46 0 77.5 -31.5t31.5 -77.5q0 -45 -31.5 -77t-77.5 -32z" />
    <glyph glyph-name="dieresiscmb" unicode="&#x308;" 
d="M-14 1225q-45 0 -77 32t-32 77q0 46 32 77.5t77 31.5q46 0 77.5 -31.5t31.5 -77.5q0 -45 -31.5 -77t-77.5 -32zM360 1225q-45 0 -77 32t-32 77q0 46 32 77.5t77 31.5q46 0 77.5 -31.5t31.5 -77.5q0 -45 -31.5 -77t-77.5 -32z" />
    <glyph glyph-name="hookabovecmb" unicode="&#x309;" 
d="M30 1428l22 105q47 25 125 25q72 0 121 -40.5t49 -101.5q0 -78 -57 -140.5t-152 -89.5l-43 85q57 18 87 50t30 69q0 26 -22 44t-55 18q-60 0 -105 -24z" />
    <glyph glyph-name="ringcmb" unicode="&#x30a;" 
d="M170 1132q-79 0 -135 56t-56 135t56 135t135 56t135 -56t56 -135t-56 -135t-135 -56zM170 1220q43 0 73 30t30 73t-30 73t-73 30t-73 -30t-30 -73t30 -73t73 -30z" />
    <glyph glyph-name="hungarumlautcmb" unicode="&#x30b;" 
d="M-81 1190l142 300h178l-191 -300h-129zM217 1190l200 300h194l-255 -300h-139z" />
    <glyph glyph-name="caroncmb" unicode="&#x30c;" 
d="M95 1190l-201 300h158l118 -189h6l188 189h162l-297 -300h-134z" />
    <glyph glyph-name="dblgravecmb" unicode="&#x30f;" 
d="M353 1190h-124l-73 300h168zM74 1190h-131l-121 300h179z" />
    <glyph glyph-name="invertedbrevecmb" unicode="&#x311;" 
d="M152 1488q57 0 105 -14.5t79 -38t54.5 -55t33 -66t13 -69t-5.5 -65.5h-123q10 82 -31.5 139t-131.5 57q-81 0 -136.5 -51t-67.5 -145h-129q14 140 105 224t235 84z" />
    <glyph glyph-name="horncmb" unicode="&#x31b;" 
d="M-108 962l30 139q31 -43 100 -43q62 0 96 34.5t52 118.5l37 176h158l-48 -224q-26 -122 -102.5 -183.5t-189.5 -61.5q-87 0 -133 44z" />
    <glyph glyph-name="dotbelowcmb" unicode="&#x323;" 
d="M-163 -356q-45 0 -77 32t-32 77q0 46 32 77.5t77 31.5q46 0 77.5 -31.5t31.5 -77.5q0 -45 -31.5 -77t-77.5 -32z" />
    <glyph glyph-name="dieresisbelowcmb" unicode="&#x324;" 
d="M-350 -356q-45 0 -77 32t-32 77q0 46 32 77.5t77 31.5q46 0 77.5 -31.5t31.5 -77.5q0 -45 -31.5 -77t-77.5 -32zM24 -356q-45 0 -77 32t-32 77q0 46 32 77.5t77 31.5q46 0 77.5 -31.5t31.5 -77.5q0 -45 -31.5 -77t-77.5 -32z" />
    <glyph glyph-name="ringbelowcmb" unicode="&#x325;" 
d="M-164 -438q-79 0 -135 56t-56 135t56 135t135 56t135 -56t56 -135t-56 -135t-135 -56zM-164 -350q43 0 73 30t30 73t-30 73t-73 30t-73 -30t-30 -73t30 -73t73 -30z" />
    <glyph glyph-name="commabelowcmb" unicode="&#x326;" 
d="M-227 -486h-132l153 359h152z" />
    <glyph glyph-name="cedillacmb" unicode="&#x327;" 
d="M-340 -436l25 108q50 -16 108 -16q116 0 116 57q0 63 -125 63h-59l18 86l101 160h127v-22l-80 -127q72 0 122.5 -40.5t50.5 -115.5q0 -88 -71.5 -132t-182.5 -44q-81 0 -150 23z" />
    <glyph glyph-name="ogonekcmb" unicode="&#x328;" 
d="M-188 -414q-90 0 -146 47t-56 122q0 79 63 151.5t163 113.5l158 -20q-96 -37 -167.5 -98.5t-71.5 -118.5q0 -33 25.5 -50t68.5 -17q32 0 69 8l-28 -129q-36 -9 -78 -9z" />
    <glyph glyph-name="circumflexbelowcmb" unicode="&#x32d;" 
d="M-83 -127l201 -300h-158l-118 189h-6l-188 -189h-162l297 300h134z" />
    <glyph glyph-name="brevebelowcmb" unicode="&#x32e;" 
d="M-182 -401q-57 0 -105 14.5t-79 38t-54.5 55t-33 66t-13 69t5.5 65.5h123q-10 -82 31.5 -139t131.5 -57q81 0 136.5 51t67.5 145h129q-14 -140 -105 -224t-235 -84z" />
    <glyph glyph-name="tildebelowcmb" unicode="&#x330;" 
d="M-482 -339q16 98 69.5 159t140.5 61q48 0 85.5 -21.5t57 -47t43.5 -47t47 -21.5q53 0 78 102h128q-16 -99 -69.5 -160.5t-141.5 -61.5q-48 0 -85 21.5t-56 47t-42.5 47t-47.5 21.5q-30 0 -48 -24.5t-30 -75.5h-129z" />
    <glyph glyph-name="macronbelowcmb" unicode="&#x332;" 
d="M137 -187l-26 -121h-575l26 121h575z" />
    <glyph glyph-name="macronbelowcmb" unicode="&#x331;" 
d="M137 -187l-26 -121h-575l26 121h575z" />
    <glyph glyph-name="greekquestionmark" unicode="&#x37e;" horiz-adv-x="522" 
d="M343 796q-48 0 -81 33t-33 81t33 81t81 33t81 -33t33 -81t-33 -81t-81 -33zM86 -287h-145l205 509h185z" />
    <glyph glyph-name="tonosgreek" unicode="&#x384;" horiz-adv-x="1024" 
d="M530 1190l112 300h200l-164 -300h-148z" />
    <glyph glyph-name="dieresistonosgreek" unicode="&#x385;" horiz-adv-x="1024" 
d="M562 1190l68 300h196l-116 -300h-148zM404 1215q-45 0 -77 32t-32 77q0 46 32 77.5t77 31.5q46 0 77.5 -31.5t31.5 -77.5q0 -45 -31.5 -77t-77.5 -32zM960 1215q-45 0 -77 32t-32 77q0 46 32 77.5t77 31.5q46 0 77.5 -31.5t31.5 -77.5q0 -45 -31.5 -77t-77.5 -32z" />
    <glyph glyph-name="Alphatonosgreek" unicode="&#x386;" horiz-adv-x="1291" 
d="M984 0l-59 413h-579l-234 -413h-198l836 1443h181l224 -1443h-171zM258 1143l112 300h200l-164 -300h-148zM799 1224l-368 -658h471l-99 658h-4z" />
    <glyph glyph-name="anoteleia" unicode="&#x387;" horiz-adv-x="522" 
d="M347 812q-48 0 -81 33t-33 81t33 81t81 33t81 -33t33 -81t-33 -81t-81 -33z" />
    <glyph glyph-name="Epsilontonosgreek" unicode="&#x388;" horiz-adv-x="1361" 
d="M142 1143l112 300h200l-164 -300h-148zM1186 162l-34 -162h-896l307 1443h896l-35 -162h-711l-99 -463h674l-34 -160h-674l-105 -496h711z" />
    <glyph glyph-name="Etatonosgreek" unicode="&#x389;" horiz-adv-x="1663" 
d="M142 1143l112 300h200l-164 -300h-148zM1412 0h-184l140 657h-788l-140 -657h-184l307 1443h184l-133 -624h788l133 624h184z" />
    <glyph glyph-name="Iotatonosgreek" unicode="&#x38a;" horiz-adv-x="691" 
d="M142 1143l112 300h200l-164 -300h-148zM440 0h-184l307 1443h184z" />
    <glyph glyph-name="Omicrontonosgreek" unicode="&#x38c;" horiz-adv-x="1686" 
d="M894 -23q-272 0 -436 172t-164 457q0 175 56.5 333t155 274t239 184.5t300.5 68.5q272 0 436 -172t164 -457q0 -175 -56.5 -333t-155 -274t-239 -184.5t-300.5 -68.5zM142 1143l112 300h200l-164 -300h-148zM1045 1301q-164 0 -294.5 -93t-201 -250t-70.5 -346
q0 -215 112.5 -342.5t302.5 -127.5q164 0 294.5 93t201 250t70.5 346q0 215 -112.5 342.5t-302.5 127.5z" />
    <glyph glyph-name="Upsilontonosgreek" unicode="&#x38e;" horiz-adv-x="1548" 
d="M142 1143l112 300h200l-164 -300h-148zM903 0h-185l132 630l-336 813h190l266 -658h4l536 658h208l-689 -839z" />
    <glyph glyph-name="Omegatonosgreek" unicode="&#x38f;" horiz-adv-x="1718" 
d="M1024 0l41 194q430 248 430 684q0 191 -114.5 307.5t-312.5 116.5q-251 0 -402.5 -172t-151.5 -453q0 -155 72.5 -279.5t208.5 -203.5l-41 -194h-530l34 162h315v7q-116 85 -180 213.5t-64 291.5q0 173 55.5 320t154.5 251t241.5 163t311.5 59q270 0 429 -159t159 -418
q0 -219 -110 -413.5t-294 -306.5v-8h313l-34 -162h-531zM142 1143l112 300h200l-164 -300h-148z" />
    <glyph glyph-name="iotadieresistonosgreek" unicode="&#x390;" horiz-adv-x="518" 
d="M266 1190l68 300h196l-116 -300h-148zM108 1215q-45 0 -77 32t-32 77q0 46 32 77.5t77 31.5q46 0 77.5 -31.5t31.5 -77.5q0 -45 -31.5 -77t-77.5 -32zM664 1215q-45 0 -77 32t-32 77q0 46 32 77.5t77 31.5q46 0 77.5 -31.5t31.5 -77.5q0 -45 -31.5 -77t-77.5 -32z
M378 1040l-147 -692q-12 -56 -12 -94q0 -111 135 -111q45 0 72 4l-31 -145q-61 -10 -105 -10q-118 0 -186.5 56.5t-68.5 156.5q0 40 10 89l159 746h174z" />
    <glyph glyph-name="Alphagreek" unicode="&#x391;" horiz-adv-x="1291" 
d="M984 0l-59 413h-579l-234 -413h-198l836 1443h181l224 -1443h-171zM799 1224l-368 -658h471l-99 658h-4z" />
    <glyph glyph-name="Betagreek" unicode="&#x392;" horiz-adv-x="1300" 
d="M629 0h-600l307 1443h511q175 0 285.5 -87t110.5 -231q0 -134 -87.5 -235t-225.5 -139l-1 -4q116 -18 181.5 -98t65.5 -191q0 -201 -151.5 -329.5t-395.5 -128.5zM486 1284l-98 -463h297q165 0 268 74t103 193q0 196 -278 196h-292zM247 159h376q159 0 260.5 80.5
t101.5 203.5q0 223 -296 223h-334z" />
    <glyph glyph-name="Gammagreek" unicode="&#x393;" horiz-adv-x="1064" 
d="M214 0h-185l307 1443h858l-35 -162h-673z" />
    <glyph glyph-name="Deltagreek" unicode="&#x2206;" horiz-adv-x="1313" 
d="M1140 0h-1189l27 126l783 1317h181l225 -1317zM810 1224l-613 -1058l-1 -4h795l1 2l-178 1060h-4z" />
    <glyph glyph-name="Deltagreek" unicode="&#x394;" horiz-adv-x="1313" 
d="M1140 0h-1189l27 126l783 1317h181l225 -1317zM810 1224l-613 -1058l-1 -4h795l1 2l-178 1060h-4z" />
    <glyph glyph-name="Epsilongreek" unicode="&#x395;" horiz-adv-x="1134" 
d="M959 162l-34 -162h-896l307 1443h896l-35 -162h-711l-99 -463h674l-34 -160h-674l-105 -496h711z" />
    <glyph glyph-name="Zetagreek" unicode="&#x396;" horiz-adv-x="1263" 
d="M-13 0l27 128l1051 1149l1 4h-779l35 162h1021l-27 -128l-1049 -1149l-1 -4h822l-34 -162h-1067z" />
    <glyph glyph-name="Etagreek" unicode="&#x397;" horiz-adv-x="1436" 
d="M1185 0h-184l140 657h-788l-140 -657h-184l307 1443h184l-133 -624h788l133 624h184z" />
    <glyph glyph-name="Thetagreek" unicode="&#x398;" horiz-adv-x="1528" 
d="M731 -23q-272 0 -438.5 172.5t-166.5 456.5q0 175 57.5 333t156.5 274t240.5 184.5t301.5 68.5q272 0 438.5 -172.5t166.5 -456.5q0 -175 -57.5 -333t-156.5 -274t-240.5 -184.5t-301.5 -68.5zM1302 831q0 215 -115 342.5t-305 127.5q-164 0 -295.5 -93t-203.5 -250
t-72 -346q0 -215 115 -342.5t305 -127.5q164 0 295.5 93t203.5 250t72 346zM1094 638h-611l34 160h611z" />
    <glyph glyph-name="Iotagreek" unicode="&#x399;" horiz-adv-x="464" 
d="M213 0h-184l307 1443h184z" />
    <glyph glyph-name="Kappagreek" unicode="&#x39a;" horiz-adv-x="1259" 
d="M213 0h-184l307 1443h184l-149 -701h4l776 701h238l-714 -648l460 -795h-210l-392 683l-215 -189z" />
    <glyph glyph-name="Lambdagreek" unicode="&#x39b;" horiz-adv-x="1271" 
d="M789 1224l-667 -1224h-198l816 1443h181l204 -1443h-171l-161 1224h-4z" />
    <glyph glyph-name="Mugreek" unicode="&#x39c;" horiz-adv-x="1706" 
d="M199 0h-170l307 1443h200l243 -1216h4l754 1216h225l-307 -1443h-170l239 1124h-7l-699 -1114h-153l-223 1114h-6z" />
    <glyph glyph-name="Nugreek" unicode="&#x39d;" horiz-adv-x="1434" 
d="M213 0h-184l307 1443h184l533 -1173h4l249 1173h184l-307 -1443h-184l-533 1173h-4z" />
    <glyph glyph-name="Xigreek" unicode="&#x39e;" horiz-adv-x="1257" 
d="M295 1443h1059l-35 -167h-1059zM1099 653h-885l36 165h885zM24 167h1059l-35 -167h-1059z" />
    <glyph glyph-name="Omicrongreek" unicode="&#x39f;" horiz-adv-x="1518" 
d="M726 -23q-272 0 -436 172t-164 457q0 175 56.5 333t155 274t239 184.5t300.5 68.5q272 0 436 -172t164 -457q0 -175 -56.5 -333t-155 -274t-239 -184.5t-300.5 -68.5zM877 1301q-164 0 -294.5 -93t-201 -250t-70.5 -346q0 -215 112.5 -342.5t302.5 -127.5q164 0 294.5 93
t201 250t70.5 346q0 215 -112.5 342.5t-302.5 127.5z" />
    <glyph glyph-name="Pigreek" unicode="&#x3a0;" horiz-adv-x="1416" 
d="M1165 0h-185l274 1281h-769l-273 -1281h-183l307 1443h1136z" />
    <glyph glyph-name="Rhogreek" unicode="&#x3a1;" horiz-adv-x="1224" 
d="M336 1443h507q177 0 295.5 -107.5t118.5 -282.5q0 -164 -77.5 -287.5t-209.5 -187t-298 -63.5h-349l-109 -515h-185zM486 1283l-129 -608h304q188 0 298 95t110 267q0 116 -77.5 181t-210.5 65h-295z" />
    <glyph glyph-name="Sigmagreek" unicode="&#x3a3;" horiz-adv-x="1262" 
d="M257 166l-1 -4h831l-34 -162h-1067l27 128l541 620l-260 561l28 134h1019l-34 -162h-797l-1 -4l239 -525l-5 -18z" />
    <glyph glyph-name="Taugreek" unicode="&#x3a4;" horiz-adv-x="1211" 
d="M587 0h-184l272 1281h-463l34 162h1110l-34 -162h-463z" />
    <glyph glyph-name="Upsilongreek" unicode="&#x3a5;" horiz-adv-x="1256" 
d="M611 0h-185l132 630l-336 813h190l266 -658h4l536 658h208l-689 -839z" />
    <glyph glyph-name="Phigreek" unicode="&#x3a6;" horiz-adv-x="1629" 
d="M599 -58l30 143q-249 24 -385 161.5t-136 364.5q0 210 100 377.5t280 262.5t410 100l31 146h184l-31 -146q250 -25 385.5 -162t135.5 -366q0 -157 -58.5 -292.5t-162 -232t-250.5 -153t-319 -60.5l-30 -143h-184zM664 246l199 943q-254 0 -412 -155.5t-158 -403.5
q0 -172 96.5 -271.5t274.5 -112.5zM848 247q255 0 412.5 154.5t157.5 405.5q0 172 -96.5 271t-273.5 111z" />
    <glyph glyph-name="Chigreek" unicode="&#x3a7;" horiz-adv-x="1304" 
d="M-71 0l652 734l-333 709h206l262 -581h8l504 581h232l-651 -734l332 -709h-206l-262 582h-8l-504 -582h-232z" />
    <glyph glyph-name="Psigreek" unicode="&#x3a8;" horiz-adv-x="1583" 
d="M773 0h-185l72 339q-238 26 -355 132.5t-117 297.5q0 56 14 129l114 545h184l-113 -539q-16 -73 -16 -136q0 -126 81 -189t243 -74l200 938h185l-200 -938q395 0 479 399l115 539h184l-116 -545q-29 -136 -79 -233t-131.5 -169t-202 -110.5t-284.5 -46.5z" />
    <glyph glyph-name="Omegagreek" unicode="&#x2126;" horiz-adv-x="1515" 
d="M821 0l41 194q430 248 430 684q0 191 -114.5 307.5t-312.5 116.5q-251 0 -402.5 -172t-151.5 -453q0 -155 72.5 -279.5t208.5 -203.5l-41 -194h-530l34 162h315v7q-116 85 -180 213.5t-64 291.5q0 173 55.5 320t154.5 251t241.5 163t311.5 59q270 0 429 -159t159 -418
q0 -219 -110 -413.5t-294 -306.5v-8h313l-34 -162h-531z" />
    <glyph glyph-name="Omegagreek" unicode="&#x3a9;" horiz-adv-x="1515" 
d="M821 0l41 194q430 248 430 684q0 191 -114.5 307.5t-312.5 116.5q-251 0 -402.5 -172t-151.5 -453q0 -155 72.5 -279.5t208.5 -203.5l-41 -194h-530l34 162h315v7q-116 85 -180 213.5t-64 291.5q0 173 55.5 320t154.5 251t241.5 163t311.5 59q270 0 429 -159t159 -418
q0 -219 -110 -413.5t-294 -306.5v-8h313l-34 -162h-531z" />
    <glyph glyph-name="Iotadieresisgreek" unicode="&#x3aa;" horiz-adv-x="464" 
d="M300 1608q-45 0 -77 32t-32 77q0 46 32 77.5t77 31.5q46 0 77.5 -31.5t31.5 -77.5q0 -45 -31.5 -77t-77.5 -32zM674 1608q-45 0 -77 32t-32 77q0 46 32 77.5t77 31.5q46 0 77.5 -31.5t31.5 -77.5q0 -45 -31.5 -77t-77.5 -32zM213 0h-184l307 1443h184z" />
    <glyph glyph-name="Upsilondieresisgreek" unicode="&#x3ab;" horiz-adv-x="1256" 
d="M694 1608q-45 0 -77 32t-32 77q0 46 32 77.5t77 31.5q46 0 77.5 -31.5t31.5 -77.5q0 -45 -31.5 -77t-77.5 -32zM1068 1608q-45 0 -77 32t-32 77q0 46 32 77.5t77 31.5q46 0 77.5 -31.5t31.5 -77.5q0 -45 -31.5 -77t-77.5 -32zM611 0h-185l132 630l-336 813h190l266 -658
h4l536 658h208l-689 -839z" />
    <glyph glyph-name="alphatonosgreek" unicode="&#x3ac;" horiz-adv-x="1168" 
d="M565 1190l112 300h200l-164 -300h-148zM411 -18q-167 0 -267 120t-100 322q0 178 66.5 323t184.5 228t263 83q130 0 211 -67.5t108 -172.5h6l47 222h167l-157 -740q-13 -59 -13 -85q0 -35 19.5 -50.5t64.5 -15.5q27 0 47 4l-31 -145q-40 -10 -83 -10q-100 0 -147.5 40.5
t-47.5 137.5v4h-4q-51 -88 -142 -143t-192 -55zM457 134q147 0 252.5 139.5t105.5 337.5q0 135 -72 214.5t-185 79.5q-154 0 -247 -134t-93 -339q0 -135 65.5 -216.5t173.5 -81.5z" />
    <glyph glyph-name="epsilontonosgreek" unicode="&#x3ad;" horiz-adv-x="1031" 
d="M575 1190l112 300h200l-164 -300h-148zM444 -9q-180 0 -290 71t-110 205q0 100 65.5 170t171.5 96v2q-66 24 -102 75t-36 119q0 146 121.5 233.5t309.5 87.5q119 0 206.5 -29t136 -79t71.5 -107.5t24 -124.5h-170q-6 42 -19.5 72t-41.5 58t-80 42.5t-126 14.5
q-119 0 -186.5 -47.5t-67.5 -118.5q0 -133 202 -133h157l-32 -149h-184q-112 0 -174 -44.5t-62 -116.5q0 -70 63 -107.5t177 -37.5q119 0 207.5 50t117.5 133h179q-38 -155 -176 -245t-352 -90z" />
    <glyph glyph-name="etatonosgreek" unicode="&#x3ae;" horiz-adv-x="1224" 
d="M678 1190l112 300h200l-164 -300h-148zM755 -348l204 943q11 47 11 90q0 98 -61.5 154t-160.5 56q-123 0 -210 -76.5t-117 -213.5l-127 -605h-175l162 763q7 34 7 56q0 37 -20 54.5t-66 17.5q-28 0 -49 -4l31 145q40 10 83 10q88 0 131.5 -33t52.5 -110l1 -4l4 -25h4
q58 88 151.5 133.5t206.5 45.5q142 0 238 -88.5t96 -234.5q0 -47 -16 -121l-206 -953h-175z" />
    <glyph glyph-name="iotatonosgreek" unicode="&#x3af;" horiz-adv-x="518" 
d="M265 1190l112 300h200l-164 -300h-148zM378 1040l-147 -692q-12 -56 -12 -94q0 -111 135 -111q45 0 72 4l-31 -145q-61 -10 -105 -10q-118 0 -186.5 56.5t-68.5 156.5q0 40 10 89l159 746h174z" />
    <glyph glyph-name="upsilondieresistonosgreek" unicode="&#x3b0;" horiz-adv-x="1041" 
d="M545 1190l68 300h196l-116 -300h-148zM387 1215q-45 0 -77 32t-32 77q0 46 32 77.5t77 31.5q46 0 77.5 -31.5t31.5 -77.5q0 -45 -31.5 -77t-77.5 -32zM943 1215q-45 0 -77 32t-32 77q0 46 32 77.5t77 31.5q46 0 77.5 -31.5t31.5 -77.5q0 -45 -31.5 -77t-77.5 -32z
M813 1040h172q17 -79 17 -190q0 -394 -162 -631t-435 -237q-161 0 -252.5 82.5t-91.5 223.5q0 69 17 150l126 602h176l-105 -495q-34 -162 -34 -236q2 -173 182 -173q119 0 211 92.5t142 257.5t50 376q0 59 -13 178z" />
    <glyph glyph-name="alphagreek" unicode="&#x3b1;" horiz-adv-x="1168" 
d="M411 -18q-167 0 -267 120t-100 322q0 178 66.5 323t184.5 228t263 83q130 0 211 -67.5t108 -172.5h6l47 222h167l-157 -740q-13 -59 -13 -85q0 -35 19.5 -50.5t64.5 -15.5q27 0 47 4l-31 -145q-40 -10 -83 -10q-100 0 -147.5 40.5t-47.5 137.5v4h-4q-51 -88 -142 -143
t-192 -55zM457 134q147 0 252.5 139.5t105.5 337.5q0 135 -72 214.5t-185 79.5q-154 0 -247 -134t-93 -339q0 -135 65.5 -216.5t173.5 -81.5z" />
    <glyph glyph-name="betagreek" unicode="&#x3b2;" horiz-adv-x="1129" 
d="M215 1040q45 211 160 316t308 105q173 0 279 -89t106 -234q0 -125 -63 -217.5t-190 -137.5v-2q250 -69 250 -331q0 -89 -31.5 -171.5t-91 -149.5t-156.5 -107t-217 -40q-126 0 -225 65.5t-127 169.5h-5l-120 -565h-172zM483 696l33 154h100q129 0 207 72.5t78 188.5
q0 88 -60.5 142.5t-171.5 54.5q-102 0 -178.5 -71.5t-106.5 -214.5l-107 -504q-17 -77 -17 -111q0 -122 90.5 -196.5t228.5 -74.5q126 0 220.5 86.5t94.5 213.5q0 123 -76.5 191.5t-216.5 68.5h-118z" />
    <glyph glyph-name="gammagreek" unicode="&#x3b3;" horiz-adv-x="1023" 
d="M1036 1040q-7 -73 -25 -158q-46 -217 -172.5 -417.5t-408.5 -492.5l-66 -310h-172l67 316l-136 1062h172l102 -892q198 215 302 387t141 346q15 73 24 159h172z" />
    <glyph glyph-name="deltagreek" unicode="&#x3b4;" horiz-adv-x="1063" 
d="M469 -18q-192 0 -313.5 119.5t-121.5 312.5q0 213 122 358.5t340 172.5l1 2q-159 87 -159 233q0 127 103 199.5t282 72.5q108 0 201.5 -25t141.5 -67l-38 -151q-145 92 -338 92q-86 0 -132.5 -30t-46.5 -88q0 -41 33.5 -74.5t138.5 -92.5q181 -101 256.5 -212t75.5 -244
q0 -113 -34.5 -215.5t-100 -184t-172 -130t-239.5 -48.5zM487 132q152 0 252 118t100 302q0 130 -73 207t-196 77q-152 0 -256 -111.5t-104 -297.5q0 -130 79 -212.5t198 -82.5z" />
    <glyph glyph-name="epsilongreek" unicode="&#x3b5;" horiz-adv-x="1031" 
d="M444 -9q-180 0 -290 71t-110 205q0 100 65.5 170t171.5 96v2q-66 24 -102 75t-36 119q0 146 121.5 233.5t309.5 87.5q119 0 206.5 -29t136 -79t71.5 -107.5t24 -124.5h-170q-6 42 -19.5 72t-41.5 58t-80 42.5t-126 14.5q-119 0 -186.5 -47.5t-67.5 -118.5
q0 -133 202 -133h157l-32 -149h-184q-112 0 -174 -44.5t-62 -116.5q0 -70 63 -107.5t177 -37.5q119 0 207.5 50t117.5 133h179q-38 -155 -176 -245t-352 -90z" />
    <glyph glyph-name="zetagreek" unicode="&#x3b6;" horiz-adv-x="863" 
d="M652 -361l-130 47q53 66 74 105.5t21 85.5q0 47 -32.5 73t-127.5 62q-215 82 -306 185.5t-91 268.5q0 232 175.5 432t517.5 386l1 5h-479l33 154h721l8 -153q-385 -193 -590.5 -392.5t-205.5 -418.5q0 -111 55 -173.5t205 -123.5q176 -72 234 -128t58 -148
q0 -78 -35.5 -141t-105.5 -126z" />
    <glyph glyph-name="etagreek" unicode="&#x3b7;" horiz-adv-x="1224" 
d="M755 -348l204 943q11 47 11 90q0 98 -61.5 154t-160.5 56q-123 0 -210 -76.5t-117 -213.5l-127 -605h-175l162 763q7 34 7 56q0 37 -20 54.5t-66 17.5q-28 0 -49 -4l31 145q40 10 83 10q88 0 131.5 -33t52.5 -110l1 -4l4 -25h4q58 88 151.5 133.5t206.5 45.5
q142 0 238 -88.5t96 -234.5q0 -47 -16 -121l-206 -953h-175z" />
    <glyph glyph-name="thetagreek" unicode="&#x3b8;" horiz-adv-x="1120" 
d="M472 -18q-194 0 -296.5 131.5t-102.5 373.5q0 123 25 260q61 348 214.5 530.5t380.5 182.5q193 0 295 -129.5t102 -371.5q0 -104 -25 -248q-62 -348 -216 -538.5t-377 -190.5zM289 812h615q10 81 10 147q0 347 -240 347q-140 0 -235.5 -121.5t-149.5 -372.5zM481 135
q146 0 243 128t154 396h-616q-13 -89 -13 -186q0 -98 23 -172t76 -120t133 -46z" />
    <glyph glyph-name="iotagreek" unicode="&#x3b9;" horiz-adv-x="518" 
d="M378 1040l-147 -692q-12 -56 -12 -94q0 -111 135 -111q45 0 72 4l-31 -145q-61 -10 -105 -10q-118 0 -186.5 56.5t-68.5 156.5q0 40 10 89l159 746h174z" />
    <glyph glyph-name="kappagreek" unicode="&#x3ba;" horiz-adv-x="1049" 
d="M954 1042q57 0 94 -10l-32 -145q-23 4 -54 4q-38 0 -68 -17.5t-78 -64.5l-187 -182l276 -627h-179l-217 510l-293 -290l-47 -220h-174l221 1040h175l-118 -548h2l383 383q103 104 159 135.5t137 31.5z" />
    <glyph glyph-name="lambdagreek" unicode="&#x3bb;" horiz-adv-x="1014" 
d="M942 149q24 0 47 4l-31 -145q-37 -10 -88 -10q-102 0 -150.5 51t-65.5 173l-70 527h-2l-447 -749h-200l614 981l-11 68q-11 67 -24 113t-26.5 73.5t-32.5 42t-38 19t-48 4.5q-16 0 -45 -4l31 145q39 10 85 10q78 0 127 -30t84.5 -111.5t55.5 -228.5l115 -827
q8 -59 35 -82.5t85 -23.5z" />
    <glyph glyph-name="nugreek" unicode="&#x3bd;" horiz-adv-x="1023" 
d="M1036 1040q-7 -70 -25 -157q-47 -220 -170.5 -413t-384.5 -470h-200l-133 1040h172l103 -896h4q188 202 293.5 377t144.5 361q16 75 24 158h172z" />
    <glyph glyph-name="xigreek" unicode="&#x3be;" horiz-adv-x="873" 
d="M652 -361l-130 47q56 70 75.5 109.5t19.5 81.5q0 45 -32 71.5t-130 64.5q-223 86 -319 178t-96 221q0 137 95 222t280 113v2q-92 32 -144 100.5t-52 156.5q0 97 57.5 165.5t178.5 115.5v2h-193l32 154h706l7 -137l-123 -11q-240 -21 -369.5 -88.5t-129.5 -171.5
q0 -101 96 -157.5t266 -56.5h98l-33 -154h-91q-252 0 -375 -58t-123 -176q0 -76 63 -133t214 -118q174 -70 233.5 -125.5t59.5 -146.5q0 -77 -32.5 -139t-108.5 -132z" />
    <glyph glyph-name="omicrongreek" unicode="&#x3bf;" horiz-adv-x="1096" 
d="M596 1058q199 0 317.5 -124.5t118.5 -332.5q0 -171 -69.5 -313t-192 -224t-271.5 -82q-199 0 -317.5 124.5t-118.5 332.5q0 171 69.5 313t192 224t271.5 82zM499 135q155 0 256 132t101 329q0 141 -70.5 225t-189.5 84q-155 0 -256 -132t-101 -329q0 -141 70.5 -225
t189.5 -84z" />
    <glyph glyph-name="pigreek" unicode="&#x3c0;" horiz-adv-x="1230" 
d="M756 282l130 609h-430l-189 -891h-167l189 891h-184l32 149h1156l-32 -149h-208l-130 -608q-11 -52 -11 -72q0 -38 18.5 -53t68.5 -15q32 0 53 4l-31 -145q-39 -10 -85 -10q-96 0 -147 44.5t-51 122.5q0 37 18 123z" />
    <glyph glyph-name="rhogreek" unicode="&#x3c1;" horiz-adv-x="1078" 
d="M601 1058q201 0 321 -128t120 -327q0 -173 -66.5 -315.5t-185 -224t-264.5 -81.5q-140 0 -223.5 69.5t-108.5 165.5h-5l-121 -565h-171l191 899q55 258 188 382.5t325 124.5zM523 136q140 0 244 124t104 339q0 144 -76 225t-200 81q-100 0 -178 -61.5t-120.5 -168.5
t-42.5 -241q0 -138 75 -218t194 -80z" />
    <glyph glyph-name="sigmafinalgreek" unicode="&#x3c2;" horiz-adv-x="987" 
d="M785 -88q0 -81 -33 -142.5t-108 -130.5l-130 47q52 64 73.5 104.5t21.5 84.5q0 45 -30.5 72.5t-125.5 63.5q-401 153 -401 497q0 110 33.5 208t97.5 175t166 122t230 45q121 0 218 -54t148.5 -134.5t57.5 -169.5h-174q-18 92 -86 148.5t-180 56.5q-81 0 -145.5 -33
t-104.5 -89t-60.5 -124.5t-20.5 -143.5q0 -225 265 -334q171 -70 229.5 -126.5t58.5 -142.5z" />
    <glyph glyph-name="sigmagreek" unicode="&#x3c3;" horiz-adv-x="1110" 
d="M461 -18q-190 0 -305.5 127t-115.5 321q0 127 37.5 238t106.5 194t175.5 130.5t237.5 47.5h595l-32 -149h-288v-2q120 -99 120 -287q0 -122 -39.5 -235t-108 -198t-168.5 -136t-215 -51zM459 135q164 0 260.5 129.5t96.5 325.5q0 144 -64.5 220.5t-178.5 76.5
q-151 0 -254 -125t-103 -326q0 -139 64 -220t179 -81z" />
    <glyph glyph-name="taugreek" unicode="&#x3c4;" horiz-adv-x="894" 
d="M666 147l-31 -145q-43 -10 -117 -10q-128 0 -202 54t-74 159q0 43 10 90l128 596h-329l30 149h889l-32 -149h-385l-115 -542q-12 -55 -12 -95q0 -59 40 -85t126 -26q45 0 74 4z" />
    <glyph glyph-name="upsilongreek" unicode="&#x3c5;" horiz-adv-x="1041" 
d="M813 1040h172q17 -79 17 -190q0 -394 -162 -631t-435 -237q-161 0 -252.5 82.5t-91.5 223.5q0 69 17 150l126 602h176l-105 -495q-34 -162 -34 -236q2 -173 182 -173q119 0 211 92.5t142 257.5t50 376q0 59 -13 178z" />
    <glyph glyph-name="phigreek" unicode="&#x3c6;" horiz-adv-x="1371" 
d="M418 -348l72 338q-209 23 -328 140t-119 299q0 277 187 447.5t484 173.5l53 249h171l-53 -250q204 -22 323.5 -140t119.5 -299q0 -180 -86 -321.5t-238.5 -220t-345.5 -78.5l-70 -338h-170zM519 135l166 772q-210 -5 -338 -130t-128 -329q0 -130 77.5 -210t222.5 -103z
M688 133q213 11 338.5 134t125.5 326q0 127 -78 208t-220 103z" />
    <glyph glyph-name="chigreek" unicode="&#x3c7;" horiz-adv-x="1090" 
d="M804 -350q-88 0 -134.5 34.5t-70.5 117.5l-111 379h-16l-388 -529h-186l539 710l-127 419q-20 65 -46.5 87.5t-84.5 22.5q-31 0 -52 -4l31 145q40 10 88 10q87 0 137.5 -36.5t76.5 -125.5l109 -363h16l380 523h185l-530 -704l125 -422q18 -62 48 -87.5t86 -25.5
q26 0 50 4l-31 -145q-43 -10 -94 -10z" />
    <glyph glyph-name="psigreek" unicode="&#x3c8;" horiz-adv-x="1340" 
d="M573 -348h-171l72 339q-413 14 -413 305q0 62 23 172l120 572h176l-125 -587q-14 -64 -14 -124q0 -88 62.5 -132.5t203.5 -51.5l245 1154h171l-245 -1154q120 0 209.5 56.5t141.5 158t77 228t25 280.5q0 37 -13 172h172q17 -79 17 -187q0 -95 -8.5 -181t-29.5 -174
t-54.5 -161.5t-85.5 -139t-119.5 -110t-160.5 -70.5t-204 -26z" />
    <glyph glyph-name="omegagreek" unicode="&#x3c9;" horiz-adv-x="1472" 
d="M1384 613q0 -173 -61 -318t-167 -229t-232 -84q-105 0 -174.5 56.5t-85.5 176.5h-1q-113 -233 -300 -233q-153 0 -234 100t-81 284t80 367.5t218 306.5h188q-151 -142 -230.5 -317t-79.5 -364q0 -100 42.5 -162t114.5 -62q85 0 146.5 65.5t84.5 176.5l78 366h172
l-66 -319q-10 -50 -10 -87q0 -202 156 -202q117 0 191.5 137.5t74.5 355.5q0 211 -77 412h188q65 -174 65 -427z" />
    <glyph glyph-name="iotadieresisgreek" unicode="&#x3ca;" horiz-adv-x="518" 
d="M187 1225q-45 0 -77 32t-32 77q0 46 32 77.5t77 31.5q46 0 77.5 -31.5t31.5 -77.5q0 -45 -31.5 -77t-77.5 -32zM561 1225q-45 0 -77 32t-32 77q0 46 32 77.5t77 31.5q46 0 77.5 -31.5t31.5 -77.5q0 -45 -31.5 -77t-77.5 -32zM378 1040l-147 -692q-12 -56 -12 -94
q0 -111 135 -111q45 0 72 4l-31 -145q-61 -10 -105 -10q-118 0 -186.5 56.5t-68.5 156.5q0 40 10 89l159 746h174z" />
    <glyph glyph-name="upsilondieresisgreek" unicode="&#x3cb;" horiz-adv-x="1041" 
d="M466 1225q-45 0 -77 32t-32 77q0 46 32 77.5t77 31.5q46 0 77.5 -31.5t31.5 -77.5q0 -45 -31.5 -77t-77.5 -32zM840 1225q-45 0 -77 32t-32 77q0 46 32 77.5t77 31.5q46 0 77.5 -31.5t31.5 -77.5q0 -45 -31.5 -77t-77.5 -32zM813 1040h172q17 -79 17 -190
q0 -394 -162 -631t-435 -237q-161 0 -252.5 82.5t-91.5 223.5q0 69 17 150l126 602h176l-105 -495q-34 -162 -34 -236q2 -173 182 -173q119 0 211 92.5t142 257.5t50 376q0 59 -13 178z" />
    <glyph glyph-name="omicrontonosgreek" unicode="&#x3cc;" horiz-adv-x="1096" 
d="M559 1190l112 300h200l-164 -300h-148zM596 1058q199 0 317.5 -124.5t118.5 -332.5q0 -171 -69.5 -313t-192 -224t-271.5 -82q-199 0 -317.5 124.5t-118.5 332.5q0 171 69.5 313t192 224t271.5 82zM499 135q155 0 256 132t101 329q0 141 -70.5 225t-189.5 84
q-155 0 -256 -132t-101 -329q0 -141 70.5 -225t189.5 -84z" />
    <glyph glyph-name="upsilontonosgreek" unicode="&#x3cd;" horiz-adv-x="1041" 
d="M544 1190l112 300h200l-164 -300h-148zM813 1040h172q17 -79 17 -190q0 -394 -162 -631t-435 -237q-161 0 -252.5 82.5t-91.5 223.5q0 69 17 150l126 602h176l-105 -495q-34 -162 -34 -236q2 -173 182 -173q119 0 211 92.5t142 257.5t50 376q0 59 -13 178z" />
    <glyph glyph-name="omegatonosgreek" unicode="&#x3ce;" horiz-adv-x="1472" 
d="M799 1190l112 300h200l-164 -300h-148zM1384 613q0 -173 -61 -318t-167 -229t-232 -84q-105 0 -174.5 56.5t-85.5 176.5h-1q-113 -233 -300 -233q-153 0 -234 100t-81 284t80 367.5t218 306.5h188q-151 -142 -230.5 -317t-79.5 -364q0 -100 42.5 -162t114.5 -62
q85 0 146.5 65.5t84.5 176.5l78 366h172l-66 -319q-10 -50 -10 -87q0 -202 156 -202q117 0 191.5 137.5t74.5 355.5q0 211 -77 412h188q65 -174 65 -427z" />
    <glyph glyph-name="uni0400" unicode="&#x400;" horiz-adv-x="1144" 
d="M743 1560l-137 289h193l83 -289h-139zM964 162l-34 -162h-896l307 1443h896l-35 -162h-711l-99 -463h674l-34 -160h-674l-105 -496h711z" />
    <glyph glyph-name="Iocyrillic" unicode="&#x401;" horiz-adv-x="1144" 
d="M660 1608q-45 0 -77 32t-32 77q0 46 32 77.5t77 31.5q46 0 77.5 -31.5t31.5 -77.5q0 -45 -31.5 -77t-77.5 -32zM1034 1608q-45 0 -77 32t-32 77q0 46 32 77.5t77 31.5q46 0 77.5 -31.5t31.5 -77.5q0 -45 -31.5 -77t-77.5 -32zM964 162l-34 -162h-896l307 1443h896
l-35 -162h-711l-99 -463h674l-34 -160h-674l-105 -496h711z" />
    <glyph glyph-name="Djecyrillic" unicode="&#x402;" horiz-adv-x="1669" 
d="M408 0l272 1281h-463l35 162h1110l-35 -162h-463l-110 -520h12q59 67 154 106.5t196 39.5q203 0 317.5 -111t114.5 -308q0 -225 -141 -364.5t-368 -139.5q-126 0 -169 18l35 161q39 -16 134 -16q141 0 233 91t92 231q0 131 -70.5 203.5t-197.5 72.5q-108 0 -218.5 -59.5
t-171.5 -150.5l-114 -535h-184z" />
    <glyph glyph-name="Gjecyrillic" unicode="&#x403;" horiz-adv-x="1073" 
d="M851 1560h-139l206 289h193zM218 0h-184l307 1443h868l-35 -162h-684z" />
    <glyph glyph-name="Ecyrillic" unicode="&#x404;" horiz-adv-x="1409" 
d="M1296 402q-69 -202 -235 -319t-387 -117q-199 0 -334 97.5t-184.5 283t5.5 453.5q32 150 97 273.5t159 213.5t220.5 140t272.5 50q134 0 250 -56.5t189 -161.5t76 -236v-15h-183q-7 137 -106.5 220t-248.5 83q-191 0 -334 -134t-202 -358h652l-34 -162h-647
q-26 -245 72 -385t299 -140q145 0 256 76.5t164 193.5h183z" />
    <glyph glyph-name="Dzecyrillic" unicode="&#x405;" horiz-adv-x="1237" 
d="M54 424h181q15 -128 117 -206t264 -78q144 0 236 65t92 180q0 96 -59 152.5t-196 99.5l-96 30q-182 57 -269 149t-87 236q0 185 139 299.5t360 114.5q224 0 365.5 -113.5t141.5 -304.5h-180q-5 115 -93 185t-236 70q-147 0 -229 -69.5t-82 -167.5q0 -83 60 -138t192 -97
l96 -30q182 -57 272 -149.5t90 -228.5q0 -86 -33.5 -165t-97 -142.5t-164 -101t-224.5 -37.5q-151 0 -275.5 52.5t-202 155.5t-82.5 239z" />
    <glyph glyph-name="Icyrillic" unicode="&#x406;" horiz-adv-x="474" 
d="M218 0h-184l307 1443h184z" />
    <glyph glyph-name="Yicyrillic" unicode="&#x407;" horiz-adv-x="474" 
d="M305 1608q-45 0 -77 32t-32 77q0 46 32 77.5t77 31.5q46 0 77.5 -31.5t31.5 -77.5q0 -45 -31.5 -77t-77.5 -32zM679 1608q-45 0 -77 32t-32 77q0 46 32 77.5t77 31.5q46 0 77.5 -31.5t31.5 -77.5q0 -45 -31.5 -77t-77.5 -32zM218 0h-184l307 1443h184z" />
    <glyph glyph-name="Jecyrillic" unicode="&#x408;" horiz-adv-x="1036" 
d="M19 330v22h182v-1q0 -96 60 -151t162 -55q104 0 168.5 66.5t93.5 202.5l218 1029h184l-227 -1070q-40 -191 -156 -294t-299 -103q-167 0 -276.5 101.5t-109.5 252.5z" />
    <glyph glyph-name="Ljecyrillic" unicode="&#x409;" horiz-adv-x="2084" 
d="M442 540q-30 -109 -60.5 -189.5t-72 -151t-91 -114.5t-116 -69t-148.5 -25q-41 0 -68 10l34 161q22 -6 53 -6q59 0 105.5 28t81.5 84t60 121t50 158l243 896h871l-110 -515h278q205 0 333 -112.5t128 -298.5q0 -78 -25.5 -153.5t-74.5 -141t-115 -115.5t-153 -78.5
t-182 -28.5h-570l273 1281h-521zM1515 768h-274l-130 -608h333q160 0 270.5 96.5t110.5 233.5q0 139 -83.5 208.5t-226.5 69.5z" />
    <glyph glyph-name="Njecyrillic" unicode="&#x40a;" horiz-adv-x="2092" 
d="M931 0l140 657h-709l-140 -657h-183l307 1443h184l-133 -624h708l133 624h184l-133 -625h301q191 0 311 -99t120 -262q0 -87 -37 -168.5t-102.5 -146t-165 -103.5t-215.5 -39h-570zM1149 160h333q161 0 256 78t95 198q0 110 -75.5 166t-204.5 56h-298z" />
    <glyph glyph-name="Tshecyrillic" unicode="&#x40b;" horiz-adv-x="1678" 
d="M1101 745q-115 0 -223 -59.5t-172 -150.5l-114 -535h-184l272 1281h-463l35 162h1110l-35 -162h-463l-110 -518h16q171 144 366 144q226 0 333 -140.5t56 -379.5l-83 -387h-184l84 395q35 167 -28 258.5t-213 91.5z" />
    <glyph glyph-name="Kjecyrillic" unicode="&#x40c;" horiz-adv-x="1266" 
d="M896 1560h-139l206 289h193zM385 779h10l768 664h245l-835 -710l559 -733h-220l-535 700h-10l-149 -700h-184l307 1443h184z" />
    <glyph glyph-name="uni040D" unicode="&#x40d;" horiz-adv-x="1442" 
d="M870 1560l-137 289h193l83 -289h-139zM1004 0l241 1132h-16l-1013 -1132h-182l307 1443h182l-242 -1136h16l1014 1136h182l-307 -1443h-182z" />
    <glyph glyph-name="Ushortcyrillic" unicode="&#x40e;" horiz-adv-x="1247" 
d="M840 1550q-80 0 -141.5 27t-96.5 71.5t-51 98.5t-13 113h125q-4 -86 39.5 -144.5t143.5 -58.5q91 0 147 51.5t72 151.5h129q-17 -142 -112.5 -226t-241.5 -84zM176 -10q-55 0 -77 13l34 162q29 -8 78 -8q83 0 148 35.5t125 115.5l-251 1135h189l189 -929h16l574 929h205
l-687 -1071q-65 -101 -118.5 -166t-118 -117t-139 -75.5t-167.5 -23.5z" />
    <glyph glyph-name="Dzhecyrillic" unicode="&#x40f;" horiz-adv-x="1421" 
d="M1165 0h-456l-61 -285h-162l61 285h-513l307 1443h180l-272 -1279h768l272 1279h183z" />
    <glyph glyph-name="Acyrillic" unicode="&#x410;" horiz-adv-x="1301" 
d="M989 0l-59 413h-579l-234 -413h-198l836 1443h181l224 -1443h-171zM804 1224l-368 -658h471l-99 658h-4z" />
    <glyph glyph-name="Becyrillic" unicode="&#x411;" horiz-adv-x="1241" 
d="M604 0h-570l307 1443h855l-35 -162h-670l-88 -413h290q205 0 333 -104t128 -277q0 -92 -40.5 -179.5t-111 -156t-175 -110t-223.5 -41.5zM252 160h333q160 0 270.5 88t110.5 212t-83.5 186t-226.5 62h-287z" />
    <glyph glyph-name="Vecyrillic" unicode="&#x412;" horiz-adv-x="1310" 
d="M634 0h-600l307 1443h511q175 0 285.5 -87t110.5 -231q0 -134 -87.5 -235t-225.5 -139l-1 -4q116 -18 181.5 -98t65.5 -191q0 -201 -151.5 -329.5t-395.5 -128.5zM491 1284l-98 -463h297q165 0 268 74t103 193q0 196 -278 196h-292zM252 159h376q159 0 260.5 80.5
t101.5 203.5q0 223 -296 223h-334z" />
    <glyph glyph-name="Gecyrillic" unicode="&#x413;" horiz-adv-x="1073" 
d="M218 0h-184l307 1443h868l-35 -162h-684z" />
    <glyph glyph-name="Decyrillic" unicode="&#x414;" horiz-adv-x="1427" 
d="M53 0l-61 -285h-167l95 447h107q84 40 139.5 132t95.5 241l248 908h903l-273 -1281h180l-95 -447h-167l61 285h-1066zM433 531q-37 -133 -75.5 -215t-101.5 -142l-3 -12h703l238 1119h-555z" />
    <glyph glyph-name="Iecyrillic" unicode="&#x415;" horiz-adv-x="1144" 
d="M964 162l-34 -162h-896l307 1443h896l-35 -162h-711l-99 -463h674l-34 -160h-674l-105 -496h711z" />
    <glyph glyph-name="Zhecyrillic" unicode="&#x416;" horiz-adv-x="1984" 
d="M949 703l-793 -703h-244l871 769l-476 674h202l457 -661h10l141 661h180l-142 -663h11l739 663h232l-802 -715l515 -728h-206l-494 701h-11l-149 -701h-180l149 703h-10z" />
    <glyph glyph-name="Zecyrillic" unicode="&#x417;" horiz-adv-x="1181" 
d="M394 662l34 162h203q155 0 251.5 71t96.5 185q0 102 -78 167t-201 65q-122 0 -210.5 -65t-104.5 -166h-174q23 172 162.5 278.5t342.5 106.5q193 0 319 -104t126 -262q0 -134 -96 -237t-241 -122l-1 -4q119 -28 186 -110.5t67 -200.5q0 -195 -156 -322.5t-395 -127.5
q-232 0 -372.5 119t-127.5 304h174q0 -121 92.5 -193.5t247.5 -72.5q153 0 252.5 79t99.5 200q0 118 -78.5 184t-217.5 66h-201z" />
    <glyph glyph-name="Iicyrillic" unicode="&#x418;" horiz-adv-x="1442" 
d="M1004 0l241 1132h-16l-1013 -1132h-182l307 1443h182l-242 -1136h16l1014 1136h182l-307 -1443h-182z" />
    <glyph glyph-name="Iishortcyrillic" unicode="&#x419;" horiz-adv-x="1442" 
d="M950 1550q-80 0 -141.5 27t-96.5 71.5t-51 98.5t-13 113h125q-4 -86 39.5 -144.5t143.5 -58.5q91 0 147 51.5t72 151.5h129q-17 -142 -112.5 -226t-241.5 -84zM1004 0l241 1132h-16l-1013 -1132h-182l307 1443h182l-242 -1136h16l1014 1136h182l-307 -1443h-182z" />
    <glyph glyph-name="Kacyrillic" unicode="&#x41a;" horiz-adv-x="1266" 
d="M385 779h10l768 664h245l-835 -710l559 -733h-220l-535 700h-10l-149 -700h-184l307 1443h184z" />
    <glyph glyph-name="Elcyrillic" unicode="&#x41b;" horiz-adv-x="1343" 
d="M1087 0h-184l272 1281h-530l-203 -741q-30 -109 -60.5 -189.5t-72 -151t-91 -114.5t-116 -69t-148.5 -25q-41 0 -68 10l34 161q22 -6 53 -6q59 0 105.5 28t81.5 84t60 121t50 158l243 896h881z" />
    <glyph glyph-name="Emcyrillic" unicode="&#x41c;" horiz-adv-x="1716" 
d="M204 0h-170l307 1443h200l243 -1216h4l754 1216h225l-307 -1443h-170l239 1124h-7l-699 -1114h-153l-223 1114h-6z" />
    <glyph glyph-name="Encyrillic" unicode="&#x41d;" horiz-adv-x="1446" 
d="M1190 0h-184l140 657h-788l-140 -657h-184l307 1443h184l-133 -624h788l133 624h184z" />
    <glyph glyph-name="Ocyrillic" unicode="&#x41e;" horiz-adv-x="1528" 
d="M731 -23q-272 0 -436 172t-164 457q0 175 56.5 333t155 274t239 184.5t300.5 68.5q272 0 436 -172t164 -457q0 -175 -56.5 -333t-155 -274t-239 -184.5t-300.5 -68.5zM882 1301q-164 0 -294.5 -93t-201 -250t-70.5 -346q0 -215 112.5 -342.5t302.5 -127.5q164 0 294.5 93
t201 250t70.5 346q0 215 -112.5 342.5t-302.5 127.5z" />
    <glyph glyph-name="Pecyrillic" unicode="&#x41f;" horiz-adv-x="1421" 
d="M1165 0h-180l272 1279h-768l-272 -1279h-183l307 1443h1131z" />
    <glyph glyph-name="Ercyrillic" unicode="&#x420;" horiz-adv-x="1234" 
d="M341 1443h507q177 0 295.5 -107.5t118.5 -282.5q0 -164 -77.5 -287.5t-209.5 -187t-298 -63.5h-349l-109 -515h-185zM491 1283l-129 -608h304q188 0 298 95t110 267q0 116 -77.5 181t-210.5 65h-295z" />
    <glyph glyph-name="Escyrillic" unicode="&#x421;" horiz-adv-x="1412" 
d="M1246 978q0 8 -2 24q-15 139 -117.5 219t-256.5 80q-161 0 -287.5 -89t-196 -246.5t-69.5 -355.5q0 -217 109.5 -342.5t300.5 -125.5q145 0 256 74t162 204h182q-59 -202 -223 -322.5t-379 -120.5q-272 0 -432.5 170t-160.5 457q0 242 94.5 439t264.5 310t381 113
q236 0 388.5 -125t166.5 -336q1 -15 1 -27h-182z" />
    <glyph glyph-name="Tecyrillic" unicode="&#x422;" horiz-adv-x="1221" 
d="M592 0h-184l272 1281h-463l34 162h1110l-34 -162h-463z" />
    <glyph glyph-name="Ucyrillic" unicode="&#x423;" horiz-adv-x="1247" 
d="M176 -10q-55 0 -77 13l34 162q29 -8 78 -8q83 0 148 35.5t125 115.5l-251 1135h189l189 -929h16l574 929h205l-687 -1071q-65 -101 -118.5 -166t-118 -117t-139 -75.5t-167.5 -23.5z" />
    <glyph glyph-name="Efcyrillic" unicode="&#x424;" horiz-adv-x="1614" 
d="M781 -20h-178l32 151q-243 10 -383 142t-140 350q0 192 100 350t277.5 250.5t398.5 98.5l30 141h178l-30 -141q243 -10 383 -142t140 -350q0 -192 -100 -350t-277.5 -250.5t-398.5 -98.5zM295 627q0 -151 99.5 -240.5t274.5 -94.5l185 869q-242 -10 -400.5 -161.5
t-158.5 -372.5zM1406 826q0 151 -99.5 240.5t-274.5 94.5l-185 -869q242 10 400.5 161.5t158.5 372.5z" />
    <glyph glyph-name="Xacyrillic" unicode="&#x425;" horiz-adv-x="1314" 
d="M-66 0l652 734l-333 709h206l262 -581h8l504 581h232l-651 -734l332 -709h-206l-262 582h-8l-504 -582h-232z" />
    <glyph glyph-name="Tsecyrillic" unicode="&#x426;" horiz-adv-x="1527" 
d="M1291 -285h-167l61 285h-1146l309 1443h184l-272 -1279h760l272 1279h187l-273 -1281h180z" />
    <glyph glyph-name="Checyrillic" unicode="&#x427;" horiz-adv-x="1327" 
d="M1071 0h-184l134 630h-16q-68 -44 -164 -69t-197 -25q-168 0 -279 71.5t-150.5 194t-6.5 276.5l78 365h184l-78 -365q-35 -167 33 -271.5t237 -104.5q128 0 232 34t167 83l133 624h184z" />
    <glyph glyph-name="Shacyrillic" unicode="&#x428;" horiz-adv-x="1878" 
d="M34 0l307 1443h184l-273 -1281h518l273 1281h184l-273 -1281h518l273 1281h184l-307 -1443h-1588z" />
    <glyph glyph-name="Shchacyrillic" unicode="&#x429;" horiz-adv-x="1979" 
d="M34 0l307 1443h184l-273 -1281h518l273 1281h184l-273 -1281h518l273 1281h184l-273 -1281h182l-106 -447h-167l68 285h-1599z" />
    <glyph glyph-name="Hardsigncyrillic" unicode="&#x42a;" horiz-adv-x="1426" 
d="M809 0h-570l273 1281h-330l35 162h513l-114 -535h278q205 0 333 -110t128 -296q0 -146 -73 -261.5t-197.5 -178t-275.5 -62.5zM857 748h-274l-126 -588h333q161 0 269 93.5t108 237.5q0 127 -83.5 192t-226.5 65z" />
    <glyph glyph-name="Yericyrillic" unicode="&#x42b;" horiz-adv-x="1665" 
d="M34 0l307 1443h184l-114 -535h278q205 0 333 -110t128 -296q0 -146 -73 -261.5t-197.5 -178t-275.5 -62.5h-570zM1414 0h-184l307 1443h184zM652 748h-274l-126 -588h333q161 0 269 93.5t108 237.5q0 127 -83.5 192t-226.5 65z" />
    <glyph glyph-name="Softsigncyrillic" unicode="&#x42c;" horiz-adv-x="1221" 
d="M34 0l307 1443h184l-114 -535h278q205 0 333 -110t128 -296q0 -146 -73 -261.5t-197.5 -178t-275.5 -62.5h-570zM652 748h-274l-126 -588h333q161 0 269 93.5t108 237.5q0 127 -83.5 192t-226.5 65z" />
    <glyph glyph-name="Ereversedcyrillic" unicode="&#x42d;" horiz-adv-x="1380" 
d="M592 -23q-208 0 -355 123t-159 308h185q27 -125 120 -195t232 -70q192 0 329.5 136.5t190.5 378.5h-635l33 159h626q9 222 -89.5 351.5t-275.5 129.5q-138 0 -249.5 -77.5t-174.5 -218.5h-182q66 218 231.5 341t393.5 123q147 0 260 -60t177.5 -168t84.5 -259t-19 -334
q-64 -316 -254.5 -492t-469.5 -176z" />
    <glyph glyph-name="IUcyrillic" unicode="&#x42e;" horiz-adv-x="1988" 
d="M1196 -23q-269 0 -432 172t-163 457q0 34 1 51h-245l-140 -657h-183l307 1443h184l-133 -624h231q60 283 257.5 465t466.5 182t432 -172t163 -457q0 -175 -56 -333t-154 -274t-237.5 -184.5t-298.5 -68.5zM1757 831q0 215 -111 342.5t-299 127.5q-163 0 -292 -93
t-199 -250t-70 -346q0 -215 111 -342.5t299 -127.5q163 0 292 93t199 250t70 346z" />
    <glyph glyph-name="IAcyrillic" unicode="&#x42f;" horiz-adv-x="1268" 
d="M679 535l-497 -535h-236l525 564q-127 43 -199.5 140t-72.5 232q0 95 40.5 186.5t111 162.5t175 114.5t223.5 43.5h570l-307 -1443h-184l114 535h-263zM697 695h279l125 588h-333q-160 0 -270.5 -93.5t-110.5 -226.5q0 -134 83.5 -201t226.5 -67z" />
    <glyph glyph-name="acyrillic" unicode="&#x430;" horiz-adv-x="1028" 
d="M354 -18q-137 0 -231.5 81.5t-94.5 207.5q0 151 111 236.5t313 96.5l311 16l14 65q4 17 4 51q0 79 -54 124t-153 45q-103 0 -166 -45.5t-79 -122.5h-182q24 143 143 232t298 89q166 0 267 -82.5t101 -214.5q0 -46 -7 -88l-143 -673h-167l27 127h-3q-54 -68 -134.5 -106.5
t-174.5 -38.5zM400 130q112 0 198.5 65.5t109.5 169.5l26 116l-284 -15q-117 -6 -181.5 -52t-64.5 -125q0 -72 54 -115.5t142 -43.5z" />
    <glyph glyph-name="becyrillic" unicode="&#x431;" horiz-adv-x="1111" 
d="M648 1031q174 0 283.5 -122t109.5 -314q0 -273 -146.5 -443t-385.5 -170q-201 0 -320 142.5t-119 384.5q0 157 46 321q82 292 226.5 423t396.5 144q8 0 38.5 1.5t58.5 2.5l28 1q78 3 164 20.5t126 37.5l-32 -163q-76 -46 -284 -55q-1 -1 -55.5 -3t-71.5 -2
q-163 -8 -260 -97t-164 -292h16q71 95 154 139t191 44zM521 136q139 0 237.5 124t98.5 297q0 151 -66.5 235t-188.5 84q-160 0 -258.5 -120t-98.5 -313q0 -135 76 -221t200 -86z" />
    <glyph glyph-name="vecyrillic" unicode="&#x432;" horiz-adv-x="1007" 
d="M6 0l221 1040h403q142 0 222 -63t80 -176q0 -90 -62 -158t-163 -88l-3 -16q88 -13 138.5 -66t50.5 -133q0 -153 -119.5 -246.5t-315.5 -93.5h-452zM601 896h-228l-61 -286h219q100 0 160.5 46.5t60.5 123.5q0 59 -37 87.5t-114 28.5zM520 467h-239l-68 -323h271
q105 0 166.5 49.5t61.5 132.5q0 73 -46.5 107t-145.5 34z" />
    <glyph glyph-name="gecyrillic" unicode="&#x433;" horiz-adv-x="837" 
d="M849 896h-476l-191 -896h-176l221 1040h652z" />
    <glyph glyph-name="decyrillic" unicode="&#x434;" horiz-adv-x="1158" 
d="M2 -275h-161l90 419h87q54 34 106.5 121t83.5 196q-1 -4 40.5 143t83 293.5t40.5 142.5h721l-189 -896h165l-90 -419h-161l58 275h-815zM728 144l160 752h-393q-1 -4 -33 -115.5t-62.5 -219t-29.5 -103.5q-60 -212 -146 -298l-3 -16h507z" />
    <glyph glyph-name="iecyrillic" unicode="&#x435;" horiz-adv-x="1072" 
d="M496 -20q-206 0 -317 126.5t-111 331.5q0 170 65 311.5t183.5 225t266.5 83.5q194 0 307 -118t113 -321q0 -82 -9 -140h-748q-1 -12 -1 -36q0 -143 68.5 -226.5t184.5 -83.5q102 0 176 50t110 137h171q-41 -147 -168 -243.5t-291 -96.5zM268 618h557q1 9 1 28
q0 109 -61 184.5t-184 75.5q-117 0 -198.5 -80t-114.5 -208z" />
    <glyph glyph-name="zhecyrillic" unicode="&#x436;" horiz-adv-x="1476" 
d="M-121 0l603 566l-334 474h198l313 -460h6l98 460h176l-98 -460h8l507 460h218l-567 -503l368 -537h-202l-341 500h-8l-106 -500h-176l106 500h-6l-532 -500h-231z" />
    <glyph glyph-name="zecyrillic" unicode="&#x437;" horiz-adv-x="981" 
d="M858 322q-3 -146 -126.5 -243t-310.5 -97q-170 0 -276.5 96.5t-106.5 244.5h171q0 -78 65 -133.5t161 -55.5q106 0 176 54.5t71 135.5q1 65 -49 101t-141 36h-150l31 141h155q85 0 142 44t58 110q2 65 -51.5 107.5t-141.5 42.5q-94 0 -161 -51t-86 -134h-172
q32 156 147.5 246.5t285.5 90.5q160 0 260.5 -78t98.5 -197q-2 -86 -59.5 -155.5t-141.5 -85.5l-2 -6q74 -22 114 -77.5t39 -136.5z" />
    <glyph glyph-name="iicyrillic" unicode="&#x438;" horiz-adv-x="1113" 
d="M183 0h-177l221 1040h176l-164 -769h9l682 769h176l-221 -1040h-176l164 771h-9z" />
    <glyph glyph-name="iishortcyrillic" unicode="&#x439;" horiz-adv-x="1113" 
d="M746 1180q-83 0 -147 26.5t-100.5 71.5t-53 99t-13.5 113h129q-4 -84 41.5 -141.5t149.5 -57.5q94 0 152.5 51t74.5 148h133q-17 -142 -115.5 -226t-250.5 -84zM183 0h-177l221 1040h176l-164 -769h9l682 769h176l-221 -1040h-176l164 771h-9z" />
    <glyph glyph-name="elcyrillic" unicode="&#x43b;" horiz-adv-x="1059" 
d="M364 458q-77 -266 -163 -366.5t-237 -100.5q-42 0 -69 11l34 158q21 -8 50 -8q69 0 122 74.5t99 235.5q5 16 84 294.5t80 283.5h682l-221 -1040h-176l191 896h-350q-2 -8 -62.5 -219.5t-63.5 -218.5z" />
    <glyph glyph-name="emcyrillic" unicode="&#x43c;" horiz-adv-x="1399" 
d="M182 0h-176l221 1040h210l190 -798h6l545 798h214l-221 -1040h-176l155 730h-9l-488 -700h-123l-184 700h-9z" />
    <glyph glyph-name="encyrillic" unicode="&#x43d;" horiz-adv-x="1088" 
d="M6 0l221 1040h177l-91 -428h500l91 428h177l-221 -1040h-176l99 468h-500l-100 -468h-177z" />
    <glyph glyph-name="ocyrillic" unicode="&#x43e;" horiz-adv-x="1106" 
d="M601 1058q199 0 317.5 -124.5t118.5 -332.5q0 -171 -69.5 -313t-192 -224t-271.5 -82q-199 0 -317.5 124.5t-118.5 332.5q0 171 69.5 313t192 224t271.5 82zM504 135q155 0 256 132t101 329q0 141 -70.5 225t-189.5 84q-155 0 -256 -132t-101 -329q0 -141 70.5 -225
t189.5 -84z" />
    <glyph glyph-name="pecyrillic" unicode="&#x43f;" horiz-adv-x="1079" 
d="M675 0l191 896h-493l-191 -896h-176l221 1040h845l-221 -1040h-176z" />
    <glyph glyph-name="ercyrillic" unicode="&#x440;" horiz-adv-x="1147" 
d="M103 -348h-171l295 1388h171l-36 -168h3q48 82 138 134t190 52q177 0 280.5 -122t103.5 -328q0 -177 -68 -320.5t-186 -224.5t-263 -81q-120 0 -212 63.5t-122 162.5h-5zM556 136q150 0 250 130t100 330q0 146 -67 227.5t-186 81.5q-109 0 -193.5 -67t-127.5 -175
t-43 -235q0 -129 73 -210.5t194 -81.5z" />
    <glyph glyph-name="escyrillic" unicode="&#x441;" horiz-adv-x="1041" 
d="M601 1058q100 0 180.5 -30t130.5 -81.5t76.5 -115.5t26.5 -135v-7h-169q-4 92 -70 154t-177 62q-155 0 -254 -129.5t-99 -332.5q0 -143 68.5 -225.5t183.5 -82.5q100 0 173.5 52.5t107.5 142.5h171q-38 -150 -165 -249t-289 -99q-205 0 -316.5 125t-111.5 330
q0 173 67.5 315t190 224t275.5 82z" />
    <glyph glyph-name="tecyrillic" unicode="&#x442;" horiz-adv-x="861" 
d="M957 1040l-30 -144h-328l-191 -896h-176l191 896h-328l30 144h832z" />
    <glyph glyph-name="ucyrillic" unicode="&#x443;" horiz-adv-x="986" 
d="M57 -379q-67 0 -118 17l26 145q39 -16 94 -16q123 0 208 171l34 68l-170 1034h172l125 -848h3l452 848h192l-650 -1154q-86 -152 -170 -208.5t-198 -56.5z" />
    <glyph glyph-name="efcyrillic" unicode="&#x444;" horiz-adv-x="1432" 
d="M617 -346h-172l71 332q-200 9 -324 131t-124 312q0 281 187 456.5t490 177.5l70 328h172l-71 -332q200 -9 324 -131t124 -312q0 -281 -187 -456.5t-490 -177.5zM248 451q0 -143 80 -226.5t220 -87.5l165 775q-208 -7 -336.5 -135t-128.5 -326zM1184 594q0 143 -80 226.5
t-220 87.5l-165 -775q208 7 336.5 135t128.5 326z" />
    <glyph glyph-name="hacyrillic" unicode="&#x445;" horiz-adv-x="969" 
d="M462 388h-4l-327 -388h-204l461 534l-243 506h182l179 -388h4l327 388h204l-461 -534l243 -506h-182z" />
    <glyph glyph-name="tsecyrillic" unicode="&#x446;" horiz-adv-x="1137" 
d="M958 -275h-161l59 275h-850l221 1040h176l-191 -896h493l191 896h176l-191 -896h165z" />
    <glyph glyph-name="checyrillic" unicode="&#x447;" horiz-adv-x="1032" 
d="M804 0h-176l91 432h-15q-98 -63 -254 -63q-168 0 -247.5 107.5t-42.5 283.5l58 280h176l-61 -287q-24 -114 17 -172.5t145 -58.5q166 0 260 80l94 438h176z" />
    <glyph glyph-name="shacyrillic" unicode="&#x448;" horiz-adv-x="1521" 
d="M6 0l221 1040h177l-190 -896h379l189 896h176l-190 -896h380l190 896h176l-221 -1040h-1287z" />
    <glyph glyph-name="shchacyrillic" unicode="&#x449;" horiz-adv-x="1612" 
d="M6 0l221 1040h177l-190 -896h379l189 896h176l-190 -896h380l190 896h176l-190 -896h168l-102 -429h-167l68 285h-1285z" />
    <glyph glyph-name="hardsigncyrillic" unicode="&#x44a;" horiz-adv-x="1092" 
d="M539 0h-368l189 896h-275l30 144h452l-69 -331h192q151 0 238.5 -79t87.5 -203q0 -188 -131 -307.5t-346 -119.5zM659 566h-192l-90 -422h193q121 0 195.5 76t74.5 186q0 74 -48 117t-133 43z" />
    <glyph glyph-name="yericyrillic" unicode="&#x44b;" horiz-adv-x="1315" 
d="M911 0l221 1040h176l-221 -1040h-176zM6 0l221 1040h176l-70 -331h189q150 0 238 -79t88 -203q0 -188 -131.5 -307.5t-346.5 -119.5h-364zM491 566h-188l-90 -422h188q121 0 196 76t75 186q0 74 -48.5 117t-132.5 43z" />
    <glyph glyph-name="softsigncyrillic" unicode="&#x44c;" horiz-adv-x="924" 
d="M6 0l221 1040h176l-70 -331h189q150 0 238 -79t88 -203q0 -188 -131.5 -307.5t-346.5 -119.5h-364zM491 566h-188l-90 -422h188q121 0 196 76t75 186q0 74 -48.5 117t-132.5 43z" />
    <glyph glyph-name="ereversedcyrillic" unicode="&#x44d;" horiz-adv-x="1060" 
d="M99 720q56 157 178.5 247.5t293.5 90.5q190 0 306 -117.5t116 -313.5q0 -132 -37.5 -248.5t-106.5 -205t-174.5 -140t-233.5 -51.5q-94 0 -170.5 27t-124.5 73.5t-74.5 106t-28.5 127.5h174q7 -77 69.5 -128t159.5 -51q139 0 231 89t120 239h-472l31 144h456v-4
q2 137 -68 218t-195 81q-187 0 -276 -184h-174z" />
    <glyph glyph-name="iucyrillic" unicode="&#x44e;" horiz-adv-x="1502" 
d="M905 -18q-202 0 -319 126t-117 341v19h-182l-100 -468h-176l221 1040h176l-91 -428h171q49 199 185.5 322.5t323.5 123.5q201 0 318.5 -124t117.5 -333q0 -268 -149 -443.5t-379 -175.5zM905 135q151 0 251.5 132.5t100.5 328.5q0 141 -69.5 225t-190.5 84
q-151 0 -251.5 -132.5t-100.5 -328.5q0 -141 69.5 -225t190.5 -84z" />
    <glyph glyph-name="iacyrillic" unicode="&#x44f;" horiz-adv-x="965" 
d="M561 0l78 369h-156l-341 -369h-222l377 404q-81 30 -129.5 103t-48.5 166q0 167 125.5 267t335.5 100h378l-221 -1040h-176zM483 513h187l82 383h-197q-115 0 -185 -58.5t-70 -153.5q0 -77 50 -124t133 -47z" />
    <glyph glyph-name="uni0450" unicode="&#x450;" horiz-adv-x="1072" 
d="M565 1190l-121 300h177l75 -300h-131zM496 -20q-206 0 -317 126.5t-111 331.5q0 170 65 311.5t183.5 225t266.5 83.5q194 0 307 -118t113 -321q0 -82 -9 -140h-748q-1 -12 -1 -36q0 -143 68.5 -226.5t184.5 -83.5q102 0 176 50t110 137h171q-41 -147 -168 -243.5
t-291 -96.5zM268 618h557q1 9 1 28q0 109 -61 184.5t-184 75.5q-117 0 -198.5 -80t-114.5 -208z" />
    <glyph glyph-name="iocyrillic" unicode="&#x451;" horiz-adv-x="1072" 
d="M474 1225q-45 0 -77 32t-32 77q0 46 32 77.5t77 31.5q46 0 77.5 -31.5t31.5 -77.5q0 -45 -31.5 -77t-77.5 -32zM848 1225q-45 0 -77 32t-32 77q0 46 32 77.5t77 31.5q46 0 77.5 -31.5t31.5 -77.5q0 -45 -31.5 -77t-77.5 -32zM496 -20q-206 0 -317 126.5t-111 331.5
q0 170 65 311.5t183.5 225t266.5 83.5q194 0 307 -118t113 -321q0 -82 -9 -140h-748q-1 -12 -1 -36q0 -143 68.5 -226.5t184.5 -83.5q102 0 176 50t110 137h171q-41 -147 -168 -243.5t-291 -96.5zM268 618h557q1 9 1 28q0 109 -61 184.5t-184 75.5q-117 0 -198.5 -80
t-114.5 -208z" />
    <glyph glyph-name="djecyrillic" unicode="&#x452;" horiz-adv-x="1120" 
d="M10 0l260 1220h-117l26 124h117l21 99h175l-21 -99h286l-27 -124h-285l-73 -342h4q47 78 134.5 129t201.5 51q148 0 240.5 -92t92.5 -220q0 -54 -14 -121l-137 -625l-3 -15q-38 -191 -123.5 -273t-239.5 -82q-65 0 -85 5l35 152q11 -4 45 -4q80 0 124 46.5t68 156.5l3 14
h1l131 595q13 62 13 102q0 93 -60.5 150t-164.5 57q-119 0 -206 -77.5t-114 -202.5l-133 -624h-175z" />
    <glyph glyph-name="gjecyrillic" unicode="&#x453;" horiz-adv-x="837" 
d="M634 1190h-139l200 300h194zM849 896h-476l-191 -896h-176l221 1040h652z" />
    <glyph glyph-name="ecyrillic" unicode="&#x454;" horiz-adv-x="1030" 
d="M942 319q-41 -145 -166 -241t-281 -96q-209 0 -320.5 125.5t-111.5 329.5q0 171 66.5 312.5t188.5 225t274 83.5q190 0 299.5 -99t117.5 -241h-171q-13 81 -77.5 134t-168.5 53q-116 0 -204 -80.5t-125 -212.5h465l-29 -142h-457q-1 -9 -1 -27q0 -142 67.5 -225
t186.5 -83q95 0 167.5 49.5t107.5 134.5h172z" />
    <glyph glyph-name="dzecyrillic" unicode="&#x455;" horiz-adv-x="958" 
d="M140 748q0 135 107.5 222t278.5 87q168 0 274.5 -88.5t108.5 -228.5h-166q-7 77 -68 126t-151 49q-97 0 -155 -42.5t-58 -108.5q0 -55 38.5 -89t136.5 -64l90 -28q139 -43 201 -108t62 -168q0 -140 -114.5 -232.5t-288.5 -92.5q-182 0 -296.5 91t-119.5 231h174
q12 -81 78 -130t172 -49q94 0 157 50t63 122q0 50 -34 78t-133 59l-90 28q-142 44 -204.5 111.5t-62.5 174.5z" />
    <glyph glyph-name="icyrillic" unicode="&#x456;" horiz-adv-x="434" 
d="M391 1225q-45 0 -77 32t-32 77q0 46 32 77.5t77 31.5q46 0 77.5 -31.5t31.5 -77.5q0 -45 -31.5 -77t-77.5 -32zM18 0l221 1040h176l-221 -1040h-176z" />
    <glyph glyph-name="yicyrillic" unicode="&#x457;" horiz-adv-x="444" 
d="M295 1236q-41 0 -69.5 29t-28.5 69q0 41 28.5 69.5t69.5 28.5t69.5 -28.5t28.5 -69.5t-28.5 -69.5t-69.5 -28.5zM517 1236q-41 0 -69.5 29t-28.5 69q0 41 28.5 69.5t69.5 28.5t69.5 -28.5t28.5 -69.5t-28.5 -69.5t-69.5 -28.5zM23 0l221 1040h176l-221 -1040h-176z" />
    </font>
</defs>
</svg>
